<svg width="190" height="95" viewBox="0 0 190 95" fill="none" xmlns="http://www.w3.org/2000/svg">
<path opacity="0.1" d="M189.587 0.677223C186.648 3.53487 183.758 6.45858 180.819 9.31622C179.383 10.7037 177.88 12.0417 176.377 13.3467C175.998 13.677 176.031 13.9083 176.229 14.2717C176.774 15.2462 177.269 16.2373 177.831 17.2119C178.904 19.0785 179.729 21.0771 181.249 22.6794C181.612 23.0593 181.364 23.3236 180.935 23.4723C177.814 24.612 175.222 26.7098 172.365 28.3286C172.216 28.4112 172.117 28.7581 172.167 28.9398C173.092 32.0122 174.066 35.068 174.974 38.1404C175.833 41.0641 176.592 44.0208 177.401 46.9611C177.517 47.3905 177.434 47.6383 176.955 47.7539C175.701 48.0678 174.462 48.4147 173.207 48.745C170.962 49.3397 168.716 49.9674 166.437 50.5125C163.894 51.1236 161.352 51.6522 158.792 52.1973C158.346 52.2964 158.214 52.5277 158.214 52.9571C158.231 54.0969 158.198 55.2532 158.214 56.3929C158.247 58.4577 158.264 60.5059 158.379 62.5707C158.412 63.2314 158.247 63.3471 157.653 63.2645C156.629 63.1323 155.589 63.0002 154.565 63.0002C152.65 62.9837 150.734 63.0828 148.819 63.1158C147.531 63.1323 147.547 63.1323 147.25 64.3877C146.507 67.5261 145.748 70.6646 144.972 73.7865C144.311 76.4459 143.585 79.0888 142.908 81.7317C142.792 82.1612 142.627 82.4585 142.115 82.3099C141.455 82.1117 140.778 81.8969 140.101 81.7152C137.492 80.9884 134.866 80.2781 132.257 79.5348C129.582 78.7585 126.907 77.9491 124.232 77.1067C123.787 76.958 123.572 76.991 123.357 77.3875C121.789 80.2451 119.692 82.8054 118.602 85.9274C118.437 86.3733 118.139 86.4559 117.76 86.1256C117.595 85.9934 117.463 85.8448 117.281 85.7291C114.622 84.1764 111.964 82.6237 109.289 81.1041C109.124 81.0215 108.711 81.1536 108.563 81.3188C107.341 82.6237 106.185 84.0113 104.946 85.2831C101.958 88.3555 98.936 91.3949 95.9308 94.4342C95.1877 95.194 95.1878 95.194 94.4117 94.4012C91.6872 91.6261 88.9297 88.8676 86.2217 86.076C84.7521 84.5729 83.3321 83.0202 81.9616 81.4179C81.5653 80.9554 81.2846 80.8728 80.8223 81.1866C80.6571 81.3023 80.459 81.3684 80.2774 81.484C77.718 83.0367 74.8449 84.1104 72.5662 86.1421C72.1865 86.4724 71.9058 86.3073 71.7406 85.8613C70.6178 82.7228 68.5208 80.1295 66.9026 77.2719C66.82 77.1232 66.4733 76.991 66.3082 77.0406C63.1048 77.9821 59.9345 79.0063 56.7312 79.9313C54.1223 80.6911 51.4969 81.3518 48.8714 82.0621C47.6661 82.3925 47.6826 82.3925 47.3854 81.2362C46.5598 78.0647 45.6681 74.8932 44.8755 71.7218C44.2151 69.0458 43.6701 66.3368 43.0262 63.6444C42.9767 63.4297 42.6464 63.1488 42.4483 63.1323C41.0282 63.0662 39.6082 63.0002 38.1716 63.0332C36.3058 63.0663 34.4564 63.1984 32.6071 63.281C32.1117 63.314 31.8475 63.1819 31.9961 62.6037C32.0952 62.2569 32.1778 61.8935 32.1778 61.5301C32.1943 58.6229 32.1778 55.7157 32.1943 52.8085C32.1943 52.346 31.9301 52.2469 31.5833 52.1808C29.5358 51.7513 27.4718 51.3879 25.4409 50.8759C21.478 49.8848 17.5316 48.7781 13.5852 47.7705C12.9742 47.6218 12.9082 47.341 13.0568 46.8289C13.6512 44.7476 14.2292 42.6498 14.8236 40.5686C15.9464 36.7198 17.0857 32.8711 18.1755 29.0224C18.2416 28.8076 18.126 28.3947 17.9609 28.2956C15.1373 26.6768 12.5614 24.612 9.45718 23.4723C8.84623 23.241 8.86273 22.9767 9.25903 22.5142C9.7709 21.9361 10.2663 21.3249 10.646 20.6477C11.7358 18.7316 12.7926 16.7989 13.8329 14.8498C14.4108 13.7596 14.3943 13.7431 13.4036 12.9337C13.3045 12.8511 13.2219 12.752 13.1228 12.6694C10.8607 10.489 8.59854 8.30862 6.3529 6.1117C4.47053 4.27819 2.62118 2.42817 0.722301 0.611175C0.491131 0.37992 0.35905 0.198211 0.35905 -8.52811e-06L1.46534 -8.56738e-06C1.46534 0.297317 1.76257 0.578139 2.35699 1.18931C4.76776 3.60096 7.14547 6.02912 9.58926 8.40773C11.2405 10.01 12.9908 11.5132 14.8071 13.165C15.4015 12.0748 15.9464 11.1002 16.4418 10.1091C16.5243 9.94392 16.4748 9.58052 16.3427 9.4649C14.2622 7.51575 12.1817 5.58312 10.0846 3.63399C8.99482 2.62638 7.92157 1.60226 6.81526 0.611174C6.56758 0.396437 6.43547 0.198211 6.45198 -8.74436e-06L7.31062 -8.77484e-06C10.514 3.00629 13.7008 5.97957 16.9702 9.03543C17.6967 7.87916 18.4067 6.72288 19.1167 5.56662C17.5646 4.29472 16.029 3.02283 14.5099 1.76745C14.031 1.37101 13.5522 0.97457 13.1063 0.545096C12.9247 0.363402 12.8256 0.181685 12.8421 0.0165087L13.6182 0.0165086C14.1796 0.528571 14.675 1.04063 15.2199 1.48662C16.4088 2.47771 17.6306 3.45229 18.836 4.42686C19.2984 4.80678 19.6451 5.05455 20.124 4.34427C20.5863 3.63399 21.2633 3.05585 21.8577 2.41163C21.0817 1.80047 20.3386 1.18929 19.5791 0.594641C19.3149 0.396422 19.1993 0.198202 19.1993 0.0165084L19.8433 0.0165084C20.7514 0.677229 21.5275 1.22235 22.3036 1.76745C22.4026 1.83352 22.6173 1.86654 22.7164 1.80047C24.0373 1.1893 25.3583 0.561606 26.5141 0.0165082C26.5141 0.0165082 26.5141 0.0165082 26.4976 0.0165082L33.3171 0.0165079C33.3336 0.809378 33.4822 1.58573 33.7299 2.39512C34.4399 4.69114 35.5132 6.75593 37.1149 8.53988C38.3368 9.89437 39.9054 10.7533 41.5401 11.5132C43.2739 12.3225 45.1067 12.273 46.9891 12.1739C46.9891 11.2819 46.9891 10.4064 46.9891 9.4814C46.1139 9.26667 45.2058 9.118 44.3306 8.83719C40.2521 7.48271 37.6102 4.75722 36.636 0.561613C36.603 0.379911 36.57 0.214742 36.5535 0.0330407L37.346 0.0330407C37.3295 1.25538 37.8249 2.34556 38.4689 3.38621C40.1366 6.06215 42.4813 7.89567 45.6681 8.47381C46.1139 8.55639 46.5763 8.60594 47.1212 8.68853C47.3523 7.64789 47.567 6.70636 47.7982 5.68223C47.3523 5.56661 46.923 5.43447 46.4772 5.31885C44.4958 4.79027 42.8446 3.78265 41.8373 1.94914C41.4741 1.28841 41.2759 0.644208 41.2429 0.0330406L41.9364 0.0330405C41.9199 1.04065 42.4978 1.94913 43.5215 2.95674C44.6774 4.09649 46.1965 4.59205 47.7651 4.90589C47.9303 4.93892 48.1945 4.79025 48.2935 4.64158C48.7228 4.03042 49.1191 3.40273 49.4659 2.87415C48.5247 2.44468 47.5505 2.11432 46.6919 1.56921C46.0314 1.15626 45.7011 0.594655 45.7011 0.0495504L46.7249 0.0495504C46.7414 0.297323 46.8735 0.545102 47.1047 0.776357C48.0293 1.71789 49.2182 2.0152 50.4401 1.99869C50.985 1.99869 51.5134 1.43707 52.0748 1.15626C52.9004 0.743306 53.7425 0.363393 54.3535 0.0660677C54.3369 0.0495501 54.3204 0.0495577 54.3039 0.0330401L59.4061 0.0330399C59.4061 2.21344 60.5124 4.0139 62.1306 5.3849C63.8644 6.85502 65.9284 7.2845 68.1905 6.75591C68.6694 6.64029 68.851 6.49163 68.818 5.99608C68.785 5.53357 68.818 5.07107 68.818 4.57553C67.9594 4.57553 67.2163 4.59205 66.4733 4.57553C63.8314 4.50946 62.0481 2.90719 61.4701 0.974568C61.3711 0.660718 61.338 0.33035 61.3215 0.0165069L62.0811 0.0165069C62.0811 1.30492 62.8902 2.54378 64.1616 3.23754C65.6642 4.04693 67.2989 3.98088 68.9336 3.74962C69.0492 3.73311 69.1813 3.58442 69.2638 3.4688C69.6601 2.87415 70.0399 2.26297 70.4692 1.58573C69.6601 1.71787 68.884 1.93262 68.108 1.94914C67.2989 1.96566 66.4568 1.89959 65.6807 1.70137C64.9872 1.51967 64.4918 0.710286 64.5084 0.0330397L65.2844 0.0330397C65.2844 0.379918 65.6807 0.858945 66.0275 1.04064C66.4403 1.25538 66.9852 1.30493 67.4475 1.28841C69.0657 1.22234 70.6178 0.858937 72.0709 0.148655C72.1039 0.132138 72.1204 0.0990948 72.1369 0.0165066L75.4724 0.0165064C75.4724 0.082577 75.4724 0.165173 75.4724 0.247761C75.5219 1.80046 77.008 3.23755 78.5601 3.30362C78.8408 3.32013 79.1215 3.40272 79.4022 3.40272C79.9802 3.41924 80.492 3.38621 80.6902 2.64289C81.0039 1.43707 81.7635 0.561619 83.0349 0.0330391L83.0184 0.0330391L85.974 0.033039C85.974 0.033039 85.974 0.0330313 85.974 0.049549C85.974 0.297321 86.3043 0.627682 86.5685 0.743305C88.4508 1.58573 90.1516 0.941539 92.0174 0.0330388L98.325 0.0330385C98.3085 0.0330385 98.292 0.0495485 98.2755 0.0495485C100.125 0.842426 101.76 1.58574 103.592 0.776355C103.906 0.644206 104.137 0.297321 104.401 0.0495483C104.385 0.0330307 104.385 0.0330231 104.368 0.0165054L107.324 0.0165053C107.324 0.0165053 107.308 0.0165206 107.308 0.0330382C108.596 0.578136 109.322 1.51967 109.702 2.75853C109.784 3.0063 110.115 3.30361 110.362 3.32013C111.584 3.43576 113.268 3.15496 114.127 2.04824C114.606 1.43707 114.821 0.726786 114.821 0.016505L118.156 0.0165049C118.139 0.115611 118.139 0.198214 118.123 0.29732C119.593 0.627688 121.062 1.02411 122.548 1.25537C123.126 1.35447 123.82 1.23885 124.365 1.00759C124.695 0.875445 125.025 0.3799 125.058 0.0165047L125.884 0.0165047C125.884 0.0495399 125.884 0.0660576 125.884 0.0990929C125.851 0.809374 125.273 1.63528 124.464 1.75091C123.473 1.89957 122.433 1.85002 121.425 1.8335C120.93 1.81698 120.418 1.66831 119.906 1.58573C120.319 2.22994 120.633 2.90719 121.112 3.41925C121.392 3.71659 121.954 3.79917 122.4 3.84872C124.365 4.04694 126.164 3.76613 127.518 2.13083C128.08 1.45358 128.311 0.743319 128.294 0.0330375L129.037 0.0330374C129.07 0.941538 128.691 1.75091 128.129 2.49423C127.039 3.9313 125.537 4.59204 123.737 4.59204C123.044 4.59204 122.35 4.59204 121.541 4.59204C121.541 5.13714 121.508 5.73179 121.557 6.32644C121.574 6.47511 121.822 6.67333 122.003 6.72288C125.438 7.6479 128.806 5.88046 130.012 3.08889C130.391 2.19691 130.953 1.27188 130.986 0.346865C130.986 0.247759 130.986 0.132143 130.986 0.0330374L136.105 0.0330372C136.088 0.0330372 136.072 0.0495472 136.072 0.0495472C136.881 0.462503 137.97 0.925013 138.978 1.53618C139.638 1.94914 140.282 2.16387 140.992 1.86655C141.768 1.5527 142.544 1.18929 143.238 0.726793C143.519 0.528574 143.651 0.280809 143.618 0.0330369L144.658 0.0330369C144.658 0.594652 144.278 1.15626 143.519 1.63529C142.709 2.14735 141.768 2.4612 140.877 2.85764C141.289 3.46881 141.768 4.19559 142.28 4.97194C144.79 4.4764 147.052 3.61746 148.191 1.00759C148.34 0.677225 148.406 0.363397 148.406 0.0495468L149.133 0.0495467C149.166 1.17278 148.538 2.11431 147.812 2.97325C146.755 4.22863 145.368 5.03803 143.733 5.35187C143.337 5.43446 142.941 5.58312 142.544 5.69875C142.792 6.72287 143.007 7.68093 143.238 8.67201C147.267 8.40772 150.107 6.34297 152.105 3.08889C152.732 2.06477 153.013 1.04064 152.996 0.0495466L153.739 0.0495466C153.756 1.28841 153.277 2.42816 152.699 3.45228C151.329 5.84741 149.347 7.68092 146.722 8.6555C145.863 8.96934 144.922 9.11801 144.014 9.29971C143.552 9.3823 143.271 9.51444 143.304 10.0761C143.353 10.7698 143.32 11.4636 143.32 12.1408C146.821 12.6694 149.744 11.5462 152.319 9.39881C154.912 7.25145 156.183 4.31122 156.959 1.15626C157.042 0.809373 157.075 0.429467 157.058 0.0495465L163.861 0.0495462C163.861 0.0495462 163.861 0.0495462 163.845 0.0495462C164.984 0.578134 166.272 1.1893 167.56 1.78395C167.709 1.85003 167.989 1.85003 168.121 1.76744C168.898 1.25538 169.641 0.710274 170.532 0.0660636C170.532 0.0660636 170.516 0.0660712 170.516 0.049546L171.209 0.049546C171.209 0.330361 170.846 0.594643 170.119 1.23885C169.624 1.68484 169.03 2.03172 168.518 2.39512C169.294 3.25406 170.02 4.07997 170.862 5.00499C172.86 3.35318 174.809 1.75092 176.889 0.0330357L177.616 0.0330357C177.616 0.214737 177.5 0.396424 177.286 0.578118C175.304 2.24645 173.323 3.91479 171.292 5.61615C171.969 6.72287 172.679 7.86263 173.422 9.06845C176.675 6.02911 179.845 3.05585 183.081 0.0495455L183.973 0.0495455C183.973 0.2808 183.758 0.512047 183.296 0.924996C181.166 2.87414 179.069 4.83981 176.955 6.80547C176.047 7.6479 175.156 8.50683 174.214 9.33273C173.868 9.63006 173.719 9.87784 173.983 10.3073C174.528 11.2158 175.024 12.1573 175.667 13.2971C180.258 8.8372 184.733 4.49293 189.323 0.0495453L190 0.0495453C190 0.198212 189.851 0.412933 189.587 0.677223ZM176.691 47.0602C174.957 40.9815 173.257 34.9524 171.506 28.8076C170.433 29.4188 169.575 29.8978 168.732 30.3769C168.254 30.6577 168.088 30.988 168.287 31.5827C169.542 35.5635 170.73 39.5444 171.952 43.5253C172.249 44.5164 172.2 44.5659 171.193 44.7807C168.468 45.3918 165.76 46.0195 163.036 46.6472C161.682 46.9611 160.311 47.2914 158.957 47.5888C158.544 47.6713 158.297 47.8035 158.313 48.266C158.33 49.3066 158.313 50.3308 158.313 51.5531C164.538 50.4134 170.499 48.5964 176.691 47.0602ZM159.865 34.6551C160.146 35.2993 160.443 35.96 160.741 36.6042C161.385 37.9917 161.319 38.1569 159.849 38.4542C159.089 38.6029 158.313 38.6524 157.537 38.735C157.735 39.7096 157.901 40.6677 158.148 41.5927C158.198 41.7909 158.544 42.0717 158.71 42.0387C161.021 41.6753 163.333 41.2458 165.645 40.8328C165.678 40.8328 165.711 40.7668 165.859 40.6181C165.001 38.3056 164.109 35.9435 163.217 33.5483C162.029 33.9448 161.005 34.2751 159.865 34.6551ZM154.565 34.3742C155.093 35.0515 155.853 35.6627 156.167 36.4555C156.844 38.1404 158.082 38.0578 159.469 37.8431C159.717 37.81 159.981 37.7605 160.41 37.6779C159.981 36.7033 159.568 35.7783 159.139 34.8533C159.089 34.7376 158.825 34.7046 158.66 34.6881C157.306 34.5725 155.952 34.4734 154.565 34.3742ZM165.05 36.4225C165.562 37.81 166.024 39.1975 166.52 40.5851C166.718 41.1467 166.569 41.4275 165.925 41.5266C164.654 41.7248 163.399 42.0387 162.128 42.2699C160.856 42.4846 159.585 42.6498 158.247 42.8315C158.313 44.186 158.363 45.524 158.429 46.928C162.722 45.9369 166.982 44.9459 171.292 43.9548C170.02 39.7757 168.732 35.5801 167.428 31.3019C166.206 31.9626 165.05 32.5738 163.828 33.2345C164.241 34.3247 164.67 35.3653 165.05 36.4225ZM144.361 62.356C147.828 62.2734 151.312 62.2238 154.78 62.2073C155.704 62.2073 156.629 62.3395 157.504 62.4055C157.504 59.168 157.504 55.9139 157.504 52.6598C157.504 51.6192 157.488 50.5785 157.504 49.5379C157.521 48.8111 157.636 48.1008 157.636 47.374C157.653 46.0361 157.686 44.6816 157.587 43.3436C157.504 42.2699 157.273 41.1962 157.075 40.1391C156.712 38.2064 155.556 36.7198 154.367 35.2332C153.013 33.5483 150.982 32.8876 149.347 31.7644C148.868 32.2104 148.406 32.6233 147.894 33.0858C148.753 33.6805 149.644 34.176 150.371 34.8368C152.914 37.1493 154.532 39.9243 155.06 43.4097C155.49 46.2178 155.457 49.0258 155.523 51.8339C155.589 54.3942 155.358 56.9545 155.275 59.5149C155.259 59.9443 155.126 60.1095 154.697 60.126C154.02 60.126 153.36 60.2251 152.683 60.2416C149.694 60.2912 146.722 60.3903 143.733 60.3408C140.497 60.2912 137.244 60.0434 134.288 58.5898C133.182 58.0447 132.257 57.1032 131.283 56.3268C130.821 55.9634 130.342 55.6001 129.962 55.1541C129.368 54.4107 128.856 53.6014 128.228 52.7259C127.783 53.238 127.37 53.7005 126.94 54.2125C128.03 55.8313 128.773 57.83 130.408 59.2671C132.521 61.1171 134.916 62.1578 137.706 62.3229C139.044 62.4055 140.381 62.5377 141.719 62.5542C142.627 62.6037 143.485 62.3725 144.361 62.356ZM158.264 12.9337C158.891 13.8092 159.321 14.569 159.931 15.1967C160.179 15.4445 160.757 15.494 161.17 15.4445C163.085 15.1636 164.968 14.6186 166.883 14.569C169.195 14.5029 171.473 14.9159 173.339 16.5181C173.372 16.5512 173.438 16.5347 173.719 16.5512C172.662 14.9324 171.721 13.4127 170.681 11.9591C169.806 10.7533 168.485 10.5055 167.114 10.8689C165.744 11.2323 164.406 11.7444 163.069 12.2234C161.533 12.752 160.047 13.4127 158.264 12.9337ZM165.81 15.3123C164.291 15.4114 162.772 15.907 161.302 16.386C160.146 16.7494 159.799 17.757 160.476 18.6655C162.887 21.9361 166.024 24.0834 170.185 24.133C172.431 24.1495 174.446 23.1584 176.212 21.7709C174.115 16.7989 170.929 14.9489 165.81 15.3123ZM161.929 21.358C161.252 20.7468 160.608 20.1191 159.948 19.4914C159.552 19.1115 159.172 18.9793 158.627 19.2767C157.95 19.6401 157.224 19.9044 156.315 20.3008C158.875 21.2423 159.981 23.4888 161.599 25.2067C162.161 25.8013 162.706 26.4455 163.366 26.9576C164.588 27.8991 165.942 27.8165 167.246 27.1723C168.633 26.4951 169.971 25.7187 171.407 24.9424C170.334 24.8763 169.376 24.9094 168.468 24.7442C165.958 24.2651 163.795 23.0593 161.929 21.358ZM159.172 23.3566C158.148 22.0352 156.844 21.1432 155.308 20.6146C154.813 20.4495 154.235 20.4825 153.706 20.4329C153.64 20.499 153.574 20.5486 153.508 20.6146C154.912 23.241 156.282 25.9004 157.768 28.4938C158.099 29.0884 158.776 29.5179 159.337 29.9474C159.799 30.2943 160.328 30.2117 160.873 29.9969C162.029 29.5675 163.201 29.1875 164.489 28.7416C162.194 27.288 160.691 25.3058 159.172 23.3566ZM153.855 22.5968C153.343 21.2754 152.567 20.1356 151.263 19.3923C150.454 18.9463 149.76 18.3186 148.951 17.7405C149.397 18.8142 149.859 19.8053 150.222 20.8459C150.767 22.3656 150.833 23.9513 150.701 25.537C150.586 27.0402 151.378 27.8991 152.518 28.6259C153.773 29.4188 155.143 29.8152 156.613 29.9969C157.174 30.063 157.719 30.1456 158.297 30.2117C156.183 28.0313 154.945 25.3719 153.855 22.5968ZM149.711 28.0643C150.272 25.0415 150.255 22.0682 148.835 19.2601C147.531 16.7163 145.814 14.5525 142.891 13.6275C142.462 14.3873 142.016 15.1637 141.653 15.8244C142.627 16.8485 143.651 17.7405 144.46 18.7976C145.682 20.3999 146.392 22.283 146.59 24.2982C146.672 25.2067 146.656 26.1482 146.59 27.0732C146.392 29.6005 144.674 30.988 142.66 32.0947C141.009 33.0032 139.192 33.2675 137.36 33.3832C135.725 33.4988 134.189 33.0032 132.687 32.4086C132.555 32.359 132.406 32.293 132.224 32.2269C131.745 33.0198 131.3 33.7961 130.837 34.5559C134.536 37.7439 140.612 37.5622 144.509 34.8698C145.632 34.0934 146.705 33.218 147.746 32.3425C149.034 31.2358 149.413 29.6666 149.711 28.0643ZM100.34 5.15366C100.719 6.22734 101.017 7.23494 100.604 8.29211C100.554 8.44077 100.604 8.67202 100.703 8.80416C101.727 10.2247 102.899 11.0011 104.666 10.4725C105.078 10.3569 105.557 9.81177 105.689 9.3823C106.119 7.86263 105.392 6.32643 104.038 5.55008C103.857 5.45097 103.576 5.40142 103.378 5.46749C102.354 5.81437 101.396 5.51706 100.34 5.15366ZM86.9647 5.45098C86.7666 5.38491 86.4529 5.48401 86.2547 5.59964C84.9007 6.45858 84.2733 7.86263 84.6861 9.3823C84.8182 9.82829 85.3301 10.3569 85.7759 10.5055C87.2289 10.968 88.9297 10.1586 89.6727 8.80416C89.7388 8.67202 89.8378 8.4738 89.7883 8.3747C89.2599 7.2845 89.6892 6.27689 90.003 5.17018C88.9462 5.50054 88.005 5.83089 86.9647 5.45098ZM27.3067 12.2234C26.1839 11.8105 25.0776 11.3645 23.9382 11.0341C20.9331 10.1587 20.0414 11.2984 18.803 13.1154C18.0765 14.1891 17.4655 15.3288 16.9206 16.5677C17.2013 16.353 17.449 16.0887 17.7627 15.9235C19.9918 14.7507 22.3696 14.2717 24.8795 14.6351C26.382 14.8498 27.8681 15.2297 29.3542 15.527C29.8496 15.6262 30.2294 15.5766 30.5266 15.0811C30.9559 14.3873 31.5008 13.7596 32.1117 12.9502C30.3119 13.3797 28.8093 12.7685 27.3067 12.2234ZM19.2488 16.0061C17.2839 16.7164 16.0785 18.3351 14.9557 20.0035C14.6089 20.5155 14.3943 21.1102 14.0805 21.7214C16.1446 23.2575 18.3737 24.2651 20.9331 24.1165C22.0394 24.0504 23.1457 23.654 24.2024 23.241C26.3325 22.3821 28.0993 20.9946 29.5193 19.1941C30.6256 17.7735 30.3945 16.865 28.7267 16.2208C25.606 14.9985 22.4191 14.8663 19.2488 16.0061ZM30.3119 19.574C28.7928 20.8624 27.3067 22.2004 25.672 23.3071C24.1199 24.3477 22.287 24.8268 20.4047 24.9094C19.9753 24.9259 19.546 24.8103 18.9351 24.7277C19.2488 24.9589 19.4304 25.1241 19.6286 25.2232C20.9496 25.917 22.254 26.6603 23.608 27.288C25.2922 28.0808 26.7123 27.4366 27.8681 26.1978C29.09 24.8928 30.1633 23.4558 31.3852 22.1673C32.0952 21.424 32.9869 20.8294 33.8125 20.1686C33.2015 19.9043 32.4915 19.6566 31.8475 19.2932C31.187 18.9463 30.7908 19.161 30.3119 19.574ZM25.8702 28.7581C27.4058 29.2701 28.7763 29.9309 30.2294 30.1621C31.1705 30.3108 31.9466 29.4518 32.5245 28.659C33.928 26.7429 34.9683 24.6451 35.8269 22.4316C36.0746 21.7874 36.4049 21.1763 36.7516 20.4495C34.0932 20.4164 32.3594 21.8535 30.8568 23.7696C29.4533 25.5866 28.0167 27.4036 25.8702 28.7581ZM36.0746 23.5714C35.3316 25.9665 34.0601 28.1634 32.1447 30.1291C33.8455 30.03 35.3811 29.8318 36.8011 29.171C37.2965 28.9398 37.7588 28.659 38.2212 28.3617C39.1954 27.7009 39.7733 26.8255 39.6907 25.5536C39.4926 22.8281 39.988 20.2347 41.4575 17.8396C39.1954 19.3427 36.9663 20.7138 36.0746 23.5714ZM40.4998 22.5803C40.021 25.1241 40.4008 27.6348 41.1603 30.0795C41.3585 30.7072 41.7052 31.3514 42.151 31.8139C44.4132 34.1265 46.9395 36.0591 50.2089 36.6537C53.1811 37.1988 56.0872 37.0006 58.6796 35.1671C58.9603 34.9689 59.241 34.8037 59.5713 34.589C59.0924 33.7631 58.6466 33.0198 58.2503 32.3755C56.9128 32.6894 55.6414 33.0693 54.3535 33.284C52.5701 33.5814 50.8034 33.2345 49.1026 32.6729C47.7156 32.2104 46.4937 31.4505 45.4039 30.4594C44.3141 29.4849 43.8848 28.2295 43.7692 26.875C43.3729 22.4151 44.9911 18.8472 48.5742 16.1547C48.6403 16.1052 48.6898 16.0556 48.7889 15.9731C48.3431 15.1967 47.9138 14.4038 47.4514 13.5944C43.3894 15.2628 41.2759 18.4177 40.4998 22.5803ZM45.3709 39.3958C46.7744 39.5775 48.1449 39.8417 49.4824 39.2636C50.6052 38.7846 51.6785 38.2395 52.5867 37.8265C51.0345 37.4466 49.3008 37.0832 47.6165 36.5712C46.8405 36.3399 46.0974 35.8774 45.4369 35.3819C44.149 34.4238 42.9436 34.7542 41.6722 35.3984C39.8724 36.3069 38.7661 37.9091 37.5112 39.4949C40.1696 38.9663 42.7785 39.0489 45.3709 39.3958ZM69.5776 55.5505C68.3226 55.5009 67.5136 56.046 66.8366 56.9876C65.5486 58.7715 65.2184 60.8363 65.0202 63.0993C67.1833 61.0345 69.6766 59.8452 72.269 58.8211C73.7716 58.2264 75.0761 57.417 75.8852 55.9304C76.298 55.1706 76.8924 54.5264 77.3217 53.9317C75.9677 54.3777 74.5807 54.9724 73.1111 55.3027C71.9718 55.567 70.7499 55.6001 69.5776 55.5505ZM112.856 53.717C114.49 55.7817 115.547 58.1273 118.288 58.9367C120.402 59.5644 123.787 61.3979 125.306 63.0993C125.19 60.5885 124.86 59.2671 123.886 57.5327C123.159 56.2443 122.218 55.4679 120.583 55.5505C117.908 55.6992 116.373 55.5175 112.856 53.717ZM154.483 59.4653C154.862 56.8885 154.631 54.4603 153.261 52.346C152.006 50.4134 150.14 49.0919 147.977 48.2825C146.705 47.8035 145.368 47.4566 144.014 47.2749C142.858 47.1262 142.297 47.7209 142.396 48.9102C142.577 51.4044 143.568 53.6014 144.988 55.6331C147.003 58.5072 149.826 59.614 153.244 59.4488C153.657 59.4488 154.053 59.4653 154.483 59.4653ZM152.848 39.5279C151.345 37.5622 149.942 35.6296 147.465 34.9359C146.689 34.7211 145.995 34.7211 145.269 35.2167C142.957 36.8189 140.381 37.6448 137.409 37.6118C140.018 38.9663 142.445 40.0565 145.45 39.3792C147.812 38.8507 150.305 38.9663 152.848 39.5279ZM134.437 37.4631C133.496 37.1328 132.555 36.7859 131.597 36.4555C132.307 38.3881 132.967 40.3208 133.727 42.2038C134.751 44.7311 136.534 46.4655 139.242 47.1097C139.853 47.2584 140.53 47.1593 141.174 47.0767C141.917 46.9776 142.247 46.416 142.297 45.6892C142.478 43.3271 141.488 41.477 139.721 39.9904C138.185 38.669 136.286 38.0908 134.437 37.4631ZM147.102 39.8748C145.467 39.9243 143.832 40.2382 142.148 40.4364C142.974 42.1047 144.443 43.0297 146.177 43.4757C147.597 43.8391 149.083 43.9878 150.52 44.3182C151.907 44.632 153.277 45.0615 154.681 45.4579C154.433 44.153 154.284 42.6994 153.806 41.3614C153.607 40.7998 152.699 40.2712 152.055 40.1721C150.421 39.9078 148.753 39.8252 147.102 39.8748ZM151.708 45.2762C150.602 44.9789 149.446 44.8137 148.291 44.6155C146.59 44.3182 144.856 44.1365 143.353 42.848C143.436 43.9217 143.452 44.8467 143.634 45.7222C143.7 46.003 144.212 46.2838 144.575 46.3829C147.135 47.0932 149.644 47.8861 151.708 49.6535C152.996 50.7602 154.235 51.9 154.664 53.6509C154.747 53.6344 154.846 53.6179 154.928 53.6014C154.813 51.8339 154.714 50.083 154.582 48.3155C154.449 46.5481 153.244 45.7057 151.708 45.2762ZM141.933 50.7437C141.256 48.4807 141.223 48.4807 138.879 48.266C138.664 48.2495 138.433 48.2164 138.07 48.1834C139.935 50.6611 139.655 53.6014 140.348 56.2608C140.926 58.4412 141.818 59.2836 144.014 59.5809C144.41 59.6305 144.823 59.6635 145.236 59.6635C146.425 59.68 147.614 59.6635 148.901 59.6635C144.906 57.8961 143.073 54.5924 141.933 50.7437ZM138.895 52.1478C138.664 50.6116 138.053 49.2736 137.062 48.1008C136.666 47.6383 136.121 47.3245 135.444 46.7794C135.279 49.67 135.064 52.3295 135.031 54.9724C135.015 55.9139 135.411 56.8719 135.675 57.797C135.824 58.3586 136.237 58.6724 136.848 58.7715C138.136 58.9863 139.424 59.2836 140.811 59.5644C139.572 57.1693 139.275 54.642 138.895 52.1478ZM134.387 51.454C134.437 50.2977 134.685 49.158 134.784 48.0017C134.883 46.9445 134.586 45.97 134.09 45.0284C133.661 44.2191 133.331 43.3271 132.885 42.3195C132.786 43.261 132.72 44.0539 132.604 44.8302C132.34 46.6307 131.663 48.2825 130.606 49.7361C129.814 50.8428 129.847 51.9661 130.358 53.1058C131.25 55.121 132.934 56.4094 134.751 57.7474C134.123 55.534 134.288 53.4857 134.387 51.454ZM128.41 51.5861C130.045 49.5709 131.432 47.4401 131.861 44.8302C132.406 41.5101 131.993 38.3882 129.698 35.6627C128.938 36.1252 128.162 36.5712 127.584 36.918C127.931 38.6524 128.509 40.2547 128.526 41.857C128.559 44.632 127.816 47.2584 125.933 49.4718C124.398 51.2723 122.4 51.6027 120.237 51.5366C118.305 51.487 116.455 50.9089 114.87 49.8848C113.467 48.9763 112.278 47.7209 110.924 46.5316C110.346 46.862 109.57 47.2914 108.794 47.7374C110.181 52.0982 115.613 55.0384 119.378 54.8237C120.699 54.7576 122.003 54.6255 123.324 54.5098C125.454 54.3281 127.073 53.238 128.41 51.5861ZM104.302 30.476C104.269 30.4429 104.203 30.4594 104.022 30.4099C104.468 32.2434 104.864 34.0108 105.343 35.7452C105.409 35.993 105.838 36.2243 106.152 36.2738C108.282 36.6207 109.685 37.8761 110.148 39.9078C110.627 42.0221 109.817 44.3347 107.357 45.0284C104.022 45.97 101.545 42.8811 101.991 40.04C102.222 38.6359 102.915 37.5953 103.972 36.7363C104.137 36.6042 104.335 36.3234 104.302 36.1582C103.807 34.3577 103.246 32.5573 102.717 30.7403C102.172 31.6818 101.743 32.6233 101.149 33.4492C99.8937 35.1671 97.9948 35.8939 96.0629 36.5546C95.8647 36.6207 95.551 36.852 95.551 36.9676C95.7161 38.4212 95.7326 39.9409 96.195 41.3119C97.4334 44.9789 100.092 47.0271 103.972 47.3079C105.244 47.3905 106.581 47.4566 107.803 47.1428C108.992 46.8289 110.131 46.1517 111.138 45.4249C112.476 44.4503 113.747 43.3271 114.424 41.7413C114.755 40.965 114.986 40.1391 115.101 39.2966C115.415 36.8024 114.655 34.5229 113.417 32.3921C113.318 32.2104 112.955 32.0122 112.773 32.0617C109.685 32.8381 106.812 32.6729 104.302 30.476ZM106.581 11.3975C107.225 12.6529 107.506 13.9083 107.291 15.2628C107.258 15.4279 107.39 15.6922 107.539 15.7913C108.249 16.3034 108.942 16.8485 109.718 17.2614C110.544 17.6909 111.403 17.4597 112.03 16.7824C112.657 16.1217 112.889 15.3288 112.426 14.5194C112.014 13.7761 111.502 13.0989 111.006 12.4051C110.891 12.2564 110.643 12.0913 110.494 12.1243C109.124 12.3225 107.836 12.0582 106.581 11.3975ZM106.482 13.1154C106.366 12.8016 106.234 12.4877 106.086 12.1904C105.524 11.0672 105.524 11.0837 104.269 11.3149C103.229 11.5131 102.288 11.1828 101.248 10.5221C101.462 12.0417 100.884 13.1319 99.9928 14.1065C99.8772 14.2221 99.7781 14.4534 99.8276 14.602C100.306 16.6172 102.717 17.9552 104.633 17.278C105.772 16.865 107.209 15.0315 106.482 13.1154ZM85.3961 11.1663C85.231 11.1167 84.9172 11.2158 84.8182 11.348C83.6458 12.8842 83.1339 14.8002 84.62 16.4355C85.8254 17.757 87.8399 17.8561 89.1774 16.5677C89.6727 16.0887 90.069 15.494 90.4323 14.8994C90.5479 14.7012 90.4983 14.2386 90.3332 14.0569C89.4746 13.0824 88.9462 12.0087 89.1113 10.5221C87.8564 11.381 86.6675 11.5462 85.3961 11.1663ZM79.9967 12.1408C79.7985 12.1243 79.5013 12.2234 79.3857 12.3556C78.8738 13.0328 78.3455 13.71 77.9657 14.4534C77.4868 15.3784 77.6685 16.1217 78.395 16.832C79.072 17.4927 79.8481 17.6744 80.7232 17.2119C81.4662 16.8155 82.1432 16.2869 82.8202 15.7913C82.9688 15.6922 83.1009 15.4279 83.0679 15.2628C82.7872 13.8422 83.2 12.5703 83.844 11.3149C82.6056 12.0417 81.3506 12.2895 79.9967 12.1408ZM80.3104 32.4086C79.4022 32.2764 78.4941 32.1443 77.5859 32.0617C77.3878 32.0452 77.0905 32.2104 76.9915 32.3755C75.4228 34.9689 74.7954 37.777 75.5549 40.7337C75.8026 41.6918 76.4135 42.6333 77.0575 43.4097C77.8171 44.3182 78.7748 45.0615 79.6994 45.8048C81.7634 47.4401 84.1412 47.8365 86.6675 47.2749C87.8399 47.0106 89.0288 46.6968 90.1516 46.2673C91.456 45.7718 92.2486 44.6816 93.0412 43.5583C94.4777 41.5596 94.6263 39.2966 94.808 37.0006C94.8245 36.8685 94.6263 36.6042 94.4942 36.5712C91.3074 35.7122 88.7976 34.0934 87.6583 30.7237C87.1299 32.5077 86.585 34.2751 86.0896 36.0756C86.0401 36.2738 86.2382 36.6372 86.4364 36.7859C88.1206 38.1404 88.682 39.8913 88.2692 41.9726C87.9555 43.5418 86.1557 44.9624 84.6035 45.1441C83.4147 45.2762 82.4239 44.9293 81.5158 44.2521C79.9306 43.0628 79.5839 40.1556 80.7892 38.4873C81.6479 37.3145 82.6881 36.439 84.2072 36.3069C84.8347 36.2573 85.0328 35.8939 85.1484 35.3158C85.4456 33.8457 85.8419 32.4086 86.1887 30.9385C86.2217 30.7898 86.2382 30.6411 86.2878 30.3438C85.6933 30.7403 85.2145 31.0541 84.7356 31.3679C83.3816 32.2599 81.9121 32.6233 80.3104 32.4086ZM69.6601 41.4275C69.6271 40.8659 69.5941 40.3043 69.6601 39.7426C69.7262 39.2141 69.9078 38.702 70.0399 38.1239C69.5941 38.1899 69.1813 38.289 68.752 38.3221C68.3226 38.3551 67.8768 38.3221 67.3815 38.3221C66.688 40.1721 66.3742 42.0387 67.0017 43.9713C67.6787 46.0195 69.0161 46.7794 71.3278 46.3334C72.6488 46.0856 73.7881 45.4249 74.7458 44.4503C75.1256 44.0704 75.4889 43.6574 75.8687 43.261C75.4724 42.4516 75.0926 41.6918 74.6963 40.8824C74.267 41.2788 73.8707 41.7413 73.3753 42.0882C72.8965 42.4351 72.3516 42.7159 71.7902 42.8976C70.6343 43.3106 69.7592 42.6829 69.6601 41.4275ZM73.623 46.2012C72.236 47.1262 70.6508 47.4071 69.0161 47.0767C67.431 46.7628 66.0275 44.5659 66.011 42.5177C66.011 41.7909 65.9779 41.0476 66.077 40.3373C66.1761 39.627 66.4238 38.9333 66.6219 38.2065C65.6477 37.9091 64.723 37.6283 63.6993 37.3145C62.8902 38.8507 62.4278 40.486 62.5269 42.2038C62.626 43.8722 62.9067 45.524 63.7158 47.0767C64.7726 49.0589 66.11 50.5785 68.5208 50.7437C72.7644 51.0245 76.1163 49.4388 78.6427 45.97C77.8666 45.2432 77.1401 44.5659 76.4466 43.9052C75.5054 44.6981 74.6302 45.5405 73.623 46.2012ZM70.5022 39.4123C70.3866 39.9739 70.4032 40.5851 70.4857 41.1467C70.6178 41.9891 71.1627 42.2699 71.9553 41.9726C72.9625 41.5927 73.7221 40.8989 74.3 40.0069C74.4651 39.7426 74.5147 39.3792 74.5312 39.0489C74.6302 37.7109 74.6798 36.3895 74.7293 35.3984C74.0028 35.8774 73.0616 36.6372 72.0213 37.1493C71.0306 37.6448 70.7169 38.4873 70.5022 39.4123ZM96.7234 48.4642C95.8482 49.8683 94.5108 49.8517 93.6356 48.4477C93.1237 47.6053 92.7935 46.6472 92.3807 45.7387C91.8193 46.1021 91.1423 46.5151 90.4983 46.9611C90.3993 47.0271 90.2837 47.2254 90.3167 47.341C90.7295 49.3892 91.4395 51.2888 93.2558 52.5277C95.0887 53.7665 96.2445 53.4692 98.0608 51.7513C99.2827 50.5951 99.7616 49.0093 100.092 47.3905C100.125 47.2584 100.009 47.0437 99.8937 46.9611C99.2497 46.5316 98.6057 46.1186 98.0278 45.7552C97.582 46.6803 97.2353 47.6218 96.7234 48.4642ZM97.1362 44.7807C97.1362 44.2851 96.6408 43.7896 96.3766 43.294C95.9308 42.4186 95.518 41.5266 95.2043 40.8989C94.6429 41.9561 93.9328 43.228 93.2889 44.5494C93.1568 44.8302 93.1898 45.2762 93.3219 45.5901C93.6686 46.4655 94.0319 47.341 94.5273 48.1173C94.841 48.6129 95.4024 48.5798 95.8647 48.1504C96.839 47.2419 97.1197 46.0195 97.1362 44.7807ZM100.224 49.4883C99.4479 51.5531 98.1764 53.1388 95.9968 53.8491C94.5108 54.3281 93.3384 53.5848 92.3147 52.7094C91.0102 51.6192 90.1681 50.1986 89.8544 48.4973C89.7883 48.1173 89.6397 47.7539 89.5406 47.3905C88.682 47.5722 87.8894 47.787 87.0803 47.9191C86.6675 47.9852 86.5685 48.1339 86.618 48.5303C86.8327 50.5951 87.5427 52.412 88.8471 54.0473C90.3993 55.98 92.2651 57.3675 94.7254 57.8135C95.2538 57.9126 95.8647 57.8135 96.3766 57.6318C100.505 56.2773 102.816 53.3205 103.724 49.1745C103.807 48.8276 103.741 48.4642 103.741 48.0347C102.833 47.82 101.875 47.6053 100.835 47.374C100.637 48.0843 100.488 48.8111 100.224 49.4883ZM97.1031 27.0402C97.1197 27.8496 97.0536 28.692 96.872 29.4684C96.7069 30.1952 95.8152 30.7568 95.1547 30.7072C94.3291 30.6577 93.7677 30.1621 93.454 29.4188C93.0247 28.3782 93.1402 27.288 93.3714 26.2143C93.4705 25.7353 93.5365 25.2562 93.6356 24.7277C92.9421 25.1571 92.3147 25.5536 91.6872 25.95C91.5881 26.0161 91.456 26.1317 91.456 26.2308C91.2414 28.1304 91.1258 29.9969 92.4137 31.6488C94.23 33.9613 97.1527 33.4492 98.4736 30.8889C99.2332 29.4188 99.1506 27.8331 98.903 26.2638C98.8864 26.1317 98.7048 25.983 98.5562 25.9004C97.9783 25.5205 97.3839 25.1406 96.7399 24.7277C96.872 25.5205 97.0866 26.2804 97.1031 27.0402ZM95.8482 24.4303C95.7161 23.9348 95.4519 23.4723 95.1877 22.8281C94.2631 24.8433 93.7017 26.7429 94.0319 28.8241C94.131 29.4518 94.4447 29.9143 95.1217 29.9474C95.8482 29.9804 96.1785 29.4849 96.3271 28.8407C96.6738 27.321 96.228 25.8839 95.8482 24.4303ZM99.646 26.3795C99.646 27.5192 99.7451 28.5929 99.6295 29.6335C99.4313 31.5001 97.7967 33.3006 96.1785 33.7631C93.9659 34.3742 91.8523 32.7059 91.1093 30.9715C90.5644 29.6996 90.4983 28.3616 90.6965 27.0072C90.7295 26.842 90.6965 26.6603 90.6965 26.4455C90.5479 26.4125 90.4983 26.396 90.4488 26.396C88.4178 26.3134 88.3022 26.4125 88.2857 28.4773C88.2527 31.401 89.4911 33.5814 92.133 34.8698C93.0247 35.2993 93.9989 35.8609 94.9401 35.8444C97.5159 35.7948 99.5634 34.5559 101.033 32.3921C102.189 30.6907 102.321 28.8242 101.859 26.875C101.809 26.6933 101.578 26.4125 101.413 26.396C100.851 26.3299 100.29 26.3795 99.646 26.3795ZM81.5983 39.0654C81.3672 39.66 81.2846 40.3043 81.136 40.9319C81.2516 43.1123 83.0184 44.5329 85.1319 44.0374C86.1392 43.8061 86.5354 42.9306 86.9813 42.1543C87.8894 40.552 87.6087 38.1239 85.5117 37.2319C84.1247 36.6372 82.2588 37.4301 81.5983 39.0654ZM86.1722 29.2867C86.8987 28.4277 87.2785 27.2714 87.8069 26.2143C87.0308 25.7518 86.4694 25.4214 86.0566 25.1736C85.2145 26.3134 84.4879 27.5357 83.5137 28.5433C81.8295 30.2778 78.6757 30.2612 77.3052 28.5599C76.0503 27.0237 75.8686 25.2397 76.5291 23.4227C76.8924 22.4151 77.5033 21.5066 78.0152 20.5486C77.4868 20.2347 76.9254 19.9044 76.3475 19.574C73.4414 21.9691 73.2597 26.2308 75.1421 28.7416C75.9512 29.8318 76.5952 31.0376 78.0317 31.401C81.136 32.2104 83.9926 31.8305 86.1722 29.2867ZM79.8976 26.5942C79.0555 26.1482 78.7252 25.3223 79.1876 24.0009C79.4848 23.1254 80.1618 22.3821 80.7067 21.5892C80.9048 21.2919 81.169 21.0441 81.4002 20.7468C79.8811 20.3503 78.7913 20.7798 78.0317 22.0187C77.1896 23.3732 76.6612 24.7772 77.041 26.429C77.751 29.4849 81.0204 29.6501 82.8367 28.2295C84.0256 27.3045 84.7026 26.0326 85.2475 24.6781C85.297 24.546 85.3135 24.3643 85.264 24.2486C84.9338 23.5879 84.5705 22.9272 84.2568 22.3325C83.6789 23.5053 83.167 24.7111 82.4735 25.8344C81.879 26.7924 80.7232 27.0402 79.8976 26.5942ZM80.1618 23.5053C79.9636 23.8357 79.7985 24.1991 79.7325 24.579C79.6334 25.1406 79.6829 25.8013 80.3104 25.95C80.7232 26.0491 81.3837 25.9004 81.6809 25.6031C82.8532 24.4468 83.1835 22.8611 83.5963 21.3414C83.7119 20.8955 83.7119 20.4164 83.7614 19.8218C82.1763 20.8294 81.0699 22.0682 80.1618 23.5053ZM85.7098 23.6374C86.651 25.1571 88.715 25.983 90.4323 25.5701C92.9751 24.9589 94.4282 23.2245 94.8245 20.5155C94.2796 20.3008 93.7512 20.1026 93.2063 19.8878C92.8265 20.6807 92.4963 21.5396 92.0339 22.2995C91.1918 23.7035 90.2011 24.0009 88.5004 23.5218C87.4436 23.2245 86.585 21.8865 86.7171 20.7303C86.8161 19.9209 86.8657 19.095 86.9482 18.2195C86.4198 18.1369 85.875 18.0543 85.264 17.9552C84.3228 19.9374 84.5705 21.8039 85.7098 23.6374ZM87.5262 19.7227C87.5262 20.1356 87.4601 20.5486 87.4766 20.9615C87.4931 22.0352 88.0711 22.7124 89.2104 23.0263C89.9699 23.241 91.0102 22.7785 91.4395 21.9856C91.7532 21.391 92.0009 20.7633 92.2651 20.1521C92.4302 19.7392 92.3312 19.3923 92.1165 18.9463C91.6046 17.8891 91.2744 16.7494 90.9276 15.8409C90.3332 16.3695 89.6397 17.2284 88.748 17.6909C87.8234 18.1699 87.5262 18.7976 87.5262 19.7227ZM95.3859 19.6731C97.4829 19.5905 99.2662 16.8485 98.4406 14.9324C98.3581 14.7342 98.0443 14.569 97.8132 14.4864C96.4922 14.0239 95.8152 13.4458 95.1712 12.1408C94.6098 13.3962 93.7347 14.1726 92.5128 14.4864C92.0174 14.602 91.8688 14.8828 91.8028 15.3288C91.423 17.6414 93.1568 19.7722 95.3859 19.6731ZM91.0102 13.6605C91.2579 13.8587 91.7037 13.9413 92.0339 13.8917C93.6026 13.677 94.9731 11.9096 94.841 10.3073C94.8245 10.1917 94.808 10.01 94.7419 9.96044C93.7017 9.31623 93.6191 8.15996 93.2558 7.15235C92.4963 7.84611 91.9184 8.80416 90.7295 8.80416C90.6139 8.80416 90.4818 8.96934 90.3993 9.08496C89.425 10.4725 89.6892 12.5703 91.0102 13.6605ZM94.5108 8.60594C94.6263 8.87023 94.9731 9.18407 95.1877 9.18407C95.4189 9.18407 95.7492 8.85371 95.8813 8.60594C96.7564 6.72287 96.0464 5.00499 95.2043 3.12192C94.2961 5.02151 93.6191 6.72287 94.5108 8.60594ZM95.6171 9.94392C95.5675 9.97695 95.5345 10.0761 95.518 10.1421C95.1217 11.6288 97.0371 13.9248 98.5727 13.9083C99.58 13.8918 100.835 11.8931 100.554 10.8029C100.422 10.3238 100.29 9.86132 100.141 9.39881C100.009 9.01889 99.7286 8.88675 99.3323 8.72158C98.6057 8.39121 97.9948 7.81308 97.3343 7.33405C97.2518 7.2845 97.2352 7.15235 97.1362 6.97065C96.7894 8.17648 96.6573 9.29972 95.6171 9.94392ZM99.7451 16.0226C99.5965 15.8904 99.5139 15.7088 99.2827 15.4114C99.3323 16.9641 98.9195 18.1865 98.0608 19.2436C97.9618 19.3593 97.9453 19.607 97.9948 19.7557C98.3581 20.6146 98.6388 21.5231 99.1506 22.283C99.712 23.1254 100.653 23.2575 101.644 22.8776C102.42 22.5968 102.932 21.8205 102.915 20.8459C102.915 20.2512 102.866 19.6566 102.783 19.0619C102.701 18.5499 102.486 18.2195 101.941 17.9222C101.116 17.4431 100.455 16.6668 99.7451 16.0226ZM103.427 18.2195C103.493 19.1115 103.592 20.0035 103.609 20.912C103.642 22.1508 102.932 23.1915 101.908 23.5218C100.323 24.0339 99.2167 23.7531 98.4406 22.4977C97.9453 21.6883 97.582 20.7963 97.1527 19.9209C96.6408 20.1191 96.0959 20.3173 95.5675 20.5155C95.8813 23.3236 97.3839 24.8102 99.58 25.504C101.38 26.0656 103.18 25.5536 104.385 24.0009C105.805 22.1839 106.168 20.1521 105.111 17.9717C104.501 18.0543 103.972 18.1369 103.427 18.2195ZM107.935 25.8839C107.225 24.7607 106.713 23.5053 106.119 22.349C105.805 22.9272 105.458 23.5714 105.111 24.2486C105.062 24.3477 105.029 24.4964 105.078 24.5955C105.673 26.0821 106.432 27.4366 107.753 28.4277C108.678 29.1215 110.924 29.3527 111.947 28.5764C113.021 27.767 113.714 26.0491 113.401 24.5459C113.12 23.1915 112.426 22.0517 111.551 20.9945C111.469 20.8954 111.304 20.7798 111.188 20.7798C110.461 20.7303 109.751 20.6972 108.876 20.6477C109.355 21.2258 109.801 21.7048 110.181 22.2499C110.56 22.795 110.924 23.3732 111.188 23.9843C111.65 25.0415 111.353 26.0821 110.511 26.5777C109.685 27.0402 108.529 26.8255 107.935 25.8839ZM108.513 25.4544C108.893 25.983 109.471 26.3299 110.131 25.9335C110.792 25.5536 110.759 24.8928 110.527 24.2817C109.801 22.4151 108.414 21.1102 106.746 20.02C106.779 22.0352 107.341 23.8522 108.513 25.4544ZM113.12 21.903C114.193 23.7366 114.622 25.6196 113.632 27.6679C112.707 29.5675 110.973 30.1291 109.008 29.6831C106.845 29.1875 105.689 27.6183 104.814 25.7518C104.732 25.5866 104.666 25.4214 104.583 25.2562C104.55 25.1902 104.501 25.1406 104.468 25.0911C103.873 25.4379 103.312 25.7848 102.717 26.1152C103.427 29.9639 106.862 31.8304 109.355 31.7479C110.23 31.7148 111.105 31.6487 111.964 31.5001C112.823 31.3514 113.615 30.9715 114.111 30.2282C114.804 29.2041 115.646 28.213 116.042 27.0732C116.885 24.6285 116.521 22.283 114.705 20.2843C114.474 20.0365 114.259 19.7887 114.045 19.5575C113.45 19.9044 112.889 20.2347 112.261 20.5981C112.542 21.0276 112.856 21.457 113.12 21.903ZM105.722 37.0172C104.682 37.0337 103.493 37.9091 103.147 38.9498C102.618 40.5025 103.18 42.6003 104.451 43.6244C104.715 43.8391 105.128 44.0704 105.425 44.0208C106.383 43.8722 107.374 43.707 108.232 43.3106C109.223 42.848 109.091 41.7744 109.124 40.965C109.107 38.6029 107.687 37.0006 105.722 37.0172ZM118.486 42.8976C117.644 42.5177 116.901 41.8735 116.142 41.3284C115.976 41.2128 115.894 40.998 115.745 40.7833C115.299 41.6257 114.92 42.336 114.573 43.0463C114.523 43.1619 114.556 43.4097 114.639 43.5088C115.729 44.6155 116.852 45.6727 118.354 46.2343C120.765 47.1262 123.044 45.9369 123.539 43.3766C123.869 41.6587 123.638 39.9739 122.978 38.4047C122.086 38.3386 121.211 38.2725 120.352 38.2065C120.501 38.9002 120.699 39.594 120.765 40.2877C120.814 40.7833 120.765 41.3284 120.633 41.8239C120.352 42.8646 119.493 43.3601 118.486 42.8976ZM115.811 39.2141C115.844 39.5775 115.976 40.0069 116.208 40.2712C116.686 40.7998 117.215 41.3449 117.842 41.6918C118.288 41.9396 119.081 42.1378 119.394 41.9065C119.774 41.6257 119.989 40.8659 119.972 40.3373C119.956 39.6105 119.807 38.7846 119.411 38.1899C119.015 37.5953 118.255 37.2319 117.628 36.8024C116.918 36.2904 116.191 35.8113 115.63 35.4314C115.679 36.5381 115.712 37.8761 115.811 39.2141ZM123.737 38.2065C123.853 38.6524 123.985 39.115 124.1 39.5775C124.53 41.2458 124.546 42.9306 123.902 44.5329C122.812 47.2088 120.798 47.7374 117.875 46.7298C117.099 46.4655 116.373 46.0195 115.712 45.524C115.085 45.045 114.589 44.3842 114.028 43.7896C113.202 44.5494 112.476 45.2267 111.716 45.9369C113.648 48.8441 116.389 50.3308 119.774 50.7272C120.534 50.8098 121.31 50.7768 122.069 50.7107C124.381 50.4959 125.652 48.9598 126.627 47.0437C127.634 45.045 128.03 42.9141 127.733 40.7172C127.584 39.5609 127.122 38.4377 126.808 37.2814C125.686 37.6283 124.761 37.9091 123.737 38.2065ZM108.546 49.8022C108.249 51.3053 107.968 52.8415 107.654 54.3777C107.242 56.3599 107.192 58.309 107.968 60.2416C108.529 61.6127 109.438 62.6863 110.693 63.4296C112.03 64.206 112.823 63.9747 113.516 62.5707C114.424 60.7537 114.507 58.8541 113.78 56.938C113.021 54.9228 111.568 53.3866 110.197 51.8174C109.619 51.1236 109.058 50.4299 108.546 49.8022ZM123.836 62.7194C121.954 61.5796 120.005 60.5885 118.057 59.5644C117.314 59.168 116.505 58.8706 115.646 58.5072C115.597 60.8528 116.769 62.5046 118.42 63.9417C120.038 65.3458 121.607 66.8324 123.176 68.286C123.44 68.5338 123.605 68.8641 123.902 69.2771C124.315 68.1538 124.744 67.1132 125.075 66.056C125.52 64.5529 125.207 63.5618 123.836 62.7194ZM121.194 67.2123C119.989 66.0891 118.651 65.0815 117.446 63.9417C116.67 63.2149 116.059 62.3229 115.349 61.4805C115.019 62.2073 114.573 63.0332 114.292 63.9252C114.21 64.173 114.54 64.6189 114.755 64.9163C115.91 66.3368 117.182 67.6748 118.239 69.178C119.411 70.8463 119.923 72.8285 120.104 74.8602C120.137 75.2732 119.989 75.7191 119.923 76.1486C119.989 76.1816 120.055 76.2147 120.121 76.2477C120.864 74.8106 121.657 73.3901 122.35 71.9365C123.341 69.9378 122.647 68.5503 121.194 67.2123ZM119.345 74.9923C119.394 73.6379 118.883 72.2008 118.354 70.8958C117.496 68.7485 116.059 66.9645 114.193 65.577C112.971 64.6685 112.014 64.9328 111.452 66.3534C110.28 69.3101 110.082 72.3164 110.973 75.3888C111.634 77.6518 113.334 79.0228 115.167 80.2781C115.679 80.625 116.274 80.8398 116.868 81.1536C118.387 79.3036 119.246 77.2223 119.345 74.9923ZM110.99 77.2223C109.487 74.216 109.421 71.061 110.197 67.8565C110.362 67.1628 110.627 66.469 110.726 65.7587C110.775 65.4449 110.66 64.9824 110.445 64.7841C109.768 64.206 109.008 63.727 108.133 63.1158C108.563 64.7346 108.067 66.0726 107.588 67.4105C107.109 68.7485 106.565 70.0699 106.168 71.4409C105.541 73.6544 106.053 74.9593 107.985 76.1982C109.173 76.958 110.395 77.6683 111.716 78.2795C111.485 77.9491 111.188 77.6187 110.99 77.2223ZM107.258 66.1386C107.836 64.3051 107.671 62.6037 106.647 60.7867C105.194 62.9671 103.824 65.0319 102.453 67.0967C101.776 68.1208 101.347 69.2771 101.297 70.4994C101.281 70.9289 101.627 71.474 101.958 71.8043C102.866 72.6963 103.873 73.5057 104.963 74.4638C105.012 71.3584 106.416 68.8311 107.258 66.1386ZM105.062 62.0091C105.987 60.8693 106.432 59.5479 106.432 58.0447C106.432 57.2188 106.581 56.4094 106.697 55.3853C106.482 55.6661 106.383 55.7983 106.3 55.9304C105.062 58.0613 103.345 59.6966 101.132 60.7207C99.6295 61.4144 99.1176 62.5542 99.0681 64.0408C98.9855 66.0395 99.7451 67.84 100.571 69.7396C101.545 66.7498 103.18 64.3216 105.062 62.0091ZM96.7069 61.6952C99.3158 61.1006 101.71 59.9608 103.658 58.1108C105.508 56.3764 106.746 54.2125 107.225 51.7018C107.44 50.5785 107.374 49.4223 107.44 48.1834C106.482 48.1834 105.689 48.1504 104.897 48.2164C104.732 48.233 104.484 48.5798 104.451 48.7946C104.055 52.6598 101.941 55.4183 98.7874 57.4336C96.3766 58.9863 93.8668 58.9367 91.4725 57.3675C88.5994 55.5009 86.651 52.9572 86.007 49.5214C85.7594 48.1669 85.7263 48.1669 84.3393 48.1669C83.9265 48.1669 83.5137 48.1669 83.0679 48.1669C82.5725 51.7348 83.7284 54.6585 85.908 57.2353C88.038 59.7626 90.9111 61.051 94.0319 61.7778C94.874 61.9926 95.8482 61.8935 96.7069 61.6952ZM81.813 49.8187C80.525 51.3714 79.1545 52.8911 77.9327 54.5098C76.1659 56.8389 75.5054 59.4157 76.6943 62.2238C77.5859 64.3381 78.8408 64.3547 80.6737 62.6533C83.167 60.3738 83.2826 57.4501 82.7212 54.3942C82.4239 52.8746 82.1102 51.3384 81.813 49.8187ZM89.8379 61.1006C87.328 59.8122 85.231 58.1273 83.7779 55.4349C83.7449 58.3916 84.1577 60.9354 86.1391 63.1488C87.7904 65.0154 89.0618 67.2123 89.7718 69.7891C90.7955 67.3114 91.9019 64.9658 90.9111 62.3064C90.746 61.8439 90.3002 61.3484 89.8379 61.1006ZM88.649 68.6163C87.4931 66.6011 86.1887 64.6685 84.9338 62.7194C84.5375 62.1082 84.1247 61.5135 83.6789 60.8528C82.3579 63.0497 82.6881 65.1806 83.4807 67.3444C84.1412 69.1614 84.7026 71.028 85.2475 72.878C85.3796 73.3075 85.3301 73.7865 85.3796 74.4803C86.6015 73.3736 87.8399 72.4816 88.7976 71.3253C89.4416 70.582 89.1113 69.4257 88.649 68.6163ZM84.2898 71.92C83.9596 70.5985 83.3982 69.3266 83.0184 68.0217C82.6551 66.7994 82.3414 65.544 82.0772 64.2886C82.0111 63.9582 82.1432 63.5783 82.1928 63.1488C81.3837 63.727 80.6571 64.2225 79.9636 64.7511C79.4848 65.1145 79.5839 65.5935 79.7325 66.0891C80.2939 68.0547 80.7727 70.0369 80.6571 72.1017C80.5746 73.8361 80.2939 75.554 79.4518 77.1067C79.2371 77.5031 78.9399 77.8665 78.7418 78.3951C79.6829 77.8335 80.6406 77.3049 81.5653 76.7267C82.1763 76.3468 82.7707 75.9174 83.3156 75.4549C84.4549 74.5298 84.62 73.2414 84.2898 71.92ZM79.8646 72.9937C80.0627 70.6646 79.716 68.4512 78.8904 66.3203C78.3455 64.9328 77.3547 64.6355 76.1989 65.5605C73.3258 67.84 71.3609 70.7142 71.0802 74.4638C70.8985 76.958 71.9553 79.1384 73.4579 81.1536C77.0245 79.5018 79.5343 77.1562 79.8646 72.9937ZM72.8304 68.0547C73.6395 66.948 74.6137 65.9734 75.5549 64.9658C76.0338 64.4538 76.2649 64.0243 75.8521 63.3305C75.4889 62.7194 75.2577 62.0256 74.9275 61.2823C74.5972 61.8439 74.366 62.4386 73.9698 62.8515C73.0121 63.8261 71.9553 64.7015 70.9481 65.6266C70.0894 66.4029 69.1648 67.1462 68.4217 68.0217C67.7447 68.8311 67.2989 69.8057 67.6457 70.9619C68.2401 72.878 69.3134 74.5298 70.4197 76.3799C69.9738 73.0928 71.0802 70.4664 72.8304 68.0547ZM72.5497 63.3636C73.9533 62.0752 74.7789 60.4894 74.7128 58.4907C71.8727 59.8122 68.9006 60.8528 66.3907 62.7689C65.1523 63.727 64.8716 64.5859 65.3009 66.1221C65.367 66.3699 65.433 66.6177 65.5321 66.8654C65.8293 67.6418 66.1265 68.4016 66.4733 69.2771C68.075 66.7828 70.4857 65.2466 72.5497 63.3636ZM74.9109 54.1465C77.8996 52.858 80.426 51.0576 81.5653 47.7539C80.8058 47.3245 80.0462 46.895 79.3197 46.482C78.4445 47.374 77.6354 48.3816 76.6447 49.158C74.9275 50.5125 72.913 51.2558 70.7169 51.4705C69.8418 51.5531 68.9501 51.5366 68.0915 51.4375C65.1854 51.1071 63.7158 49.0589 62.7416 46.6142C61.4536 43.4262 61.4702 40.2217 63.0058 37.0667C62.2132 36.5877 61.4536 36.1582 60.6611 35.6792C59.4227 37.1988 58.597 38.8837 58.3989 40.8494C58.1677 43.1784 58.3494 45.4579 59.3566 47.6053C60.3638 49.7361 61.7343 51.6192 63.5011 53.1719C64.9212 54.4107 66.7705 54.609 68.5208 54.7907C70.6839 55.0054 72.88 55.0219 74.9109 54.1465ZM60.2648 52.3625C60.4959 51.6027 60.4794 50.8759 59.9841 50.1491C58.8612 48.5138 58.0356 46.7298 57.7384 44.7476C57.6228 44.0043 57.5733 43.2445 57.4907 42.4021C56.1533 44.9624 55.146 47.3905 55.823 50.3638C56.3514 52.7094 56.2854 55.1871 55.6249 57.7144C57.6724 56.2277 59.5382 54.7907 60.2648 52.3625ZM55.0965 56.7563C55.2616 55.0054 55.2946 53.2545 55.2451 51.487C55.1956 50.0004 54.9479 48.5138 54.7828 46.9941C53.115 47.8035 52.1904 49.2406 51.7611 50.9585C51.2987 52.8085 51.0676 54.7081 50.6548 56.5581C50.4236 57.5492 50.0273 58.5072 49.6805 59.5479C51.0675 59.2671 52.5041 59.0689 53.8746 58.6889C54.7332 58.4577 55.0304 57.4996 55.0965 56.7563ZM47.2368 59.3992C48.8549 59.1845 49.6145 57.9126 49.9612 56.4425C50.2585 55.1706 50.4071 53.8491 50.6548 52.5607C50.952 51.0741 51.1666 49.5544 52.372 48.2164C51.2657 48.299 50.4071 48.266 49.598 48.4642C49.2677 48.5468 48.9045 49.0754 48.8054 49.4718C48.1119 52.0156 47.3028 54.4933 45.569 56.5416C44.4627 57.8465 43.2904 59.0854 41.5236 59.5479C41.5401 59.6305 41.5566 59.6965 41.5731 59.7791C43.4555 59.647 45.3709 59.6305 47.2368 59.3992ZM43.9013 57.3179C45.7672 55.567 46.9891 53.3701 47.6165 50.8759C47.7982 50.1821 47.9303 49.4553 47.9633 48.745C47.9963 47.7539 47.4514 47.1428 46.4772 47.2749C45.0902 47.4731 43.6867 47.787 42.3657 48.2825C40.0705 49.158 38.0726 50.562 36.8507 52.7424C35.992 54.2621 35.6123 55.9965 35.7444 57.797C35.7774 58.309 35.7444 58.8211 35.7444 59.3992C38.7826 59.647 41.6227 59.4488 43.9013 57.3179ZM35.7444 53.5188C36.4709 51.1732 38.2872 49.7857 40.2356 48.5468C41.9529 47.4401 43.9013 46.895 45.8663 46.3994C46.4607 46.2508 46.7909 45.9204 46.7909 45.2597C46.8074 44.5164 46.923 43.7731 47.0221 42.8646C44.859 44.6155 42.2831 44.4173 39.9219 44.9954C39.377 45.1276 38.7991 45.2101 38.2707 45.3918C36.5535 45.9535 35.7279 47.2419 35.6288 48.9433C35.5297 50.496 35.6123 52.0486 35.6123 53.6014C35.6288 53.5848 35.7279 53.5683 35.7444 53.5188ZM43.0757 43.74C44.5288 43.5088 45.8167 42.9802 46.9395 42.0552C47.4514 41.6257 47.8312 41.0311 48.3266 40.4529C46.9561 40.2877 45.7507 40.0565 44.5288 40.0069C42.6794 39.9409 40.8136 39.9243 38.9477 40.0235C38.2872 40.0565 37.6102 40.4034 37.0158 40.7502C36.2232 41.2128 36.3223 42.1378 36.1407 42.8976C35.926 43.7896 35.8434 44.7146 35.6948 45.6727C38.023 44.4008 40.5659 44.12 43.0757 43.74ZM48.0954 45.6231C48.1614 46.5811 48.6403 47.0767 49.6145 47.1263C51.9097 47.2419 53.726 46.3169 55.179 44.599C56.5661 42.9802 57.144 40.9815 57.821 39.0324C58.1182 38.1569 58.4649 37.2814 58.8117 36.3069C56.3844 37.298 53.9076 38.0908 51.6455 39.2967C49.2512 40.6016 47.9303 42.7489 48.0954 45.6231ZM44.5948 23.687C44.3802 24.8102 44.4627 25.9996 44.5618 27.1393C44.7434 29.3527 46.3121 30.4925 48.0789 31.4175C50.0603 32.4581 52.1904 32.8381 54.403 32.5573C55.5753 32.4086 56.7147 31.9461 57.9035 31.6157C57.5568 30.476 57.2761 29.551 57.0284 28.7085C55.6909 28.8572 54.403 29.0719 53.0985 29.1545C51.4969 29.2536 50.0934 28.659 48.921 27.5853C47.9633 26.7098 47.9633 25.504 48.0624 24.3477C48.211 22.5803 49.0036 21.0772 50.2915 19.8548C50.6548 19.5079 51.0015 19.1776 51.3648 18.8307C50.6382 18.0378 49.9447 17.311 49.2512 16.5512C46.6093 18.236 45.1728 20.7137 44.5948 23.687ZM49.0366 23.175C48.1614 26.1813 49.1356 27.9157 52.5041 28.4442C54.0397 28.6755 55.2451 28.3947 56.8798 27.767C56.8798 27.354 56.8633 26.908 56.8798 26.4786C56.9128 26.0491 56.9954 25.6196 57.0449 25.2893C55.9881 25.3719 54.9479 25.5536 53.9076 25.537C52.4711 25.5205 51.7611 24.4468 52.372 23.1419C52.8343 22.1673 53.5444 21.2919 54.1553 20.3834C53.4948 20.0695 52.7353 19.6896 51.9427 19.3097C50.7208 20.3669 49.5154 21.5231 49.0366 23.175ZM54.8323 24.8103C55.5588 24.7111 56.3184 24.5625 56.9954 24.2651C57.3917 24.0834 57.6889 23.6209 57.9531 23.2245C58.6301 22.2334 59.2575 21.2093 59.7694 20.4329C58.7952 20.4825 57.4907 20.5651 56.1863 20.5981C54.9314 20.6312 53.0985 22.4977 53.1316 23.7531C53.1481 24.4303 53.9241 24.9424 54.8323 24.8103ZM57.6559 26.2969C57.5072 27.1558 57.6724 28.1139 57.8705 28.9728C58.2833 30.7237 58.9273 32.4086 59.9841 33.8787C61.1069 35.4479 62.7911 36.2243 64.5414 36.8024C65.5816 37.1493 66.6879 37.4136 67.7777 37.5788C69.0161 37.777 70.172 37.331 71.2948 36.8189C73.4414 35.8113 74.977 34.176 76.1659 32.1608C76.4466 31.6818 76.4301 31.434 76.0503 31.0376C74.7954 29.7161 73.6725 28.246 73.3918 26.396C73.2267 25.2893 73.3588 24.133 73.3588 22.8281C71.9553 24.166 70.6343 25.4049 69.3299 26.6438C69.0161 26.9411 69.0657 27.2219 69.2308 27.6018C70.5188 30.476 68.6694 34.143 64.8221 34.2421C62.9067 34.2917 60.4794 31.6157 61.0738 29.3362C61.7839 26.5447 64.5249 25.2067 66.721 25.6857C67.0512 25.7518 67.398 25.8344 67.6787 26.0161C68.0419 26.2473 68.3061 26.1647 68.5538 25.9004C69.7922 24.5955 71.0306 23.2906 72.3186 21.9361C71.2948 21.9361 70.3701 22.0352 69.462 21.903C68.6033 21.7874 67.7117 21.5727 66.9687 21.1597C65.8954 20.5486 64.9542 19.7226 63.947 19.0124C63.7818 18.8967 63.4516 18.8472 63.2865 18.9298C60.3473 20.5486 58.2503 22.8941 57.6559 26.2969ZM65.9614 26.2638C64.1781 26.2308 62.015 28.4277 62.0316 30.2447C62.0481 31.434 63.8314 33.1849 65.0202 33.1684C66.8366 33.1519 68.9501 31.0211 68.9171 29.2371C68.8841 27.767 67.4145 26.2804 65.9614 26.2638ZM65.2349 19.2106C67.3649 20.9615 69.7592 21.8205 72.4507 20.9285C73.6065 20.5486 74.6302 19.7061 75.7366 19.0454C75.2742 18.236 74.9275 17.6579 74.6963 17.2449C73.4249 17.79 72.1699 18.4838 70.8325 18.8637C68.5538 19.5244 65.7798 17.9387 65.4661 15.94C65.1358 13.8092 65.8128 12.0417 67.5466 10.7533C68.3226 10.1752 69.2143 9.72918 70.0729 9.21712C69.7757 8.68854 69.429 8.11039 69.0822 7.51574C65.433 8.17647 63.4021 11.3975 63.4516 14.1726C63.4681 15.0315 63.5341 15.907 63.6828 16.7659C63.8479 17.79 64.4423 18.5499 65.2349 19.2106ZM70.6673 9.86133C68.785 10.6707 66.9191 11.5462 66.2752 13.71C65.5321 16.2208 66.9687 18.0048 69.3959 18.2525C71.3278 18.4508 72.8304 17.4762 74.2505 16.353C74.333 16.2869 74.3991 16.1382 74.4156 16.0226C74.4651 15.2958 74.4816 14.5855 74.5312 13.7596C73.6726 14.4203 72.946 15.0315 72.1534 15.5601C71.7406 15.8409 71.2288 16.0722 70.7334 16.1547C69.5776 16.353 68.818 15.94 68.4547 14.9985C68.174 14.2882 68.5043 13.231 69.3464 12.7025C70.1885 12.1739 71.1297 11.794 72.0379 11.348C72.3351 11.2158 72.6488 11.1167 72.979 10.9846C72.2525 10.5881 71.5755 10.2247 70.882 9.86133C70.8325 9.86133 70.7334 9.84481 70.6673 9.86133ZM74.5147 12.6033C74.7954 12.2895 75.043 11.9261 75.3733 11.4801C73.2432 11.5297 71.4269 12.1573 69.7922 13.2971C69.3134 13.6275 68.9996 14.123 69.1813 14.7672C69.3794 15.4445 70.0894 15.7088 70.9976 15.3453C72.4341 14.7672 73.5074 13.7101 74.5147 12.6033ZM75.4063 13.5779C75.043 15.1471 74.9605 16.6668 76.0338 18.0874C78.3455 21.1432 82.5395 20.2678 84.3889 17.8231C84.4879 17.6909 84.4219 17.3606 84.3063 17.1954C84.0751 16.8485 83.7779 16.5677 83.4642 16.2043C82.8532 16.6668 82.2753 17.1458 81.6479 17.5588C80.3434 18.4342 79.105 18.3021 78.0317 17.3936C76.6117 16.1713 76.8429 14.602 77.5364 13.5779C77.9657 12.9337 78.461 12.339 78.9234 11.7114C78.5106 11.3645 78.0978 10.9846 77.6024 10.5716C76.5952 11.348 75.7035 12.2565 75.4063 13.5779ZM81.4662 11.4306C81.846 11.2984 82.2753 11.2323 82.6386 11.0672C84.0256 10.4395 83.91 10.4229 83.8605 8.9363C83.8275 8.01128 84.1742 7.05324 84.3558 6.09519C83.1174 6.26037 82.0276 5.6492 81.0204 4.75722C80.9048 4.65812 80.6406 4.59204 80.5085 4.65812C78.8573 5.38491 77.3382 6.8385 77.8006 9.06845C78.0482 10.3404 80.1618 11.8931 81.4662 11.4306ZM90.3497 6.59073C90.2837 6.87154 90.2672 7.15235 90.2837 7.43315C90.3332 7.97825 90.713 8.20951 91.1918 7.9287C91.6212 7.66441 92.1165 7.36708 92.3807 6.95412C93.1568 5.74829 93.6686 4.42686 93.52 2.77504C92.0009 3.81568 90.746 4.83981 90.3497 6.59073ZM88.2527 4.88935C89.7388 4.70765 90.746 3.74962 91.6707 2.67594C91.9018 2.41165 92.067 2.08128 92.3807 1.63529C90.3662 1.65181 88.682 2.06477 87.4766 3.58444C87.2785 3.83221 87.0968 4.41034 87.2124 4.50945C87.4436 4.75722 87.9059 4.93891 88.2527 4.88935ZM98.0443 1.73439C99.0516 3.23754 100.141 4.47641 101.925 4.85633C102.172 4.90588 102.453 4.95542 102.701 4.88935C103.147 4.77373 103.477 4.49292 103.163 3.98085C102.915 3.5679 102.635 3.13843 102.271 2.82459C101.413 2.08127 99.3158 1.53617 98.0443 1.73439ZM97.8957 3.53488C97.6315 3.30362 97.3013 3.12192 96.8224 2.79156C96.839 4.85633 97.2683 6.55769 98.8369 7.76351C99.0681 7.94522 99.5965 8.09389 99.712 7.96174C99.9432 7.73049 100.125 7.2845 100.075 6.97065C99.9267 5.48403 98.9855 4.44337 97.8957 3.53488ZM105.739 6.1117C106.598 7.31752 106.73 8.52335 106.383 9.81177C106.333 9.97695 106.449 10.2743 106.581 10.3734C108.381 11.6453 110.049 12.0252 111.7 10.489C112.955 9.33274 113.054 7.38359 111.832 6.04563C111.337 5.50052 110.693 5.07106 110.049 4.69114C109.867 4.57552 109.405 4.67463 109.206 4.83981C107.886 5.91349 107.456 6.07866 105.739 6.1117ZM111.403 11.6948C111.848 12.2895 112.344 12.8676 112.74 13.4953C114.061 15.5766 113.219 16.9641 111.518 17.9717C110.742 18.4342 109.784 18.2525 108.992 17.7405C108.282 17.278 107.605 16.7494 106.878 16.2373C106.515 16.6833 106.168 17.0963 105.805 17.5092C106.664 19.2106 109.041 20.2843 111.254 20.0365C112.922 19.8548 114.903 18.0048 115.134 16.353C115.432 14.0239 114.821 12.0417 112.707 10.6046C112.278 10.9515 111.848 11.3149 111.403 11.6948ZM118.866 15.1141C119.857 15.6757 120.831 15.5601 121.178 14.9159C121.491 14.3212 121.128 13.5283 120.154 12.9832C118.585 12.1078 116.934 11.4636 115.035 11.4966C116.042 13.0328 117.314 14.2386 118.866 15.1141ZM117.496 10.935C118.635 11.4966 119.857 12.0087 120.98 12.6859C121.838 13.198 122.168 14.2551 121.921 14.9489C121.508 16.0556 120.402 16.5842 119.246 16.0391C118.338 15.6261 117.545 14.982 116.703 14.4203C116.406 14.2221 116.158 13.9909 115.811 13.71C115.861 14.569 115.894 15.3123 115.927 16.0556C115.927 16.1547 115.976 16.2704 116.059 16.3199C117.661 17.5753 119.328 18.5994 121.524 18.1534C124.728 17.5092 124.827 14.0074 123.308 12.2234C122.367 11.1167 121.161 10.456 119.857 9.92739C119.725 9.87783 119.51 9.87785 119.378 9.94392C118.734 10.2743 118.09 10.6212 117.496 10.935ZM123.688 11.6123C125.273 13.0989 125.504 15.8244 124.232 17.3606C123.027 18.7976 121.376 19.3262 119.609 18.8967C118.255 18.5664 117.017 17.8396 115.696 17.278C115.432 17.724 115.101 18.2691 114.771 18.8307C117.132 21.7213 121.458 21.9361 124.001 20.0035C125.058 19.1941 126.247 18.5499 126.594 17.1458C127.419 13.8422 127.023 11.2819 124.398 8.9363C123.588 8.2095 122.416 7.87914 121.376 7.36708C121.145 7.81307 120.98 8.12691 120.798 8.44075C120.633 8.72156 120.435 9.00237 120.352 9.10148C121.475 9.9439 122.68 10.6707 123.688 11.6123ZM126.247 19.128C125.19 20.2182 123.952 21.1597 122.499 21.5397C121.128 21.903 119.659 21.8865 118.173 22.0517C119.361 23.3071 120.6 24.6285 121.871 25.9335C122.003 26.0656 122.4 26.0987 122.598 26.0161C125.421 24.7772 129.12 26.1812 129.401 30.3273C129.5 31.6983 128.608 32.8381 127.419 33.5649C125.785 34.5559 123.671 34.3082 122.317 33.1023C120.93 31.8635 120.204 29.5014 121.145 27.5523C121.326 27.1723 121.293 26.9246 121.046 26.6768C119.741 25.4379 118.437 24.1991 117.066 22.9107C117.066 23.9513 117.132 24.8928 117.05 25.8179C116.984 26.5446 116.852 27.354 116.488 27.9652C115.844 29.0719 115.052 30.1126 114.259 31.1202C113.962 31.5001 113.896 31.7313 114.177 32.1113C114.804 32.9372 115.316 33.8457 116.009 34.6055C117.512 36.2408 119.394 37.2649 121.591 37.5953C122.4 37.7274 123.308 37.5788 124.133 37.364C125.867 36.918 127.551 36.2903 129.021 35.2497C130.59 34.1265 131.366 32.4416 131.96 30.7072C132.323 29.6666 132.555 28.5764 132.753 27.4862C132.967 26.2143 132.505 25.0415 131.96 23.9018C130.953 21.7544 129.318 20.2347 127.304 19.0454C126.858 18.7481 126.61 18.7481 126.247 19.128ZM122.68 26.9411C121.392 27.9487 121.161 29.4188 121.97 30.955C122.598 32.1443 123.671 32.772 124.893 33.1023C125.355 33.218 126.016 33.0858 126.412 32.8215C127.304 32.1938 128.212 31.5001 128.36 30.2117C128.08 28.7085 127.37 27.4532 125.95 26.7264C124.843 26.1482 123.721 26.1152 122.68 26.9411ZM132.373 23.2245C132.72 23.8191 133.099 24.3642 133.842 24.4468C134.652 24.5459 135.461 24.7276 136.253 24.6946C137.095 24.6451 137.393 24.0339 137.128 23.2575C136.616 21.7048 135.163 20.6477 133.545 20.6146C132.472 20.5981 131.399 20.4825 130.59 20.4329C131.118 21.2423 131.778 22.2169 132.373 23.2245ZM136.105 20.4329C136.616 21.0772 137.178 21.7048 137.64 22.3986C138.152 23.1584 138.482 24.0339 137.904 24.8763C137.36 25.6692 136.402 25.6361 135.56 25.6031C134.833 25.5701 134.107 25.3388 133.347 25.1902C133.413 26.0491 133.463 26.9246 133.529 27.8165C135.312 28.4607 137.178 28.8407 139.044 28.1965C141.636 27.288 142.098 25.7683 141.256 22.9933C140.778 21.424 139.589 20.3503 138.433 19.3097C137.64 19.6896 136.864 20.0695 136.105 20.4329ZM141.355 21.5727C142.065 22.6629 142.412 23.9183 142.379 25.2562C142.33 27.354 140.778 28.5764 138.68 29.0389C136.897 29.4353 135.13 29.2041 133.38 28.5268C133.066 29.5675 132.786 30.509 132.472 31.5166C134.206 32.293 135.939 32.8215 137.871 32.6233C140.001 32.4086 141.95 31.8635 143.7 30.5585C145.632 29.1215 146.193 27.1888 145.896 24.9589C145.715 23.6374 145.351 22.3325 144.922 21.0771C144.245 19.128 142.792 17.757 141.124 16.5512C140.431 17.2945 139.754 18.0378 139.093 18.7481C139.853 19.6731 140.695 20.5651 141.355 21.5727ZM129.516 59.4157C129.5 59.4157 129.483 59.4157 129.516 59.4157V59.4157ZM129.549 59.4488C129.648 60.8363 129.747 62.1908 129.847 63.5453C129.863 63.7105 129.896 63.9582 129.995 64.0078C130.903 64.4372 131.811 64.8337 132.868 65.2962C132.967 64.206 133.05 63.2975 133.116 62.3725C133.132 62.2238 133.066 61.9926 132.967 61.91C131.845 61.0676 130.689 60.2582 129.549 59.4488ZM136.732 62.9506C135.791 62.802 134.866 62.5872 133.958 62.4055C133.76 63.5783 133.578 64.7676 133.347 66.1717C132.076 65.6761 130.986 65.2466 129.83 64.7841C129.483 65.8248 129.12 66.8985 128.74 68.0712C131.134 68.9632 133.512 69.8552 136.039 70.7967C136.336 69.0458 136.616 67.4601 136.897 65.8743C137.013 65.1641 137.128 64.4538 137.227 63.7435C137.26 63.3471 137.244 63.0332 136.732 62.9506ZM134.817 71.0941C132.687 70.3838 130.59 69.5414 128.41 68.732C127.799 69.8717 127.155 71.061 126.478 72.3164C130.738 73.6213 134.916 74.8932 139.126 76.1816C140.101 71.9365 141.091 67.6748 142.098 63.2645C140.695 63.2645 139.374 63.2645 138.02 63.2645C137.657 65.4118 137.277 67.6913 136.848 69.9543C136.501 71.8704 136.666 71.7052 134.817 71.0941ZM142.247 81.5831C143.799 75.4053 145.318 69.3266 146.87 63.1819C145.417 63.1819 144.179 63.1819 142.891 63.1819C142.214 66.0725 141.537 68.8972 140.893 71.7052C140.546 73.2414 140.216 74.7776 139.902 76.3303C139.787 76.925 139.523 77.0901 138.928 76.8919C135.444 75.7852 131.96 74.7115 128.476 73.6379C127.964 73.4727 127.386 73.4396 126.907 73.2084C126.148 72.845 125.752 73.1919 125.421 73.803C124.992 74.5794 124.563 75.3392 124.001 76.3799C130.111 78.1143 136.105 79.8322 142.247 81.5831ZM112.839 82.1612C114.573 83.1358 116.307 84.1269 117.958 85.0684C119.048 83.2184 120.187 81.2362 121.376 79.2705C123.06 76.4625 124.81 73.7039 126.429 70.8793C127.221 69.4918 127.849 68.0052 128.476 66.5351C129.5 64.1234 129.401 61.6457 128.542 59.2506C127.964 57.6153 127.039 56.0956 126.263 54.4933C125.553 54.7081 124.942 54.8898 124.348 55.088C124.777 56.0295 125.273 56.8885 125.57 57.797C126.693 61.1171 126.643 64.4042 125.289 67.6913C123.688 71.6061 121.491 75.1575 119.295 78.7254C118.701 79.6835 118.057 80.625 117.512 81.6161C117.264 82.0456 117.083 82.0951 116.67 81.8474C113.533 80.0964 110.395 78.3455 107.242 76.6111C104.831 75.2897 102.684 73.6379 100.802 71.6392C99.5469 70.3012 98.7709 68.7155 98.2425 66.915C97.7967 65.4118 97.4169 63.9417 97.549 62.2238C96.8555 62.4055 96.2775 62.5377 95.7492 62.6698C95.2373 66.3038 95.7822 69.6735 97.9948 72.6137C99.3323 74.3647 101.149 75.6035 103.064 76.6772C106.3 78.5603 109.586 80.3442 112.839 82.1612ZM94.5603 82.0456C92.9256 80.0799 91.2579 78.1308 89.5902 76.1486C88.4839 76.8424 87.3445 77.5527 86.1557 78.2795C89.1609 81.5005 92.133 84.6885 95.1712 87.9426C98.1599 84.738 101.149 81.5335 104.187 78.2795C103.047 77.5692 101.892 76.8424 100.736 76.1156C99.4479 77.6848 98.1764 79.2375 96.905 80.7902C96.5087 81.2692 96.1124 81.7483 95.6666 82.1943C95.2538 82.6237 94.907 82.4585 94.5603 82.0456ZM95.1712 81.7648C96.872 79.7 98.4902 77.7344 100.141 75.7357C99.2167 74.8932 98.4076 74.183 97.5655 73.4231C96.9711 74.1664 96.3601 74.9098 95.7657 75.6696C95.3529 76.1982 94.9731 76.1651 94.5768 75.6531C93.9989 74.9098 93.3879 74.1664 92.7935 73.4066C91.9514 74.1664 91.1258 74.9098 90.2176 75.7191C91.8523 77.7013 93.454 79.6505 95.1712 81.7648ZM95.1877 75.4053C95.8317 74.5133 96.3931 73.7535 96.9215 72.9606C97.0041 72.845 96.9876 72.6137 96.938 72.4816C96.3436 71.1767 95.7326 69.8717 95.1712 68.6659C94.6098 69.9378 93.9989 71.3418 93.3384 72.8615C93.8833 73.6048 94.4942 74.4472 95.1877 75.4053ZM88.0876 86.8689C90.2341 89.0988 92.3972 91.2957 94.5273 93.5257C94.9236 93.9386 95.2703 94.1038 95.7327 93.6248C97.6976 91.6096 99.679 89.6274 101.627 87.6122C103.873 85.2831 106.069 82.9211 108.364 80.4929C107.291 79.8817 106.333 79.3201 105.343 78.8246C105.145 78.7254 104.715 78.8246 104.55 78.9897C101.693 82.0291 98.8699 85.1015 96.0464 88.1738C95.2373 89.0493 95.1217 89.0493 94.3126 88.1738C92.3642 86.043 90.3993 83.9452 88.4508 81.8309C87.6087 80.9224 86.7501 80.0304 85.941 79.0888C85.6108 78.6924 85.297 78.6263 84.8677 78.8741C83.9761 79.3862 83.0679 79.8982 81.9946 80.5259C84.0751 82.6898 86.0731 84.7876 88.0876 86.8689ZM67.6291 77.0406C69.2143 79.7661 70.8655 82.442 72.4341 85.0519C76.0338 83.0036 79.7655 80.8893 83.4972 78.775C85.5282 77.6187 87.5757 76.512 89.5406 75.2566C92.7935 73.1754 94.3456 70.0039 94.8245 66.2543C94.907 65.577 94.7419 64.8667 94.7089 64.173C94.6924 63.7105 94.9401 62.9837 94.7419 62.8515C94.2301 62.5211 93.5531 62.4386 92.8761 62.2569C92.8265 63.0828 92.843 63.8261 92.7275 64.5694C92.133 68.7155 90.0195 71.953 86.618 74.3316C84.8347 75.5705 82.9854 76.7102 81.1195 77.8335C79.5839 78.7585 77.9987 79.5844 76.4301 80.4433C75.5054 80.9554 74.5807 81.4509 73.623 81.8969C73.4414 81.9795 73.0121 81.8639 72.9295 81.6987C70.5683 77.7509 68.1575 73.8196 65.9614 69.7891C64.7891 67.6418 64.013 65.2466 63.9635 62.7524C63.947 61.6952 64.2937 60.6216 64.4093 59.5479C64.5909 57.9621 65.1854 56.5581 66.1431 55.1375C65.4496 54.9228 64.8551 54.7411 64.2772 54.5759C62.3783 57.1858 61.0904 59.9939 61.2059 63.314C61.2555 65.0154 61.7013 66.6177 62.4939 68.0712C64.1451 71.0941 65.8789 74.0673 67.6291 77.0406ZM60.8262 59.4488C60.2648 59.8782 59.6703 60.3738 59.0429 60.8363C58.6136 61.1667 58.1677 61.4805 57.6889 61.7283C57.3256 61.9265 57.144 62.1247 57.1935 62.5542C57.3091 63.4131 57.3917 64.2721 57.5073 65.2797C58.498 64.8502 59.3896 64.4538 60.2813 64.0408C60.3969 63.9913 60.4629 63.76 60.4794 63.5948C60.6115 62.2238 60.7271 60.8363 60.8262 59.4488ZM53.7095 70.9124C53.2471 68.319 52.7518 65.7422 52.2894 63.2314C51.0015 63.2314 49.6971 63.2314 48.2605 63.2314C49.2677 67.6253 50.242 71.8869 51.2327 76.1817C55.3937 74.9098 59.6043 73.6213 63.8809 72.3164C63.2204 71.0776 62.593 69.9048 61.949 68.7154C60.3638 69.3266 58.8117 69.9378 57.2265 70.5159C56.3019 70.8628 55.3607 71.1601 54.4195 71.4409C53.9737 71.5731 53.7921 71.3749 53.7095 70.9124ZM43.4885 63.1654C45.0241 69.2936 46.5433 75.3723 48.0954 81.55C54.2214 79.7661 60.3308 78.362 66.3247 76.2312C65.6642 75.0915 65.0698 74.0343 64.4423 72.9606C63.3855 73.2414 62.3948 73.4562 61.4536 73.7535C58.2338 74.7446 55.0304 75.7687 51.8271 76.7763C50.6878 77.1397 50.7043 77.1232 50.4401 75.9174C49.7796 72.9771 49.0861 70.0369 48.4091 67.0802C48.1614 65.9734 47.8807 64.8667 47.633 63.76C47.5505 63.3471 47.3854 63.1323 46.923 63.1323C45.8497 63.1819 44.7765 63.1654 43.4885 63.1654ZM53.5278 62.9837C53.3627 63.0167 53.1316 63.3636 53.1481 63.5122C53.5113 65.8743 53.9076 68.2364 54.3204 70.7967C56.8468 69.8552 59.241 68.9632 61.6188 68.0712C61.2555 66.8985 60.9087 65.8413 60.5785 64.7676C59.4557 65.2136 58.3494 65.6431 57.0284 66.1717C56.8137 64.7841 56.6321 63.6114 56.434 62.4055C55.4928 62.5872 54.5021 62.7524 53.5278 62.9837ZM32.8548 52.379C32.8878 55.0715 32.9538 57.7804 32.9704 60.4729C32.9704 61.1006 32.8548 61.7448 32.7887 62.3395C36.0251 62.3395 39.2614 62.3064 42.4813 62.356C44.4297 62.389 46.3947 62.6533 48.3431 62.5707C51.2162 62.4551 54.1883 62.6368 56.8798 61.3153C59.1254 60.2086 61.0243 58.6724 62.1636 56.3434C62.5434 55.5835 63.0058 54.8567 63.4021 54.1795C62.9727 53.7005 62.5434 53.238 62.0976 52.7424C61.4867 53.6014 61.0078 54.5099 60.3308 55.2201C58.4815 57.1528 56.467 58.8541 53.726 59.4818C50.8364 60.1591 47.9303 60.3903 44.9746 60.3573C42.1676 60.3242 39.3605 60.2912 36.5535 60.2416C36.1737 60.2416 35.7774 60.1756 35.3976 60.093C35.2655 60.06 35.1004 59.8948 35.0674 59.7461C34.9848 59.4157 34.9683 59.0854 34.9518 58.7385C34.9023 55.1871 34.8032 51.6192 34.8362 48.0678C34.8692 45.2432 35.1995 42.4516 36.2232 39.8087C36.7846 38.3716 37.5772 37.0832 38.8156 36.0921C39.2614 35.7287 39.5587 35.1671 40.0045 34.7872C40.7475 34.1925 41.5401 33.6805 42.4152 33.0693C41.9034 32.6233 41.4575 32.2269 40.8631 31.7148C39.5091 32.6398 37.924 33.5153 36.57 34.6716C34.506 36.4555 33.2841 38.7681 32.9538 41.5266C32.6731 43.8391 32.5576 46.1517 32.7887 48.4807C32.9373 49.7857 32.8382 51.0906 32.8548 52.379ZM24.4501 40.8163C25.8537 41.0971 27.1251 41.3614 28.413 41.5762C29.3707 41.7413 30.3614 41.8404 31.3191 42.0221C31.8971 42.1213 32.2273 42.1047 32.2933 41.3614C32.3759 40.5025 32.6566 39.6435 32.8548 38.7846C31.6163 38.5864 30.444 38.3882 29.123 38.1734C29.3872 37.4301 29.5524 36.8685 29.767 36.3234C29.9817 35.7783 30.2459 35.2332 30.5101 34.6385C29.4037 34.2751 28.347 33.9448 27.1746 33.5483C26.2665 35.9435 25.3913 38.3056 24.4501 40.8163ZM26.4646 33.2345C25.3748 32.6398 24.1694 31.9956 22.9145 31.3184C21.6101 35.5801 20.3386 39.7592 19.0507 43.9713C23.3273 44.9624 27.5709 45.9369 31.8971 46.9445C31.9631 45.524 32.0457 44.2191 32.1117 42.8811C30.0312 42.5342 27.9507 42.2038 25.8702 41.8404C25.4078 41.7579 24.962 41.5927 24.4997 41.5431C23.7731 41.477 23.6245 41.1467 23.8557 40.5025C24.7308 38.1239 25.5729 35.7287 26.4646 33.2345ZM31.5173 34.6881C31.3852 34.7046 31.2201 34.8202 31.1705 34.9359C30.7577 35.8113 30.378 36.7198 29.9321 37.7109C30.9228 37.81 31.7319 37.8761 32.5245 37.9587C33.0034 38.0082 33.2841 37.8431 33.5648 37.4136C34.2088 36.4555 34.9518 35.5636 35.6618 34.6385C35.7279 34.5394 35.7774 34.4238 35.8104 34.3743C34.3739 34.4734 32.9538 34.5725 31.5173 34.6881ZM13.6843 47.1097C19.8433 48.6624 25.8867 50.1821 32.0457 51.7183C32.0457 50.4134 32.0622 49.3066 32.0292 48.1999C32.0292 48.0017 31.765 47.6879 31.5833 47.6548C27.4553 46.6803 23.3438 45.7222 19.1993 44.7972C18.159 44.5659 18.1095 44.5329 18.4397 43.4757C19.5295 39.9409 20.6358 36.4225 21.7256 32.8876C21.8907 32.3425 22.0889 31.7974 22.1384 31.2358C22.155 30.955 21.9073 30.5586 21.6596 30.3934C20.8505 29.8648 20.0084 29.4353 19.0177 28.8737C16.8546 34.8533 15.4676 40.9815 13.6843 47.1097ZM29.767 2.59335C30.7742 2.41165 31.8145 2.32905 32.9043 2.19691C32.8052 1.7344 32.7227 1.20582 32.5575 0.710279C32.508 0.545095 32.2108 0.379919 32.0292 0.363401C31.2035 0.313848 30.3614 0.231245 29.5689 0.346868C28.2314 0.545088 26.8774 0.792875 25.5729 1.18931C22.5347 2.13084 20.5863 4.39382 19.0672 7.00368C16.9702 10.6046 14.9887 14.2882 12.9412 17.9222C12.0165 19.5575 11.0754 21.1928 10.1837 22.7455C12.0826 23.8687 14.0805 25.0415 16.062 26.2308C18.836 27.8991 21.577 29.6335 24.3841 31.2523C26.5141 32.4912 28.7267 33.5814 31.2201 33.9117C32.8217 34.11 34.4069 33.9448 35.8765 33.3666C37.5277 32.7224 39.0798 31.8635 40.731 31.0871C40.5164 30.3438 40.3347 29.7657 40.1531 29.1545C39.9714 29.2206 39.7733 29.2206 39.6577 29.3197C38.2542 30.4264 36.5204 30.6411 34.8692 31.0045C32.3924 31.5496 30.0147 31.0376 27.67 30.1291C23.5089 28.5268 19.7937 26.0987 16.0125 23.8026C15.2034 23.3071 14.4108 22.762 13.6017 22.283C13.2549 22.0682 13.1228 21.9361 13.3705 21.5066C14.4273 19.607 15.3685 17.6579 16.4583 15.7748C17.7297 13.5449 19.0011 11.3149 20.4542 9.20061C21.7091 7.36709 23.1292 5.59965 25.0941 4.44337C26.0848 3.86524 27.2076 3.51837 28.2644 3.0889C28.7267 2.92371 29.2386 2.69246 29.767 2.59335ZM34.0601 5.18669C33.5152 4.07998 32.3594 3.86525 31.3191 3.9148C30.0147 3.96435 28.7268 4.29471 27.4553 4.59204C26.8114 4.74071 26.2169 5.07107 25.7546 5.25277C27.3893 6.16127 29.09 7.03673 30.7247 8.04434C31.765 8.67203 32.6896 9.48141 33.6638 10.1917C34.6876 10.935 35.8434 11.2158 37.0984 11.2488C37.9405 11.2819 38.7661 11.3975 39.6082 11.4801C37.0653 9.94391 35.3316 7.78004 34.0601 5.18669ZM29.5193 8.09388C28.1158 7.18538 26.6958 6.27688 24.929 6.12822C24.2355 6.07866 23.8062 6.30992 23.3934 6.77243C22.5513 7.73048 21.7091 8.70506 20.7679 9.77875C23.4429 9.84482 25.672 10.8029 27.9342 11.7114C29.4037 12.2895 30.9063 12.6033 32.475 12.2895C33.1355 12.1574 33.7629 11.8105 34.4399 11.5627C32.7392 10.3569 31.1705 9.16756 29.5193 8.09388ZM32.9703 14.1395C32.3924 14.7342 31.9466 15.461 31.5173 16.1878C31.1045 16.865 31.4017 17.4432 31.9631 17.8726C33.5318 19.0619 35.2985 19.2932 37.1809 18.9298C39.1789 18.5333 40.731 17.311 42.2501 16.0556C43.3399 15.1637 44.3637 14.2056 45.3544 13.3301C43.3894 12.9667 41.342 12.4382 39.2614 12.2234C36.9663 11.9756 34.7041 12.339 32.9703 14.1395ZM58.6136 0.842412C58.5475 0.66071 58.3329 0.3634 58.1842 0.379918C57.2761 0.429471 56.3844 0.545094 55.4928 0.62769C53.4783 0.82591 51.8601 1.89959 50.3245 3.10541C49.2843 3.93132 48.7393 5.1041 48.4091 6.32644C48.0789 7.56531 47.8807 8.85372 47.7321 10.1256C47.4844 12.2565 48.31 14.09 49.5815 15.7253C50.6713 17.1293 51.7941 18.5003 53.4618 19.2436C54.1718 19.574 54.9644 19.7887 55.7405 19.8878C58.3163 20.2182 60.6611 19.4584 62.8406 18.1534C63.0058 18.0543 63.0718 17.6414 63.0553 17.3771C62.9562 16.1052 62.7251 14.8333 62.7251 13.5614C62.7251 12.1408 63.3855 10.9185 64.1946 9.77874C64.4093 9.48141 64.6074 9.20059 64.9047 8.77111C62.9562 9.25014 61.1399 9.6631 59.3566 10.1586C59.1419 10.2247 58.9273 10.6542 58.8943 10.935C58.564 13.0328 57.3421 14.4699 55.3442 14.9324C52.5867 15.5766 49.9282 14.123 49.9943 10.7038C50.0273 8.67202 51.3152 7.64789 52.8343 7.0202C54.3535 6.39251 56.0047 6.65681 57.3917 7.73049C57.5898 7.89567 57.8705 8.02781 57.9696 8.24254C58.4319 9.26667 59.1089 9.11801 59.9841 8.80417C61.4206 8.30862 62.9067 7.94523 64.5744 7.4662C64.1616 7.2845 63.9304 7.16887 63.6828 7.08628C60.8097 5.99608 59.5217 3.58442 58.6136 0.842412ZM55.823 7.82959C54.2048 7.51574 52.1408 8.25906 51.4473 9.41533C50.7373 10.6046 51.2657 11.7279 51.728 12.8181C52.2069 13.9578 53.2967 13.9413 54.3204 13.9413C56.2028 13.9413 57.6558 12.9502 58.0687 11.414C58.498 9.82828 57.4247 8.14344 55.823 7.82959ZM75.2907 1.96566C75.2247 1.81699 75.1256 1.61877 75.0265 1.40403C74.5312 0.280796 74.5477 0.346875 73.3093 0.660717C71.3609 1.12323 69.2308 3.86523 69.528 5.88044C69.7427 7.33404 70.205 8.60595 71.5095 9.44838C73.3588 10.6377 75.1256 10.8028 77.2226 9.92739C77.1401 9.31622 77.0575 8.77113 76.975 8.22603C76.0833 8.2921 75.1917 8.39121 74.3 8.40773C73.0286 8.44076 71.9718 7.71397 71.6581 6.65681C71.1957 5.05455 71.493 3.96434 72.7479 3.20451C73.5239 2.72549 74.3991 2.37861 75.2907 1.96566ZM75.9182 2.82459C75.8356 2.75852 75.654 2.74201 75.5549 2.79156C74.6137 3.20451 73.6065 3.51836 72.7974 4.11301C72.0048 4.69114 71.9058 5.6492 72.3681 6.57422C72.7809 7.40013 73.5074 7.76352 74.3991 7.73049C75.043 7.71397 75.687 7.63138 76.3145 7.54879C76.7603 7.48272 77.008 7.26799 77.2557 6.80548C77.718 5.99609 78.428 5.33535 79.0555 4.62507C79.2206 4.44337 79.4518 4.32776 79.815 4.07998C78.2464 4.07998 76.975 3.76612 75.9182 2.82459ZM85.2475 0.479023C85.1814 0.379909 84.9668 0.346867 84.8347 0.346867C83.2165 0.264278 81.5488 1.56921 81.2846 3.13844C81.136 4.04693 81.7965 4.49294 82.4074 4.90589C83.4147 5.59965 85.1649 5.51706 86.1391 4.77374C86.2382 4.70766 86.3538 4.60856 86.3868 4.50945C86.9482 2.98978 86.9482 2.98979 88.0545 1.93262C86.9978 1.58574 85.8915 1.48663 85.2475 0.479023ZM109.058 3.12192C108.81 1.5527 107.142 0.24776 105.508 0.330356C105.359 0.330356 105.145 0.379916 105.095 0.462505C104.451 1.48663 103.345 1.56921 102.288 1.89958C103.047 2.69245 103.972 3.27058 103.972 4.4764C103.972 4.59203 104.154 4.70766 104.269 4.79025C105.673 5.7483 107.836 5.45098 108.843 4.11301C109.041 3.89827 109.107 3.45228 109.058 3.12192ZM113.813 3.22103C112.922 3.76612 111.832 3.94783 110.808 4.2947C111.981 4.87284 112.806 5.89697 113.301 7.16886C113.334 7.25145 113.434 7.35057 113.516 7.38361C114.688 7.68093 115.877 8.01129 117.066 7.48271C117.908 7.11931 118.222 6.37599 118.239 5.53356C118.272 4.72418 117.776 4.12953 117.116 3.70005C116.752 3.4688 116.307 3.35317 115.927 3.13844C115.2 2.75852 114.606 2.72548 113.813 3.22103ZM117.446 0.792865C115.729 0.132144 115.712 0.165171 115.101 1.98217C115.943 2.3786 116.819 2.72549 117.595 3.20451C118.899 4.0139 119.196 5.12062 118.684 6.72288C118.338 7.78005 117.314 8.45728 115.993 8.42424C115.118 8.40773 114.259 8.30862 113.384 8.24254C113.301 8.78765 113.219 9.31623 113.12 9.96044C114.193 10.3734 115.332 10.7203 116.521 10.4229C118.222 9.99346 119.692 9.25016 120.451 7.4662C121.723 4.47642 119.626 1.63529 117.446 0.792865ZM142.61 9.74569C142.412 8.27558 142.065 6.80546 141.603 5.3849C141.108 3.88175 139.919 2.94022 138.614 2.04824C136.633 0.710276 134.42 0.528582 132.175 0.363398C132.043 0.34688 131.795 0.62768 131.745 0.825892C131.068 2.80807 130.325 4.75721 128.542 6.02911C127.75 6.59072 126.841 6.98716 125.9 7.51574C127.32 7.9287 128.724 8.34165 130.127 8.7546C130.325 8.82067 130.54 8.83719 130.722 8.91979C131.333 9.23363 131.745 9.16757 132.175 8.53988C133.578 6.50815 137.227 6.12822 139.242 8.15995C141.091 10.0265 140.53 13.0493 138.846 14.2552C137.277 15.3784 134.932 15.6922 133.05 13.9083C132.191 13.0989 131.58 12.1739 131.481 10.968C131.432 10.3899 131.134 10.1752 130.573 10.0595C128.905 9.69614 127.271 9.25015 125.553 8.80416C126.115 9.76222 126.66 10.5881 127.106 11.4636C127.832 12.8841 127.733 14.4203 127.584 15.9565C127.584 16.0061 127.551 16.0556 127.535 16.1052C127.122 18.1204 127.122 18.1204 129.021 18.9793C131.168 19.9374 133.364 20.2182 135.692 19.7061C137.508 19.3097 138.747 18.1204 139.919 16.8155C140.431 16.2373 140.877 15.5931 141.322 14.9654C142.445 13.4127 142.858 11.6288 142.61 9.74569ZM132.208 10.9515C132.323 12.2069 133.083 13.0493 134.173 13.5449C134.767 13.8092 135.444 13.8917 136.088 14.0569C138.284 13.9413 139.638 12.2895 139.225 10.1256C139.027 9.08497 138.136 8.63899 137.326 8.20951C136.138 7.56531 134.883 7.49922 133.694 8.17647C132.637 8.77112 132.092 9.72918 132.208 10.9515ZM148.241 12.719C147.135 12.9172 146.012 13.1319 144.939 13.3467C146.474 14.6186 148.01 15.9896 149.644 17.2449C151.808 18.9298 154.251 19.574 156.943 18.6985C157.521 18.5168 158.049 18.1369 158.528 17.757C158.974 17.4101 159.155 16.9146 158.908 16.3034C157.967 13.9083 156.068 12.785 153.673 12.306C151.824 11.9261 150.041 12.4051 148.241 12.719ZM162.243 11.7939C164.142 11.1167 166.074 10.5386 167.989 9.94392C168.419 9.81178 168.914 9.82828 169.508 9.7622C168.699 8.78763 167.923 7.84611 167.164 6.90458C166.19 5.71527 164.885 5.94653 163.861 6.49162C161.814 7.58182 159.898 8.91979 157.95 10.1586C157.306 10.5716 156.679 11.0341 156.002 11.4966C158.033 12.752 160.097 12.5538 162.243 11.7939ZM158.214 3.99739C157.323 4.17909 156.596 4.54248 156.167 5.43446C154.945 7.94521 153.228 10.01 150.553 11.414C150.883 11.4636 151.031 11.4966 151.18 11.4966C152.022 11.414 152.864 11.3149 153.723 11.2488C155.027 11.1332 156.2 10.6707 157.207 9.8448C159.502 7.94521 161.946 6.34296 164.852 5.35187C162.689 4.42685 160.592 3.51836 158.214 3.99739ZM174.429 12.5373C173.174 10.3073 171.919 8.06084 170.565 5.88044C168.485 2.52726 165.298 0.842408 161.467 0.346864C160.377 0.198197 159.254 0.313829 158.148 0.346864C158.033 0.346864 157.867 0.495546 157.834 0.611169C157.686 1.15627 157.57 1.70136 157.455 2.21342C158.429 2.32905 159.354 2.36208 160.278 2.54379C163.828 3.20451 166.685 4.95543 168.914 7.8461C171.176 10.7698 172.943 13.9909 174.726 17.2119C175.502 18.6325 176.245 20.0861 177.021 21.5066C177.236 21.8865 177.187 22.0682 176.807 22.2995C175.156 23.3071 173.537 24.3973 171.87 25.3718C169.641 26.6768 167.395 27.9982 165.083 29.1545C162.854 30.2612 160.526 31.1532 157.983 31.2028C156.959 31.2193 155.936 31.0211 154.928 30.8559C154.119 30.7237 153.31 30.5255 152.534 30.2447C151.775 29.9639 151.065 29.5344 150.239 29.138C150.041 29.7987 149.876 30.3768 149.694 30.9715C151.494 31.88 153.079 33.1519 155.16 33.6309C158 34.2751 160.675 33.9943 163.217 32.6894C165.1 31.7313 166.916 30.6081 168.749 29.5344C171.407 27.9652 174.049 26.363 176.708 24.8102C177.897 24.1 179.135 23.4558 180.208 22.8446C178.293 19.4418 176.377 15.973 174.429 12.5373Z" fill="#8A57DC"/>
</svg>
