<svg width="77" height="108" viewBox="0 0 77 108" fill="none" xmlns="http://www.w3.org/2000/svg">
<path d="M73.4429 70.7733C73.4429 66.7624 72.1195 62.0396 69.4869 56.6236C66.9963 51.5011 62.8375 44.7208 57.0061 36.3066C52.4319 29.192 47.1489 21.1263 41.1585 12.0991C40.7959 11.6027 40.1688 10.8946 39.2719 9.99777C38.6158 9.34464 38.2963 8.91516 38.2963 8.68927V1.76041C38.2963 1.06418 38.4561 0.715698 38.7897 0.715698C38.9643 0.715698 39.1791 0.823432 39.4458 1.03817L52.0314 11.7365C52.8064 12.3926 53.195 12.8889 53.195 13.2226C53.195 13.4492 53.0063 13.5562 52.6207 13.5562C52.0574 13.5562 51.1227 13.3043 49.8253 12.7931C48.9025 12.4335 48.447 12.3517 48.447 12.5405C48.447 12.6333 48.5949 12.8741 48.8765 13.2634C49.8662 14.6388 53.918 20.8068 61.0319 31.7317C66.9591 40.8548 71.051 48.3052 73.324 54.0809C75.3845 59.2851 76.4121 64.4084 76.4121 69.4351C76.4121 78.5061 73.6465 86.9025 68.1346 94.6086C65.2055 98.7013 61.9287 101.575 58.2774 103.246C56.8203 103.929 54.3326 104.718 50.8009 105.641C47.2715 106.564 44.6761 107.098 43.0042 107.246C42.3221 107.313 41.9855 107.246 41.9855 107.06C41.9855 106.887 42.3221 106.59 42.9641 106.149C46.1859 104.318 51.4303 101.174 58.7039 96.7218C63.1332 93.8455 66.6775 90.0864 69.3391 85.4729C72.0675 80.7531 73.4429 75.8557 73.4429 70.7733Z" fill="white"/>
<path d="M55.1605 67.0044C53.9293 63.2721 53.1023 59.7946 52.6609 56.5438C52.499 55.2873 52.3801 54.5235 52.2983 54.2307C52.1245 53.5486 51.8049 52.8806 51.3235 52.2364C51.6571 51.1129 52.1913 49.563 52.9136 47.5575C53.1543 46.9683 53.3809 46.6866 53.5697 46.6866C53.7435 46.6866 54.037 46.9683 54.4784 47.5575C56.391 50.2191 57.996 52.599 59.2933 54.6981C59.8305 55.5682 60.0973 56.1842 60.0973 56.5438C60.0973 56.8106 59.9754 56.9443 59.7347 56.9443C59.2532 56.9443 58.3853 56.5438 57.1281 55.754C57.0062 55.754 56.9133 55.8357 56.8324 56.0096C57.273 57.5744 57.97 59.7396 58.9337 62.4971C61.113 68.6881 62.2105 73.1954 62.2105 76.0308C62.2105 78.8521 61.781 81.3279 60.9392 83.427C59.5341 87.0122 57.0991 88.8052 53.6507 88.8052C49.9704 88.8052 47.0681 87.2002 44.9437 84.017C43.6575 82.1029 42.5229 79.2415 41.5331 75.4156C41.1037 79.2682 39.8725 82.5703 37.867 85.3537C35.406 88.7242 32.2511 90.4101 28.411 90.4101C24.1735 90.4101 21.2154 88.3898 19.5176 84.338C18.5799 82.0628 18.1125 79.402 18.1125 76.3243C18.1125 72.2606 18.5947 68.4763 19.5585 64.9699C19.8103 64.0203 19.9441 63.3909 19.9441 63.0833C19.9441 62.9117 19.9062 62.8307 19.8104 62.8307C19.6365 62.8307 19.2508 63.2981 18.6468 64.235C17.6979 65.7189 16.7082 68.7141 15.6657 73.2362C14.3163 79.0669 13.4313 82.5852 13.019 83.7904C12.4706 85.4622 11.6807 86.8109 10.665 87.8266C9.84617 88.6714 9.12691 89.0979 8.52282 89.0979C5.82038 89.0979 3.72203 87.3741 2.2508 83.9345C1.04634 81.0872 0.445221 77.6365 0.445221 73.5959C0.445221 70.7745 0.871728 67.6983 1.74257 64.3807C1.94319 63.6317 2.13192 63.0833 2.3318 62.7088C2.58444 62.2556 2.77316 62.2006 2.86604 62.5372C2.95893 62.9236 2.91805 63.6057 2.71818 64.5954C2.23594 67.1232 1.99817 69.4252 1.99817 71.5384C1.99817 79.7096 3.70791 83.8023 7.14744 83.8023C8.61569 83.8023 9.84618 82.6922 10.8099 80.498C11.414 79.1196 12.1481 76.487 13.019 72.621C14.0206 68.3396 14.8617 65.2107 15.5587 63.2193C16.3626 60.9441 17.3524 58.9238 18.542 57.1591C19.8104 55.1796 20.9338 54.1899 21.8715 54.1899C22.6465 54.1899 23.0352 55.0057 23.0352 56.6508C23.0352 58.015 22.6465 60.7583 21.8715 64.903C21.0966 69.0626 20.7221 71.846 20.7221 73.2764C20.7221 76.3652 21.3633 78.786 22.6607 80.524C23.9439 82.2776 25.7495 83.1462 28.0366 83.1462C32.1954 83.1462 35.3273 81.8362 37.3996 79.2266C39.0455 77.1692 39.8725 74.6265 39.8725 71.6045C39.8725 68.7022 39.6206 65.8928 39.1383 63.1903C38.8047 61.2777 38.3344 59.461 37.76 57.7483C37.2778 56.2503 37.037 55.5422 37.037 55.6351C37.037 53.9751 37.5742 51.7022 38.671 48.8147C38.9125 48.1846 39.0982 47.877 39.2461 47.877C39.4199 47.877 39.6867 48.2916 40.076 49.1075C41.626 52.3323 42.8424 57.2668 43.7392 63.9133C44.5804 70.1333 45.7997 74.5745 47.3905 77.2472C48.9695 79.9243 51.3755 81.2618 54.6263 81.2618C57.3287 81.2618 59.1076 80.2728 59.9494 78.3186C59.9494 77.6365 59.3862 76.1906 58.2516 73.9585C56.7945 71.1379 55.7758 68.8099 55.1605 67.0044Z" fill="white"/>
<path d="M38.1743 40.114C38.1743 41.0628 37.9596 42.0407 37.5479 43.0564C36.9988 44.3656 36.2877 45.0217 35.4058 45.0217C34.0296 45.0217 33.0518 44.0729 32.4767 42.1863C31.8213 44.6064 30.631 45.8257 28.8811 45.8257C28.2362 45.8257 27.6618 45.4891 27.1796 44.836C26.6201 44.058 26.3526 43.0423 26.3526 41.7858V38.8159C26.3526 38.5751 26.1787 38.4012 25.8562 38.3084C25.5226 38.2155 25.3628 37.9599 25.3628 37.5453C25.3628 36.8892 25.6303 36.2472 26.1898 35.6208C26.701 35.0717 27.0867 34.7901 27.3542 34.7901C27.7027 34.7901 27.8765 35.4462 27.8765 36.7435C27.8765 37.4256 27.8096 37.9859 27.7026 38.4562C27.5949 38.9087 27.5429 39.3122 27.5429 39.6466C27.5429 40.3547 27.6759 41.0368 27.9694 41.6781C28.3179 42.4412 28.7325 42.8157 29.2407 42.8157C29.8969 42.8157 30.5121 42.508 31.0865 41.9188C31.6467 41.3296 31.9432 40.6363 31.9432 39.8324C31.9432 39.3791 31.8094 38.59 31.5427 37.4784C31.2722 36.3549 31.1392 35.6728 31.1392 35.4061C31.1392 35.1646 31.2611 34.7759 31.5018 34.2566C31.7426 33.7483 31.9164 33.4786 32.0361 33.4786C32.2619 33.4786 32.5436 34.2157 32.8921 35.6988C33.2405 37.1708 33.4263 38.2564 33.4263 38.9645C33.4263 40.9959 34.2043 42.0117 35.7802 42.0117C36.4505 42.0117 36.877 41.6662 37.0516 40.996C35.6874 38.616 35.0194 36.8104 35.0194 35.5539C35.0194 34.8168 35.194 34.1748 35.5536 33.6265C35.8092 33.2408 35.969 33.0253 36.0619 33.0112C36.1689 33.0112 36.2357 33.252 36.2878 33.7342C36.3546 34.4163 36.4624 34.9647 36.6102 35.4061C36.6362 35.4462 36.9587 36.288 37.5851 37.9079C37.9745 38.8686 38.1743 39.6057 38.1743 40.114Z" fill="white"/>
<path d="M41.8725 24.7552C41.394 25.9715 41.0314 26.6536 40.8167 26.8275C34.5588 29.0365 26.3853 32.2064 16.3015 36.3652C14.5368 37.288 13.6548 37.9151 13.6548 38.2517C13.6548 38.4784 13.9476 38.731 14.5227 39.0126C15.1119 39.3083 16.0348 39.6687 17.318 40.1093C17.5327 40.1762 17.6397 40.6436 17.6397 41.5144C17.6397 42.2775 17.6107 42.7189 17.5327 42.8526C17.4659 42.9715 17.1984 42.9975 16.7429 42.9047C13.8146 42.3444 12.3575 41.3138 12.3575 39.8166C12.3575 38.9717 12.758 37.8773 13.559 36.5509C14.3748 35.2157 15.2308 34.2787 16.1276 33.7155C16.9168 33.2072 21.236 31.5354 29.0759 28.6739C33.1277 27.202 37.1943 25.7449 41.2573 24.2878C41.6868 24.1288 41.9394 24.0589 42.0211 24.1139C42.0613 24.1808 42.0211 24.3955 41.8725 24.7552Z" fill="white"/>
<path d="M25.326 28.1742C25.0841 28.6918 24.8799 29.0155 24.7328 29.1252C24.6018 29.2328 24.5279 29.1593 24.5044 28.9192C24.5044 28.6785 24.5514 28.3548 24.6616 27.9449C24.7825 27.5342 24.9397 26.7639 25.158 25.6564C25.2286 25.092 25.2655 24.5517 25.2655 24.0214C25.2655 19.9274 23.4994 16.3516 19.9808 13.2821C19.7625 13.0915 19.7289 12.8508 19.8834 12.5612L20.8648 10.8399C20.9488 10.6828 21.0932 10.6828 21.2874 10.8399C24.7456 13.4647 26.4753 17.2083 26.4753 22.07C26.4753 24.5015 26.0871 26.5365 25.326 28.1742Z" fill="white"/>
<path d="M13.3782 48.2248C13.431 48.3318 13.46 48.4796 13.46 48.6513C13.46 49.1996 13.2853 49.8557 12.9227 50.5787C12.5743 51.3128 12.2406 51.6754 11.907 51.6754C12.1738 51.6754 11.21 51.5157 9.04481 51.1791C8.2557 52.5582 7.43984 53.6148 6.58385 54.337C5.84899 54.9641 4.75226 55.6344 3.29516 56.3284C2.90581 56.5171 2.71781 56.717 2.71781 56.9057C2.71781 57.0803 2.85082 57.1992 3.10643 57.2661C4.01517 57.5328 5.35264 57.5588 7.13222 57.3731C7.89533 57.2802 9.7128 56.9057 12.5891 56.2236C12.9487 56.1426 13.1375 56.1166 13.1375 56.1426C13.1375 56.1946 12.5891 56.61 11.4916 57.3731C11.0102 57.7216 10.1423 58.1221 8.9118 58.5486C7.21321 59.1638 5.70113 59.4714 4.33691 59.4714C2.70593 59.4714 1.89008 58.9379 1.89008 57.8665C1.89008 56.7987 2.35744 55.8491 3.29516 55.0451C4.08204 54.5116 4.85926 53.9625 5.64911 53.3993C6.75773 52.6392 7.5996 51.8352 8.17397 51.0052C6.43526 50.6976 5.56811 50.0445 5.56811 49.0139C5.56811 48.2508 5.79401 47.3941 6.26138 46.46C5.95674 45.3774 6.02361 44.6136 6.47612 44.1581C6.82461 43.8096 7.23997 43.6357 7.7066 43.6357C8.16283 43.6357 8.68518 43.7836 9.27144 44.1061C11.3319 45.2288 12.6961 46.6049 13.3782 48.2248ZM12.2555 49.2546C11.8141 48.3058 11.0503 47.6088 9.95355 47.1273C9.95355 48.1319 9.86068 48.8801 9.68606 49.4032C9.86068 49.4552 10.6765 49.5741 12.1477 49.777C12.2287 49.7889 12.2956 49.777 12.3216 49.748C12.4034 49.6819 12.3744 49.5072 12.2555 49.2546ZM8.83007 49.2546C8.93782 48.7323 8.9118 48.1839 8.77806 47.6355C8.61533 47.0084 8.36271 46.7008 7.98821 46.7008C7.76233 46.7008 7.4547 46.9007 7.05123 47.287C6.65073 47.6905 6.45011 47.9981 6.45011 48.2099C6.45011 48.6921 7.23997 49.0399 8.83007 49.2546Z" fill="white"/>
<path d="M49.0092 34.8229C49.0092 35.7197 48.6347 36.7213 47.9124 37.8589C47.1634 39.0344 46.1856 40.0539 45.0101 40.8809C44.5427 41.2145 44.2611 41.3884 44.1682 41.3884C44.1534 41.3884 44.1534 41.3772 44.1534 41.3624C44.1534 41.2814 44.354 41.0436 44.7426 40.5993C46.6931 38.4749 47.6717 37.055 47.6717 36.3469C47.6717 35.6647 47.3492 35.3311 46.7221 35.3311C46.3855 35.3311 46.066 35.424 45.7851 35.6127C45.5845 35.7465 45.4507 35.8245 45.3957 35.8394C45.3697 35.8126 45.3177 35.7866 45.262 35.7725C45.291 35.6907 45.3177 35.5169 45.3697 35.2241C45.6922 33.7522 46.4145 33.0292 47.5639 33.0292C48.5277 33.0292 49.0092 33.6333 49.0092 34.8229Z" fill="white"/>
<path d="M32.8251 20.3655C33.1476 20.3655 33.4552 20.2176 33.748 19.936C34.0823 19.6172 34.2562 19.2138 34.2562 18.7204C34.2562 18.1832 33.9486 17.9164 33.3475 17.9164C33.0807 17.9164 32.8511 18.0115 32.6512 18.1713C32.6512 17.8495 32.866 17.3673 33.3073 16.7001C33.7078 16.0848 34.0964 15.6026 34.4969 15.2429C34.5898 15.1352 34.6158 15.0423 34.5779 14.9613C34.5638 14.8945 34.4969 14.8803 34.3899 14.9465C33.8817 15.2548 33.3333 15.8433 32.7582 16.7001C32.091 17.6638 31.7685 18.4908 31.7685 19.187C31.7685 19.962 32.117 20.3655 32.8251 20.3655Z" fill="white"/>
<path d="M17.8453 23.9624C17.8974 23.8554 17.9382 23.7766 17.9932 23.7365C18.0452 23.6956 18.072 23.7097 18.072 23.7476C18.1009 23.8026 18.1009 23.8955 18.072 24.0173C17.6046 26.5838 16.8407 27.8693 15.773 27.8693C14.6495 27.8693 14.0863 26.9174 14.0863 25.0338C14.0863 22.72 14.7573 20.2851 16.0925 17.7424C16.4291 17.1152 16.629 16.7935 16.6959 16.7816C16.7077 16.7816 16.7219 16.7816 16.7219 16.8076C16.7219 16.9272 16.629 17.275 16.4291 17.8761C15.5583 20.5258 15.1317 22.3834 15.1317 23.44C15.1317 24.8852 15.5174 25.6201 16.2924 25.6201C16.7479 25.6201 17.271 25.0598 17.8453 23.9624Z" fill="white"/>
<path d="M9.99158 92.0682C10.9665 92.0682 11.8373 92.6433 12.6123 93.7957C13.3873 94.9564 13.9364 96.4685 14.244 98.329C14.2841 98.5148 14.299 98.6367 14.299 98.6627C14.3399 98.7154 14.3659 98.7154 14.377 98.6627C14.3919 98.6367 14.4439 98.5148 14.5137 98.329C14.6735 97.2174 15.048 95.5456 15.6632 93.3395C16.3193 91.7606 17.0386 90.9714 17.8284 90.9714C18.2319 90.9714 18.6324 91.2382 19.018 91.7754C19.3814 92.2428 19.5553 92.6314 19.5553 92.9249C19.5553 93.1508 19.4884 93.4472 19.3665 93.8217C19.2068 94.3032 19.0329 94.5559 18.8182 94.5559C18.7253 94.5559 18.5395 94.3701 18.2431 93.9956C17.9503 93.6211 17.6427 93.4324 17.335 93.4324C16.6381 93.4324 15.982 95.0782 15.3957 98.355C15.1409 99.7861 14.8474 100.788 14.5397 101.391C14.3101 101.792 14.1244 101.992 13.9654 101.992C13.8167 101.992 13.7506 101.806 13.7506 101.444C13.7506 100.869 13.4281 99.7453 12.7609 98.0883C12.1048 96.4283 11.6226 95.6006 11.3558 95.6006C11.1552 95.6006 11.0333 95.6533 10.9813 95.7722C10.9293 95.8941 10.7807 95.961 10.5139 95.961C10.2182 95.961 9.83182 95.7343 9.35033 95.3049C8.88296 94.8635 8.64221 94.515 8.64221 94.2624C8.64221 94.1405 8.84209 93.74 9.22847 93.0728C9.63194 92.4025 9.88384 92.0682 9.99158 92.0682Z" fill="white"/>
<path d="M37.5329 91.0097C38.4558 91.0097 39.3786 91.8917 40.3022 93.6713C41.1322 95.2904 41.7185 97.096 42.0521 99.1014C42.0811 99.2872 42.1071 99.409 42.1071 99.4351C42.1331 99.4878 42.1598 99.4878 42.1888 99.4351C42.1999 99.409 42.2408 99.2872 42.3077 99.1014C42.5633 97.3746 43.0299 95.1016 43.7239 92.281C44.38 90.7021 45.103 89.9122 45.8921 89.9122C46.2926 89.9122 46.6931 90.179 47.0966 90.7162C47.4451 91.1836 47.616 91.5722 47.616 91.8657C47.616 92.0923 47.5498 92.3881 47.4302 92.7477C47.2712 93.244 47.0966 93.4825 46.8818 93.4825C46.789 93.4825 46.6002 93.2968 46.3075 92.9223C46.011 92.5619 45.7034 92.3739 45.3958 92.3739C44.7545 92.3739 44.0204 94.6201 43.2045 99.1274C42.937 100.559 42.6562 101.563 42.3337 102.163C42.1071 102.564 41.9183 102.765 41.7593 102.765C41.6256 102.765 41.5587 102.579 41.5587 102.219C41.5587 101.615 41.1842 100.21 40.4352 97.9787C39.6721 95.6767 39.1527 94.5421 38.8971 94.5421C38.6965 94.5421 38.5746 94.5941 38.5226 94.713C38.4706 94.8349 38.3228 94.9017 38.0553 94.9017C37.7595 94.9017 37.3731 94.6751 36.8917 94.2456C36.4243 93.8043 36.1835 93.4565 36.1835 93.2039C36.1835 93.082 36.3834 92.6815 36.7698 92.0136C37.1733 91.3433 37.4259 91.0097 37.5329 91.0097Z" fill="white"/>
<path d="M31.5541 51.5403C31.5541 52.2752 31.2464 53.1193 30.6312 54.0689C30.0041 55.0586 29.2001 55.9005 28.2104 56.5967C27.8247 56.8642 27.5951 57.0091 27.5171 57.0091C27.5023 57.0091 27.5023 56.9972 27.5023 56.9831C27.5023 56.9303 27.662 56.7156 27.9956 56.356C29.6296 54.5764 30.4454 53.3979 30.4454 52.7975C30.4454 52.2343 30.1787 51.9557 29.6556 51.9557C29.3628 51.9557 29.1072 52.0344 28.8665 52.1964C28.6926 52.3153 28.5849 52.3681 28.544 52.3822C28.5069 52.3562 28.4779 52.3421 28.4251 52.3302C28.4511 52.2633 28.4779 52.1154 28.518 51.8598C28.7855 50.6435 29.3888 50.0431 30.3496 50.0431C31.1536 50.0431 31.5541 50.5365 31.5541 51.5403Z" fill="white"/>
<path d="M31.4468 69.9851C31.5018 69.8773 31.5427 69.7993 31.5947 69.7584C31.6467 69.7176 31.6757 69.7324 31.6757 69.7703C31.7017 69.8253 31.7017 69.9182 31.6757 70.0401C31.2053 72.6058 30.4452 73.892 29.3745 73.892C28.251 73.892 27.6907 72.9424 27.6907 71.0558C27.6907 68.7427 28.358 66.3078 29.6962 63.7681C30.0298 63.138 30.2304 62.8155 30.2973 62.8043C30.3114 62.8043 30.3233 62.8043 30.3233 62.8303C30.3233 62.9492 30.2305 63.2977 30.0298 63.9011C29.1597 66.5485 28.7325 68.4061 28.7325 69.4657C28.7325 70.9079 29.1218 71.645 29.8968 71.645C30.3493 71.645 30.8717 71.0818 31.4468 69.9851Z" fill="white"/>
<path d="M30.3114 100.199C30.3641 100.091 30.4303 99.998 30.486 99.9431C30.538 99.9022 30.564 99.9171 30.564 99.9691C30.59 100.024 30.59 100.132 30.564 100.266C30.0446 103.101 29.1998 104.532 28.0102 104.532C26.7678 104.532 26.1377 103.475 26.1377 101.388C26.1377 98.8196 26.8718 96.1179 28.3728 93.2966C28.7324 92.5996 28.959 92.24 29.0259 92.2251C29.0549 92.2251 29.0668 92.2251 29.0668 92.2541C29.0668 92.3878 28.959 92.7883 28.7473 93.4444C27.7836 96.3727 27.3021 98.431 27.3021 99.6236C27.3021 101.229 27.7286 102.03 28.5994 102.03C29.1069 102.03 29.6672 101.415 30.3114 100.199Z" fill="white"/>
<path d="M31.8874 5.22502C31.8874 5.82614 31.6355 6.49339 31.1533 7.25649C30.657 8.04634 30.0038 8.7136 29.2147 9.27683C28.9071 9.49157 28.7184 9.61046 28.6656 9.61046C28.6515 9.61046 28.6515 9.59634 28.6515 9.58445C28.6515 9.54358 28.7852 9.36971 29.0401 9.0881C30.3493 7.67186 31.0054 6.723 31.0054 6.24076C31.0054 5.7994 30.7937 5.57053 30.3783 5.57053C30.1376 5.57053 29.937 5.62552 29.7482 5.75927C29.6004 5.85215 29.5223 5.90713 29.4815 5.90713C29.4555 5.89227 29.4295 5.86627 29.3886 5.86627C29.4005 5.81129 29.4294 5.69239 29.4673 5.49177C29.6672 4.51393 30.1636 4.03467 30.9267 4.03467C31.5687 4.03467 31.8874 4.43517 31.8874 5.22502Z" fill="white"/>
<path d="M54.7447 93.4154C54.7447 94.0188 54.4921 94.6868 54.0106 95.4499C53.5172 96.2397 52.8611 96.907 52.0713 97.4702C51.7637 97.682 51.5749 97.8038 51.5229 97.8038C51.5088 97.8038 51.5088 97.7897 51.5088 97.7778C51.5088 97.737 51.6418 97.5631 51.8974 97.2815C53.2096 95.8652 53.8627 94.9156 53.8627 94.4342C53.8627 93.9928 53.6502 93.7639 53.2356 93.7639C52.9949 93.7639 52.7943 93.8189 52.6055 93.9527C52.4606 94.0455 52.3796 94.0976 52.3388 94.0976C52.3128 94.0857 52.2868 94.0597 52.2459 94.0597C52.257 94.0047 52.2868 93.8858 52.3239 93.6852C52.5275 92.7073 53.0209 92.2251 53.784 92.2251C54.4252 92.2251 54.7447 92.6286 54.7447 93.4154Z" fill="white"/>
</svg>
