<svg width="25" height="24" viewBox="0 0 25 24" fill="none" xmlns="http://www.w3.org/2000/svg">
<g clip-path="url(#clip0_1733_121343)">
<path d="M7.34575 22.3877L12.3749 20.3824V16.1985H5.23598V20.9576C5.23598 22.0461 6.3347 22.7908 7.34575 22.3877Z" fill="#D4D4D4"/>
<path d="M17.4041 22.3877L12.375 20.3824V16.1985H19.5139V20.9576C19.5139 22.0461 18.4152 22.7908 17.4041 22.3877Z" fill="#D4D4D4"/>
<path d="M23.008 2.27719L12.375 5.91523L1.74201 2.27719C1.24497 2.10713 0.725803 2.46867 0.712919 2.99385L0.37532 16.7556C0.366926 17.0977 0.583213 17.4051 0.908079 17.5128L11.4811 21.0166C11.5306 21.033 11.6307 21.0616 11.6307 21.0616L12.375 20.5009L13.1193 21.0616L23.3116 16.9825C23.6365 16.8748 23.8528 16.5674 23.8444 16.2253L24.1959 9.46812L24.0371 2.99385C24.0242 2.46867 23.505 2.10713 23.008 2.27719Z" fill="#A3A3A3"/>
<path d="M24.196 9.46802L12.6964 17.0327L13.1194 16.8926V21.0615C13.1196 21.0615 13.2195 21.0329 13.269 21.0165L23.842 17.5127C24.1669 17.405 24.3832 17.0976 24.3748 16.7555L24.196 9.46802Z" fill="#A3A3A3"/>
<path d="M12.9591 16.8927L13.1194 17.8893V21.0617C12.6319 21.1939 12.1183 21.1939 11.6307 21.0617V17.8893L11.7911 16.8927L12.1508 17.0649C12.2965 17.1135 12.4537 17.1135 12.5993 17.0649L12.9591 16.8927Z" fill="#D4D4D4"/>
<path d="M20.9047 15.8391L13.1194 17.8892L12.375 16.9377V4.99906L13.1194 3.93068L20.317 1.54548C20.865 1.36387 21.4322 1.76488 21.4438 2.34208L21.6935 14.7942C21.7033 15.2829 21.3773 15.7147 20.9047 15.8391Z" fill="#D4D4D4"/>
<path d="M3.84531 15.8391L11.6306 17.8892L12.375 16.9377V4.99906L11.6306 3.93068L4.43301 1.54548C3.885 1.36387 3.31777 1.76488 3.30619 2.34208L3.05653 14.7942C3.04673 15.2829 3.3727 15.7147 3.84531 15.8391Z" fill="#D4D4D4"/>
<path d="M13.1194 3.93042V17.889L12.7366 17.9899C12.4996 18.0524 12.2505 18.0524 12.0136 17.9899L11.6307 17.889V3.93042L12.1509 4.10287C12.2965 4.15113 12.4537 4.15113 12.5993 4.10287L13.1194 3.93042Z" fill="url(#paint0_linear_1733_121343)"/>
</g>
<defs>
<linearGradient id="paint0_linear_1733_121343" x1="12.3751" y1="11.2057" x2="12.3751" y2="2.84888" gradientUnits="userSpaceOnUse">
<stop offset="0.00125" stop-color="white"/>
<stop offset="1" stop-color="#FDFFFC"/>
</linearGradient>
<clipPath id="clip0_1733_121343">
<rect width="24" height="24" fill="white" transform="translate(0.375)"/>
</clipPath>
</defs>
</svg>
