<svg width="25" height="24" viewBox="0 0 25 24" fill="none" xmlns="http://www.w3.org/2000/svg">
<g clip-path="url(#clip0_1797_317922)">
<path d="M7.34585 22.3877L12.375 20.3824V16.1985H5.23608V20.9576C5.23608 22.0461 6.3348 22.7908 7.34585 22.3877Z" fill="url(#paint0_linear_1797_317922)"/>
<path d="M17.4041 22.3877L12.375 20.3824V16.1985H19.5139V20.9576C19.5139 22.0461 18.4152 22.7908 17.4041 22.3877Z" fill="url(#paint1_linear_1797_317922)"/>
<path d="M23.0079 2.27707L12.3749 5.91511L1.74193 2.27707C1.24488 2.10701 0.725719 2.46855 0.712836 2.99373L0.375236 16.7555C0.366842 17.0976 0.583129 17.405 0.907995 17.5127L11.481 21.0164C11.5306 21.0329 11.6306 21.0615 11.6306 21.0615L12.3749 20.5008L13.1193 21.0615L23.3116 16.9824C23.6364 16.8747 23.8527 16.5673 23.8443 16.2252L24.1958 9.46799L24.037 2.99373C24.0241 2.46855 23.5049 2.10701 23.0079 2.27707Z" fill="url(#paint2_linear_1797_317922)"/>
<path d="M24.1959 9.46802L12.6963 17.0327L13.1194 16.8926V21.0615C13.1195 21.0615 13.2194 21.0329 13.2689 21.0165L23.8419 17.5127C24.1668 17.405 24.3831 17.0976 24.3747 16.7555L24.1959 9.46802Z" fill="url(#paint3_linear_1797_317922)"/>
<path d="M12.959 16.8926L13.1193 17.8892V21.0616C12.6318 21.1937 12.1182 21.1937 11.6306 21.0616V17.8892L11.7909 16.8926L12.1507 17.0648C12.2964 17.1133 12.4536 17.1133 12.5992 17.0648L12.959 16.8926Z" fill="url(#paint4_linear_1797_317922)"/>
<path d="M20.9047 15.839L13.1194 17.8891L12.375 16.9376V4.99894L13.1194 3.93056L20.317 1.54536C20.865 1.36375 21.4322 1.76475 21.4438 2.34196L21.6935 14.7941C21.7033 15.2827 21.3773 15.7145 20.9047 15.839Z" fill="url(#paint5_linear_1797_317922)"/>
<path d="M3.84539 15.839L11.6307 17.8891L12.3751 16.9376V4.99894L11.6307 3.93056L4.4331 1.54536C3.88508 1.36375 3.31785 1.76475 3.30628 2.34196L3.05661 14.7941C3.04681 15.2827 3.37279 15.7145 3.84539 15.839Z" fill="url(#paint6_linear_1797_317922)"/>
<path d="M13.1193 3.93042V17.889L12.7365 17.9899C12.4995 18.0524 12.2504 18.0524 12.0135 17.9899L11.6306 17.889V3.93042L12.1508 4.10287C12.2963 4.15113 12.4536 4.15113 12.5992 4.10287L13.1193 3.93042Z" fill="url(#paint7_linear_1797_317922)"/>
</g>
<defs>
<linearGradient id="paint0_linear_1797_317922" x1="8.80551" y1="23.8273" x2="8.80551" y2="17.5117" gradientUnits="userSpaceOnUse">
<stop stop-color="#9D40F3"/>
<stop offset="0.99875" stop-color="#EAA6F1"/>
</linearGradient>
<linearGradient id="paint1_linear_1797_317922" x1="8.80553" y1="23.8273" x2="8.80553" y2="17.5117" gradientUnits="userSpaceOnUse">
<stop stop-color="#9D40F3"/>
<stop offset="0.99875" stop-color="#EAA6F1"/>
</linearGradient>
<linearGradient id="paint2_linear_1797_317922" x1="12.2854" y1="22.3016" x2="12.2854" y2="16.3624" gradientUnits="userSpaceOnUse">
<stop offset="0.00125" stop-color="#6B17F3"/>
<stop offset="1" stop-color="#8D47E7"/>
</linearGradient>
<linearGradient id="paint3_linear_1797_317922" x1="18.5356" y1="6.09893" x2="18.5356" y2="17.9837" gradientUnits="userSpaceOnUse">
<stop offset="0.00125" stop-color="#6B17F3"/>
<stop offset="1" stop-color="#8D47E7"/>
</linearGradient>
<linearGradient id="paint4_linear_1797_317922" x1="12.375" y1="23.1682" x2="12.375" y2="15.238" gradientUnits="userSpaceOnUse">
<stop stop-color="#9D40F3"/>
<stop offset="0.99875" stop-color="#EAA6F1"/>
</linearGradient>
<linearGradient id="paint5_linear_1797_317922" x1="9.63107" y1="9.69517" x2="20.1" y2="9.69517" gradientUnits="userSpaceOnUse">
<stop offset="0.00125" stop-color="#D58DF9"/>
<stop offset="0.99875" stop-color="#F8C0FF"/>
</linearGradient>
<linearGradient id="paint6_linear_1797_317922" x1="15.119" y1="9.69517" x2="4.65011" y2="9.69517" gradientUnits="userSpaceOnUse">
<stop offset="0.00125" stop-color="#D58DF9"/>
<stop offset="0.99875" stop-color="#F8C0FF"/>
</linearGradient>
<linearGradient id="paint7_linear_1797_317922" x1="12.375" y1="11.2057" x2="12.375" y2="2.84888" gradientUnits="userSpaceOnUse">
<stop offset="0.00125" stop-color="white"/>
<stop offset="1" stop-color="#FDFFFC"/>
</linearGradient>
<clipPath id="clip0_1797_317922">
<rect width="24" height="24" fill="white" transform="translate(0.375)"/>
</clipPath>
</defs>
</svg>
