<svg width="25" height="24" viewBox="0 0 25 24" fill="none" xmlns="http://www.w3.org/2000/svg">
<path d="M15.875 6.37497C15.2923 6.37502 14.7115 6.44266 14.1444 6.57653C13.9757 6.33006 13.7876 6.09745 13.5819 5.88091L14.2916 4.86653C14.4628 4.62212 14.5298 4.31971 14.4781 4.02584C14.4263 3.73196 14.2599 3.47069 14.0155 3.2995C13.7711 3.12831 13.4686 3.06123 13.1748 3.113C12.8809 3.16478 12.6196 3.33118 12.4484 3.57559L11.7378 4.59372C11.0787 4.3051 10.3702 4.14596 9.65094 4.12497L9.43531 2.90622C9.37831 2.61735 9.21032 2.36234 8.96742 2.19593C8.72452 2.02952 8.42605 1.96498 8.13609 2.01615C7.84613 2.06732 7.58779 2.23012 7.41652 2.46962C7.24524 2.70912 7.17469 3.00622 7.22 3.29716L7.43563 4.51591C6.7671 4.78158 6.15574 5.17303 5.63469 5.66903L4.61656 4.95559C4.37215 4.78441 4.06974 4.71732 3.77587 4.7691C3.48199 4.82088 3.22072 4.98727 3.04953 5.23169C2.87834 5.4761 2.81126 5.77851 2.86304 6.07238C2.91481 6.36626 3.08121 6.62753 3.32563 6.79872L4.34375 7.51028C4.05436 8.16883 3.89518 8.87717 3.875 9.59622L2.65625 9.81184C2.37898 9.86042 2.12999 10.0112 1.95843 10.2344C1.78688 10.4575 1.70523 10.7369 1.7296 11.0174C1.75397 11.2978 1.88259 11.5589 2.09007 11.7492C2.29755 11.9394 2.56882 12.045 2.85031 12.045C2.91629 12.0449 2.98215 12.0392 3.04719 12.0281L4.26594 11.8125C4.35797 12.0461 4.46571 12.2731 4.58844 12.4922C3.8767 13.2347 3.39877 14.17 3.21399 15.1818C3.02921 16.1937 3.14573 17.2375 3.54907 18.1837C3.95241 19.1299 4.62481 19.9368 5.48276 20.5041C6.34072 21.0714 7.34643 21.3743 8.375 21.375H15.875C17.8641 21.375 19.7718 20.5848 21.1783 19.1783C22.5848 17.7717 23.375 15.8641 23.375 13.875C23.375 11.8858 22.5848 9.97819 21.1783 8.57167C19.7718 7.16515 17.8641 6.37497 15.875 6.37497ZM9.5 6.37497C9.96608 6.37534 10.427 6.47225 10.8538 6.65958C11.2806 6.8469 11.6639 7.1206 11.9797 7.46341C10.6451 8.27282 9.59491 9.47669 8.97406 10.9087C8.77517 10.8862 8.57517 10.8749 8.375 10.875C7.72287 10.8749 7.07647 10.9967 6.46906 11.234C6.21716 10.7195 6.10036 10.1493 6.12969 9.5772C6.15902 9.00507 6.33349 8.44983 6.63669 7.96376C6.93989 7.47769 7.36182 7.07679 7.86275 6.79884C8.36368 6.52088 8.92712 6.37501 9.5 6.37497ZM15.875 19.125H8.375C7.57935 19.125 6.81629 18.8089 6.25368 18.2463C5.69107 17.6837 5.375 16.9206 5.375 16.125C5.375 15.3293 5.69107 14.5663 6.25368 14.0036C6.81629 13.441 7.57935 13.125 8.375 13.125H8.40125C8.39094 13.2281 8.3825 13.3312 8.37688 13.4343C8.35947 13.7327 8.46131 14.0258 8.65998 14.2491C8.85865 14.4723 9.13788 14.6076 9.43625 14.625C9.73462 14.6424 10.0277 14.5405 10.251 14.3419C10.4743 14.1432 10.6095 13.864 10.6269 13.5656C10.6467 13.2173 10.7014 12.8718 10.79 12.5343L10.8041 12.4828C11.0625 11.5378 11.58 10.6838 12.2981 10.0173C13.0162 9.35082 13.9062 8.89829 14.8678 8.71083C15.8295 8.52336 16.8243 8.60842 17.7402 8.9564C18.656 9.30438 19.4564 9.90142 20.0509 10.6801C20.6454 11.4589 21.0104 12.3883 21.1047 13.3634C21.199 14.3386 21.0189 15.3207 20.5846 16.1989C20.1503 17.0772 19.4792 17.8165 18.647 18.3335C17.8149 18.8506 16.8547 19.1247 15.875 19.125Z" fill="white"/>
</svg>
