<svg width="26" height="26" viewBox="0 0 26 26" fill="none" xmlns="http://www.w3.org/2000/svg">
<g id="snackbar-default/Bell-fill">
<path id="Vector" d="M22.5265 17.8689C21.9629 16.898 21.125 14.1507 21.125 10.5625C21.125 8.40762 20.269 6.34099 18.7452 4.81726C17.2215 3.29352 15.1549 2.4375 13 2.4375C10.8451 2.4375 8.77847 3.29352 7.25474 4.81726C5.73101 6.34099 4.87498 8.40762 4.87498 10.5625C4.87498 14.1517 4.03608 16.898 3.4724 17.8689C3.32846 18.1157 3.25215 18.3962 3.25117 18.6819C3.25019 18.9677 3.32457 19.2486 3.46682 19.4964C3.60906 19.7443 3.81414 19.9502 4.06137 20.0935C4.3086 20.2367 4.58924 20.3123 4.87498 20.3125H9.01975C9.2072 21.2298 9.70573 22.0541 10.431 22.6462C11.1563 23.2382 12.0638 23.5616 13 23.5616C13.9362 23.5616 14.8437 23.2382 15.569 22.6462C16.2942 22.0541 16.7928 21.2298 16.9802 20.3125H21.125C21.4106 20.3121 21.6912 20.2364 21.9382 20.0931C22.1853 19.9497 22.3903 19.7438 22.5324 19.496C22.6745 19.2482 22.7488 18.9673 22.7478 18.6817C22.7468 18.396 22.6704 18.1157 22.5265 17.8689ZM13 21.9375C12.496 21.9373 12.0046 21.781 11.5931 21.49C11.1817 21.199 10.8706 20.7876 10.7026 20.3125H15.2973C15.1293 20.7876 14.8182 21.199 14.4068 21.49C13.9954 21.781 13.5039 21.9373 13 21.9375Z" fill="#FAFAFA"/>
</g>
</svg>
