<svg width="23" height="24" viewBox="0 0 23 24" fill="none" xmlns="http://www.w3.org/2000/svg">
<path d="M10.375 3.375V1.875C10.375 1.57663 10.4935 1.29048 10.7045 1.0795C10.9155 0.868526 11.2016 0.75 11.5 0.75C11.7984 0.75 12.0845 0.868526 12.2955 1.0795C12.5065 1.29048 12.625 1.57663 12.625 1.875V3.375C12.625 3.67337 12.5065 3.95952 12.2955 4.1705C12.0845 4.38147 11.7984 4.5 11.5 4.5C11.2016 4.5 10.9155 4.38147 10.7045 4.1705C10.4935 3.95952 10.375 3.67337 10.375 3.375ZM17.875 12C17.875 13.2609 17.5011 14.4934 16.8006 15.5418C16.1001 16.5901 15.1045 17.4072 13.9396 17.8897C12.7747 18.3722 11.4929 18.4985 10.2563 18.2525C9.01967 18.0065 7.88375 17.3994 6.99219 16.5078C6.10063 15.6162 5.49347 14.4803 5.24749 13.2437C5.00151 12.0071 5.12776 10.7253 5.61027 9.56039C6.09278 8.39551 6.90988 7.39988 7.95824 6.69938C9.0066 5.99889 10.2391 5.625 11.5 5.625C13.1902 5.62674 14.8107 6.29894 16.0059 7.49411C17.2011 8.68928 17.8733 10.3098 17.875 12ZM15.625 12C15.625 11.1842 15.3831 10.3866 14.9298 9.70827C14.4766 9.02992 13.8323 8.50121 13.0786 8.189C12.3248 7.87679 11.4954 7.7951 10.6953 7.95426C9.89508 8.11343 9.16008 8.50629 8.58318 9.08318C8.00629 9.66008 7.61343 10.3951 7.45426 11.1953C7.2951 11.9954 7.37679 12.8248 7.689 13.5786C8.00121 14.3323 8.52992 14.9766 9.20827 15.4298C9.88663 15.8831 10.6842 16.125 11.5 16.125C12.5936 16.1238 13.6421 15.6888 14.4154 14.9154C15.1888 14.1421 15.6238 13.0936 15.625 12ZM4.32906 6.42094C4.43371 6.52558 4.55794 6.6086 4.69467 6.66523C4.8314 6.72186 4.97794 6.75101 5.12594 6.75101C5.27393 6.75101 5.42048 6.72186 5.5572 6.66523C5.69393 6.6086 5.81817 6.52558 5.92281 6.42094C6.02746 6.31629 6.11047 6.19206 6.1671 6.05533C6.22374 5.9186 6.25289 5.77206 6.25289 5.62406C6.25289 5.47607 6.22374 5.32952 6.1671 5.1928C6.11047 5.05607 6.02746 4.93183 5.92281 4.82719L4.79781 3.70219C4.58647 3.49084 4.29982 3.37211 4.00094 3.37211C3.70205 3.37211 3.41541 3.49084 3.20406 3.70219C2.99272 3.91353 2.87399 4.20018 2.87399 4.49906C2.87399 4.79795 2.99272 5.08459 3.20406 5.29594L4.32906 6.42094ZM4.32906 17.5772L3.20406 18.7022C3.09942 18.8068 3.0164 18.9311 2.95977 19.0678C2.90314 19.2045 2.87399 19.3511 2.87399 19.4991C2.87399 19.6471 2.90314 19.7936 2.95977 19.9303C3.0164 20.0671 3.09942 20.1913 3.20406 20.2959C3.41541 20.5073 3.70205 20.626 4.00094 20.626C4.14893 20.626 4.29548 20.5969 4.4322 20.5402C4.56893 20.4836 4.69317 20.4006 4.79781 20.2959L5.92281 19.1709C6.13416 18.9596 6.25289 18.6729 6.25289 18.3741C6.25289 18.0752 6.13416 17.7885 5.92281 17.5772C5.71147 17.3658 5.42482 17.2471 5.12594 17.2471C4.82705 17.2471 4.54041 17.3658 4.32906 17.5772ZM17.875 6.75C18.0228 6.75012 18.1691 6.72112 18.3057 6.66465C18.4423 6.60819 18.5664 6.52538 18.6709 6.42094L19.7959 5.29594C19.9006 5.19129 19.9836 5.06706 20.0402 4.93033C20.0969 4.7936 20.126 4.64706 20.126 4.49906C20.126 4.35107 20.0969 4.20452 20.0402 4.0678C19.9836 3.93107 19.9006 3.80683 19.7959 3.70219C19.6913 3.59754 19.5671 3.51453 19.4303 3.4579C19.2936 3.40126 19.1471 3.37211 18.9991 3.37211C18.8511 3.37211 18.7045 3.40126 18.5678 3.4579C18.4311 3.51453 18.3068 3.59754 18.2022 3.70219L17.0772 4.82719C16.9189 4.98454 16.811 5.18541 16.7672 5.40425C16.7234 5.62309 16.7457 5.85001 16.8312 6.05615C16.9168 6.2623 17.0617 6.43834 17.2475 6.56189C17.4334 6.68544 17.6518 6.75092 17.875 6.75ZM18.6709 17.5791C18.4596 17.3677 18.1729 17.249 17.8741 17.249C17.5752 17.249 17.2885 17.3677 17.0772 17.5791C16.8658 17.7904 16.7471 18.0771 16.7471 18.3759C16.7471 18.6748 16.8658 18.9615 17.0772 19.1728L18.2022 20.2978C18.4135 20.5092 18.7002 20.6279 18.9991 20.6279C19.2979 20.6279 19.5846 20.5092 19.7959 20.2978C20.0073 20.0865 20.126 19.7998 20.126 19.5009C20.126 19.2021 20.0073 18.9154 19.7959 18.7041L18.6709 17.5791ZM4 12C4 11.7016 3.88147 11.4155 3.6705 11.2045C3.45952 10.9935 3.17337 10.875 2.875 10.875H1.375C1.07663 10.875 0.790483 10.9935 0.579505 11.2045C0.368526 11.4155 0.25 11.7016 0.25 12C0.25 12.2984 0.368526 12.5845 0.579505 12.7955C0.790483 13.0065 1.07663 13.125 1.375 13.125H2.875C3.17337 13.125 3.45952 13.0065 3.6705 12.7955C3.88147 12.5845 4 12.2984 4 12ZM11.5 19.5C11.2016 19.5 10.9155 19.6185 10.7045 19.8295C10.4935 20.0405 10.375 20.3266 10.375 20.625V22.125C10.375 22.4234 10.4935 22.7095 10.7045 22.9205C10.9155 23.1315 11.2016 23.25 11.5 23.25C11.7984 23.25 12.0845 23.1315 12.2955 22.9205C12.5065 22.7095 12.625 22.4234 12.625 22.125V20.625C12.625 20.3266 12.5065 20.0405 12.2955 19.8295C12.0845 19.6185 11.7984 19.5 11.5 19.5ZM21.625 10.875H20.125C19.8266 10.875 19.5405 10.9935 19.3295 11.2045C19.1185 11.4155 19 11.7016 19 12C19 12.2984 19.1185 12.5845 19.3295 12.7955C19.5405 13.0065 19.8266 13.125 20.125 13.125H21.625C21.9234 13.125 22.2095 13.0065 22.4205 12.7955C22.6315 12.5845 22.75 12.2984 22.75 12C22.75 11.7016 22.6315 11.4155 22.4205 11.2045C22.2095 10.9935 21.9234 10.875 21.625 10.875Z" fill="white"/>
</svg>
