<svg width="12" height="7" viewBox="0 0 12 7" fill="none" xmlns="http://www.w3.org/2000/svg">
<path d="M10.8393 1.71433L6.46427 6.08933C6.40331 6.15051 6.33086 6.19905 6.25109 6.23218C6.17132 6.2653 6.0858 6.28235 5.99943 6.28235C5.91306 6.28235 5.82754 6.2653 5.74777 6.23218C5.668 6.19905 5.59555 6.15051 5.53459 6.08933L1.15959 1.71433C1.0363 1.59105 0.967041 1.42384 0.967041 1.24949C0.967041 1.07514 1.0363 0.907928 1.15959 0.784644C1.28287 0.66136 1.45008 0.5921 1.62443 0.5921C1.79878 0.5921 1.96599 0.66136 2.08927 0.784644L5.99998 4.69535L9.91068 0.784098C10.034 0.660813 10.2012 0.591553 10.3755 0.591553C10.5499 0.591553 10.7171 0.660813 10.8404 0.784098C10.9637 0.907382 11.0329 1.07459 11.0329 1.24894C11.0329 1.42329 10.9637 1.5905 10.8404 1.71379L10.8393 1.71433Z" fill="white"/>
</svg>
