<svg width="15" height="16" viewBox="0 0 15 16" fill="none" xmlns="http://www.w3.org/2000/svg">
<path d="M7.5 0.6875C6.05373 0.6875 4.63993 1.11637 3.4374 1.91988C2.23486 2.72339 1.2976 3.86544 0.744134 5.20163C0.190668 6.53781 0.0458565 8.00811 0.328011 9.4266C0.610165 10.8451 1.30661 12.148 2.32928 13.1707C3.35196 14.1934 4.65492 14.8898 6.07341 15.172C7.49189 15.4541 8.96219 15.3093 10.2984 14.7559C11.6346 14.2024 12.7766 13.2651 13.5801 12.0626C14.3836 10.8601 14.8125 9.44628 14.8125 8C14.8105 6.06123 14.0394 4.20246 12.6685 2.83154C11.2975 1.46063 9.43877 0.689547 7.5 0.6875ZM9.58547 8.39797L6.77297 11.2105C6.72071 11.2627 6.65867 11.3042 6.59038 11.3325C6.5221 11.3608 6.44891 11.3753 6.375 11.3753C6.30109 11.3753 6.22791 11.3608 6.15962 11.3325C6.09134 11.3042 6.0293 11.2627 5.97703 11.2105C5.92477 11.1582 5.88332 11.0962 5.85503 11.0279C5.82675 10.9596 5.81219 10.8864 5.81219 10.8125C5.81219 10.7386 5.82675 10.6654 5.85503 10.5971C5.88332 10.5288 5.92477 10.4668 5.97703 10.4145L8.39227 8L5.97703 5.58547C5.87149 5.47992 5.81219 5.33677 5.81219 5.1875C5.81219 5.03823 5.87149 4.89508 5.97703 4.78953C6.08258 4.68398 6.22574 4.62469 6.375 4.62469C6.52427 4.62469 6.66742 4.68398 6.77297 4.78953L9.58547 7.60203C9.63777 7.65427 9.67926 7.71631 9.70757 7.7846C9.73588 7.85288 9.75045 7.92608 9.75045 8C9.75045 8.07392 9.73588 8.14712 9.70757 8.2154C9.67926 8.28369 9.63777 8.34573 9.58547 8.39797Z" fill="#8A57DC"/>
</svg>
