<svg width="25" height="24" viewBox="0 0 25 24" fill="none" xmlns="http://www.w3.org/2000/svg">
<g clip-path="url(#clip0_1673_471)">
<path d="M16.625 6.37499C16.4694 6.37499 16.3147 6.38061 16.1609 6.38999C15.9406 4.98582 15.305 3.67975 14.3359 2.63999C13.3668 1.60023 12.1086 0.87438 10.7234 0.555924C10.5377 0.51349 10.3443 0.518893 10.1613 0.571628C9.97829 0.624363 9.81165 0.722703 9.67702 0.857431C9.54239 0.992158 9.44416 1.15886 9.39156 1.34192C9.33895 1.52498 9.33368 1.7184 9.37624 1.90405C9.56111 2.70976 9.53826 3.54923 9.30983 4.34369C9.08141 5.13815 8.6549 5.86157 8.07032 6.44605C7.48575 7.03053 6.76227 7.45692 5.96777 7.68522C5.17327 7.91352 4.3338 7.93623 3.52812 7.75124C3.34234 7.70874 3.14882 7.71413 2.9657 7.76691C2.78258 7.81969 2.61587 7.91812 2.4812 8.05297C2.34654 8.18782 2.24834 8.35466 2.19582 8.53786C2.1433 8.72105 2.13817 8.91458 2.18093 9.1003C2.55898 10.7139 3.48341 12.1471 4.79749 13.1569C4.25716 13.9452 3.94228 14.8661 3.88679 15.8202C3.8313 16.7743 4.03732 17.7255 4.48262 18.5711C4.92792 19.4168 5.59562 20.1248 6.41371 20.6189C7.23181 21.113 8.16926 21.3745 9.12499 21.375H16.625C18.6141 21.375 20.5218 20.5848 21.9283 19.1783C23.3348 17.7718 24.125 15.8641 24.125 13.875C24.125 11.8859 23.3348 9.97821 21.9283 8.57169C20.5218 7.16516 18.6141 6.37499 16.625 6.37499ZM11.7397 3.37499C12.3439 3.75607 12.8563 4.26613 13.2401 4.86861C13.6239 5.47108 13.8697 6.15102 13.9597 6.85967C13.0194 7.21717 12.1603 7.75927 11.4328 8.45404C10.7054 9.1488 10.1244 9.98215 9.72405 10.905C9.52509 10.8837 9.32509 10.8737 9.12499 10.875C8.19458 10.8743 7.28087 11.1222 6.47843 11.5931C5.89052 11.21 5.391 10.706 5.01312 10.1147C6.76743 10.0166 8.42386 9.27463 9.66508 8.031C10.9063 6.78736 11.645 5.12949 11.7397 3.37499ZM16.625 19.125H9.12499C8.32934 19.125 7.56628 18.8089 7.00367 18.2463C6.44106 17.6837 6.12499 16.9206 6.12499 16.125C6.12499 15.3293 6.44106 14.5663 7.00367 14.0037C7.56628 13.4411 8.32934 13.125 9.12499 13.125H9.15124C9.14093 13.2281 9.13249 13.3312 9.12687 13.4344C9.10946 13.7327 9.2113 14.0258 9.40997 14.2491C9.60864 14.4724 9.88787 14.6076 10.1862 14.625C10.4846 14.6424 10.7777 14.5406 11.001 14.3419C11.2242 14.1432 11.3595 13.864 11.3769 13.5656C11.3967 13.2173 11.4514 12.8718 11.54 12.5344L11.5541 12.4828C11.8125 11.5378 12.33 10.6838 13.0481 10.0173C13.7661 9.35083 14.6562 8.89831 15.6178 8.71085C16.5795 8.52338 17.5743 8.60844 18.4902 8.95642C19.406 9.30439 20.2064 9.90144 20.8009 10.6802C21.3954 11.4589 21.7604 12.3883 21.8547 13.3634C21.949 14.3386 21.7689 15.3207 21.3346 16.199C20.9003 17.0772 20.2292 17.8165 19.397 18.3335C18.5649 18.8506 17.6047 19.1247 16.625 19.125Z" fill="white"/>
</g>
<defs>
<clipPath id="clip0_1673_471">
<rect width="24" height="24" fill="white" transform="translate(0.5)"/>
</clipPath>
</defs>
</svg>
