<svg width="25" height="24" viewBox="0 0 25 24" fill="none" xmlns="http://www.w3.org/2000/svg">
<path d="M23.1197 11.5601V22.12C23.1197 22.3534 23.027 22.5772 22.862 22.7423C22.697 22.9073 22.4731 23 22.2398 23H2.88C2.64661 23 2.42278 22.9073 2.25775 22.7423C2.09272 22.5772 2.00001 22.3534 2.00001 22.12V11.5601C1.99919 11.3288 2.04437 11.0995 2.13294 10.8858C2.2215 10.672 2.35168 10.478 2.5159 10.315L11.3158 1.51508C11.6458 1.18527 12.0933 1 12.5599 1C13.0265 1 13.4739 1.18527 13.804 1.51508L22.6038 10.315C22.7681 10.478 22.8983 10.672 22.9868 10.8858C23.0754 11.0995 23.1206 11.3288 23.1197 11.5601Z" fill="url(#paint0_linear_1737_112013)"/>
<path d="M9.2285 18.1408H16.5388C17.0592 18.1408 17.4816 17.7184 17.4816 17.198C17.4816 16.6775 17.0592 16.2551 16.5388 16.2551H9.2285C8.70804 16.2551 8.28564 16.6775 8.28564 17.198C8.28564 17.7184 8.70804 18.1408 9.2285 18.1408Z" fill="url(#paint1_linear_1737_112013)"/>
<defs>
<linearGradient id="paint0_linear_1737_112013" x1="12.5599" y1="24.4492" x2="12.5599" y2="17.5089" gradientUnits="userSpaceOnUse">
<stop offset="0.00125" stop-color="#6B17F3"/>
<stop offset="1" stop-color="#8D47E7"/>
</linearGradient>
<linearGradient id="paint1_linear_1737_112013" x1="12.8836" y1="20.4658" x2="12.8836" y2="15.1327" gradientUnits="userSpaceOnUse">
<stop offset="0.00125" stop-color="#D58DF9"/>
<stop offset="0.99875" stop-color="#F8C0FF"/>
</linearGradient>
</defs>
</svg>
