<svg width="22" height="22" viewBox="0 0 22 22" fill="none" xmlns="http://www.w3.org/2000/svg">
<path d="M21.1197 10.5601V21.12C21.1197 21.3534 21.027 21.5772 20.862 21.7423C20.697 21.9073 20.4731 22 20.2398 22H0.88C0.646612 22 0.422784 21.9073 0.257754 21.7423C0.0927241 21.5772 1.10587e-05 21.3534 1.10587e-05 21.12V10.5601C-0.000812512 10.3288 0.0443719 10.0995 0.132937 9.88576C0.221503 9.67199 0.351681 9.47797 0.515904 9.31496L9.31579 0.515078C9.64582 0.185267 10.0933 0 10.5599 0C11.0265 0 11.4739 0.185267 11.804 0.515078L20.6038 9.31496C20.7681 9.47797 20.8983 9.67199 20.9868 9.88576C21.0754 10.0995 21.1206 10.3288 21.1197 10.5601Z" fill="#D4D4D4"/>
</svg>
