<svg width="21" height="21" viewBox="0 0 21 21" fill="none" xmlns="http://www.w3.org/2000/svg">
<path d="M20.875 8C20.875 8.29837 20.7565 8.58452 20.5455 8.79549C20.3345 9.00647 20.0484 9.125 19.75 9.125H18.625V10.25C18.625 10.5484 18.5065 10.8345 18.2955 11.0455C18.0845 11.2565 17.7984 11.375 17.5 11.375C17.2016 11.375 16.9155 11.2565 16.7045 11.0455C16.4935 10.8345 16.375 10.5484 16.375 10.25V9.125H15.25C14.9516 9.125 14.6655 9.00647 14.4545 8.79549C14.2435 8.58452 14.125 8.29837 14.125 8C14.125 7.70163 14.2435 7.41548 14.4545 7.2045C14.6655 6.99353 14.9516 6.875 15.25 6.875H16.375V5.75C16.375 5.45163 16.4935 5.16548 16.7045 4.9545C16.9155 4.74353 17.2016 4.625 17.5 4.625C17.7984 4.625 18.0845 4.74353 18.2955 4.9545C18.5065 5.16548 18.625 5.45163 18.625 5.75V6.875H19.75C20.0484 6.875 20.3345 6.99353 20.5455 7.2045C20.7565 7.41548 20.875 7.70163 20.875 8ZM11.5 4.625H11.875V5C11.875 5.29837 11.9935 5.58452 12.2045 5.7955C12.4155 6.00647 12.7016 6.125 13 6.125C13.2984 6.125 13.5845 6.00647 13.7955 5.7955C14.0065 5.58452 14.125 5.29837 14.125 5V4.625H14.5C14.7984 4.625 15.0845 4.50647 15.2955 4.2955C15.5065 4.08452 15.625 3.79837 15.625 3.5C15.625 3.20163 15.5065 2.91548 15.2955 2.7045C15.0845 2.49353 14.7984 2.375 14.5 2.375H14.125V2C14.125 1.70163 14.0065 1.41548 13.7955 1.2045C13.5845 0.993526 13.2984 0.875 13 0.875C12.7016 0.875 12.4155 0.993526 12.2045 1.2045C11.9935 1.41548 11.875 1.70163 11.875 2V2.375H11.5C11.2016 2.375 10.9155 2.49353 10.7045 2.7045C10.4935 2.91548 10.375 3.20163 10.375 3.5C10.375 3.79837 10.4935 4.08452 10.7045 4.2955C10.9155 4.50647 11.2016 4.625 11.5 4.625ZM18.6072 13.0981C18.7375 13.2494 18.8252 13.4327 18.8613 13.6291C18.8974 13.8254 18.8805 14.0279 18.8125 14.2156C18.2708 15.6941 17.3653 17.0124 16.1798 18.0487C14.9942 19.085 13.5667 19.806 12.0291 20.1451C10.4914 20.4843 8.89306 20.4307 7.38157 19.9892C5.87008 19.5478 4.49413 18.7327 3.3807 17.6193C2.26727 16.5059 1.45222 15.1299 1.01078 13.6184C0.569333 12.1069 0.515714 10.5086 0.854867 8.97093C1.19402 7.43326 1.91502 6.00578 2.95133 4.82023C3.98764 3.63468 5.30587 2.72925 6.78438 2.1875C6.97183 2.11901 7.17414 2.10162 7.37053 2.13711C7.56693 2.17261 7.75035 2.25971 7.90197 2.38948C8.0536 2.51926 8.16797 2.68703 8.23336 2.87559C8.29875 3.06415 8.31279 3.26672 8.27406 3.4625C8.17477 3.96897 8.12485 4.48389 8.125 5C8.12724 7.08789 8.95764 9.08963 10.434 10.566C11.9104 12.0424 13.9121 12.8728 16 12.875C16.5152 12.8749 17.0291 12.825 17.5347 12.7259C17.7304 12.6873 17.9329 12.7014 18.1213 12.7668C18.3098 12.8322 18.4775 12.9466 18.6072 13.0981ZM15.8125 15.125C13.1929 15.0739 10.6949 14.0105 8.84219 12.1578C6.98951 10.3051 5.92612 7.80708 5.875 5.1875C5.03187 5.78846 4.32984 6.56595 3.81779 7.46586C3.30574 8.36576 2.99598 9.36645 2.91006 10.3983C2.82414 11.4301 2.96413 12.4682 3.32029 13.4404C3.67645 14.4126 4.24022 15.2955 4.97235 16.0277C5.70448 16.7598 6.58737 17.3235 7.55957 17.6797C8.53177 18.0359 9.56992 18.1759 10.6017 18.0899C11.6335 18.004 12.6342 17.6943 13.5341 17.1822C14.4341 16.6702 15.2115 15.9681 15.8125 15.125Z" fill="white"/>
</svg>
