<svg width="25" height="24" viewBox="0 0 25 24" fill="none" xmlns="http://www.w3.org/2000/svg">
<g clip-path="url(#clip0_1737_113014)">
<path d="M23.1 13.875H19.7147C19.7212 13.7503 19.725 13.6256 19.725 13.5C19.725 11.6103 18.9743 9.79807 17.6381 8.46187C16.3019 7.12567 14.4896 6.375 12.6 6.375C10.7103 6.375 8.89804 7.12567 7.56184 8.46187C6.22564 9.79807 5.47498 11.6103 5.47498 13.5C5.47498 13.6256 5.47498 13.7503 5.48529 13.875H2.09998C1.80161 13.875 1.51546 13.9935 1.30448 14.2045C1.0935 14.4155 0.974976 14.7016 0.974976 15C0.974976 15.2984 1.0935 15.5845 1.30448 15.7955C1.51546 16.0065 1.80161 16.125 2.09998 16.125H23.1C23.3983 16.125 23.6845 16.0065 23.8955 15.7955C24.1064 15.5845 24.225 15.2984 24.225 15C24.225 14.7016 24.1064 14.4155 23.8955 14.2045C23.6845 13.9935 23.3983 13.875 23.1 13.875ZM7.72498 13.5C7.72498 12.2071 8.23859 10.9671 9.15283 10.0529C10.0671 9.13862 11.307 8.625 12.6 8.625C13.8929 8.625 15.1329 9.13862 16.0471 10.0529C16.9614 10.9671 17.475 12.2071 17.475 13.5C17.475 13.6256 17.4684 13.7503 17.459 13.875H7.74091C7.73154 13.7503 7.72498 13.6256 7.72498 13.5ZM21.225 18.75C21.225 19.0484 21.1064 19.3345 20.8955 19.5455C20.6845 19.7565 20.3983 19.875 20.1 19.875H5.09998C4.80161 19.875 4.51546 19.7565 4.30448 19.5455C4.0935 19.3345 3.97498 19.0484 3.97498 18.75C3.97498 18.4516 4.0935 18.1655 4.30448 17.9545C4.51546 17.7435 4.80161 17.625 5.09998 17.625H20.1C20.3983 17.625 20.6845 17.7435 20.8955 17.9545C21.1064 18.1655 21.225 18.4516 21.225 18.75ZM1.7831 8.64469C1.87745 8.36182 2.08025 8.12798 2.34692 7.99455C2.61359 7.86113 2.92233 7.83904 3.20529 7.93313L4.33029 8.30813C4.47197 8.35356 4.60323 8.42664 4.71648 8.52314C4.82972 8.61964 4.9227 8.73765 4.99003 8.87033C5.05736 9.00301 5.0977 9.14773 5.10871 9.29611C5.11973 9.44449 5.1012 9.59358 5.05421 9.73474C5.00722 9.87591 4.93269 10.0064 4.83493 10.1185C4.73718 10.2307 4.61815 10.3224 4.48473 10.3882C4.35132 10.4541 4.20616 10.4928 4.05767 10.5022C3.90918 10.5115 3.7603 10.4914 3.61966 10.4428L2.49466 10.0678C2.35449 10.0211 2.22489 9.94724 2.11327 9.85043C2.00165 9.75363 1.91019 9.63579 1.84411 9.50364C1.77804 9.37149 1.73864 9.22761 1.72817 9.08023C1.7177 8.93285 1.73637 8.78486 1.7831 8.64469ZM7.0331 4.10625C6.98198 3.96507 6.95965 3.81508 6.96741 3.66513C6.97516 3.51518 7.01286 3.3683 7.07828 3.23315C7.14369 3.098 7.2355 2.97731 7.34829 2.87819C7.46108 2.77908 7.59257 2.70355 7.73501 2.65604C7.87745 2.60854 8.02795 2.59004 8.17766 2.60162C8.32736 2.6132 8.47323 2.65462 8.60667 2.72346C8.74011 2.7923 8.85842 2.88716 8.95463 3.00244C9.05084 3.11771 9.123 3.25109 9.16685 3.39469L9.54185 4.51969C9.59297 4.66087 9.6153 4.81086 9.60754 4.96081C9.59979 5.11076 9.56209 5.25764 9.49667 5.39279C9.43126 5.52794 9.33945 5.64864 9.22666 5.74775C9.11387 5.84686 8.98238 5.9224 8.83994 5.9699C8.69751 6.0174 8.547 6.03591 8.39729 6.02433C8.24759 6.01275 8.10172 5.97132 7.96828 5.90248C7.83484 5.83364 7.71653 5.73879 7.62032 5.62351C7.52411 5.50823 7.45195 5.37486 7.4081 5.23125L7.0331 4.10625ZM20.1581 9.73125C20.1114 9.59109 20.0927 9.44309 20.1032 9.29571C20.1136 9.14833 20.153 9.00446 20.2191 8.87231C20.2852 8.74016 20.3766 8.62231 20.4883 8.52551C20.5999 8.42871 20.7295 8.35484 20.8697 8.30813L21.9947 7.93313C22.2767 7.84269 22.5831 7.86714 22.8472 8.00118C23.1114 8.13522 23.312 8.36803 23.4056 8.64908C23.4991 8.93012 23.4781 9.23673 23.347 9.50234C23.2159 9.76796 22.9853 9.97115 22.7053 10.0678L21.5803 10.4428C21.2973 10.5369 20.9886 10.5148 20.7219 10.3814C20.4552 10.248 20.2525 10.0141 20.1581 9.73125ZM15.6581 4.51969L16.0331 3.39469C16.077 3.25109 16.1491 3.11771 16.2453 3.00244C16.3415 2.88716 16.4598 2.7923 16.5933 2.72346C16.7267 2.65462 16.8726 2.6132 17.0223 2.60162C17.172 2.59004 17.3225 2.60854 17.4649 2.65604C17.6074 2.70355 17.7389 2.77908 17.8517 2.87819C17.9645 2.97731 18.0563 3.098 18.1217 3.23315C18.1871 3.3683 18.2248 3.51518 18.2325 3.66513C18.2403 3.81508 18.218 3.96507 18.1669 4.10625L17.7919 5.23125C17.748 5.37486 17.6758 5.50823 17.5796 5.62351C17.4834 5.73879 17.3651 5.83364 17.2317 5.90248C17.0982 5.97132 16.9524 6.01275 16.8027 6.02433C16.653 6.03591 16.5024 6.0174 16.36 5.9699C16.2176 5.9224 16.0861 5.84686 15.9733 5.74775C15.8605 5.64864 15.7687 5.52794 15.7033 5.39279C15.6379 5.25764 15.6002 5.11076 15.5924 4.96081C15.5846 4.81086 15.607 4.66087 15.6581 4.51969Z" fill="white"/>
</g>
<defs>
<clipPath id="clip0_1737_113014">
<rect width="24" height="24" fill="white" transform="translate(0.599976)"/>
</clipPath>
</defs>
</svg>
