<svg width="25" height="24" viewBox="0 0 25 24" fill="none" xmlns="http://www.w3.org/2000/svg">
<g clip-path="url(#clip0_1793_21)">
<path d="M20.7598 19.5085L17.1264 18.6894C17.1264 18.6894 15.7863 18.0997 15.7407 17.5532L14.9537 12.1255H10.0463L9.25926 17.5532C9.21369 18.0997 7.87727 18.6886 7.87727 18.6886L4.24018 19.5085C2.5946 19.8795 1.31497 21.1736 0.96249 22.8232L0.571301 24.654C0.51852 24.901 0.495877 25.1463 0.500612 25.3863C0.506826 25.7014 1.24276 26.0075 2.43456 26.297C7.59901 27.5514 24.4388 27.0951 24.498 25.4366C24.5071 25.1806 24.4852 24.9183 24.4287 24.654L24.0375 22.8232C23.685 21.1736 22.4054 19.8795 20.7598 19.5085Z" fill="url(#paint0_linear_1793_21)"/>
<path d="M12.5 18.9456C7.70617 18.9456 3.40956 21.0738 0.503036 24.4368C0.562366 26.0953 1.92606 27.4931 3.67653 27.4931H21.3235C23.0739 27.4931 24.4376 26.0953 24.497 24.4368C21.5904 21.0738 17.2938 18.9456 12.5 18.9456Z" fill="url(#paint1_linear_1793_21)"/>
<path d="M17.1265 17.6894L12.5 19.4227L7.87726 17.6888L7.94913 17.6725C8.48479 17.5519 8.88168 17.1 8.93168 16.5537L9.57984 9.49463H15.4201L16.0683 16.5537C16.1183 17.1 16.5152 17.5519 17.0509 17.6725L17.1265 17.6894Z" fill="url(#paint2_linear_1793_21)"/>
<path d="M21.4647 22.8567H17.0872C16.8031 22.8567 16.5727 23.087 16.5727 23.3712C16.5727 23.6554 16.8031 23.8857 17.0872 23.8857H21.4647C21.7488 23.8857 21.9792 23.6554 21.9792 23.3712C21.9792 23.087 21.7488 22.8567 21.4647 22.8567Z" fill="url(#paint3_linear_1793_21)"/>
<path d="M5.49182 7.83432L5.63035 8.60954C5.77378 9.41214 6.47185 9.99652 7.28716 9.99652H7.89088C7.87814 9.89904 7.86707 9.80045 7.85876 9.70187L7.61008 6.82076C7.59845 6.6895 7.59236 6.55879 7.59181 6.4292H6.66811C5.92406 6.4292 5.36093 7.10187 5.49182 7.83432Z" fill="url(#paint4_linear_1793_21)"/>
<path d="M19.5082 7.83432L19.3696 8.60954C19.2262 9.41214 18.5281 9.99652 17.7128 9.99652H17.1091C17.1218 9.89904 17.1329 9.80045 17.1412 9.70187L17.3899 6.82076C17.4015 6.6895 17.4076 6.55879 17.4082 6.4292H18.3319C19.0759 6.4292 19.639 7.10187 19.5082 7.83432Z" fill="url(#paint5_linear_1793_21)"/>
<path d="M13.6238 16.7899C12.9158 17.1412 12.0842 17.1412 11.3762 16.7899C8.92865 15.5755 7.29128 13.1728 7.05606 10.4507L6.76406 7.07126C6.4735 3.70856 9.12475 0.818359 12.5 0.818359C15.8752 0.818359 18.5265 3.70856 18.2359 7.07126L17.9439 10.4507C17.7087 13.1728 16.0713 15.5755 13.6238 16.7899Z" fill="url(#paint6_linear_1793_21)"/>
<path d="M7.52446 6.68793H6.58979C6.26081 6.68793 6.00521 6.40145 6.04319 6.07467C6.27652 4.0673 7.53718 0.142586 8.40075 0.0936505C9.45112 0.0341269 10.9455 0 12.5 0C13.676 0 14.8177 0.0195332 15.7587 0.05482C15.8491 0.0582125 16.1502 0.417755 16.5341 0.973866C17.4353 2.2791 17.8872 6.27231 16.386 6.35813C15.0584 6.43402 12.296 6.06565 10.7757 6.11932C8.4359 6.20192 7.52446 6.68793 7.52446 6.68793Z" fill="url(#paint7_linear_1793_21)"/>
<path d="M17.0817 17.0171L17.7434 17.6214C17.9016 17.7659 17.8929 18.0177 17.725 18.1508L14.2862 20.8796C13.9688 21.1315 13.5041 21.0598 13.2773 20.724L12.3214 19.3089L16.3779 16.9422C16.6036 16.8105 16.8887 16.8409 17.0817 17.0171Z" fill="url(#paint8_linear_1793_21)"/>
<path d="M7.91825 17.0171L7.25657 17.6214C7.09835 17.7659 7.10708 18.0177 7.27493 18.1508L10.7137 20.8796C11.0312 21.1315 11.4959 21.0598 11.7227 20.724L12.6786 19.3089L8.62206 16.9422C8.39634 16.8105 8.11122 16.8409 7.91825 17.0171Z" fill="url(#paint9_linear_1793_21)"/>
<path d="M12.5 23.1656C12.8541 23.1656 13.1412 22.8786 13.1412 22.5245C13.1412 22.1704 12.8541 21.8833 12.5 21.8833C12.1459 21.8833 11.8588 22.1704 11.8588 22.5245C11.8588 22.8786 12.1459 23.1656 12.5 23.1656Z" fill="url(#paint10_linear_1793_21)"/>
<path d="M18.4097 6.68774C18.7387 6.68774 18.9942 6.40135 18.9563 6.07461C18.7235 4.06728 17.4628 0.142393 16.5992 0.0934504C16.3436 0.0789913 16.0613 0.0660421 15.7587 0.0546875L7.52446 6.68774H18.4097Z" fill="url(#paint11_linear_1793_21)"/>
</g>
<defs>
<linearGradient id="paint0_linear_1793_21" x1="-6.5669" y1="19.5699" x2="20.3955" y2="19.5699" gradientUnits="userSpaceOnUse">
<stop offset="0.00125" stop-color="#D58DF9"/>
<stop offset="0.99875" stop-color="#F8C0FF"/>
</linearGradient>
<linearGradient id="paint1_linear_1793_21" x1="12.5" y1="38.0318" x2="12.5" y2="13.8579" gradientUnits="userSpaceOnUse">
<stop offset="0.00125" stop-color="#D58DF9"/>
<stop offset="0.99875" stop-color="#F8C0FF"/>
</linearGradient>
<linearGradient id="paint2_linear_1793_21" x1="12.5019" y1="20.7021" x2="12.5019" y2="13.8309" gradientUnits="userSpaceOnUse">
<stop stop-color="#EEBBF8"/>
<stop offset="0.99875" stop-color="#EFE7F6"/>
</linearGradient>
<linearGradient id="paint3_linear_1793_21" x1="14.8438" y1="24.5983" x2="23.0424" y2="22.3284" gradientUnits="userSpaceOnUse">
<stop stop-color="#EEBBF8"/>
<stop offset="0.99875" stop-color="#EFE7F6"/>
</linearGradient>
<linearGradient id="paint4_linear_1793_21" x1="8.3566" y1="8.79959" x2="4.79018" y2="6.93751" gradientUnits="userSpaceOnUse">
<stop offset="0.00125" stop-color="#D58DF9"/>
<stop offset="0.99875" stop-color="#F8C0FF"/>
</linearGradient>
<linearGradient id="paint5_linear_1793_21" x1="16.6433" y1="8.79959" x2="20.2097" y2="6.93751" gradientUnits="userSpaceOnUse">
<stop offset="0.00125" stop-color="#D58DF9"/>
<stop offset="0.99875" stop-color="#F8C0FF"/>
</linearGradient>
<linearGradient id="paint6_linear_1793_21" x1="12.5" y1="19.6133" x2="12.5" y2="3.10051" gradientUnits="userSpaceOnUse">
<stop stop-color="#EEBBF8"/>
<stop offset="0.99875" stop-color="#EFE7F6"/>
</linearGradient>
<linearGradient id="paint7_linear_1793_21" x1="11.702" y1="7.12848" x2="11.702" y2="5.01866" gradientUnits="userSpaceOnUse">
<stop offset="0.00125" stop-color="#6B17F3"/>
<stop offset="1" stop-color="#8D47E7"/>
</linearGradient>
<linearGradient id="paint8_linear_1793_21" x1="15.0891" y1="21.305" x2="15.0891" y2="19.9897" gradientUnits="userSpaceOnUse">
<stop offset="0.00125" stop-color="#6B17F3"/>
<stop offset="1" stop-color="#8D47E7"/>
</linearGradient>
<linearGradient id="paint9_linear_1793_21" x1="9.91092" y1="15.6492" x2="9.91092" y2="19.9235" gradientUnits="userSpaceOnUse">
<stop offset="0.00125" stop-color="#6B17F3"/>
<stop offset="1" stop-color="#8D47E7"/>
</linearGradient>
<linearGradient id="paint10_linear_1793_21" x1="12.5" y1="23.9167" x2="12.5" y2="22.2198" gradientUnits="userSpaceOnUse">
<stop stop-color="#EEBBF8"/>
<stop offset="0.99875" stop-color="#EFE7F6"/>
</linearGradient>
<linearGradient id="paint11_linear_1793_21" x1="13.2423" y1="-1.87289" x2="13.2423" y2="4.92682" gradientUnits="userSpaceOnUse">
<stop offset="0.00125" stop-color="#6B17F3"/>
<stop offset="1" stop-color="#8D47E7"/>
</linearGradient>
<clipPath id="clip0_1793_21">
<rect width="24" height="24" fill="white" transform="translate(0.5)"/>
</clipPath>
</defs>
</svg>
