<svg width="25" height="24" viewBox="0 0 25 24" fill="none" xmlns="http://www.w3.org/2000/svg">
<g clip-path="url(#clip0_1733_121326)">
<path d="M20.7598 19.5085L17.1264 18.6894C17.1264 18.6894 15.7863 18.0997 15.7407 17.5532L14.9537 12.1255H10.0463L9.25926 17.5532C9.21369 18.0997 7.87727 18.6886 7.87727 18.6886L4.24018 19.5085C2.5946 19.8795 1.31497 21.1736 0.96249 22.8232L0.571301 24.654C0.51852 24.901 0.495877 25.1463 0.500612 25.3863C0.506826 25.7014 1.24276 26.0075 2.43456 26.297C7.59901 27.5514 24.4388 27.0951 24.498 25.4366C24.5071 25.1806 24.4852 24.9183 24.4287 24.654L24.0375 22.8232C23.685 21.1736 22.4054 19.8795 20.7598 19.5085Z" fill="#D4D4D4"/>
<path d="M12.5 18.9456C7.70619 18.9456 3.40957 21.0738 0.503052 24.4368C0.562381 26.0953 1.92608 27.4931 3.67655 27.4931H21.3235C23.0739 27.4931 24.4376 26.0953 24.497 24.4368C21.5905 21.0738 17.2938 18.9456 12.5 18.9456Z" fill="#D4D4D4"/>
<path d="M17.1265 17.6894L12.5 19.4227L7.87726 17.6888L7.94913 17.6725C8.48479 17.5519 8.88168 17.1 8.93168 16.5537L9.57984 9.49463H15.4201L16.0683 16.5537C16.1183 17.1 16.5152 17.5519 17.0509 17.6725L17.1265 17.6894Z" fill="#A3A3A3"/>
<path d="M21.4647 22.8567H17.0872C16.8031 22.8567 16.5727 23.087 16.5727 23.3712C16.5727 23.6554 16.8031 23.8857 17.0872 23.8857H21.4647C21.7488 23.8857 21.9792 23.6554 21.9792 23.3712C21.9792 23.087 21.7488 22.8567 21.4647 22.8567Z" fill="#A3A3A3"/>
<path d="M5.49181 7.83432L5.63034 8.60954C5.77376 9.41214 6.47183 9.99652 7.28715 9.99652H7.89087C7.87813 9.89904 7.86705 9.80045 7.85875 9.70187L7.61007 6.82076C7.59844 6.6895 7.59235 6.55879 7.59179 6.4292H6.66809C5.92404 6.4292 5.36092 7.10187 5.49181 7.83432Z" fill="#D4D4D4"/>
<path d="M19.5082 7.83432L19.3696 8.60954C19.2262 9.41214 18.5281 9.99652 17.7128 9.99652H17.1091C17.1218 9.89904 17.1329 9.80045 17.1412 9.70187L17.3899 6.82076C17.4015 6.6895 17.4076 6.55879 17.4082 6.4292H18.3319C19.0759 6.4292 19.639 7.10187 19.5082 7.83432Z" fill="#D4D4D4"/>
<path d="M13.6237 16.7899C12.9157 17.1412 12.0842 17.1412 11.3762 16.7899C8.92863 15.5755 7.29126 13.1728 7.05605 10.4507L6.76405 7.07126C6.47349 3.70856 9.12473 0.818359 12.5 0.818359C15.8752 0.818359 18.5264 3.70856 18.2359 7.07126L17.9439 10.4507C17.7087 13.1728 16.0713 15.5755 13.6237 16.7899Z" fill="#D4D4D4"/>
<path d="M7.52444 6.68793H6.58977C6.2608 6.68793 6.00519 6.40145 6.04318 6.07467C6.2765 4.0673 7.53717 0.142586 8.40074 0.0936505C9.4511 0.0341269 10.9455 0 12.5 0C13.676 0 14.8177 0.0195332 15.7587 0.05482C15.8491 0.0582125 16.1502 0.417755 16.5341 0.973866C17.4353 2.2791 17.8872 6.27231 16.386 6.35813C15.0583 6.43402 12.296 6.06565 10.7757 6.11932C8.43588 6.20192 7.52444 6.68793 7.52444 6.68793Z" fill="#A3A3A3"/>
<path d="M17.0817 17.0171L17.7434 17.6214C17.9016 17.7659 17.8929 18.0177 17.725 18.1508L14.2862 20.8796C13.9688 21.1315 13.5041 21.0598 13.2773 20.724L12.3214 19.3089L16.3779 16.9422C16.6036 16.8105 16.8887 16.8409 17.0817 17.0171Z" fill="#A3A3A3"/>
<path d="M7.91824 17.0171L7.25656 17.6214C7.09834 17.7659 7.10707 18.0177 7.27491 18.1508L10.7137 20.8796C11.0312 21.1315 11.4958 21.0598 11.7227 20.724L12.6785 19.3089L8.62204 16.9422C8.39632 16.8105 8.1112 16.8409 7.91824 17.0171Z" fill="#A3A3A3"/>
<path d="M12.5 23.1656C12.8541 23.1656 13.1412 22.8786 13.1412 22.5245C13.1412 22.1704 12.8541 21.8833 12.5 21.8833C12.1459 21.8833 11.8588 22.1704 11.8588 22.5245C11.8588 22.8786 12.1459 23.1656 12.5 23.1656Z" fill="#A3A3A3"/>
<path d="M18.4097 6.68774C18.7387 6.68774 18.9943 6.40135 18.9564 6.07461C18.7235 4.06728 17.4628 0.142393 16.5992 0.0934504C16.3436 0.0789913 16.0613 0.0660421 15.7587 0.0546875L7.52448 6.68774H18.4097Z" fill="#A3A3A3"/>
</g>
<defs>
<clipPath id="clip0_1733_121326">
<rect width="24" height="24" fill="white" transform="translate(0.5)"/>
</clipPath>
</defs>
</svg>
