<svg width="44" height="45" viewBox="0 0 44 45" fill="none" xmlns="http://www.w3.org/2000/svg">
<path d="M0 22.5C0 10.3497 9.84974 0.5 22 0.5C34.1503 0.5 44 10.3497 44 22.5C44 34.6503 34.1503 44.5 22 44.5C9.84974 44.5 0 34.6503 0 22.5Z" fill="url(#paint0_linear_1737_112937)"/>
<path d="M31.9398 32.348L27.4876 27.8939C28.8225 26.1544 29.4457 23.9722 29.2309 21.79C29.016 19.6078 27.9791 17.5891 26.3306 16.1433C24.682 14.6975 22.5453 13.9329 20.3537 14.0046C18.1621 14.0764 16.0799 14.979 14.5294 16.5295C12.979 18.08 12.0763 20.1622 12.0046 22.3538C11.9328 24.5453 12.6974 26.6821 14.1432 28.3306C15.589 29.9792 17.6078 31.0161 19.7899 31.2309C21.9721 31.4458 24.1543 30.8226 25.8939 29.4877L30.3498 33.9445C30.4544 34.0492 30.5787 34.1322 30.7154 34.1888C30.8521 34.2455 30.9987 34.2746 31.1467 34.2746C31.2947 34.2746 31.4412 34.2455 31.5779 34.1888C31.7147 34.1322 31.8389 34.0492 31.9435 33.9445C32.0482 33.8399 32.1312 33.7157 32.1878 33.5789C32.2445 33.4422 32.2736 33.2957 32.2736 33.1477C32.2736 32.9997 32.2445 32.8531 32.1878 32.7164C32.1312 32.5797 32.0482 32.4554 31.9435 32.3508L31.9398 32.348ZM14.2689 22.6439C14.2689 21.3831 14.6427 20.1505 15.3432 19.1022C16.0437 18.0538 17.0394 17.2367 18.2042 16.7542C19.3691 16.2717 20.6509 16.1454 21.8876 16.3914C23.1242 16.6374 24.2601 17.2445 25.1517 18.1361C26.0432 19.0277 26.6504 20.1636 26.8964 21.4002C27.1423 22.6368 27.0161 23.9186 26.5336 25.0835C26.0511 26.2484 25.234 27.244 24.1856 27.9445C23.1372 28.645 21.9047 29.0189 20.6439 29.0189C18.9536 29.0172 17.3331 28.345 16.138 27.1498C14.9428 25.9546 14.2706 24.3341 14.2689 22.6439Z" fill="url(#paint1_linear_1737_112937)"/>
<defs>
<linearGradient id="paint0_linear_1737_112937" x1="17.9224" y1="-2.91379" x2="30.4397" y2="47.5345" gradientUnits="userSpaceOnUse">
<stop stop-color="white"/>
<stop offset="1" stop-color="#F2DEFF"/>
</linearGradient>
<linearGradient id="paint1_linear_1737_112937" x1="10.0192" y1="41.6359" x2="33.828" y2="12.2229" gradientUnits="userSpaceOnUse">
<stop stop-color="#8A57DC"/>
<stop offset="0.99875" stop-color="#EAA6F1"/>
</linearGradient>
</defs>
</svg>
