<svg width="10" height="12" viewBox="0 0 10 12" fill="none" xmlns="http://www.w3.org/2000/svg">
<path d="M9.8125 1.625V10.375C9.8125 10.6071 9.72031 10.8296 9.55622 10.9937C9.39212 11.1578 9.16956 11.25 8.9375 11.25H6.75C6.51794 11.25 6.29538 11.1578 6.13128 10.9937C5.96719 10.8296 5.875 10.6071 5.875 10.375V1.625C5.875 1.39294 5.96719 1.17038 6.13128 1.00628C6.29538 0.842187 6.51794 0.75 6.75 0.75H8.9375C9.16956 0.75 9.39212 0.842187 9.55622 1.00628C9.72031 1.17038 9.8125 1.39294 9.8125 1.625ZM3.25 0.75H1.0625C0.830436 0.75 0.607876 0.842187 0.443782 1.00628C0.279687 1.17038 0.1875 1.39294 0.1875 1.625V10.375C0.1875 10.6071 0.279687 10.8296 0.443782 10.9937C0.607876 11.1578 0.830436 11.25 1.0625 11.25H3.25C3.48206 11.25 3.70462 11.1578 3.86872 10.9937C4.03281 10.8296 4.125 10.6071 4.125 10.375V1.625C4.125 1.39294 4.03281 1.17038 3.86872 1.00628C3.70462 0.842187 3.48206 0.75 3.25 0.75Z" fill="black"/>
</svg>
