<svg width="10" height="9" viewBox="0 0 10 9" fill="none" xmlns="http://www.w3.org/2000/svg">
<path d="M9.125 0.75V8.25C9.125 8.44891 9.04598 8.63968 8.90533 8.78033C8.76468 8.92098 8.57391 9 8.375 9H6.5C6.30109 9 6.11032 8.92098 5.96967 8.78033C5.82902 8.63968 5.75 8.44891 5.75 8.25V0.75C5.75 0.551088 5.82902 0.360322 5.96967 0.21967C6.11032 0.0790176 6.30109 0 6.5 0H8.375C8.57391 0 8.76468 0.0790176 8.90533 0.21967C9.04598 0.360322 9.125 0.551088 9.125 0.75ZM3.5 0H1.625C1.42609 0 1.23532 0.0790176 1.09467 0.21967C0.954018 0.360322 0.875 0.551088 0.875 0.75V8.25C0.875 8.44891 0.954018 8.63968 1.09467 8.78033C1.23532 8.92098 1.42609 9 1.625 9H3.5C3.69891 9 3.88968 8.92098 4.03033 8.78033C4.17098 8.63968 4.25 8.44891 4.25 8.25V0.75C4.25 0.551088 4.17098 0.360322 4.03033 0.21967C3.88968 0.0790176 3.69891 0 3.5 0Z" fill="white"/>
</svg>
