<svg width="17" height="18" viewBox="0 0 17 18" fill="none" xmlns="http://www.w3.org/2000/svg">
<path d="M8.5 0.875C6.89303 0.875 5.32214 1.35152 3.986 2.24431C2.64985 3.1371 1.60844 4.40605 0.993482 5.8907C0.37852 7.37535 0.217618 9.00901 0.531123 10.5851C0.844628 12.1612 1.61846 13.6089 2.75476 14.7452C3.89106 15.8815 5.3388 16.6554 6.9149 16.9689C8.49099 17.2824 10.1247 17.1215 11.6093 16.5065C13.094 15.8916 14.3629 14.8502 15.2557 13.514C16.1485 12.1779 16.625 10.607 16.625 9C16.6223 6.84594 15.7654 4.78088 14.2423 3.25773C12.7191 1.73457 10.6541 0.877688 8.5 0.875ZM11.625 9.625H9.125V12.125C9.125 12.2908 9.05916 12.4497 8.94195 12.5669C8.82474 12.6842 8.66576 12.75 8.5 12.75C8.33424 12.75 8.17527 12.6842 8.05806 12.5669C7.94085 12.4497 7.875 12.2908 7.875 12.125V9.625H5.375C5.20924 9.625 5.05027 9.55915 4.93306 9.44194C4.81585 9.32473 4.75 9.16576 4.75 9C4.75 8.83424 4.81585 8.67527 4.93306 8.55806C5.05027 8.44085 5.20924 8.375 5.375 8.375H7.875V5.875C7.875 5.70924 7.94085 5.55027 8.05806 5.43306C8.17527 5.31585 8.33424 5.25 8.5 5.25C8.66576 5.25 8.82474 5.31585 8.94195 5.43306C9.05916 5.55027 9.125 5.70924 9.125 5.875V8.375H11.625C11.7908 8.375 11.9497 8.44085 12.0669 8.55806C12.1842 8.67527 12.25 8.83424 12.25 9C12.25 9.16576 12.1842 9.32473 12.0669 9.44194C11.9497 9.55915 11.7908 9.625 11.625 9.625Z" fill="#8A57DC"/>
</svg>
