<svg width="24" height="24" viewBox="0 0 24 24" fill="none" xmlns="http://www.w3.org/2000/svg">
<path d="M16.1251 6.37493C15.9695 6.37493 15.8148 6.38055 15.661 6.38993C15.4407 4.98576 14.8051 3.67969 13.836 2.63993C12.8669 1.60017 11.6087 0.874319 10.2235 0.555863C10.0378 0.513429 9.84443 0.518832 9.6614 0.571567C9.47838 0.624302 9.31175 0.722642 9.17711 0.85737C9.04248 0.992097 8.94425 1.1588 8.89165 1.34186C8.83904 1.52492 8.83377 1.71834 8.87633 1.90399C9.0612 2.7097 9.03835 3.54917 8.80993 4.34363C8.5815 5.13809 8.15499 5.8615 7.57042 6.44599C6.98584 7.03047 6.26236 7.45686 5.46786 7.68516C4.67336 7.91345 3.83389 7.93617 3.02821 7.75117C2.84243 7.70868 2.64891 7.71407 2.46579 7.76685C2.28267 7.81963 2.11596 7.91806 1.9813 8.05291C1.84663 8.18776 1.74844 8.3546 1.69591 8.5378C1.64339 8.72099 1.63827 8.91452 1.68102 9.10024C2.05907 10.7138 2.9835 12.147 4.29758 13.1568C3.75725 13.9451 3.44237 14.866 3.38688 15.8201C3.33139 16.7742 3.53741 17.7254 3.98271 18.5711C4.42801 19.4167 5.09571 20.1248 5.91381 20.6189C6.7319 21.113 7.66935 21.3744 8.62508 21.3749H16.1251C18.1142 21.3749 20.0219 20.5847 21.4284 19.1782C22.8349 17.7717 23.6251 15.864 23.6251 13.8749C23.6251 11.8858 22.8349 9.97815 21.4284 8.57162C20.0219 7.1651 18.1142 6.37493 16.1251 6.37493ZM11.2398 3.37493C11.844 3.75601 12.3564 4.26607 12.7402 4.86855C13.124 5.47102 13.3697 6.15096 13.4598 6.85961C12.5195 7.21711 11.6604 7.75921 10.9329 8.45397C10.2055 9.14874 9.62446 9.98209 9.22415 10.9049C9.02519 10.8836 8.82518 10.8736 8.62508 10.8749C7.69467 10.8742 6.78096 11.1221 5.97852 11.5931C5.39061 11.2099 4.89109 10.7059 4.51321 10.1146C6.26752 10.0165 7.92396 9.27457 9.16517 8.03094C10.4064 6.7873 11.1451 5.12943 11.2398 3.37493ZM16.1251 19.1249H8.62508C7.82943 19.1249 7.06637 18.8089 6.50376 18.2462C5.94115 17.6836 5.62508 16.9206 5.62508 16.1249C5.62508 15.3293 5.94115 14.5662 6.50376 14.0036C7.06637 13.441 7.82943 13.1249 8.62508 13.1249H8.65133C8.64102 13.2281 8.63258 13.3312 8.62696 13.4343C8.60955 13.7327 8.71139 14.0257 8.91006 14.249C9.10873 14.4723 9.38797 14.6075 9.68633 14.6249C9.9847 14.6423 10.2778 14.5405 10.501 14.3418C10.7243 14.1432 10.8596 13.8639 10.877 13.5655C10.8968 13.2172 10.9514 12.8717 11.0401 12.5343L11.0541 12.4827C11.3126 11.5377 11.8301 10.6838 12.5482 10.0173C13.2662 9.35077 14.1563 8.89825 15.1179 8.71078C16.0795 8.52332 17.0744 8.60838 17.9903 8.95635C18.9061 9.30433 19.7064 9.90138 20.301 10.6801C20.8955 11.4588 21.2605 12.3882 21.3548 13.3634C21.4491 14.3386 21.2689 15.3207 20.8347 16.1989C20.4004 17.0771 19.7293 17.8165 18.8971 18.3335C18.0649 18.8505 17.1048 19.1246 16.1251 19.1249Z" fill="url(#paint0_linear_1785_197023)"/>
<defs>
<linearGradient id="paint0_linear_1785_197023" x1="-0.494419" y1="28.9441" x2="23.6883" y2="-2.54495" gradientUnits="userSpaceOnUse">
<stop stop-color="#8A57DC"/>
<stop offset="0.99875" stop-color="#EAA6F1"/>
</linearGradient>
</defs>
</svg>
