<svg width="20" height="18" viewBox="0 0 20 18" fill="none" xmlns="http://www.w3.org/2000/svg">
<path d="M18.9375 0.78125H12.75C12.2346 0.781085 11.7246 0.886624 11.2516 1.09134C10.7786 1.29606 10.3526 1.59562 10 1.97148C9.64735 1.59562 9.22136 1.29606 8.74836 1.09134C8.27536 0.886624 7.7654 0.781085 7.25 0.78125H1.0625C0.788996 0.78125 0.526693 0.889899 0.333296 1.0833C0.139899 1.27669 0.03125 1.539 0.03125 1.8125V14.1875C0.03125 14.461 0.139899 14.7233 0.333296 14.9167C0.526693 15.1101 0.788996 15.2188 1.0625 15.2188H7.25C7.70584 15.2188 8.14301 15.3998 8.46534 15.7222C8.78767 16.0445 8.96875 16.4817 8.96875 16.9375C8.96875 17.211 9.0774 17.4733 9.2708 17.6667C9.46419 17.8601 9.7265 17.9688 10 17.9688C10.2735 17.9688 10.5358 17.8601 10.7292 17.6667C10.9226 17.4733 11.0312 17.211 11.0312 16.9375C11.0312 16.4817 11.2123 16.0445 11.5347 15.7222C11.857 15.3998 12.2942 15.2188 12.75 15.2188H18.9375C19.211 15.2188 19.4733 15.1101 19.6667 14.9167C19.8601 14.7233 19.9688 14.461 19.9688 14.1875V1.8125C19.9688 1.539 19.8601 1.27669 19.6667 1.0833C19.4733 0.889899 19.211 0.78125 18.9375 0.78125ZM7.25 13.1562H2.09375V2.84375H7.25C7.70584 2.84375 8.14301 3.02483 8.46534 3.34716C8.78767 3.66949 8.96875 4.10666 8.96875 4.5625V13.5696C8.43678 13.2973 7.84761 13.1556 7.25 13.1562ZM17.9062 13.1562H12.75C12.1522 13.1559 11.563 13.2982 11.0312 13.5713V4.5625C11.0312 4.10666 11.2123 3.66949 11.5347 3.34716C11.857 3.02483 12.2942 2.84375 12.75 2.84375H17.9062V13.1562ZM13.0938 5.25H15.8438C16.1173 5.25 16.3796 5.35865 16.573 5.55205C16.7663 5.74544 16.875 6.00775 16.875 6.28125C16.875 6.55475 16.7663 6.81706 16.573 7.01045C16.3796 7.20385 16.1173 7.3125 15.8438 7.3125H13.0938C12.8202 7.3125 12.5579 7.20385 12.3645 7.01045C12.1712 6.81706 12.0625 6.55475 12.0625 6.28125C12.0625 6.00775 12.1712 5.74544 12.3645 5.55205C12.5579 5.35865 12.8202 5.25 13.0938 5.25ZM16.875 9.71875C16.875 9.99225 16.7663 10.2546 16.573 10.448C16.3796 10.6413 16.1173 10.75 15.8438 10.75H13.0938C12.8202 10.75 12.5579 10.6413 12.3645 10.448C12.1712 10.2546 12.0625 9.99225 12.0625 9.71875C12.0625 9.44525 12.1712 9.18294 12.3645 8.98955C12.5579 8.79615 12.8202 8.6875 13.0938 8.6875H15.8438C16.1173 8.6875 16.3796 8.79615 16.573 8.98955C16.7663 9.18294 16.875 9.44525 16.875 9.71875Z" fill="#737373"/>
</svg>
