<svg width="18" height="18" viewBox="0 0 18 18" fill="none" xmlns="http://www.w3.org/2000/svg">
<path d="M14.625 2.8125V15.1875C14.625 15.3367 14.5657 15.4798 14.4602 15.5852C14.3548 15.6907 14.2117 15.75 14.0625 15.75C13.9133 15.75 13.7702 15.6907 13.6648 15.5852C13.5593 15.4798 13.5 15.3367 13.5 15.1875V10.3198L5.09273 15.5777C4.92342 15.684 4.72878 15.7431 4.52895 15.7489C4.32913 15.7547 4.13139 15.707 3.95621 15.6107C3.78102 15.5144 3.63477 15.373 3.53258 15.2012C3.43039 15.0294 3.37599 14.8333 3.375 14.6334V3.36656C3.37599 3.16666 3.43039 2.97065 3.53258 2.79883C3.63477 2.62702 3.78102 2.48564 3.95621 2.38933C4.13139 2.29303 4.32913 2.2453 4.52895 2.25109C4.72878 2.25688 4.92342 2.31598 5.09273 2.42227L13.5 7.68023V2.8125C13.5 2.66332 13.5593 2.52024 13.6648 2.41475C13.7702 2.30926 13.9133 2.25 14.0625 2.25C14.2117 2.25 14.3548 2.30926 14.4602 2.41475C14.5657 2.52024 14.625 2.66332 14.625 2.8125Z" fill="white"/>
</svg>
