<svg width="12" height="14" viewBox="0 0 12 14" fill="none" xmlns="http://www.w3.org/2000/svg">
<path d="M11.625 1.36656V12.6334C11.6229 12.8329 11.5678 13.0282 11.4654 13.1994C11.3629 13.3705 11.2168 13.5113 11.042 13.6074C10.8672 13.7035 10.67 13.7514 10.4706 13.7462C10.2712 13.741 10.0768 13.6828 9.90727 13.5777L1.5 8.31977V13.1875C1.5 13.3367 1.44074 13.4798 1.33525 13.5852C1.22976 13.6907 1.08668 13.75 0.9375 13.75C0.788316 13.75 0.645242 13.6907 0.539753 13.5852C0.434263 13.4798 0.375 13.3367 0.375 13.1875V0.8125C0.375 0.663316 0.434263 0.520242 0.539753 0.414753C0.645242 0.309263 0.788316 0.25 0.9375 0.25C1.08668 0.25 1.22976 0.309263 1.33525 0.414753C1.44074 0.520242 1.5 0.663316 1.5 0.8125V5.68023L9.90727 0.422266C10.0766 0.31598 10.2712 0.256882 10.471 0.251092C10.6709 0.245302 10.8686 0.29303 11.0438 0.389333C11.219 0.485637 11.3652 0.627016 11.4674 0.798832C11.5696 0.970649 11.624 1.16666 11.625 1.36656Z" fill="white"/>
</svg>
