<svg width="20" height="20" viewBox="0 0 20 20" fill="none" xmlns="http://www.w3.org/2000/svg">
<path d="M18.5891 8.37581C18.5717 8.28779 18.5355 8.20456 18.4831 8.13177C18.4306 8.05897 18.3631 7.99832 18.2852 7.95393L15.9547 6.62581L15.9453 3.99924C15.945 3.90879 15.9251 3.81947 15.8869 3.73746C15.8488 3.65545 15.7932 3.5827 15.7242 3.52424C14.8788 2.80916 13.9053 2.26117 12.8555 1.9094C12.7728 1.88142 12.6852 1.87106 12.5982 1.879C12.5113 1.88694 12.427 1.913 12.3508 1.95549L10 3.26956L7.64687 1.95315C7.57058 1.91041 7.48618 1.88416 7.39911 1.87608C7.31204 1.86801 7.22425 1.87829 7.1414 1.90628C6.09216 2.26031 5.11972 2.81042 4.27578 3.52737C4.20685 3.58574 4.15139 3.65836 4.11322 3.74023C4.07505 3.8221 4.05508 3.91126 4.05468 4.00159L4.04296 6.63049L1.7125 7.95862C1.63453 8.00301 1.56703 8.06366 1.51459 8.13645C1.46215 8.20925 1.426 8.29248 1.40859 8.38049C1.19531 9.45228 1.19531 10.5556 1.40859 11.6274C1.426 11.7154 1.46215 11.7986 1.51459 11.8714C1.56703 11.9442 1.63453 12.0049 1.7125 12.0492L4.04296 13.3774L4.05234 16.0047C4.05262 16.0952 4.07254 16.1845 4.11071 16.2665C4.14888 16.3485 4.2044 16.4213 4.27343 16.4797C5.1188 17.1948 6.09231 17.7428 7.14218 18.0946C7.22486 18.1225 7.31248 18.1329 7.39941 18.125C7.48633 18.117 7.57063 18.091 7.64687 18.0485L10 16.7305L12.3531 18.0469C12.4462 18.0988 12.5512 18.1257 12.6578 18.125C12.7261 18.125 12.7939 18.1139 12.8586 18.0922C13.9076 17.7383 14.88 17.1888 15.7242 16.4727C15.7931 16.4143 15.8486 16.3417 15.8868 16.2598C15.9249 16.178 15.9449 16.0888 15.9453 15.9985L15.957 13.3696L18.2875 12.0414C18.3655 11.997 18.433 11.9364 18.4854 11.8636C18.5378 11.7908 18.574 11.7076 18.5914 11.6196C18.8035 10.5486 18.8027 9.44643 18.5891 8.37581ZM10 13.125C9.38193 13.125 8.77774 12.9417 8.26384 12.5984C7.74994 12.255 7.3494 11.7669 7.11287 11.1959C6.87635 10.6249 6.81446 9.99656 6.93504 9.39037C7.05562 8.78418 7.35325 8.22736 7.79029 7.79032C8.22733 7.35328 8.78415 7.05565 9.39034 6.93507C9.99653 6.81449 10.6249 6.87638 11.1959 7.1129C11.7669 7.34943 12.255 7.74996 12.5983 8.26387C12.9417 8.77777 13.125 9.38196 13.125 10C13.125 10.8288 12.7958 11.6237 12.2097 12.2097C11.6237 12.7958 10.8288 13.125 10 13.125Z" fill="white"/>
</svg>
