<svg width="22" height="21" viewBox="0 0 22 21" fill="none" xmlns="http://www.w3.org/2000/svg">
<path d="M21.3069 8.55092C21.286 8.4453 21.2426 8.34543 21.1797 8.25807C21.1167 8.17072 21.0357 8.09793 20.9422 8.04467L18.1456 6.45092L18.1344 3.29904C18.134 3.19049 18.1101 3.08331 18.0643 2.9849C18.0185 2.88649 17.9519 2.79919 17.8691 2.72904C16.8546 1.87095 15.6864 1.21336 14.4266 0.791232C14.3273 0.757651 14.2222 0.745223 14.1179 0.75475C14.0136 0.764276 13.9124 0.795546 13.8209 0.846545L11 2.42342L8.17624 0.843732C8.0847 0.792446 7.98341 0.760941 7.87893 0.751251C7.77445 0.741562 7.6691 0.753905 7.56968 0.787482C6.31059 1.21232 5.14366 1.87246 4.13093 2.73279C4.04822 2.80284 3.98166 2.88999 3.93586 2.98823C3.89006 3.08647 3.8661 3.19347 3.86562 3.30186L3.85156 6.45654L1.055 8.05029C0.961434 8.10356 0.880437 8.17634 0.817509 8.2637C0.754582 8.35105 0.711198 8.45093 0.690308 8.55654C0.434367 9.84268 0.434367 11.1667 0.690308 12.4528C0.711198 12.5584 0.754582 12.6583 0.817509 12.7456C0.880437 12.833 0.961434 12.9058 1.055 12.959L3.85156 14.5528L3.86281 17.7056C3.86315 17.8142 3.88705 17.9213 3.93285 18.0197C3.97866 18.1182 4.04528 18.2055 4.12812 18.2756C5.14256 19.1337 6.31077 19.7913 7.57062 20.2134C7.66983 20.247 7.77498 20.2594 7.87929 20.2499C7.9836 20.2404 8.08476 20.2091 8.17624 20.1581L11 18.5765L13.8237 20.1562C13.9355 20.2185 14.0615 20.2508 14.1894 20.25C14.2713 20.25 14.3526 20.2367 14.4303 20.2106C15.6891 19.786 16.8559 19.1265 17.8691 18.2672C17.9518 18.1971 18.0183 18.11 18.0641 18.0117C18.1099 17.9135 18.1339 17.8065 18.1344 17.6981L18.1484 14.5434L20.945 12.9497C21.0386 12.8964 21.1196 12.8236 21.1825 12.7363C21.2454 12.6489 21.2888 12.549 21.3097 12.4434C21.5642 11.1583 21.5632 9.83566 21.3069 8.55092ZM11 14.25C10.2583 14.25 9.53329 14.03 8.91661 13.618C8.29992 13.2059 7.81927 12.6203 7.53545 11.935C7.25162 11.2498 7.17736 10.4958 7.32205 9.76839C7.46674 9.04096 7.8239 8.37278 8.34834 7.84833C8.87279 7.32388 9.54098 6.96673 10.2684 6.82204C10.9958 6.67734 11.7498 6.7516 12.4351 7.03543C13.1203 7.31926 13.706 7.79991 14.118 8.41659C14.5301 9.03328 14.75 9.7583 14.75 10.5C14.75 11.4945 14.3549 12.4484 13.6516 13.1516C12.9484 13.8549 11.9946 14.25 11 14.25Z" fill="white"/>
</svg>
