<svg width="22" height="22" viewBox="0 0 22 22" fill="none" xmlns="http://www.w3.org/2000/svg">
<g clip-path="url(#clip0_1785_200934)">
<path fill-rule="evenodd" clip-rule="evenodd" d="M17.155 11.4702L6.36593 18.2466C6.28077 18.3 6.18267 18.3298 6.08186 18.333C5.98105 18.3362 5.88121 18.3126 5.79276 18.2648C5.70431 18.2169 5.63049 18.1465 5.579 18.0609C5.5275 17.9753 5.50022 17.8776 5.5 17.778V4.22304C5.50002 4.12337 5.52716 4.02554 5.57857 3.93976C5.62998 3.85398 5.70378 3.78341 5.79227 3.73541C5.88075 3.68741 5.98067 3.66375 6.08158 3.6669C6.18249 3.67006 6.28069 3.6999 6.36593 3.75332L17.1562 10.5319C17.236 10.5822 17.3017 10.6516 17.3473 10.7336C17.3928 10.8156 17.4167 10.9076 17.4167 11.0011C17.4167 11.0946 17.3928 11.1866 17.3473 11.2686C17.3017 11.3506 17.236 11.4199 17.1562 11.4702H17.155Z" stroke="#737373" stroke-width="2" stroke-linecap="round"/>
</g>
<defs>
<clipPath id="clip0_1785_200934">
<rect width="22" height="22" fill="white"/>
</clipPath>
</defs>
</svg>
