<svg width="22" height="19" viewBox="0 0 22 19" fill="none" xmlns="http://www.w3.org/2000/svg">
<path d="M20.75 0.125H14C13.4377 0.12482 12.8814 0.239953 12.3654 0.463284C11.8494 0.686615 11.3847 1.0134 11 1.42344C10.6153 1.0134 10.1506 0.686615 9.63458 0.463284C9.11858 0.239953 8.56226 0.12482 8 0.125H1.25C0.951631 0.125 0.665483 0.243527 0.454505 0.454505C0.243526 0.665483 0.125 0.951632 0.125 1.25V14.75C0.125 15.0484 0.243526 15.3345 0.454505 15.5455C0.665483 15.7565 0.951631 15.875 1.25 15.875H8C8.49728 15.875 8.97419 16.0725 9.32582 16.4242C9.67746 16.7758 9.875 17.2527 9.875 17.75C9.875 18.0484 9.99353 18.3345 10.2045 18.5455C10.4155 18.7565 10.7016 18.875 11 18.875C11.2984 18.875 11.5845 18.7565 11.7955 18.5455C12.0065 18.3345 12.125 18.0484 12.125 17.75C12.125 17.2527 12.3225 16.7758 12.6742 16.4242C13.0258 16.0725 13.5027 15.875 14 15.875H20.75C21.0484 15.875 21.3345 15.7565 21.5455 15.5455C21.7565 15.3345 21.875 15.0484 21.875 14.75V1.25C21.875 0.951632 21.7565 0.665483 21.5455 0.454505C21.3345 0.243527 21.0484 0.125 20.75 0.125ZM8 13.625H2.375V2.375H8C8.49728 2.375 8.97419 2.57254 9.32582 2.92418C9.67746 3.27581 9.875 3.75272 9.875 4.25V14.0759C9.29467 13.7789 8.65194 13.6243 8 13.625ZM19.625 13.625H14C13.3479 13.6246 12.7051 13.7798 12.125 14.0778V4.25C12.125 3.75272 12.3225 3.27581 12.6742 2.92418C13.0258 2.57254 13.5027 2.375 14 2.375H19.625V13.625ZM14.375 5H17.375C17.6734 5 17.9595 5.11853 18.1705 5.3295C18.3815 5.54048 18.5 5.82663 18.5 6.125C18.5 6.42337 18.3815 6.70952 18.1705 6.9205C17.9595 7.13147 17.6734 7.25 17.375 7.25H14.375C14.0766 7.25 13.7905 7.13147 13.5795 6.9205C13.3685 6.70952 13.25 6.42337 13.25 6.125C13.25 5.82663 13.3685 5.54048 13.5795 5.3295C13.7905 5.11853 14.0766 5 14.375 5ZM18.5 9.875C18.5 10.1734 18.3815 10.4595 18.1705 10.6705C17.9595 10.8815 17.6734 11 17.375 11H14.375C14.0766 11 13.7905 10.8815 13.5795 10.6705C13.3685 10.4595 13.25 10.1734 13.25 9.875C13.25 9.57663 13.3685 9.29048 13.5795 9.07951C13.7905 8.86853 14.0766 8.75 14.375 8.75H17.375C17.6734 8.75 17.9595 8.86853 18.1705 9.07951C18.3815 9.29048 18.5 9.57663 18.5 9.875Z" fill="url(#paint0_linear_1864_108682)"/>
<defs>
<linearGradient id="paint0_linear_1864_108682" x1="-2" y1="25.6827" x2="19.1294" y2="-4.59796" gradientUnits="userSpaceOnUse">
<stop stop-color="#8A57DC"/>
<stop offset="0.99875" stop-color="#EAA6F1"/>
</linearGradient>
</defs>
</svg>
