<svg width="26" height="26" viewBox="0 0 26 26" fill="none" xmlns="http://www.w3.org/2000/svg">
<path d="M22.4454 9.11581V4.31642C22.4454 3.89574 22.1043 3.5547 21.6836 3.5547H16.8842L13.5375 0.221965C13.2402 -0.0739884 12.7597 -0.0739884 12.4625 0.221965L9.11581 3.5547H4.31642C3.89574 3.5547 3.5547 3.89574 3.5547 4.31642V9.11581L0.221965 12.4626C-0.0739884 12.7598 -0.0739884 13.2403 0.221965 13.5376L3.5547 16.8842V21.6836C3.5547 22.1043 3.89574 22.4454 4.31642 22.4454H9.11581L12.4625 25.7781C12.6111 25.9261 12.8056 26.0001 13 26.0001C13.1945 26.0001 13.3889 25.9261 13.5375 25.7781L16.8842 22.4454H21.6836C22.1043 22.4454 22.4454 22.1043 22.4454 21.6836V16.8842L25.7781 13.5376C26.074 13.2403 26.074 12.7598 25.7781 12.4626L22.4454 9.11581ZM21.1439 16.0321C21.0018 16.1749 20.9219 16.3682 20.9219 16.5696V20.9219H16.5697C16.3682 20.9219 16.1749 21.0018 16.0322 21.1439L13 24.1633L9.96793 21.1439C9.82513 21.0018 9.63191 20.9219 9.43046 20.9219H5.07814V16.5697C5.07814 16.3682 4.99831 16.1749 4.85617 16.0322L1.83671 13L4.85617 9.96793C4.99831 9.82513 5.07814 9.63191 5.07814 9.43046V5.07814H9.4304C9.63185 5.07814 9.82513 4.99831 9.96787 4.85617L13 1.83671L16.0322 4.85617C16.175 4.99831 16.3682 5.07814 16.5697 5.07814H20.9219V9.4304C20.9219 9.63185 21.0018 9.82513 21.1439 9.96787L24.1633 13L21.1439 16.0321Z" fill="#994EF8"/>
</svg>
