<svg width="75" height="34" viewBox="0 0 75 34" fill="none" xmlns="http://www.w3.org/2000/svg">
<path d="M0.341499 -18.5447C1.4157 -17.4395 2.51474 -16.3529 3.58894 -15.2476C4.11051 -14.7074 4.61346 -14.1424 5.10399 -13.5773C5.22818 -13.4345 5.31511 -13.4469 5.45171 -13.5214C5.81806 -13.7263 6.19061 -13.9126 6.55696 -14.1237C7.2586 -14.5273 8.00992 -14.8378 8.61222 -15.4091C8.75503 -15.5457 8.85437 -15.4525 8.91026 -15.2911C9.33869 -14.1175 10.1273 -13.1427 10.7358 -12.0685C10.7668 -12.0126 10.8972 -11.9753 10.9655 -11.994C12.1204 -12.3417 13.2691 -12.708 14.4241 -13.0495C15.5231 -13.3724 16.6346 -13.658 17.7398 -13.9623C17.9012 -14.0058 17.9944 -13.9747 18.0378 -13.7947C18.1558 -13.3227 18.2862 -12.8571 18.4104 -12.3852C18.6339 -11.5407 18.8699 -10.6962 19.0748 -9.83936C19.3045 -8.88314 19.5032 -7.92692 19.7081 -6.96448C19.7454 -6.79683 19.8323 -6.74716 19.9938 -6.74716C20.4222 -6.75337 20.8568 -6.74095 21.2853 -6.74716C22.0614 -6.75958 22.8314 -6.76579 23.6075 -6.80925C23.8559 -6.82167 23.8994 -6.75958 23.8683 -6.53605C23.8186 -6.15107 23.769 -5.75989 23.769 -5.37492C23.7628 -4.65465 23.8 -3.93437 23.8124 -3.2141C23.8186 -2.72978 23.8186 -2.73599 24.2906 -2.62423C25.4703 -2.34481 26.6501 -2.05918 27.8236 -1.76735C28.8233 -1.51898 29.8168 -1.24577 30.8103 -0.991196C30.9717 -0.947731 31.0835 -0.885637 31.0276 -0.693151C30.9531 -0.44478 30.8723 -0.190203 30.804 0.0643749C30.5308 1.04544 30.2638 2.03271 29.9844 3.01377C29.6926 4.01966 29.3883 5.02556 29.0717 6.03146C29.0158 6.19911 29.0282 6.27983 29.1772 6.36055C30.2514 6.95042 31.2139 7.739 32.3874 8.14881C32.5551 8.2109 32.5861 8.32267 32.4619 8.46548C32.4122 8.52757 32.3564 8.57725 32.3129 8.64555C31.7292 9.64524 31.1456 10.6449 30.5743 11.6508C30.5433 11.7129 30.5929 11.8681 30.655 11.924C31.1456 12.3835 31.6671 12.8182 32.1452 13.2839C33.3002 14.4077 34.4427 15.544 35.5852 16.6741C35.8708 16.9535 35.8708 16.9535 35.5727 17.2453C34.5296 18.2699 33.4926 19.3068 32.4433 20.3251C31.8782 20.8778 31.2946 21.4117 30.6923 21.9271C30.5184 22.0761 30.4874 22.1817 30.6053 22.3556C30.6488 22.4176 30.6737 22.4922 30.7171 22.5605C31.3008 23.5229 31.7044 24.6033 32.4681 25.4602C32.5923 25.603 32.5302 25.7085 32.3626 25.7706C31.1828 26.1929 30.208 26.9814 29.1338 27.5899C29.0779 27.621 29.0282 27.7514 29.0468 27.8135C29.4008 29.0181 29.7857 30.2102 30.1334 31.4148C30.4191 32.3959 30.6674 33.3832 30.9344 34.3704C31.0586 34.8237 31.0586 34.8175 30.624 34.9293C29.4318 35.2397 28.2396 35.575 27.0475 35.8731C26.0416 36.1214 25.0232 36.3263 24.0111 36.5685C23.9304 36.5871 23.8249 36.7113 23.8186 36.7858C23.7938 37.3198 23.769 37.8538 23.7814 38.394C23.7938 39.0957 23.8435 39.7911 23.8745 40.4865C23.8869 40.6728 23.8373 40.7722 23.62 40.7163C23.4896 40.679 23.353 40.648 23.2163 40.648C22.1235 40.6418 21.0307 40.648 19.9379 40.6418C19.764 40.6418 19.7268 40.7411 19.7019 40.8715C19.5405 41.6415 19.4039 42.4176 19.2114 43.1814C18.8388 44.6716 18.4228 46.1556 18.0441 47.6396C17.9882 47.8693 17.8826 47.8942 17.6901 47.8383C16.9078 47.6148 16.1192 47.3974 15.3368 47.1739C13.8901 46.7517 12.4433 46.3232 10.9966 45.9134C10.9158 45.8886 10.7606 45.932 10.7234 45.9941C10.1149 47.0559 9.33869 48.0246 8.91026 49.1919C8.82333 49.4216 8.72398 49.4154 8.55012 49.2664C8.3328 49.0739 8.10306 48.8876 7.84848 48.7448C7.1282 48.335 6.40172 47.9376 5.66903 47.5464C5.25922 47.3291 5.25302 47.3353 4.94876 47.7079C4.91772 47.7451 4.88046 47.7762 4.84942 47.8134C4.0298 48.6641 3.21017 49.5148 2.38434 50.3592C1.69511 51.0671 0.999683 51.7625 0.316669 52.4766C0.22974 52.5635 0.161434 52.6132 0.0869214 52.6132L0.0869214 52.1972C0.198688 52.1972 0.304248 52.0854 0.533992 51.8619C1.44054 50.9553 2.3533 50.0612 3.24743 49.1422C3.84972 48.5213 4.41477 47.8631 5.03569 47.1801C4.62588 46.9566 4.25954 46.7517 3.88698 46.5654C3.82489 46.5343 3.68829 46.553 3.64482 46.6026C2.91213 47.385 2.18565 48.1674 1.45296 48.9559C1.07419 49.3658 0.689224 49.7694 0.316669 50.1854C0.235946 50.2785 0.161434 50.3282 0.0869214 50.322L0.0869214 49.9991C1.217 48.7945 2.33467 47.5961 3.48338 46.3667C3.04874 46.0935 2.61409 45.8265 2.17944 45.5595C1.70133 46.1432 1.22322 46.7206 0.751316 47.2919C0.602295 47.4719 0.45327 47.652 0.291832 47.8197C0.223529 47.888 0.155224 47.9252 0.0931279 47.919L0.0931279 47.6272C0.285618 47.4161 0.478103 47.2298 0.645755 47.0249C1.01831 46.5778 1.38465 46.1183 1.751 45.6651C1.89381 45.4912 1.98695 45.3608 1.71996 45.1807C1.45296 45.0069 1.23563 44.7523 0.993469 44.5288C0.763729 44.8206 0.533985 45.1 0.310451 45.3856C0.235943 45.485 0.16143 45.5284 0.0931279 45.5284L0.0931279 45.2863C0.341499 44.9448 0.546409 44.6529 0.751316 44.3611C0.776153 44.3239 0.788566 44.2431 0.763733 44.2059C0.533989 43.7091 0.298034 43.2124 0.0931279 42.7777C0.0931279 42.7777 0.0931279 42.7778 0.0931279 42.784L0.0931279 40.2195C0.391174 40.2133 0.68301 40.1574 0.987262 40.0643C1.85035 39.7973 2.62651 39.3937 3.2971 38.7914C3.80626 38.3319 4.12914 37.7421 4.41477 37.1273C4.71902 36.4754 4.7004 35.7861 4.66314 35.0783C4.32784 35.0783 3.99875 35.0783 3.65103 35.0783C3.57031 35.4074 3.51442 35.7489 3.40887 36.078C2.89971 37.6117 1.87519 38.6051 0.298038 38.9715C0.229736 38.9839 0.167648 38.9963 0.0993459 39.0025L0.0993459 38.7045C0.55883 38.7107 0.968635 38.5244 1.35982 38.2823C2.36571 37.6551 3.05494 36.7734 3.27227 35.575C3.30331 35.4074 3.32194 35.2335 3.35298 35.0286C2.9618 34.9417 2.60788 34.861 2.2229 34.774C2.17944 34.9417 2.12977 35.1031 2.0863 35.2708C1.88761 36.0159 1.50884 36.6368 0.819614 37.0156C0.571247 37.1522 0.329086 37.2267 0.0993459 37.2391L0.0993459 36.9783C0.478107 36.9845 0.819614 36.7672 1.19838 36.3822C1.62682 35.9476 1.81309 35.3763 1.93107 34.7865C1.94349 34.7244 1.8876 34.625 1.83172 34.5878C1.60197 34.4263 1.36603 34.2773 1.16733 34.1469C1.00589 34.5008 0.881706 34.8672 0.6768 35.1901C0.521568 35.4384 0.310459 35.5626 0.105552 35.5626L0.105552 35.1776C0.198692 35.1714 0.291832 35.1218 0.378761 35.0348C0.732689 34.6871 0.844448 34.24 0.838238 33.7806C0.838238 33.5757 0.627125 33.377 0.521568 33.1658C0.366337 32.8554 0.223526 32.5387 0.111759 32.309C0.105552 32.3152 0.105552 32.3214 0.0993459 32.3276L0.0993459 30.4089C0.918964 30.4089 1.59577 29.9929 2.11113 29.3844C2.66376 28.7324 2.8252 27.9563 2.6265 27.1056C2.58304 26.9256 2.52716 26.8573 2.34088 26.8697C2.16702 26.8821 1.99316 26.8697 1.80689 26.8697C1.80689 27.1926 1.81309 27.472 1.80689 27.7514C1.78205 28.7449 1.17975 29.4155 0.45327 29.6328C0.335293 29.67 0.211105 29.6825 0.093128 29.6887L0.093128 29.403C0.57745 29.403 1.04314 29.0988 1.30393 28.6207C1.60818 28.0556 1.58335 27.4409 1.49643 26.8262C1.49022 26.7827 1.43433 26.7331 1.39086 26.702C1.16733 26.553 0.937588 26.4102 0.683006 26.2487C0.732681 26.553 0.813408 26.8448 0.819614 27.1367C0.825825 27.4409 0.800987 27.7576 0.726478 28.0494C0.658176 28.3102 0.353924 28.4965 0.0993459 28.4903L0.0993459 28.1984C0.22974 28.1984 0.409805 28.0494 0.478107 27.919C0.558826 27.7638 0.577453 27.5589 0.571247 27.385C0.546409 26.7765 0.409805 26.1929 0.142807 25.6465C0.136596 25.634 0.124176 25.6278 0.093128 25.6216L0.093128 24.3673C0.117965 24.3673 0.149013 24.3673 0.180061 24.3673C0.763729 24.3487 1.30393 23.7899 1.32877 23.2062C1.33498 23.1007 1.36602 22.9951 1.36602 22.8895C1.37223 22.6722 1.35982 22.4797 1.0804 22.4052C0.627125 22.2873 0.298042 22.0016 0.099346 21.5235L0.099346 21.5297L0.099346 20.4183C0.099346 20.4183 0.0993422 20.4183 0.105552 20.4183C0.198692 20.4183 0.322872 20.2941 0.366337 20.1947C0.68301 19.4869 0.440853 18.8473 0.099346 18.1457L0.099346 15.7738C0.099346 15.78 0.105553 15.7862 0.105553 15.7924C0.403595 15.097 0.683014 14.4822 0.378761 13.793C0.329086 13.675 0.198692 13.5881 0.105553 13.4888C0.0993422 13.495 0.0993384 13.495 0.0931281 13.5012L0.0931281 12.3897C0.0931281 12.3897 0.0931357 12.3959 0.099346 12.3959C0.304249 11.9116 0.658176 11.6384 1.12387 11.4956C1.21701 11.4645 1.32877 11.3404 1.33498 11.2472C1.37844 10.7877 1.27289 10.1544 0.856869 9.83151C0.627128 9.65145 0.360126 9.57072 0.0931281 9.57072L0.0931281 8.31646C0.130386 8.32267 0.161434 8.32267 0.198692 8.32888C0.322876 7.77625 0.471893 7.22363 0.558823 6.6648C0.596077 6.44748 0.552612 6.18669 0.465683 5.98178C0.416012 5.8576 0.229732 5.73341 0.0931281 5.721L0.0931281 5.41053C0.105549 5.41053 0.111759 5.41053 0.124176 5.41053C0.391174 5.42295 0.701637 5.64028 0.745102 5.94453C0.800983 6.31708 0.782356 6.70827 0.776146 7.08703C0.769935 7.27331 0.714054 7.46579 0.683006 7.65828C0.925167 7.50305 1.17975 7.38507 1.37224 7.205C1.484 7.09945 1.51505 6.88833 1.53368 6.72068C1.60819 5.98178 1.50263 5.30498 0.887916 4.79582C0.633335 4.58471 0.366344 4.49777 0.0993461 4.50398L0.0993461 4.22457C0.440853 4.21215 0.745102 4.35496 1.02452 4.56608C1.56472 4.97589 1.81309 5.54093 1.81309 6.21774C1.81309 6.47852 1.81309 6.73931 1.81309 7.04356C2.018 7.04356 2.24153 7.05598 2.46506 7.03736C2.52095 7.03115 2.59546 6.93801 2.61409 6.86971C2.96181 5.57818 2.29742 4.3115 1.24805 3.85822C0.912754 3.71541 0.565033 3.5043 0.217316 3.49188C0.180057 3.49188 0.1366 3.49188 0.0993461 3.49188L0.0993461 1.56701C0.0993461 1.57322 0.105553 1.57943 0.105553 1.57943C0.260784 1.27518 0.434643 0.86537 0.664383 0.486605C0.819614 0.238236 0.900337 -0.0039252 0.78857 -0.270923C0.670593 -0.562757 0.533989 -0.854591 0.36013 -1.11538C0.285618 -1.22094 0.192482 -1.27061 0.0993461 -1.25819L0.0993461 -1.64938C0.310459 -1.64938 0.521572 -1.50656 0.701637 -1.22094C0.894127 -0.916683 1.0121 -0.562755 1.16113 -0.227457C1.39087 -0.382688 1.66407 -0.562755 1.9559 -0.755243C1.76963 -1.69905 1.44674 -2.54971 0.465683 -2.97815C0.341499 -3.03403 0.22353 -3.05887 0.105553 -3.05887L0.105553 -3.33208C0.527782 -3.3445 0.881706 -3.10854 1.20459 -2.83534C1.67649 -2.43795 1.98074 -1.91637 2.09872 -1.30166C2.12976 -1.15264 2.18565 -1.00361 2.22911 -0.854591C2.61408 -0.947729 2.97422 -1.02845 3.34677 -1.11538C3.24743 -2.63044 2.47128 -3.69842 1.24805 -4.44974C0.863083 -4.68569 0.478107 -4.79125 0.105553 -4.78504L0.105553 -5.06446C0.571247 -5.07067 0.999683 -4.8906 1.38465 -4.67327C2.285 -4.15791 2.97422 -3.4128 3.34056 -2.42553C3.45854 -2.10265 3.51443 -1.74872 3.58273 -1.40721C3.61377 -1.23335 3.66344 -1.1278 3.87456 -1.14022C4.13535 -1.15884 4.39614 -1.14643 4.65072 -1.14643C4.84941 -2.46279 4.42718 -3.56182 3.61998 -4.53046C2.81278 -5.50531 1.70753 -5.98342 0.521568 -6.27526C0.391174 -6.3063 0.248367 -6.31872 0.105553 -6.31251L0.105553 -8.87072C0.105553 -8.87072 0.105553 -8.87072 0.105553 -8.86451C0.304249 -9.29295 0.533989 -9.77727 0.757523 -10.2616C0.78236 -10.3175 0.78236 -10.423 0.751316 -10.4727C0.55883 -10.7645 0.35392 -11.044 0.111759 -11.3793C0.111759 -11.3793 0.111763 -11.373 0.105553 -11.373L0.105553 -11.6338C0.211109 -11.6338 0.310455 -11.4972 0.552616 -11.224C0.720264 -11.0377 0.850658 -10.8142 0.987263 -10.6217C1.31014 -10.9136 1.62061 -11.1868 1.96833 -11.5034C1.3474 -12.2548 0.745106 -12.9874 0.0993461 -13.7698L0.0993461 -14.043C0.167648 -14.043 0.235943 -13.9996 0.304245 -13.9188C0.931377 -13.1737 1.55851 -12.4286 2.19806 -11.6649C2.61408 -11.9195 3.04252 -12.1865 3.4958 -12.4659C2.3533 -13.6891 1.23563 -14.8813 0.105553 -16.0983L0.105553 -16.4336C0.192482 -16.4336 0.279407 -16.3529 0.434639 -16.179C1.16733 -15.378 1.90623 -14.5894 2.64513 -13.7946C2.96181 -13.4531 3.28468 -13.1178 3.59514 -12.7639C3.70691 -12.6335 3.80005 -12.5776 3.96149 -12.677C4.303 -12.8819 4.65693 -13.0682 5.08536 -13.3103C3.40887 -15.0365 1.77584 -16.7192 0.105553 -18.4454L0.105553 -18.7C0.161434 -18.7 0.242153 -18.6441 0.341499 -18.5447ZM17.7771 -13.6953C15.4921 -13.0433 13.2257 -12.4038 10.9158 -11.7456C11.1456 -11.342 11.3257 -11.0191 11.5057 -10.7024C11.6113 -10.5224 11.7355 -10.4603 11.959 -10.5348C13.4554 -11.0067 14.9518 -11.4538 16.4483 -11.9132C16.8208 -12.025 16.8395 -12.0064 16.9202 -11.6276C17.1499 -10.6031 17.3859 -9.58478 17.6218 -8.56026C17.7398 -8.0511 17.864 -7.53574 17.9758 -7.02658C18.0068 -6.87135 18.0565 -6.77821 18.2303 -6.78442C18.6215 -6.79063 19.0065 -6.78442 19.466 -6.78442C19.0375 -9.1253 18.3545 -11.3668 17.7771 -13.6953ZM13.1139 -7.36808C13.3561 -7.47364 13.6044 -7.58541 13.8466 -7.69717C14.3682 -7.93934 14.4303 -7.9145 14.542 -7.36188C14.5979 -7.07625 14.6166 -6.78442 14.6476 -6.49258C15.0139 -6.56709 15.3741 -6.62918 15.7218 -6.72232C15.7963 -6.74095 15.9019 -6.87135 15.8894 -6.93344C15.7528 -7.80273 15.5914 -8.67203 15.4362 -9.54132C15.4362 -9.55374 15.4113 -9.56616 15.3555 -9.62204C14.4862 -9.29916 13.5982 -8.96386 12.6979 -8.62856C12.8469 -8.1815 12.9711 -7.79652 13.1139 -7.36808ZM13.0084 -5.37492C13.2629 -5.57361 13.4927 -5.85924 13.7907 -5.97721C14.4241 -6.23179 14.393 -6.69749 14.3123 -7.21906C14.2999 -7.3122 14.2813 -7.41155 14.2502 -7.57299C13.8839 -7.41155 13.5361 -7.25632 13.1884 -7.09488C13.145 -7.07625 13.1325 -6.9769 13.1263 -6.91481C13.0829 -6.40565 13.0456 -5.89649 13.0084 -5.37492ZM13.7783 -9.31779C14.2999 -9.51027 14.8215 -9.68413 15.343 -9.87041C15.5541 -9.94492 15.6597 -9.88904 15.697 -9.64688C15.7715 -9.16876 15.8894 -8.69686 15.9764 -8.21875C16.0571 -7.74064 16.1192 -7.26253 16.1875 -6.75958C16.6966 -6.78442 17.1996 -6.80304 17.7274 -6.82788C17.3548 -8.44228 16.9823 -10.0443 16.6097 -11.6649C15.0388 -11.1868 13.4616 -10.7024 11.8534 -10.2119C12.1018 -9.75243 12.3316 -9.31779 12.5799 -8.8583C12.9897 -9.01353 13.3809 -9.17497 13.7783 -9.31779ZM23.5268 -1.53761C23.4958 -2.84155 23.4771 -4.1517 23.4709 -5.45564C23.4709 -5.80336 23.5206 -6.15107 23.5454 -6.48016C22.3284 -6.48016 21.1052 -6.48016 19.882 -6.48016C19.4908 -6.48016 19.0996 -6.47395 18.7084 -6.48016C18.4352 -6.48637 18.1682 -6.52984 17.895 -6.52984C17.3921 -6.53605 16.8829 -6.54846 16.38 -6.51121C15.9764 -6.48016 15.5728 -6.39323 15.1754 -6.31872C14.4489 -6.18212 13.8901 -5.74747 13.3312 -5.30041C12.6979 -4.79125 12.4495 -4.02751 12.0273 -3.4128C12.1949 -3.23273 12.3502 -3.05887 12.524 -2.86638C12.7476 -3.18926 12.9338 -3.52456 13.1822 -3.79777C14.0515 -4.75399 15.0947 -5.3625 16.4048 -5.5612C17.4604 -5.72264 18.516 -5.71022 19.5715 -5.73505C20.534 -5.75989 21.4964 -5.67296 22.4588 -5.64192C22.6203 -5.63571 22.6824 -5.58603 22.6886 -5.42459C22.6886 -5.17001 22.7258 -4.92164 22.732 -4.66707C22.7507 -3.54319 22.7879 -2.42553 22.7693 -1.30166C22.7507 -0.0846462 22.6575 1.13857 22.1111 2.25003C21.9062 2.66605 21.5523 3.01377 21.2604 3.38011C21.1238 3.55397 20.9872 3.73404 20.8196 3.87685C20.5402 4.10038 20.2359 4.29287 19.9068 4.52882C20.0993 4.69647 20.2732 4.8517 20.4657 5.01314C21.0742 4.60333 21.8255 4.32392 22.3657 3.7092C23.0611 2.91442 23.4523 2.01408 23.5144 0.964716C23.5454 0.461767 23.5951 -0.0411796 23.6013 -0.544128C23.62 -0.885637 23.533 -1.20852 23.5268 -1.53761ZM4.94876 -6.76579C5.27785 -7.00174 5.56347 -7.16318 5.79943 -7.39292C5.89256 -7.48606 5.91119 -7.70338 5.89256 -7.85861C5.78701 -8.57889 5.58211 -9.28674 5.56348 -10.007C5.53864 -10.8763 5.69387 -11.7332 6.29617 -12.4348C6.30858 -12.4472 6.30238 -12.4721 6.30859 -12.5776C5.70008 -12.1802 5.12883 -11.8263 4.58242 -11.4351C4.12914 -11.106 4.036 -10.6093 4.17261 -10.0939C4.30921 -9.57858 4.5017 -9.07563 4.68176 -8.57268C4.88046 -7.99522 5.12883 -7.43639 4.94876 -6.76579ZM5.8429 -9.60341C5.88015 -9.03216 6.06643 -8.46091 6.2465 -7.90829C6.3831 -7.47364 6.76186 -7.34325 7.10337 -7.59783C8.3328 -8.50438 9.14 -9.68413 9.15862 -11.2489C9.16483 -12.0933 8.79228 -12.8508 8.27071 -13.5152C6.40173 -12.7267 5.70629 -11.5283 5.8429 -9.60341ZM8.11548 -8.14424C7.88573 -7.88966 7.64978 -7.6475 7.41383 -7.39913C7.27102 -7.25011 7.22135 -7.1073 7.33311 -6.90239C7.46972 -6.64781 7.56906 -6.37461 7.71808 -6.0331C8.07201 -6.99553 8.91646 -7.41155 9.56223 -8.02006C9.78576 -8.23117 10.0279 -8.43607 10.2204 -8.68444C10.5743 -9.14393 10.5433 -9.65309 10.3011 -10.1436C10.0465 -10.6652 9.75471 -11.1681 9.46288 -11.7083C9.43804 -11.3047 9.45046 -10.9446 9.38837 -10.6031C9.2083 -9.65929 8.75503 -8.84588 8.11548 -8.14424ZM8.86679 -7.1073C8.37005 -6.72232 8.03476 -6.23179 7.83606 -5.65433C7.77397 -5.46806 7.78639 -5.25073 7.76776 -5.05204C7.7926 -5.0272 7.81122 -5.00236 7.83606 -4.97753C8.82333 -5.50531 9.82302 -6.02068 10.7979 -6.57951C11.0214 -6.7037 11.1828 -6.95828 11.3443 -7.16939C11.4747 -7.34325 11.4436 -7.54194 11.3629 -7.74685C11.2015 -8.1815 11.0587 -8.62235 10.891 -9.10667C10.3446 -8.24359 9.59948 -7.67855 8.86679 -7.1073ZM8.58117 -5.10792C8.08443 -4.91543 7.65599 -4.6236 7.37658 -4.13307C7.20893 -3.82882 6.97297 -3.56803 6.75565 -3.26378C7.15925 -3.43143 7.53181 -3.60528 7.92299 -3.74189C8.49424 -3.94679 9.09032 -3.97163 9.68641 -3.92196C10.2515 -3.87849 10.5743 -4.17653 10.8475 -4.60497C11.1456 -5.07687 11.2946 -5.59224 11.3629 -6.14486C11.3877 -6.35598 11.4188 -6.56088 11.4436 -6.77821C10.624 -5.98342 9.62432 -5.51773 8.58117 -5.10792ZM10.6364 -3.5494C9.50014 -3.76052 8.38247 -3.75431 7.3269 -3.22031C6.37068 -2.72978 5.55727 -2.08402 5.20955 -0.984985C5.49517 -0.823545 5.78701 -0.655895 6.03538 -0.519293C6.42035 -0.885637 6.75565 -1.27061 7.15304 -1.57486C7.75534 -2.03435 8.46319 -2.30134 9.22072 -2.37585C9.56223 -2.4069 9.91615 -2.40069 10.2639 -2.37585C11.2139 -2.30134 11.7355 -1.65558 12.1515 -0.898056C12.493 -0.277132 12.5923 0.405884 12.6358 1.09511C12.6793 1.70983 12.493 2.28728 12.2695 2.85233C12.2508 2.902 12.226 2.95788 12.2012 3.02618C12.4992 3.20625 12.791 3.3739 13.0767 3.54776C14.275 2.15689 14.2067 -0.128109 13.1946 -1.59349C12.9028 -2.01572 12.5737 -2.41932 12.2446 -2.8105C11.8286 -3.29482 11.2387 -3.43763 10.6364 -3.5494ZM2.02421 15.0162C2.42781 14.8734 2.80658 14.7617 3.20397 14.9169C3.25985 14.9355 3.34678 14.9169 3.39645 14.8796C3.93045 14.4947 4.22228 14.0538 4.02358 13.3894C3.98012 13.2342 3.77521 13.0541 3.61377 13.0044C3.04253 12.843 2.46506 13.1162 2.17323 13.6254C2.13597 13.6937 2.11734 13.7992 2.14218 13.8737C2.27258 14.2587 2.16081 14.6188 2.02421 15.0162ZM2.13597 20.0457C2.11113 20.1202 2.14839 20.2382 2.19186 20.3127C2.51474 20.8219 3.04253 21.0578 3.61377 20.9026C3.78143 20.8529 3.98012 20.6604 4.036 20.4928C4.20986 19.9464 3.90561 19.3068 3.39645 19.0274C3.34678 19.0026 3.27227 18.9653 3.23501 18.9839C2.8252 19.1826 2.44644 19.0212 2.03042 18.9032C2.1546 19.3006 2.27879 19.6545 2.13597 20.0457ZM4.68176 42.4797C4.52653 42.9019 4.35888 43.318 4.2347 43.7464C3.90561 44.8765 4.33405 45.2118 5.01706 45.6775C5.42066 45.9507 5.8491 46.1804 6.3148 46.3853C6.23408 46.2798 6.13473 46.1866 6.07264 46.0687C5.63178 45.2304 5.45171 44.3363 5.58831 43.3925C5.66903 42.8274 5.81185 42.2686 5.92361 41.7098C5.96087 41.5235 5.94224 41.3807 5.75596 41.2689C5.49518 41.1075 5.25922 40.9026 4.95497 40.6728C5.11641 41.3496 4.88667 41.9147 4.68176 42.4797ZM6.10368 45.5098C6.37068 46.2487 6.97918 46.702 7.60631 47.1242C7.7988 47.2546 8.02233 47.3353 8.25208 47.4533C8.82954 46.6772 9.2083 45.8389 9.15242 44.8765C9.12758 44.4605 8.97856 44.0444 8.82333 43.647C8.50045 42.8461 7.97887 42.1817 7.30207 41.6477C6.76807 41.2316 6.42656 41.3186 6.1844 41.9457C5.72492 43.1193 5.67524 44.3176 6.10368 45.5098ZM7.44488 41.3496C7.9292 41.9209 8.43214 42.4797 8.84816 43.0944C9.23935 43.6781 9.41942 44.3673 9.45046 45.0752C9.45667 45.2366 9.41321 45.398 9.38216 45.6278C9.46909 45.5098 9.53118 45.4415 9.56844 45.367C9.82923 44.8703 10.1086 44.3797 10.3446 43.8706C10.6426 43.2372 10.4005 42.7032 9.93478 42.2686C9.44425 41.8091 8.90405 41.4055 8.41973 40.946C8.14032 40.679 7.91678 40.3437 7.66841 40.0333C7.56906 40.263 7.47593 40.53 7.33932 40.7722C7.20893 41.0205 7.28964 41.1696 7.44488 41.3496ZM10.8972 43.0199C11.0897 42.4425 11.3381 41.9271 11.425 41.3807C11.4809 41.0267 11.158 40.7349 10.86 40.5176C10.1397 39.9898 9.35112 39.5986 8.51908 39.2757C8.27692 39.1826 8.04717 39.0584 7.77397 38.928C7.76155 39.9277 8.30175 40.5797 9.02202 41.1447C9.70504 41.6725 10.3881 42.2127 10.8972 43.0199ZM8.94752 39.1826C9.84786 39.462 10.6737 39.9401 11.4126 40.6604C11.3753 40.0208 11.3008 39.4434 11.0524 38.9094C10.9655 38.7231 10.86 38.5493 10.7482 38.3754C10.4998 38.0091 10.1707 37.7917 9.69262 37.8228C8.6681 37.8973 7.69324 37.711 6.79291 37.1584C7.35795 38.0091 7.87332 38.8473 8.94752 39.1826ZM8.57496 37.5185C9.53118 37.6986 10.475 37.5558 11.394 37.2701C11.6299 37.1956 11.8721 37.0652 12.0459 36.8976C12.9152 36.0469 13.6417 35.0969 13.8652 33.8675C14.0701 32.7498 13.9956 31.657 13.3064 30.6821C13.2319 30.5766 13.1698 30.471 13.0891 30.3468C12.7786 30.5269 12.4992 30.6946 12.257 30.8436C12.375 31.3465 12.5178 31.8246 12.5985 32.309C12.7103 32.9796 12.5799 33.644 12.3688 34.2835C12.1949 34.8051 11.9093 35.2646 11.5368 35.6744C11.1704 36.0842 10.6985 36.2456 10.1894 36.2891C8.51287 36.4381 7.17167 35.8296 6.15956 34.4822C6.14094 34.4574 6.12231 34.4387 6.09126 34.4015C5.79943 34.5691 5.50139 34.7306 5.19713 34.9044C5.82427 36.4319 7.01023 37.2267 8.57496 37.5185ZM14.896 35.6868C14.9643 35.159 15.0636 34.6436 14.8463 34.1407C14.6662 33.7185 14.4613 33.3149 14.3061 32.9734C14.1633 33.557 14.0267 34.209 13.8342 34.8423C13.7473 35.1342 13.5734 35.4136 13.3871 35.662C13.027 36.1463 13.1512 36.5996 13.3933 37.0777C13.7348 37.7545 14.3371 38.1705 14.9332 38.6424C14.7345 37.6427 14.7656 36.6616 14.896 35.6868ZM20.9686 26.584C20.95 27.056 21.1549 27.3602 21.5088 27.6148C22.1794 28.0991 22.9556 28.2233 23.8062 28.2978C23.0301 27.4844 22.583 26.5468 22.198 25.5719C21.9745 25.0069 21.6703 24.5164 21.1114 24.2121C20.8258 24.0569 20.5836 23.8334 20.3601 23.6719C20.5277 24.1811 20.7513 24.7026 20.8755 25.2553C20.9748 25.6837 20.9872 26.1432 20.9686 26.584ZM20.2794 10.3096C21.0555 9.69491 21.9372 9.29752 22.2415 8.26678C22.4775 7.472 23.1667 6.19911 23.8062 5.62786C22.8624 5.67132 22.3657 5.79551 21.7137 6.16185C21.2294 6.43506 20.9376 6.78898 20.9686 7.4037C21.0245 8.4096 20.9562 8.98706 20.2794 10.3096ZM22.4402 -5.34387C21.4716 -5.48668 20.5588 -5.39976 19.764 -4.88439C19.0375 -4.41249 18.5408 -3.71084 18.2365 -2.89743C18.0565 -2.41932 17.9261 -1.91637 17.8578 -1.40721C17.8019 -0.972567 18.0254 -0.761454 18.4725 -0.798708C19.4101 -0.86701 20.2359 -1.23956 20.9997 -1.77356C22.0801 -2.53109 22.4961 -3.59287 22.434 -4.87818C22.434 -5.03341 22.4402 -5.18243 22.4402 -5.34387ZM14.9456 -4.72916C14.2067 -4.16412 13.4803 -3.63633 13.2195 -2.70495C13.1387 -2.41311 13.1388 -2.15232 13.325 -1.87912C13.9273 -1.00982 14.2378 -0.0411796 14.2254 1.07648C14.7345 0.0954228 15.1443 -0.817335 14.8898 -1.94742C14.6911 -2.83534 14.7345 -3.77293 14.9456 -4.72916ZM14.1695 2.19415C14.0453 2.54807 13.9149 2.902 13.7907 3.26213C14.5172 2.99514 15.2437 2.74677 15.9515 2.46114C16.9016 2.07617 17.5535 1.40557 17.7957 0.387257C17.8516 0.157515 17.8143 -0.0970649 17.7833 -0.339226C17.746 -0.618641 17.5349 -0.742824 17.2617 -0.761452C16.3738 -0.829754 15.6783 -0.457199 15.1195 0.20719C14.6228 0.784649 14.4054 1.49871 14.1695 2.19415ZM15.076 -2.56834C15.0947 -1.95363 15.2126 -1.33891 15.2872 -0.70557C15.9143 -1.01603 16.262 -1.56865 16.4296 -2.22062C16.5663 -2.75462 16.6221 -3.31345 16.7463 -3.85365C16.8643 -4.37523 17.0257 -4.8906 17.1748 -5.41838C16.6842 -5.32524 16.1378 -5.26936 15.6349 -5.08929C15.4238 -5.01478 15.2251 -4.67327 15.1878 -4.43111C15.0885 -3.8164 15.0574 -3.18927 15.076 -2.56834ZM17.1065 -4.30072C16.9947 -3.8847 16.9326 -3.45005 16.8581 -3.01541C16.7463 -2.37586 16.678 -1.72388 16.1937 -1.15884C16.5973 -1.18989 16.945 -1.1961 17.2741 -1.2644C17.3797 -1.28924 17.4852 -1.48173 17.5225 -1.61833C17.7895 -2.58076 18.0875 -3.52456 18.7519 -4.30072C19.1679 -4.78504 19.5964 -5.25073 20.2545 -5.41217C20.2483 -5.44322 20.2421 -5.48048 20.2359 -5.51152C19.5715 -5.46806 18.9133 -5.4308 18.249 -5.38113C17.5846 -5.33145 17.2679 -4.87818 17.1065 -4.30072ZM19.1617 -0.624851C18.3111 -0.370272 18.3111 -0.357853 18.2303 0.523859C18.2241 0.60458 18.2117 0.691511 18.1993 0.828114C19.1307 0.126469 20.2359 0.232025 21.2356 -0.0287628C22.0552 -0.246086 22.3719 -0.581385 22.4837 -1.40721C22.5023 -1.55623 22.5147 -1.71147 22.5147 -1.8667C22.5209 -2.31376 22.5147 -2.76083 22.5147 -3.24515C21.8503 -1.74251 20.6085 -1.05329 19.1617 -0.624851ZM19.6895 0.517653C19.112 0.604582 18.6091 0.834322 18.1682 1.20688C17.9944 1.3559 17.8764 1.5608 17.6715 1.81538C18.7581 1.87748 19.7578 1.95819 20.7513 1.97061C21.1052 1.97682 21.4653 1.8278 21.8131 1.72845C22.0242 1.67257 22.1422 1.51734 22.1794 1.2876C22.2601 0.803276 22.3719 0.318956 22.4775 -0.202621C21.5771 0.263073 20.6271 0.37484 19.6895 0.517653ZM19.4287 2.21277C18.9941 2.19415 18.5656 2.10101 18.131 2.06375C17.7336 2.0265 17.3672 2.13826 17.0133 2.32454C16.7091 2.48598 16.3738 2.61017 15.995 2.77781C16.3489 2.81507 16.647 2.83991 16.9388 2.88337C17.6156 2.98272 18.2365 3.2373 18.783 3.63469C19.199 3.93273 19.6212 3.92031 20.0496 3.72783C20.8072 3.39253 21.2915 2.75919 21.7944 2.07617C20.9624 2.31212 20.1924 2.25003 19.4287 2.21277ZM19.4784 4.46052C18.7209 3.8458 17.9199 3.32423 16.9388 3.16279C15.6908 2.95788 14.5172 3.11311 13.4927 3.9762C13.6665 4.26182 13.8342 4.55366 13.9646 4.77098C14.6166 4.64059 15.2188 4.42326 15.8211 4.41706C16.8643 4.40464 17.8516 4.68405 18.6836 5.39191C19.3604 5.96937 19.4846 6.72068 19.4598 7.53409C19.4411 8.26058 19.2238 8.95601 18.8388 9.5521C18.4973 10.0799 18.0254 10.5269 17.5784 11.0361C17.7025 11.2534 17.864 11.5453 18.0316 11.8371C19.6709 11.3155 20.7761 9.27268 20.6954 7.85697C20.6706 7.36024 20.6209 6.86971 20.5774 6.37296C20.5091 5.57197 20.0993 4.96347 19.4784 4.46052ZM11.543 13.526C11.5306 13.5384 11.5368 13.5633 11.5181 13.6316C12.2074 13.4639 12.8718 13.3149 13.5237 13.1348C13.6169 13.11 13.7038 12.9486 13.7224 12.8306C13.8528 12.0296 14.3247 11.5018 15.0885 11.3279C15.8832 11.1479 16.7525 11.4521 17.0133 12.3773C17.3672 13.6316 16.2061 14.563 15.1381 14.3953C14.6103 14.3084 14.2192 14.0476 13.8963 13.6502C13.8466 13.5881 13.741 13.5136 13.679 13.526C13.0021 13.7123 12.3253 13.9234 11.6423 14.1221C11.9963 14.327 12.3502 14.4884 12.6606 14.712C13.3064 15.1839 13.5796 15.8979 13.828 16.6244C13.8528 16.6989 13.9397 16.8169 13.9832 16.8169C14.5296 16.7548 15.1009 16.7486 15.6162 16.5747C16.9947 16.1091 17.7646 15.1094 17.8702 13.6502C17.9012 13.1721 17.9261 12.6691 17.8081 12.2097C17.6901 11.7626 17.4355 11.3341 17.1623 10.9554C16.796 10.4524 16.3738 9.97433 15.7777 9.71975C15.4858 9.59556 15.1754 9.50863 14.8587 9.46517C13.9211 9.34719 13.0642 9.63282 12.2633 10.0985C12.1949 10.1358 12.1204 10.2724 12.1391 10.3407C12.4309 11.5018 12.3688 12.5822 11.543 13.526ZM4.3713 12.6691C4.8432 12.427 5.31511 12.3214 5.82426 12.4021C5.88636 12.4146 5.9857 12.3649 6.02296 12.309C6.21544 12.042 6.42035 11.7812 6.57558 11.4894C6.73702 11.1789 6.65009 10.856 6.39551 10.6201C6.14714 10.3841 5.8491 10.2972 5.54485 10.4711C5.26543 10.6263 5.01085 10.8188 4.75006 11.0051C4.69418 11.0485 4.63209 11.1417 4.64451 11.1975C4.71902 11.7129 4.61967 12.1972 4.3713 12.6691ZM5.01706 12.7064C4.89909 12.7499 4.78111 12.7995 4.66935 12.8554C4.24712 13.0665 4.25332 13.0665 4.34026 13.5384C4.41477 13.9296 4.29058 14.2835 4.04222 14.6747C4.61347 14.594 5.02327 14.8113 5.38962 15.1466C5.43308 15.1901 5.52001 15.2273 5.5759 15.2087C6.33342 15.0286 6.83637 14.1221 6.58179 13.4018C6.42656 12.9734 5.73734 12.4332 5.01706 12.7064ZM4.28437 20.6356C4.26574 20.6977 4.303 20.8157 4.35268 20.8529C4.93014 21.2938 5.6504 21.4863 6.26512 20.9274C6.76186 20.4742 6.79912 19.7166 6.3148 19.2137C6.13473 19.0274 5.9112 18.8784 5.68766 18.7418C5.61315 18.6983 5.43929 18.7169 5.37099 18.779C5.00464 19.1019 4.60105 19.3006 4.04222 19.2385C4.3651 19.7104 4.42718 20.1575 4.28437 20.6356ZM4.65072 22.666C4.64451 22.7405 4.68177 22.8523 4.73144 22.8958C4.98602 23.0882 5.24059 23.2869 5.52001 23.4298C5.86773 23.6098 6.14715 23.5415 6.41414 23.2683C6.66251 23.0137 6.73082 22.7219 6.55696 22.3928C6.40794 22.1134 6.20923 21.8588 6.02296 21.6042C5.9857 21.5484 5.88636 21.4987 5.82426 21.5111C5.29027 21.6167 4.81216 21.4614 4.34026 21.2193C4.61346 21.685 4.7066 22.1569 4.65072 22.666ZM12.2695 22.548C12.2198 22.8895 12.1701 23.2311 12.1391 23.5726C12.1329 23.6471 12.1949 23.7588 12.257 23.7961C13.2319 24.386 14.2875 24.6219 15.3989 24.3363C15.7591 24.2432 16.113 24.0134 16.4048 23.7713C16.7463 23.4856 17.0257 23.1255 17.3052 22.7778C17.9199 22.0016 18.0689 21.1075 17.8578 20.1575C17.7584 19.7166 17.6405 19.2696 17.479 18.8473C17.2927 18.3568 16.8829 18.0588 16.4607 17.7607C15.7094 17.2205 14.8587 17.1646 13.9956 17.0963C13.946 17.0901 13.8466 17.1646 13.8342 17.2143C13.5113 18.4127 12.9028 19.3565 11.6361 19.7849C12.3067 19.9836 12.9711 20.1885 13.6479 20.3748C13.7224 20.3934 13.859 20.3189 13.9149 20.2444C14.4241 19.6111 15.0822 19.4 15.8646 19.5552C16.4545 19.6732 16.9885 20.35 17.0568 20.9336C17.1065 21.3807 16.9761 21.7533 16.7215 22.0948C16.2744 22.6909 15.1816 22.8212 14.5545 22.368C14.1136 22.0451 13.7845 21.6539 13.7348 21.0827C13.7162 20.8467 13.5796 20.7722 13.3623 20.7287C12.8097 20.617 12.2695 20.4679 11.7168 20.3376C11.661 20.3251 11.6051 20.3189 11.4933 20.3003C11.6423 20.5238 11.7603 20.7039 11.8783 20.884C12.2136 21.3931 12.3502 21.9457 12.2695 22.548ZM15.6597 26.553C15.4486 26.5654 15.2375 26.5778 15.0264 26.553C14.8277 26.5282 14.6352 26.4599 14.4179 26.4102C14.4427 26.5778 14.4799 26.7331 14.4924 26.8945C14.5048 27.056 14.4924 27.2236 14.4924 27.4099C15.1878 27.6707 15.8894 27.7886 16.6159 27.5527C17.3859 27.2981 17.6715 26.7952 17.5038 25.9259C17.4107 25.4291 17.1623 25.0007 16.796 24.6406C16.6532 24.4977 16.498 24.3611 16.3489 24.2183C16.0447 24.3673 15.7591 24.5102 15.4548 24.6592C15.6038 24.8206 15.7777 24.9696 15.9081 25.1559C16.0385 25.336 16.144 25.5409 16.2123 25.752C16.3676 26.1867 16.1316 26.5157 15.6597 26.553ZM17.4542 25.0628C17.8019 25.5844 17.9074 26.1804 17.7833 26.7952C17.6653 27.3913 16.8395 27.919 16.0695 27.9252C15.7963 27.9252 15.5169 27.9377 15.2499 27.9004C14.9829 27.8632 14.7221 27.77 14.4489 27.6955C14.3371 28.0618 14.2316 28.4096 14.1136 28.7945C14.6911 29.0988 15.3058 29.2726 15.9515 29.2354C16.5787 29.1981 17.1996 29.0926 17.7833 28.7883C18.5284 28.3909 19.0996 27.888 19.1617 26.9814C19.2673 25.3857 18.6712 24.1252 17.3672 23.1752C17.094 23.467 16.8395 23.7402 16.5911 24.001C16.8891 24.3549 17.2058 24.684 17.4542 25.0628ZM14.9022 26.2363C15.1133 26.2798 15.343 26.2736 15.5541 26.2425C15.8708 26.1929 15.9764 25.988 15.8646 25.6899C15.7218 25.3111 15.461 25.0255 15.1257 24.8082C15.0264 24.7461 14.8898 24.7275 14.7656 24.7213C14.2626 24.684 13.7659 24.6654 13.3933 24.6468C13.5734 24.92 13.859 25.2739 14.0515 25.6651C14.2378 26.0376 14.5545 26.1556 14.9022 26.2363ZM18.3048 16.3761C18.8326 16.7051 18.8264 17.2081 18.2986 17.5372C17.982 17.7297 17.6218 17.8539 17.2803 18.0091C17.4169 18.2202 17.5722 18.4748 17.7398 18.7169C17.7646 18.7542 17.8391 18.7977 17.8826 18.7852C18.6526 18.63 19.3666 18.363 19.8323 17.68C20.298 16.9908 20.1862 16.5561 19.5405 15.8731C19.1058 15.4136 18.5097 15.2336 17.9012 15.1094C17.8516 15.097 17.7708 15.1404 17.7398 15.1839C17.5784 15.426 17.4231 15.6682 17.2865 15.8855C17.6342 16.0532 17.9882 16.1836 18.3048 16.3761ZM16.9202 16.2208C16.7339 16.2208 16.5476 16.4071 16.3613 16.5064C16.0323 16.6741 15.697 16.8293 15.461 16.9473C15.8584 17.1584 16.3365 17.4254 16.8332 17.6676C16.9388 17.7173 17.1065 17.7048 17.2244 17.6552C17.5535 17.5248 17.8826 17.3882 18.1744 17.2019C18.3607 17.0839 18.3483 16.8728 18.1869 16.6989C17.8454 16.3326 17.3859 16.227 16.9202 16.2208ZM18.6898 15.0597C19.466 15.3515 20.0621 15.8296 20.3291 16.6493C20.5091 17.2081 20.2297 17.6489 19.9006 18.0339C19.4908 18.5245 18.9568 18.8411 18.3173 18.9591C18.1744 18.9839 18.0378 19.0398 17.9012 19.0771C17.9695 19.4 18.0503 19.698 18.0999 20.0023C18.1248 20.1575 18.1807 20.1947 18.3297 20.1761C19.1058 20.0954 19.7888 19.8284 20.4036 19.3379C21.13 18.7542 21.6516 18.0526 21.8193 17.1274C21.8565 16.9287 21.8193 16.6989 21.751 16.5064C21.2418 14.9541 20.1304 14.0848 18.5718 13.7433C18.4414 13.7123 18.3048 13.7371 18.1434 13.7371C18.0627 14.0786 17.982 14.4388 17.895 14.83C18.162 14.9045 18.4352 14.9604 18.6898 15.0597ZM10.2515 16.2332C10.5557 16.227 10.8724 16.2519 11.1642 16.3202C11.4374 16.3823 11.6485 16.7176 11.6299 16.9659C11.6113 17.2764 11.425 17.4875 11.1456 17.6055C10.7544 17.7669 10.3446 17.7235 9.941 17.6365C9.76093 17.5993 9.58086 17.5744 9.38216 17.5372C9.5436 17.798 9.69262 18.0339 9.84164 18.2699C9.86648 18.3071 9.90995 18.3568 9.9472 18.3568C10.6613 18.4375 11.3629 18.481 11.9838 17.9967C12.8531 17.3136 12.6606 16.2146 11.6982 15.7179C11.1456 15.4323 10.5495 15.4633 9.95962 15.5564C9.90994 15.5626 9.85406 15.6309 9.82302 15.6868C9.68021 15.9042 9.5374 16.1277 9.38216 16.3698C9.68021 16.3202 9.96583 16.2394 10.2515 16.2332ZM9.2704 16.7051C9.08412 16.7548 8.91026 16.8542 8.6681 16.9535C9.42563 17.3012 10.1397 17.5123 10.9221 17.3882C11.158 17.3509 11.3319 17.2329 11.3443 16.9783C11.3567 16.7051 11.1704 16.581 10.9283 16.5251C10.357 16.3947 9.81681 16.5623 9.2704 16.7051ZM10.0031 15.277C10.4315 15.277 10.8351 15.2398 11.2263 15.2832C11.9279 15.3577 12.6048 15.9725 12.7786 16.581C13.0084 17.413 12.3812 18.2078 11.7293 18.4872C11.2511 18.6921 10.7482 18.7169 10.239 18.6424C10.1769 18.63 10.1086 18.6424 10.0279 18.6424C10.0155 18.6983 10.0093 18.7169 10.0093 18.7356C9.97825 19.4993 10.0155 19.5428 10.7917 19.549C11.8907 19.5614 12.7103 19.0957 13.1946 18.1022C13.3561 17.7669 13.5672 17.4006 13.561 17.0467C13.5424 16.078 13.0767 15.3081 12.2633 14.7554C11.6237 14.3208 10.9221 14.2711 10.1894 14.445C10.1211 14.4636 10.0155 14.5505 10.0093 14.6126C9.98446 14.8237 10.0031 15.0349 10.0031 15.277ZM14.7718 22.0637C14.9953 22.1507 15.2375 22.1817 15.4734 22.2376C16.293 22.1941 16.827 21.5297 16.6408 20.7349C16.5538 20.3562 16.2247 20.2072 15.9329 20.0395C15.3306 19.698 14.4179 19.8036 14.0826 20.5921C13.859 21.1137 14.1571 21.8153 14.7718 22.0637ZM11.0959 20.3438C10.773 20.0706 10.3384 19.9277 9.941 19.729C9.76714 20.0209 9.64295 20.232 9.54981 20.3872C9.97825 20.7039 10.4377 20.9771 10.8165 21.3434C11.4685 21.9768 11.4623 23.1628 10.8227 23.6781C10.2452 24.15 9.57465 24.2183 8.89163 23.97C8.51287 23.8334 8.17136 23.6036 7.81122 23.4111C7.69325 23.6098 7.56906 23.8209 7.44488 24.0383C8.34522 25.1311 9.9472 25.1994 10.891 24.4915C11.3008 24.1873 11.7541 23.9451 11.8907 23.4049C12.1949 22.2376 12.0521 21.1634 11.0959 20.3438ZM10.0838 22.7033C9.91615 23.0199 9.6057 23.1441 9.10896 22.9703C8.77987 22.8585 8.50045 22.6039 8.20241 22.399C8.09064 22.3245 7.9975 22.2252 7.88573 22.1382C7.73671 22.7095 7.89815 23.1193 8.36385 23.4049C8.873 23.7216 9.40079 23.9203 10.0217 23.7775C11.1704 23.5105 11.2325 22.281 10.6985 21.598C10.3508 21.151 9.87269 20.8964 9.36353 20.6915C9.31386 20.6728 9.24556 20.6666 9.20209 20.6853C8.95372 20.8095 8.70536 20.9461 8.48182 21.064C8.92268 21.2814 9.37595 21.4738 9.79818 21.7346C10.1583 21.9582 10.2515 22.3928 10.0838 22.7033ZM8.92268 22.6039C9.04686 22.6784 9.18347 22.7405 9.32628 22.7654C9.53739 22.8026 9.78576 22.784 9.84164 22.548C9.8789 22.3928 9.82302 22.1444 9.71125 22.0327C9.2766 21.5918 8.68052 21.4676 8.10927 21.3124C7.94162 21.2689 7.76155 21.2689 7.53801 21.2503C7.91678 21.8464 8.38247 22.2624 8.92268 22.6039ZM8.97235 20.5176C9.5436 20.1637 9.85406 19.3875 9.69883 18.7418C9.46909 17.7856 8.81712 17.2391 7.79881 17.0901C7.71809 17.295 7.64357 17.4937 7.56285 17.6986C7.8609 17.8414 8.18377 17.9656 8.4694 18.1395C8.99719 18.4562 9.10895 18.8287 8.92889 19.4683C8.81712 19.8657 8.31417 20.1885 7.87952 20.1389C7.57527 20.1016 7.26481 20.083 6.93572 20.0519C6.90467 20.2506 6.87363 20.4555 6.83637 20.6853C7.58148 21.0392 8.28312 20.9461 8.97235 20.5176ZM7.50076 19.8346C7.65599 19.8346 7.81122 19.8594 7.96645 19.8532C8.37005 19.847 8.62463 19.6297 8.74261 19.2013C8.82333 18.9156 8.64947 18.5244 8.35142 18.363C8.12789 18.245 7.89194 18.1519 7.6622 18.0525C7.50697 17.9905 7.37658 18.0277 7.20893 18.1084C6.81154 18.3009 6.3831 18.4251 6.04159 18.5555C6.24028 18.779 6.56316 19.0398 6.73702 19.3751C6.91709 19.7228 7.15304 19.8346 7.50076 19.8346ZM7.48213 16.879C7.45108 16.0904 6.42035 15.4198 5.70008 15.7303C5.62557 15.7613 5.56348 15.8793 5.53243 15.9662C5.35858 16.463 5.14125 16.7176 4.65072 16.9597C5.12262 17.1708 5.41446 17.4999 5.53243 17.9594C5.5759 18.1457 5.68145 18.2016 5.8491 18.2264C6.7184 18.3692 7.51938 17.7173 7.48213 16.879ZM5.22197 18.5245C5.29648 18.4313 5.32752 18.2637 5.30889 18.1395C5.22817 17.5496 4.56379 17.0342 3.96149 17.0839C3.91803 17.0901 3.84973 17.0963 3.8311 17.1212C3.58894 17.5123 3.15429 17.5434 2.77553 17.68C3.03632 17.9656 3.39645 18.1829 3.39645 18.63C3.39645 18.6735 3.45854 18.7231 3.50201 18.7542C4.02358 19.1205 4.81216 19.0212 5.22197 18.5245ZM3.32194 17.2081C3.42128 17.1646 3.53926 17.0342 3.53926 16.9535C3.53926 16.8666 3.41507 16.7424 3.32194 16.6927C2.61408 16.3636 1.96832 16.6306 1.26047 16.9473C1.97453 17.2888 2.61408 17.5434 3.32194 17.2081ZM3.82489 16.7921C3.83731 16.8107 3.87456 16.8231 3.8994 16.8293C4.45823 16.9784 5.32132 16.2581 5.31511 15.6806C5.3089 15.3019 4.55758 14.83 4.14777 14.9355C3.9677 14.9852 3.79384 15.0349 3.61998 15.0907C3.47717 15.1404 3.4275 15.246 3.36541 15.395C3.24122 15.6682 3.0239 15.8979 2.84383 16.1463C2.8252 16.1774 2.77553 16.1836 2.70723 16.2208C3.1605 16.3512 3.58273 16.4009 3.82489 16.7921ZM6.10989 15.2398C6.06021 15.2956 5.99192 15.3267 5.88015 15.4136C6.46382 15.395 6.9233 15.5502 7.32069 15.8731C7.36415 15.9104 7.45729 15.9166 7.51318 15.8979C7.83606 15.7613 8.17757 15.6558 8.46319 15.4633C8.77986 15.2522 8.82954 14.8983 8.68672 14.5257C8.58117 14.2339 8.28934 14.0414 7.92299 14.0476C7.69946 14.0476 7.47592 14.0662 7.25239 14.0973C7.0599 14.1283 6.93572 14.209 6.82395 14.4139C6.64388 14.7244 6.35205 14.9728 6.10989 15.2398ZM6.93572 13.8551C7.27102 13.8303 7.60631 13.793 7.94782 13.7868C8.41351 13.7744 8.8047 14.0414 8.92889 14.4264C9.12137 15.0224 9.01582 15.4385 8.54392 15.7303C8.23966 15.9166 7.90436 16.0532 7.57527 16.2146C7.64978 16.4071 7.7243 16.612 7.79881 16.8107C8.85438 16.6927 9.41321 16.1277 9.674 15.3019C9.88511 14.625 9.69262 13.9482 9.10896 13.495C8.42594 12.961 7.6622 12.8244 6.84258 13.2218C6.87363 13.4515 6.90467 13.6502 6.93572 13.8551ZM9.81681 12.16C9.39458 12.427 8.92268 12.6195 8.48803 12.843C8.70535 12.961 8.94752 13.0914 9.20209 13.2218C9.23935 13.2404 9.29523 13.2528 9.33249 13.2342C9.89132 13.0106 10.4005 12.725 10.773 12.2283C11.0338 11.8806 11.1207 11.0361 10.8289 10.6511C10.5247 10.2475 9.8789 9.98674 9.31386 10.1047C8.8047 10.2103 8.37626 10.4711 7.97887 10.8002C7.94161 10.8312 7.89815 10.8933 7.89815 10.9368C7.87953 11.21 7.8671 11.477 7.84848 11.8061C8.0658 11.626 8.24587 11.4583 8.45078 11.3155C8.65568 11.1727 8.87301 11.0361 9.10275 10.9368C9.50014 10.7629 9.89132 10.8747 10.0776 11.1913C10.2515 11.5018 10.1707 11.9364 9.81681 12.16ZM9.65536 11.9427C9.85406 11.7998 9.98445 11.5825 9.83543 11.3341C9.69262 11.0858 9.44425 11.0982 9.21451 11.1851C8.51286 11.4583 8.02234 11.9799 7.61253 12.607C8.37006 12.5946 9.05307 12.3835 9.65536 11.9427ZM8.32038 10.2103C9.0096 9.80668 9.71746 9.64524 10.4874 10.0178C11.2015 10.3655 11.4126 11.0175 11.2449 11.7564C11.0587 12.5698 10.4688 13.0044 9.76713 13.3335C9.70504 13.3646 9.64295 13.3894 9.58086 13.4205C9.55602 13.4329 9.53739 13.4515 9.51876 13.4639C9.64916 13.6875 9.77955 13.8986 9.90373 14.1221C11.3505 13.8551 12.0521 12.5636 12.0211 11.626C12.0087 11.2969 11.9838 10.9678 11.9279 10.6449C11.8721 10.322 11.7293 10.024 11.4498 9.83772C11.0649 9.57693 10.6923 9.26026 10.2639 9.11124C9.34491 8.79457 8.46319 8.93117 7.71188 9.61419C7.61874 9.70112 7.5256 9.78184 7.43867 9.86256C7.56906 10.0861 7.69325 10.2972 7.82985 10.5332C7.99129 10.4276 8.15273 10.3096 8.32038 10.2103ZM14.0018 12.992C14.008 13.3832 14.3371 13.8303 14.7283 13.9607C15.312 14.1594 16.1006 13.9482 16.4855 13.4701C16.5663 13.3708 16.6532 13.2156 16.6346 13.1038C16.5787 12.7436 16.5166 12.3711 16.3676 12.0482C16.1937 11.6757 15.7901 11.7253 15.4858 11.7129C14.5979 11.7191 13.9956 12.2531 14.0018 12.992ZM16.2123 8.19227C16.0695 8.50894 15.8274 8.78836 15.6224 9.07399C15.579 9.13608 15.4983 9.16712 15.4175 9.22301C15.7342 9.39066 16.0012 9.53347 16.2682 9.66386C16.3117 9.68249 16.4048 9.67007 16.4421 9.63903C16.8581 9.22922 17.2555 8.80699 17.4666 8.24195C17.8019 7.3354 17.3548 6.47852 16.3924 6.29225C15.7466 6.16806 15.1133 6.25499 14.5234 6.50336C14.4986 6.83866 14.4737 7.16775 14.4489 7.49063C14.7097 7.43475 14.9705 7.36024 15.2313 7.3354C15.4175 7.31677 15.6224 7.3354 15.8087 7.38507C16.1999 7.49063 16.3862 7.81351 16.2123 8.19227ZM14.8277 9.19817C14.9643 9.18575 15.1257 9.13608 15.2251 9.04915C15.4238 8.86908 15.6287 8.67039 15.7591 8.43443C15.8522 8.26678 15.9267 7.96874 15.8398 7.85077C15.7342 7.70795 15.4486 7.62723 15.2499 7.63344C14.9767 7.63965 14.6662 7.69554 14.4427 7.84456C14.2192 7.99358 14.0826 8.2792 13.9211 8.51515C13.7286 8.78215 13.5486 9.05536 13.4057 9.26647C13.8218 9.24784 14.3247 9.23543 14.8277 9.19817ZM14.4489 6.21774C14.6166 6.17427 14.7904 6.1246 14.9643 6.08113C15.5914 5.91969 16.2247 5.91348 16.827 6.15564C17.8329 6.56545 18.0316 7.32298 17.6529 8.42202C17.5535 8.71385 17.3859 8.98706 17.1996 9.23543C17.0195 9.47138 16.7712 9.65765 16.5476 9.86877C16.8333 10.1792 17.0878 10.4524 17.3548 10.7381C18.4477 10.0116 19.0065 8.98085 19.1555 7.70795C19.1866 7.42233 19.1741 7.13049 19.1493 6.84487C19.0686 5.97557 18.4911 5.49746 17.7708 5.13112C17.0195 4.75235 16.2185 4.60333 15.3927 4.7151C14.9581 4.77098 14.5358 4.94484 14.1012 5.06281C14.2316 5.48504 14.3371 5.83276 14.4489 6.21774ZM18.8078 11.9302C19.3728 12.042 19.9503 12.1476 20.5277 12.2655C21.2729 12.4208 22.0055 12.4394 22.732 12.1476C23.2474 11.9364 23.651 11.5949 23.9304 11.123C24.2222 10.6201 24.1353 10.322 23.6075 10.0613C22.9245 9.71975 22.2105 9.6887 21.4902 9.96191C20.7327 10.2475 20.1552 10.7939 19.5653 11.3093C19.3045 11.5266 19.0437 11.7378 18.8078 11.9302ZM23.6634 6.18048C23.235 6.88833 22.8624 7.62102 22.4775 8.35371C22.3284 8.63313 22.2167 8.93738 22.0801 9.26026C22.9618 9.27889 23.5827 8.83804 24.1229 8.21711C24.6507 7.60861 25.2095 7.01873 25.7559 6.42885C25.8491 6.3295 25.9733 6.26741 26.1285 6.15564C25.7063 6.00041 25.3151 5.83897 24.9177 5.71479C24.3526 5.54714 23.9801 5.66511 23.6634 6.18048ZM25.3523 7.17396C24.9301 7.62723 24.5513 8.13018 24.1229 8.58346C23.8497 8.87529 23.5144 9.10503 23.1977 9.37203C23.4709 9.49621 23.7814 9.66386 24.1167 9.76942C24.2098 9.80047 24.3775 9.67628 24.4892 9.59556C25.0232 9.16092 25.5262 8.6828 26.0912 8.28541C26.7184 7.84455 27.4635 7.65207 28.2272 7.58377C28.3824 7.57135 28.5501 7.62723 28.7115 7.65207C28.7239 7.62723 28.7364 7.6024 28.7488 7.57756C28.2086 7.29814 27.6746 7.0001 27.1282 6.73931C26.3769 6.36676 25.8553 6.62754 25.3523 7.17396ZM28.2769 7.86939C27.7677 7.85077 27.2275 8.04325 26.737 8.24195C25.9298 8.56483 25.2592 9.10503 24.7376 9.80667C24.3961 10.2662 24.4955 10.6263 25.0294 10.8374C26.1409 11.2783 27.271 11.3528 28.4259 11.0175C29.2766 10.7691 29.7919 10.1296 30.2638 9.44033C30.3942 9.24784 30.475 9.02431 30.5929 8.80078C29.8975 8.22953 29.1151 7.90665 28.2769 7.86939ZM29.1151 11.0113C27.985 11.5763 26.7991 11.6011 25.5945 11.3093C25.3337 11.2472 25.0729 11.1479 24.8059 11.1106C24.6879 11.092 24.5141 11.1355 24.4396 11.2162C24.2222 11.4708 24.0422 11.7564 23.8124 12.0855C24.4209 11.924 24.9239 12.1103 25.4268 12.2904C25.9298 12.4704 26.4265 12.6753 26.9419 12.8244C27.7739 13.0603 28.2645 12.8678 28.7302 12.1414C29.0158 11.6943 29.2828 11.2348 29.5125 10.7381C29.3883 10.825 29.2642 10.9368 29.1151 11.0113ZM24.9487 12.4146C24.2595 12.1972 23.62 12.2593 22.9369 12.6443C23.7566 13.1907 24.5327 13.7061 25.3089 14.2214C25.6938 14.476 26.1285 14.6375 26.588 14.6561C26.7494 14.6623 26.9543 14.5319 27.0785 14.4077C27.4138 14.0662 27.7181 13.6875 28.0782 13.2776C26.9109 13.259 25.9608 12.7312 24.9487 12.4146ZM23.3964 13.2404C22.968 12.8927 22.4712 12.725 21.9062 12.725C21.5957 12.725 21.2915 12.6691 20.9065 12.6257C21.0121 12.7064 21.0617 12.7436 21.1114 12.7747C21.9124 13.2404 22.5271 13.8862 22.9121 14.7182C23.1729 15.2832 23.6013 15.4757 24.1602 15.4943C24.9115 15.5254 25.5883 15.2398 26.3023 14.9293C25.1785 14.563 24.2657 13.9482 23.3964 13.2404ZM23.2784 16.3823C23.0549 15.4012 22.6265 14.5009 21.931 13.7682C21.2791 13.0727 20.4657 12.607 19.5219 12.427C19.0996 12.3463 18.665 12.3711 18.1993 12.3463C18.1993 12.7064 18.1869 13.0044 18.2117 13.3025C18.2179 13.3646 18.3483 13.4577 18.429 13.4701C19.882 13.6191 20.9189 14.4139 21.6765 15.5999C22.2601 16.5064 22.2415 17.4503 21.6516 18.3506C20.95 19.431 19.9938 20.1637 18.7022 20.4059C18.1931 20.499 18.1931 20.5114 18.1931 21.033C18.1931 21.1882 18.1931 21.3434 18.1931 21.5111C19.5343 21.6974 20.6333 21.2627 21.6019 20.4431C22.552 19.6421 23.0363 18.5617 23.3095 17.3882C23.3902 17.0715 23.353 16.7051 23.2784 16.3823ZM18.814 21.983C19.3977 22.4673 19.9689 22.9827 20.5774 23.4422C21.4529 24.1066 22.4216 24.3549 23.4771 23.9079C24.2719 23.5726 24.2781 23.1007 23.6386 22.4114C22.7817 21.4738 21.6827 21.4304 20.534 21.6415C19.9627 21.7533 19.3852 21.8712 18.814 21.983ZM23.0549 18.9653C22.5706 19.9091 21.9372 20.6977 20.9251 21.2441C22.0366 21.2565 22.9928 21.1013 23.8249 20.3562C24.5265 19.7353 25.3523 19.2571 26.321 18.9901C25.3896 18.6052 24.5079 18.1892 23.5082 18.5617C23.3343 18.6238 23.148 18.7914 23.0549 18.9653ZM25.8801 19.4124C25.1226 19.847 24.3961 20.3376 23.6634 20.8095C23.4337 20.9585 23.2101 21.1137 22.9618 21.2814C23.7876 21.7781 24.5886 21.6539 25.402 21.3559C26.085 21.1075 26.7867 20.8964 27.4821 20.6915C27.6435 20.6418 27.8236 20.6604 28.0844 20.6418C27.6684 20.1823 27.3331 19.7166 26.8984 19.3565C26.619 19.1143 26.1844 19.2385 25.8801 19.4124ZM27.122 21.0516C26.6252 21.1758 26.1471 21.3869 25.6566 21.5297C25.1971 21.6663 24.7252 21.7843 24.2533 21.8837C24.1291 21.9085 23.9863 21.8588 23.8249 21.8402C24.0422 22.1444 24.2285 22.4176 24.4272 22.6784C24.5638 22.8585 24.7438 22.8212 24.9301 22.7654C25.669 22.5542 26.4141 22.3742 27.1903 22.4176C27.8422 22.4487 28.488 22.5542 29.0717 22.8709C29.2207 22.9516 29.3573 23.0634 29.556 23.1379C29.3449 22.784 29.1462 22.4239 28.9289 22.0761C28.786 21.8464 28.6246 21.6229 28.4507 21.418C28.103 20.9895 27.6187 20.9274 27.122 21.0516ZM27.5256 22.7157C26.6501 22.6412 25.818 22.7716 25.017 23.082C24.4955 23.2869 24.3837 23.6595 24.7314 24.0941C25.5883 25.1745 26.6687 25.9135 28.0782 26.019C29.0158 26.0873 29.8354 25.6899 30.5929 25.1249C29.972 23.7837 29.0903 22.8399 27.5256 22.7157ZM25.669 25.3608C25.253 25.0566 24.8866 24.6902 24.5079 24.3363C24.3154 24.1562 24.1539 24.0693 23.8932 24.2245C23.6634 24.3611 23.4026 24.4481 23.1232 24.5723C23.3343 24.6964 23.5579 24.7834 23.7131 24.9324C24.0794 25.2925 24.4085 25.6899 24.7562 26.0687C25.0481 26.3916 25.3275 26.7393 25.6566 27.0187C25.9608 27.2733 26.3272 27.4409 26.7618 27.3105C27.4821 27.087 28.103 26.6834 28.7985 26.2674C27.5628 26.435 26.5755 26.019 25.669 25.3608ZM23.9056 25.4664C23.4213 24.9386 22.8252 24.6281 22.0739 24.653C22.5706 25.721 22.9618 26.8386 23.682 27.7824C24.0422 28.2481 24.3651 28.3537 24.9425 28.1922C25.0357 28.1674 25.1288 28.1426 25.2219 28.1053C25.5138 27.9935 25.7994 27.8818 26.1285 27.7514C25.1909 27.1491 24.6134 26.2425 23.9056 25.4664ZM20.4408 24.5785C19.9565 23.4546 19.2797 22.5046 18.0378 22.0761C17.8764 22.3618 17.715 22.6474 17.5597 22.9206C17.895 23.2497 18.2738 23.5539 18.5656 23.9265C19.0748 24.5723 19.3542 25.3298 19.4349 26.1556C19.466 26.4847 19.4598 26.82 19.4225 27.1429C19.2983 28.2357 18.5284 28.7883 17.6094 29.1547C16.411 29.639 15.2064 29.6328 14.0205 29.0553C13.8404 29.3534 13.679 29.639 13.4989 29.937C14.0701 30.4027 14.7035 30.7132 15.4424 30.7877C16.3179 30.8746 17.1748 30.8063 17.982 30.4276C18.783 30.0488 19.4908 29.5334 20.0745 28.869C20.5402 28.3351 20.6147 27.6396 20.683 26.9814C20.7637 26.168 20.7699 25.3422 20.4408 24.5785ZM19.7702 30.0861C19.4846 29.9991 19.2114 30.0053 18.9382 30.1916C18.3235 30.6138 17.6529 30.9243 16.9078 31.0361C16.6283 31.0795 16.3427 31.0982 16.026 31.1292C16.9885 31.6322 17.9012 32.0109 19.0189 31.7563C19.9006 31.5576 20.832 31.5825 21.782 31.8309C21.2232 31.0609 20.683 30.3593 19.7702 30.0861ZM21.4219 32.0296C20.7637 31.9675 20.1055 31.955 19.4411 31.9737C18.8823 31.9923 18.3235 32.0854 17.7522 32.1475C18.0565 32.7747 18.5967 33.1224 19.2424 33.2838C19.9379 33.4577 20.6519 33.5446 21.3474 33.6998C21.7199 33.7868 22.0801 33.9358 22.4712 34.0662C22.3657 33.5446 22.2912 33.0044 22.1484 32.489C22.0614 32.1662 21.7013 32.0544 21.4219 32.0296ZM22.4154 34.9851C22.3346 34.3766 21.8565 34.091 21.3039 33.9606C20.8258 33.8489 20.3291 33.793 19.8447 33.6998C19.2859 33.5881 18.7147 33.5074 18.2117 33.0541C18.2427 33.4701 18.2303 33.793 18.3048 34.0972C18.3359 34.2214 18.5346 34.358 18.6836 34.3953C19.6398 34.6561 20.5712 34.9603 21.3412 35.6123C21.8317 36.0283 22.2974 36.4692 22.4712 37.1335C22.5023 37.1273 22.5271 37.1211 22.5582 37.1149C22.5085 36.4071 22.5023 35.6868 22.4154 34.9851ZM21.633 36.2394C20.9748 35.5378 20.149 35.0783 19.2114 34.8423C18.9506 34.774 18.6774 34.7244 18.4104 34.7119C18.0378 34.6995 17.8081 34.9044 17.8578 35.2708C17.9323 35.7924 18.0503 36.3201 18.2365 36.8169C18.5656 37.68 19.0934 38.4313 19.913 38.8908C20.4843 39.2136 21.1363 39.3565 21.8131 39.3068C22.0055 39.2944 22.198 39.3068 22.4154 39.3068C22.5085 38.1643 22.434 37.0963 21.633 36.2394ZM20.2049 39.3068C19.3232 39.0336 18.8016 38.3506 18.3359 37.6179C17.9199 36.9721 17.715 36.2394 17.5287 35.5005C17.4728 35.277 17.3486 35.1528 17.1002 35.1528C16.8208 35.1466 16.5414 35.1031 16.1999 35.0659C16.8581 35.8793 16.7836 36.8479 17.0009 37.7358C17.0506 37.9408 17.0816 38.1581 17.1499 38.3568C17.361 39.0025 17.8454 39.313 18.4849 39.3502C19.0686 39.3875 19.6522 39.3565 20.2359 39.3565C20.2297 39.3503 20.2235 39.313 20.2049 39.3068ZM16.529 36.5499C16.4421 36.0035 16.2434 35.5191 15.8957 35.0969C15.7342 34.9044 15.5107 34.7616 15.2934 34.5753C15.2313 35.0907 15.1443 35.544 15.1257 36.0035C15.1009 36.6989 15.0947 37.4005 15.1319 38.1022C15.1443 38.3506 15.2747 38.6051 15.4051 38.8287C15.579 39.1267 15.9267 39.0895 16.2123 39.1578C16.5476 39.2385 16.8953 39.2695 17.2555 39.3254C16.7774 38.4499 16.6718 37.4937 16.529 36.5499ZM17.2369 34.6623C17.597 34.6374 17.7833 34.4574 17.8019 34.091C17.8454 33.2279 17.4976 32.5449 16.8519 31.9985C16.2434 31.4769 15.4921 31.2596 14.7594 31.005C14.4303 30.8933 14.1012 30.7629 13.7348 30.6325C14.1074 31.5452 14.4054 32.4766 14.8587 33.3273C15.3492 34.2276 16.1564 34.7244 17.2369 34.6623ZM8.99098 35.9786C9.41321 36.0593 9.86027 36.0283 10.2887 35.991C11.1208 35.9227 11.5492 35.3329 11.8969 34.6685C12.2881 33.9234 12.4309 33.1224 12.3253 32.2903C12.2695 31.8495 12.0956 31.421 11.9714 30.974C11.543 31.1044 11.1953 31.2099 10.8786 31.3031C10.9345 31.806 11.0152 32.2903 11.0462 32.7809C11.0835 33.3832 10.86 33.9109 10.4564 34.3518C10.1273 34.7119 9.674 34.7119 9.23935 34.6747C8.57496 34.6188 8.00992 34.3208 7.55044 33.8364C7.42004 33.6998 7.29585 33.5694 7.16546 33.4328C6.86742 33.706 6.59421 33.9668 6.30859 34.2276C6.94193 35.2211 7.87332 35.7613 8.99098 35.9786ZM8.79849 34.3083C9.92858 34.6374 10.5805 34.2711 10.7792 33.0044C10.8662 32.4269 10.7606 31.9737 10.5247 31.359C10.3694 31.359 10.2018 31.3652 10.0403 31.359C9.8789 31.3465 9.71746 31.3155 9.59327 31.2969C9.62432 31.6943 9.69262 32.0854 9.68641 32.4766C9.6802 33.0168 9.2766 33.2838 8.78607 33.0541C8.41973 32.8802 8.09064 32.6132 7.74913 32.3835C7.63115 32.6319 7.48834 32.9175 7.34553 33.2155C7.74292 33.675 8.17757 34.1283 8.79849 34.3083ZM9.41321 32.1289C9.37595 31.8557 9.32007 31.5701 9.2083 31.3155C9.14 31.1665 8.96614 31.0547 8.81712 30.9554C8.44456 30.7008 8.05959 30.4648 7.76776 30.2723C7.78639 30.6387 7.81743 31.1292 7.82985 31.6197C7.84227 32.0916 8.54391 32.7809 9.01582 32.7685C9.2704 32.7622 9.46288 32.4704 9.41321 32.1289ZM9.97204 31.0671C10.2949 31.123 10.6551 31.0609 10.9779 30.9864C11.6361 30.8312 12.2695 30.589 12.8221 30.1916C13.412 29.7694 13.7038 29.136 13.9211 28.4779C14.0515 28.0867 14.1509 27.6707 14.2129 27.2609C14.2875 26.7952 14.1198 26.3605 13.9273 25.9383C13.5486 25.1311 12.9338 24.5536 12.1763 24.1066C11.9962 24.001 11.9031 24.0072 11.7541 24.15C11.2574 24.6219 10.7047 25.0442 10.0093 25.1497C9.59328 25.2118 9.15863 25.1621 8.6681 25.1621C9.17105 25.6899 9.63674 26.1867 10.1024 26.6772C10.2142 26.7952 10.3198 26.7765 10.4626 26.7144C11.543 26.2301 12.9214 26.9256 12.9587 28.3723C12.9773 29.0926 11.9714 30.0053 11.1145 29.7818C10.0652 29.5148 9.56223 28.4841 9.7423 27.6582C9.76713 27.5341 9.79818 27.4037 9.86648 27.2981C9.95341 27.1615 9.92237 27.0622 9.82302 26.969C9.33249 26.5033 8.84196 26.0376 8.3328 25.5533C8.3328 25.9383 8.37005 26.286 8.32038 26.6275C8.27691 26.9504 8.19619 27.2857 8.04096 27.5651C7.81122 27.9687 7.50076 28.3226 7.23376 28.7014C7.1903 28.7635 7.17167 28.8877 7.20271 28.9498C7.81122 30.055 8.69294 30.8436 9.97204 31.0671ZM9.95962 27.9439C9.9472 28.6145 10.773 29.4279 11.456 29.4217C11.9031 29.4155 12.5613 28.7449 12.5551 28.2978C12.5489 27.6148 11.7479 26.82 11.0773 26.8324C10.5247 26.8448 9.96583 27.3975 9.95962 27.9439ZM7.30827 28.2171C7.96646 27.4161 8.28934 26.5157 7.95404 25.5036C7.81123 25.069 7.49455 24.684 7.24618 24.268C6.94193 24.4419 6.72461 24.5723 6.56937 24.6592C6.77428 25.1373 7.03507 25.6092 7.17788 26.1121C7.42625 26.969 6.83016 28.0122 6.07884 28.1301C5.27785 28.2543 4.61346 27.9998 4.12914 27.3478C3.91182 27.056 3.74417 26.7206 3.55168 26.3978C3.35299 26.5095 3.13566 26.6399 2.91213 26.7703C3.1605 28.1426 4.3713 28.9063 5.41446 28.8877C5.73734 28.8815 6.06642 28.8566 6.3893 28.8007C6.77428 28.7387 7.05991 28.5151 7.30827 28.2171ZM3.79384 26.1742C4.0981 26.8821 4.42718 27.5837 5.24059 27.8259C6.1844 28.1053 6.855 27.5651 6.94814 26.6523C7.02265 25.9259 6.6563 25.3608 6.23407 24.8268C6.20924 24.7958 6.15335 24.771 6.10989 24.7647C5.83668 24.7461 5.56969 24.7399 5.25923 24.7213C5.50759 25.0442 5.73734 25.3174 5.93603 25.6154C6.04159 25.7706 6.12852 25.9631 6.15956 26.1494C6.23408 26.584 6.07885 26.8697 5.72492 27.0063C5.45792 27.1118 5.06053 26.9876 4.86183 26.671C4.66314 26.3543 4.52033 26.0004 4.35268 25.6589C4.303 25.5471 4.26574 25.4291 4.21607 25.3049C4.06705 25.5782 3.93045 25.8327 3.79384 26.0935C3.79384 26.1121 3.78764 26.1494 3.79384 26.1742ZM4.82458 24.7275C4.7066 24.6219 4.57 24.5288 4.40235 24.4046C4.42097 25.2056 4.65692 25.8886 5.08536 26.5033C5.20955 26.6834 5.39583 26.8014 5.63799 26.7331C5.89257 26.6586 5.99191 26.3916 5.85531 26.0501C5.63799 25.5098 5.2406 25.1062 4.82458 24.7275ZM5.19093 24.3922C5.7808 24.5288 6.35205 24.5598 6.88604 24.1562C8.03475 23.2869 7.70567 21.7098 6.7867 21.0144C6.73702 20.9771 6.61283 21.0019 6.55074 21.0454C6.42035 21.1323 6.31479 21.2441 6.17819 21.3621C6.35205 21.5918 6.53212 21.8091 6.68735 22.0451C7.01644 22.5356 6.96677 23.0013 6.62526 23.4049C6.16578 23.9389 5.5759 23.852 5.19093 23.5912C4.94876 23.4298 4.72523 23.2435 4.48928 23.0696C4.35888 23.2248 4.21607 23.3801 4.06084 23.5664C4.35267 23.9451 4.69419 24.2804 5.19093 24.3922ZM4.38372 22.1134C4.33405 21.9706 4.30921 21.8091 4.24712 21.6725C4.01117 21.151 4.00495 21.1944 3.44612 21.2131C3.0984 21.2255 2.73827 21.0951 2.37814 21.0268C2.44023 21.4925 2.21049 21.9023 1.87519 22.281C1.83793 22.3245 1.81309 22.4239 1.83793 22.4735C2.11114 23.0945 2.65755 23.6657 3.4958 23.4918C3.97391 23.3987 4.55758 22.6039 4.38372 22.1134ZM2.56441 18.7728C2.66997 18.7977 2.77552 18.8039 2.88108 18.7977C3.08599 18.779 3.17292 18.6362 3.06736 18.4562C2.96801 18.2947 2.85624 18.1084 2.70101 18.0091C2.24774 17.7173 1.751 17.5248 1.13008 17.5806C1.52126 18.1519 1.90623 18.6238 2.56441 18.7728ZM1.92486 19.5614C1.85656 19.0026 1.49643 18.6238 1.09282 18.2761C0.993477 18.1892 0.869289 18.1271 0.701637 18.0091C0.707847 18.7666 0.863083 19.4 1.43433 19.8532C1.52747 19.9277 1.74479 19.996 1.78205 19.9526C1.87519 19.8657 1.94349 19.6918 1.92486 19.5614ZM0.738891 15.8793C1.30393 15.5005 1.76963 15.0907 1.91244 14.4201C1.93107 14.327 1.94969 14.2214 1.92486 14.1283C1.88139 13.9607 1.77583 13.8365 1.58335 13.9544C1.42812 14.0476 1.26668 14.1531 1.1487 14.2897C0.869285 14.6126 0.664383 15.4012 0.738891 15.8793ZM1.4157 15.9352C1.32877 16.0345 1.26047 16.1587 1.13628 16.3388C1.91244 16.3326 2.55199 16.1711 3.00526 15.5813C3.07357 15.4943 3.12946 15.2956 3.07978 15.2522C2.99285 15.1653 2.8252 15.097 2.70723 15.1156C2.1484 15.1715 1.75721 15.5254 1.4157 15.9352ZM2.38434 12.9858C2.83762 12.6629 3.29089 12.6133 3.77521 12.7436C3.8373 12.7623 3.94907 12.7188 3.98633 12.6691C4.46444 11.9923 4.60725 11.3652 4.02979 10.7443C3.59515 10.2724 2.86245 10.2351 2.3595 10.6946C2.1546 10.8809 1.99316 11.123 1.85035 11.3652C1.80688 11.4335 1.84414 11.6074 1.90623 11.6819C2.30983 12.1786 2.37192 12.34 2.38434 12.9858ZM4.48307 10.856C4.7066 10.6884 4.92393 10.5021 5.15988 10.3531C5.94224 9.85635 6.46382 10.173 6.84258 10.8126C7.01644 11.1044 6.94814 11.4645 6.75565 11.7626C6.58179 12.0296 6.3831 12.2842 6.19061 12.5574C6.35826 12.694 6.51349 12.8244 6.66872 12.961C7.30827 12.6381 7.71188 11.744 7.61874 10.9119C7.55044 10.2848 6.855 9.53968 6.23407 9.45275C5.35857 9.34098 4.61347 9.57072 4.07326 10.3655C4.20366 10.5269 4.34026 10.6884 4.48307 10.856ZM5.76838 8.04946C5.97949 7.67691 5.93603 7.31056 5.69387 7.18017C5.47034 7.06219 5.17229 7.1988 4.96739 7.56514C4.6383 8.15502 4.39614 8.77594 4.40855 9.49001C4.98602 9.11124 5.43929 8.63313 5.76838 8.04946ZM4.19745 8.56483C4.40856 8.13639 4.60105 7.67691 4.85563 7.25468C5.04811 6.9318 5.4455 6.80761 5.70629 6.90075C6.12231 7.05598 6.321 7.472 6.1161 7.90665C5.96086 8.24816 5.71871 8.5462 5.50759 8.86287C5.43308 8.97464 5.34615 9.06778 5.24059 9.19817C5.56347 9.17954 5.8429 9.16712 6.12231 9.15471C6.15957 9.15471 6.20303 9.13608 6.22166 9.10503C6.69356 8.50274 7.07853 7.8756 6.91088 7.04977C6.66872 5.84518 5.35236 5.80792 4.68176 6.37918C4.26574 6.7331 4.01737 7.18638 3.81868 7.67691C3.80005 7.72658 3.80005 7.8073 3.82489 7.85697C3.94908 8.09913 4.07947 8.3413 4.19745 8.56483ZM4.45202 6.23636C5.01086 5.64027 6.03538 5.55335 6.61283 6.03146C7.15304 6.48473 7.35174 7.10566 7.1903 7.77004C7.06611 8.2792 6.7929 8.7449 6.58179 9.24164C6.74944 9.34098 6.95435 9.46517 7.16546 9.58935C8.25208 8.70143 8.3328 7.07461 7.60631 6.11839C7.30206 5.721 7.05991 5.27393 6.53212 5.14354C5.29027 4.83307 4.32783 4.9821 3.44612 5.96936C3.17291 6.27362 3.04873 6.71447 2.85624 7.10566C3.02389 7.19259 3.14187 7.25468 3.25984 7.32298C3.3654 7.38507 3.47096 7.45958 3.50821 7.49063C3.82488 7.0684 4.0981 6.61513 4.45202 6.23636ZM7.27723 5.27393C7.68704 5.67132 8.04096 6.13701 8.18378 6.68343C8.32038 7.1988 8.31417 7.75142 8.37626 8.31025C8.84816 7.86318 9.3449 7.39749 9.83543 6.91938C9.88511 6.8697 9.89753 6.72068 9.86648 6.64617C9.40079 5.58439 9.92858 4.19352 11.4871 4.08797C12.0025 4.05071 12.4309 4.38601 12.7041 4.83307C13.0767 5.44779 12.9835 6.24257 12.5302 6.75173C12.0646 7.27331 11.1766 7.54651 10.4439 7.19259C10.3011 7.12428 10.208 7.1367 10.1148 7.22984C9.64916 7.72037 9.18347 8.2109 8.69915 8.72627C9.09033 8.72627 9.44425 8.70143 9.79197 8.73248C10.0652 8.75731 10.3694 8.80699 10.5992 8.94359C11.0152 9.18575 11.4064 9.4838 11.7851 9.78184C11.9279 9.89361 12.0149 9.91844 12.1577 9.81289C12.4682 9.57693 12.8097 9.38445 13.0953 9.12366C13.71 8.55862 14.095 7.85077 14.2192 7.02494C14.2688 6.72068 14.2129 6.37918 14.1322 6.06871C13.9646 5.41674 13.7286 4.7834 13.3374 4.23078C12.9152 3.6409 12.2819 3.34907 11.6299 3.12553C11.2387 2.98893 10.8289 2.902 10.4191 2.82749C9.94099 2.74677 9.50014 2.92063 9.0717 3.12553C8.2645 3.5043 7.69325 4.11901 7.24618 4.87654C7.13442 5.04419 7.13442 5.13733 7.27723 5.27393ZM10.2142 6.61513C10.593 7.09945 11.1456 7.18638 11.723 6.88212C12.1701 6.64617 12.4061 6.24257 12.5302 5.78309C12.5737 5.60923 12.524 5.36086 12.4247 5.21184C12.1887 4.87654 11.9279 4.53503 11.4436 4.47915C10.8786 4.5847 10.4067 4.8517 10.1335 5.3857C9.91616 5.80172 9.90373 6.22394 10.2142 6.61513ZM8.81712 2.9703C9.04065 2.83991 9.24556 2.69709 9.2766 2.41768C9.31386 2.11342 9.38216 1.80917 9.36974 1.51113C9.35111 1.19446 9.12137 1.08269 8.82954 1.18204C8.24587 1.37453 7.84848 1.92094 7.83606 2.52945C7.82985 2.93305 7.78639 3.33665 7.76776 3.6409C8.07201 3.4422 8.43835 3.19383 8.81712 2.9703ZM7.76776 1.56701C8.00992 1.37453 8.24587 1.16341 8.50665 0.989552C8.79228 0.797066 9.12137 0.672882 9.43804 0.890205C9.73608 1.09511 9.72367 1.45525 9.71125 1.77192C9.69883 2.04512 9.6119 2.31833 9.55602 2.60395C9.8789 2.57912 10.208 2.56049 10.5433 2.53566C10.7854 1.86506 10.9283 1.16341 10.6861 0.461767C10.3446 -0.513084 9.77335 -0.686943 8.73019 -0.370272C8.14032 -0.190203 7.73671 0.256863 7.34553 0.691509C7.48834 0.989554 7.63116 1.28139 7.76776 1.56701ZM8.19619 -0.407526C8.606 -0.674524 9.07791 -0.804916 9.58086 -0.792499C10.3694 -0.77387 10.8289 -0.190203 11.0028 0.598372C11.1518 1.26897 11.0649 1.93336 10.8103 2.59154C11.2015 2.70951 11.5554 2.81507 11.9342 2.93305C12.226 2.28108 12.4247 1.6291 12.3502 0.902624C12.2695 0.101631 12.0646 -0.631058 11.574 -1.28924C11.0338 -2.01572 10.3073 -2.22684 9.46909 -2.11507C8.97235 -2.04677 8.48182 -1.91016 8.00991 -1.74872C7.27723 -1.49414 6.76186 -0.947729 6.30859 -0.320597C6.588 -0.0598086 6.86742 0.194771 7.13441 0.44314C7.48213 0.157515 7.81743 -0.159157 8.19619 -0.407526ZM22.4216 4.0445C22.4216 4.05071 22.4216 4.05692 22.4216 4.0445V4.0445ZM22.434 4.03208C22.9556 3.99483 23.4647 3.95757 23.9739 3.92031C24.036 3.91411 24.1291 3.90169 24.1477 3.86443C24.3092 3.52292 24.4582 3.18142 24.6321 2.78403C24.2222 2.74677 23.8807 2.71572 23.533 2.69089C23.4771 2.68468 23.3902 2.70951 23.3592 2.74677C23.0425 3.169 22.7382 3.60364 22.434 4.03208ZM23.7503 1.33106C23.6945 1.68499 23.6137 2.03271 23.5454 2.37421C23.9863 2.44872 24.4334 2.51703 24.9611 2.60395C24.7749 3.08207 24.6134 3.49188 24.4396 3.92653C24.8308 4.05692 25.2344 4.19352 25.6752 4.33633C26.0105 3.436 26.3458 2.54186 26.6997 1.59185C26.0416 1.48008 25.4455 1.37453 24.8494 1.26897C24.5824 1.2255 24.3154 1.18204 24.0484 1.14478C23.8994 1.13236 23.7814 1.13857 23.7503 1.33106ZM26.8115 2.05133C26.5445 2.85233 26.2278 3.6409 25.9236 4.46052C26.352 4.69026 26.7991 4.93242 27.271 5.187C27.7615 3.58502 28.2396 2.01408 28.7239 0.430721C27.1282 0.064375 25.5262 -0.30818 23.8683 -0.686943C23.8683 -0.159157 23.8683 0.337584 23.8683 0.846741C24.6755 0.983343 25.5324 1.12616 26.3831 1.2876C27.1033 1.41799 27.0412 1.3559 26.8115 2.05133ZM30.7544 -0.742826C28.4321 -1.32649 26.1471 -1.89775 23.8373 -2.48141C23.8373 -1.935 23.8373 -1.46931 23.8373 -0.984985C24.9239 -0.730406 25.9857 -0.475828 27.0412 -0.233667C27.6187 -0.103273 28.1962 0.0209122 28.7798 0.138887C29.0034 0.182352 29.0655 0.2817 28.9909 0.505232C28.5749 1.81538 28.1713 3.12553 27.7677 4.43568C27.7056 4.62817 27.6932 4.84549 27.6063 5.02556C27.4697 5.31118 27.6001 5.46021 27.8298 5.58439C28.1217 5.74583 28.4073 5.90727 28.7985 6.11839C29.4504 3.82097 30.0962 1.56701 30.7544 -0.742826ZM30.9717 10.3158C31.338 9.66386 31.7106 9.01189 32.0645 8.39097C31.3691 7.98116 30.624 7.55272 29.8851 7.10566C28.8295 6.47231 27.7926 5.81413 26.7308 5.20563C26.2092 4.90759 25.6504 4.67163 25.0978 4.43568C24.1912 4.05071 23.2598 4.08797 22.3595 4.41084C21.7448 4.62817 21.1735 4.97589 20.5712 5.26772C20.6519 5.53472 20.7202 5.76446 20.7947 5.98799C21.1487 5.82655 21.4716 5.64027 21.8131 5.52851C23.0611 5.10628 24.2968 5.12491 25.5324 5.63407C27.004 6.23636 28.339 7.06219 29.6802 7.88802C30.0403 8.11155 30.3942 8.35371 30.7668 8.55862C30.9282 8.65176 30.9469 8.72006 30.8537 8.87529C30.1955 10.055 29.5374 11.2348 28.8854 12.4208C28.3887 13.3273 27.7677 14.1345 27.0164 14.8424C26.5135 15.3143 25.9174 15.6061 25.2406 15.8048C24.6755 15.9725 24.1229 16.1153 23.4771 16.0656C23.5454 16.3264 23.5951 16.5437 23.6448 16.7424C25.0108 16.9349 26.2775 16.73 27.3828 15.8979C28.0409 15.395 28.5066 14.712 28.9102 13.9917C29.6181 12.7747 30.2887 11.5391 30.9717 10.3158ZM30.9282 17.1895C30.1893 17.8042 29.4566 18.4313 28.7115 19.0584C28.9723 19.4745 29.2393 19.9029 29.5125 20.35C30.7233 19.2199 31.9217 18.1022 33.1449 16.9597C31.9403 15.8358 30.7357 14.712 29.5125 13.5695C29.2455 13.9979 28.9723 14.4326 28.6991 14.8672C29.289 15.3515 29.8727 15.8296 30.4563 16.3078C30.6364 16.4568 30.8165 16.6058 30.9841 16.7734C31.1456 16.9287 31.0835 17.0591 30.9282 17.1895ZM30.8227 16.9597C30.0465 16.3202 29.3076 15.7117 28.5563 15.0907C28.2396 15.4385 27.9726 15.7427 27.687 16.0594C27.9664 16.2829 28.2458 16.5127 28.5315 16.7362C28.7302 16.8914 28.7177 17.0342 28.5253 17.1833C28.2458 17.4006 27.9664 17.6303 27.6808 17.8539C27.9664 18.1705 28.2458 18.481 28.5501 18.8225C29.2952 18.2078 30.0279 17.6055 30.8227 16.9597ZM28.4321 16.9535C28.0968 16.7114 27.8112 16.5002 27.5131 16.3015C27.4697 16.2705 27.3828 16.2767 27.3331 16.2953C26.8425 16.5189 26.352 16.7486 25.8987 16.9597C26.3769 17.1708 26.9046 17.4006 27.4759 17.6489C27.7553 17.444 28.072 17.2143 28.4321 16.9535ZM32.7413 19.6235C33.5796 18.8163 34.4054 18.0029 35.2437 17.2019C35.3989 17.0529 35.461 16.9225 35.2809 16.7486C34.5234 16.0097 33.7783 15.2646 33.0207 14.5319C32.1452 13.6875 31.2573 12.8616 30.3446 11.9985C30.1148 12.4021 29.9037 12.7623 29.7174 13.1348C29.6802 13.2093 29.7174 13.3708 29.7795 13.4329C30.922 14.5071 32.0769 15.5689 33.2319 16.6306C33.5609 16.9349 33.5609 16.9784 33.2319 17.2826C32.4309 18.0153 31.6423 18.7542 30.8475 19.4869C30.506 19.8036 30.1707 20.1264 29.8168 20.4307C29.6678 20.5549 29.6429 20.6729 29.7361 20.8343C29.9285 21.1696 30.121 21.5111 30.357 21.9147C31.1704 21.1323 31.959 20.381 32.7413 19.6235ZM29.0468 27.3167C30.0714 26.7206 31.0773 26.0997 32.0583 25.5098C31.2884 24.1562 30.4936 22.7529 29.6988 21.3497C29.2642 20.5859 28.8481 19.816 28.3762 19.0771C27.5939 17.8539 26.4017 17.2702 24.9922 17.0901C24.7376 17.0591 24.4706 17.1212 24.2098 17.1336C24.036 17.1398 23.7628 17.0466 23.7131 17.1212C23.5889 17.3136 23.5579 17.5682 23.4896 17.8228C23.8 17.8414 24.0794 17.8352 24.3589 17.8787C25.9174 18.1022 27.1344 18.897 28.0285 20.1761C28.4942 20.8467 28.9226 21.5421 29.3449 22.2438C29.6926 22.8212 30.0031 23.4173 30.3259 24.0072C30.5184 24.3549 30.7047 24.7026 30.8723 25.0628C30.9034 25.1311 30.8599 25.2925 30.7978 25.3236C29.3138 26.2115 27.836 27.118 26.321 27.9439C25.5138 28.3847 24.6134 28.6766 23.6758 28.6952C23.2784 28.7014 22.8748 28.571 22.4712 28.5275C21.8752 28.4592 21.3474 28.2357 20.8134 27.8756C20.7327 28.1364 20.6644 28.3599 20.6023 28.5772C21.5833 29.2913 22.6389 29.7756 23.887 29.7321C24.5265 29.7135 25.1288 29.5459 25.6752 29.2478C26.8115 28.6269 27.9292 27.9749 29.0468 27.3167ZM22.434 29.8749C22.5954 30.0861 22.7817 30.3096 22.9556 30.5455C23.0797 30.707 23.1977 30.8746 23.2909 31.0547C23.3654 31.1913 23.4399 31.2596 23.6013 31.241C23.9242 31.1975 24.2471 31.1665 24.6258 31.123C24.4644 30.7504 24.3154 30.4151 24.1602 30.0798C24.1415 30.0364 24.0546 30.0115 23.9925 30.0053C23.4771 29.9557 22.9556 29.9122 22.434 29.8749ZM26.7432 32.5511C25.7684 32.725 24.7997 32.9113 23.8559 33.0851C23.8559 33.5694 23.8559 34.06 23.8559 34.6002C25.5076 34.2214 27.1095 33.8551 28.7239 33.4825C28.2458 31.9178 27.7615 30.3344 27.271 28.7262C26.8053 28.9746 26.3644 29.2106 25.9174 29.4527C26.1471 30.0488 26.3769 30.6325 26.5942 31.2286C26.7246 31.5763 26.8363 31.9302 26.9419 32.2841C26.9916 32.4518 26.9171 32.5201 26.7432 32.5511ZM23.8311 36.3946C26.1347 35.8172 28.4197 35.2459 30.742 34.6623C30.0714 32.3586 29.5436 30.0612 28.7426 27.8073C28.3141 28.0556 27.9167 28.2792 27.5131 28.5151C27.6187 28.9125 27.6994 29.2851 27.8112 29.639C28.1837 30.8498 28.5687 32.0544 28.9475 33.259C29.0841 33.6874 29.0779 33.6812 28.6246 33.7806C27.5194 34.0289 26.4141 34.2897 25.3027 34.5443C24.8866 34.6374 24.4706 34.743 24.0546 34.8361C23.8994 34.8672 23.8186 34.9293 23.8186 35.1031C23.8373 35.5067 23.8311 35.9103 23.8311 36.3946ZM23.7628 32.6194C23.7752 32.6815 23.9056 32.7685 23.9615 32.7622C24.8494 32.6256 25.7373 32.4766 26.6997 32.3214C26.3458 31.3714 26.0105 30.471 25.6752 29.5769C25.2344 29.7135 24.837 29.8439 24.4334 29.9681C24.601 30.3903 24.7625 30.8063 24.9611 31.3031C24.4396 31.3838 23.9987 31.4521 23.5454 31.5266C23.6137 31.8805 23.6758 32.2531 23.7628 32.6194ZM19.7764 40.3934C20.7885 40.381 21.8069 40.3561 22.819 40.3499C23.0549 40.3499 23.2971 40.3934 23.5206 40.4182C23.5206 39.2012 23.5082 37.9842 23.5268 36.7734C23.5392 36.0407 23.6386 35.3018 23.6075 34.5691C23.5641 33.4887 23.6324 32.3711 23.1356 31.359C22.7196 30.5145 22.1422 29.8004 21.2666 29.372C20.981 29.2292 20.7078 29.0553 20.4532 28.9063C20.2732 29.0677 20.0993 29.2292 19.913 29.3968C20.2359 29.6266 20.5774 29.8066 20.8444 30.0612C21.5709 30.7567 22.2105 31.5142 22.4464 32.5449C22.701 33.6315 22.7879 34.7244 22.7755 35.8358C22.7631 36.8914 22.7507 37.947 22.732 39.0025C22.732 39.1453 22.7072 39.2944 22.6761 39.4372C22.6637 39.4869 22.6016 39.5489 22.5458 39.5614C22.4216 39.5924 22.2974 39.5986 22.167 39.6048C20.832 39.6235 19.4908 39.6607 18.1558 39.6483C17.094 39.6359 16.0447 39.5117 15.0512 39.1267C14.511 38.9156 14.0267 38.6176 13.6541 38.1519C13.5175 37.9842 13.3064 37.8724 13.1636 37.7048C12.9401 37.4254 12.7476 37.1273 12.5178 36.7982C12.3502 36.9907 12.2012 37.1584 12.0087 37.3819C12.3564 37.8911 12.6855 38.4872 13.1201 38.9963C13.7907 39.7725 14.66 40.232 15.697 40.3561C16.5663 40.4617 17.4355 40.5052 18.311 40.4182C18.8016 40.3624 19.2921 40.3996 19.7764 40.3934ZM15.43 43.5539C15.5355 43.0261 15.6349 42.548 15.7156 42.0637C15.7777 41.7035 15.8149 41.331 15.8832 40.9709C15.9205 40.7535 15.9143 40.6294 15.6349 40.6045C15.312 40.5735 14.9891 40.4679 14.6662 40.3934C14.5917 40.8591 14.5172 41.2999 14.4365 41.7967C14.1571 41.6973 13.946 41.6352 13.741 41.5545C13.5361 41.4738 13.3312 41.3745 13.1077 41.2751C12.9711 41.6911 12.8469 42.0885 12.6979 42.5294C13.5982 42.8709 14.4862 43.2 15.43 43.5539ZM12.5799 42.7964C12.3564 43.2062 12.1142 43.6595 11.8596 44.1314C13.4616 44.6219 15.0326 45.1 16.6159 45.5843C16.9885 43.9761 17.3548 42.3804 17.7336 40.7535C17.1996 40.7287 16.7091 40.6977 16.2061 40.6728C16.0757 41.4552 15.9515 42.2375 15.8149 43.0199C15.7839 43.1938 15.7218 43.3614 15.7032 43.5353C15.6783 43.8085 15.5541 43.8644 15.312 43.7774C14.4179 43.4483 13.5175 43.1317 12.5799 42.7964ZM13.1263 40.8963C13.1325 40.946 13.176 41.0081 13.2195 41.0267C13.5486 41.182 13.8901 41.3248 14.2626 41.4924C14.2999 41.1199 14.3247 40.8156 14.3558 40.5176C14.3744 40.3375 14.3123 40.232 14.1509 40.1264C13.7907 39.8842 13.4554 39.6048 13.1077 39.3378C13.0704 39.313 13.027 39.2944 13.0084 39.2819C13.0456 39.8222 13.0829 40.3561 13.1263 40.8963ZM17.7957 47.6023C18.3794 45.2863 18.9506 43.0137 19.5281 40.6977C19.0375 40.6977 18.6215 40.6914 18.2055 40.7039C18.131 40.7039 18.013 40.8032 18.0006 40.8715C17.6342 42.4238 17.2741 43.9699 16.9264 45.5284C16.8395 45.9196 16.827 45.9383 16.4296 45.8141C15.1009 45.4043 13.7783 44.9882 12.4495 44.5784C12.2446 44.5163 12.0397 44.4418 11.8286 44.4232C11.723 44.417 11.574 44.5101 11.5119 44.6033C11.3132 44.9075 11.1518 45.2242 10.9407 45.5967C13.1884 46.4102 15.4921 46.9317 17.7957 47.6023ZM1.06178 41.5545C0.993477 41.1758 0.962429 40.7846 0.912754 40.3748C0.738895 40.412 0.540199 40.4431 0.353924 40.5052C0.291832 40.5238 0.22974 40.6356 0.22353 40.7039C0.204902 41.0143 0.173851 41.331 0.217315 41.629C0.291824 42.132 0.384971 42.6411 0.533992 43.1317C0.88792 44.2742 1.73858 45.0069 2.71964 45.5781C4.07326 46.3667 5.45792 47.1118 6.82395 47.8818C7.43867 48.2295 8.05339 48.5834 8.63705 48.9187C9.05928 48.2046 9.50014 47.4533 9.9472 46.7082C10.5743 45.665 11.2263 44.6343 11.8348 43.5787C12.3005 42.7777 12.7103 41.9457 12.8345 41.0081C12.909 40.4058 12.8469 39.8097 12.6296 39.2571C12.3874 38.6362 12.0646 38.0525 11.7727 37.4316C11.4933 37.5123 11.276 37.5806 11.0462 37.6489C11.0711 37.7172 11.0711 37.7917 11.1083 37.8352C11.5243 38.363 11.6051 39.0149 11.7417 39.6359C11.9466 40.5673 11.7541 41.4614 11.4126 42.3431C10.8103 43.9078 9.89752 45.3049 9.03444 46.7268C8.84816 47.0311 8.64326 47.3291 8.46319 47.6334C8.38247 47.7638 8.3328 47.8134 8.17136 47.7203C7.4573 47.3229 6.7246 46.969 6.01675 46.5592C5.1785 46.0811 4.34026 45.603 3.54547 45.0565C2.85625 44.5846 2.19186 44.0506 1.75721 43.3117C1.53989 42.9392 1.4095 42.517 1.24805 42.1196C1.18596 41.9457 1.09903 41.7532 1.06178 41.5545ZM2.03662 39.9401C1.62061 40.145 1.53989 40.5797 1.55852 40.9709C1.57714 41.4614 1.70133 41.9457 1.81309 42.4238C1.86898 42.666 1.99316 42.8895 2.06146 43.0634C2.40297 42.4487 2.73206 41.8091 3.11083 41.1944C3.34678 40.8032 3.65103 40.4555 3.91803 40.0891C4.19744 39.7042 4.303 39.2695 4.31542 38.7976C4.32783 38.481 4.3713 38.1705 4.40235 37.8538C3.82489 38.81 3.01148 39.462 2.03662 39.9401ZM3.12945 41.6477C2.78794 42.1754 2.44643 42.7094 2.39055 43.3738C2.37192 43.6346 2.45885 43.7961 2.63271 43.9513C2.99285 44.268 3.3592 44.5846 3.7628 44.9386C3.78764 43.9327 4.14777 43.0944 4.48928 42.2438C4.7066 41.6911 4.82458 41.1261 4.7066 40.5362C4.65693 40.2878 4.52653 40.0519 4.43339 39.7973C3.98012 40.4369 3.53305 41.0267 3.12945 41.6477ZM5.40203 40.3499C5.62557 40.5673 5.89877 40.7349 6.17198 40.8963C6.42656 41.0516 6.64389 40.9398 6.80533 40.7287C7.25239 40.1388 7.33932 39.4744 7.20271 38.7666C7.05369 38.0153 6.59421 37.4316 6.12231 36.8603C5.78701 36.4505 5.42688 36.0656 5.09779 35.693C4.96118 36.4319 4.76248 37.2018 4.68176 37.9842C4.58862 38.8473 4.72523 39.698 5.40203 40.3499ZM0.403591 30.707C0.335289 30.7318 0.22353 30.8125 0.229736 30.8684C0.248367 31.2099 0.291832 31.5452 0.322876 31.8805C0.397388 32.6381 0.800987 33.2466 1.25426 33.824C1.56472 34.2152 2.00558 34.4201 2.46506 34.5443C2.93076 34.6685 3.41508 34.743 3.89319 34.7989C4.69418 34.892 5.38341 34.5816 5.99813 34.1034C6.52591 33.6936 7.04127 33.2714 7.32069 32.6443C7.44488 32.3773 7.5256 32.0792 7.56285 31.7874C7.68704 30.8187 7.40141 29.937 6.91088 29.1174C6.87363 29.0553 6.7184 29.0305 6.61905 29.0367C6.14094 29.074 5.66282 29.1609 5.18471 29.1609C4.65071 29.1609 4.19124 28.9125 3.7628 28.6083C3.65103 28.5275 3.54547 28.453 3.38403 28.3413C3.56409 29.074 3.71933 29.757 3.90561 30.4276C3.93044 30.5083 4.09189 30.589 4.19745 30.6014C4.98602 30.7256 5.52622 31.1851 5.70008 31.9364C5.94224 32.9734 5.39583 33.973 4.11052 33.9482C3.34678 33.9358 2.9618 33.4515 2.72585 32.8802C2.4899 32.309 2.58925 31.688 2.99285 31.1665C3.05494 31.092 3.10461 30.9864 3.18534 30.9491C3.57031 30.7753 3.51443 30.5207 3.39645 30.1916C3.21017 29.6514 3.07357 29.0926 2.8935 28.4654C2.8252 28.6207 2.78173 28.7076 2.75069 28.8007C2.34088 29.8812 1.43433 30.3655 0.403591 30.707ZM3.03011 31.7563C2.91213 32.3648 3.19154 33.141 3.62619 33.4018C4.07326 33.6688 4.49548 33.4701 4.90529 33.2962C5.33373 33.1162 5.32753 32.7064 5.32753 32.3214C5.32753 31.6135 4.95497 31.0671 4.37751 30.9119C3.78142 30.7505 3.14808 31.154 3.03011 31.7563ZM0.825825 24.4356C0.769939 24.4605 0.695427 24.4977 0.614708 24.535C0.192478 24.7213 0.217315 24.7151 0.335293 25.1808C0.509151 25.9135 1.53988 26.7144 2.29741 26.6027C2.84382 26.522 3.32194 26.3481 3.63861 25.8576C4.08568 25.1621 4.14776 24.4977 3.81868 23.7092C3.58893 23.7402 3.38403 23.7713 3.17913 23.8023C3.20396 24.1376 3.24122 24.4729 3.24743 24.8082C3.25985 25.2863 2.98664 25.6837 2.58925 25.8017C1.98695 25.9755 1.57714 25.8638 1.29152 25.3919C1.11145 25.1 0.981056 24.771 0.825825 24.4356ZM1.1487 24.1997C1.12386 24.2307 1.11766 24.299 1.13628 24.3363C1.29152 24.6902 1.40949 25.069 1.63303 25.3732C1.85035 25.6713 2.21049 25.7085 2.5582 25.5347C2.86866 25.3795 3.00527 25.1062 2.99285 24.7709C2.98664 24.5288 2.9556 24.2866 2.92455 24.0507C2.89971 23.883 2.81899 23.7899 2.64513 23.6968C2.34088 23.5229 2.09251 23.2559 1.82551 23.0199C1.75721 22.9578 1.71375 22.8709 1.62061 22.7343C1.62061 23.3242 1.50263 23.8023 1.1487 24.1997ZM0.26699 20.6915C0.229736 20.7163 0.217315 20.797 0.217315 20.8467C0.186268 21.4552 0.6768 22.0823 1.26668 22.1817C1.60818 22.2376 1.77584 21.9892 1.93107 21.7595C2.19186 21.3807 2.16081 20.7225 1.88139 20.3562C1.85656 20.3189 1.81931 20.2755 1.78205 20.263C1.2108 20.0519 1.2108 20.0519 0.813408 19.6359C0.683014 20.0333 0.645756 20.4493 0.26699 20.6915ZM1.26047 11.7378C0.670593 11.8309 0.180061 12.458 0.211105 13.0727C0.211105 13.1286 0.229736 13.2093 0.260784 13.228C0.645756 13.4701 0.6768 13.8862 0.800983 14.2835C1.09903 13.9979 1.31635 13.6502 1.76963 13.6502C1.81309 13.6502 1.85656 13.5819 1.8876 13.5384C2.24774 13.0106 2.13597 12.1972 1.63303 11.8185C1.5523 11.744 1.38465 11.7191 1.26047 11.7378ZM1.29773 9.94949C1.50263 10.2848 1.57093 10.6946 1.70132 11.0796C1.91865 10.6387 2.30362 10.3283 2.78173 10.142C2.81278 10.1296 2.85004 10.0923 2.86246 10.0613C2.97422 9.6204 3.09841 9.17333 2.89971 8.72627C2.76311 8.4096 2.48369 8.29162 2.16702 8.28541C1.86277 8.27299 1.63923 8.45927 1.47779 8.70764C1.39087 8.84424 1.3474 9.01189 1.26668 9.15471C1.12387 9.42791 1.11145 9.65145 1.29773 9.94949ZM0.384968 8.58346C0.1366 9.22922 0.149013 9.23543 0.832031 9.46517C0.981052 9.1485 1.11145 8.81941 1.29152 8.52757C1.59577 8.03704 2.01179 7.92528 2.61409 8.11776C3.01148 8.24816 3.26605 8.63313 3.25364 9.12987C3.24742 9.45896 3.21017 9.78184 3.18534 10.1109C3.39024 10.142 3.58894 10.173 3.8311 10.2103C3.98633 9.80668 4.11672 9.37824 4.00495 8.93117C3.84351 8.29162 3.5641 7.739 2.8935 7.45337C1.76963 6.97526 0.701641 7.76384 0.384968 8.58346ZM3.75037 -0.879427C3.19775 -0.804916 2.64513 -0.674524 2.11113 -0.500666C1.54609 -0.314388 1.19217 0.132677 0.856869 0.623207C0.35392 1.36832 0.285622 2.20036 0.22353 3.04481C0.217319 3.09449 0.322872 3.18762 0.397385 3.20625C1.14249 3.46083 1.87518 3.74025 2.35329 4.41084C2.56441 4.70889 2.71343 5.0504 2.91213 5.40432C3.06736 4.87033 3.22259 4.34254 3.37782 3.81476C3.40266 3.74025 3.40887 3.65953 3.43991 3.59123C3.55789 3.36148 3.53305 3.20625 3.2971 3.04481C2.53337 2.51703 2.39055 1.14479 3.15429 0.387257C3.85593 -0.308178 4.99223 -0.0970649 5.4455 0.536278C5.86773 1.12616 5.98571 2.00787 5.31511 2.71572C5.01086 3.0386 4.66314 3.26834 4.20986 3.3056C3.99254 3.32423 3.91182 3.436 3.86835 3.64711C3.73175 4.27424 3.5641 4.88896 3.39645 5.53472C3.75659 5.3236 4.06705 5.1187 4.39614 4.95105C4.93013 4.67784 5.50759 4.7151 6.08505 4.77098C6.10368 4.77098 6.12231 4.7834 6.14094 4.78961C6.89846 4.94484 6.89846 4.94484 7.22134 4.23078C7.58148 3.42358 7.68704 2.59775 7.49455 1.72224C7.34553 1.03923 6.89847 0.573534 6.40794 0.132677C6.19061 -0.0598086 5.94845 -0.227459 5.7125 -0.395107C5.12883 -0.817337 4.45823 -0.972566 3.75037 -0.879427ZM4.20366 3.03239C4.67556 2.98893 4.99223 2.7033 5.1785 2.29349C5.27785 2.06996 5.3089 1.81538 5.37099 1.57322C5.32752 0.747393 4.7066 0.238236 3.89319 0.393467C3.50201 0.467978 3.33436 0.803276 3.17292 1.10753C2.93076 1.55459 2.90592 2.0265 3.1605 2.47356C3.38403 2.87095 3.74417 3.07586 4.20366 3.03239ZM4.86804 -2.99678C4.94255 -2.58076 5.02328 -2.15853 5.10399 -1.75493C5.58211 -2.33239 6.09747 -2.90985 6.56937 -3.52456C7.20272 -4.33797 7.44488 -5.25694 7.11579 -6.26905C7.04749 -6.48637 6.90467 -6.68507 6.76186 -6.86514C6.63147 -7.03279 6.44519 -7.10109 6.21545 -7.00795C5.31511 -6.65402 4.89288 -5.93996 4.71281 -5.03962C4.57 -4.34418 4.75006 -3.67359 4.86804 -2.99678ZM4.52032 -8.26222C4.26575 -8.97628 4.04842 -9.70276 3.82489 -10.423C3.77522 -10.5845 3.78142 -10.7707 3.75658 -10.9943C3.39024 -10.69 3.03632 -10.3982 2.68239 -10.1126C2.23532 -9.74622 2.32225 -9.25569 2.52716 -8.87072C2.93697 -8.10078 3.43991 -7.3805 3.90561 -6.64781C4.06084 -6.40565 4.2347 -6.1697 4.40855 -5.91512C4.88046 -6.67886 4.80595 -7.45501 4.52032 -8.26222ZM1.58956 -6.74716C1.65786 -6.41186 1.79446 -6.13865 2.12976 -5.97721C3.07357 -5.51773 3.84972 -4.87197 4.37751 -3.86607C4.39614 -3.99026 4.40855 -4.04614 4.40855 -4.10202C4.37751 -4.4187 4.34025 -4.73537 4.31542 -5.05825C4.27195 -5.54878 4.09809 -5.98963 3.78763 -6.3684C3.07357 -7.23148 2.47127 -8.15045 2.09872 -9.24328C1.751 -8.42986 1.4095 -7.64129 1.58956 -6.74716ZM4.79974 -12.8446C3.96149 -12.3727 3.11703 -11.9008 2.29741 -11.3917C1.03693 -10.6093 0.403591 -9.41093 0.217316 -7.97038C0.16143 -7.56057 0.204895 -7.13834 0.217316 -6.72232C0.217316 -6.67886 0.273205 -6.61677 0.316669 -6.60435C0.521572 -6.54846 0.726475 -6.505 0.918961 -6.46154C0.962425 -6.82788 0.974846 -7.1756 1.04315 -7.52332C1.29152 -8.8583 1.9497 -9.9325 3.03631 -10.7707C4.13535 -11.6214 5.34616 -12.2858 6.55696 -12.9564C7.09095 -13.2482 7.63737 -13.5277 8.17136 -13.8195C8.31417 -13.9002 8.38247 -13.8816 8.4694 -13.7388C8.84816 -13.1178 9.25797 -12.5093 9.62432 -11.8822C10.1148 -11.044 10.6116 -10.1995 11.0462 -9.3302C11.4623 -8.49196 11.7976 -7.61645 11.8162 -6.66023C11.8224 -6.27526 11.7479 -5.89029 11.6858 -5.51152C11.6361 -5.20727 11.5616 -4.90302 11.456 -4.61118C11.3505 -4.32556 11.1891 -4.05856 11.04 -3.7481C11.2884 -3.67359 11.5057 -3.61149 11.7293 -3.54319C12.0708 -4.22 12.5489 -4.81609 12.7289 -5.59845C12.9711 -6.66644 12.8655 -7.67234 12.375 -8.62856C12.0149 -9.33642 11.5927 -10.0194 11.1891 -10.7087C10.5992 -11.7083 9.99688 -12.7018 9.41321 -13.7015C9.14621 -14.1486 8.90405 -14.6143 8.67431 -15.0179C7.3952 -14.2976 6.09126 -13.5773 4.79974 -12.8446Z" fill="#E2D5F6"/>
</svg>
