<svg width="17" height="17" viewBox="0 0 17 17" fill="none" xmlns="http://www.w3.org/2000/svg">
<path d="M16.0094 4.73209L12.518 1.24146C12.4019 1.12536 12.2641 1.03326 12.1124 0.970422C11.9607 0.907586 11.7982 0.875244 11.634 0.875244C11.4698 0.875244 11.3072 0.907586 11.1556 0.970422C11.0039 1.03326 10.8661 1.12536 10.75 1.24146L1.11641 10.8751C0.999834 10.9907 0.907407 11.1284 0.844506 11.2801C0.781604 11.4318 0.749482 11.5944 0.750006 11.7586V15.2501C0.750006 15.5816 0.881702 15.8995 1.11612 16.1339C1.35054 16.3684 1.66849 16.5001 2.00001 16.5001H15.125C15.2908 16.5001 15.4497 16.4342 15.5669 16.317C15.6842 16.1998 15.75 16.0408 15.75 15.8751C15.75 15.7093 15.6842 15.5503 15.5669 15.4331C15.4497 15.3159 15.2908 15.2501 15.125 15.2501H7.25938L16.0094 6.50006C16.1255 6.38398 16.2176 6.24617 16.2804 6.09449C16.3433 5.94282 16.3756 5.78025 16.3756 5.61607C16.3756 5.45189 16.3433 5.28933 16.2804 5.13765C16.2176 4.98597 16.1255 4.84816 16.0094 4.73209ZM13.25 7.49146L9.75938 4.00006L11.6344 2.12506L15.125 5.61646L13.25 7.49146Z" fill="#171717"/>
</svg>
