<svg width="21" height="20" viewBox="0 0 21 20" fill="none" xmlns="http://www.w3.org/2000/svg">
<path d="M18.5094 5.73209L15.018 2.24146C14.9019 2.12536 14.7641 2.03326 14.6124 1.97042C14.4607 1.90759 14.2982 1.87524 14.134 1.87524C13.9698 1.87524 13.8072 1.90759 13.6556 1.97042C13.5039 2.03326 13.3661 2.12536 13.25 2.24146L3.61641 11.8751C3.49983 11.9907 3.40741 12.1284 3.34451 12.2801C3.2816 12.4318 3.24948 12.5944 3.25001 12.7586V16.2501C3.25001 16.5816 3.3817 16.8995 3.61612 17.1339C3.85054 17.3684 4.16849 17.5001 4.50001 17.5001H17.625C17.7908 17.5001 17.9497 17.4342 18.0669 17.317C18.1842 17.1998 18.25 17.0408 18.25 16.8751C18.25 16.7093 18.1842 16.5503 18.0669 16.4331C17.9497 16.3159 17.7908 16.2501 17.625 16.2501H9.75938L18.5094 7.50006C18.6255 7.38398 18.7176 7.24617 18.7804 7.09449C18.8433 6.94282 18.8756 6.78025 18.8756 6.61607C18.8756 6.45189 18.8433 6.28933 18.7804 6.13765C18.7176 5.98597 18.6255 5.84816 18.5094 5.73209ZM15.75 8.49146L12.2594 5.00006L14.1344 3.12506L17.625 6.61646L15.75 8.49146Z" fill="#8A57DC"/>
</svg>
