<svg width="25" height="24" viewBox="0 0 25 24" fill="none" xmlns="http://www.w3.org/2000/svg">
<path d="M21.875 12C21.8752 14.4648 20.9048 16.8305 19.1737 18.5851C17.4426 20.3397 15.0902 21.342 12.6256 21.375H12.5C10.1066 21.3801 7.80309 20.4639 6.06687 18.8166C5.84994 18.6117 5.72327 18.329 5.71474 18.0308C5.70622 17.7325 5.81653 17.443 6.02141 17.2261C6.22629 17.0092 6.50895 16.8825 6.80722 16.874C7.10549 16.8654 7.39494 16.9758 7.61188 17.1806C8.63023 18.1421 9.90933 18.782 11.2893 19.0206C12.6694 19.2592 14.0891 19.0858 15.3711 18.522C16.6531 17.9583 17.7406 17.0292 18.4976 15.851C19.2546 14.6727 19.6475 13.2975 19.6274 11.8971C19.6072 10.4968 19.1748 9.13345 18.3842 7.97747C17.5935 6.8215 16.4798 5.92415 15.1821 5.39757C13.8843 4.871 12.4602 4.73854 11.0876 5.01676C9.71507 5.29499 8.45493 5.97154 7.46469 6.96189C7.4525 6.97408 7.44125 6.98533 7.42813 6.99658L5.64594 8.62501H7.25C7.54837 8.62501 7.83452 8.74354 8.0455 8.95452C8.25647 9.1655 8.375 9.45164 8.375 9.75001C8.375 10.0484 8.25647 10.3345 8.0455 10.5455C7.83452 10.7565 7.54837 10.875 7.25 10.875H2.75C2.45163 10.875 2.16548 10.7565 1.9545 10.5455C1.74353 10.3345 1.625 10.0484 1.625 9.75001V5.25001C1.625 4.95165 1.74353 4.6655 1.9545 4.45452C2.16548 4.24354 2.45163 4.12501 2.75 4.12501C3.04837 4.12501 3.33452 4.24354 3.5455 4.45452C3.75647 4.6655 3.875 4.95165 3.875 5.25001V7.19251L5.88875 5.34939C7.20209 4.0431 8.87297 3.15516 10.6905 2.79763C12.508 2.4401 14.3907 2.62901 16.101 3.34051C17.8113 4.05202 19.2724 5.25423 20.3001 6.79541C21.3277 8.33659 21.8757 10.1477 21.875 12Z" fill="#8A57DC"/>
</svg>
