<svg width="20" height="20" viewBox="0 0 20 20" fill="none" xmlns="http://www.w3.org/2000/svg">
<path d="M17.8125 9.99989C17.8127 12.0539 17.004 14.0253 15.5614 15.4875C14.1188 16.9496 12.1585 17.7849 10.1047 17.8124H10C8.00552 17.8166 6.08591 17.0532 4.63906 15.6804C4.45828 15.5096 4.35273 15.2741 4.34562 15.0255C4.33851 14.777 4.43044 14.5358 4.60117 14.355C4.7719 14.1742 5.00746 14.0686 5.25602 14.0615C5.50458 14.0544 5.74578 14.1463 5.92656 14.3171C6.77519 15.1183 7.84111 15.6516 8.99112 15.8504C10.1411 16.0492 11.3242 15.9047 12.3926 15.4349C13.4609 14.9651 14.3671 14.1909 14.998 13.209C15.6288 12.2271 15.9563 11.0811 15.9395 9.91416C15.9227 8.74721 15.5623 7.61109 14.9035 6.64777C14.2446 5.68446 13.3165 4.93667 12.2351 4.49786C11.1536 4.05904 9.96684 3.94866 8.82303 4.18052C7.67922 4.41237 6.62911 4.97616 5.80391 5.80145C5.79375 5.81161 5.78438 5.82098 5.77344 5.83036L4.28828 7.18739H5.625C5.87364 7.18739 6.1121 7.28616 6.28791 7.46198C6.46373 7.63779 6.5625 7.87625 6.5625 8.12489C6.5625 8.37353 6.46373 8.61199 6.28791 8.7878C6.1121 8.96362 5.87364 9.06239 5.625 9.06239H1.875C1.62636 9.06239 1.3879 8.96362 1.21209 8.7878C1.03627 8.61199 0.9375 8.37353 0.9375 8.12489V4.37489C0.9375 4.12625 1.03627 3.88779 1.21209 3.71198C1.3879 3.53616 1.62636 3.43739 1.875 3.43739C2.12364 3.43739 2.3621 3.53616 2.53791 3.71198C2.71373 3.88779 2.8125 4.12625 2.8125 4.37489V5.99364L4.49062 4.4577C5.58508 3.36913 6.97748 2.62918 8.49209 2.33123C10.0067 2.03329 11.5756 2.19072 13.0008 2.78364C14.4261 3.37656 15.6437 4.37841 16.5001 5.66272C17.3564 6.94704 17.8131 8.45625 17.8125 9.99989Z" fill="#737373"/>
</svg>
