<svg width="36" height="34" viewBox="0 0 36 34" fill="none" xmlns="http://www.w3.org/2000/svg">
<path d="M36.0937 -18.5447C35.0195 -17.4395 33.9204 -16.3529 32.8462 -15.2476C32.3247 -14.7074 31.8217 -14.1424 31.3312 -13.5773C31.207 -13.4345 31.1201 -13.4469 30.9835 -13.5214C30.6171 -13.7263 30.2446 -13.9126 29.8782 -14.1237C29.1766 -14.5273 28.4253 -14.8378 27.823 -15.4091C27.6802 -15.5457 27.5808 -15.4525 27.5249 -15.2911C27.0965 -14.1175 26.3079 -13.1427 25.6994 -12.0685C25.6684 -12.0126 25.538 -11.9753 25.4697 -11.994C24.3147 -12.3417 23.166 -12.708 22.0111 -13.0495C20.9121 -13.3724 19.8006 -13.658 18.6954 -13.9623C18.5339 -14.0058 18.4408 -13.9747 18.3973 -13.7947C18.2794 -13.3227 18.149 -12.8571 18.0248 -12.3852C17.8012 -11.5407 17.5653 -10.6962 17.3604 -9.83936C17.1306 -8.88314 16.932 -7.92692 16.7271 -6.96448C16.6898 -6.79683 16.6029 -6.74716 16.4414 -6.74716C16.013 -6.75337 15.5783 -6.74095 15.1499 -6.74716C14.3737 -6.75958 13.6038 -6.76579 12.8276 -6.80925C12.5793 -6.82167 12.5358 -6.75958 12.5669 -6.53605C12.6165 -6.15107 12.6662 -5.75989 12.6662 -5.37492C12.6724 -4.65465 12.6352 -3.93437 12.6227 -3.2141C12.6165 -2.72978 12.6165 -2.73599 12.1446 -2.62423C10.9649 -2.34481 9.78512 -2.05918 8.61157 -1.76735C7.61189 -1.51898 6.6184 -1.24577 5.62492 -0.991196C5.46348 -0.947731 5.35172 -0.885637 5.4076 -0.693151C5.48211 -0.44478 5.56283 -0.190203 5.63114 0.0643749C5.90434 1.04544 6.17134 2.03271 6.45076 3.01377C6.74259 4.01966 7.04684 5.02556 7.36351 6.03146C7.4194 6.19911 7.40698 6.27983 7.25796 6.36055C6.18376 6.95042 5.22133 7.739 4.04778 8.14881C3.88013 8.2109 3.84908 8.32267 3.97327 8.46548C4.02294 8.52757 4.07883 8.57725 4.12229 8.64555C4.70596 9.64524 5.28963 10.6449 5.86088 11.6508C5.89193 11.7129 5.84225 11.8681 5.78016 11.924C5.28963 12.3835 4.76805 12.8182 4.28994 13.2839C3.13502 14.4077 1.99252 15.544 0.85002 16.6741C0.564395 16.9535 0.564396 16.9535 0.862439 17.2453C1.90559 18.2699 2.94253 19.3068 3.9919 20.3251C4.55694 20.8778 5.14061 21.4117 5.7429 21.9271C5.91676 22.0761 5.94781 22.1817 5.82983 22.3556C5.78637 22.4176 5.76153 22.4922 5.71806 22.5605C5.13439 23.5229 4.7308 24.6033 3.96706 25.4602C3.84288 25.603 3.90496 25.7085 4.07261 25.7706C5.25237 26.1929 6.22722 26.9814 7.30142 27.5899C7.3573 27.621 7.40698 27.7514 7.38835 27.8135C7.03442 29.0181 6.64945 30.2102 6.30173 31.4148C6.01611 32.3959 5.76774 33.3832 5.50074 34.3704C5.37656 34.8237 5.37656 34.8175 5.8112 34.9293C7.00338 35.2397 8.19555 35.575 9.38773 35.8731C10.3936 36.1214 11.4119 36.3263 12.424 36.5685C12.5048 36.5871 12.6103 36.7113 12.6165 36.7858C12.6414 37.3198 12.6662 37.8538 12.6538 38.394C12.6414 39.0957 12.5917 39.7911 12.5606 40.4865C12.5482 40.6728 12.5979 40.7722 12.8152 40.7163C12.9456 40.679 13.0822 40.648 13.2188 40.648C14.3117 40.6418 15.4045 40.648 16.4973 40.6418C16.6712 40.6418 16.7084 40.7411 16.7333 40.8715C16.8947 41.6415 17.0313 42.4176 17.2238 43.1814C17.5963 44.6716 18.0124 46.1556 18.3911 47.6396C18.447 47.8693 18.5526 47.8942 18.7451 47.8383C19.5274 47.6148 20.316 47.3974 21.0984 47.1739C22.5451 46.7517 23.9919 46.3232 25.4386 45.9134C25.5193 45.8886 25.6746 45.932 25.7118 45.9941C26.3203 47.0559 27.0965 48.0246 27.5249 49.1919C27.6119 49.4216 27.7112 49.4154 27.8851 49.2664C28.1024 49.0739 28.3321 48.8876 28.5867 48.7448C29.307 48.335 30.0335 47.9376 30.7661 47.5464C31.176 47.3291 31.1822 47.3353 31.4864 47.7079C31.5175 47.7451 31.5547 47.7762 31.5858 47.8134C32.4054 48.6641 33.225 49.5148 34.0508 50.3592C34.7401 51.0671 35.4355 51.7625 36.1185 52.4766C36.2054 52.5635 36.2737 52.6132 36.3483 52.6132L36.3483 52.1972C36.2365 52.1972 36.1309 52.0854 35.9012 51.8619C34.9946 50.9553 34.0819 50.0612 33.1878 49.1422C32.5855 48.5213 32.0204 47.8631 31.3995 47.1801C31.8093 46.9566 32.1756 46.7517 32.5482 46.5654C32.6103 46.5343 32.7469 46.553 32.7904 46.6026C33.5231 47.385 34.2495 48.1674 34.9822 48.9559C35.361 49.3658 35.746 49.7694 36.1185 50.1854C36.1992 50.2785 36.2737 50.3282 36.3483 50.322L36.3483 49.9991C35.2182 48.7945 34.1005 47.5961 32.9518 46.3667C33.3864 46.0935 33.8211 45.8265 34.2557 45.5595C34.7339 46.1432 35.212 46.7206 35.6839 47.2919C35.8329 47.4719 35.9819 47.652 36.1433 47.8197C36.2117 47.888 36.28 47.9252 36.3421 47.919L36.3421 47.6272C36.1496 47.4161 35.9571 47.2298 35.7894 47.0249C35.4169 46.5778 35.0505 46.1183 34.6842 45.6651C34.5414 45.4912 34.4482 45.3608 34.7152 45.1807C34.9822 45.0069 35.1996 44.7523 35.4417 44.5288C35.6715 44.8206 35.9012 45.1 36.1247 45.3856C36.1992 45.485 36.2738 45.5284 36.3421 45.5284L36.3421 45.2863C36.0937 44.9448 35.8888 44.6529 35.6839 44.3611C35.659 44.3239 35.6466 44.2431 35.6714 44.2059C35.9012 43.7091 36.1371 43.2124 36.3421 42.7777C36.3421 42.7777 36.3421 42.7778 36.3421 42.784L36.3421 40.2195C36.044 40.2133 35.7522 40.1574 35.4479 40.0643C34.5848 39.7973 33.8087 39.3937 33.1381 38.7914C32.6289 38.3319 32.306 37.7421 32.0204 37.1273C31.7162 36.4754 31.7348 35.7861 31.772 35.0783C32.1073 35.0783 32.4364 35.0783 32.7842 35.0783C32.8649 35.4074 32.9208 35.7489 33.0263 36.078C33.5355 37.6117 34.56 38.6051 36.1371 38.9715C36.2054 38.9839 36.2675 38.9963 36.3358 39.0025L36.3358 38.7045C35.8764 38.7107 35.4665 38.5244 35.0754 38.2823C34.0695 37.6551 33.3802 36.7734 33.1629 35.575C33.1319 35.4074 33.1132 35.2335 33.0822 35.0286C33.4734 34.9417 33.8273 34.861 34.2123 34.774C34.2557 34.9417 34.3054 35.1031 34.3489 35.2708C34.5476 36.0159 34.9263 36.6368 35.6156 37.0156C35.8639 37.1522 36.1061 37.2267 36.3358 37.2391L36.3358 36.9783C35.9571 36.9845 35.6156 36.7672 35.2368 36.3822C34.8084 35.9476 34.6221 35.3763 34.5041 34.7865C34.4917 34.7244 34.5476 34.625 34.6035 34.5878C34.8332 34.4263 35.0692 34.2773 35.2678 34.1469C35.4293 34.5008 35.5535 34.8672 35.7584 35.1901C35.9136 35.4384 36.1247 35.5626 36.3296 35.5626L36.3296 35.1776C36.2365 35.1714 36.1433 35.1218 36.0564 35.0348C35.7025 34.6871 35.5907 34.24 35.5969 33.7806C35.5969 33.5757 35.8081 33.377 35.9136 33.1658C36.0688 32.8554 36.2117 32.5387 36.3234 32.309C36.3296 32.3152 36.3296 32.3214 36.3358 32.3276L36.3358 30.4089C35.5162 30.4089 34.8394 29.9929 34.324 29.3844C33.7714 28.7324 33.61 27.9563 33.8087 27.1056C33.8521 26.9256 33.908 26.8573 34.0943 26.8697C34.2682 26.8821 34.442 26.8697 34.6283 26.8697C34.6283 27.1926 34.6221 27.472 34.6283 27.7514C34.6531 28.7449 35.2554 29.4155 35.9819 29.6328C36.0999 29.67 36.2241 29.6825 36.3421 29.6887L36.3421 29.403C35.8577 29.403 35.392 29.0988 35.1312 28.6207C34.827 28.0556 34.8518 27.4409 34.9388 26.8262C34.945 26.7827 35.0009 26.7331 35.0443 26.702C35.2678 26.553 35.4976 26.4102 35.7522 26.2487C35.7025 26.553 35.6218 26.8448 35.6156 27.1367C35.6094 27.4409 35.6342 27.7576 35.7087 28.0494C35.777 28.3102 36.0813 28.4965 36.3358 28.4903L36.3358 28.1984C36.2054 28.1984 36.0254 28.0494 35.9571 27.919C35.8764 27.7638 35.8577 27.5589 35.8639 27.385C35.8888 26.7765 36.0254 26.1929 36.2924 25.6465C36.2986 25.634 36.311 25.6278 36.3421 25.6216L36.3421 24.3673C36.3172 24.3673 36.2862 24.3673 36.2551 24.3673C35.6715 24.3487 35.1312 23.7899 35.1064 23.2062C35.1002 23.1007 35.0692 22.9951 35.0692 22.8895C35.0629 22.6722 35.0754 22.4797 35.3548 22.4052C35.8081 22.2873 36.1371 22.0016 36.3358 21.5235L36.3358 21.5297L36.3358 20.4183C36.3358 20.4183 36.3358 20.4183 36.3296 20.4183C36.2365 20.4183 36.1123 20.2941 36.0688 20.1947C35.7522 19.4869 35.9943 18.8473 36.3358 18.1457L36.3358 15.7738C36.3358 15.78 36.3296 15.7862 36.3296 15.7924C36.0316 15.097 35.7522 14.4822 36.0564 13.793C36.1061 13.675 36.2365 13.5881 36.3296 13.4888C36.3358 13.495 36.3358 13.495 36.3421 13.5012L36.3421 12.3897C36.3421 12.3897 36.342 12.3959 36.3358 12.3959C36.1309 11.9116 35.777 11.6384 35.3113 11.4956C35.2182 11.4645 35.1064 11.3404 35.1002 11.2472C35.0567 10.7877 35.1623 10.1544 35.5783 9.83151C35.8081 9.65145 36.0751 9.57072 36.3421 9.57072L36.3421 8.31646C36.3048 8.32267 36.2737 8.32267 36.2365 8.32888C36.1123 7.77625 35.9633 7.22363 35.8764 6.6648C35.8391 6.44748 35.8826 6.18669 35.9695 5.98178C36.0192 5.8576 36.2054 5.73341 36.3421 5.721L36.3421 5.41053C36.3296 5.41053 36.3234 5.41053 36.311 5.41053C36.044 5.42295 35.7335 5.64028 35.6901 5.94453C35.6342 6.31708 35.6528 6.70827 35.659 7.08703C35.6652 7.27331 35.7211 7.46579 35.7522 7.65828C35.51 7.50305 35.2554 7.38507 35.0629 7.205C34.9512 7.09945 34.9201 6.88833 34.9015 6.72068C34.827 5.98178 34.9325 5.30498 35.5473 4.79582C35.8018 4.58471 36.0688 4.49777 36.3358 4.50398L36.3358 4.22457C35.9943 4.21215 35.6901 4.35496 35.4107 4.56608C34.8705 4.97589 34.6221 5.54093 34.6221 6.21774C34.6221 6.47852 34.6221 6.73931 34.6221 7.04356C34.4172 7.04356 34.1936 7.05598 33.9701 7.03736C33.9142 7.03115 33.8397 6.93801 33.8211 6.86971C33.4734 5.57818 34.1378 4.3115 35.1871 3.85822C35.5224 3.71541 35.8701 3.5043 36.2179 3.49188C36.2551 3.49188 36.2986 3.49188 36.3358 3.49188L36.3358 1.56701C36.3358 1.57322 36.3296 1.57943 36.3296 1.57943C36.1744 1.27518 36.0005 0.86537 35.7708 0.486605C35.6156 0.238236 35.5348 -0.0039252 35.6466 -0.270923C35.7646 -0.562757 35.9012 -0.854591 36.0751 -1.11538C36.1496 -1.22094 36.2427 -1.27061 36.3358 -1.25819L36.3358 -1.64938C36.1247 -1.64938 35.9136 -1.50656 35.7335 -1.22094C35.5411 -0.916683 35.4231 -0.562755 35.2741 -0.227457C35.0443 -0.382688 34.7711 -0.562755 34.4793 -0.755243C34.6656 -1.69905 34.9884 -2.54971 35.9695 -2.97815C36.0937 -3.03403 36.2117 -3.05887 36.3296 -3.05887L36.3296 -3.33208C35.9074 -3.3445 35.5535 -3.10854 35.2306 -2.83534C34.7587 -2.43795 34.4544 -1.91637 34.3365 -1.30166C34.3054 -1.15264 34.2495 -1.00361 34.2061 -0.854591C33.8211 -0.947729 33.461 -1.02845 33.0884 -1.11538C33.1878 -2.63044 33.9639 -3.69842 35.1871 -4.44974C35.5721 -4.68569 35.9571 -4.79125 36.3296 -4.78504L36.3296 -5.06446C35.8639 -5.07067 35.4355 -4.8906 35.0505 -4.67327C34.1502 -4.15791 33.461 -3.4128 33.0946 -2.42553C32.9766 -2.10265 32.9208 -1.74872 32.8525 -1.40721C32.8214 -1.23335 32.7717 -1.1278 32.5606 -1.14022C32.2998 -1.15884 32.039 -1.14643 31.7845 -1.14643C31.5858 -2.46279 32.008 -3.56182 32.8152 -4.53046C33.6224 -5.50531 34.7276 -5.98342 35.9136 -6.27526C36.044 -6.3063 36.1868 -6.31872 36.3296 -6.31251L36.3296 -8.87072C36.3296 -8.87072 36.3296 -8.87072 36.3296 -8.86451C36.1309 -9.29295 35.9012 -9.77727 35.6777 -10.2616C35.6528 -10.3175 35.6528 -10.423 35.6839 -10.4727C35.8764 -10.7645 36.0813 -11.044 36.3234 -11.3793C36.3234 -11.3793 36.3234 -11.373 36.3296 -11.373L36.3296 -11.6338C36.2241 -11.6338 36.1247 -11.4972 35.8826 -11.224C35.7149 -11.0377 35.5845 -10.8142 35.4479 -10.6217C35.125 -10.9136 34.8146 -11.1868 34.4669 -11.5034C35.0878 -12.2548 35.6901 -12.9874 36.3358 -13.7698L36.3358 -14.043C36.2675 -14.043 36.1992 -13.9996 36.1309 -13.9188C35.5038 -13.1737 34.8767 -12.4286 34.2371 -11.6649C33.8211 -11.9195 33.3927 -12.1865 32.9394 -12.4659C34.0819 -13.6891 35.1995 -14.8813 36.3296 -16.0983L36.3296 -16.4336C36.2427 -16.4336 36.1558 -16.3529 36.0005 -16.179C35.2679 -15.378 34.5289 -14.5894 33.79 -13.7946C33.4734 -13.4531 33.1505 -13.1178 32.84 -12.7639C32.7283 -12.6335 32.6351 -12.5776 32.4737 -12.677C32.1322 -12.8819 31.7783 -13.0682 31.3498 -13.3103C33.0263 -15.0365 34.6593 -16.7192 36.3296 -18.4454L36.3296 -18.7C36.2737 -18.7 36.193 -18.6441 36.0937 -18.5447ZM18.6581 -13.6953C20.9431 -13.0433 23.2095 -12.4038 25.5193 -11.7456C25.2896 -11.342 25.1095 -11.0191 24.9295 -10.7024C24.8239 -10.5224 24.6997 -10.4603 24.4762 -10.5348C22.9798 -11.0067 21.4833 -11.4538 19.9869 -11.9132C19.6143 -12.025 19.5957 -12.0064 19.515 -11.6276C19.2853 -10.6031 19.0493 -9.58478 18.8134 -8.56026C18.6954 -8.0511 18.5712 -7.53574 18.4594 -7.02658C18.4284 -6.87135 18.3787 -6.77821 18.2049 -6.78442C17.8137 -6.79063 17.4287 -6.78442 16.9692 -6.78442C17.3976 -9.1253 18.0807 -11.3668 18.6581 -13.6953ZM23.3213 -7.36808C23.0791 -7.47364 22.8307 -7.58541 22.5886 -7.69717C22.067 -7.93934 22.0049 -7.9145 21.8931 -7.36188C21.8373 -7.07625 21.8186 -6.78442 21.7876 -6.49258C21.4212 -6.56709 21.0611 -6.62918 20.7134 -6.72232C20.6389 -6.74095 20.5333 -6.87135 20.5457 -6.93344C20.6823 -7.80273 20.8438 -8.67203 20.999 -9.54132C20.999 -9.55374 21.0238 -9.56616 21.0797 -9.62204C21.949 -9.29916 22.8369 -8.96386 23.7373 -8.62856C23.5883 -8.1815 23.4641 -7.79652 23.3213 -7.36808ZM23.4268 -5.37492C23.1722 -5.57361 22.9425 -5.85924 22.6445 -5.97721C22.0111 -6.23179 22.0422 -6.69749 22.1229 -7.21906C22.1353 -7.3122 22.1539 -7.41155 22.185 -7.57299C22.5513 -7.41155 22.899 -7.25632 23.2468 -7.09488C23.2902 -7.07625 23.3026 -6.9769 23.3088 -6.91481C23.3523 -6.40565 23.3896 -5.89649 23.4268 -5.37492ZM22.6569 -9.31779C22.1353 -9.51027 21.6137 -9.68413 21.0921 -9.87041C20.881 -9.94492 20.7755 -9.88904 20.7382 -9.64688C20.6637 -9.16876 20.5457 -8.69686 20.4588 -8.21875C20.3781 -7.74064 20.316 -7.26253 20.2477 -6.75958C19.7385 -6.78442 19.2356 -6.80304 18.7078 -6.82788C19.0804 -8.44228 19.4529 -10.0443 19.8255 -11.6649C21.3964 -11.1868 22.9735 -10.7024 24.5817 -10.2119C24.3334 -9.75243 24.1036 -9.31779 23.8553 -8.8583C23.4455 -9.01353 23.0543 -9.17497 22.6569 -9.31779ZM12.9084 -1.53761C12.9394 -2.84155 12.958 -4.1517 12.9642 -5.45564C12.9642 -5.80336 12.9146 -6.15107 12.8897 -6.48016C14.1067 -6.48016 15.33 -6.48016 16.5532 -6.48016C16.9444 -6.48016 17.3356 -6.47395 17.7267 -6.48016C17.9999 -6.48637 18.2669 -6.52984 18.5401 -6.52984C19.0431 -6.53605 19.5523 -6.54846 20.0552 -6.51121C20.4588 -6.48016 20.8624 -6.39323 21.2598 -6.31872C21.9863 -6.18212 22.5451 -5.74747 23.1039 -5.30041C23.7373 -4.79125 23.9857 -4.02751 24.4079 -3.4128C24.2402 -3.23273 24.085 -3.05887 23.9111 -2.86638C23.6876 -3.18926 23.5013 -3.52456 23.253 -3.79777C22.3837 -4.75399 21.3405 -5.3625 20.0304 -5.5612C18.9748 -5.72264 17.9192 -5.71022 16.8637 -5.73505C15.9012 -5.75989 14.9388 -5.67296 13.9764 -5.64192C13.8149 -5.63571 13.7528 -5.58603 13.7466 -5.42459C13.7466 -5.17001 13.7094 -4.92164 13.7032 -4.66707C13.6845 -3.54319 13.6473 -2.42553 13.6659 -1.30166C13.6845 -0.0846462 13.7777 1.13857 14.3241 2.25003C14.529 2.66605 14.8829 3.01377 15.1747 3.38011C15.3113 3.55397 15.4479 3.73404 15.6156 3.87685C15.895 4.10038 16.1993 4.29287 16.5284 4.52882C16.3359 4.69647 16.162 4.8517 15.9695 5.01314C15.361 4.60333 14.6097 4.32392 14.0695 3.7092C13.3741 2.91442 12.9829 2.01408 12.9208 0.964716C12.8897 0.461767 12.8401 -0.0411796 12.8339 -0.544128C12.8152 -0.885637 12.9022 -1.20852 12.9084 -1.53761ZM31.4864 -6.76579C31.1573 -7.00174 30.8717 -7.16318 30.6358 -7.39292C30.5426 -7.48606 30.524 -7.70338 30.5426 -7.85861C30.6482 -8.57889 30.8531 -9.28674 30.8717 -10.007C30.8965 -10.8763 30.7413 -11.7332 30.139 -12.4348C30.1266 -12.4472 30.1328 -12.4721 30.1266 -12.5776C30.7351 -12.1802 31.3064 -11.8263 31.8528 -11.4351C32.306 -11.106 32.3992 -10.6093 32.2626 -10.0939C32.126 -9.57858 31.9335 -9.07563 31.7534 -8.57268C31.5547 -7.99522 31.3063 -7.43639 31.4864 -6.76579ZM30.5923 -9.60341C30.555 -9.03216 30.3688 -8.46091 30.1887 -7.90829C30.0521 -7.47364 29.6733 -7.34325 29.3318 -7.59783C28.1024 -8.50438 27.2952 -9.68413 27.2766 -11.2489C27.2703 -12.0933 27.6429 -12.8508 28.1645 -13.5152C30.0335 -12.7267 30.7289 -11.5283 30.5923 -9.60341ZM28.3197 -8.14424C28.5494 -7.88966 28.7854 -7.6475 29.0214 -7.39913C29.1642 -7.25011 29.2138 -7.1073 29.1021 -6.90239C28.9655 -6.64781 28.8661 -6.37461 28.7171 -6.0331C28.3632 -6.99553 27.5187 -7.41155 26.873 -8.02006C26.6494 -8.23117 26.4073 -8.43607 26.2148 -8.68444C25.8608 -9.14393 25.8919 -9.65309 26.1341 -10.1436C26.3886 -10.6652 26.6805 -11.1681 26.9723 -11.7083C26.9971 -11.3047 26.9847 -10.9446 27.0468 -10.6031C27.2269 -9.65929 27.6802 -8.84588 28.3197 -8.14424ZM27.5684 -7.1073C28.0651 -6.72232 28.4004 -6.23179 28.5991 -5.65433C28.6612 -5.46806 28.6488 -5.25073 28.6674 -5.05204C28.6426 -5.0272 28.624 -5.00236 28.5991 -4.97753C27.6119 -5.50531 26.6122 -6.02068 25.6373 -6.57951C25.4138 -6.7037 25.2523 -6.95828 25.0909 -7.16939C24.9605 -7.34325 24.9916 -7.54194 25.0723 -7.74685C25.2337 -8.1815 25.3765 -8.62235 25.5442 -9.10667C26.0906 -8.24359 26.8357 -7.67855 27.5684 -7.1073ZM27.854 -5.10792C28.3508 -4.91543 28.7792 -4.6236 29.0586 -4.13307C29.2263 -3.82882 29.4622 -3.56803 29.6795 -3.26378C29.2759 -3.43143 28.9034 -3.60528 28.5122 -3.74189C27.9409 -3.94679 27.3449 -3.97163 26.7488 -3.92196C26.1837 -3.87849 25.8608 -4.17653 25.5876 -4.60497C25.2896 -5.07687 25.1406 -5.59224 25.0723 -6.14486C25.0474 -6.35598 25.0164 -6.56088 24.9916 -6.77821C25.8112 -5.98342 26.8109 -5.51773 27.854 -5.10792ZM25.7988 -3.5494C26.935 -3.76052 28.0527 -3.75431 29.1083 -3.22031C30.0645 -2.72978 30.8779 -2.08402 31.2256 -0.984985C30.94 -0.823545 30.6482 -0.655895 30.3998 -0.519293C30.0148 -0.885637 29.6795 -1.27061 29.2821 -1.57486C28.6798 -2.03435 27.972 -2.30134 27.2145 -2.37585C26.873 -2.4069 26.519 -2.40069 26.1713 -2.37585C25.2213 -2.30134 24.6997 -1.65558 24.2837 -0.898056C23.9422 -0.277132 23.8428 0.405884 23.7994 1.09511C23.7559 1.70983 23.9422 2.28728 24.1657 2.85233C24.1844 2.902 24.2092 2.95788 24.234 3.02618C23.936 3.20625 23.6441 3.3739 23.3585 3.54776C22.1601 2.15689 22.2284 -0.128109 23.2405 -1.59349C23.5324 -2.01572 23.8615 -2.41932 24.1906 -2.8105C24.6066 -3.29482 25.1965 -3.43763 25.7988 -3.5494ZM34.411 15.0162C34.0074 14.8734 33.6286 14.7617 33.2312 14.9169C33.1753 14.9355 33.0884 14.9169 33.0387 14.8796C32.5047 14.4947 32.2129 14.0538 32.4116 13.3894C32.4551 13.2342 32.66 13.0541 32.8214 13.0044C33.3927 12.843 33.9701 13.1162 34.262 13.6254C34.2992 13.6937 34.3178 13.7992 34.293 13.8737C34.1626 14.2587 34.2744 14.6188 34.411 15.0162ZM34.2992 20.0457C34.324 20.1202 34.2868 20.2382 34.2433 20.3127C33.9204 20.8219 33.3927 21.0578 32.8214 20.9026C32.6538 20.8529 32.4551 20.6604 32.3992 20.4928C32.2253 19.9464 32.5296 19.3068 33.0387 19.0274C33.0884 19.0026 33.1629 18.9653 33.2002 18.9839C33.61 19.1826 33.9887 19.0212 34.4048 18.9032C34.2806 19.3006 34.1564 19.6545 34.2992 20.0457ZM31.7534 42.4797C31.9086 42.9019 32.0763 43.318 32.2005 43.7464C32.5296 44.8765 32.1011 45.2118 31.4181 45.6775C31.0145 45.9507 30.5861 46.1804 30.1204 46.3853C30.2011 46.2798 30.3005 46.1866 30.3625 46.0687C30.8034 45.2304 30.9835 44.3363 30.8469 43.3925C30.7661 42.8274 30.6233 42.2686 30.5116 41.7098C30.4743 41.5235 30.4929 41.3807 30.6792 41.2689C30.94 41.1075 31.176 40.9026 31.4802 40.6728C31.3188 41.3496 31.5485 41.9147 31.7534 42.4797ZM30.3315 45.5098C30.0645 46.2487 29.456 46.702 28.8289 47.1242C28.6364 47.2546 28.4128 47.3353 28.1831 47.4533C27.6056 46.6772 27.2269 45.8389 27.2828 44.8765C27.3076 44.4605 27.4566 44.0444 27.6118 43.647C27.9347 42.8461 28.4563 42.1817 29.1331 41.6477C29.6671 41.2316 30.0086 41.3186 30.2508 41.9457C30.7103 43.1193 30.7599 44.3176 30.3315 45.5098ZM28.9903 41.3496C28.506 41.9209 28.003 42.4797 27.587 43.0944C27.1958 43.6781 27.0158 44.3673 26.9847 45.0752C26.9785 45.2366 27.022 45.398 27.053 45.6278C26.9661 45.5098 26.904 45.4415 26.8667 45.367C26.606 44.8703 26.3265 44.3797 26.0906 43.8706C25.7925 43.2372 26.0347 42.7032 26.5004 42.2686C26.9909 41.8091 27.5311 41.4055 28.0154 40.946C28.2949 40.679 28.5184 40.3437 28.7668 40.0333C28.8661 40.263 28.9593 40.53 29.0959 40.7722C29.2263 41.0205 29.1455 41.1696 28.9903 41.3496ZM25.538 43.0199C25.3455 42.4425 25.0971 41.9271 25.0102 41.3807C24.9543 41.0267 25.2772 40.7349 25.5752 40.5176C26.2955 39.9898 27.0841 39.5986 27.9161 39.2757C28.1583 39.1826 28.388 39.0584 28.6612 38.928C28.6736 39.9277 28.1334 40.5797 27.4132 41.1447C26.7301 41.6725 26.0471 42.2127 25.538 43.0199ZM27.4877 39.1826C26.5873 39.462 25.7615 39.9401 25.0226 40.6604C25.0599 40.0208 25.1344 39.4434 25.3827 38.9094C25.4697 38.7231 25.5752 38.5493 25.687 38.3754C25.9354 38.0091 26.2644 37.7917 26.7426 37.8228C27.7671 37.8973 28.7419 37.711 29.6423 37.1584C29.0772 38.0091 28.5619 38.8473 27.4877 39.1826ZM27.8602 37.5185C26.904 37.6986 25.9602 37.5558 25.0412 37.2701C24.8053 37.1956 24.5631 37.0652 24.3893 36.8976C23.52 36.0469 22.7935 35.0969 22.5699 33.8675C22.365 32.7498 22.4396 31.657 23.1288 30.6821C23.2033 30.5766 23.2654 30.471 23.3461 30.3468C23.6566 30.5269 23.936 30.6946 24.1781 30.8436C24.0602 31.3465 23.9174 31.8246 23.8366 32.309C23.7249 32.9796 23.8553 33.644 24.0664 34.2835C24.2402 34.8051 24.5259 35.2646 24.8984 35.6744C25.2648 36.0842 25.7367 36.2456 26.2458 36.2891C27.9223 36.4381 29.2635 35.8296 30.2756 34.4822C30.2942 34.4574 30.3129 34.4387 30.3439 34.4015C30.6358 34.5691 30.9338 34.7306 31.238 34.9044C30.6109 36.4319 29.4249 37.2267 27.8602 37.5185ZM21.5392 35.6868C21.4709 35.159 21.3716 34.6436 21.5889 34.1407C21.769 33.7185 21.9739 33.3149 22.1291 32.9734C22.2719 33.557 22.4085 34.209 22.601 34.8423C22.6879 35.1342 22.8618 35.4136 23.0481 35.662C23.4082 36.1463 23.284 36.5996 23.0418 37.0777C22.7003 37.7545 22.098 38.1705 21.502 38.6424C21.7007 37.6427 21.6696 36.6616 21.5392 35.6868ZM15.4666 26.584C15.4852 27.056 15.2803 27.3602 14.9264 27.6148C14.2558 28.0991 13.4796 28.2233 12.629 28.2978C13.4051 27.4844 13.8522 26.5468 14.2371 25.5719C14.4607 25.0069 14.7649 24.5164 15.3238 24.2121C15.6094 24.0569 15.8516 23.8334 16.0751 23.6719C15.9074 24.1811 15.6839 24.7026 15.5597 25.2553C15.4604 25.6837 15.4479 26.1432 15.4666 26.584ZM16.1558 10.3096C15.3796 9.69491 14.4979 9.29752 14.1937 8.26678C13.9577 7.472 13.2685 6.19911 12.629 5.62786C13.5728 5.67132 14.0695 5.79551 14.7215 6.16185C15.2058 6.43506 15.4976 6.78898 15.4666 7.4037C15.4107 8.4096 15.479 8.98706 16.1558 10.3096ZM13.995 -5.34387C14.9636 -5.48668 15.8764 -5.39976 16.6712 -4.88439C17.3976 -4.41249 17.8944 -3.71084 18.1986 -2.89743C18.3787 -2.41932 18.5091 -1.91637 18.5774 -1.40721C18.6333 -0.972567 18.4098 -0.761454 17.9627 -0.798708C17.0251 -0.86701 16.1993 -1.23956 15.4355 -1.77356C14.3551 -2.53109 13.9391 -3.59287 14.0012 -4.87818C14.0012 -5.03341 13.995 -5.18243 13.995 -5.34387ZM21.4895 -4.72916C22.2284 -4.16412 22.9549 -3.63633 23.2157 -2.70495C23.2964 -2.41311 23.2964 -2.15232 23.1102 -1.87912C22.5079 -1.00982 22.1974 -0.0411796 22.2098 1.07648C21.7007 0.0954228 21.2908 -0.817335 21.5454 -1.94742C21.7441 -2.83534 21.7007 -3.77293 21.4895 -4.72916ZM22.2657 2.19415C22.3899 2.54807 22.5203 2.902 22.6445 3.26213C21.918 2.99514 21.1915 2.74677 20.4836 2.46114C19.5336 2.07617 18.8817 1.40557 18.6395 0.387257C18.5836 0.157515 18.6209 -0.0970649 18.6519 -0.339226C18.6892 -0.618641 18.9003 -0.742824 19.1735 -0.761452C20.0614 -0.829754 20.7568 -0.457199 21.3157 0.20719C21.8124 0.784649 22.0297 1.49871 22.2657 2.19415ZM21.3591 -2.56834C21.3405 -1.95363 21.2225 -1.33891 21.148 -0.70557C20.5209 -1.01603 20.1732 -1.56865 20.0055 -2.22062C19.8689 -2.75462 19.813 -3.31345 19.6889 -3.85365C19.5709 -4.37523 19.4094 -4.8906 19.2604 -5.41838C19.751 -5.32524 20.2974 -5.26936 20.8003 -5.08929C21.0114 -5.01478 21.2101 -4.67327 21.2474 -4.43111C21.3467 -3.8164 21.3778 -3.18927 21.3591 -2.56834ZM19.3287 -4.30072C19.4405 -3.8847 19.5026 -3.45005 19.5771 -3.01541C19.6889 -2.37586 19.7572 -1.72388 20.2415 -1.15884C19.8379 -1.18989 19.4902 -1.1961 19.1611 -1.2644C19.0555 -1.28924 18.95 -1.48173 18.9127 -1.61833C18.6457 -2.58076 18.3477 -3.52456 17.6833 -4.30072C17.2673 -4.78504 16.8388 -5.25073 16.1806 -5.41217C16.1868 -5.44322 16.1931 -5.48048 16.1993 -5.51152C16.8637 -5.46806 17.5218 -5.4308 18.1862 -5.38113C18.8506 -5.33145 19.1673 -4.87818 19.3287 -4.30072ZM17.2735 -0.624851C18.1241 -0.370272 18.1241 -0.357853 18.2049 0.523859C18.2111 0.60458 18.2235 0.691511 18.2359 0.828114C17.3045 0.126469 16.1993 0.232025 15.1996 -0.0287628C14.38 -0.246086 14.0633 -0.581385 13.9515 -1.40721C13.9329 -1.55623 13.9205 -1.71147 13.9205 -1.8667C13.9143 -2.31376 13.9205 -2.76083 13.9205 -3.24515C14.5849 -1.74251 15.8267 -1.05329 17.2735 -0.624851ZM16.7457 0.517653C17.3231 0.604582 17.8261 0.834322 18.2669 1.20688C18.4408 1.3559 18.5588 1.5608 18.7637 1.81538C17.6771 1.87748 16.6774 1.95819 15.6839 1.97061C15.33 1.97682 14.9698 1.8278 14.6221 1.72845C14.411 1.67257 14.293 1.51734 14.2558 1.2876C14.1751 0.803276 14.0633 0.318956 13.9577 -0.202621C14.8581 0.263073 15.8081 0.37484 16.7457 0.517653ZM17.0065 2.21277C17.4411 2.19415 17.8696 2.10101 18.3042 2.06375C18.7016 2.0265 19.0679 2.13826 19.4219 2.32454C19.7261 2.48598 20.0614 2.61017 20.4402 2.77781C20.0863 2.81507 19.7882 2.83991 19.4964 2.88337C18.8196 2.98272 18.1986 3.2373 17.6522 3.63469C17.2362 3.93273 16.814 3.92031 16.3855 3.72783C15.628 3.39253 15.1437 2.75919 14.6407 2.07617C15.4728 2.31212 16.2427 2.25003 17.0065 2.21277ZM16.9568 4.46052C17.7143 3.8458 18.5153 3.32423 19.4964 3.16279C20.7444 2.95788 21.918 3.11311 22.9425 3.9762C22.7686 4.26182 22.601 4.55366 22.4706 4.77098C21.8186 4.64059 21.2163 4.42326 20.614 4.41706C19.5709 4.40464 18.5836 4.68405 17.7516 5.39191C17.0748 5.96937 16.9506 6.72068 16.9754 7.53409C16.994 8.26058 17.2114 8.95601 17.5963 9.5521C17.9379 10.0799 18.4098 10.5269 18.8568 11.0361C18.7326 11.2534 18.5712 11.5453 18.4035 11.8371C16.7643 11.3155 15.6591 9.27268 15.7398 7.85697C15.7646 7.36024 15.8143 6.86971 15.8578 6.37296C15.9261 5.57197 16.3359 4.96347 16.9568 4.46052ZM24.8922 13.526C24.9046 13.5384 24.8984 13.5633 24.917 13.6316C24.2278 13.4639 23.5634 13.3149 22.9115 13.1348C22.8183 13.11 22.7314 12.9486 22.7128 12.8306C22.5824 12.0296 22.1105 11.5018 21.3467 11.3279C20.5519 11.1479 19.6826 11.4521 19.4219 12.3773C19.0679 13.6316 20.2291 14.563 21.2971 14.3953C21.8248 14.3084 22.216 14.0476 22.5389 13.6502C22.5886 13.5881 22.6941 13.5136 22.7562 13.526C23.433 13.7123 24.1098 13.9234 24.7929 14.1221C24.4389 14.327 24.085 14.4884 23.7745 14.712C23.1288 15.1839 22.8556 15.8979 22.6072 16.6244C22.5824 16.6989 22.4954 16.8169 22.452 16.8169C21.9056 16.7548 21.3343 16.7486 20.8189 16.5747C19.4405 16.1091 18.6705 15.1094 18.565 13.6502C18.5339 13.1721 18.5091 12.6691 18.6271 12.2097C18.7451 11.7626 18.9996 11.3341 19.2728 10.9554C19.6392 10.4524 20.0614 9.97433 20.6575 9.71975C20.9493 9.59556 21.2598 9.50863 21.5765 9.46517C22.5141 9.34719 23.3709 9.63282 24.1719 10.0985C24.2402 10.1358 24.3147 10.2724 24.2961 10.3407C24.0043 11.5018 24.0664 12.5822 24.8922 13.526ZM32.0639 12.6691C31.592 12.427 31.1201 12.3214 30.6109 12.4021C30.5488 12.4146 30.4495 12.3649 30.4122 12.309C30.2197 12.042 30.0148 11.7812 29.8596 11.4894C29.6982 11.1789 29.7851 10.856 30.0397 10.6201C30.288 10.3841 30.5861 10.2972 30.8903 10.4711C31.1697 10.6263 31.4243 10.8188 31.6851 11.0051C31.741 11.0485 31.8031 11.1417 31.7907 11.1975C31.7162 11.7129 31.8155 12.1972 32.0639 12.6691ZM31.4181 12.7064C31.5361 12.7499 31.6541 12.7995 31.7658 12.8554C32.1881 13.0665 32.1819 13.0665 32.0949 13.5384C32.0204 13.9296 32.1446 14.2835 32.393 14.6747C31.8217 14.594 31.4119 14.8113 31.0456 15.1466C31.0021 15.1901 30.9152 15.2273 30.8593 15.2087C30.1018 15.0286 29.5988 14.1221 29.8534 13.4018C30.0086 12.9734 30.6978 12.4332 31.4181 12.7064ZM32.1508 20.6356C32.1694 20.6977 32.1322 20.8157 32.0825 20.8529C31.505 21.2938 30.7848 21.4863 30.1701 20.9274C29.6733 20.4742 29.6361 19.7166 30.1204 19.2137C30.3005 19.0274 30.524 18.8784 30.7475 18.7418C30.822 18.6983 30.9959 18.7169 31.0642 18.779C31.4305 19.1019 31.8341 19.3006 32.393 19.2385C32.0701 19.7104 32.008 20.1575 32.1508 20.6356ZM31.7845 22.666C31.7907 22.7405 31.7534 22.8523 31.7037 22.8958C31.4492 23.0882 31.1946 23.2869 30.9152 23.4298C30.5675 23.6098 30.288 23.5415 30.021 23.2683C29.7727 23.0137 29.7044 22.7219 29.8782 22.3928C30.0272 22.1134 30.2259 21.8588 30.4122 21.6042C30.4495 21.5484 30.5488 21.4987 30.6109 21.5111C31.1449 21.6167 31.623 21.4614 32.0949 21.2193C31.8217 21.685 31.7286 22.1569 31.7845 22.666ZM24.1657 22.548C24.2154 22.8895 24.2651 23.2311 24.2961 23.5726C24.3023 23.6471 24.2402 23.7588 24.1781 23.7961C23.2033 24.386 22.1477 24.6219 21.0363 24.3363C20.6761 24.2432 20.3222 24.0134 20.0304 23.7713C19.6889 23.4856 19.4094 23.1255 19.13 22.7778C18.5153 22.0016 18.3663 21.1075 18.5774 20.1575C18.6768 19.7166 18.7947 19.2696 18.9562 18.8473C19.1424 18.3568 19.5523 18.0588 19.9745 17.7607C20.7258 17.2205 21.5765 17.1646 22.4396 17.0963C22.4892 17.0901 22.5886 17.1646 22.601 17.2143C22.9239 18.4127 23.5324 19.3565 24.7991 19.7849C24.1285 19.9836 23.4641 20.1885 22.7873 20.3748C22.7128 20.3934 22.5762 20.3189 22.5203 20.2444C22.0111 19.6111 21.3529 19.4 20.5706 19.5552C19.9807 19.6732 19.4467 20.35 19.3784 20.9336C19.3287 21.3807 19.4591 21.7533 19.7137 22.0948C20.1608 22.6909 21.2536 22.8212 21.8807 22.368C22.3216 22.0451 22.6507 21.6539 22.7003 21.0827C22.719 20.8467 22.8556 20.7722 23.0729 20.7287C23.6255 20.617 24.1657 20.4679 24.7183 20.3376C24.7742 20.3251 24.8301 20.3189 24.9419 20.3003C24.7929 20.5238 24.6749 20.7039 24.5569 20.884C24.2216 21.3931 24.085 21.9457 24.1657 22.548ZM20.7755 26.553C20.9866 26.5654 21.1977 26.5778 21.4088 26.553C21.6075 26.5282 21.8 26.4599 22.0173 26.4102C21.9925 26.5778 21.9552 26.7331 21.9428 26.8945C21.9304 27.056 21.9428 27.2236 21.9428 27.4099C21.2474 27.6707 20.5457 27.7886 19.8193 27.5527C19.0493 27.2981 18.7637 26.7952 18.9313 25.9259C19.0245 25.4291 19.2728 25.0007 19.6392 24.6406C19.782 24.4977 19.9372 24.3611 20.0863 24.2183C20.3905 24.3673 20.6761 24.5102 20.9804 24.6592C20.8314 24.8206 20.6575 24.9696 20.5271 25.1559C20.3967 25.336 20.2912 25.5409 20.2229 25.752C20.0676 26.1867 20.3036 26.5157 20.7755 26.553ZM18.981 25.0628C18.6333 25.5844 18.5277 26.1804 18.6519 26.7952C18.7699 27.3913 19.5957 27.919 20.3657 27.9252C20.6389 27.9252 20.9183 27.9377 21.1853 27.9004C21.4523 27.8632 21.7131 27.77 21.9863 27.6955C22.098 28.0618 22.2036 28.4096 22.3216 28.7945C21.7441 29.0988 21.1294 29.2726 20.4836 29.2354C19.8565 29.1981 19.2356 29.0926 18.6519 28.7883C17.9068 28.3909 17.3356 27.888 17.2735 26.9814C17.1679 25.3857 17.764 24.1252 19.0679 23.1752C19.3411 23.467 19.5957 23.7402 19.8441 24.001C19.546 24.3549 19.2294 24.684 18.981 25.0628ZM21.533 26.2363C21.3219 26.2798 21.0921 26.2736 20.881 26.2425C20.5644 26.1929 20.4588 25.988 20.5706 25.6899C20.7134 25.3111 20.9742 25.0255 21.3095 24.8082C21.4088 24.7461 21.5454 24.7275 21.6696 24.7213C22.1726 24.684 22.6693 24.6654 23.0418 24.6468C22.8618 24.92 22.5762 25.2739 22.3837 25.6651C22.1974 26.0376 21.8807 26.1556 21.533 26.2363ZM18.1303 16.3761C17.6026 16.7051 17.6088 17.2081 18.1365 17.5372C18.4532 17.7297 18.8134 17.8539 19.1549 18.0091C19.0183 18.2202 18.863 18.4748 18.6954 18.7169C18.6705 18.7542 18.596 18.7977 18.5526 18.7852C17.7826 18.63 17.0686 18.363 16.6029 17.68C16.1372 16.9908 16.2489 16.5561 16.8947 15.8731C17.3293 15.4136 17.9254 15.2336 18.5339 15.1094C18.5836 15.097 18.6643 15.1404 18.6954 15.1839C18.8568 15.426 19.0121 15.6682 19.1487 15.8855C18.8009 16.0532 18.447 16.1836 18.1303 16.3761ZM19.515 16.2208C19.7013 16.2208 19.8876 16.4071 20.0738 16.5064C20.4029 16.6741 20.7382 16.8293 20.9742 16.9473C20.5768 17.1584 20.0987 17.4254 19.6019 17.6676C19.4964 17.7173 19.3287 17.7048 19.2107 17.6552C18.8817 17.5248 18.5526 17.3882 18.2607 17.2019C18.0745 17.0839 18.0869 16.8728 18.2483 16.6989C18.5898 16.3326 19.0493 16.227 19.515 16.2208ZM17.7454 15.0597C16.9692 15.3515 16.3731 15.8296 16.1061 16.6493C15.9261 17.2081 16.2055 17.6489 16.5346 18.0339C16.9444 18.5245 17.4784 18.8411 18.1179 18.9591C18.2607 18.9839 18.3973 19.0398 18.5339 19.0771C18.4656 19.4 18.3849 19.698 18.3352 20.0023C18.3104 20.1575 18.2545 20.1947 18.1055 20.1761C17.3293 20.0954 16.6463 19.8284 16.0316 19.3379C15.3051 18.7542 14.7836 18.0526 14.6159 17.1274C14.5787 16.9287 14.6159 16.6989 14.6842 16.5064C15.1934 14.9541 16.3048 14.0848 17.8633 13.7433C17.9937 13.7123 18.1303 13.7371 18.2918 13.7371C18.3725 14.0786 18.4532 14.4388 18.5401 14.83C18.2731 14.9045 17.9999 14.9604 17.7454 15.0597ZM26.1837 16.2332C25.8795 16.227 25.5628 16.2519 25.271 16.3202C24.9978 16.3823 24.7866 16.7176 24.8053 16.9659C24.8239 17.2764 25.0102 17.4875 25.2896 17.6055C25.6808 17.7669 26.0906 17.7235 26.4942 17.6365C26.6743 17.5993 26.8543 17.5744 27.053 17.5372C26.8916 17.798 26.7426 18.0339 26.5935 18.2699C26.5687 18.3071 26.5252 18.3568 26.488 18.3568C25.7739 18.4375 25.0723 18.481 24.4513 17.9967C23.5821 17.3136 23.7745 16.2146 24.737 15.7179C25.2896 15.4323 25.8857 15.4633 26.4756 15.5564C26.5252 15.5626 26.5811 15.6309 26.6122 15.6868C26.755 15.9042 26.8978 16.1277 27.053 16.3698C26.755 16.3202 26.4693 16.2394 26.1837 16.2332ZM27.1648 16.7051C27.3511 16.7548 27.5249 16.8542 27.7671 16.9535C27.0096 17.3012 26.2955 17.5123 25.5131 17.3882C25.2772 17.3509 25.1033 17.2329 25.0909 16.9783C25.0785 16.7051 25.2648 16.581 25.5069 16.5251C26.0782 16.3947 26.6184 16.5623 27.1648 16.7051ZM26.4321 15.277C26.0037 15.277 25.6001 15.2398 25.2089 15.2832C24.5072 15.3577 23.8304 15.9725 23.6566 16.581C23.4268 17.413 24.054 18.2078 24.7059 18.4872C25.184 18.6921 25.687 18.7169 26.1961 18.6424C26.2582 18.63 26.3265 18.6424 26.4073 18.6424C26.4197 18.6983 26.4259 18.7169 26.4259 18.7356C26.4569 19.4993 26.4197 19.5428 25.6435 19.549C24.5445 19.5614 23.7249 19.0957 23.2405 18.1022C23.0791 17.7669 22.868 17.4006 22.8742 17.0467C22.8928 16.078 23.3585 15.3081 24.1719 14.7554C24.8115 14.3208 25.5131 14.2711 26.2458 14.445C26.3141 14.4636 26.4197 14.5505 26.4259 14.6126C26.4507 14.8237 26.4321 15.0349 26.4321 15.277ZM21.6634 22.0637C21.4399 22.1507 21.1977 22.1817 20.9618 22.2376C20.1421 22.1941 19.6081 21.5297 19.7944 20.7349C19.8813 20.3562 20.2104 20.2072 20.5023 20.0395C21.1046 19.698 22.0173 19.8036 22.3526 20.5921C22.5762 21.1137 22.2781 21.8153 21.6634 22.0637ZM25.3393 20.3438C25.6621 20.0706 26.0968 19.9277 26.4942 19.729C26.668 20.0209 26.7922 20.232 26.8854 20.3872C26.4569 20.7039 25.9974 20.9771 25.6187 21.3434C24.9667 21.9768 24.9729 23.1628 25.6125 23.6781C26.1899 24.15 26.8605 24.2183 27.5435 23.97C27.9223 23.8334 28.2638 23.6036 28.624 23.4111C28.7419 23.6098 28.8661 23.8209 28.9903 24.0383C28.09 25.1311 26.488 25.1994 25.5442 24.4915C25.1344 24.1873 24.6811 23.9451 24.5445 23.4049C24.2402 22.2376 24.383 21.1634 25.3393 20.3438ZM26.3514 22.7033C26.519 23.0199 26.8295 23.1441 27.3262 22.9703C27.6553 22.8585 27.9347 22.6039 28.2328 22.399C28.3445 22.3245 28.4377 22.2252 28.5495 22.1382C28.6985 22.7095 28.537 23.1193 28.0713 23.4049C27.5622 23.7216 27.0344 23.9203 26.4135 23.7775C25.2648 23.5105 25.2027 22.281 25.7367 21.598C26.0844 21.151 26.5625 20.8964 27.0716 20.6915C27.1213 20.6728 27.1896 20.6666 27.2331 20.6853C27.4815 20.8095 27.7298 20.9461 27.9534 21.064C27.5125 21.2814 27.0592 21.4738 26.637 21.7346C26.2769 21.9582 26.1837 22.3928 26.3514 22.7033ZM27.5125 22.6039C27.3883 22.6784 27.2517 22.7405 27.1089 22.7654C26.8978 22.8026 26.6494 22.784 26.5935 22.548C26.5563 22.3928 26.6122 22.1444 26.7239 22.0327C27.1586 21.5918 27.7547 21.4676 28.3259 21.3124C28.4936 21.2689 28.6736 21.2689 28.8972 21.2503C28.5184 21.8464 28.0527 22.2624 27.5125 22.6039ZM27.4628 20.5176C26.8916 20.1637 26.5811 19.3875 26.7363 18.7418C26.9661 17.7856 27.6181 17.2391 28.6364 17.0901C28.7171 17.295 28.7916 17.4937 28.8723 17.6986C28.5743 17.8414 28.2514 17.9656 27.9658 18.1395C27.438 18.4562 27.3262 18.8287 27.5063 19.4683C27.6181 19.8657 28.121 20.1885 28.5557 20.1389C28.8599 20.1016 29.1704 20.083 29.4995 20.0519C29.5305 20.2506 29.5616 20.4555 29.5988 20.6853C28.8537 21.0392 28.1521 20.9461 27.4628 20.5176ZM28.9344 19.8346C28.7792 19.8346 28.624 19.8594 28.4687 19.8532C28.0651 19.847 27.8105 19.6297 27.6926 19.2013C27.6119 18.9156 27.7857 18.5244 28.0838 18.363C28.3073 18.245 28.5432 18.1519 28.773 18.0525C28.9282 17.9905 29.0586 18.0277 29.2263 18.1084C29.6236 18.3009 30.0521 18.4251 30.3936 18.5555C30.1949 18.779 29.872 19.0398 29.6982 19.3751C29.5181 19.7228 29.2821 19.8346 28.9344 19.8346ZM28.9531 16.879C28.9841 16.0904 30.0148 15.4198 30.7351 15.7303C30.8096 15.7613 30.8717 15.8793 30.9027 15.9662C31.0766 16.463 31.2939 16.7176 31.7845 16.9597C31.3126 17.1708 31.0207 17.4999 30.9027 17.9594C30.8593 18.1457 30.7537 18.2016 30.5861 18.2264C29.7168 18.3692 28.9158 17.7173 28.9531 16.879ZM31.2132 18.5245C31.1387 18.4313 31.1077 18.2637 31.1263 18.1395C31.207 17.5496 31.8714 17.0342 32.4737 17.0839C32.5172 17.0901 32.5855 17.0963 32.6041 17.1212C32.8462 17.5123 33.2809 17.5434 33.6597 17.68C33.3989 17.9656 33.0387 18.1829 33.0387 18.63C33.0387 18.6735 32.9766 18.7231 32.9332 18.7542C32.4116 19.1205 31.623 19.0212 31.2132 18.5245ZM33.1132 17.2081C33.0139 17.1646 32.8959 17.0342 32.8959 16.9535C32.8959 16.8666 33.0201 16.7424 33.1132 16.6927C33.8211 16.3636 34.4669 16.6306 35.1747 16.9473C34.4606 17.2888 33.8211 17.5434 33.1132 17.2081ZM32.6103 16.7921C32.5979 16.8107 32.5606 16.8231 32.5358 16.8293C31.977 16.9784 31.1139 16.2581 31.1201 15.6806C31.1263 15.3019 31.8776 14.83 32.2874 14.9355C32.4675 14.9852 32.6413 15.0349 32.8152 15.0907C32.958 15.1404 33.0077 15.246 33.0698 15.395C33.194 15.6682 33.4113 15.8979 33.5914 16.1463C33.61 16.1774 33.6597 16.1836 33.728 16.2208C33.2747 16.3512 32.8525 16.4009 32.6103 16.7921ZM30.3253 15.2398C30.375 15.2956 30.4433 15.3267 30.555 15.4136C29.9714 15.395 29.5119 15.5502 29.1145 15.8731C29.071 15.9104 28.9779 15.9166 28.922 15.8979C28.5991 15.7613 28.2576 15.6558 27.972 15.4633C27.6553 15.2522 27.6056 14.8983 27.7485 14.5257C27.854 14.2339 28.1458 14.0414 28.5122 14.0476C28.7357 14.0476 28.9593 14.0662 29.1828 14.0973C29.3753 14.1283 29.4995 14.209 29.6112 14.4139C29.7913 14.7244 30.0831 14.9728 30.3253 15.2398ZM29.4995 13.8551C29.1642 13.8303 28.8289 13.793 28.4874 13.7868C28.0217 13.7744 27.6305 14.0414 27.5063 14.4264C27.3138 15.0224 27.4194 15.4385 27.8913 15.7303C28.1955 15.9166 28.5308 16.0532 28.8599 16.2146C28.7854 16.4071 28.7109 16.612 28.6364 16.8107C27.5808 16.6927 27.022 16.1277 26.7612 15.3019C26.5501 14.625 26.7426 13.9482 27.3262 13.495C28.0092 12.961 28.773 12.8244 29.5926 13.2218C29.5616 13.4515 29.5305 13.6502 29.4995 13.8551ZM26.6184 12.16C27.0406 12.427 27.5125 12.6195 27.9471 12.843C27.7298 12.961 27.4877 13.0914 27.2331 13.2218C27.1958 13.2404 27.1399 13.2528 27.1027 13.2342C26.5439 13.0106 26.0347 12.725 25.6622 12.2283C25.4014 11.8806 25.3144 11.0361 25.6063 10.6511C25.9105 10.2475 26.5563 9.98674 27.1213 10.1047C27.6305 10.2103 28.0589 10.4711 28.4563 10.8002C28.4936 10.8312 28.537 10.8933 28.537 10.9368C28.5557 11.21 28.5681 11.477 28.5867 11.8061C28.3694 11.626 28.1893 11.4583 27.9844 11.3155C27.7795 11.1727 27.5622 11.0361 27.3324 10.9368C26.935 10.7629 26.5439 10.8747 26.3576 11.1913C26.1837 11.5018 26.2644 11.9364 26.6184 12.16ZM26.7798 11.9427C26.5811 11.7998 26.4507 11.5825 26.5997 11.3341C26.7426 11.0858 26.9909 11.0982 27.2207 11.1851C27.9223 11.4583 28.4128 11.9799 28.8227 12.607C28.0651 12.5946 27.3821 12.3835 26.7798 11.9427ZM28.1148 10.2103C27.4256 9.80668 26.7177 9.64524 25.9478 10.0178C25.2337 10.3655 25.0226 11.0175 25.1902 11.7564C25.3765 12.5698 25.9664 13.0044 26.668 13.3335C26.7301 13.3646 26.7922 13.3894 26.8543 13.4205C26.8792 13.4329 26.8978 13.4515 26.9164 13.4639C26.786 13.6875 26.6556 13.8986 26.5314 14.1221C25.0847 13.8551 24.383 12.5636 24.4141 11.626C24.4265 11.2969 24.4513 10.9678 24.5072 10.6449C24.5631 10.322 24.7059 10.024 24.9853 9.83772C25.3703 9.57693 25.7429 9.26026 26.1713 9.11124C27.0903 8.79457 27.972 8.93117 28.7233 9.61419C28.8164 9.70112 28.9096 9.78184 28.9965 9.86256C28.8661 10.0861 28.7419 10.2972 28.6053 10.5332C28.4439 10.4276 28.2825 10.3096 28.1148 10.2103ZM22.4333 12.992C22.4271 13.3832 22.098 13.8303 21.7069 13.9607C21.1232 14.1594 20.3346 13.9482 19.9496 13.4701C19.8689 13.3708 19.782 13.2156 19.8006 13.1038C19.8565 12.7436 19.9186 12.3711 20.0676 12.0482C20.2415 11.6757 20.6451 11.7253 20.9493 11.7129C21.8373 11.7191 22.4396 12.2531 22.4333 12.992ZM20.2229 8.19227C20.3657 8.50894 20.6078 8.78836 20.8127 9.07399C20.8562 9.13608 20.9369 9.16712 21.0176 9.22301C20.701 9.39066 20.434 9.53347 20.167 9.66386C20.1235 9.68249 20.0304 9.67007 19.9931 9.63903C19.5771 9.22922 19.1797 8.80699 18.9686 8.24195C18.6333 7.3354 19.0804 6.47852 20.0428 6.29225C20.6885 6.16806 21.3219 6.25499 21.9118 6.50336C21.9366 6.83866 21.9614 7.16775 21.9863 7.49063C21.7255 7.43475 21.4647 7.36024 21.2039 7.3354C21.0176 7.31677 20.8127 7.3354 20.6265 7.38507C20.2353 7.49063 20.049 7.81351 20.2229 8.19227ZM21.6075 9.19817C21.4709 9.18575 21.3095 9.13608 21.2101 9.04915C21.0114 8.86908 20.8065 8.67039 20.6761 8.43443C20.583 8.26678 20.5085 7.96874 20.5954 7.85077C20.701 7.70795 20.9866 7.62723 21.1853 7.63344C21.4585 7.63965 21.769 7.69554 21.9925 7.84456C22.216 7.99358 22.3526 8.2792 22.5141 8.51515C22.7065 8.78215 22.8866 9.05536 23.0294 9.26647C22.6134 9.24784 22.1105 9.23543 21.6075 9.19817ZM21.9863 6.21774C21.8186 6.17427 21.6448 6.1246 21.4709 6.08113C20.8438 5.91969 20.2104 5.91348 19.6081 6.15564C18.6022 6.56545 18.4035 7.32298 18.7823 8.42202C18.8817 8.71385 19.0493 8.98706 19.2356 9.23543C19.4157 9.47138 19.664 9.65765 19.8876 9.86877C19.6019 10.1792 19.3473 10.4524 19.0804 10.7381C17.9875 10.0116 17.4287 8.98085 17.2797 7.70795C17.2486 7.42233 17.261 7.13049 17.2859 6.84487C17.3666 5.97557 17.9441 5.49746 18.6643 5.13112C19.4157 4.75235 20.2166 4.60333 21.0425 4.7151C21.4771 4.77098 21.8993 4.94484 22.334 5.06281C22.2036 5.48504 22.098 5.83276 21.9863 6.21774ZM17.6274 11.9302C17.0624 12.042 16.4849 12.1476 15.9074 12.2655C15.1623 12.4208 14.4296 12.4394 13.7032 12.1476C13.1878 11.9364 12.7842 11.5949 12.5048 11.123C12.2129 10.6201 12.2999 10.322 12.8276 10.0613C13.5107 9.71975 14.2247 9.6887 14.945 9.96191C15.7025 10.2475 16.28 10.7939 16.8699 11.3093C17.1307 11.5266 17.3914 11.7378 17.6274 11.9302ZM12.7718 6.18048C13.2002 6.88833 13.5728 7.62102 13.9577 8.35371C14.1068 8.63313 14.2185 8.93738 14.3551 9.26026C13.4734 9.27889 12.8525 8.83804 12.3123 8.21711C11.7845 7.60861 11.2257 7.01873 10.6792 6.42885C10.5861 6.3295 10.4619 6.26741 10.3067 6.15564C10.7289 6.00041 11.1201 5.83897 11.5175 5.71479C12.0825 5.54714 12.4551 5.66511 12.7718 6.18048ZM11.0829 7.17396C11.5051 7.62723 11.8838 8.13018 12.3123 8.58346C12.5855 8.87529 12.9208 9.10503 13.2375 9.37203C12.9643 9.49621 12.6538 9.66386 12.3185 9.76942C12.2254 9.80047 12.0577 9.67628 11.9459 9.59556C11.4119 9.16092 10.909 8.6828 10.3439 8.28541C9.71682 7.84455 8.97171 7.65207 8.20797 7.58377C8.05274 7.57135 7.88509 7.62723 7.72365 7.65207C7.71123 7.62723 7.69881 7.6024 7.68639 7.57756C8.2266 7.29814 8.7606 7.0001 9.30701 6.73931C10.0583 6.36676 10.5799 6.62754 11.0829 7.17396ZM8.1583 7.86939C8.66746 7.85077 9.20766 8.04325 9.69819 8.24195C10.5054 8.56483 11.176 9.10503 11.6976 9.80667C12.0391 10.2662 11.9397 10.6263 11.4057 10.8374C10.2943 11.2783 9.16419 11.3528 8.00928 11.0175C7.15861 10.7691 6.64324 10.1296 6.17134 9.44033C6.04095 9.24784 5.96022 9.02431 5.84225 8.80078C6.53768 8.22953 7.32005 7.90665 8.1583 7.86939ZM7.32005 11.0113C8.45013 11.5763 9.6361 11.6011 10.8407 11.3093C11.1015 11.2472 11.3623 11.1479 11.6293 11.1106C11.7472 11.092 11.9211 11.1355 11.9956 11.2162C12.2129 11.4708 12.393 11.7564 12.6227 12.0855C12.0142 11.924 11.5113 12.1103 11.0083 12.2904C10.5054 12.4704 10.0087 12.6753 9.49329 12.8244C8.66125 13.0603 8.17071 12.8678 7.70502 12.1414C7.4194 11.6943 7.1524 11.2348 6.92266 10.7381C7.04684 10.825 7.17103 10.9368 7.32005 11.0113ZM11.4865 12.4146C12.1757 12.1972 12.8152 12.2593 13.4982 12.6443C12.6786 13.1907 11.9025 13.7061 11.1263 14.2214C10.7413 14.476 10.3067 14.6375 9.84721 14.6561C9.68577 14.6623 9.48087 14.5319 9.35668 14.4077C9.02138 14.0662 8.71713 13.6875 8.35699 13.2776C9.52433 13.259 10.4743 12.7312 11.4865 12.4146ZM13.0388 13.2404C13.4672 12.8927 13.9639 12.725 14.529 12.725C14.8394 12.725 15.1437 12.6691 15.5287 12.6257C15.4231 12.7064 15.3734 12.7436 15.3238 12.7747C14.5228 13.2404 13.9081 13.8862 13.5231 14.7182C13.2623 15.2832 12.8339 15.4757 12.275 15.4943C11.5237 15.5254 10.8469 15.2398 10.1328 14.9293C11.2567 14.563 12.1695 13.9482 13.0388 13.2404ZM13.1567 16.3823C13.3803 15.4012 13.8087 14.5009 14.5041 13.7682C15.1561 13.0727 15.9695 12.607 16.9133 12.427C17.3356 12.3463 17.7702 12.3711 18.2359 12.3463C18.2359 12.7064 18.2483 13.0044 18.2235 13.3025C18.2173 13.3646 18.0869 13.4577 18.0062 13.4701C16.5532 13.6191 15.5162 14.4139 14.7587 15.5999C14.1751 16.5064 14.1937 17.4503 14.7836 18.3506C15.4852 19.431 16.4414 20.1637 17.7329 20.4059C18.2421 20.499 18.2421 20.5114 18.2421 21.033C18.2421 21.1882 18.2421 21.3434 18.2421 21.5111C16.9009 21.6974 15.8019 21.2627 14.8332 20.4431C13.8832 19.6421 13.3989 18.5617 13.1257 17.3882C13.045 17.0715 13.0822 16.7051 13.1567 16.3823ZM17.6212 21.983C17.0375 22.4673 16.4663 22.9827 15.8578 23.4422C14.9823 24.1066 14.0136 24.3549 12.958 23.9079C12.1633 23.5726 12.157 23.1007 12.7966 22.4114C13.6535 21.4738 14.7525 21.4304 15.9012 21.6415C16.4725 21.7533 17.0499 21.8712 17.6212 21.983ZM13.3803 18.9653C13.8646 19.9091 14.4979 20.6977 15.51 21.2441C14.3986 21.2565 13.4424 21.1013 12.6103 20.3562C11.9087 19.7353 11.0829 19.2571 10.1142 18.9901C11.0456 18.6052 11.9273 18.1892 12.927 18.5617C13.1009 18.6238 13.2871 18.7914 13.3803 18.9653ZM10.5551 19.4124C11.3126 19.847 12.0391 20.3376 12.7718 20.8095C13.0015 20.9585 13.225 21.1137 13.4734 21.2814C12.6476 21.7781 11.8466 21.6539 11.0332 21.3559C10.3502 21.1075 9.64852 20.8964 8.95308 20.6915C8.79164 20.6418 8.61157 20.6604 8.35078 20.6418C8.7668 20.1823 9.1021 19.7166 9.53675 19.3565C9.81616 19.1143 10.2508 19.2385 10.5551 19.4124ZM9.31322 21.0516C9.80996 21.1758 10.2881 21.3869 10.7786 21.5297C11.2381 21.6663 11.71 21.7843 12.1819 21.8837C12.3061 21.9085 12.4489 21.8588 12.6103 21.8402C12.393 22.1444 12.2067 22.4176 12.008 22.6784C11.8714 22.8585 11.6914 22.8212 11.5051 22.7654C10.7662 22.5542 10.0211 22.3742 9.24492 22.4176C8.59295 22.4487 7.94718 22.5542 7.36351 22.8709C7.21449 22.9516 7.07789 23.0634 6.87919 23.1379C7.09031 22.784 7.289 22.4239 7.50633 22.0761C7.64914 21.8464 7.81058 21.6229 7.98444 21.418C8.33215 20.9895 8.81648 20.9274 9.31322 21.0516ZM8.90962 22.7157C9.78512 22.6412 10.6172 22.7716 11.4182 23.082C11.9397 23.2869 12.0515 23.6595 11.7038 24.0941C10.8469 25.1745 9.76649 25.9135 8.35699 26.019C7.4194 26.0873 6.59978 25.6899 5.84225 25.1249C6.46317 23.7837 7.34489 22.8399 8.90962 22.7157ZM10.7662 25.3608C11.1822 25.0566 11.5485 24.6902 11.9273 24.3363C12.1198 24.1562 12.2812 24.0693 12.542 24.2245C12.7718 24.3611 13.0326 24.4481 13.312 24.5723C13.1009 24.6964 12.8773 24.7834 12.7221 24.9324C12.3557 25.2925 12.0267 25.6899 11.6789 26.0687C11.3871 26.3916 11.1077 26.7393 10.7786 27.0187C10.4743 27.2733 10.108 27.4409 9.67335 27.3105C8.95308 27.087 8.33216 26.6834 7.63672 26.2674C8.87236 26.435 9.85963 26.019 10.7662 25.3608ZM12.5296 25.4664C13.0139 24.9386 13.61 24.6281 14.3613 24.653C13.8646 25.721 13.4734 26.8386 12.7531 27.7824C12.393 28.2481 12.0701 28.3537 11.4927 28.1922C11.3995 28.1674 11.3064 28.1426 11.2132 28.1053C10.9214 27.9935 10.6358 27.8818 10.3067 27.7514C11.2443 27.1491 11.8217 26.2425 12.5296 25.4664ZM15.9944 24.5785C16.4787 23.4546 17.1555 22.5046 18.3973 22.0761C18.5588 22.3618 18.7202 22.6474 18.8754 22.9206C18.5401 23.2497 18.1614 23.5539 17.8696 23.9265C17.3604 24.5723 17.081 25.3298 17.0003 26.1556C16.9692 26.4847 16.9754 26.82 17.0127 27.1429C17.1369 28.2357 17.9068 28.7883 18.8258 29.1547C20.0242 29.639 21.2288 29.6328 22.4147 29.0553C22.5948 29.3534 22.7562 29.639 22.9363 29.937C22.365 30.4027 21.7317 30.7132 20.9928 30.7877C20.1173 30.8746 19.2604 30.8063 18.4532 30.4276C17.6522 30.0488 16.9444 29.5334 16.3607 28.869C15.895 28.3351 15.8205 27.6396 15.7522 26.9814C15.6715 26.168 15.6653 25.3422 15.9944 24.5785ZM16.665 30.0861C16.9506 29.9991 17.2238 30.0053 17.497 30.1916C18.1117 30.6138 18.7823 30.9243 19.5274 31.0361C19.8068 31.0795 20.0925 31.0982 20.4091 31.1292C19.4467 31.6322 18.5339 32.0109 17.4163 31.7563C16.5346 31.5576 15.6032 31.5825 14.6532 31.8309C15.212 31.0609 15.7522 30.3593 16.665 30.0861ZM15.0133 32.0296C15.6715 31.9675 16.3297 31.955 16.994 31.9737C17.5529 31.9923 18.1117 32.0854 18.683 32.1475C18.3787 32.7747 17.8385 33.1224 17.1927 33.2838C16.4973 33.4577 15.7832 33.5446 15.0878 33.6998C14.7153 33.7868 14.3551 33.9358 13.9639 34.0662C14.0695 33.5446 14.144 33.0044 14.2868 32.489C14.3737 32.1662 14.7339 32.0544 15.0133 32.0296ZM14.0198 34.9851C14.1005 34.3766 14.5787 34.091 15.1313 33.9606C15.6094 33.8489 16.1061 33.793 16.5904 33.6998C17.1493 33.5881 17.7205 33.5074 18.2235 33.0541C18.1924 33.4701 18.2048 33.793 18.1303 34.0972C18.0993 34.2214 17.9006 34.358 17.7516 34.3953C16.7954 34.6561 15.864 34.9603 15.094 35.6123C14.6035 36.0283 14.1378 36.4692 13.9639 37.1335C13.9329 37.1273 13.9081 37.1211 13.877 37.1149C13.9267 36.4071 13.9329 35.6868 14.0198 34.9851ZM14.8022 36.2394C15.4604 35.5378 16.2862 35.0783 17.2238 34.8423C17.4846 34.774 17.7578 34.7244 18.0248 34.7119C18.3973 34.6995 18.6271 34.9044 18.5774 35.2708C18.5029 35.7924 18.3849 36.3201 18.1986 36.8169C17.8695 37.68 17.3418 38.4313 16.5221 38.8908C15.9509 39.2136 15.2989 39.3565 14.6221 39.3068C14.4296 39.2944 14.2371 39.3068 14.0198 39.3068C13.9267 38.1643 14.0012 37.0963 14.8022 36.2394ZM16.2303 39.3068C17.112 39.0336 17.6336 38.3506 18.0993 37.6179C18.5153 36.9721 18.7202 36.2394 18.9065 35.5005C18.9624 35.277 19.0866 35.1528 19.3349 35.1528C19.6143 35.1466 19.8938 35.1031 20.2353 35.0659C19.5771 35.8793 19.6516 36.8479 19.4343 37.7358C19.3846 37.9408 19.3536 38.1581 19.2853 38.3568C19.0741 39.0025 18.5898 39.313 17.9503 39.3502C17.3666 39.3875 16.7829 39.3565 16.1993 39.3565C16.2055 39.3503 16.2117 39.313 16.2303 39.3068ZM19.9062 36.5499C19.9931 36.0035 20.1918 35.5191 20.5395 35.0969C20.701 34.9044 20.9245 34.7616 21.1418 34.5753C21.2039 35.0907 21.2908 35.544 21.3095 36.0035C21.3343 36.6989 21.3405 37.4005 21.3033 38.1022C21.2908 38.3506 21.1605 38.6051 21.0301 38.8287C20.8562 39.1267 20.5085 39.0895 20.2229 39.1578C19.8876 39.2385 19.5398 39.2695 19.1797 39.3254C19.6578 38.4499 19.7634 37.4937 19.9062 36.5499ZM19.1983 34.6623C18.8382 34.6374 18.6519 34.4574 18.6333 34.091C18.5898 33.2279 18.9375 32.5449 19.5833 31.9985C20.1918 31.4769 20.9431 31.2596 21.6758 31.005C22.0049 30.8933 22.334 30.7629 22.7003 30.6325C22.3278 31.5452 22.0297 32.4766 21.5765 33.3273C21.0859 34.2276 20.2787 34.7244 19.1983 34.6623ZM27.4442 35.9786C27.022 36.0593 26.5749 36.0283 26.1465 35.991C25.3144 35.9227 24.886 35.3329 24.5383 34.6685C24.1471 33.9234 24.0043 33.1224 24.1098 32.2903C24.1657 31.8495 24.3396 31.421 24.4638 30.974C24.8922 31.1044 25.2399 31.2099 25.5566 31.3031C25.5007 31.806 25.42 32.2903 25.3889 32.7809C25.3517 33.3832 25.5752 33.9109 25.9788 34.3518C26.3079 34.7119 26.7612 34.7119 27.1958 34.6747C27.8602 34.6188 28.4253 34.3208 28.8847 33.8364C29.0151 33.6998 29.1393 33.5694 29.2697 33.4328C29.5678 33.706 29.841 33.9668 30.1266 34.2276C29.4933 35.2211 28.5619 35.7613 27.4442 35.9786ZM27.6367 34.3083C26.5066 34.6374 25.8546 34.2711 25.6559 33.0044C25.569 32.4269 25.6746 31.9737 25.9105 31.359C26.0658 31.359 26.2334 31.3652 26.3948 31.359C26.5563 31.3465 26.7177 31.3155 26.8419 31.2969C26.8109 31.6943 26.7426 32.0854 26.7488 32.4766C26.755 33.0168 27.1586 33.2838 27.6491 33.0541C28.0155 32.8802 28.3445 32.6132 28.6861 32.3835C28.804 32.6319 28.9468 32.9175 29.0897 33.2155C28.6923 33.675 28.2576 34.1283 27.6367 34.3083ZM27.022 32.1289C27.0592 31.8557 27.1151 31.5701 27.2269 31.3155C27.2952 31.1665 27.469 31.0547 27.6181 30.9554C27.9906 30.7008 28.3756 30.4648 28.6674 30.2723C28.6488 30.6387 28.6177 31.1292 28.6053 31.6197C28.5929 32.0916 27.8913 32.7809 27.4194 32.7685C27.1648 32.7622 26.9723 32.4704 27.022 32.1289ZM26.4631 31.0671C26.1403 31.123 25.7801 31.0609 25.4572 30.9864C24.7991 30.8312 24.1657 30.589 23.6131 30.1916C23.0232 29.7694 22.7314 29.136 22.5141 28.4779C22.3837 28.0867 22.2843 27.6707 22.2222 27.2609C22.1477 26.7952 22.3154 26.3605 22.5079 25.9383C22.8866 25.1311 23.5013 24.5536 24.2589 24.1066C24.4389 24.001 24.5321 24.0072 24.6811 24.15C25.1778 24.6219 25.7304 25.0442 26.4259 25.1497C26.8419 25.2118 27.2766 25.1621 27.7671 25.1621C27.2641 25.6899 26.7984 26.1867 26.3327 26.6772C26.221 26.7952 26.1154 26.7765 25.9726 26.7144C24.8922 26.2301 23.5138 26.9256 23.4765 28.3723C23.4579 29.0926 24.4638 30.0053 25.3206 29.7818C26.37 29.5148 26.873 28.4841 26.6929 27.6582C26.668 27.5341 26.637 27.4037 26.5687 27.2981C26.4818 27.1615 26.5128 27.0622 26.6122 26.969C27.1027 26.5033 27.5932 26.0376 28.1024 25.5533C28.1024 25.9383 28.0651 26.286 28.1148 26.6275C28.1583 26.9504 28.239 27.2857 28.3942 27.5651C28.624 27.9687 28.9344 28.3226 29.2014 28.7014C29.2449 28.7635 29.2635 28.8877 29.2325 28.9498C28.624 30.055 27.7422 30.8436 26.4631 31.0671ZM26.4756 27.9439C26.488 28.6145 25.6621 29.4279 24.9791 29.4217C24.5321 29.4155 23.8739 28.7449 23.8801 28.2978C23.8863 27.6148 24.6873 26.82 25.3579 26.8324C25.9105 26.8448 26.4694 27.3975 26.4756 27.9439ZM29.1269 28.2171C28.4687 27.4161 28.1458 26.5157 28.4811 25.5036C28.624 25.069 28.9406 24.684 29.189 24.268C29.4933 24.4419 29.7106 24.5723 29.8658 24.6592C29.6609 25.1373 29.4001 25.6092 29.2573 26.1121C29.0089 26.969 29.605 28.0122 30.3563 28.1301C31.1573 28.2543 31.8217 27.9998 32.306 27.3478C32.5234 27.056 32.691 26.7206 32.8835 26.3978C33.0822 26.5095 33.2995 26.6399 33.5231 26.7703C33.2747 28.1426 32.0639 28.9063 31.0207 28.8877C30.6978 28.8815 30.3688 28.8566 30.0459 28.8007C29.6609 28.7387 29.3753 28.5151 29.1269 28.2171ZM32.6413 26.1742C32.3371 26.8821 32.008 27.5837 31.1946 27.8259C30.2508 28.1053 29.5802 27.5651 29.487 26.6523C29.4125 25.9259 29.7789 25.3608 30.2011 24.8268C30.2259 24.7958 30.2818 24.771 30.3253 24.7647C30.5985 24.7461 30.8655 24.7399 31.176 24.7213C30.9276 25.0442 30.6978 25.3174 30.4991 25.6154C30.3936 25.7706 30.3067 25.9631 30.2756 26.1494C30.2011 26.584 30.3563 26.8697 30.7103 27.0063C30.9773 27.1118 31.3747 26.9876 31.5733 26.671C31.772 26.3543 31.9149 26.0004 32.0825 25.6589C32.1322 25.5471 32.1694 25.4291 32.2191 25.3049C32.3681 25.5782 32.5047 25.8327 32.6413 26.0935C32.6413 26.1121 32.6475 26.1494 32.6413 26.1742ZM31.6106 24.7275C31.7286 24.6219 31.8652 24.5288 32.0328 24.4046C32.0142 25.2056 31.7783 25.8886 31.3498 26.5033C31.2256 26.6834 31.0394 26.8014 30.7972 26.7331C30.5426 26.6586 30.4433 26.3916 30.5799 26.0501C30.7972 25.5098 31.1946 25.1062 31.6106 24.7275ZM31.2443 24.3922C30.6544 24.5288 30.0831 24.5598 29.5491 24.1562C28.4004 23.2869 28.7295 21.7098 29.6485 21.0144C29.6982 20.9771 29.8223 21.0019 29.8844 21.0454C30.0148 21.1323 30.1204 21.2441 30.257 21.3621C30.0831 21.5918 29.9031 21.8091 29.7478 22.0451C29.4187 22.5356 29.4684 23.0013 29.8099 23.4049C30.2694 23.9389 30.8593 23.852 31.2443 23.5912C31.4864 23.4298 31.71 23.2435 31.9459 23.0696C32.0763 23.2248 32.2191 23.3801 32.3743 23.5664C32.0825 23.9451 31.741 24.2804 31.2443 24.3922ZM32.0515 22.1134C32.1011 21.9706 32.126 21.8091 32.1881 21.6725C32.424 21.151 32.4302 21.1944 32.9891 21.2131C33.3368 21.2255 33.6969 21.0951 34.057 21.0268C33.995 21.4925 34.2247 21.9023 34.56 22.281C34.5972 22.3245 34.6221 22.4239 34.5972 22.4735C34.324 23.0945 33.7776 23.6657 32.9394 23.4918C32.4613 23.3987 31.8776 22.6039 32.0515 22.1134ZM33.8708 18.7728C33.7652 18.7977 33.6597 18.8039 33.5541 18.7977C33.3492 18.779 33.2623 18.6362 33.3678 18.4562C33.4672 18.2947 33.5789 18.1084 33.7342 18.0091C34.1874 17.7173 34.6842 17.5248 35.3051 17.5806C34.9139 18.1519 34.5289 18.6238 33.8708 18.7728ZM34.5103 19.5614C34.5786 19.0026 34.9388 18.6238 35.3424 18.2761C35.4417 18.1892 35.5659 18.1271 35.7335 18.0091C35.7273 18.7666 35.5721 19.4 35.0008 19.8532C34.9077 19.9277 34.6904 19.996 34.6531 19.9526C34.56 19.8657 34.4917 19.6918 34.5103 19.5614ZM35.6963 15.8793C35.1312 15.5005 34.6656 15.0907 34.5227 14.4201C34.5041 14.327 34.4855 14.2214 34.5103 14.1283C34.5538 13.9607 34.6593 13.8365 34.8518 13.9544C35.0071 14.0476 35.1685 14.1531 35.2865 14.2897C35.5659 14.6126 35.7708 15.4012 35.6963 15.8793ZM35.0195 15.9352C35.1064 16.0345 35.1747 16.1587 35.2989 16.3388C34.5227 16.3326 33.8832 16.1711 33.4299 15.5813C33.3616 15.4943 33.3057 15.2956 33.3554 15.2522C33.4423 15.1653 33.61 15.097 33.728 15.1156C34.2868 15.1715 34.678 15.5254 35.0195 15.9352ZM34.0508 12.9858C33.5976 12.6629 33.1443 12.6133 32.66 12.7436C32.5979 12.7623 32.4861 12.7188 32.4489 12.6691C31.9707 11.9923 31.8279 11.3652 32.4054 10.7443C32.84 10.2724 33.5727 10.2351 34.0757 10.6946C34.2806 10.8809 34.442 11.123 34.5848 11.3652C34.6283 11.4335 34.591 11.6074 34.5289 11.6819C34.1253 12.1786 34.0633 12.34 34.0508 12.9858ZM31.9521 10.856C31.7286 10.6884 31.5113 10.5021 31.2753 10.3531C30.4929 9.85635 29.9714 10.173 29.5926 10.8126C29.4187 11.1044 29.487 11.4645 29.6795 11.7626C29.8534 12.0296 30.0521 12.2842 30.2446 12.5574C30.0769 12.694 29.9217 12.8244 29.7665 12.961C29.1269 12.6381 28.7233 11.744 28.8164 10.9119C28.8847 10.2848 29.5802 9.53968 30.2011 9.45275C31.0766 9.34098 31.8217 9.57072 32.3619 10.3655C32.2315 10.5269 32.0949 10.6884 31.9521 10.856ZM30.6668 8.04946C30.4557 7.67691 30.4991 7.31056 30.7413 7.18017C30.9648 7.06219 31.2629 7.1988 31.4678 7.56514C31.7969 8.15502 32.039 8.77594 32.0266 9.49001C31.4492 9.11124 30.9959 8.63313 30.6668 8.04946ZM32.2377 8.56483C32.0266 8.13639 31.8341 7.67691 31.5796 7.25468C31.3871 6.9318 30.9897 6.80761 30.7289 6.90075C30.3129 7.05598 30.1142 7.472 30.3191 7.90665C30.4743 8.24816 30.7165 8.5462 30.9276 8.86287C31.0021 8.97464 31.089 9.06778 31.1946 9.19817C30.8717 9.17954 30.5923 9.16712 30.3129 9.15471C30.2756 9.15471 30.2322 9.13608 30.2135 9.10503C29.7416 8.50274 29.3566 7.8756 29.5243 7.04977C29.7665 5.84518 31.0828 5.80792 31.7534 6.37918C32.1694 6.7331 32.4178 7.18638 32.6165 7.67691C32.6351 7.72658 32.6351 7.8073 32.6103 7.85697C32.4861 8.09913 32.3557 8.3413 32.2377 8.56483ZM31.9832 6.23636C31.4243 5.64027 30.3998 5.55335 29.8223 6.03146C29.2821 6.48473 29.0834 7.10566 29.2449 7.77004C29.3691 8.2792 29.6423 8.7449 29.8534 9.24164C29.6857 9.34098 29.4808 9.46517 29.2697 9.58935C28.1831 8.70143 28.1024 7.07461 28.8289 6.11839C29.1331 5.721 29.3753 5.27393 29.9031 5.14354C31.1449 4.83307 32.1073 4.9821 32.9891 5.96936C33.2623 6.27362 33.3865 6.71447 33.5789 7.10566C33.4113 7.19259 33.2933 7.25468 33.1753 7.32298C33.0698 7.38507 32.9642 7.45958 32.927 7.49063C32.6103 7.0684 32.3371 6.61513 31.9832 6.23636ZM29.158 5.27393C28.7481 5.67132 28.3942 6.13701 28.2514 6.68343C28.1148 7.1988 28.121 7.75142 28.0589 8.31025C27.587 7.86318 27.0903 7.39749 26.5997 6.91938C26.5501 6.8697 26.5377 6.72068 26.5687 6.64617C27.0344 5.58439 26.5066 4.19352 24.9481 4.08797C24.4327 4.05071 24.0043 4.38601 23.7311 4.83307C23.3585 5.44779 23.4517 6.24257 23.9049 6.75173C24.3706 7.27331 25.2585 7.54651 25.9912 7.19259C26.1341 7.12428 26.2272 7.1367 26.3203 7.22984C26.786 7.72037 27.2517 8.2109 27.736 8.72627C27.3449 8.72627 26.9909 8.70143 26.6432 8.73248C26.37 8.75731 26.0657 8.80699 25.836 8.94359C25.42 9.18575 25.0288 9.4838 24.65 9.78184C24.5072 9.89361 24.4203 9.91844 24.2775 9.81289C23.967 9.57693 23.6255 9.38445 23.3399 9.12366C22.7252 8.55862 22.3402 7.85077 22.216 7.02494C22.1663 6.72068 22.2222 6.37918 22.303 6.06871C22.4706 5.41674 22.7066 4.7834 23.0977 4.23078C23.52 3.6409 24.1533 3.34907 24.8053 3.12553C25.1965 2.98893 25.6063 2.902 26.0161 2.82749C26.4942 2.74677 26.935 2.92063 27.3635 3.12553C28.1707 3.5043 28.7419 4.11901 29.189 4.87654C29.3008 5.04419 29.3008 5.13733 29.158 5.27393ZM26.221 6.61513C25.8422 7.09945 25.2896 7.18638 24.7121 6.88212C24.2651 6.64617 24.0291 6.24257 23.9049 5.78309C23.8615 5.60923 23.9111 5.36086 24.0105 5.21184C24.2464 4.87654 24.5072 4.53503 24.9916 4.47915C25.5566 4.5847 26.0285 4.8517 26.3017 5.3857C26.519 5.80172 26.5314 6.22394 26.221 6.61513ZM27.6181 2.9703C27.3945 2.83991 27.1896 2.69709 27.1586 2.41768C27.1213 2.11342 27.053 1.80917 27.0654 1.51113C27.0841 1.19446 27.3138 1.08269 27.6056 1.18204C28.1893 1.37453 28.5867 1.92094 28.5991 2.52945C28.6053 2.93305 28.6488 3.33665 28.6674 3.6409C28.3632 3.4422 27.9968 3.19383 27.6181 2.9703ZM28.6674 1.56701C28.4253 1.37453 28.1893 1.16341 27.9285 0.989552C27.6429 0.797066 27.3138 0.672882 26.9971 0.890205C26.6991 1.09511 26.7115 1.45525 26.7239 1.77192C26.7363 2.04512 26.8233 2.31833 26.8792 2.60395C26.5563 2.57912 26.2272 2.56049 25.8919 2.53566C25.6497 1.86506 25.5069 1.16341 25.7491 0.461767C26.0906 -0.513084 26.6618 -0.686943 27.705 -0.370272C28.2949 -0.190203 28.6985 0.256863 29.0897 0.691509C28.9468 0.989554 28.804 1.28139 28.6674 1.56701ZM28.239 -0.407526C27.8292 -0.674524 27.3573 -0.804916 26.8543 -0.792499C26.0658 -0.77387 25.6063 -0.190203 25.4324 0.598372C25.2834 1.26897 25.3703 1.93336 25.6249 2.59154C25.2337 2.70951 24.8798 2.81507 24.501 2.93305C24.2092 2.28108 24.0105 1.6291 24.085 0.902624C24.1657 0.101631 24.3706 -0.631058 24.8612 -1.28924C25.4014 -2.01572 26.1278 -2.22684 26.9661 -2.11507C27.4628 -2.04677 27.9534 -1.91016 28.4253 -1.74872C29.158 -1.49414 29.6733 -0.947729 30.1266 -0.320597C29.8472 -0.0598086 29.5678 0.194771 29.3008 0.44314C28.953 0.157515 28.6178 -0.159157 28.239 -0.407526ZM14.0136 4.0445C14.0136 4.05071 14.0136 4.05692 14.0136 4.0445V4.0445ZM14.0012 4.03208C13.4796 3.99483 12.9705 3.95757 12.4613 3.92031C12.3992 3.91411 12.3061 3.90169 12.2874 3.86443C12.126 3.52292 11.977 3.18142 11.8031 2.78403C12.2129 2.74677 12.5544 2.71572 12.9022 2.69089C12.958 2.68468 13.045 2.70951 13.076 2.74677C13.3927 3.169 13.6969 3.60364 14.0012 4.03208ZM12.6848 1.33106C12.7407 1.68499 12.8214 2.03271 12.8897 2.37421C12.4489 2.44872 12.0018 2.51703 11.474 2.60395C11.6603 3.08207 11.8218 3.49188 11.9956 3.92653C11.6044 4.05692 11.2008 4.19352 10.76 4.33633C10.4247 3.436 10.0894 2.54186 9.73544 1.59185C10.3936 1.48008 10.9897 1.37453 11.5858 1.26897C11.8528 1.2255 12.1198 1.18204 12.3868 1.14478C12.5358 1.13236 12.6538 1.13857 12.6848 1.33106ZM9.62368 2.05133C9.89068 2.85233 10.2073 3.6409 10.5116 4.46052C10.0832 4.69026 9.6361 4.93242 9.16419 5.187C8.67366 3.58502 8.19555 2.01408 7.71123 0.430721C9.30701 0.064375 10.909 -0.30818 12.5669 -0.686943C12.5669 -0.159157 12.5669 0.337584 12.5669 0.846741C11.7597 0.983343 10.9028 1.12616 10.0521 1.2876C9.33185 1.41799 9.39394 1.3559 9.62368 2.05133ZM5.68081 -0.742826C8.00307 -1.32649 10.2881 -1.89775 12.5979 -2.48141C12.5979 -1.935 12.5979 -1.46931 12.5979 -0.984985C11.5113 -0.730406 10.4495 -0.475828 9.39394 -0.233667C8.81648 -0.103273 8.23902 0.0209122 7.65535 0.138887C7.43182 0.182352 7.36972 0.2817 7.44424 0.505232C7.86025 1.81538 8.26385 3.12553 8.66745 4.43568C8.72955 4.62817 8.74197 4.84549 8.8289 5.02556C8.9655 5.31118 8.8351 5.46021 8.60536 5.58439C8.31353 5.74583 8.0279 5.90727 7.63672 6.11839C6.98475 3.82097 6.33899 1.56701 5.68081 -0.742826ZM5.46349 10.3158C5.09714 9.66386 4.72459 9.01189 4.37066 8.39097C5.0661 7.98116 5.8112 7.55272 6.5501 7.10566C7.60567 6.47231 8.64262 5.81413 9.7044 5.20563C10.226 4.90759 10.7848 4.67163 11.3374 4.43568C12.244 4.05071 13.1754 4.08797 14.0757 4.41084C14.6904 4.62817 15.2617 4.97589 15.864 5.26772C15.7832 5.53472 15.7149 5.76446 15.6404 5.98799C15.2865 5.82655 14.9636 5.64027 14.6221 5.52851C13.3741 5.10628 12.1384 5.12491 10.9028 5.63407C9.43119 6.23636 8.0962 7.06219 6.75501 7.88802C6.39487 8.11155 6.04094 8.35371 5.66839 8.55862C5.50695 8.65176 5.48832 8.72006 5.58146 8.87529C6.23964 10.055 6.89782 11.2348 7.54979 12.4208C8.04653 13.3273 8.66746 14.1345 9.41877 14.8424C9.92172 15.3143 10.5178 15.6061 11.1946 15.8048C11.7597 15.9725 12.3123 16.1153 12.958 16.0656C12.8897 16.3264 12.8401 16.5437 12.7904 16.7424C11.4244 16.9349 10.1577 16.73 9.05243 15.8979C8.39425 15.395 7.92856 14.712 7.52496 13.9917C6.8171 12.7747 6.1465 11.5391 5.46349 10.3158ZM5.50695 17.1895C6.24585 17.8042 6.97854 18.4313 7.72365 19.0584C7.46286 19.4745 7.19586 19.9029 6.92266 20.35C5.71186 19.2199 4.51347 18.1022 3.29025 16.9597C4.49484 15.8358 5.69944 14.712 6.92266 13.5695C7.18966 13.9979 7.46286 14.4326 7.73607 14.8672C7.14619 15.3515 6.56252 15.8296 5.97885 16.3078C5.79878 16.4568 5.61872 16.6058 5.45107 16.7734C5.28963 16.9287 5.35172 17.0591 5.50695 17.1895ZM5.61251 16.9597C6.38866 16.3202 7.12756 15.7117 7.87888 15.0907C8.19555 15.4385 8.46255 15.7427 8.74818 16.0594C8.46876 16.2829 8.18934 16.5127 7.90372 16.7362C7.70502 16.8914 7.71744 17.0342 7.90993 17.1833C8.18935 17.4006 8.46876 17.6303 8.75439 17.8539C8.46876 18.1705 8.18934 18.481 7.88509 18.8225C7.13998 18.2078 6.40729 17.6055 5.61251 16.9597ZM8.00307 16.9535C8.33837 16.7114 8.62399 16.5002 8.92204 16.3015C8.9655 16.2705 9.05243 16.2767 9.1021 16.2953C9.59263 16.5189 10.0832 16.7486 10.5364 16.9597C10.0583 17.1708 9.53054 17.4006 8.95929 17.6489C8.67987 17.444 8.3632 17.2143 8.00307 16.9535ZM3.69385 19.6235C2.8556 18.8163 2.02978 18.0029 1.19153 17.2019C1.0363 17.0529 0.974203 16.9225 1.15427 16.7486C1.9118 16.0097 2.65691 15.2646 3.41444 14.5319C4.28994 13.6875 5.17786 12.8616 6.09062 11.9985C6.32036 12.4021 6.53148 12.7623 6.71775 13.1348C6.75501 13.2093 6.71775 13.3708 6.65566 13.4329C5.51316 14.5071 4.35824 15.5689 3.20332 16.6306C2.87423 16.9349 2.87423 16.9784 3.20332 17.2826C4.00431 18.0153 4.79289 18.7542 5.58767 19.4869C5.92918 19.8036 6.26448 20.1264 6.6184 20.4307C6.76743 20.5549 6.79227 20.6729 6.69913 20.8343C6.50664 21.1696 6.31415 21.5111 6.0782 21.9147C5.26479 21.1323 4.47622 20.381 3.69385 19.6235ZM7.38835 27.3167C6.36383 26.7206 5.35793 26.0997 4.37687 25.5098C5.14682 24.1562 5.9416 22.7529 6.73638 21.3497C7.17103 20.5859 7.58705 19.816 8.05895 19.0771C8.84131 17.8539 10.0335 17.2702 11.443 17.0901C11.6976 17.0591 11.9646 17.1212 12.2254 17.1336C12.3992 17.1398 12.6724 17.0466 12.7221 17.1212C12.8463 17.3136 12.8773 17.5682 12.9456 17.8228C12.6352 17.8414 12.3557 17.8352 12.0763 17.8787C10.5178 18.1022 9.3008 18.897 8.40667 20.1761C7.94098 20.8467 7.51254 21.5421 7.09031 22.2438C6.74259 22.8212 6.43213 23.4173 6.10925 24.0072C5.91676 24.3549 5.73048 24.7026 5.56283 25.0628C5.53179 25.1311 5.57525 25.2925 5.63734 25.3236C7.12135 26.2115 8.59916 27.118 10.1142 27.9439C10.9214 28.3847 11.8218 28.6766 12.7593 28.6952C13.1567 28.7014 13.5603 28.571 13.9639 28.5275C14.56 28.4592 15.0878 28.2357 15.6218 27.8756C15.7025 28.1364 15.7708 28.3599 15.8329 28.5772C14.8519 29.2913 13.7963 29.7756 12.5482 29.7321C11.9087 29.7135 11.3064 29.5459 10.76 29.2478C9.62368 28.6269 8.50601 27.9749 7.38835 27.3167ZM14.0012 29.8749C13.8398 30.0861 13.6535 30.3096 13.4796 30.5455C13.3554 30.707 13.2375 30.8746 13.1443 31.0547C13.0698 31.1913 12.9953 31.2596 12.8339 31.241C12.511 31.1975 12.1881 31.1665 11.8093 31.123C11.9708 30.7504 12.1198 30.4151 12.275 30.0798C12.2937 30.0364 12.3806 30.0115 12.4427 30.0053C12.958 29.9557 13.4796 29.9122 14.0012 29.8749ZM9.69198 32.5511C10.6668 32.725 11.6355 32.9113 12.5793 33.0851C12.5793 33.5694 12.5793 34.06 12.5793 34.6002C10.9276 34.2214 9.32564 33.8551 7.71123 33.4825C8.18934 31.9178 8.67366 30.3344 9.16419 28.7262C9.62989 28.9746 10.0707 29.2106 10.5178 29.4527C10.2881 30.0488 10.0583 30.6325 9.841 31.2286C9.71061 31.5763 9.59884 31.9302 9.49329 32.2841C9.44361 32.4518 9.51812 32.5201 9.69198 32.5511ZM12.6041 36.3946C10.3005 35.8172 8.01549 35.2459 5.69323 34.6623C6.36383 32.3586 6.89161 30.0612 7.69261 27.8073C8.12104 28.0556 8.51843 28.2792 8.92204 28.5151C8.81648 28.9125 8.73576 29.2851 8.62399 29.639C8.25144 30.8498 7.86646 32.0544 7.4877 33.259C7.35109 33.6874 7.3573 33.6812 7.81058 33.7806C8.91582 34.0289 10.0211 34.2897 11.1325 34.5443C11.5485 34.6374 11.9646 34.743 12.3806 34.8361C12.5358 34.8672 12.6165 34.9293 12.6165 35.1031C12.5979 35.5067 12.6041 35.9103 12.6041 36.3946ZM12.6724 32.6194C12.66 32.6815 12.5296 32.7685 12.4737 32.7622C11.5858 32.6256 10.6979 32.4766 9.73544 32.3214C10.0894 31.3714 10.4247 30.471 10.76 29.5769C11.2008 29.7135 11.5982 29.8439 12.0018 29.9681C11.8342 30.3903 11.6727 30.8063 11.474 31.3031C11.9956 31.3838 12.4365 31.4521 12.8897 31.5266C12.8214 31.8805 12.7593 32.2531 12.6724 32.6194ZM16.6587 40.3934C15.6466 40.381 14.6283 40.3561 13.6162 40.3499C13.3803 40.3499 13.1381 40.3934 12.9146 40.4182C12.9146 39.2012 12.927 37.9842 12.9084 36.7734C12.896 36.0407 12.7966 35.3018 12.8276 34.5691C12.8711 33.4887 12.8028 32.3711 13.2996 31.359C13.7156 30.5145 14.293 29.8004 15.1685 29.372C15.4542 29.2292 15.7274 29.0553 15.9819 28.9063C16.162 29.0677 16.3359 29.2292 16.5221 29.3968C16.1993 29.6266 15.8578 29.8066 15.5908 30.0612C14.8643 30.7567 14.2247 31.5142 13.9888 32.5449C13.7342 33.6315 13.6473 34.7244 13.6597 35.8358C13.6721 36.8914 13.6845 37.947 13.7032 39.0025C13.7032 39.1453 13.728 39.2944 13.759 39.4372C13.7715 39.4869 13.8335 39.5489 13.8894 39.5614C14.0136 39.5924 14.1378 39.5986 14.2682 39.6048C15.6032 39.6235 16.9444 39.6607 18.2794 39.6483C19.3411 39.6359 20.3905 39.5117 21.384 39.1267C21.9242 38.9156 22.4085 38.6176 22.7811 38.1519C22.9177 37.9842 23.1288 37.8724 23.2716 37.7048C23.4951 37.4254 23.6876 37.1273 23.9174 36.7982C24.085 36.9907 24.234 37.1584 24.4265 37.3819C24.0788 37.8911 23.7497 38.4872 23.3151 38.9963C22.6445 39.7725 21.7752 40.232 20.7382 40.3561C19.8689 40.4617 18.9996 40.5052 18.1241 40.4182C17.6336 40.3624 17.1431 40.3996 16.6587 40.3934ZM21.0052 43.5539C20.8997 43.0261 20.8003 42.548 20.7196 42.0637C20.6575 41.7035 20.6202 41.331 20.5519 40.9709C20.5147 40.7535 20.5209 40.6294 20.8003 40.6045C21.1232 40.5735 21.4461 40.4679 21.769 40.3934C21.8435 40.8591 21.918 41.2999 21.9987 41.7967C22.2781 41.6973 22.4892 41.6352 22.6941 41.5545C22.899 41.4738 23.1039 41.3745 23.3275 41.2751C23.4641 41.6911 23.5883 42.0885 23.7373 42.5294C22.8369 42.8709 21.949 43.2 21.0052 43.5539ZM23.8553 42.7964C24.0788 43.2062 24.321 43.6595 24.5755 44.1314C22.9735 44.6219 21.4026 45.1 19.8193 45.5843C19.4467 43.9761 19.0804 42.3804 18.7016 40.7535C19.2356 40.7287 19.7261 40.6977 20.2291 40.6728C20.3595 41.4552 20.4836 42.2375 20.6202 43.0199C20.6513 43.1938 20.7134 43.3614 20.732 43.5353C20.7568 43.8085 20.881 43.8644 21.1232 43.7774C22.0173 43.4483 22.9177 43.1317 23.8553 42.7964ZM23.3088 40.8963C23.3026 40.946 23.2592 41.0081 23.2157 41.0267C22.8866 41.182 22.5451 41.3248 22.1726 41.4924C22.1353 41.1199 22.1105 40.8156 22.0794 40.5176C22.0608 40.3375 22.1229 40.232 22.2843 40.1264C22.6445 39.8842 22.9798 39.6048 23.3275 39.3378C23.3647 39.313 23.4082 39.2944 23.4268 39.2819C23.3896 39.8222 23.3523 40.3561 23.3088 40.8963ZM18.6395 47.6023C18.0558 45.2863 17.4846 43.0137 16.9071 40.6977C17.3976 40.6977 17.8137 40.6914 18.2297 40.7039C18.3042 40.7039 18.4222 40.8032 18.4346 40.8715C18.8009 42.4238 19.1611 43.9699 19.5088 45.5284C19.5957 45.9196 19.6081 45.9383 20.0055 45.8141C21.3343 45.4043 22.6569 44.9882 23.9857 44.5784C24.1906 44.5163 24.3955 44.4418 24.6066 44.4232C24.7121 44.417 24.8612 44.5101 24.9233 44.6033C25.1219 44.9075 25.2834 45.2242 25.4945 45.5967C23.2468 46.4102 20.9431 46.9317 18.6395 47.6023ZM35.3734 41.5545C35.4417 41.1758 35.4728 40.7846 35.5224 40.3748C35.6963 40.412 35.895 40.4431 36.0813 40.5052C36.1433 40.5238 36.2054 40.6356 36.2117 40.7039C36.2303 41.0143 36.2613 41.331 36.2179 41.629C36.1434 42.132 36.0502 42.6411 35.9012 43.1317C35.5473 44.2742 34.6966 45.0069 33.7155 45.5781C32.3619 46.3667 30.9773 47.1118 29.6112 47.8818C28.9965 48.2295 28.3818 48.5834 27.7981 48.9187C27.3759 48.2046 26.935 47.4533 26.488 46.7082C25.8608 45.665 25.2089 44.6343 24.6004 43.5787C24.1347 42.7777 23.7249 41.9457 23.6007 41.0081C23.5262 40.4058 23.5883 39.8097 23.8056 39.2571C24.0477 38.6362 24.3706 38.0525 24.6625 37.4316C24.9419 37.5123 25.1592 37.5806 25.3889 37.6489C25.3641 37.7172 25.3641 37.7917 25.3269 37.8352C24.9108 38.363 24.8301 39.0149 24.6935 39.6359C24.4886 40.5673 24.6811 41.4614 25.0226 42.3431C25.6249 43.9078 26.5377 45.3049 27.4007 46.7268C27.587 47.0311 27.7919 47.3291 27.972 47.6334C28.0527 47.7638 28.1024 47.8134 28.2638 47.7203C28.9779 47.3229 29.7106 46.969 30.4184 46.5592C31.2567 46.0811 32.0949 45.603 32.8897 45.0565C33.5789 44.5846 34.2433 44.0506 34.678 43.3117C34.8953 42.9392 35.0257 42.517 35.1871 42.1196C35.2492 41.9457 35.3361 41.7532 35.3734 41.5545ZM34.3986 39.9401C34.8146 40.145 34.8953 40.5797 34.8767 40.9709C34.858 41.4614 34.7339 41.9457 34.6221 42.4238C34.5662 42.666 34.442 42.8895 34.3737 43.0634C34.0322 42.4487 33.7031 41.8091 33.3244 41.1944C33.0884 40.8032 32.7841 40.4555 32.5172 40.0891C32.2377 39.7042 32.1322 39.2695 32.1198 38.7976C32.1073 38.481 32.0639 38.1705 32.0328 37.8538C32.6103 38.81 33.4237 39.462 34.3986 39.9401ZM33.3057 41.6477C33.6472 42.1754 33.9887 42.7094 34.0446 43.3738C34.0633 43.6346 33.9763 43.7961 33.8025 43.9513C33.4423 44.268 33.076 44.5846 32.6724 44.9386C32.6475 43.9327 32.2874 43.0944 31.9459 42.2438C31.7286 41.6911 31.6106 41.1261 31.7286 40.5362C31.7783 40.2878 31.9086 40.0519 32.0018 39.7973C32.4551 40.4369 32.9021 41.0267 33.3057 41.6477ZM31.0331 40.3499C30.8096 40.5673 30.5364 40.7349 30.2632 40.8963C30.0086 41.0516 29.7913 40.9398 29.6299 40.7287C29.1828 40.1388 29.0959 39.4744 29.2325 38.7666C29.3815 38.0153 29.841 37.4316 30.3129 36.8603C30.6482 36.4505 31.0083 36.0656 31.3374 35.693C31.474 36.4319 31.6727 37.2018 31.7534 37.9842C31.8466 38.8473 31.71 39.698 31.0331 40.3499ZM36.0316 30.707C36.0999 30.7318 36.2117 30.8125 36.2054 30.8684C36.1868 31.2099 36.1433 31.5452 36.1123 31.8805C36.0378 32.6381 35.6342 33.2466 35.1809 33.824C34.8705 34.2152 34.4296 34.4201 33.9701 34.5443C33.5044 34.6685 33.0201 34.743 32.542 34.7989C31.741 34.892 31.0518 34.5816 30.4371 34.1034C29.9093 33.6936 29.3939 33.2714 29.1145 32.6443C28.9903 32.3773 28.9096 32.0792 28.8723 31.7874C28.7481 30.8187 29.0338 29.937 29.5243 29.1174C29.5616 29.0553 29.7168 29.0305 29.8161 29.0367C30.2942 29.074 30.7724 29.1609 31.2505 29.1609C31.7845 29.1609 32.2439 28.9125 32.6724 28.6083C32.7841 28.5275 32.8897 28.453 33.0512 28.3413C32.8711 29.074 32.7159 29.757 32.5296 30.4276C32.5047 30.5083 32.3433 30.589 32.2377 30.6014C31.4492 30.7256 30.909 31.1851 30.7351 31.9364C30.4929 32.9734 31.0394 33.973 32.3247 33.9482C33.0884 33.9358 33.4734 33.4515 33.7093 32.8802C33.9453 32.309 33.8459 31.688 33.4423 31.1665C33.3802 31.092 33.3306 30.9864 33.2498 30.9491C32.8649 30.7753 32.9208 30.5207 33.0387 30.1916C33.225 29.6514 33.3616 29.0926 33.5417 28.4654C33.61 28.6207 33.6534 28.7076 33.6845 28.8007C34.0943 29.8812 35.0009 30.3655 36.0316 30.707ZM33.4051 31.7563C33.5231 32.3648 33.2436 33.141 32.809 33.4018C32.3619 33.6688 31.9397 33.4701 31.5299 33.2962C31.1014 33.1162 31.1077 32.7064 31.1077 32.3214C31.1077 31.6135 31.4802 31.0671 32.0577 30.9119C32.6538 30.7505 33.2871 31.154 33.4051 31.7563ZM35.6094 24.4356C35.6652 24.4605 35.7398 24.4977 35.8205 24.535C36.2427 24.7213 36.2179 24.7151 36.0999 25.1808C35.926 25.9135 34.8953 26.7144 34.1378 26.6027C33.5914 26.522 33.1132 26.3481 32.7966 25.8576C32.3495 25.1621 32.2874 24.4977 32.6165 23.7092C32.8462 23.7402 33.0511 23.7713 33.2561 23.8023C33.2312 24.1376 33.194 24.4729 33.1878 24.8082C33.1753 25.2863 33.4485 25.6837 33.8459 25.8017C34.4482 25.9755 34.858 25.8638 35.1437 25.3919C35.3237 25.1 35.4541 24.771 35.6094 24.4356ZM35.2865 24.1997C35.3113 24.2307 35.3175 24.299 35.2989 24.3363C35.1437 24.6902 35.0257 25.069 34.8022 25.3732C34.5848 25.6713 34.2247 25.7085 33.877 25.5347C33.5665 25.3795 33.4299 25.1062 33.4423 24.7709C33.4485 24.5288 33.4796 24.2866 33.5106 24.0507C33.5355 23.883 33.6162 23.7899 33.79 23.6968C34.0943 23.5229 34.3427 23.2559 34.6097 23.0199C34.678 22.9578 34.7214 22.8709 34.8146 22.7343C34.8146 23.3242 34.9326 23.8023 35.2865 24.1997ZM36.1682 20.6915C36.2054 20.7163 36.2179 20.797 36.2179 20.8467C36.2489 21.4552 35.7584 22.0823 35.1685 22.1817C34.827 22.2376 34.6593 21.9892 34.5041 21.7595C34.2433 21.3807 34.2744 20.7225 34.5538 20.3562C34.5786 20.3189 34.6159 20.2755 34.6531 20.263C35.2244 20.0519 35.2244 20.0519 35.6218 19.6359C35.7522 20.0333 35.7894 20.4493 36.1682 20.6915ZM35.1747 11.7378C35.7646 11.8309 36.2551 12.458 36.2241 13.0727C36.2241 13.1286 36.2054 13.2093 36.1744 13.228C35.7894 13.4701 35.7584 13.8862 35.6342 14.2835C35.3362 13.9979 35.1188 13.6502 34.6656 13.6502C34.6221 13.6502 34.5786 13.5819 34.5476 13.5384C34.1874 13.0106 34.2992 12.1972 34.8022 11.8185C34.8829 11.744 35.0505 11.7191 35.1747 11.7378ZM35.1375 9.94949C34.9326 10.2848 34.8643 10.6946 34.7339 11.0796C34.5165 10.6387 34.1316 10.3283 33.6534 10.142C33.6224 10.1296 33.5851 10.0923 33.5727 10.0613C33.461 9.6204 33.3368 9.17333 33.5355 8.72627C33.6721 8.4096 33.9515 8.29162 34.2682 8.28541C34.5724 8.27299 34.7959 8.45927 34.9574 8.70764C35.0443 8.84424 35.0878 9.01189 35.1685 9.15471C35.3113 9.42791 35.3237 9.65145 35.1375 9.94949ZM36.0502 8.58346C36.2986 9.22922 36.2862 9.23543 35.6031 9.46517C35.4541 9.1485 35.3237 8.81941 35.1437 8.52757C34.8394 8.03704 34.4234 7.92528 33.8211 8.11776C33.4237 8.24816 33.1691 8.63313 33.1815 9.12987C33.1878 9.45896 33.225 9.78184 33.2498 10.1109C33.0449 10.142 32.8462 10.173 32.6041 10.2103C32.4489 9.80668 32.3185 9.37824 32.4302 8.93117C32.5917 8.29162 32.8711 7.739 33.5417 7.45337C34.6656 6.97526 35.7335 7.76384 36.0502 8.58346ZM32.6848 -0.879427C33.2374 -0.804916 33.7901 -0.674524 34.324 -0.500666C34.8891 -0.314388 35.243 0.132677 35.5783 0.623207C36.0813 1.36832 36.1496 2.20036 36.2117 3.04481C36.2179 3.09449 36.1123 3.18762 36.0378 3.20625C35.2927 3.46083 34.56 3.74025 34.0819 4.41084C33.8708 4.70889 33.7217 5.0504 33.5231 5.40432C33.3678 4.87033 33.2126 4.34254 33.0574 3.81476C33.0325 3.74025 33.0263 3.65953 32.9953 3.59123C32.8773 3.36148 32.9021 3.20625 33.1381 3.04481C33.9018 2.51703 34.0446 1.14479 33.2809 0.387257C32.5792 -0.308178 31.443 -0.0970649 30.9897 0.536278C30.5674 1.12616 30.4495 2.00787 31.1201 2.71572C31.4243 3.0386 31.772 3.26834 32.2253 3.3056C32.4426 3.32423 32.5234 3.436 32.5668 3.64711C32.7034 4.27424 32.8711 4.88896 33.0387 5.53472C32.6786 5.3236 32.3681 5.1187 32.039 4.95105C31.505 4.67784 30.9276 4.7151 30.3501 4.77098C30.3315 4.77098 30.3129 4.7834 30.2942 4.78961C29.5367 4.94484 29.5367 4.94484 29.2138 4.23078C28.8537 3.42358 28.7481 2.59775 28.9406 1.72224C29.0896 1.03923 29.5367 0.573534 30.0272 0.132677C30.2446 -0.0598086 30.4867 -0.227459 30.7227 -0.395107C31.3064 -0.817337 31.977 -0.972566 32.6848 -0.879427ZM32.2315 3.03239C31.7596 2.98893 31.443 2.7033 31.2567 2.29349C31.1573 2.06996 31.1263 1.81538 31.0642 1.57322C31.1077 0.747393 31.7286 0.238236 32.542 0.393467C32.9332 0.467978 33.1008 0.803276 33.2623 1.10753C33.5044 1.55459 33.5293 2.0265 33.2747 2.47356C33.0512 2.87095 32.691 3.07586 32.2315 3.03239ZM31.5671 -2.99678C31.4926 -2.58076 31.4119 -2.15853 31.3312 -1.75493C30.8531 -2.33239 30.3377 -2.90985 29.8658 -3.52456C29.2325 -4.33797 28.9903 -5.25694 29.3194 -6.26905C29.3877 -6.48637 29.5305 -6.68507 29.6733 -6.86514C29.8037 -7.03279 29.99 -7.10109 30.2197 -7.00795C31.1201 -6.65402 31.5423 -5.93996 31.7224 -5.03962C31.8652 -4.34418 31.6851 -3.67359 31.5671 -2.99678ZM31.9149 -8.26222C32.1694 -8.97628 32.3868 -9.70276 32.6103 -10.423C32.66 -10.5845 32.6538 -10.7707 32.6786 -10.9943C33.0449 -10.69 33.3989 -10.3982 33.7528 -10.1126C34.1999 -9.74622 34.1129 -9.25569 33.908 -8.87072C33.4982 -8.10078 32.9953 -7.3805 32.5296 -6.64781C32.3743 -6.40565 32.2005 -6.1697 32.0266 -5.91512C31.5547 -6.67886 31.6292 -7.45501 31.9149 -8.26222ZM34.8456 -6.74716C34.7773 -6.41186 34.6407 -6.13865 34.3054 -5.97721C33.3616 -5.51773 32.5855 -4.87197 32.0577 -3.86607C32.039 -3.99026 32.0266 -4.04614 32.0266 -4.10202C32.0577 -4.4187 32.0949 -4.73537 32.1198 -5.05825C32.1632 -5.54878 32.3371 -5.98963 32.6476 -6.3684C33.3616 -7.23148 33.9639 -8.15045 34.3365 -9.24328C34.6842 -8.42986 35.0257 -7.64129 34.8456 -6.74716ZM31.6354 -12.8446C32.4737 -12.3727 33.3181 -11.9008 34.1378 -11.3917C35.3982 -10.6093 36.0316 -9.41093 36.2179 -7.97038C36.2738 -7.56057 36.2303 -7.13834 36.2179 -6.72232C36.2179 -6.67886 36.162 -6.61677 36.1185 -6.60435C35.9136 -6.54846 35.7087 -6.505 35.5162 -6.46154C35.4728 -6.82788 35.4603 -7.1756 35.392 -7.52332C35.1437 -8.8583 34.4855 -9.9325 33.3989 -10.7707C32.2998 -11.6214 31.089 -12.2858 29.8782 -12.9564C29.3442 -13.2482 28.7978 -13.5277 28.2638 -13.8195C28.121 -13.9002 28.0527 -13.8816 27.9658 -13.7388C27.587 -13.1178 27.1772 -12.5093 26.8109 -11.8822C26.3203 -11.044 25.8236 -10.1995 25.3889 -9.3302C24.9729 -8.49196 24.6376 -7.61645 24.619 -6.66023C24.6128 -6.27526 24.6873 -5.89029 24.7494 -5.51152C24.7991 -5.20727 24.8736 -4.90302 24.9791 -4.61118C25.0847 -4.32556 25.2461 -4.05856 25.3952 -3.7481C25.1468 -3.67359 24.9295 -3.61149 24.7059 -3.54319C24.3644 -4.22 23.8863 -4.81609 23.7062 -5.59845C23.4641 -6.66644 23.5696 -7.67234 24.0602 -8.62856C24.4203 -9.33642 24.8425 -10.0194 25.2461 -10.7087C25.836 -11.7083 26.4383 -12.7018 27.022 -13.7015C27.289 -14.1486 27.5311 -14.6143 27.7609 -15.0179C29.04 -14.2976 30.3439 -13.5773 31.6354 -12.8446Z" fill="#E2D5F6"/>
</svg>
