<svg width="7" height="12" viewBox="0 0 7 12" fill="none" xmlns="http://www.w3.org/2000/svg">
<path d="M5.46939 11.5306L0.469386 6.5306C0.399466 6.46092 0.343989 6.37813 0.306135 6.28696C0.268281 6.1958 0.248794 6.09806 0.248794 5.99935C0.248794 5.90064 0.268281 5.8029 0.306135 5.71173C0.343989 5.62057 0.399466 5.53778 0.469386 5.4681L5.46939 0.468098C5.61028 0.327202 5.80138 0.248047 6.00064 0.248047C6.19989 0.248047 6.39099 0.327202 6.53189 0.468098C6.67278 0.608994 6.75194 0.800091 6.75194 0.999348C6.75194 1.19861 6.67278 1.3897 6.53189 1.5306L2.06251 5.99997L6.53251 10.4693C6.67341 10.6102 6.75256 10.8013 6.75256 11.0006C6.75256 11.1999 6.67341 11.391 6.53251 11.5318C6.39162 11.6727 6.20052 11.7519 6.00126 11.7519C5.802 11.7519 5.61091 11.6727 5.47001 11.5318L5.46939 11.5306Z" fill="#6D591D"/>
</svg>
