<svg width="20" height="20" viewBox="0 0 20 20" fill="none" xmlns="http://www.w3.org/2000/svg">
<path d="M13.1248 0.937499C12.29 0.936624 11.4645 1.11202 10.7021 1.45222C9.9398 1.79241 9.25789 2.28973 8.70103 2.91165C8.14416 3.53356 7.72488 4.26604 7.47063 5.06117C7.21638 5.8563 7.13288 6.69615 7.2256 7.52578L1.86778 14.832C1.64484 15.1327 1.53789 15.5037 1.56659 15.8768C1.5953 16.25 1.75773 16.6003 2.02403 16.8633L3.14044 17.9797C3.40343 18.246 3.75371 18.4084 4.12689 18.4371C4.50006 18.4658 4.87106 18.3589 5.17169 18.1359L12.4779 12.7781C13.2795 12.8647 14.0903 12.7872 14.861 12.5502C15.6316 12.3133 16.3459 11.9218 16.9603 11.3998C17.5747 10.8778 18.0764 10.2361 18.4347 9.51383C18.7931 8.79158 19.0005 8.00393 19.0445 7.19889C19.0885 6.39384 18.9681 5.58827 18.6906 4.83129C18.413 4.07431 17.9843 3.38178 17.4304 2.79592C16.8765 2.21006 16.2091 1.74314 15.4688 1.42363C14.7286 1.10412 13.9311 0.938715 13.1248 0.937499ZM17.1873 6.875C17.1881 7.62772 16.9784 8.36567 16.5818 9.00547L10.9951 3.41797C11.6105 3.03915 12.3158 2.83132 13.0382 2.81592C13.7607 2.80052 14.4742 2.9781 15.1051 3.33036C15.7361 3.68261 16.2617 4.19679 16.6277 4.81987C16.9937 5.44295 17.1869 6.15237 17.1873 6.875ZM4.27482 16.4617L3.5381 15.725L7.92794 9.73828C8.47123 10.7199 9.27996 11.5286 10.2615 12.0719L4.27482 16.4617ZM9.06231 6.875C9.06139 6.12226 9.27112 5.38428 9.66778 4.74453L15.2545 10.3312C14.6392 10.71 13.934 10.9179 13.2116 10.9333C12.4892 10.9487 11.7758 10.7712 11.1448 10.4191C10.5139 10.0669 9.98831 9.55282 9.62224 8.92986C9.25618 8.30689 9.0629 7.59756 9.06231 6.875Z" fill="#171717"/>
</svg>
