<svg width="20" height="20" viewBox="0 0 20 20" fill="none" xmlns="http://www.w3.org/2000/svg">
<path d="M2.0835 6.59724C2.0835 5.41596 3.04112 4.45834 4.2224 4.45834C4.83617 4.45834 5.38108 4.06559 5.57517 3.48332L5.646 3.27084C5.6794 3.17063 5.6961 3.12053 5.71396 3.07609C5.94212 2.50856 6.47676 2.12321 7.08732 2.08623C7.13513 2.08334 7.18794 2.08334 7.29356 2.08334H12.7068C12.8124 2.08334 12.8652 2.08334 12.913 2.08623C13.5236 2.12321 14.0582 2.50856 14.2864 3.07609C14.3042 3.12053 14.3209 3.17063 14.3543 3.27084L14.4252 3.48332C14.6192 4.06559 15.1642 4.45834 15.7779 4.45834C16.9592 4.45834 17.9168 5.41596 17.9168 6.59724V13.325C17.9168 14.6551 17.9168 15.3202 17.658 15.8282C17.4303 16.2751 17.0669 16.6384 16.6201 16.8661C16.112 17.125 15.447 17.125 14.1168 17.125H5.8835C4.55337 17.125 3.88831 17.125 3.38027 16.8661C2.93338 16.6384 2.57005 16.2751 2.34236 15.8282C2.0835 15.3202 2.0835 14.6551 2.0835 13.325V6.59724Z" stroke="white" stroke-width="1.78125" stroke-linecap="round" stroke-linejoin="round"/>
<path d="M10.0002 13.5625C11.9677 13.5625 13.5627 11.9675 13.5627 10C13.5627 8.03249 11.9677 6.4375 10.0002 6.4375C8.03265 6.4375 6.43766 8.03249 6.43766 10C6.43766 11.9675 8.03265 13.5625 10.0002 13.5625Z" stroke="white" stroke-width="1.78125" stroke-linecap="round" stroke-linejoin="round"/>
</svg>
