<svg width="16" height="12" viewBox="0 0 16 12" fill="none" xmlns="http://www.w3.org/2000/svg">
<path d="M15.0312 6C15.0312 6.22378 14.9424 6.43839 14.7841 6.59662C14.6259 6.75485 14.4113 6.84375 14.1875 6.84375H1.8125C1.58872 6.84375 1.37411 6.75485 1.21588 6.59662C1.05764 6.43839 0.96875 6.22378 0.96875 6C0.96875 5.77622 1.05764 5.56161 1.21588 5.40338C1.37411 5.24514 1.58872 5.15625 1.8125 5.15625H14.1875C14.4113 5.15625 14.6259 5.24514 14.7841 5.40338C14.9424 5.56161 15.0312 5.77622 15.0312 6ZM1.8125 2.34375H14.1875C14.4113 2.34375 14.6259 2.25486 14.7841 2.09662C14.9424 1.93839 15.0312 1.72378 15.0312 1.5C15.0312 1.27622 14.9424 1.06161 14.7841 0.903379C14.6259 0.745145 14.4113 0.65625 14.1875 0.65625H1.8125C1.58872 0.65625 1.37411 0.745145 1.21588 0.903379C1.05764 1.06161 0.96875 1.27622 0.96875 1.5C0.96875 1.72378 1.05764 1.93839 1.21588 2.09662C1.37411 2.25486 1.58872 2.34375 1.8125 2.34375ZM14.1875 9.65625H1.8125C1.58872 9.65625 1.37411 9.74514 1.21588 9.90338C1.05764 10.0616 0.96875 10.2762 0.96875 10.5C0.96875 10.7238 1.05764 10.9384 1.21588 11.0966C1.37411 11.2549 1.58872 11.3438 1.8125 11.3438H14.1875C14.4113 11.3438 14.6259 11.2549 14.7841 11.0966C14.9424 10.9384 15.0312 10.7238 15.0312 10.5C15.0312 10.2762 14.9424 10.0616 14.7841 9.90338C14.6259 9.74514 14.4113 9.65625 14.1875 9.65625Z" fill="white"/>
</svg>
