<svg width="23" height="22" viewBox="0 0 23 22" fill="none" xmlns="http://www.w3.org/2000/svg">
<path d="M10.0625 20.625C10.0625 20.9731 9.92422 21.3069 9.67808 21.5531C9.43194 21.7992 9.0981 21.9375 8.75 21.9375H1.75C1.4019 21.9375 1.06806 21.7992 0.821922 21.5531C0.575781 21.3069 0.4375 20.9731 0.4375 20.625V1.375C0.4375 1.0269 0.575781 0.693064 0.821922 0.446922C1.06806 0.200781 1.4019 0.0625 1.75 0.0625H8.75C9.0981 0.0625 9.43194 0.200781 9.67808 0.446922C9.92422 0.693064 10.0625 1.0269 10.0625 1.375C10.0625 1.7231 9.92422 2.05694 9.67808 2.30308C9.43194 2.54922 9.0981 2.6875 8.75 2.6875H3.0625V19.3125H8.75C9.0981 19.3125 9.43194 19.4508 9.67808 19.6969C9.92422 19.9431 10.0625 20.2769 10.0625 20.625ZM21.9286 10.0714L17.5536 5.69641C17.307 5.44984 16.9726 5.31132 16.6239 5.31132C16.2752 5.31132 15.9408 5.44984 15.6942 5.69641C15.4477 5.94298 15.3091 6.27739 15.3091 6.62609C15.3091 6.97479 15.4477 7.30921 15.6942 7.55578L17.8281 9.6875H8.75C8.4019 9.6875 8.06806 9.82578 7.82192 10.0719C7.57578 10.3181 7.4375 10.6519 7.4375 11C7.4375 11.3481 7.57578 11.6819 7.82192 11.9281C8.06806 12.1742 8.4019 12.3125 8.75 12.3125H17.8281L15.6931 14.4464C15.4466 14.693 15.308 15.0274 15.308 15.3761C15.308 15.7248 15.4466 16.0592 15.6931 16.3058C15.9397 16.5523 16.2741 16.6909 16.6228 16.6909C16.9715 16.6909 17.3059 16.5523 17.5525 16.3058L21.9275 11.9308C22.0499 11.8089 22.1471 11.6641 22.2134 11.5046C22.2798 11.3451 22.314 11.1741 22.3141 11.0013C22.3142 10.8286 22.2802 10.6575 22.214 10.4979C22.1479 10.3384 22.0509 10.1934 21.9286 10.0714Z" fill="#D92D20"/>
</svg>
