<svg width="20" height="20" viewBox="0 0 20 20" fill="none" xmlns="http://www.w3.org/2000/svg">
<path d="M17.6416 5.83203C17.5088 5.90149 17.3611 5.93769 17.2112 5.9375C17.0392 5.93779 16.8705 5.89079 16.7235 5.80164C16.5765 5.71249 16.4568 5.58463 16.3776 5.43203C15.8077 4.3028 14.9441 3.34797 13.8776 2.66797C13.7696 2.60415 13.6756 2.51933 13.6011 2.41852C13.5265 2.31772 13.4729 2.20298 13.4435 2.08111C13.414 1.95923 13.4093 1.83268 13.4297 1.70896C13.45 1.58524 13.495 1.46685 13.5619 1.36081C13.6288 1.25476 13.7163 1.16322 13.8192 1.09158C13.9221 1.01995 14.0383 0.969686 14.161 0.943766C14.2836 0.917847 14.4103 0.916798 14.5334 0.940681C14.6564 0.964565 14.7735 1.0129 14.8776 1.08282C16.2239 1.9432 17.317 3.14634 18.0447 4.56875C18.1012 4.67817 18.1356 4.79764 18.146 4.92035C18.1563 5.04305 18.1423 5.16659 18.1049 5.2839C18.0674 5.40121 18.0073 5.51 17.9278 5.60405C17.8483 5.6981 17.7511 5.77557 17.6416 5.83203ZM3.62287 5.43203C4.19273 4.3028 5.05633 3.34797 6.12287 2.66797C6.23319 2.6055 6.32969 2.5213 6.40654 2.42046C6.48339 2.31963 6.53899 2.20425 6.56997 2.08132C6.60096 1.95838 6.60669 1.83043 6.58681 1.70522C6.56693 1.58001 6.52187 1.46013 6.45434 1.35283C6.38681 1.24553 6.29821 1.15304 6.19392 1.08096C6.08962 1.00888 5.97179 0.958703 5.84754 0.933462C5.7233 0.908222 5.59523 0.908444 5.47107 0.934115C5.34692 0.959786 5.22926 1.01037 5.12522 1.08282C3.77889 1.9432 2.68576 3.14634 1.95803 4.56875C1.84375 4.78944 1.82177 5.04647 1.89692 5.28335C1.97207 5.52024 2.13821 5.71759 2.35881 5.83203C2.49165 5.90149 2.63937 5.93769 2.78928 5.9375C2.96122 5.93779 3.12992 5.89079 3.27694 5.80164C3.42396 5.71249 3.54364 5.58463 3.62287 5.43203ZM17.1783 13.1156C17.3547 13.3471 17.4629 13.6232 17.4907 13.9128C17.5186 14.2025 17.4651 14.4941 17.3361 14.755C17.2071 15.0158 17.0079 15.2355 16.7608 15.3892C16.5138 15.5429 16.2287 15.6246 15.9377 15.625H13.4229C13.3434 16.4777 12.9484 17.2701 12.3153 17.8469C11.6822 18.4237 10.8567 18.7434 10.0002 18.7434C9.14378 18.7434 8.31818 18.4237 7.68511 17.8469C7.05203 17.2701 6.65706 16.4777 6.57756 15.625H4.06272C3.77154 15.625 3.48615 15.5437 3.23874 15.3901C2.99134 15.2366 2.79175 15.017 2.66251 14.756C2.53327 14.4951 2.47951 14.2033 2.50729 13.9134C2.53507 13.6236 2.64329 13.3472 2.81975 13.1156C3.3799 12.3867 4.04865 11.0359 4.06037 8.74531C4.06099 7.17028 4.68727 5.66 5.80143 4.54673C6.91558 3.43345 8.42635 2.80837 10.0014 2.80899C11.5764 2.80961 13.0867 3.43588 14.2 4.55004C15.3133 5.6642 15.9383 7.17497 15.9377 8.75C15.9494 11.0359 16.6182 12.3867 17.1783 13.1156ZM11.5315 15.625H8.46897C8.54069 15.9782 8.73232 16.2958 9.01138 16.5239C9.29045 16.752 9.63979 16.8766 10.0002 16.8766C10.3606 16.8766 10.71 16.752 10.989 16.5239C11.2681 16.2958 11.4597 15.9782 11.5315 15.625ZM15.3393 13.75C14.7018 12.7344 14.0744 11.1273 14.0627 8.75469C14.063 8.22119 13.9582 7.69286 13.7544 7.19986C13.5505 6.70686 13.2515 6.25884 12.8745 5.88138C12.4975 5.50393 12.0498 5.20443 11.557 4.99998C11.0643 4.79554 10.5361 4.69015 10.0026 4.68985C9.46906 4.68954 8.94073 4.79431 8.44773 4.99819C7.95473 5.20206 7.50671 5.50105 7.12925 5.87807C6.7518 6.25509 6.4523 6.70276 6.24785 7.19553C6.04341 7.6883 5.93802 8.21651 5.93772 8.75C5.926 11.1266 5.29865 12.7344 4.66115 13.75H15.3393Z" fill="#171717"/>
</svg>
