<svg width="162" height="55" viewBox="0 0 162 55" fill="none" xmlns="http://www.w3.org/2000/svg">
<g clip-path="url(#clip0_1302_32060)">
<path d="M0.5 15.28C0.5 8.43527 0.5 5.0129 2.45775 2.7568C2.70493 2.47195 2.97195 2.20493 3.2568 1.95775C5.5129 0 8.93527 0 15.78 0H146.72C153.565 0 156.987 0 159.243 1.95775C159.528 2.20493 159.795 2.47195 160.042 2.7568C162 5.0129 162 8.43527 162 15.28V39.72C162 46.5647 162 49.9871 160.042 52.2432C159.795 52.5281 159.528 52.7951 159.243 53.0423C156.987 55 153.565 55 146.72 55H15.78C8.93527 55 5.5129 55 3.2568 53.0423C2.97195 52.7951 2.70493 52.5281 2.45775 52.2432C0.5 49.9871 0.5 46.5647 0.5 39.72V15.28Z" fill="#F9F6FF"/>
<path d="M15.704 22.5V12.56H19.414C20.5527 12.56 21.4393 12.8353 22.074 13.386C22.7087 13.9273 23.026 14.6833 23.026 15.654C23.026 16.298 22.8813 16.858 22.592 17.334C22.3027 17.8007 21.8873 18.16 21.346 18.412C20.814 18.6547 20.17 18.776 19.414 18.776H17.216V22.5H15.704ZM17.216 17.404H19.372C20.0533 17.404 20.5713 17.2593 20.926 16.97C21.2807 16.6713 21.458 16.2327 21.458 15.654C21.458 15.0847 21.2807 14.66 20.926 14.38C20.5713 14.0907 20.0533 13.946 19.372 13.946H17.216V17.404ZM24.6281 22.5V15.052H25.9861L26.0421 17.026L25.9161 16.984C26.0188 16.312 26.2241 15.822 26.5321 15.514C26.8495 15.206 27.2741 15.052 27.8061 15.052H28.5201V16.382H27.8061C27.4328 16.382 27.1201 16.4427 26.8681 16.564C26.6161 16.6853 26.4248 16.872 26.2941 17.124C26.1728 17.376 26.1121 17.7027 26.1121 18.104V22.5H24.6281ZM29.7414 22.5V15.052H31.2254V22.5H29.7414ZM29.7134 13.974V12.49H31.2534V13.974H29.7134ZM35.1607 22.5L32.4447 15.052H34.0267L36.0567 20.988L38.0867 15.052H39.6827L36.9527 22.5H35.1607ZM42.7649 22.668C41.9902 22.668 41.3696 22.4907 40.9029 22.136C40.4456 21.7813 40.2169 21.282 40.2169 20.638C40.2169 19.994 40.4082 19.4947 40.7909 19.14C41.1829 18.776 41.7849 18.5147 42.5969 18.356L45.1589 17.866C45.1589 17.2873 45.0236 16.858 44.7529 16.578C44.4822 16.2887 44.0809 16.144 43.5489 16.144C43.0729 16.144 42.6996 16.2513 42.4289 16.466C42.1582 16.6713 41.9716 16.9793 41.8689 17.39L40.3429 17.292C40.4829 16.5453 40.8282 15.9573 41.3789 15.528C41.9389 15.0987 42.6622 14.884 43.5489 14.884C44.5569 14.884 45.3222 15.1547 45.8449 15.696C46.3769 16.228 46.6429 16.9793 46.6429 17.95V20.848C46.6429 21.0253 46.6709 21.1513 46.7269 21.226C46.7922 21.2913 46.8949 21.324 47.0349 21.324H47.3009V22.5C47.2542 22.5093 47.1796 22.5187 47.0769 22.528C46.9742 22.5373 46.8669 22.542 46.7549 22.542C46.4376 22.542 46.1622 22.4907 45.9289 22.388C45.7049 22.2853 45.5369 22.1173 45.4249 21.884C45.3129 21.6413 45.2569 21.3193 45.2569 20.918L45.4109 20.988C45.3362 21.3147 45.1729 21.604 44.9209 21.856C44.6782 22.108 44.3656 22.3087 43.9829 22.458C43.6096 22.598 43.2036 22.668 42.7649 22.668ZM43.0029 21.492C43.4509 21.492 43.8336 21.408 44.1509 21.24C44.4682 21.0627 44.7156 20.82 44.8929 20.512C45.0702 20.204 45.1589 19.854 45.1589 19.462V18.986L42.9749 19.406C42.5269 19.49 42.2096 19.6253 42.0229 19.812C41.8456 19.9893 41.7569 20.218 41.7569 20.498C41.7569 20.8153 41.8642 21.0627 42.0789 21.24C42.3029 21.408 42.6109 21.492 43.0029 21.492ZM51.5652 22.668C50.8559 22.668 50.2352 22.5093 49.7032 22.192C49.1712 21.8747 48.7606 21.422 48.4712 20.834C48.1819 20.246 48.0372 19.56 48.0372 18.776C48.0372 17.992 48.1819 17.3107 48.4712 16.732C48.7606 16.144 49.1712 15.6913 49.7032 15.374C50.2352 15.0473 50.8559 14.884 51.5652 14.884C52.1719 14.884 52.7086 14.9913 53.1752 15.206C53.6512 15.4113 54.0339 15.7147 54.3232 16.116C54.6219 16.5173 54.8132 17.0073 54.8972 17.586L53.3432 17.67C53.2686 17.1847 53.0726 16.816 52.7552 16.564C52.4379 16.3027 52.0412 16.172 51.5652 16.172C50.9399 16.172 50.4499 16.4053 50.0952 16.872C49.7499 17.3293 49.5772 17.964 49.5772 18.776C49.5772 19.588 49.7499 20.2273 50.0952 20.694C50.4499 21.1513 50.9399 21.38 51.5652 21.38C52.0412 21.38 52.4379 21.2493 52.7552 20.988C53.0726 20.7173 53.2686 20.3113 53.3432 19.77L54.8972 19.854C54.8132 20.4233 54.6219 20.918 54.3232 21.338C54.0339 21.758 53.6512 22.0847 53.1752 22.318C52.7086 22.5513 52.1719 22.668 51.5652 22.668ZM56.4388 24.6V23.382H57.3488C57.6008 23.382 57.7874 23.3447 57.9088 23.27C58.0301 23.1953 58.1234 23.0693 58.1888 22.892L58.4268 22.276H57.9648L55.2768 15.052H56.8448L58.8888 20.904L60.8348 15.052H62.4168L59.4488 23.368C59.2994 23.7973 59.0754 24.11 58.7768 24.306C58.4874 24.502 58.0814 24.6 57.5588 24.6H56.4388ZM15.704 42.5V32.56H19.414C20.5527 32.56 21.4393 32.8353 22.074 33.386C22.7087 33.9273 23.026 34.6833 23.026 35.654C23.026 36.298 22.8813 36.858 22.592 37.334C22.3027 37.8007 21.8873 38.16 21.346 38.412C20.814 38.6547 20.17 38.776 19.414 38.776H17.216V42.5H15.704ZM17.216 37.404H19.372C20.0533 37.404 20.5713 37.2593 20.926 36.97C21.2807 36.6713 21.458 36.2327 21.458 35.654C21.458 35.0847 21.2807 34.66 20.926 34.38C20.5713 34.0907 20.0533 33.946 19.372 33.946H17.216V37.404ZM27.4207 42.668C26.7114 42.668 26.0907 42.5093 25.5587 42.192C25.0267 41.8747 24.616 41.422 24.3267 40.834C24.0374 40.246 23.8927 39.56 23.8927 38.776C23.8927 37.9827 24.0374 37.2967 24.3267 36.718C24.616 36.1393 25.0267 35.6913 25.5587 35.374C26.0907 35.0473 26.7114 34.884 27.4207 34.884C28.13 34.884 28.7507 35.0473 29.2827 35.374C29.8147 35.6913 30.2254 36.1393 30.5147 36.718C30.804 37.2967 30.9487 37.9827 30.9487 38.776C30.9487 39.56 30.804 40.246 30.5147 40.834C30.2254 41.422 29.8147 41.8747 29.2827 42.192C28.7507 42.5093 28.13 42.668 27.4207 42.668ZM27.4207 41.38C28.0554 41.38 28.5454 41.1513 28.8907 40.694C29.236 40.2273 29.4087 39.588 29.4087 38.776C29.4087 37.964 29.236 37.3293 28.8907 36.872C28.5454 36.4053 28.0554 36.172 27.4207 36.172C26.7954 36.172 26.3054 36.4053 25.9507 36.872C25.6054 37.3293 25.4327 37.964 25.4327 38.776C25.4327 39.588 25.6054 40.2273 25.9507 40.694C26.3054 41.1513 26.7954 41.38 27.4207 41.38ZM34.1408 42.5C33.6555 42.5 33.2635 42.374 32.9648 42.122C32.6661 41.87 32.5168 41.4687 32.5168 40.918V32.56H34.0008V40.778C34.0008 40.946 34.0428 41.072 34.1268 41.156C34.2201 41.24 34.3508 41.282 34.5188 41.282H35.1068V42.5H34.1408ZM36.3586 42.5V35.052H37.8426V42.5H36.3586ZM36.3306 33.974V32.49H37.8706V33.974H36.3306ZM42.8699 42.668C42.1606 42.668 41.5399 42.5093 41.0079 42.192C40.4759 41.8747 40.0652 41.422 39.7759 40.834C39.4866 40.246 39.3419 39.56 39.3419 38.776C39.3419 37.992 39.4866 37.3107 39.7759 36.732C40.0652 36.144 40.4759 35.6913 41.0079 35.374C41.5399 35.0473 42.1606 34.884 42.8699 34.884C43.4766 34.884 44.0132 34.9913 44.4799 35.206C44.9559 35.4113 45.3386 35.7147 45.6279 36.116C45.9266 36.5173 46.1179 37.0073 46.2019 37.586L44.6479 37.67C44.5732 37.1847 44.3772 36.816 44.0599 36.564C43.7426 36.3027 43.3459 36.172 42.8699 36.172C42.2446 36.172 41.7546 36.4053 41.3999 36.872C41.0546 37.3293 40.8819 37.964 40.8819 38.776C40.8819 39.588 41.0546 40.2273 41.3999 40.694C41.7546 41.1513 42.2446 41.38 42.8699 41.38C43.3459 41.38 43.7426 41.2493 44.0599 40.988C44.3772 40.7173 44.5732 40.3113 44.6479 39.77L46.2019 39.854C46.1179 40.4233 45.9266 40.918 45.6279 41.338C45.3386 41.758 44.9559 42.0847 44.4799 42.318C44.0132 42.5513 43.4766 42.668 42.8699 42.668ZM47.7434 44.6V43.382H48.6534C48.9054 43.382 49.0921 43.3447 49.2134 43.27C49.3348 43.1953 49.4281 43.0693 49.4934 42.892L49.7314 42.276H49.2694L46.5814 35.052H48.1494L50.1934 40.904L52.1394 35.052H53.7214L50.7534 43.368C50.6041 43.7973 50.3801 44.11 50.0814 44.306C49.7921 44.502 49.3861 44.6 48.8634 44.6H47.7434Z" fill="#171C22"/>
<ellipse cx="140.785" cy="27.7252" rx="47.7252" ry="47.7849" transform="rotate(90 140.785 27.7252)" fill="#F0EAFB"/>
<ellipse cx="140.785" cy="26.4863" rx="33.4697" ry="33.5115" transform="rotate(90 140.785 26.4863)" fill="#E2D5F6"/>
<ellipse cx="139.852" cy="25.5164" rx="19.2547" ry="19.2307" transform="rotate(180 139.852 25.5164)" fill="#8A57DC"/>
<path d="M146.25 19.125H133.75C133.418 19.125 133.101 19.2567 132.866 19.4911C132.632 19.7256 132.5 20.0435 132.5 20.375V24.75C132.5 28.8688 134.494 31.3649 136.166 32.7336C137.968 34.2071 139.76 34.7071 139.838 34.7282C139.946 34.7574 140.059 34.7574 140.166 34.7282C140.245 34.7071 142.034 34.2071 143.838 32.7336C145.506 31.3649 147.5 28.8688 147.5 24.75V20.375C147.5 20.0435 147.368 19.7256 147.134 19.4911C146.899 19.2567 146.582 19.125 146.25 19.125ZM143.569 24.5672L139.194 28.9422C139.136 29.0003 139.067 29.0464 138.991 29.0779C138.915 29.1093 138.834 29.1255 138.752 29.1255C138.669 29.1255 138.588 29.1093 138.512 29.0779C138.436 29.0464 138.367 29.0003 138.309 28.9422L136.434 27.0672C136.317 26.9499 136.251 26.7909 136.251 26.625C136.251 26.4592 136.317 26.3001 136.434 26.1828C136.552 26.0656 136.711 25.9997 136.877 25.9997C137.042 25.9997 137.201 26.0656 137.319 26.1828L138.75 27.6164L142.683 23.6828C142.741 23.6248 142.81 23.5787 142.886 23.5473C142.962 23.5159 143.043 23.4997 143.125 23.4997C143.207 23.4997 143.288 23.5159 143.364 23.5473C143.44 23.5787 143.509 23.6248 143.567 23.6828C143.625 23.7409 143.671 23.8098 143.703 23.8857C143.734 23.9616 143.75 24.0429 143.75 24.125C143.75 24.2072 143.734 24.2885 143.703 24.3643C143.671 24.4402 143.625 24.5091 143.567 24.5672H143.569Z" fill="white"/>
</g>
<path d="M0.75 15.28C0.75 11.8512 0.750442 9.30255 0.992855 7.32813C1.23454 5.35966 1.71346 3.99596 2.64657 2.92065C2.88602 2.6447 3.1447 2.38602 3.42065 2.14657C4.49596 1.21346 5.85966 0.734538 7.82813 0.492855C9.80255 0.250442 12.3512 0.25 15.78 0.25H146.72C150.149 0.25 152.697 0.250442 154.672 0.492855C156.64 0.734538 158.004 1.21346 159.079 2.14657C159.355 2.38603 159.614 2.6447 159.853 2.92065C160.787 3.99596 161.265 5.35966 161.507 7.32813C161.75 9.30255 161.75 11.8512 161.75 15.28V39.72C161.75 43.1488 161.75 45.6975 161.507 47.6719C161.265 49.6403 160.787 51.004 159.853 52.0794C159.614 52.3553 159.355 52.614 159.079 52.8534C158.004 53.7865 156.64 54.2655 154.672 54.5071C152.697 54.7496 150.149 54.75 146.72 54.75H15.78C12.3512 54.75 9.80255 54.7496 7.82813 54.5071C5.85966 54.2655 4.49596 53.7865 3.42065 52.8534C3.1447 52.614 2.88602 52.3553 2.64657 52.0794C1.71346 51.004 1.23454 49.6403 0.992855 47.6719C0.750442 45.6974 0.75 43.1488 0.75 39.72V15.28Z" stroke="#F0EAFB" stroke-width="0.5"/>
<defs>
<clipPath id="clip0_1302_32060">
<path d="M0.5 15.28C0.5 8.43527 0.5 5.0129 2.45775 2.7568C2.70493 2.47195 2.97195 2.20493 3.2568 1.95775C5.5129 0 8.93527 0 15.78 0H146.72C153.565 0 156.987 0 159.243 1.95775C159.528 2.20493 159.795 2.47195 160.042 2.7568C162 5.0129 162 8.43527 162 15.28V39.72C162 46.5647 162 49.9871 160.042 52.2432C159.795 52.5281 159.528 52.7951 159.243 53.0423C156.987 55 153.565 55 146.72 55H15.78C8.93527 55 5.5129 55 3.2568 53.0423C2.97195 52.7951 2.70493 52.5281 2.45775 52.2432C0.5 49.9871 0.5 46.5647 0.5 39.72V15.28Z" fill="white"/>
</clipPath>
</defs>
</svg>
