<svg width="334" height="55" viewBox="0 0 334 55" fill="none" xmlns="http://www.w3.org/2000/svg">
<g clip-path="url(#clip0_1302_35304)">
<path d="M0 15.28C0 8.43527 0 5.0129 1.95775 2.7568C2.20493 2.47195 2.47195 2.20493 2.7568 1.95775C5.0129 0 8.43527 0 15.28 0H318.72C325.565 0 328.987 0 331.243 1.95775C331.528 2.20493 331.795 2.47195 332.042 2.7568C334 5.0129 334 8.43527 334 15.28V39.72C334 46.5647 334 49.9871 332.042 52.2432C331.795 52.5281 331.528 52.7951 331.243 53.0423C328.987 55 325.565 55 318.72 55H15.28C8.43526 55 5.0129 55 2.7568 53.0423C2.47195 52.7951 2.20493 52.5281 1.95775 52.2432C0 49.9871 0 46.5647 0 39.72V15.28Z" fill="#F9F6FF"/>
<path d="M25.204 22.5V12.56H28.914C30.0527 12.56 30.9393 12.8353 31.574 13.386C32.2087 13.9273 32.526 14.6833 32.526 15.654C32.526 16.298 32.3813 16.858 32.092 17.334C31.8027 17.8007 31.3873 18.16 30.846 18.412C30.314 18.6547 29.67 18.776 28.914 18.776H26.716V22.5H25.204ZM26.716 17.404H28.872C29.5533 17.404 30.0713 17.2593 30.426 16.97C30.7807 16.6713 30.958 16.2327 30.958 15.654C30.958 15.0847 30.7807 14.66 30.426 14.38C30.0713 14.0907 29.5533 13.946 28.872 13.946H26.716V17.404ZM34.1281 22.5V15.052H35.4861L35.5421 17.026L35.4161 16.984C35.5188 16.312 35.7241 15.822 36.0321 15.514C36.3495 15.206 36.7741 15.052 37.3061 15.052H38.0201V16.382H37.3061C36.9328 16.382 36.6201 16.4427 36.3681 16.564C36.1161 16.6853 35.9248 16.872 35.7941 17.124C35.6728 17.376 35.6121 17.7027 35.6121 18.104V22.5H34.1281ZM39.2414 22.5V15.052H40.7254V22.5H39.2414ZM39.2134 13.974V12.49H40.7534V13.974H39.2134ZM44.6607 22.5L41.9447 15.052H43.5267L45.5567 20.988L47.5867 15.052H49.1827L46.4527 22.5H44.6607ZM52.2649 22.668C51.4902 22.668 50.8696 22.4907 50.4029 22.136C49.9456 21.7813 49.7169 21.282 49.7169 20.638C49.7169 19.994 49.9082 19.4947 50.2909 19.14C50.6829 18.776 51.2849 18.5147 52.0969 18.356L54.6589 17.866C54.6589 17.2873 54.5236 16.858 54.2529 16.578C53.9822 16.2887 53.5809 16.144 53.0489 16.144C52.5729 16.144 52.1996 16.2513 51.9289 16.466C51.6582 16.6713 51.4716 16.9793 51.3689 17.39L49.8429 17.292C49.9829 16.5453 50.3282 15.9573 50.8789 15.528C51.4389 15.0987 52.1622 14.884 53.0489 14.884C54.0569 14.884 54.8222 15.1547 55.3449 15.696C55.8769 16.228 56.1429 16.9793 56.1429 17.95V20.848C56.1429 21.0253 56.1709 21.1513 56.2269 21.226C56.2922 21.2913 56.3949 21.324 56.5349 21.324H56.8009V22.5C56.7542 22.5093 56.6796 22.5187 56.5769 22.528C56.4742 22.5373 56.3669 22.542 56.2549 22.542C55.9376 22.542 55.6622 22.4907 55.4289 22.388C55.2049 22.2853 55.0369 22.1173 54.9249 21.884C54.8129 21.6413 54.7569 21.3193 54.7569 20.918L54.9109 20.988C54.8362 21.3147 54.6729 21.604 54.4209 21.856C54.1782 22.108 53.8656 22.3087 53.4829 22.458C53.1096 22.598 52.7036 22.668 52.2649 22.668ZM52.5029 21.492C52.9509 21.492 53.3336 21.408 53.6509 21.24C53.9682 21.0627 54.2156 20.82 54.3929 20.512C54.5702 20.204 54.6589 19.854 54.6589 19.462V18.986L52.4749 19.406C52.0269 19.49 51.7096 19.6253 51.5229 19.812C51.3456 19.9893 51.2569 20.218 51.2569 20.498C51.2569 20.8153 51.3642 21.0627 51.5789 21.24C51.8029 21.408 52.1109 21.492 52.5029 21.492ZM61.0652 22.668C60.3559 22.668 59.7352 22.5093 59.2032 22.192C58.6712 21.8747 58.2606 21.422 57.9712 20.834C57.6819 20.246 57.5372 19.56 57.5372 18.776C57.5372 17.992 57.6819 17.3107 57.9712 16.732C58.2606 16.144 58.6712 15.6913 59.2032 15.374C59.7352 15.0473 60.3559 14.884 61.0652 14.884C61.6719 14.884 62.2086 14.9913 62.6752 15.206C63.1512 15.4113 63.5339 15.7147 63.8232 16.116C64.1219 16.5173 64.3132 17.0073 64.3972 17.586L62.8432 17.67C62.7686 17.1847 62.5726 16.816 62.2552 16.564C61.9379 16.3027 61.5412 16.172 61.0652 16.172C60.4399 16.172 59.9499 16.4053 59.5952 16.872C59.2499 17.3293 59.0772 17.964 59.0772 18.776C59.0772 19.588 59.2499 20.2273 59.5952 20.694C59.9499 21.1513 60.4399 21.38 61.0652 21.38C61.5412 21.38 61.9379 21.2493 62.2552 20.988C62.5726 20.7173 62.7686 20.3113 62.8432 19.77L64.3972 19.854C64.3132 20.4233 64.1219 20.918 63.8232 21.338C63.5339 21.758 63.1512 22.0847 62.6752 22.318C62.2086 22.5513 61.6719 22.668 61.0652 22.668ZM65.9388 24.6V23.382H66.8488C67.1008 23.382 67.2874 23.3447 67.4088 23.27C67.5301 23.1953 67.6234 23.0693 67.6888 22.892L67.9268 22.276H67.4648L64.7768 15.052H66.3448L68.3888 20.904L70.3348 15.052H71.9168L68.9488 23.368C68.7994 23.7973 68.5754 24.11 68.2768 24.306C67.9874 24.502 67.5814 24.6 67.0588 24.6H65.9388ZM25.204 42.5V32.56H28.914C30.0527 32.56 30.9393 32.8353 31.574 33.386C32.2087 33.9273 32.526 34.6833 32.526 35.654C32.526 36.298 32.3813 36.858 32.092 37.334C31.8027 37.8007 31.3873 38.16 30.846 38.412C30.314 38.6547 29.67 38.776 28.914 38.776H26.716V42.5H25.204ZM26.716 37.404H28.872C29.5533 37.404 30.0713 37.2593 30.426 36.97C30.7807 36.6713 30.958 36.2327 30.958 35.654C30.958 35.0847 30.7807 34.66 30.426 34.38C30.0713 34.0907 29.5533 33.946 28.872 33.946H26.716V37.404ZM36.9207 42.668C36.2114 42.668 35.5907 42.5093 35.0587 42.192C34.5267 41.8747 34.116 41.422 33.8267 40.834C33.5374 40.246 33.3927 39.56 33.3927 38.776C33.3927 37.9827 33.5374 37.2967 33.8267 36.718C34.116 36.1393 34.5267 35.6913 35.0587 35.374C35.5907 35.0473 36.2114 34.884 36.9207 34.884C37.63 34.884 38.2507 35.0473 38.7827 35.374C39.3147 35.6913 39.7254 36.1393 40.0147 36.718C40.304 37.2967 40.4487 37.9827 40.4487 38.776C40.4487 39.56 40.304 40.246 40.0147 40.834C39.7254 41.422 39.3147 41.8747 38.7827 42.192C38.2507 42.5093 37.63 42.668 36.9207 42.668ZM36.9207 41.38C37.5554 41.38 38.0454 41.1513 38.3907 40.694C38.736 40.2273 38.9087 39.588 38.9087 38.776C38.9087 37.964 38.736 37.3293 38.3907 36.872C38.0454 36.4053 37.5554 36.172 36.9207 36.172C36.2954 36.172 35.8054 36.4053 35.4507 36.872C35.1054 37.3293 34.9327 37.964 34.9327 38.776C34.9327 39.588 35.1054 40.2273 35.4507 40.694C35.8054 41.1513 36.2954 41.38 36.9207 41.38ZM43.6408 42.5C43.1555 42.5 42.7635 42.374 42.4648 42.122C42.1661 41.87 42.0168 41.4687 42.0168 40.918V32.56H43.5008V40.778C43.5008 40.946 43.5428 41.072 43.6268 41.156C43.7201 41.24 43.8508 41.282 44.0188 41.282H44.6068V42.5H43.6408ZM45.8586 42.5V35.052H47.3426V42.5H45.8586ZM45.8306 33.974V32.49H47.3706V33.974H45.8306ZM52.3699 42.668C51.6606 42.668 51.0399 42.5093 50.5079 42.192C49.9759 41.8747 49.5652 41.422 49.2759 40.834C48.9866 40.246 48.8419 39.56 48.8419 38.776C48.8419 37.992 48.9866 37.3107 49.2759 36.732C49.5652 36.144 49.9759 35.6913 50.5079 35.374C51.0399 35.0473 51.6606 34.884 52.3699 34.884C52.9766 34.884 53.5132 34.9913 53.9799 35.206C54.4559 35.4113 54.8386 35.7147 55.1279 36.116C55.4266 36.5173 55.6179 37.0073 55.7019 37.586L54.1479 37.67C54.0732 37.1847 53.8772 36.816 53.5599 36.564C53.2426 36.3027 52.8459 36.172 52.3699 36.172C51.7446 36.172 51.2546 36.4053 50.8999 36.872C50.5546 37.3293 50.3819 37.964 50.3819 38.776C50.3819 39.588 50.5546 40.2273 50.8999 40.694C51.2546 41.1513 51.7446 41.38 52.3699 41.38C52.8459 41.38 53.2426 41.2493 53.5599 40.988C53.8772 40.7173 54.0732 40.3113 54.1479 39.77L55.7019 39.854C55.6179 40.4233 55.4266 40.918 55.1279 41.338C54.8386 41.758 54.4559 42.0847 53.9799 42.318C53.5132 42.5513 52.9766 42.668 52.3699 42.668ZM57.2434 44.6V43.382H58.1534C58.4054 43.382 58.5921 43.3447 58.7134 43.27C58.8348 43.1953 58.9281 43.0693 58.9934 42.892L59.2314 42.276H58.7694L56.0814 35.052H57.6494L59.6934 40.904L61.6394 35.052H63.2214L60.2534 43.368C60.1041 43.7973 59.8801 44.11 59.5814 44.306C59.2921 44.502 58.8861 44.6 58.3634 44.6H57.2434Z" fill="#171C22"/>
<ellipse cx="312.785" cy="27.7252" rx="47.7252" ry="47.7849" transform="rotate(90 312.785 27.7252)" fill="#F0EAFB"/>
<ellipse cx="312.785" cy="26.4863" rx="33.4697" ry="33.5115" transform="rotate(90 312.785 26.4863)" fill="#E2D5F6"/>
<ellipse cx="311.852" cy="25.5164" rx="19.2547" ry="19.2307" transform="rotate(180 311.852 25.5164)" fill="#8A57DC"/>
<path d="M318.25 19.125H305.75C305.418 19.125 305.101 19.2567 304.866 19.4911C304.632 19.7255 304.5 20.0435 304.5 20.375V24.75C304.5 28.8687 306.494 31.3648 308.166 32.7336C309.968 34.207 311.76 34.707 311.838 34.7281C311.946 34.7573 312.059 34.7573 312.166 34.7281C312.245 34.707 314.034 34.207 315.838 32.7336C317.506 31.3648 319.5 28.8687 319.5 24.75V20.375C319.5 20.0435 319.368 19.7255 319.134 19.4911C318.899 19.2567 318.582 19.125 318.25 19.125ZM315.569 24.5672L311.194 28.9422C311.136 29.0003 311.067 29.0464 310.991 29.0779C310.915 29.1093 310.834 29.1255 310.752 29.1255C310.669 29.1255 310.588 29.1093 310.512 29.0779C310.436 29.0464 310.367 29.0003 310.309 28.9422L308.434 27.0672C308.317 26.9499 308.251 26.7909 308.251 26.625C308.251 26.4591 308.317 26.3001 308.434 26.1828C308.552 26.0655 308.711 25.9997 308.877 25.9997C309.042 25.9997 309.201 26.0655 309.319 26.1828L310.75 27.6164L314.683 23.6828C314.741 23.6247 314.81 23.5787 314.886 23.5473C314.962 23.5158 315.043 23.4997 315.125 23.4997C315.207 23.4997 315.288 23.5158 315.364 23.5473C315.44 23.5787 315.509 23.6247 315.567 23.6828C315.625 23.7409 315.671 23.8098 315.703 23.8857C315.734 23.9616 315.75 24.0429 315.75 24.125C315.75 24.2071 315.734 24.2884 315.703 24.3643C315.671 24.4402 315.625 24.5091 315.567 24.5672H315.569Z" fill="white"/>
</g>
<path d="M15.2803 0.25H318.72C322.148 0.25 324.697 0.250751 326.672 0.493164C328.517 0.719721 329.831 1.15437 330.874 1.97656L331.079 2.14648C331.286 2.326 331.483 2.5165 331.67 2.7168L331.854 2.9209C332.787 3.99617 333.265 5.35978 333.507 7.32812C333.749 9.30255 333.75 11.8515 333.75 15.2803V39.7197C333.75 43.1485 333.749 45.6975 333.507 47.6719C333.28 49.5171 332.846 50.831 332.023 51.874L331.854 52.0791C331.674 52.286 331.484 52.4833 331.283 52.6699L331.079 52.8535C330.004 53.7865 328.64 54.2652 326.672 54.5068C324.697 54.7492 322.148 54.75 318.72 54.75H15.2803C11.8515 54.75 9.30255 54.7492 7.32812 54.5068C5.48289 54.2803 4.16898 53.8456 3.12598 53.0234L2.9209 52.8535C2.71402 52.674 2.51672 52.4835 2.33008 52.2832L2.14648 52.0791C1.21349 51.0038 0.734835 49.6402 0.493164 47.6719C0.250751 45.6975 0.25 43.1485 0.25 39.7197V15.2803C0.25 11.8515 0.250751 9.30255 0.493164 7.32812C0.719721 5.48289 1.15437 4.16898 1.97656 3.12598L2.14648 2.9209C2.326 2.71402 2.5165 2.51672 2.7168 2.33008L2.9209 2.14648C3.99617 1.21349 5.35979 0.734835 7.32812 0.493164C9.30255 0.250751 11.8515 0.25 15.2803 0.25Z" stroke="#F0EAFB" stroke-width="0.5"/>
<defs>
<clipPath id="clip0_1302_35304">
<path d="M0 15.28C0 8.43527 0 5.0129 1.95775 2.7568C2.20493 2.47195 2.47195 2.20493 2.7568 1.95775C5.0129 0 8.43527 0 15.28 0H318.72C325.565 0 328.987 0 331.243 1.95775C331.528 2.20493 331.795 2.47195 332.042 2.7568C334 5.0129 334 8.43527 334 15.28V39.72C334 46.5647 334 49.9871 332.042 52.2432C331.795 52.5281 331.528 52.7951 331.243 53.0423C328.987 55 325.565 55 318.72 55H15.28C8.43526 55 5.0129 55 2.7568 53.0423C2.47195 52.7951 2.20493 52.5281 1.95775 52.2432C0 49.9871 0 46.5647 0 39.72V15.28Z" fill="white"/>
</clipPath>
</defs>
</svg>
