<svg width="20" height="20" viewBox="0 0 20 20" fill="none" xmlns="http://www.w3.org/2000/svg">
<path d="M18.9846 7.50001C18.8877 7.20103 18.7043 6.93752 18.4576 6.74282C18.2109 6.54812 17.912 6.43099 17.5987 6.40626L13.1776 6.04923L11.4713 1.92344C11.3514 1.63185 11.1475 1.38247 10.8856 1.20697C10.6237 1.03147 10.3155 0.937775 10.0002 0.937775C9.68494 0.937775 9.37677 1.03147 9.11484 1.20697C8.85291 1.38247 8.64905 1.63185 8.52913 1.92344L6.82445 6.05001L2.40335 6.40626C2.08946 6.43214 1.79023 6.55023 1.54325 6.74567C1.29627 6.94111 1.11257 7.2052 1.01523 7.50473C0.917889 7.80427 0.911253 8.12589 0.996155 8.42919C1.08106 8.73248 1.25371 9.00392 1.49242 9.20938L4.86585 12.1188L3.8346 16.4703C3.75939 16.7771 3.77718 17.0994 3.88572 17.396C3.99425 17.6927 4.18862 17.9503 4.44407 18.1362C4.69952 18.322 5.00449 18.4276 5.32016 18.4395C5.63582 18.4514 5.94789 18.3692 6.21663 18.2031L10.0002 15.8742L13.7838 18.2031C14.0525 18.368 14.364 18.4495 14.6791 18.4373C14.9941 18.425 15.2983 18.3196 15.5534 18.1343C15.8084 17.949 16.0028 17.6922 16.1118 17.3964C16.2208 17.1006 16.2396 16.7792 16.1659 16.4727L15.1346 12.1211L18.508 9.21173C18.7482 9.00576 18.9217 8.73308 19.0065 8.42831C19.0914 8.12354 19.0838 7.80043 18.9846 7.50001ZM13.4791 11.0703C13.3491 11.1825 13.2523 11.3282 13.1994 11.4916C13.1465 11.655 13.1395 11.8298 13.1791 11.9969L14.1862 16.25L10.4916 13.9781C10.3439 13.8872 10.1737 13.839 10.0002 13.839C9.82671 13.839 9.65659 13.8872 9.50882 13.9781L5.81429 16.25L6.82132 12C6.86099 11.8329 6.85399 11.6581 6.80108 11.4947C6.74818 11.3313 6.6514 11.1856 6.52132 11.0734L3.21898 8.22188L7.5471 7.87266C7.71934 7.85883 7.8844 7.79766 8.02406 7.69591C8.16372 7.59417 8.27254 7.4558 8.33851 7.2961L10.0002 3.27266L11.6619 7.2961C11.7279 7.4558 11.8367 7.59417 11.9764 7.69591C12.1161 7.79766 12.2811 7.85883 12.4534 7.87266L16.7815 8.22188L13.4791 11.0703Z" fill="#171717"/>
</svg>
