<svg width="20" height="20" viewBox="0 0 20 20" fill="none" xmlns="http://www.w3.org/2000/svg">
<path d="M13.7498 12.1875C12.9126 12.1862 12.104 12.4919 11.4771 13.0469L8.28885 11C8.48674 10.348 8.48674 9.65199 8.28885 9.00001L11.4771 6.95313C12.0977 7.49852 12.8946 7.80115 13.7207 7.80522C14.5469 7.80928 15.3467 7.51451 15.9726 6.97525C16.5985 6.436 17.0084 5.68862 17.1266 4.87094C17.2448 4.05326 17.0634 3.22042 16.6158 2.52598C16.1682 1.83154 15.4846 1.32234 14.6911 1.09227C13.8976 0.8622 13.0477 0.926776 12.2981 1.27409C11.5484 1.62141 10.9497 2.22804 10.6121 2.98213C10.2746 3.73622 10.2211 4.58692 10.4615 5.37735L7.27244 7.42188C6.77651 6.9836 6.1646 6.69781 5.51021 6.59883C4.85581 6.49984 4.18676 6.59187 3.58339 6.86387C2.98002 7.13586 2.46801 7.57626 2.10883 8.13215C1.74965 8.68805 1.55859 9.33582 1.55859 9.99766C1.55859 10.6595 1.74965 11.3073 2.10883 11.8632C2.46801 12.4191 2.98002 12.8595 3.58339 13.1315C4.18676 13.4035 4.85581 13.4955 5.51021 13.3965C6.1646 13.2975 6.77651 13.0117 7.27244 12.5734L10.4607 14.625C10.2504 15.3169 10.2635 16.0574 10.4984 16.7414C10.7332 17.4253 11.1778 18.0178 11.7688 18.4345C12.3598 18.8511 13.0672 19.0708 13.7902 19.0623C14.5133 19.0537 15.2153 18.8173 15.7963 18.3868C16.3773 17.9562 16.8077 17.3534 17.0262 16.6641C17.2448 15.9748 17.2405 15.2341 17.0138 14.5474C16.7871 13.8607 16.3496 13.263 15.7636 12.8393C15.1776 12.4157 14.4729 12.1876 13.7498 12.1875ZM13.7498 2.81251C14.0588 2.81251 14.3609 2.90415 14.6179 3.07584C14.8748 3.24752 15.0751 3.49155 15.1933 3.77706C15.3116 4.06257 15.3425 4.37674 15.2823 4.67983C15.222 4.98293 15.0732 5.26134 14.8546 5.47986C14.6361 5.69838 14.3577 5.84719 14.0546 5.90748C13.7515 5.96777 13.4374 5.93683 13.1518 5.81857C12.8663 5.70031 12.6223 5.50004 12.4506 5.24308C12.2789 4.98613 12.1873 4.68404 12.1873 4.37501C12.1873 3.96061 12.3519 3.56318 12.6449 3.27015C12.938 2.97713 13.3354 2.81251 13.7498 2.81251ZM4.99978 11.5625C4.69075 11.5625 4.38866 11.4709 4.13171 11.2992C3.87475 11.1275 3.67448 10.8835 3.55622 10.5979C3.43796 10.3124 3.40702 9.99827 3.46731 9.69518C3.5276 9.39208 3.67641 9.11367 3.89493 8.89515C4.11345 8.67663 4.39186 8.52782 4.69496 8.46753C4.99805 8.40724 5.31222 8.43818 5.59773 8.55644C5.88324 8.67471 6.12727 8.87498 6.29896 9.13193C6.47065 9.38888 6.56228 9.69097 6.56228 10C6.56228 10.4144 6.39766 10.8118 6.10464 11.1049C5.81161 11.3979 5.41419 11.5625 4.99978 11.5625ZM13.7498 17.1875C13.4408 17.1875 13.1387 17.0959 12.8817 16.9242C12.6248 16.7525 12.4245 16.5085 12.3062 16.2229C12.188 15.9374 12.157 15.6233 12.2173 15.3202C12.2776 15.0171 12.4264 14.7387 12.6449 14.5202C12.8634 14.3016 13.1419 14.1528 13.445 14.0925C13.748 14.0322 14.0622 14.0632 14.3477 14.1814C14.6332 14.2997 14.8773 14.5 15.049 14.7569C15.2206 15.0139 15.3123 15.316 15.3123 15.625C15.3123 16.0394 15.1477 16.4368 14.8546 16.7299C14.5616 17.0229 14.1642 17.1875 13.7498 17.1875Z" fill="#171717"/>
</svg>
