<svg width="20" height="15" viewBox="0 0 20 15" fill="none" xmlns="http://www.w3.org/2000/svg">
<path d="M19.8342 5.44609L17.8397 1.46171C17.7483 1.27784 17.6216 1.11378 17.4668 0.978908C17.3119 0.84404 17.132 0.74101 16.9374 0.675709C16.7427 0.610408 16.5371 0.584117 16.3322 0.598337C16.1274 0.612558 15.9274 0.667013 15.7436 0.758588L13.9327 1.66406L10.2889 0.482806C10.1009 0.422642 9.89879 0.422642 9.71078 0.482806L6.06703 1.66406L4.25609 0.758588C4.07231 0.667013 3.87229 0.612558 3.66745 0.598337C3.46261 0.584117 3.25698 0.610408 3.06231 0.675709C2.86764 0.74101 2.68775 0.84404 2.53293 0.978908C2.3781 1.11378 2.25138 1.27784 2.16 1.46171L0.165467 5.44609C0.0738923 5.62987 0.0194378 5.82989 0.00521692 6.03473C-0.00900396 6.23956 0.0172876 6.4452 0.0825886 6.63987C0.14789 6.83453 0.250919 7.01442 0.385787 7.16925C0.520655 7.32408 0.684717 7.4508 0.868592 7.54218L2.95219 8.58437L6.95062 11.507C7.04535 11.5763 7.1521 11.6274 7.26547 11.6578L12.1092 12.9078C12.1858 12.9273 12.2645 12.9373 12.3436 12.9375C12.5921 12.9373 12.8304 12.8384 13.0061 12.6625L17.117 8.55156L19.135 7.54218C19.5057 7.35693 19.7876 7.03203 19.9187 6.63894C20.0498 6.24585 20.0194 5.81677 19.8342 5.44609ZM15.2936 7.72343L13.1436 5.69218C12.9659 5.52403 12.7294 5.43203 12.4848 5.43583C12.2401 5.43962 12.0067 5.53891 11.8342 5.71249C11.0795 6.47343 9.8764 7.02577 8.64594 6.45859L11.6295 3.56796H13.4045L15.4209 7.60156L15.2936 7.72343ZM3.69672 2.57578L4.73344 3.09374L3.01469 6.52343L1.97797 6.00546L3.69672 2.57578ZM12.0561 10.9586L7.90844 9.89062L4.62719 7.49531L6.65375 3.44531L9.99984 2.36015L10.1319 2.40312L7.03109 5.41249L7.02094 5.42187C6.85569 5.58729 6.72968 5.78768 6.65219 6.00828C6.5747 6.22888 6.54771 6.46406 6.5732 6.69648C6.59869 6.9289 6.67601 7.15263 6.79948 7.35119C6.92294 7.54975 7.08939 7.71807 7.28656 7.84374C8.92328 8.88984 10.8803 8.78671 12.4686 7.63046L13.9686 9.04843L12.0561 10.9586ZM16.978 6.52343L15.2592 3.09374L16.2959 2.57578L18.0108 6.00546L16.978 6.52343ZM9.26156 14.1094C9.23079 14.2286 9.17684 14.3406 9.10278 14.4389C9.02873 14.5373 8.93602 14.6201 8.82996 14.6827C8.72389 14.7452 8.60655 14.7862 8.48462 14.8034C8.3627 14.8206 8.23859 14.8136 8.11937 14.7828L6.04125 14.2461C5.92642 14.2164 5.81825 14.1653 5.7225 14.0953L3.82172 12.7031C3.62731 12.5541 3.49894 12.3349 3.46408 12.0925C3.42923 11.85 3.49065 11.6035 3.63521 11.4058C3.77976 11.208 3.99598 11.0747 4.23758 11.0344C4.47918 10.994 4.72699 11.0498 4.92797 11.1898L6.68344 12.4727L8.58812 12.9641C8.70768 12.9948 8.81999 13.0489 8.9186 13.1231C9.01721 13.1974 9.10018 13.2904 9.16276 13.3968C9.22533 13.5032 9.26626 13.621 9.28322 13.7432C9.30018 13.8655 9.29282 13.9899 9.26156 14.1094Z" fill="#171717"/>
</svg>
