<svg width="162" height="55" viewBox="0 0 162 55" fill="none" xmlns="http://www.w3.org/2000/svg">
<g clip-path="url(#clip0_1302_32051)">
<path d="M0 15.28C0 8.43527 0 5.0129 1.95775 2.7568C2.20493 2.47195 2.47195 2.20493 2.7568 1.95775C5.0129 0 8.43527 0 15.28 0H146.22C153.065 0 156.487 0 158.743 1.95775C159.028 2.20493 159.295 2.47195 159.542 2.7568C161.5 5.0129 161.5 8.43527 161.5 15.28V39.72C161.5 46.5647 161.5 49.9871 159.542 52.2432C159.295 52.5281 159.028 52.7951 158.743 53.0423C156.487 55 153.065 55 146.22 55H15.28C8.43527 55 5.0129 55 2.7568 53.0423C2.47195 52.7951 2.20493 52.5281 1.95775 52.2432C0 49.9871 0 46.5647 0 39.72V15.28Z" fill="#F9F6FF"/>
<path d="M17.22 22.5V13.946H14.168V12.56H21.784V13.946H18.732V22.5H17.22ZM24.9519 22.668C24.2239 22.668 23.5939 22.5093 23.0619 22.192C22.5393 21.8747 22.1333 21.422 21.8439 20.834C21.5639 20.246 21.4239 19.56 21.4239 18.776C21.4239 17.992 21.5639 17.3107 21.8439 16.732C22.1333 16.144 22.5393 15.6913 23.0619 15.374C23.5846 15.0473 24.2006 14.884 24.9099 14.884C25.5819 14.884 26.1746 15.0427 26.6879 15.36C27.2013 15.668 27.5979 16.116 27.8779 16.704C28.1673 17.292 28.3119 18.0013 28.3119 18.832V19.21H22.9639C23.0013 19.938 23.1926 20.484 23.5379 20.848C23.8926 21.212 24.3686 21.394 24.9659 21.394C25.4046 21.394 25.7686 21.2913 26.0579 21.086C26.3473 20.8807 26.5479 20.6053 26.6599 20.26L28.1999 20.358C28.0039 21.0487 27.6166 21.6087 27.0379 22.038C26.4686 22.458 25.7733 22.668 24.9519 22.668ZM22.9639 18.09H26.7439C26.6973 17.4273 26.5059 16.9373 26.1699 16.62C25.8433 16.3027 25.4233 16.144 24.9099 16.144C24.3779 16.144 23.9393 16.312 23.5939 16.648C23.2579 16.9747 23.0479 17.4553 22.9639 18.09ZM29.8156 22.5V15.052H31.1736L31.2296 17.026L31.1036 16.984C31.2063 16.312 31.4116 15.822 31.7196 15.514C32.037 15.206 32.4616 15.052 32.9936 15.052H33.7076V16.382H32.9936C32.6203 16.382 32.3076 16.4427 32.0556 16.564C31.8036 16.6853 31.6123 16.872 31.4816 17.124C31.3603 17.376 31.2996 17.7027 31.2996 18.104V22.5H29.8156ZM34.8195 22.5V15.052H36.1775L36.2195 16.9L36.0515 16.844C36.1355 16.4333 36.2802 16.0833 36.4855 15.794C36.7002 15.5047 36.9615 15.2807 37.2695 15.122C37.5775 14.9633 37.9135 14.884 38.2775 14.884C38.9122 14.884 39.4302 15.066 39.8315 15.43C40.2329 15.7847 40.4849 16.2747 40.5875 16.9H40.3495C40.4335 16.4613 40.5735 16.0973 40.7695 15.808C40.9749 15.5093 41.2362 15.2807 41.5535 15.122C41.8709 14.9633 42.2302 14.884 42.6315 14.884C43.1542 14.884 43.5975 14.996 43.9615 15.22C44.3349 15.4347 44.6149 15.752 44.8015 16.172C44.9975 16.592 45.0955 17.1053 45.0955 17.712V22.5H43.6115V18.076C43.6115 17.432 43.4949 16.9467 43.2615 16.62C43.0282 16.2933 42.6735 16.13 42.1975 16.13C41.8895 16.13 41.6189 16.2093 41.3855 16.368C41.1522 16.5267 40.9702 16.7553 40.8395 17.054C40.7182 17.3527 40.6575 17.712 40.6575 18.132V22.5H39.2435V18.132C39.2435 17.4973 39.1362 17.0073 38.9215 16.662C38.7162 16.3073 38.3615 16.13 37.8575 16.13C37.5402 16.13 37.2649 16.2093 37.0315 16.368C36.8075 16.5267 36.6302 16.76 36.4995 17.068C36.3689 17.3667 36.3035 17.7213 36.3035 18.132V22.5H34.8195ZM49.9122 22.668C49.2122 22.668 48.6195 22.5607 48.1342 22.346C47.6582 22.1313 47.2895 21.8373 47.0282 21.464C46.7669 21.0813 46.6175 20.6427 46.5802 20.148L48.1062 20.078C48.1809 20.4887 48.3582 20.8153 48.6382 21.058C48.9182 21.3007 49.3429 21.422 49.9122 21.422C50.3789 21.422 50.7475 21.3473 51.0182 21.198C51.2889 21.0487 51.4242 20.8107 51.4242 20.484C51.4242 20.3067 51.3775 20.1573 51.2842 20.036C51.2002 19.9053 51.0322 19.798 50.7802 19.714C50.5282 19.6207 50.1549 19.532 49.6602 19.448C48.9229 19.308 48.3442 19.1447 47.9242 18.958C47.5042 18.7713 47.2055 18.5333 47.0282 18.244C46.8509 17.9547 46.7622 17.6047 46.7622 17.194C46.7622 16.5127 47.0142 15.9573 47.5182 15.528C48.0315 15.0987 48.7689 14.884 49.7302 14.884C50.3742 14.884 50.9155 14.996 51.3542 15.22C51.7929 15.4347 52.1335 15.7287 52.3762 16.102C52.6282 16.466 52.7869 16.8767 52.8522 17.334L51.3262 17.418C51.2795 17.1567 51.1862 16.9327 51.0462 16.746C50.9155 16.55 50.7382 16.4007 50.5142 16.298C50.2902 16.186 50.0242 16.13 49.7162 16.13C49.2402 16.13 48.8855 16.2233 48.6522 16.41C48.4189 16.5967 48.3022 16.8393 48.3022 17.138C48.3022 17.362 48.3535 17.544 48.4562 17.684C48.5682 17.824 48.7455 17.9407 48.9882 18.034C49.2309 18.118 49.5529 18.1927 49.9542 18.258C50.7289 18.3887 51.3355 18.552 51.7742 18.748C52.2129 18.9347 52.5209 19.168 52.6982 19.448C52.8755 19.728 52.9642 20.0687 52.9642 20.47C52.9642 20.9367 52.8335 21.3333 52.5722 21.66C52.3109 21.9867 51.9515 22.2387 51.4942 22.416C51.0369 22.584 50.5095 22.668 49.9122 22.668ZM60.737 22.724C59.7197 22.724 58.9264 22.4953 58.357 22.038C57.7877 21.5713 57.503 20.9133 57.503 20.064C57.503 19.6347 57.5637 19.252 57.685 18.916C57.8157 18.58 58.0257 18.2627 58.315 17.964C58.6044 17.656 58.9964 17.3387 59.491 17.012C59.2764 16.7413 59.0944 16.4893 58.945 16.256C58.7957 16.0133 58.679 15.7707 58.595 15.528C58.5204 15.276 58.483 15.0053 58.483 14.716C58.483 13.9787 58.7117 13.4 59.169 12.98C59.6357 12.5507 60.2797 12.336 61.101 12.336C61.6517 12.336 62.1184 12.4293 62.501 12.616C62.8837 12.7933 63.173 13.05 63.369 13.386C63.565 13.7127 63.663 14.1 63.663 14.548C63.663 15.0987 63.495 15.584 63.159 16.004C62.8324 16.424 62.3004 16.8673 61.563 17.334L63.593 19.91C63.901 19.49 64.055 18.8553 64.055 18.006L65.553 18.146C65.5344 18.6967 65.4317 19.2287 65.245 19.742C65.0677 20.2553 64.8344 20.68 64.545 21.016L65.791 22.5H64.027L63.565 21.94C63.285 22.1733 62.9024 22.36 62.417 22.5C61.941 22.6493 61.381 22.724 60.737 22.724ZM60.891 21.366C61.311 21.366 61.661 21.3193 61.941 21.226C62.221 21.1327 62.4357 21.0113 62.585 20.862L60.331 18.048C59.883 18.356 59.561 18.6593 59.365 18.958C59.169 19.2473 59.071 19.588 59.071 19.98C59.071 20.4 59.2157 20.736 59.505 20.988C59.8037 21.24 60.2657 21.366 60.891 21.366ZM60.779 16.354C61.0964 16.158 61.353 15.976 61.549 15.808C61.745 15.6307 61.885 15.4487 61.969 15.262C62.053 15.0753 62.095 14.8747 62.095 14.66C62.095 14.3613 62.0064 14.1327 61.829 13.974C61.661 13.806 61.423 13.722 61.115 13.722C60.779 13.722 60.513 13.8107 60.317 13.988C60.1304 14.1653 60.037 14.4173 60.037 14.744C60.037 14.912 60.0604 15.08 60.107 15.248C60.1537 15.4067 60.2284 15.5747 60.331 15.752C60.443 15.9293 60.5924 16.13 60.779 16.354ZM19.152 42.724C18.256 42.724 17.4673 42.5187 16.786 42.108C16.1047 41.688 15.5727 41.0907 15.19 40.316C14.8073 39.5413 14.616 38.6173 14.616 37.544C14.616 36.48 14.8027 35.5607 15.176 34.786C15.5587 34.002 16.0907 33.4 16.772 32.98C17.4533 32.5507 18.2513 32.336 19.166 32.336C20.398 32.336 21.3547 32.644 22.036 33.26C22.7173 33.876 23.1607 34.73 23.366 35.822L21.784 35.906C21.6533 35.2247 21.3733 34.6927 20.944 34.31C20.5147 33.918 19.922 33.722 19.166 33.722C18.5593 33.722 18.032 33.876 17.584 34.184C17.1453 34.492 16.8 34.9307 16.548 35.5C16.3053 36.0693 16.184 36.7507 16.184 37.544C16.184 38.3373 16.3053 39.0187 16.548 39.588C16.8 40.1573 17.15 40.5913 17.598 40.89C18.046 41.1887 18.564 41.338 19.152 41.338C19.9547 41.338 20.5753 41.128 21.014 40.708C21.462 40.2787 21.742 39.6907 21.854 38.944L23.436 39.028C23.3147 39.784 23.072 40.4373 22.708 40.988C22.344 41.5387 21.8633 41.968 21.266 42.276C20.6687 42.5747 19.964 42.724 19.152 42.724ZM27.9871 42.668C27.2778 42.668 26.6571 42.5093 26.1251 42.192C25.5931 41.8747 25.1824 41.422 24.8931 40.834C24.6038 40.246 24.4591 39.56 24.4591 38.776C24.4591 37.9827 24.6038 37.2967 24.8931 36.718C25.1824 36.1393 25.5931 35.6913 26.1251 35.374C26.6571 35.0473 27.2778 34.884 27.9871 34.884C28.6964 34.884 29.3171 35.0473 29.8491 35.374C30.3811 35.6913 30.7918 36.1393 31.0811 36.718C31.3704 37.2967 31.5151 37.9827 31.5151 38.776C31.5151 39.56 31.3704 40.246 31.0811 40.834C30.7918 41.422 30.3811 41.8747 29.8491 42.192C29.3171 42.5093 28.6964 42.668 27.9871 42.668ZM27.9871 41.38C28.6218 41.38 29.1118 41.1513 29.4571 40.694C29.8024 40.2273 29.9751 39.588 29.9751 38.776C29.9751 37.964 29.8024 37.3293 29.4571 36.872C29.1118 36.4053 28.6218 36.172 27.9871 36.172C27.3618 36.172 26.8718 36.4053 26.5171 36.872C26.1718 37.3293 25.9991 37.964 25.9991 38.776C25.9991 39.588 26.1718 40.2273 26.5171 40.694C26.8718 41.1513 27.3618 41.38 27.9871 41.38ZM33.0148 42.5V35.052H34.3728L34.4288 37.04L34.2468 36.942C34.3308 36.4567 34.4895 36.0647 34.7228 35.766C34.9562 35.4673 35.2408 35.248 35.5768 35.108C35.9128 34.9587 36.2768 34.884 36.6688 34.884C37.2288 34.884 37.6908 35.01 38.0548 35.262C38.4282 35.5047 38.7082 35.8407 38.8948 36.27C39.0908 36.69 39.1888 37.1707 39.1888 37.712V42.5H37.7048V38.16C37.7048 37.7213 37.6582 37.3527 37.5648 37.054C37.4715 36.7553 37.3175 36.5267 37.1028 36.368C36.8882 36.2093 36.6082 36.13 36.2628 36.13C35.7402 36.13 35.3155 36.3027 34.9888 36.648C34.6622 36.9933 34.4988 37.4973 34.4988 38.16V42.5H33.0148ZM43.7683 42.668C43.1336 42.668 42.5783 42.5093 42.1023 42.192C41.6356 41.8747 41.2763 41.4267 41.0243 40.848C40.7816 40.26 40.6603 39.5693 40.6603 38.776C40.6603 37.9827 40.7863 37.2967 41.0383 36.718C41.2903 36.13 41.6496 35.6773 42.1163 35.36C42.5829 35.0427 43.1336 34.884 43.7683 34.884C44.2816 34.884 44.7389 34.9913 45.1403 35.206C45.5416 35.4207 45.8449 35.7193 46.0503 36.102V32.56H47.5343V42.5H46.1483L46.1063 41.38C45.9009 41.7813 45.5883 42.0987 45.1683 42.332C44.7576 42.556 44.2909 42.668 43.7683 42.668ZM44.1603 41.38C44.5616 41.38 44.9023 41.2773 45.1823 41.072C45.4623 40.8667 45.6769 40.568 45.8263 40.176C45.9756 39.784 46.0503 39.3173 46.0503 38.776C46.0503 38.216 45.9756 37.7447 45.8263 37.362C45.6769 36.97 45.4623 36.676 45.1823 36.48C44.9023 36.2747 44.5616 36.172 44.1603 36.172C43.5629 36.172 43.0869 36.4053 42.7323 36.872C42.3776 37.3293 42.2003 37.964 42.2003 38.776C42.2003 39.5787 42.3776 40.2133 42.7323 40.68C43.0869 41.1467 43.5629 41.38 44.1603 41.38ZM49.3938 42.5V35.052H50.8778V42.5H49.3938ZM49.3658 33.974V32.49H50.9058V33.974H49.3658ZM55.3259 42.5C54.6166 42.5 54.0939 42.3367 53.7579 42.01C53.4219 41.6833 53.2539 41.1747 53.2539 40.484V33.302H54.7379V40.372C54.7379 40.7173 54.8126 40.9553 54.9619 41.086C55.1113 41.2167 55.3399 41.282 55.6479 41.282H56.7119V42.5H55.3259ZM52.1199 36.27V35.052H56.7119V36.27H52.1199ZM58.1301 42.5V35.052H59.6141V42.5H58.1301ZM58.1021 33.974V32.49H59.6421V33.974H58.1021ZM64.6414 42.668C63.9321 42.668 63.3114 42.5093 62.7794 42.192C62.2474 41.8747 61.8367 41.422 61.5474 40.834C61.2581 40.246 61.1134 39.56 61.1134 38.776C61.1134 37.9827 61.2581 37.2967 61.5474 36.718C61.8367 36.1393 62.2474 35.6913 62.7794 35.374C63.3114 35.0473 63.9321 34.884 64.6414 34.884C65.3507 34.884 65.9714 35.0473 66.5034 35.374C67.0354 35.6913 67.4461 36.1393 67.7354 36.718C68.0247 37.2967 68.1694 37.9827 68.1694 38.776C68.1694 39.56 68.0247 40.246 67.7354 40.834C67.4461 41.422 67.0354 41.8747 66.5034 42.192C65.9714 42.5093 65.3507 42.668 64.6414 42.668ZM64.6414 41.38C65.2761 41.38 65.7661 41.1513 66.1114 40.694C66.4567 40.2273 66.6294 39.588 66.6294 38.776C66.6294 37.964 66.4567 37.3293 66.1114 36.872C65.7661 36.4053 65.2761 36.172 64.6414 36.172C64.0161 36.172 63.5261 36.4053 63.1714 36.872C62.8261 37.3293 62.6534 37.964 62.6534 38.776C62.6534 39.588 62.8261 40.2273 63.1714 40.694C63.5261 41.1513 64.0161 41.38 64.6414 41.38ZM69.6691 42.5V35.052H71.0271L71.0831 37.04L70.9011 36.942C70.9851 36.4567 71.1438 36.0647 71.3771 35.766C71.6105 35.4673 71.8951 35.248 72.2311 35.108C72.5671 34.9587 72.9311 34.884 73.3231 34.884C73.8831 34.884 74.3451 35.01 74.7091 35.262C75.0825 35.5047 75.3625 35.8407 75.5491 36.27C75.7451 36.69 75.8431 37.1707 75.8431 37.712V42.5H74.3591V38.16C74.3591 37.7213 74.3125 37.3527 74.2191 37.054C74.1258 36.7553 73.9718 36.5267 73.7571 36.368C73.5425 36.2093 73.2625 36.13 72.9171 36.13C72.3945 36.13 71.9698 36.3027 71.6431 36.648C71.3165 36.9933 71.1531 37.4973 71.1531 38.16V42.5H69.6691ZM80.6466 42.668C79.9466 42.668 79.3539 42.5607 78.8686 42.346C78.3926 42.1313 78.0239 41.8373 77.7626 41.464C77.5012 41.0813 77.3519 40.6427 77.3146 40.148L78.8406 40.078C78.9152 40.4887 79.0926 40.8153 79.3726 41.058C79.6526 41.3007 80.0772 41.422 80.6466 41.422C81.1132 41.422 81.4819 41.3473 81.7526 41.198C82.0232 41.0487 82.1586 40.8107 82.1586 40.484C82.1586 40.3067 82.1119 40.1573 82.0186 40.036C81.9346 39.9053 81.7666 39.798 81.5146 39.714C81.2626 39.6207 80.8892 39.532 80.3946 39.448C79.6572 39.308 79.0786 39.1447 78.6586 38.958C78.2386 38.7713 77.9399 38.5333 77.7626 38.244C77.5852 37.9547 77.4966 37.6047 77.4966 37.194C77.4966 36.5127 77.7486 35.9573 78.2526 35.528C78.7659 35.0987 79.5032 34.884 80.4646 34.884C81.1086 34.884 81.6499 34.996 82.0886 35.22C82.5272 35.4347 82.8679 35.7287 83.1106 36.102C83.3626 36.466 83.5212 36.8767 83.5866 37.334L82.0606 37.418C82.0139 37.1567 81.9206 36.9327 81.7806 36.746C81.6499 36.55 81.4726 36.4007 81.2486 36.298C81.0246 36.186 80.7586 36.13 80.4506 36.13C79.9746 36.13 79.6199 36.2233 79.3866 36.41C79.1532 36.5967 79.0366 36.8393 79.0366 37.138C79.0366 37.362 79.0879 37.544 79.1906 37.684C79.3026 37.824 79.4799 37.9407 79.7226 38.034C79.9652 38.118 80.2872 38.1927 80.6886 38.258C81.4632 38.3887 82.0699 38.552 82.5086 38.748C82.9472 38.9347 83.2552 39.168 83.4326 39.448C83.6099 39.728 83.6986 40.0687 83.6986 40.47C83.6986 40.9367 83.5679 41.3333 83.3066 41.66C83.0452 41.9867 82.6859 42.2387 82.2286 42.416C81.7712 42.584 81.2439 42.668 80.6466 42.668Z" fill="#171C22"/>
<ellipse cx="140.285" cy="27.7252" rx="47.7252" ry="47.7849" transform="rotate(90 140.285 27.7252)" fill="#F0EAFB"/>
<ellipse cx="140.285" cy="26.4863" rx="33.4697" ry="33.5115" transform="rotate(90 140.285 26.4863)" fill="#E2D5F6"/>
<ellipse cx="139.352" cy="25.5164" rx="19.2547" ry="19.2307" transform="rotate(180 139.352 25.5164)" fill="#8A57DC"/>
<path d="M145.25 18.5H132.75C132.418 18.5 132.101 18.6317 131.866 18.8661C131.632 19.1006 131.5 19.4185 131.5 19.75V32.25C131.5 32.5816 131.632 32.8995 131.866 33.1339C132.101 33.3683 132.418 33.5 132.75 33.5H141.241C141.406 33.5003 141.568 33.4681 141.72 33.4052C141.871 33.3423 142.009 33.25 142.125 33.1336L146.134 29.125C146.25 29.0092 146.342 28.8715 146.405 28.7199C146.468 28.5682 146.5 28.4056 146.5 28.2414V19.75C146.5 19.4185 146.368 19.1006 146.134 18.8661C145.899 18.6317 145.582 18.5 145.25 18.5ZM136.5 22.875H141.5C141.666 22.875 141.825 22.9409 141.942 23.0581C142.059 23.1753 142.125 23.3343 142.125 23.5C142.125 23.6658 142.059 23.8248 141.942 23.942C141.825 24.0592 141.666 24.125 141.5 24.125H136.5C136.334 24.125 136.175 24.0592 136.058 23.942C135.941 23.8248 135.875 23.6658 135.875 23.5C135.875 23.3343 135.941 23.1753 136.058 23.0581C136.175 22.9409 136.334 22.875 136.5 22.875ZM139 29.125H136.5C136.334 29.125 136.175 29.0592 136.058 28.942C135.941 28.8248 135.875 28.6658 135.875 28.5C135.875 28.3343 135.941 28.1753 136.058 28.0581C136.175 27.9409 136.334 27.875 136.5 27.875H139C139.166 27.875 139.325 27.9409 139.442 28.0581C139.559 28.1753 139.625 28.3343 139.625 28.5C139.625 28.6658 139.559 28.8248 139.442 28.942C139.325 29.0592 139.166 29.125 139 29.125ZM136.5 26.625C136.334 26.625 136.175 26.5592 136.058 26.442C135.941 26.3248 135.875 26.1658 135.875 26C135.875 25.8343 135.941 25.6753 136.058 25.5581C136.175 25.4409 136.334 25.375 136.5 25.375H141.5C141.666 25.375 141.825 25.4409 141.942 25.5581C142.059 25.6753 142.125 25.8343 142.125 26C142.125 26.1658 142.059 26.3248 141.942 26.442C141.825 26.5592 141.666 26.625 141.5 26.625H136.5ZM141.5 31.9914V28.5H144.992L141.5 31.9914Z" fill="white"/>
</g>
<path d="M0.25 15.28C0.25 11.8512 0.250442 9.30255 0.492855 7.32813C0.734538 5.35966 1.21346 3.99596 2.14657 2.92065C2.38602 2.6447 2.6447 2.38602 2.92065 2.14657C3.99596 1.21346 5.35966 0.734538 7.32813 0.492855C9.30255 0.250442 11.8512 0.25 15.28 0.25H146.22C149.649 0.25 152.197 0.250442 154.172 0.492855C156.14 0.734538 157.504 1.21346 158.579 2.14657C158.855 2.38603 159.114 2.6447 159.353 2.92065C160.287 3.99596 160.765 5.35966 161.007 7.32813C161.25 9.30255 161.25 11.8512 161.25 15.28V39.72C161.25 43.1488 161.25 45.6975 161.007 47.6719C160.765 49.6403 160.287 51.004 159.353 52.0794C159.114 52.3553 158.855 52.614 158.579 52.8534C157.504 53.7865 156.14 54.2655 154.172 54.5071C152.197 54.7496 149.649 54.75 146.22 54.75H15.28C11.8512 54.75 9.30255 54.7496 7.32813 54.5071C5.35966 54.2655 3.99596 53.7865 2.92065 52.8534C2.6447 52.614 2.38602 52.3553 2.14657 52.0794C1.21346 51.004 0.734538 49.6403 0.492855 47.6719C0.250442 45.6974 0.25 43.1488 0.25 39.72V15.28Z" stroke="#F0EAFB" stroke-width="0.5"/>
<defs>
<clipPath id="clip0_1302_32051">
<path d="M0 15.28C0 8.43527 0 5.0129 1.95775 2.7568C2.20493 2.47195 2.47195 2.20493 2.7568 1.95775C5.0129 0 8.43527 0 15.28 0H146.22C153.065 0 156.487 0 158.743 1.95775C159.028 2.20493 159.295 2.47195 159.542 2.7568C161.5 5.0129 161.5 8.43527 161.5 15.28V39.72C161.5 46.5647 161.5 49.9871 159.542 52.2432C159.295 52.5281 159.028 52.7951 158.743 53.0423C156.487 55 153.065 55 146.22 55H15.28C8.43527 55 5.0129 55 2.7568 53.0423C2.47195 52.7951 2.20493 52.5281 1.95775 52.2432C0 49.9871 0 46.5647 0 39.72V15.28Z" fill="white"/>
</clipPath>
</defs>
</svg>
