<svg width="334" height="55" viewBox="0 0 334 55" fill="none" xmlns="http://www.w3.org/2000/svg">
<g clip-path="url(#clip0_1302_35295)">
<path d="M0 15.28C0 8.43527 0 5.0129 1.95775 2.7568C2.20493 2.47195 2.47195 2.20493 2.7568 1.95775C5.0129 0 8.43527 0 15.28 0H318.72C325.565 0 328.987 0 331.243 1.95775C331.528 2.20493 331.795 2.47195 332.042 2.7568C334 5.0129 334 8.43527 334 15.28V39.72C334 46.5647 334 49.9871 332.042 52.2432C331.795 52.5281 331.528 52.7951 331.243 53.0423C328.987 55 325.565 55 318.72 55H15.28C8.43526 55 5.0129 55 2.7568 53.0423C2.47195 52.7951 2.20493 52.5281 1.95775 52.2432C0 49.9871 0 46.5647 0 39.72V15.28Z" fill="#F9F6FF"/>
<path d="M27.22 22.5V13.946H24.168V12.56H31.784V13.946H28.732V22.5H27.22ZM34.9519 22.668C34.2239 22.668 33.5939 22.5093 33.0619 22.192C32.5393 21.8747 32.1333 21.422 31.8439 20.834C31.5639 20.246 31.4239 19.56 31.4239 18.776C31.4239 17.992 31.5639 17.3107 31.8439 16.732C32.1333 16.144 32.5393 15.6913 33.0619 15.374C33.5846 15.0473 34.2006 14.884 34.9099 14.884C35.5819 14.884 36.1746 15.0427 36.6879 15.36C37.2013 15.668 37.5979 16.116 37.8779 16.704C38.1673 17.292 38.3119 18.0013 38.3119 18.832V19.21H32.9639C33.0013 19.938 33.1926 20.484 33.5379 20.848C33.8926 21.212 34.3686 21.394 34.9659 21.394C35.4046 21.394 35.7686 21.2913 36.0579 21.086C36.3473 20.8807 36.5479 20.6053 36.6599 20.26L38.1999 20.358C38.0039 21.0487 37.6166 21.6087 37.0379 22.038C36.4686 22.458 35.7733 22.668 34.9519 22.668ZM32.9639 18.09H36.7439C36.6973 17.4273 36.5059 16.9373 36.1699 16.62C35.8433 16.3027 35.4233 16.144 34.9099 16.144C34.3779 16.144 33.9393 16.312 33.5939 16.648C33.2579 16.9747 33.0479 17.4553 32.9639 18.09ZM39.8156 22.5V15.052H41.1736L41.2296 17.026L41.1036 16.984C41.2063 16.312 41.4116 15.822 41.7196 15.514C42.037 15.206 42.4616 15.052 42.9936 15.052H43.7076V16.382H42.9936C42.6203 16.382 42.3076 16.4427 42.0556 16.564C41.8036 16.6853 41.6123 16.872 41.4816 17.124C41.3603 17.376 41.2996 17.7027 41.2996 18.104V22.5H39.8156ZM44.8195 22.5V15.052H46.1775L46.2195 16.9L46.0515 16.844C46.1355 16.4333 46.2802 16.0833 46.4855 15.794C46.7002 15.5047 46.9615 15.2807 47.2695 15.122C47.5775 14.9633 47.9135 14.884 48.2775 14.884C48.9122 14.884 49.4302 15.066 49.8315 15.43C50.2329 15.7847 50.4849 16.2747 50.5875 16.9H50.3495C50.4335 16.4613 50.5735 16.0973 50.7695 15.808C50.9749 15.5093 51.2362 15.2807 51.5535 15.122C51.8709 14.9633 52.2302 14.884 52.6315 14.884C53.1542 14.884 53.5975 14.996 53.9615 15.22C54.3349 15.4347 54.6149 15.752 54.8015 16.172C54.9975 16.592 55.0955 17.1053 55.0955 17.712V22.5H53.6115V18.076C53.6115 17.432 53.4949 16.9467 53.2615 16.62C53.0282 16.2933 52.6735 16.13 52.1975 16.13C51.8895 16.13 51.6189 16.2093 51.3855 16.368C51.1522 16.5267 50.9702 16.7553 50.8395 17.054C50.7182 17.3527 50.6575 17.712 50.6575 18.132V22.5H49.2435V18.132C49.2435 17.4973 49.1362 17.0073 48.9215 16.662C48.7162 16.3073 48.3615 16.13 47.8575 16.13C47.5402 16.13 47.2649 16.2093 47.0315 16.368C46.8075 16.5267 46.6302 16.76 46.4995 17.068C46.3689 17.3667 46.3035 17.7213 46.3035 18.132V22.5H44.8195ZM59.9122 22.668C59.2122 22.668 58.6195 22.5607 58.1342 22.346C57.6582 22.1313 57.2895 21.8373 57.0282 21.464C56.7669 21.0813 56.6175 20.6427 56.5802 20.148L58.1062 20.078C58.1809 20.4887 58.3582 20.8153 58.6382 21.058C58.9182 21.3007 59.3429 21.422 59.9122 21.422C60.3789 21.422 60.7475 21.3473 61.0182 21.198C61.2889 21.0487 61.4242 20.8107 61.4242 20.484C61.4242 20.3067 61.3775 20.1573 61.2842 20.036C61.2002 19.9053 61.0322 19.798 60.7802 19.714C60.5282 19.6207 60.1549 19.532 59.6602 19.448C58.9229 19.308 58.3442 19.1447 57.9242 18.958C57.5042 18.7713 57.2055 18.5333 57.0282 18.244C56.8509 17.9547 56.7622 17.6047 56.7622 17.194C56.7622 16.5127 57.0142 15.9573 57.5182 15.528C58.0315 15.0987 58.7689 14.884 59.7302 14.884C60.3742 14.884 60.9155 14.996 61.3542 15.22C61.7929 15.4347 62.1335 15.7287 62.3762 16.102C62.6282 16.466 62.7869 16.8767 62.8522 17.334L61.3262 17.418C61.2795 17.1567 61.1862 16.9327 61.0462 16.746C60.9155 16.55 60.7382 16.4007 60.5142 16.298C60.2902 16.186 60.0242 16.13 59.7162 16.13C59.2402 16.13 58.8855 16.2233 58.6522 16.41C58.4189 16.5967 58.3022 16.8393 58.3022 17.138C58.3022 17.362 58.3535 17.544 58.4562 17.684C58.5682 17.824 58.7455 17.9407 58.9882 18.034C59.2309 18.118 59.5529 18.1927 59.9542 18.258C60.7289 18.3887 61.3355 18.552 61.7742 18.748C62.2129 18.9347 62.5209 19.168 62.6982 19.448C62.8755 19.728 62.9642 20.0687 62.9642 20.47C62.9642 20.9367 62.8335 21.3333 62.5722 21.66C62.3109 21.9867 61.9515 22.2387 61.4942 22.416C61.0369 22.584 60.5095 22.668 59.9122 22.668ZM70.737 22.724C69.7197 22.724 68.9264 22.4953 68.357 22.038C67.7877 21.5713 67.503 20.9133 67.503 20.064C67.503 19.6347 67.5637 19.252 67.685 18.916C67.8157 18.58 68.0257 18.2627 68.315 17.964C68.6044 17.656 68.9964 17.3387 69.491 17.012C69.2764 16.7413 69.0944 16.4893 68.945 16.256C68.7957 16.0133 68.679 15.7707 68.595 15.528C68.5204 15.276 68.483 15.0053 68.483 14.716C68.483 13.9787 68.7117 13.4 69.169 12.98C69.6357 12.5507 70.2797 12.336 71.101 12.336C71.6517 12.336 72.1184 12.4293 72.501 12.616C72.8837 12.7933 73.173 13.05 73.369 13.386C73.565 13.7127 73.663 14.1 73.663 14.548C73.663 15.0987 73.495 15.584 73.159 16.004C72.8324 16.424 72.3004 16.8673 71.563 17.334L73.593 19.91C73.901 19.49 74.055 18.8553 74.055 18.006L75.553 18.146C75.5344 18.6967 75.4317 19.2287 75.245 19.742C75.0677 20.2553 74.8344 20.68 74.545 21.016L75.791 22.5H74.027L73.565 21.94C73.285 22.1733 72.9024 22.36 72.417 22.5C71.941 22.6493 71.381 22.724 70.737 22.724ZM70.891 21.366C71.311 21.366 71.661 21.3193 71.941 21.226C72.221 21.1327 72.4357 21.0113 72.585 20.862L70.331 18.048C69.883 18.356 69.561 18.6593 69.365 18.958C69.169 19.2473 69.071 19.588 69.071 19.98C69.071 20.4 69.2157 20.736 69.505 20.988C69.8037 21.24 70.2657 21.366 70.891 21.366ZM70.779 16.354C71.0964 16.158 71.353 15.976 71.549 15.808C71.745 15.6307 71.885 15.4487 71.969 15.262C72.053 15.0753 72.095 14.8747 72.095 14.66C72.095 14.3613 72.0064 14.1327 71.829 13.974C71.661 13.806 71.423 13.722 71.115 13.722C70.779 13.722 70.513 13.8107 70.317 13.988C70.1304 14.1653 70.037 14.4173 70.037 14.744C70.037 14.912 70.0604 15.08 70.107 15.248C70.1537 15.4067 70.2284 15.5747 70.331 15.752C70.443 15.9293 70.5924 16.13 70.779 16.354ZM29.152 42.724C28.256 42.724 27.4673 42.5187 26.786 42.108C26.1047 41.688 25.5727 41.0907 25.19 40.316C24.8073 39.5413 24.616 38.6173 24.616 37.544C24.616 36.48 24.8027 35.5607 25.176 34.786C25.5587 34.002 26.0907 33.4 26.772 32.98C27.4533 32.5507 28.2513 32.336 29.166 32.336C30.398 32.336 31.3547 32.644 32.036 33.26C32.7173 33.876 33.1607 34.73 33.366 35.822L31.784 35.906C31.6533 35.2247 31.3733 34.6927 30.944 34.31C30.5147 33.918 29.922 33.722 29.166 33.722C28.5593 33.722 28.032 33.876 27.584 34.184C27.1453 34.492 26.8 34.9307 26.548 35.5C26.3053 36.0693 26.184 36.7507 26.184 37.544C26.184 38.3373 26.3053 39.0187 26.548 39.588C26.8 40.1573 27.15 40.5913 27.598 40.89C28.046 41.1887 28.564 41.338 29.152 41.338C29.9547 41.338 30.5753 41.128 31.014 40.708C31.462 40.2787 31.742 39.6907 31.854 38.944L33.436 39.028C33.3147 39.784 33.072 40.4373 32.708 40.988C32.344 41.5387 31.8633 41.968 31.266 42.276C30.6687 42.5747 29.964 42.724 29.152 42.724ZM37.9871 42.668C37.2778 42.668 36.6571 42.5093 36.1251 42.192C35.5931 41.8747 35.1824 41.422 34.8931 40.834C34.6038 40.246 34.4591 39.56 34.4591 38.776C34.4591 37.9827 34.6038 37.2967 34.8931 36.718C35.1824 36.1393 35.5931 35.6913 36.1251 35.374C36.6571 35.0473 37.2778 34.884 37.9871 34.884C38.6964 34.884 39.3171 35.0473 39.8491 35.374C40.3811 35.6913 40.7918 36.1393 41.0811 36.718C41.3704 37.2967 41.5151 37.9827 41.5151 38.776C41.5151 39.56 41.3704 40.246 41.0811 40.834C40.7918 41.422 40.3811 41.8747 39.8491 42.192C39.3171 42.5093 38.6964 42.668 37.9871 42.668ZM37.9871 41.38C38.6218 41.38 39.1118 41.1513 39.4571 40.694C39.8024 40.2273 39.9751 39.588 39.9751 38.776C39.9751 37.964 39.8024 37.3293 39.4571 36.872C39.1118 36.4053 38.6218 36.172 37.9871 36.172C37.3618 36.172 36.8718 36.4053 36.5171 36.872C36.1718 37.3293 35.9991 37.964 35.9991 38.776C35.9991 39.588 36.1718 40.2273 36.5171 40.694C36.8718 41.1513 37.3618 41.38 37.9871 41.38ZM43.0148 42.5V35.052H44.3728L44.4288 37.04L44.2468 36.942C44.3308 36.4567 44.4895 36.0647 44.7228 35.766C44.9562 35.4673 45.2408 35.248 45.5768 35.108C45.9128 34.9587 46.2768 34.884 46.6688 34.884C47.2288 34.884 47.6908 35.01 48.0548 35.262C48.4282 35.5047 48.7082 35.8407 48.8948 36.27C49.0908 36.69 49.1888 37.1707 49.1888 37.712V42.5H47.7048V38.16C47.7048 37.7213 47.6582 37.3527 47.5648 37.054C47.4715 36.7553 47.3175 36.5267 47.1028 36.368C46.8882 36.2093 46.6082 36.13 46.2628 36.13C45.7402 36.13 45.3155 36.3027 44.9888 36.648C44.6622 36.9933 44.4988 37.4973 44.4988 38.16V42.5H43.0148ZM53.7683 42.668C53.1336 42.668 52.5783 42.5093 52.1023 42.192C51.6356 41.8747 51.2763 41.4267 51.0243 40.848C50.7816 40.26 50.6603 39.5693 50.6603 38.776C50.6603 37.9827 50.7863 37.2967 51.0383 36.718C51.2903 36.13 51.6496 35.6773 52.1163 35.36C52.5829 35.0427 53.1336 34.884 53.7683 34.884C54.2816 34.884 54.7389 34.9913 55.1403 35.206C55.5416 35.4207 55.8449 35.7193 56.0503 36.102V32.56H57.5343V42.5H56.1483L56.1063 41.38C55.9009 41.7813 55.5883 42.0987 55.1683 42.332C54.7576 42.556 54.2909 42.668 53.7683 42.668ZM54.1603 41.38C54.5616 41.38 54.9023 41.2773 55.1823 41.072C55.4623 40.8667 55.6769 40.568 55.8263 40.176C55.9756 39.784 56.0503 39.3173 56.0503 38.776C56.0503 38.216 55.9756 37.7447 55.8263 37.362C55.6769 36.97 55.4623 36.676 55.1823 36.48C54.9023 36.2747 54.5616 36.172 54.1603 36.172C53.5629 36.172 53.0869 36.4053 52.7323 36.872C52.3776 37.3293 52.2003 37.964 52.2003 38.776C52.2003 39.5787 52.3776 40.2133 52.7323 40.68C53.0869 41.1467 53.5629 41.38 54.1603 41.38ZM59.3938 42.5V35.052H60.8778V42.5H59.3938ZM59.3658 33.974V32.49H60.9058V33.974H59.3658ZM65.3259 42.5C64.6166 42.5 64.0939 42.3367 63.7579 42.01C63.4219 41.6833 63.2539 41.1747 63.2539 40.484V33.302H64.7379V40.372C64.7379 40.7173 64.8126 40.9553 64.9619 41.086C65.1113 41.2167 65.3399 41.282 65.6479 41.282H66.7119V42.5H65.3259ZM62.1199 36.27V35.052H66.7119V36.27H62.1199ZM68.1301 42.5V35.052H69.6141V42.5H68.1301ZM68.1021 33.974V32.49H69.6421V33.974H68.1021ZM74.6414 42.668C73.9321 42.668 73.3114 42.5093 72.7794 42.192C72.2474 41.8747 71.8367 41.422 71.5474 40.834C71.2581 40.246 71.1134 39.56 71.1134 38.776C71.1134 37.9827 71.2581 37.2967 71.5474 36.718C71.8367 36.1393 72.2474 35.6913 72.7794 35.374C73.3114 35.0473 73.9321 34.884 74.6414 34.884C75.3507 34.884 75.9714 35.0473 76.5034 35.374C77.0354 35.6913 77.4461 36.1393 77.7354 36.718C78.0247 37.2967 78.1694 37.9827 78.1694 38.776C78.1694 39.56 78.0247 40.246 77.7354 40.834C77.4461 41.422 77.0354 41.8747 76.5034 42.192C75.9714 42.5093 75.3507 42.668 74.6414 42.668ZM74.6414 41.38C75.2761 41.38 75.7661 41.1513 76.1114 40.694C76.4567 40.2273 76.6294 39.588 76.6294 38.776C76.6294 37.964 76.4567 37.3293 76.1114 36.872C75.7661 36.4053 75.2761 36.172 74.6414 36.172C74.0161 36.172 73.5261 36.4053 73.1714 36.872C72.8261 37.3293 72.6534 37.964 72.6534 38.776C72.6534 39.588 72.8261 40.2273 73.1714 40.694C73.5261 41.1513 74.0161 41.38 74.6414 41.38ZM79.6691 42.5V35.052H81.0271L81.0831 37.04L80.9011 36.942C80.9851 36.4567 81.1438 36.0647 81.3771 35.766C81.6105 35.4673 81.8951 35.248 82.2311 35.108C82.5671 34.9587 82.9311 34.884 83.3231 34.884C83.8831 34.884 84.3451 35.01 84.7091 35.262C85.0825 35.5047 85.3625 35.8407 85.5491 36.27C85.7451 36.69 85.8431 37.1707 85.8431 37.712V42.5H84.3591V38.16C84.3591 37.7213 84.3125 37.3527 84.2191 37.054C84.1258 36.7553 83.9718 36.5267 83.7571 36.368C83.5425 36.2093 83.2625 36.13 82.9171 36.13C82.3945 36.13 81.9698 36.3027 81.6431 36.648C81.3165 36.9933 81.1531 37.4973 81.1531 38.16V42.5H79.6691ZM90.6466 42.668C89.9466 42.668 89.3539 42.5607 88.8686 42.346C88.3926 42.1313 88.0239 41.8373 87.7626 41.464C87.5012 41.0813 87.3519 40.6427 87.3146 40.148L88.8406 40.078C88.9152 40.4887 89.0926 40.8153 89.3726 41.058C89.6526 41.3007 90.0772 41.422 90.6466 41.422C91.1132 41.422 91.4819 41.3473 91.7526 41.198C92.0232 41.0487 92.1586 40.8107 92.1586 40.484C92.1586 40.3067 92.1119 40.1573 92.0186 40.036C91.9346 39.9053 91.7666 39.798 91.5146 39.714C91.2626 39.6207 90.8892 39.532 90.3946 39.448C89.6572 39.308 89.0786 39.1447 88.6586 38.958C88.2386 38.7713 87.9399 38.5333 87.7626 38.244C87.5852 37.9547 87.4966 37.6047 87.4966 37.194C87.4966 36.5127 87.7486 35.9573 88.2526 35.528C88.7659 35.0987 89.5032 34.884 90.4646 34.884C91.1086 34.884 91.6499 34.996 92.0886 35.22C92.5272 35.4347 92.8679 35.7287 93.1106 36.102C93.3626 36.466 93.5212 36.8767 93.5866 37.334L92.0606 37.418C92.0139 37.1567 91.9206 36.9327 91.7806 36.746C91.6499 36.55 91.4726 36.4007 91.2486 36.298C91.0246 36.186 90.7586 36.13 90.4506 36.13C89.9746 36.13 89.6199 36.2233 89.3866 36.41C89.1532 36.5967 89.0366 36.8393 89.0366 37.138C89.0366 37.362 89.0879 37.544 89.1906 37.684C89.3026 37.824 89.4799 37.9407 89.7226 38.034C89.9652 38.118 90.2872 38.1927 90.6886 38.258C91.4632 38.3887 92.0699 38.552 92.5086 38.748C92.9472 38.9347 93.2552 39.168 93.4326 39.448C93.6099 39.728 93.6986 40.0687 93.6986 40.47C93.6986 40.9367 93.5679 41.3333 93.3066 41.66C93.0452 41.9867 92.6859 42.2387 92.2286 42.416C91.7712 42.584 91.2439 42.668 90.6466 42.668Z" fill="#171C22"/>
<ellipse cx="312.785" cy="27.7252" rx="47.7252" ry="47.7849" transform="rotate(90 312.785 27.7252)" fill="#F0EAFB"/>
<ellipse cx="312.785" cy="26.4863" rx="33.4697" ry="33.5115" transform="rotate(90 312.785 26.4863)" fill="#E2D5F6"/>
<ellipse cx="311.852" cy="25.5164" rx="19.2547" ry="19.2307" transform="rotate(180 311.852 25.5164)" fill="#8A57DC"/>
<path d="M317.75 18.5H305.25C304.918 18.5 304.601 18.6317 304.366 18.8661C304.132 19.1005 304 19.4185 304 19.75V32.25C304 32.5815 304.132 32.8995 304.366 33.1339C304.601 33.3683 304.918 33.5 305.25 33.5H313.741C313.906 33.5003 314.068 33.468 314.22 33.4051C314.372 33.3423 314.509 33.25 314.625 33.1336L318.634 29.125C318.75 29.0092 318.842 28.8715 318.905 28.7198C318.968 28.5682 319 28.4056 319 28.2414V19.75C319 19.4185 318.868 19.1005 318.634 18.8661C318.399 18.6317 318.082 18.5 317.75 18.5ZM309 22.875H314C314.166 22.875 314.325 22.9408 314.442 23.0581C314.559 23.1753 314.625 23.3342 314.625 23.5C314.625 23.6658 314.559 23.8247 314.442 23.9419C314.325 24.0592 314.166 24.125 314 24.125H309C308.834 24.125 308.675 24.0592 308.558 23.9419C308.441 23.8247 308.375 23.6658 308.375 23.5C308.375 23.3342 308.441 23.1753 308.558 23.0581C308.675 22.9408 308.834 22.875 309 22.875ZM311.5 29.125H309C308.834 29.125 308.675 29.0592 308.558 28.9419C308.441 28.8247 308.375 28.6658 308.375 28.5C308.375 28.3342 308.441 28.1753 308.558 28.0581C308.675 27.9408 308.834 27.875 309 27.875H311.5C311.666 27.875 311.825 27.9408 311.942 28.0581C312.059 28.1753 312.125 28.3342 312.125 28.5C312.125 28.6658 312.059 28.8247 311.942 28.9419C311.825 29.0592 311.666 29.125 311.5 29.125ZM309 26.625C308.834 26.625 308.675 26.5592 308.558 26.4419C308.441 26.3247 308.375 26.1658 308.375 26C308.375 25.8342 308.441 25.6753 308.558 25.5581C308.675 25.4408 308.834 25.375 309 25.375H314C314.166 25.375 314.325 25.4408 314.442 25.5581C314.559 25.6753 314.625 25.8342 314.625 26C314.625 26.1658 314.559 26.3247 314.442 26.4419C314.325 26.5592 314.166 26.625 314 26.625H309ZM314 31.9914V28.5H317.492L314 31.9914Z" fill="white"/>
</g>
<path d="M15.2803 0.25H318.72C322.148 0.25 324.697 0.250751 326.672 0.493164C328.517 0.719721 329.831 1.15437 330.874 1.97656L331.079 2.14648C331.286 2.326 331.483 2.5165 331.67 2.7168L331.854 2.9209C332.787 3.99617 333.265 5.35978 333.507 7.32812C333.749 9.30255 333.75 11.8515 333.75 15.2803V39.7197C333.75 43.1485 333.749 45.6975 333.507 47.6719C333.28 49.5171 332.846 50.831 332.023 51.874L331.854 52.0791C331.674 52.286 331.484 52.4833 331.283 52.6699L331.079 52.8535C330.004 53.7865 328.64 54.2652 326.672 54.5068C324.697 54.7492 322.148 54.75 318.72 54.75H15.2803C11.8515 54.75 9.30255 54.7492 7.32812 54.5068C5.48289 54.2803 4.16898 53.8456 3.12598 53.0234L2.9209 52.8535C2.71402 52.674 2.51672 52.4835 2.33008 52.2832L2.14648 52.0791C1.21349 51.0038 0.734835 49.6402 0.493164 47.6719C0.250751 45.6975 0.25 43.1485 0.25 39.7197V15.2803C0.25 11.8515 0.250751 9.30255 0.493164 7.32812C0.719721 5.48289 1.15437 4.16898 1.97656 3.12598L2.14648 2.9209C2.326 2.71402 2.5165 2.51672 2.7168 2.33008L2.9209 2.14648C3.99617 1.21349 5.35979 0.734835 7.32812 0.493164C9.30255 0.250751 11.8515 0.25 15.2803 0.25Z" stroke="#F0EAFB" stroke-width="0.5"/>
<defs>
<clipPath id="clip0_1302_35295">
<path d="M0 15.28C0 8.43527 0 5.0129 1.95775 2.7568C2.20493 2.47195 2.47195 2.20493 2.7568 1.95775C5.0129 0 8.43527 0 15.28 0H318.72C325.565 0 328.987 0 331.243 1.95775C331.528 2.20493 331.795 2.47195 332.042 2.7568C334 5.0129 334 8.43527 334 15.28V39.72C334 46.5647 334 49.9871 332.042 52.2432C331.795 52.5281 331.528 52.7951 331.243 53.0423C328.987 55 325.565 55 318.72 55H15.28C8.43526 55 5.0129 55 2.7568 53.0423C2.47195 52.7951 2.20493 52.5281 1.95775 52.2432C0 49.9871 0 46.5647 0 39.72V15.28Z" fill="white"/>
</clipPath>
</defs>
</svg>
