<svg xmlns="http://www.w3.org/2000/svg" width="292" height="292" fill="none" xmlns:v="https://vecta.io/nano"><g clip-path="url(#C)"><rect x="6" y="6" width="280" height="280" rx="140" fill="#f9f6ff"/><g stroke="#e2d5f6"><path d="M277.527 145.5c0 17.338-3.415 34.506-10.05 50.524a132.02 132.02 0 0 1-71.453 71.453c-16.018 6.635-33.186 10.05-50.524 10.05s-34.506-3.415-50.524-10.05-30.573-16.36-42.832-28.62a132.02 132.02 0 0 1-28.62-42.833c-6.635-16.018-10.05-33.186-10.05-50.524s3.415-34.506 10.05-50.524 16.36-30.573 28.62-42.832 26.814-21.985 42.833-28.62a132.03 132.03 0 0 1 50.524-10.05c17.338 0 34.506 3.415 50.524 10.05a132.02 132.02 0 0 1 42.833 28.62c12.26 12.26 21.985 26.814 28.62 42.833s10.05 33.186 10.05 50.524h0z" stroke-width="14.946" stroke-dasharray="2.99 99.64"/><path d="M280.018 145.5c0 17.665-3.48 35.157-10.24 51.478s-16.668 31.149-29.16 43.64-27.32 22.4-43.64 29.16-33.813 10.24-51.478 10.24-35.157-3.48-51.478-10.24a134.5 134.5 0 0 1-43.641-29.16A134.52 134.52 0 0 1 10.982 145.5a134.52 134.52 0 0 1 39.399-95.118A134.52 134.52 0 0 1 145.5 10.982c17.665 0 35.157 3.48 51.478 10.24s31.149 16.669 43.641 29.16 22.399 27.32 29.159 43.641a134.52 134.52 0 0 1 10.24 51.478h0z" stroke-width="9.964" stroke-dasharray="1.99 29.89"/></g><g filter="url(#A)"><rect x="60" y="60" width="172" height="172" rx="86" fill="#f0eafb"/><g clip-path="url(#D)"><rect x="100.133" y="100.133" width="91.733" height="91.733" rx="45.867" fill="#fff"/><g clip-path="url(#E)"><rect x="100.133" y="100.133" width="91.733" height="91.733" rx="45.867" fill="url(#B)"/><g clip-path="url(#F)"><rect x="99.988" y="100.133" width="91.733" height="91.733" rx="25.36" fill="#6d2dd3"/><g clip-path="url(#G)"><path d="M82.648 87.858l5.87 5.782 2.974 2.698c.254.221.232.376.1.619l-1.072 1.968c-.719 1.25-1.271 2.587-2.288 3.66-.243.254-.077.431.21.53 2.09.763 3.825 2.167 5.738 3.251.1.055.166.287.133.409l-1.879 6.158-1.625 5.903c-.077.288-.022.453.298.531l2.51.663 4.533 1.183 5.119 1.128c.299.066.387.221.387.508v2.3l-.111 4.134c-.022.443.089.52.487.465l2.067-.177 3.847.077c.863.011.852.011 1.051.852l1.525 6.29 1.382 5.318c.078.287.188.486.531.387l1.349-.398 5.251-1.46 5.373-1.625c.298-.099.442-.077.586.188 1.05 1.913 2.454 3.626 3.184 5.716.11.298.309.354.564.132.11-.088.199-.188.32-.265l5.351-3.095c.111-.056.387.033.486.143l2.422 2.654 6.036 6.124c.497.509.497.509 1.017-.022l5.483-5.572 2.853-3.117c.265-.31.453-.365.762-.155.111.077.244.121.365.199 1.714 1.039 3.637 1.758 5.163 3.117.254.222.442.111.553-.187.752-2.101 2.156-3.837 3.239-5.749.055-.1.288-.188.398-.155l6.412 1.935 5.263 1.426c.807.221.796.221.995-.553l1.68-6.368 1.238-5.406a.57.57 0 0 1 .387-.343l2.863-.066 3.726.166c.332.022.509-.066.409-.453-.066-.233-.122-.476-.122-.719l-.011-5.837c0-.31.177-.376.409-.42l4.113-.874 7.938-2.078c.409-.1.453-.288.354-.63l-1.183-4.19-2.245-7.728c-.044-.144.034-.42.144-.486 1.891-1.084 3.615-2.466 5.694-3.229.409-.154.398-.331.132-.641-.342-.387-.674-.796-.928-1.249l-2.134-3.88c-.387-.73-.376-.741.287-1.282.067-.055.122-.122.188-.177l4.533-4.389 3.77-3.681c.155-.155.243-.276.243-.409h-.741c0 .199-.199.387-.597.796l-4.842 4.831-3.493 3.184-1.095-2.045c-.055-.11-.022-.354.067-.431l4.19-3.903 2.189-2.023c.165-.144.254-.276.243-.409h-.575l-6.468 6.047-1.437-2.322 3.085-2.543.939-.818c.122-.122.188-.243.177-.354h-.519l-1.073.984-2.421 1.968c-.309.254-.541.42-.862-.055-.31-.475-.763-.862-1.161-1.293l1.526-1.216c.177-.133.254-.265.254-.387h-.431l-1.647 1.172c-.067.044-.21.066-.277.022l-2.543-1.194h-4.554c-.011.531-.111 1.05-.277 1.592-.475 1.537-1.194 2.919-2.266 4.113-.818.906-1.868 1.481-2.963 1.99-1.161.542-2.388.509-3.648.442v-1.802l1.78-.431c2.73-.907 4.499-2.731 5.152-5.539l.055-.354h-.531c.011.818-.32 1.548-.752 2.244-1.116 1.791-2.686 3.018-4.82 3.405l-.973.144-.453-2.012.885-.243c1.326-.354 2.432-1.028 3.106-2.255.243-.442.376-.873.398-1.282h-.464c.011.674-.376 1.282-1.062 1.957-.773.763-1.791 1.094-2.841 1.304-.11.022-.287-.077-.354-.177l-.784-1.183c.63-.288 1.282-.509 1.857-.873.442-.276.663-.652.663-1.017h-.685c-.011.166-.1.332-.255.487-.619.63-1.415.829-2.233.818-.365 0-.718-.376-1.094-.564l-1.526-.73c.011-.011.022-.011.033-.022h-3.416c0 1.459-.741 2.664-1.824 3.582-1.161.984-2.543 1.271-4.057.918-.321-.077-.442-.177-.42-.508.022-.31 0-.619 0-.951h1.57c1.768-.044 2.962-1.117 3.349-2.41.067-.21.089-.431.1-.641h-.509c0 .862-.541 1.691-1.393 2.156-1.006.542-2.1.498-3.195.343-.077-.011-.166-.111-.221-.188l-.807-1.26c.542.088 1.061.232 1.581.243.542.011 1.106-.033 1.625-.166.464-.122.796-.663.785-1.117h-.519c0 .232-.266.553-.498.674-.276.144-.641.177-.951.166-1.083-.044-2.122-.287-3.095-.763-.022-.011-.033-.033-.044-.088h-2.234v.155c-.033 1.039-1.028 2.001-2.067 2.045-.188.011-.376.066-.564.066-.387.011-.729-.011-.862-.509-.21-.807-.719-1.393-1.57-1.747h.011-1.979c0 .177-.221.398-.398.475-1.26.564-2.399.133-3.648-.475h-4.223c.011 0 .022.011.033.011-1.238.531-2.333 1.028-3.56.487-.21-.089-.365-.321-.542-.487l.022-.022h-1.978c-.852.376-1.338 1.006-1.592 1.835-.056.166-.277.365-.443.376-.818.077-1.945-.111-2.52-.851-.321-.409-.465-.884-.465-1.36h-2.233l.022.188-2.962.641c-.387.066-.852-.011-1.217-.166-.221-.088-.442-.42-.464-.663h-.553v.055c.022.475.409 1.028.951 1.105.663.1 1.36.066 2.034.055.332-.011.675-.111 1.017-.166-.276.431-.486.884-.807 1.227-.188.199-.563.254-.862.287-1.316.133-2.521-.055-3.427-1.15-.376-.453-.531-.929-.52-1.404h-.497c-.022.608.232 1.15.608 1.647.729.962 1.736 1.404 2.941 1.404h1.47l-.011 1.161c-.011.1-.177.232-.299.265-2.299.619-4.554-.564-5.361-2.432-.255-.597-.631-1.216-.653-1.835v-.21h-3.427c.011 0 .022.011.022.011l-1.946.995c-.442.276-.873.42-1.348.221-.52-.21-1.04-.453-1.504-.763-.188-.133-.276-.299-.254-.464h-.697c0 .376.255.752.763 1.072.542.343 1.172.553 1.769.818l-.94 1.415c-1.68-.332-3.195-.906-3.957-2.653a1.53 1.53 0 0 1-.144-.641h-.487c-.022.752.398 1.382.885 1.957a4.64 4.64 0 0 0 2.731 1.592c.265.055.53.155.795.232l-.464 1.99c-2.697-.177-4.599-1.559-5.937-3.737-.42-.685-.608-1.371-.597-2.034h-.497c-.011.829.31 1.592.696 2.277.918 1.603 2.245 2.83 4.002 3.483.575.21 1.206.309 1.814.431.309.055.497.144.475.52-.033.464-.011.929-.011 1.382-2.344.354-4.301-.398-6.025-1.835-1.736-1.437-2.587-3.405-3.107-5.517-.055-.232-.077-.486-.066-.741h-4.555l-2.476 1.161c-.1.044-.287.044-.376-.011l-1.614-1.139-.453-.011c0 .188.243.365.73.796.332.298.73.531 1.072.774l-1.57 1.747-4.035-3.328h-.487c0 .122.077.243.221.365l4.013 3.372-1.426 2.311-6.467-6.036h-.597c0 .155.144.31.453.586l4.245 3.936 1.835 1.691c.232.199.332.365.155.652l-1.128 2.001-9.143-8.866h-.453c0 .1.1.243.276.42zm8.634 31.043l3.471-12.216 1.857 1.051c.321.188.431.409.299.807l-2.454 7.993c-.199.663-.166.696.509.84l5.462 1.249 2.73.63c.277.056.443.144.432.454v2.2c-4.168-.763-8.159-1.979-12.305-3.008zm11.265-8.302l-.585 1.304c-.432.929-.387 1.04.596 1.239.509.099 1.029.132 1.548.188-.132.652-.243 1.293-.409 1.912-.033.133-.265.321-.376.299-1.547-.244-3.095-.531-4.643-.807-.022 0-.044-.045-.144-.144l1.769-4.732 2.244.741zm3.549-.188c-.354.453-.862.862-1.072 1.393-.453 1.128-1.283 1.072-2.211.929-.166-.023-.343-.056-.63-.111l.851-1.89c.033-.078.21-.1.32-.111l2.742-.21zm-7.02 1.371c-.343.928-.652 1.857-.984 2.786-.133.376-.033.564.398.63.851.133 1.692.343 2.543.497.851.144 1.702.255 2.598.376l-.122 2.742-8.612-1.99 2.587-8.468 2.41 1.293-.818 2.134zm13.852 17.357l-6.976-.1c-.619 0-1.238.089-1.824.133v-6.523-2.089c-.011-.487-.088-.962-.088-1.448-.011-.896-.033-1.802.033-2.698.055-.719.21-1.437.343-2.145.243-1.293 1.017-2.288 1.813-3.283.906-1.128 2.266-1.57 3.361-2.322l.973.885c-.575.398-1.172.729-1.659 1.172-1.702 1.547-2.786 3.405-3.139 5.737-.288 1.88-.266 3.759-.31 5.638-.044 1.714.111 3.428.166 5.141.011.288.099.398.387.409.453 0 .895.067 1.349.078l5.992.066c2.166-.033 4.344-.199 6.323-1.172.741-.365 1.36-.995 2.012-1.514.31-.244.63-.487.885-.785.398-.498.74-1.04 1.16-1.626l.863.995c-.73 1.084-1.227 2.422-2.322 3.383-1.415 1.239-3.018 1.935-4.886 2.046-.896.055-1.791.143-2.687.154-.608.034-1.183-.121-1.769-.132zm-9.308-33.078c-.42.586-.708 1.095-1.117 1.515-.166.166-.553.199-.829.166-1.282-.188-2.543-.553-3.825-.586-1.548-.044-3.073.232-4.323 1.304-.022.022-.066.011-.254.022.707-1.083 1.338-2.101 2.034-3.073.586-.807 1.47-.973 2.388-.73s1.813.586 2.709.907c1.028.354 2.023.796 3.217.475zm-5.053 1.592c1.017.066 2.035.398 3.019.719.773.243 1.006.918.552 1.526-1.614 2.189-3.714 3.626-6.5 3.66-1.504.011-2.852-.653-4.035-1.581 1.404-3.328 3.538-4.566 6.965-4.323zm2.599 4.046c.453-.409.884-.829 1.326-1.249.265-.254.52-.343.885-.144.453.244.939.42 1.547.686-1.713.63-2.454 2.133-3.537 3.283-.376.398-.741.829-1.183 1.172-.818.63-1.725.575-2.598.144-.929-.453-1.824-.973-2.786-1.493.719-.044 1.36-.022 1.968-.132 1.68-.321 3.129-1.128 4.378-2.267zm1.846 1.338c.685-.884 1.559-1.481 2.587-1.835.331-.111.718-.089 1.072-.122.044.044.089.078.133.122l-2.853 5.273c-.221.398-.674.686-1.05.973-.309.232-.663.177-1.028.033-.774-.287-1.559-.541-2.421-.84 1.537-.973 2.543-2.299 3.56-3.604zm3.56-.509c.342-.884.862-1.647 1.735-2.144.542-.299 1.006-.719 1.548-1.106-.298.719-.608 1.382-.851 2.079-.365 1.017-.409 2.078-.321 3.139.078 1.006-.453 1.581-1.216 2.068-.84.53-1.758.796-2.742.917l-1.127.144c1.415-1.459 2.244-3.239 2.974-5.097zm2.774 3.66c-.375-2.023-.364-4.013.586-5.893.874-1.702 2.024-3.151 3.98-3.77l.829 1.47c-.652.685-1.337 1.282-1.879 1.99a7.17 7.17 0 0 0-1.426 3.681 11.63 11.63 0 0 0 0 1.857c.133 1.692 1.282 2.621 2.631 3.361 1.106.608 2.322.785 3.549.863 1.094.077 2.123-.255 3.129-.653.088-.033.187-.077.309-.121l.929 1.559c-2.477 2.133-6.545 2.012-9.154.21-.752-.52-1.47-1.106-2.167-1.692-.862-.741-1.117-1.791-1.316-2.863zm33.056-15.334c-.254.719-.453 1.393-.177 2.101.033.1 0 .254-.066.343-.686.951-1.471 1.47-2.654 1.117-.276-.077-.597-.442-.685-.73-.287-1.017.199-2.045 1.106-2.565.121-.066.309-.099.442-.055.685.232 1.326.033 2.034-.21zm8.955.199c.132-.044.343.022.475.1.907.575 1.327 1.515 1.05 2.532a1.32 1.32 0 0 1-.729.752c-.973.309-2.112-.232-2.609-1.139-.044-.089-.111-.221-.078-.288.354-.73.067-1.404-.143-2.145.707.221 1.337.442 2.034.188zm39.943 4.533c.752-.276 1.492-.575 2.255-.796 2.012-.586 2.609.177 3.438 1.393.487.719.896 1.481 1.261 2.311-.188-.144-.354-.321-.564-.431-1.493-.785-3.085-1.106-4.765-.862-1.006.144-2.001.398-2.996.597-.332.066-.586.033-.785-.299-.287-.464-.652-.884-1.061-1.426 1.205.287 2.211-.122 3.217-.486zm5.395 2.532c1.315.475 2.122 1.559 2.874 2.676.232.343.376.741.586 1.15-1.382 1.028-2.874 1.702-4.588 1.603-.741-.045-1.481-.31-2.189-.586-1.426-.575-2.609-1.504-3.56-2.709-.74-.951-.586-1.559.531-1.99 2.09-.818 4.223-.906 6.346-.144zm-7.407 2.388c1.017.863 2.012 1.758 3.106 2.499 1.04.696 2.267 1.017 3.527 1.072.287.011.575-.066.984-.121-.21.154-.332.265-.464.331-.885.465-1.758.962-2.665 1.382-1.127.531-2.078.1-2.852-.729-.818-.874-1.537-1.836-2.355-2.698-.475-.497-1.072-.895-1.625-1.338.409-.177.884-.342 1.316-.586.442-.232.707-.088 1.028.188zm2.974 6.147c-1.029.343-1.946.785-2.919.94-.63.099-1.15-.476-1.537-1.006-.939-1.283-1.636-2.687-2.211-4.168-.166-.431-.387-.84-.619-1.327 1.78-.022 2.941.94 3.947 2.222.94 1.217 1.901 2.433 3.339 3.339zm-6.833-3.471c.498 1.603 1.349 3.073 2.632 4.389-1.139-.067-2.167-.199-3.118-.641a8.14 8.14 0 0 1-.951-.542c-.652-.442-1.039-1.028-.984-1.88.133-1.824-.199-3.559-1.183-5.163 1.515 1.007 3.007 1.924 3.604 3.837zm-2.962-.664c.32 1.703.066 3.383-.443 5.02-.132.42-.364.851-.663 1.16-1.515 1.548-3.206 2.842-5.395 3.24-1.99.364-3.936.232-5.671-.995-.188-.133-.376-.244-.597-.387l.884-1.482c.896.21 1.747.465 2.609.608 1.194.199 2.377-.033 3.516-.409.928-.309 1.746-.818 2.476-1.481.73-.652 1.017-1.493 1.095-2.399.265-2.985-.818-5.373-3.217-7.175-.045-.033-.078-.066-.144-.122l.895-1.592c2.72 1.117 4.135 3.228 4.655 6.014zm-3.262 11.255c-.939.121-1.857.298-2.753-.089-.751-.32-1.47-.685-2.078-.961 1.039-.255 2.2-.498 3.328-.841.519-.154 1.017-.464 1.459-.796.862-.641 1.669-.42 2.521.011 1.205.608 1.945 1.681 2.786 2.742-1.78-.354-3.527-.298-5.263-.066zm-16.207 10.812c.84-.033 1.382.332 1.835.962.863 1.194 1.084 2.576 1.216 4.09-1.448-1.382-3.117-2.178-4.853-2.863-1.006-.398-1.879-.94-2.421-1.935-.276-.508-.674-.94-.962-1.337.907.298 1.835.696 2.819.917.763.177 1.581.199 2.366.166zm-28.976-1.227c-1.094 1.382-1.802 2.952-3.637 3.493-1.415.42-3.682 1.648-4.699 2.786.078-1.68.299-2.565.951-3.725.486-.863 1.117-1.382 2.211-1.327 1.791.099 2.819-.022 5.174-1.227zm-27.871 3.847c-.254-1.725-.099-3.35.819-4.765.84-1.293 2.089-2.178 3.537-2.719a12.15 12.15 0 0 1 2.654-.675c.773-.099 1.149.299 1.083 1.095-.122 1.669-.785 3.139-1.736 4.499-1.348 1.924-3.239 2.665-5.527 2.554l-.83.011zm1.095-13.344c1.006-1.315 1.946-2.609 3.604-3.073.52-.144.984-.144 1.47.188a8.8 8.8 0 0 0 5.263 1.603c-1.747.906-3.372 1.636-5.384 1.183-1.581-.354-3.251-.277-4.953.099zm12.327-1.382l1.901-.674-1.426 3.847c-.685 1.692-1.879 2.852-3.692 3.284-.409.099-.863.033-1.294-.022-.497-.067-.719-.443-.752-.929-.121-1.581.542-2.819 1.725-3.814 1.028-.885 2.299-1.272 3.538-1.692zm-8.48 1.614c1.095.034 2.189.244 3.317.376-.553 1.117-1.537 1.736-2.698 2.034-.95.244-1.945.343-2.907.564-.929.21-1.846.498-2.786.763.166-.873.265-1.846.586-2.742.132-.376.74-.729 1.172-.796 1.094-.176 2.211-.232 3.316-.199zm-3.084 3.616c.74-.199 1.514-.31 2.288-.443 1.139-.199 2.3-.32 3.306-1.183-.055.719-.067 1.338-.188 1.924-.044.188-.387.376-.63.442-1.714.476-3.394 1.006-4.776 2.189-.863.741-1.692 1.504-1.979 2.676l-.177-.034.232-3.537c.089-1.183.896-1.747 1.924-2.034zm6.545 3.659c.453-1.515.475-1.515 2.045-1.658.144-.012.298-.034.542-.056-1.25 1.659-1.062 3.626-1.526 5.406-.387 1.46-.984 2.023-2.454 2.222-.266.034-.542.056-.819.056h-2.454c2.676-1.183 3.903-3.394 4.666-5.97zm2.034.94c.155-1.029.564-1.924 1.227-2.709.265-.31.63-.52 1.083-.884.111 1.934.255 3.714.277 5.483.011.63-.255 1.271-.431 1.89-.1.376-.376.586-.785.653-.863.143-1.725.342-2.654.53.829-1.603 1.028-3.294 1.283-4.963zm3.018-.465c-.033-.774-.199-1.536-.265-2.31-.067-.708.132-1.36.464-1.99.287-.542.508-1.139.807-1.813.066.63.11 1.16.188 1.68.177 1.205.63 2.311 1.338 3.283.53.741.508 1.493.165 2.256-.597 1.348-1.724 2.211-2.94 3.106.42-1.481.309-2.852.243-4.212zm4.002.089c-1.095-1.349-2.023-2.775-2.311-4.522-.365-2.222-.088-4.312 1.449-6.136l1.415.84c-.233 1.161-.619 2.234-.631 3.306-.022 1.857.476 3.615 1.736 5.097 1.028 1.205 2.366 1.426 3.814 1.381a6.94 6.94 0 0 0 3.593-1.105c.94-.608 1.736-1.448 2.643-2.244l1.426.807c-.929 2.918-4.566 4.886-7.087 4.742-.884-.044-1.758-.132-2.642-.21-1.426-.121-2.51-.851-3.405-1.956zm16.141-14.129c.022-.022.066-.011.188-.044l-.885 3.571c-.044.165-.331.32-.541.353-1.427.232-2.366 1.073-2.676 2.433-.321 1.415.221 2.962 1.868 3.427 2.234.63 3.892-1.438 3.593-3.339-.154-.94-.619-1.636-1.326-2.211-.111-.089-.243-.277-.221-.387.331-1.205.707-2.41 1.061-3.626.365.63.652 1.26 1.05 1.813.84 1.15 2.112 1.636 3.405 2.078.133.044.343.199.343.277-.111.973-.122 1.99-.431 2.907-.829 2.455-2.609 3.825-5.207 4.013-.851.056-1.747.1-2.565-.11-.796-.21-1.559-.664-2.233-1.15-.896-.652-1.747-1.404-2.2-2.465a6.46 6.46 0 0 1-.454-1.637c-.21-1.669.299-3.195 1.128-4.621.066-.121.31-.254.431-.221 2.068.52 3.991.409 5.672-1.061zm-1.526-12.769c-.431.84-.619 1.68-.475 2.587.022.111-.067.287-.166.354-.476.343-.94.708-1.459.984-.553.287-1.128.133-1.548-.321-.42-.442-.575-.973-.266-1.515.277-.498.62-.951.951-1.415.078-.1.243-.21.343-.188.918.133 1.78-.044 2.62-.486zm.066 1.15a6.17 6.17 0 0 1 .266-.619c.376-.752.376-.741 1.216-.586.696.133 1.326-.088 2.023-.531-.144 1.017.243 1.747.84 2.399.078.077.144.232.111.332-.321 1.349-1.935 2.244-3.217 1.791-.763-.276-1.725-1.504-1.239-2.786zm14.118-1.304a.45.45 0 0 1 .387.122c.785 1.028 1.128 2.311.133 3.405-.807.885-2.156.951-3.052.089-.331-.321-.597-.719-.84-1.117a.61.61 0 0 1 .067-.564c.574-.652.928-1.371.818-2.366.84.575 1.636.685 2.487.431zm3.615.652a.58.58 0 0 1 .409.144c.343.453.697.906.951 1.404.321.619.199 1.117-.287 1.592-.454.442-.973.564-1.559.254-.498-.265-.951-.619-1.404-.951a.42.42 0 0 1-.166-.354c.188-.951-.089-1.802-.52-2.642.829.486 1.67.652 2.576.553zm-.21 13.565c.608-.088 1.216-.177 1.824-.232.133-.011.332.1.398.21 1.051 1.736 1.471 3.615.962 5.594-.166.641-.575 1.272-1.006 1.791-.509.608-1.15 1.106-1.769 1.603-1.382 1.095-2.974 1.36-4.665.984-.785-.177-1.581-.387-2.333-.674-.873-.332-1.404-1.061-1.935-1.813-.961-1.338-1.061-2.853-1.182-4.389-.012-.089.121-.266.21-.288 2.133-.575 3.814-1.658 4.576-3.913l1.051 3.582c.033.132-.1.376-.232.475-1.128.907-1.504 2.078-1.228 3.471.21 1.051 1.416 2.001 2.455 2.123.796.089 1.459-.144 2.067-.597 1.061-.796 1.294-2.742.487-3.858-.575-.785-1.272-1.371-2.289-1.46-.42-.033-.553-.276-.63-.663-.199-.984-.464-1.946-.697-2.93-.022-.099-.033-.199-.066-.398l1.039.686c.907.597 1.891.84 2.963.696zm7.131 6.037c.022-.376.044-.752 0-1.128-.044-.354-.166-.697-.254-1.083.298.044.574.11.862.132s.586 0 .917 0c.465 1.238.675 2.488.255 3.781-.454 1.371-1.349 1.88-2.897 1.581-.884-.166-1.647-.608-2.288-1.26-.254-.255-.498-.531-.752-.796l.785-1.592c.287.265.553.575.884.807.321.232.686.42 1.062.542.774.276 1.36-.144 1.426-.984zm-2.653 3.195c.928.619 1.99.807 3.084.586 1.061-.211 2.001-1.681 2.012-3.052 0-.486.022-.984-.044-1.459s-.232-.94-.365-1.426l1.957-.597c.542 1.028.851 2.122.785 3.272-.067 1.117-.255 2.222-.796 3.262-.708 1.326-1.603 2.343-3.217 2.454-2.842.188-5.086-.874-6.777-3.195l1.47-1.382c.63.531 1.216 1.094 1.891 1.537zm2.089-4.544c.077.376.066.785.011 1.161-.088.563-.453.751-.984.552-.674-.254-1.183-.718-1.57-1.315-.11-.177-.143-.42-.154-.641-.067-.896-.1-1.78-.133-2.444.486.321 1.116.83 1.813 1.172.663.332.873.896 1.017 1.515zm-17.556 6.058c.586.94 1.482.929 2.067-.011.343-.564.564-1.205.841-1.813.376.243.829.52 1.26.818.066.044.144.177.122.254-.277 1.371-.752 2.643-1.968 3.472-1.227.829-2.001.63-3.217-.52-.818-.774-1.139-1.835-1.36-2.918-.022-.089.055-.233.132-.288l1.25-.807c.298.619.53 1.249.873 1.813zm-.276-2.465c0-.332.331-.663.508-.995.299-.586.575-1.183.785-1.603.376.707.851 1.559 1.283 2.443.088.188.066.486-.022.697-.233.585-.476 1.171-.808 1.691-.21.332-.585.31-.895.022-.652-.608-.84-1.426-.851-2.255zm-2.068 3.151c.52 1.382 1.371 2.443 2.831 2.918.995.321 1.779-.177 2.465-.763.873-.729 1.437-1.68 1.647-2.819.044-.254.144-.497.21-.74.575.121 1.106.265 1.647.353.277.045.343.144.31.409-.144 1.382-.619 2.598-1.492 3.693-1.04 1.293-2.289 2.222-3.936 2.521-.354.066-.763 0-1.106-.122-2.764-.907-4.311-2.886-4.919-5.66-.056-.233-.011-.476-.011-.763l1.945-.442c.133.475.232.961.409 1.415zm2.09-15.025c-.011.542.033 1.106.155 1.626.11.486.707.862 1.149.829.553-.033.929-.365 1.139-.863.288-.696.21-1.426.055-2.144-.066-.321-.11-.642-.177-.995l1.305.818c.066.044.155.121.155.188.143 1.271.221 2.52-.641 3.626-1.217 1.548-3.173 1.205-4.058-.509-.508-.984-.453-2.045-.287-3.095.011-.089.132-.188.232-.243l1.216-.785c-.088.53-.232 1.039-.243 1.547zm.84-1.746c.088-.332.265-.642.442-1.073.619 1.349.995 2.62.774 4.013-.066.42-.276.73-.73.752-.486.022-.707-.309-.807-.741-.232-1.017.067-1.978.321-2.951zm-2.543 1.304c0 .763-.066 1.482.011 2.178.133 1.249 1.228 2.454 2.311 2.764 1.481.409 2.896-.708 3.394-1.868.365-.852.409-1.747.276-2.654-.022-.11 0-.232 0-.376.1-.022.133-.033.166-.033 1.36-.055 1.437.011 1.448 1.393.023 1.957-.807 3.416-2.576 4.279-.596.287-1.249.663-1.879.652-1.725-.033-3.095-.862-4.079-2.311-.774-1.138-.863-2.388-.553-3.692.033-.122.188-.31.298-.321.376-.044.752-.011 1.183-.011zm12.084 8.491c.155.398.21.829.309 1.249-.077 1.459-1.26 2.41-2.675 2.078-.674-.154-.94-.74-1.238-1.26-.608-1.072-.42-2.697.984-3.294.928-.398 2.178.132 2.62 1.227zm-3.063-6.545c-.486-.575-.74-1.349-1.094-2.056l1.172-.697c.564.763 1.05 1.581 1.702 2.255 1.128 1.161 3.24 1.15 4.157.011.84-1.028.962-2.222.52-3.438-.243-.674-.652-1.282-.995-1.923l1.116-.653c1.946 1.603 2.068 4.456.807 6.136-.541.73-.972 1.537-1.934 1.78-2.079.542-3.991.287-5.451-1.415zm4.202-1.802c.563-.299.784-.851.475-1.736-.199-.586-.652-1.083-1.017-1.614-.133-.199-.31-.365-.465-.564 1.018-.265 1.747.022 2.256.852.564.906.917 1.846.663 2.951-.475 2.046-2.664 2.156-3.88 1.205-.796-.619-1.25-1.47-1.614-2.377a.42.42 0 0 1-.011-.287c.221-.442.464-.884.674-1.282.387.785.73 1.592 1.194 2.343.398.642 1.172.807 1.725.509zm-.177-2.067c.132.221.243.464.287.718.066.376.033.818-.387.918-.276.066-.718-.033-.917-.232-.785-.774-1.007-1.836-1.283-2.853-.077-.298-.077-.619-.11-1.017 1.061.675 1.802 1.504 2.41 2.466zm-3.715.088c-.63 1.017-2.012 1.57-3.162 1.293-1.702-.409-2.675-1.569-2.941-3.382l1.084-.421c.254.531.475 1.106.785 1.614.564.94 1.227 1.139 2.366.819.707-.199 1.282-1.095 1.194-1.869-.067-.541-.1-1.094-.155-1.68l1.128-.177c.63 1.327.464 2.576-.299 3.803zm-1.216-2.62c0 .276.044.553.033.829-.011.719-.398 1.172-1.161 1.382-.508.144-1.205-.166-1.492-.697-.21-.398-.376-.818-.553-1.227-.111-.276-.044-.508.1-.807.342-.707.563-1.47.796-2.078.398.354.862.929 1.459 1.238.619.321.818.741.818 1.36zm-5.262-.033c-1.404-.056-2.598-1.891-2.046-3.173.056-.133.266-.243.42-.298.885-.309 1.338-.697 1.769-1.57.376.84.962 1.36 1.78 1.57.332.077.431.265.476.564.254 1.548-.907 2.974-2.399 2.908zm2.929-4.025c-.166.133-.464.188-.685.155-1.05-.144-1.968-1.327-1.88-2.399.011-.077.023-.199.067-.232.696-.431.752-1.205.995-1.879.508.464.895 1.106 1.691 1.106.078 0 .166.11.221.188.653.929.476 2.333-.409 3.062zm-2.343-3.383c-.078.177-.31.387-.454.387-.155 0-.376-.221-.464-.387-.586-1.26-.111-2.41.453-3.67.608 1.271 1.062 2.41.465 3.67zm-.741.896c.033.022.055.088.066.133.265.995-1.017 2.532-2.045 2.521-.674-.011-1.515-1.349-1.327-2.078a23.37 23.37 0 0 1 .277-.94c.088-.254.276-.343.541-.453.487-.221.896-.608 1.338-.929.055-.033.066-.122.133-.243.232.807.32 1.559 1.017 1.99zm-2.764 4.068c.099-.088.155-.21.31-.409-.034 1.039.243 1.857.818 2.565.066.078.077.243.044.343-.243.575-.431 1.183-.774 1.691-.376.564-1.006.653-1.669.398-.52-.188-.863-.707-.852-1.359 0-.398.034-.796.089-1.194.055-.343.199-.564.564-.763.552-.321.995-.84 1.47-1.271zm-2.465 1.47c-.045.597-.111 1.194-.122 1.802-.022.829.453 1.525 1.139 1.747 1.061.342 1.802.154 2.321-.686.332-.542.575-1.139.863-1.724l1.061.398c-.21 1.879-1.216 2.874-2.686 3.338a2.85 2.85 0 0 1-3.218-1.006c-.95-1.216-1.194-2.576-.486-4.035l1.128.166zm-3.018 5.13c.475-.752.818-1.592 1.216-2.366l.674 1.271c.033.066.055.166.022.232-.398.995-.906 1.902-1.791 2.565-.619.464-2.122.619-2.808.1-.719-.542-1.183-1.692-.973-2.698.188-.907.652-1.669 1.238-2.377.056-.066.166-.144.244-.144l1.547-.088c-.32.387-.619.708-.873 1.072s-.497.752-.674 1.161c-.31.708-.111 1.404.453 1.736a1.3 1.3 0 0 0 1.725-.464zm-.387-.288c-.255.354-.642.586-1.084.321-.442-.255-.42-.697-.265-1.106.486-1.249 1.415-2.122 2.532-2.852-.023 1.349-.398 2.565-1.183 3.637zm-3.085-2.377c-.718 1.227-1.006 2.488-.343 3.858.62 1.272 1.78 1.648 3.096 1.349 1.448-.331 2.222-1.382 2.808-2.631.055-.11.099-.221.155-.332.022-.044.055-.077.077-.11l1.172.685c-.475 2.576-2.775 3.825-4.444 3.77a13.06 13.06 0 0 1-1.747-.166c-.575-.099-1.106-.353-1.437-.851-.465-.685-1.028-1.349-1.294-2.112-.563-1.636-.32-3.206.896-4.543l.442-.487 1.194.697c-.188.287-.398.575-.575.873zm4.953 10.116c.696.011 1.492.597 1.725 1.293.353 1.04-.023 2.444-.874 3.129-.177.144-.453.298-.652.265-.641-.099-1.305-.21-1.879-.475-.664-.31-.575-1.028-.597-1.57.011-1.581.961-2.653 2.277-2.642zm-8.546 3.936c.564-.255 1.061-.686 1.57-1.051.111-.077.166-.221.265-.365l.785 1.515c.033.077.011.243-.044.31-.73.74-1.481 1.448-2.487 1.824-1.614.597-3.14-.199-3.472-1.913-.221-1.15-.066-2.277.376-3.328l1.758-.132c-.1.464-.232.928-.276 1.393-.034.331 0 .696.088 1.028.188.696.763 1.028 1.437.719zm1.791-2.466c-.022.243-.11.531-.265.708-.321.353-.675.718-1.095.95-.298.166-.829.299-1.039.144-.254-.188-.398-.696-.387-1.05.011-.486.111-1.039.376-1.437s.774-.641 1.194-.929c.475-.343.962-.663 1.338-.917l-.122 2.531zm-5.306-.674l-.244.917c-.287 1.117-.298 2.245.133 3.317.73 1.791 2.078 2.145 4.035 1.47.52-.177 1.006-.475 1.448-.807.421-.32.752-.762 1.128-1.16l1.548 1.437c-1.294 1.945-3.129 2.94-5.395 3.206-.509.055-1.028.033-1.537-.011-1.548-.144-2.399-1.172-3.051-2.455-.675-1.337-.94-2.763-.741-4.234.1-.774.409-1.525.619-2.299l2.057.619zm10.17 7.761l.597 3.062c.277 1.327.31 2.631-.21 3.925-.375.917-.984 1.636-1.824 2.133-.895.52-1.426.365-1.89-.575a4.53 4.53 0 0 1-.177-3.769c.508-1.349 1.481-2.377 2.399-3.428l1.105-1.348zm-10.237 8.645c1.261-.763 2.565-1.426 3.87-2.112.497-.265 1.039-.464 1.614-.707.033 1.57-.752 2.675-1.858 3.637-1.083.94-2.133 1.935-3.184 2.908-.176.165-.287.387-.486.663-.276-.752-.564-1.448-.785-2.156-.298-1.006-.088-1.669.829-2.233zm1.769 3.007c.807-.752 1.703-1.426 2.51-2.189.519-.486.928-1.083 1.404-1.647.221.486.519 1.039.707 1.636.055.166-.166.464-.309.663-.774.951-1.625 1.847-2.333 2.853-.785 1.116-1.128 2.443-1.249 3.803-.022.276.077.575.121.862l-.132.066c-.498-.962-1.028-1.912-1.493-2.885-.663-1.338-.199-2.267.774-3.162zm1.238 5.207c-.033-.906.31-1.868.664-2.742.574-1.437 1.536-2.631 2.786-3.559.818-.609 1.459-.432 1.835.519.785 1.979.917 3.991.32 6.047-.442 1.515-1.581 2.433-2.808 3.273-.342.232-.74.376-1.138.586-1.018-1.238-1.592-2.631-1.659-4.124zm5.594 1.493c1.006-2.013 1.051-4.124.531-6.269-.111-.464-.288-.928-.354-1.404-.033-.21.044-.519.188-.652.453-.387.962-.708 1.548-1.117-.288 1.084.044 1.979.365 2.875s.685 1.78.95 2.697c.421 1.482.078 2.355-1.216 3.184-.796.509-1.614.984-2.498 1.393.155-.221.354-.442.486-.707zm2.499-7.419c-.387-1.227-.277-2.365.409-3.582l2.808 4.224c.453.685.741 1.459.774 2.277.011.287-.221.652-.442.873-.608.597-1.283 1.139-2.013 1.78-.033-2.078-.972-3.77-1.536-5.572zm1.47-2.763c-.619-.763-.917-1.648-.917-2.654 0-.552-.1-1.094-.177-1.78a5.18 5.18 0 0 1 .265.365c.829 1.426 1.979 2.521 3.46 3.206 1.006.465 1.349 1.227 1.382 2.222.056 1.338-.453 2.543-1.006 3.814-.652-2.001-1.747-3.626-3.007-5.173zm5.594-.21c-1.747-.398-3.35-1.161-4.654-2.399-1.238-1.161-2.067-2.61-2.388-4.29-.144-.752-.1-1.526-.144-2.355.641 0 1.172-.022 1.703.022.11.011.276.244.298.387.266 2.587 1.681 4.433 3.792 5.782 1.614 1.039 3.295 1.006 4.898-.044 1.923-1.249 3.228-2.952 3.659-5.251.166-.907.188-.907 1.117-.907h.851c.332 2.388-.442 4.345-1.902 6.07-1.426 1.691-3.349 2.553-5.439 3.04-.564.144-1.216.077-1.791-.055zm9.972-7.949c.862 1.039 1.78 2.056 2.598 3.139 1.183 1.559 1.625 3.284.829 5.163-.597 1.415-1.437 1.426-2.664.288-1.669-1.526-1.747-3.483-1.371-5.528l.608-3.062zm-5.373 7.551c1.681-.863 3.085-1.99 4.058-3.792.022 1.978-.255 3.681-1.581 5.162-1.106 1.25-1.957 2.72-2.433 4.445-.685-1.659-1.426-3.229-.762-5.008.11-.31.409-.642.718-.807zm.796 5.03c.774-1.349 1.647-2.643 2.488-3.947.265-.409.541-.807.84-1.249.884 1.47.663 2.896.132 4.344-.442 1.217-.818 2.466-1.182 3.704-.089.287-.056.608-.089 1.072-.818-.74-1.647-1.337-2.288-2.111-.431-.498-.21-1.272.099-1.813zm2.919 2.211c.221-.885.597-1.736.851-2.609.243-.818.453-1.659.63-2.499.044-.221-.044-.475-.077-.763l1.492 1.073c.321.243.255.564.155.895-.376 1.316-.696 2.642-.619 4.024.055 1.161.243 2.311.807 3.35.144.266.343.509.475.862l-1.89-1.116a9.95 9.95 0 0 1-1.172-.851c-.763-.619-.873-1.482-.652-2.366zm2.963.718a9.86 9.86 0 0 1 .652-4.466c.365-.929 1.028-1.128 1.802-.509 1.924 1.526 3.239 3.45 3.427 5.959.122 1.67-.586 3.129-1.592 4.478-2.388-1.106-4.068-2.676-4.289-5.462zm4.709-3.305c-.542-.741-1.194-1.393-1.824-2.068-.321-.342-.475-.63-.199-1.094.243-.409.398-.873.619-1.371.221.376.376.774.641 1.05.642.653 1.349 1.239 2.024 1.858.574.519 1.193 1.017 1.691 1.603.453.541.752 1.194.52 1.968-.398 1.282-1.117 2.388-1.858 3.626.299-2.2-.442-3.958-1.614-5.572zm.188-3.14c-.94-.862-1.492-1.924-1.448-3.261 1.901.884 3.891 1.581 5.572 2.863.829.641 1.017 1.216.729 2.244-.044.166-.088.332-.154.498l-.63 1.614c-1.073-1.669-2.687-2.698-4.069-3.958zm-1.581-6.169c-2.001-.862-3.692-2.067-4.455-4.278l1.503-.851c.586.597 1.128 1.271 1.791 1.791 1.15.906 2.499 1.404 3.969 1.547a8.46 8.46 0 0 0 1.758-.022c1.946-.221 2.93-1.592 3.582-3.228.862-2.134.851-4.278-.177-6.39l1.57-.929c.829 1.017 1.382 2.145 1.515 3.461.154 1.558.033 3.084-.642 4.521-.674 1.426-1.592 2.687-2.775 3.726-.95.829-2.188.962-3.36 1.083-1.449.144-2.919.155-4.279-.431zm9.806-1.194c-.154-.508-.143-.995.188-1.481.752-1.095 1.305-2.289 1.504-3.615.077-.498.11-1.006.166-1.57.895 1.713 1.569 3.339 1.116 5.329-.354 1.569-.309 3.228.133 4.919-1.371-.995-2.62-1.957-3.107-3.582zm3.461 2.941c-.111-1.172-.133-2.344-.1-3.527.033-.995.199-1.99.31-3.007 1.116.542 1.735 1.504 2.023 2.654.309 1.238.464 2.509.741 3.747.154.664.42 1.305.652 2.001-.929-.188-1.891-.32-2.808-.575-.575-.154-.774-.796-.818-1.293zm5.262 1.769c-1.083-.144-1.592-.995-1.824-1.979-.199-.851-.299-1.736-.464-2.598-.199-.995-.343-2.012-1.15-2.908.74.056 1.315.034 1.857.166.221.055.464.409.531.675.464 1.702 1.006 3.36 2.167 4.731.74.874 1.525 1.703 2.708 2.012-.011.056-.022.1-.033.155-1.26-.088-2.543-.099-3.792-.254zm2.233-1.393c-1.249-1.172-2.067-2.642-2.487-4.312-.122-.464-.21-.95-.232-1.426-.023-.663.342-1.072.995-.984.928.133 1.868.343 2.752.675 1.537.586 2.875 1.525 3.693 2.985.575 1.017.829 2.177.741 3.382-.023.343 0 .686 0 1.073-2.035.166-3.936.033-5.462-1.393zm5.462-2.543c-.487-1.57-1.703-2.498-3.008-3.328-1.149-.74-2.454-1.105-3.769-1.437-.398-.099-.619-.32-.619-.763-.012-.497-.089-.995-.155-1.603 1.448 1.172 3.173 1.04 4.754 1.427.364.088.751.143 1.105.265 1.15.376 1.703 1.238 1.769 2.377.066 1.039.011 2.078.011 3.117-.011-.011-.077-.022-.088-.055zm-4.909-6.545c-.973-.154-1.835-.508-2.587-1.127-.343-.288-.597-.686-.929-1.073.918-.11 1.725-.265 2.543-.298 1.238-.044 2.488-.055 3.737.011.442.022.895.254 1.293.486.531.31.465.929.586 1.438.144.597.199 1.216.299 1.857-1.559-.851-3.262-1.039-4.942-1.294zm-3.361 1.261c-.044.641-.365.973-1.017 1.006-1.537.077-2.753-.542-3.726-1.692-.928-1.083-1.315-2.421-1.768-3.725-.199-.586-.432-1.172-.664-1.825 1.625.664 3.284 1.194 4.798 2.001 1.603.874 2.488 2.311 2.377 4.235zm2.344-14.682c.144.752.088 1.548.022 2.311-.122 1.481-1.172 2.244-2.355 2.863-1.326.697-2.753.951-4.234.763-.785-.1-1.548-.409-2.344-.63l.586-1.946c.896.099 1.758.243 2.631.298 1.073.067 2.012-.331 2.797-1.05.642-.586.642-1.393.575-2.167-.099-1.183-.63-2.189-1.492-3.007l-.719-.685 1.415-1.526c1.769 1.128 2.731 2.786 3.118 4.776zm-2.974-.343c.586 2.013-.066 3.173-2.322 3.527-1.028.155-1.835-.033-2.929-.453 0-.277.011-.575 0-.862-.022-.288-.078-.575-.111-.796.708.055 1.404.176 2.101.165.961-.011 1.437-.729 1.028-1.603-.31-.652-.785-1.238-1.194-1.846l1.481-.719c.818.708 1.625 1.482 1.946 2.587zm-3.88 1.095c-.487-.066-.995-.166-1.449-.365-.265-.122-.464-.431-.641-.696-.453-.664-.873-1.349-1.216-1.869l2.399.111c.84.022 2.067 1.271 2.045 2.111-.011.454-.53.796-1.138.708zm-1.891.995c.1.575-.011 1.216-.144 1.791-.276 1.172-.707 2.299-1.415 3.283-.751 1.051-1.879 1.57-3.051 1.957-.696.232-1.437.409-2.167.52-.829.132-1.603-.166-2.355-.509-1.437-.674-2.465-1.769-3.261-3.117-.188-.321-.177-.487.077-.752.841-.885 1.592-1.869 1.78-3.107.111-.74.022-1.514.022-2.388l2.698 2.554c.21.199.177.387.066.641-.862 1.924.376 4.378 2.952 4.445 1.282.033 2.908-1.758 2.51-3.284-.476-1.868-2.311-2.764-3.781-2.443-.221.044-.454.099-.642.221-.243.155-.42.099-.585-.077l-2.521-2.654c.685 0 1.304.067 1.912-.022.575-.077 1.172-.221 1.67-.497.718-.409 1.349-.962 2.023-1.438.111-.077.332-.11.442-.055 1.968 1.084 3.372 2.653 3.77 4.931zm-5.561-.022c1.194-.022 2.642 1.448 2.631 2.664-.011.796-1.205 1.968-2.001 1.957-1.216-.011-2.631-1.437-2.609-2.631.022-.984 1.006-1.979 1.979-1.99zm.487-4.721c-1.426 1.172-3.03 1.747-4.832 1.15-.773-.254-1.459-.818-2.2-1.26l.697-1.205c.851.365 1.691.829 2.587 1.083 1.526.442 3.383-.619 3.593-1.957.221-1.426-.232-2.609-1.393-3.471-.52-.387-1.117-.685-1.692-1.028.199-.354.432-.741.664-1.139 2.443.442 3.803 2.598 3.77 4.455-.011.575-.056 1.161-.155 1.736-.111.686-.509 1.194-1.039 1.636zm-3.638-6.257c1.261.542 2.51 1.128 2.941 2.576.498 1.68-.464 2.874-2.089 3.04-1.294.133-2.3-.52-3.251-1.271-.055-.044-.099-.144-.11-.221-.033-.487-.044-.962-.077-1.515.574.442 1.061.851 1.591 1.205a2.5 2.5 0 0 0 .951.398c.774.133 1.283-.144 1.526-.774.188-.475-.033-1.183-.597-1.537s-1.194-.608-1.802-.907c-.199-.088-.409-.155-.63-.243l1.404-.752c.033 0 .099-.011.143 0zm-2.575 1.835c-.188-.21-.354-.453-.575-.752 1.426.033 2.642.453 3.736 1.216.321.221.531.553.409.984-.132.453-.608.63-1.216.387-.961-.387-1.68-1.095-2.354-1.835zm-.597.652c.243 1.05.298 2.067-.421 3.018-1.547 2.046-4.355 1.46-5.594-.177-.066-.088-.022-.31.056-.42.155-.232.354-.42.564-.663.409.309.796.63 1.216.906.873.586 1.702.498 2.421-.111.951-.818.796-1.868.331-2.554-.287-.431-.619-.829-.928-1.249l.884-.763c.675.52 1.272 1.128 1.471 2.012zm-4.058-1.437c-.254-.088-.541-.133-.785-.243-.928-.42-.851-.431-.818-1.426.022-.619-.21-1.26-.331-1.901.829.111 1.558-.299 2.233-.895.077-.066.254-.111.342-.066 1.106.486 2.123 1.459 1.814 2.952-.166.851-1.581 1.89-2.455 1.581zm-5.948-3.239a1.92 1.92 0 0 1 .045.564c-.033.365-.288.52-.608.332-.288-.177-.619-.376-.796-.652-.52-.807-.863-1.692-.763-2.797 1.017.696 1.857 1.382 2.122 2.554zm1.405-1.139c-.995-.122-1.67-.763-2.289-1.481-.155-.177-.265-.398-.475-.697 1.348.011 2.476.287 3.283 1.305.133.166.254.553.177.619a.9.9 0 0 1-.696.254zm-6.556-2.111c-.675 1.006-1.404 1.835-2.598 2.089-.166.033-.354.066-.52.022-.298-.077-.52-.265-.309-.608.165-.276.353-.564.597-.774.574-.497 1.978-.862 2.83-.73zm.099 1.205c.177-.155.398-.276.719-.498-.011 1.382-.299 2.521-1.349 3.328-.155.122-.509.221-.586.133-.155-.155-.276-.453-.243-.663.099-.995.73-1.691 1.459-2.299zm-5.251 1.725c-.575.807-.663 1.614-.431 2.476.033.111-.044.31-.133.376-1.205.851-2.322 1.106-3.427.077-.84-.774-.907-2.078-.089-2.974.332-.365.763-.652 1.194-.906.122-.077.432-.011.564.1.885.719 1.172.829 2.322.851zm-3.792 3.737c-.299.398-.63.785-.896 1.205-.884 1.393-.32 2.322.819 2.996.519.309 1.16.188 1.691-.155.475-.309.929-.663 1.415-1.006.243.299.475.575.719.851-.575 1.139-2.167 1.858-3.649 1.692-1.116-.122-2.443-1.36-2.598-2.465-.199-1.559.21-2.885 1.626-3.847a46.59 46.59 0 0 1 .873.73zm-4.997 2.288c-.663.376-1.316.299-1.548-.133-.21-.398.033-.929.686-1.293 1.05-.586 2.155-1.017 3.427-.995-.675 1.028-1.526 1.835-2.565 2.421zm.917-2.797c-.762.376-1.58.719-2.332 1.172-.575.343-.796 1.05-.63 1.515.276.741 1.017 1.094 1.791.73.608-.276 1.138-.707 1.702-1.083.199-.133.365-.287.597-.475l-.077 1.57c0 .066-.033.144-.089.177-1.072.84-2.189 1.526-3.659 1.227-2.145-.431-2.211-2.775-1.194-3.969.63-.741 1.437-1.183 2.311-1.537.088-.033.232-.033.32.011l1.26.663zm-4.145.453c-1.062.995-1.216 2.819-.365 3.847.807.962 1.912 1.316 3.095 1.028.907-.221 1.736-.708 2.621-1.083l.619 1.039c-1.581 1.935-4.478 2.078-6.18.785-.708-.542-1.504-.973-1.736-1.913-.553-2.211-.287-3.925 1.47-5.495.542-.486 1.327-.707 2.023-1.05.155.298.266.509.387.719a4.23 4.23 0 0 0 .299.442c-.752.564-1.559 1.05-2.233 1.68zm-1.714 5.03c.708.73 1.537 1.36 2.51 1.614.917.243 1.901.232 2.896.343l-2.476 2.598c-.089.088-.354.11-.487.055-1.89-.829-4.366.111-4.554 2.885-.067.918.53 1.681 1.326 2.167 1.095.664 2.51.498 3.416-.309.929-.829 1.415-2.41.785-3.715-.121-.254-.099-.42.067-.586l2.664-2.52c0 .696-.044 1.326.011 1.945.044.487.133 1.028.376 1.437.431.741.962 1.438 1.492 2.112.199.254.244.409.056.663-.421.553-.763 1.161-1.228 1.67a6.24 6.24 0 0 1-3.736 2.001c-.542.088-1.15-.011-1.703-.155-1.161-.299-2.288-.719-3.272-1.415-1.05-.752-1.57-1.88-1.968-3.04-.243-.697-.398-1.426-.531-2.156-.143-.851.166-1.636.531-2.399.674-1.437 1.769-2.454 3.118-3.25.298-.199.464-.199.707.055zm2.388 5.229c.862.674 1.017 1.658.475 2.687-.42.795-1.138 1.216-1.956 1.437-.31.077-.752-.011-1.017-.188-.597-.42-1.205-.885-1.305-1.747.188-1.006.663-1.846 1.614-2.333.741-.387 1.493-.409 2.189.144zm-6.489-2.487c-.233.398-.487.762-.984.818-.542.066-1.084.188-1.614.166-.564-.034-.763-.443-.586-.962a2.59 2.59 0 0 1 2.399-1.769c.718-.011 1.437-.089 1.979-.122-.354.542-.796 1.194-1.194 1.869zm-2.499-1.869c-.343.431-.719.851-1.028 1.316-.343.508-.564 1.094-.177 1.658.365.531 1.006.509 1.57.487.486-.023.973-.177 1.481-.277l-.121 1.758c-1.194.431-2.444.685-3.693.254-1.735-.608-2.045-1.625-1.481-3.482.32-1.05 1.116-1.769 1.89-2.466l1.559.752zm-3.516.763a4.27 4.27 0 0 0-.685 2.465c.033 1.404 1.072 2.223 2.476 2.532 1.194.265 2.377.111 3.549-.343l.608 2.001c-1.161.52-2.321.874-3.615.741-1.426-.144-2.731-.508-3.902-1.382-1.294-.962-1.67-2.255-1.471-3.748.122-.884.365-1.757.653-2.598.453-1.304 1.426-2.222 2.542-3.029l1.36 1.47c-.508.619-1.072 1.216-1.515 1.89zm7.927 25.328h0 0zm-.022.022l-.199 2.742c-.011.11-.033.276-.099.309-.608.288-1.217.553-1.924.863l-.166-1.957a.42.42 0 0 1 .1-.31c.751-.564 1.525-1.105 2.288-1.647zm-4.809 2.344c.63-.1 1.249-.243 1.857-.365l.409 2.521 2.355-.929.73 2.2-4.887 1.824-.575-3.294-.221-1.427c-.022-.265-.011-.475.332-.53zm1.282 5.45c1.427-.475 2.831-1.039 4.29-1.581l1.293 2.399-8.468 2.587-1.99-8.645h2.731l.785 4.477c.232 1.283.121 1.172 1.359.763zm-4.975 7.02l-3.095-12.315h2.664l1.338 5.704.663 3.096c.078.398.255.508.653.375l6.998-2.177c.342-.111.729-.133 1.05-.288.508-.243.774-.011.995.398l.951 1.725-12.217 3.482zm19.69.387l-3.427 1.946-2.289-3.881-3.382-5.616c-.531-.928-.951-1.923-1.371-2.907-.686-1.614-.619-3.273-.045-4.876.387-1.094 1.006-2.111 1.526-3.184l1.282.398c-.287.631-.619 1.205-.818 1.813-.751 2.223-.718 4.423.188 6.623 1.073 2.62 2.543 4.997 4.013 7.385.398.641.83 1.271 1.194 1.934.166.288.288.321.564.155l6.313-3.504c1.614-.885 3.051-1.99 4.311-3.328.841-.896 1.36-1.957 1.714-3.162.299-1.006.553-1.99.464-3.14l1.205.299c.343 2.432-.022 4.687-1.503 6.655-.896 1.172-2.112 2.001-3.394 2.72-2.167 1.26-4.367 2.454-6.545 3.67zm12.238-.077l3.328-3.947 2.3 1.426-6.037 6.467-6.036-6.467 2.311-1.448 2.564 3.129c.266.32.531.641.83.939.276.288.508.177.74-.099zm-.409-.188l-3.327-4.035 1.724-1.548 1.205 1.503c.277.354.531.332.796-.011l1.194-1.503 1.725 1.548-3.317 4.046zm-.011-4.257l-1.161-1.636c-.055-.077-.044-.232-.011-.32l1.183-2.554 1.227 2.808-1.238 1.702zm4.754 7.673L146.293 150c-.265.277-.497.387-.807.067l-3.946-4.025-4.511-4.764c.719-.41 1.36-.785 2.023-1.117a.59.59 0 0 1 .531.11l5.693 6.147c.542.586.619.586 1.161 0l3.925-4.245c.564-.608 1.139-1.205 1.68-1.835.221-.266.431-.31.719-.144l1.923 1.106-4.079 4.245zm13.698-6.578l-3.217 5.362-7.408-4.201c-1.359-.774-2.73-1.515-4.046-2.355-2.178-1.393-3.217-3.516-3.538-6.025-.055-.453.056-.929.078-1.393.011-.31-.155-.796-.022-.885.342-.221.796-.276 1.249-.398.033.553.022 1.051.1 1.548.397 2.775 1.813 4.942 4.09 6.534 1.194.829 2.432 1.592 3.681 2.344 1.029.619 2.09 1.171 3.14 1.746.619.343 1.238.675 1.88.973.121.056.409-.022.464-.132l4.665-7.971c.785-1.438 1.305-3.041 1.338-4.71.011-.707-.221-1.426-.299-2.145-.121-1.061-.519-2.001-1.16-2.951l1.249-.376c1.271 1.746 2.134 3.626 2.056 5.848a7.02 7.02 0 0 1-.862 3.184c-1.106 2.023-2.266 4.013-3.438 6.003zm4.554-11.774l1.194.929c.288.221.586.431.907.597.243.132.365.265.332.552-.078.575-.133 1.15-.21 1.825l-1.858-.83c-.077-.033-.121-.188-.132-.298l-.233-2.775zm4.765 7.672l.951-5.14h2.698l-1.99 8.667-8.469-2.587 1.294-2.41 3.162 1.205a28.85 28.85 0 0 0 1.879.619c.298.089.42-.044.475-.354zm6.844-5.185l-3.085 12.305c-4.101-1.194-8.192-2.134-12.205-3.56l1.26-2.189c.708.188 1.371.332 2.001.531l6.446 2.023c.762.243.751.232.928-.575l1.36-5.914.52-2.223c.055-.276.166-.42.475-.42.719.034 1.437.022 2.3.022zm-6.722-.121a.47.47 0 0 1 .254.354l-.785 4.875-4.886-1.824.696-2.211 2.377.94.398-2.521c.63.122 1.294.232 1.946.387zm13.841-7.098l-.077 5.417c0 .421.077.852.121 1.25-2.166 0-4.333-.022-6.489.011-1.305.022-2.62.199-3.925.143-1.923-.077-3.913.045-5.715-.84-1.504-.74-2.775-1.769-3.538-3.327-.254-.509-.564-.995-.829-1.449l.873-.961c.409.574.73 1.182 1.183 1.658 1.238 1.293 2.587 2.432 4.422 2.852 1.935.453 3.881.608 5.86.586l5.638-.077a3.74 3.74 0 0 0 .774-.1.36.36 0 0 0 .221-.232 3.42 3.42 0 0 0 .077-.674l.078-7.142c-.023-1.891-.244-3.759-.929-5.528-.376-.962-.907-1.824-1.736-2.487-.298-.244-.497-.619-.796-.874-.497-.398-1.028-.74-1.614-1.149l1.039-.907c.907.619 1.968 1.205 2.875 1.979 1.382 1.194 2.2 2.742 2.421 4.588.188 1.548.265 3.095.11 4.654-.099.874-.033 1.747-.044 2.609zm5.627-7.738l-2.653.508c-.641.111-1.304.177-1.946.299-.387.066-.608.055-.652-.443-.055-.575-.243-1.149-.376-1.724l2.499-.409c-.177-.498-.288-.874-.431-1.239s-.321-.729-.498-1.127l2.233-.73 1.824 4.865zm-1.348-5.075l2.377-1.282 2.586 8.468-8.601 1.99-.143-2.72 4.179-.696c.309-.055.608-.166.917-.199.487-.044.586-.265.431-.697l-1.746-4.864zm-3.383.973a.33.33 0 0 1 .232.166c.276.586.531 1.194.829 1.857l-1.736.166c-.32.033-.508-.077-.696-.365-.431-.641-.929-1.238-1.404-1.857-.044-.066-.078-.144-.1-.177l2.875.21zm11.939 8.314l-12.293 3.084.011-2.355a.49.49 0 0 1 .298-.365l8.292-1.912c.696-.155.73-.177.509-.885l-2.2-7.086c-.111-.365-.244-.73-.277-1.106-.011-.188.155-.453.321-.563.541-.354 1.105-.642 1.769-1.017 1.448 4.002 2.377 8.103 3.57 12.205zm-10.767-29.794c-.675-.122-1.371-.177-2.101-.265.066-.309.122-.663.232-.995.033-.111.232-.221.354-.232.553-.033 1.117-.088 1.647-.011.896.133 1.802.299 2.676.564 2.034.63 3.338 2.145 4.355 3.892 1.404 2.41 2.731 4.875 4.102 7.308l1.846 3.228-3.935 2.333-5.572 3.36c-1.427.83-2.908 1.559-4.577 1.78-1.073.133-2.134.023-3.118-.364-1.105-.432-2.145-1.006-3.25-1.526l.387-1.294c.121.045.254.045.331.111.94.741 2.101.884 3.206 1.128 1.659.364 3.251.022 4.821-.586 2.786-1.073 5.273-2.698 7.805-4.234l1.614-1.018c.232-.143.32-.232.155-.519-.708-1.272-1.338-2.576-2.068-3.836-.851-1.492-1.702-2.985-2.675-4.4-.84-1.227-1.791-2.41-3.107-3.184-.663-.387-1.415-.619-2.122-.907-.31-.111-.653-.265-1.006-.332zm-2.875 1.736c.365-.741 1.139-.884 1.835-.851.874.033 1.736.254 2.587.453.431.1.829.321 1.139.442-1.094.608-2.233 1.194-3.328 1.868-.696.42-1.315.962-1.967 1.437-.686.498-1.46.685-2.3.708-.564.022-1.117.1-1.68.155 1.702-1.028 2.863-2.476 3.714-4.212zm3.04 1.946c.94-.608 1.891-1.216 3.074-1.316.464-.033.752.122 1.028.431l1.758 2.012c-1.791.044-3.284.686-4.798 1.293-.984.387-1.99.597-3.041.387-.442-.088-.862-.321-1.315-.486 1.139-.807 2.189-1.603 3.294-2.322zm-2.31 4.046c.387.398.685.885.973 1.371.276.453.077.84-.299 1.128-1.05.796-2.233.95-3.493.707-1.338-.265-2.377-1.083-3.394-1.923-.73-.597-1.415-1.238-2.079-1.824 1.316-.243 2.687-.597 4.08-.741 1.536-.166 3.051.077 4.212 1.282zm-17.169-8.9c.044-.122.188-.321.287-.31.608.033 1.205.111 1.802.166 1.349.133 2.433.851 3.461 1.658.696.553 1.061 1.338 1.282 2.156.221.829.354 1.691.453 2.543.166 1.426-.387 2.653-1.238 3.748-.73.94-1.481 1.857-2.598 2.355-.475.221-1.006.365-1.526.431-1.724.222-3.294-.287-4.753-1.16-.111-.066-.155-.343-.144-.52.066-.851.221-1.703.221-2.554 0-.951-.442-1.769-.984-2.532l-.475-.674 3.714.929c.144.044.288.332.31.52.221 1.404 1.039 2.366 2.377 2.675 1.846.431 3.626-.542 3.582-2.83-.022-1.36-.885-2.045-1.902-2.465s-2.122-.243-3.051.475c-.133.111-.321.199-.387.343-.31.685-.763.586-1.349.376-.962-.332-1.957-.575-3.073-.896.276-.122.431-.199.597-.254 1.924-.73 2.786-2.344 3.394-4.179zm1.868 4.676c1.084-.21 2.466.287 2.93 1.061.475.796.121 1.548-.188 2.277-.321.763-1.05.752-1.736.752-1.26 0-2.233-.663-2.509-1.692a1.97 1.97 0 0 1 1.503-2.399zm-13.034-3.925c.044-.099.111-.232.177-.376.332-.752.32-.708 1.15-.498 1.304.309 2.73 2.145 2.531 3.494-.143.973-.453 1.824-1.326 2.388-1.239.796-2.421.907-3.826.321l.166-1.139c.597.044 1.194.111 1.791.122.852.022 1.559-.464 1.769-1.172.31-1.072.111-1.802-.73-2.311-.519-.321-1.105-.553-1.702-.829zm-.42.575a.27.27 0 0 1 .243-.022c.63.276 1.305.486 1.846.884.531.387.597 1.028.288 1.647-.277.553-.763.796-1.36.774-.431-.011-.862-.066-1.282-.122-.299-.044-.465-.188-.631-.498-.309-.542-.785-.984-1.205-1.459-.11-.122-.265-.199-.508-.365 1.05 0 1.901-.21 2.609-.84zm-6.246-1.57c.044-.066.188-.088.276-.088 1.083-.055 2.2.818 2.377 1.868.099.608-.343.906-.752 1.183-.674.464-1.846.409-2.498-.088-.067-.044-.144-.111-.166-.177-.376-1.017-.376-1.017-1.117-1.725.708-.232 1.448-.299 1.88-.973zm-15.942 1.769c.166-1.05 1.282-1.924 2.377-1.868.099 0 .243.033.276.088.431.685 1.172.741 1.879.962-.508.531-1.127.918-1.127 1.725 0 .077-.122.155-.199.21-.94.641-2.388.442-3.063-.453-.132-.144-.176-.442-.143-.663zm-3.184.066c.597.365 1.326.486 2.012.719-.785.387-1.338 1.072-1.669 1.924-.023.055-.089.122-.144.144-.785.199-1.581.42-2.377.066-.564-.243-.774-.741-.785-1.305-.022-.542.31-.94.752-1.227.243-.155.541-.232.796-.376.486-.254.884-.276 1.415.055zm-2.432-1.625c1.149-.442 1.16-.42 1.569.796-.563.265-1.149.498-1.669.818-.873.542-1.072 1.282-.73 2.355.233.707.918 1.161 1.803 1.139.585-.011 1.16-.077 1.746-.122l.177 1.15c-.718.276-1.481.509-2.277.31-1.139-.288-2.123-.785-2.631-1.979-.852-2.001.552-3.903 2.012-4.466zM114.1 93.927a16.66 16.66 0 0 1 .675-2.919c.331-1.006 1.127-1.636 2.001-2.233 1.326-.895 2.808-1.017 4.311-1.128.089-.011.255.177.288.309.453 1.327.95 2.631 2.144 3.483.531.376 1.139.641 1.769.995l-2.83.829c-.133.044-.276.055-.398.111-.409.21-.685.166-.973-.254-.939-1.36-3.383-1.614-4.731-.254-1.239 1.249-.863 3.272.265 4.079 1.05.752 2.62.962 3.88-.232.575-.542.984-1.161 1.051-1.968.033-.387.232-.531.608-.608 1.116-.243 2.211-.542 3.36-.84-.375.641-.74 1.194-1.039 1.78-.486.951-.42 1.979-.32 3.007 0 .033.022.066.033.1.276 1.349.276 1.349-.995 1.923-1.437.642-2.908.83-4.467.487-1.216-.266-2.045-1.061-2.83-1.935-.342-.387-.641-.818-.939-1.238-.752-1.039-1.029-2.233-.863-3.493zm6.965.807c-.077.84-.586 1.404-1.315 1.736-.398.177-.852.232-1.283.343-1.47-.077-2.377-1.183-2.1-2.631.132-.697.729-.995 1.271-1.282.796-.431 1.636-.475 2.432-.022.708.398 1.073 1.039.995 1.857zm-10.735 1.183l2.211.42c-1.028.851-2.056 1.769-3.15 2.609-1.449 1.127-3.085 1.558-4.887.973-.387-.122-.74-.376-1.061-.63a.77.77 0 0 1-.254-.973c.63-1.603 1.901-2.355 3.504-2.675 1.238-.254 2.432.066 3.637.276zm-9.375-.619c-1.271-.453-2.564-.84-3.847-1.238-.287-.089-.619-.077-1.017-.122l1.57-1.913c.652-.796 1.526-.641 2.211-.276 1.371.73 2.653 1.625 3.958 2.454.431.276.851.586 1.304.895-1.359.84-2.741.707-4.179.199zm2.698-5.218c.597.122 1.083.365 1.371.962.818 1.68 1.968 3.062 3.759 4.002-.221.033-.321.055-.42.055l-1.703-.166a4.19 4.19 0 0 1-2.333-.94c-1.536-1.271-3.173-2.344-5.118-3.007 1.448-.619 2.852-1.227 4.444-.906zm-10.856 5.716c.84-1.493 1.68-2.996 2.587-4.455 1.393-2.244 3.527-3.372 6.091-3.704.73-.099 1.481-.022 2.222 0 .078 0 .188.1.21.177.1.365.177.73.255 1.072-.653.077-1.272.099-1.891.221-2.377.442-4.289 1.614-5.782 3.549-1.515 1.957-2.697 4.113-3.891 6.268l-1.537 2.875c-.144.254-.111.376.144.53l3.306 2.057c1.493.873 2.996 1.758 4.544 2.531 1.492.741 3.051 1.338 4.754 1.371.685.011 1.371-.121 2.045-.232.542-.088 1.083-.221 1.603-.409.509-.188.984-.475 1.537-.741l.365 1.228c-1.206.608-2.267 1.459-3.66 1.779-1.901.432-3.692.244-5.395-.63-1.26-.641-2.476-1.393-3.703-2.111l-5.329-3.162c-.796-.475-1.625-.907-2.344-1.316l3.869-6.898z" fill="#fff" fill-opacity=".06"/></g><path d="M120.318 147.84l-1.266-4.589c2.893-.538 7.686-3.683 8.319-6.652.694-3.241-1.505-5.611-2.002-8.538l4.371-1.689c6.616 8.92 1.089 20.025-9.428 21.468h.006z" fill="#fff"/><path d="M151.209 139.951c1.232 1.382 4.152 1.375 5.31-.15 1.878-2.478 2.246-5.515 5.139-7.517 6.168-4.276 13.342 3.364 10.742 9.9-2.056 5.155-8.216 4.406-12.308 2.159-3.465 2.308-7.93 2.771-11.313.054-3.281 2.261-7.073 2.37-10.872 1.478-.735-.171-3.383-.797-3.219-1.737l1.654-4.065c2.164.933 9.544 2.091 8.672-1.702-.497-2.172-4.05-6.877-4.057-7.803 0-.654 3.057-2.737 3.601-2.751 1.368-.027 4.05 5.42 4.636 6.775s1.15 4.399 2.015 5.366v-.007zm13.22-3.636c-3.778 3.745-1.26 5.147 3.131 4.405 1.287-.844-.279-3.922-1.572-4.385l-1.559-.02z" fill="#fff"/><path d="M170.431 148.306c1.606 5.59 4.384 14.21-2.941 16.668-2.492.838-7.549 1.137-8.448-1.906h-.626c-.388.17-.47.871-.763 1.13-2.314 2.07-9.019 1.941-10.626-1.13-2.546 2.873-8.039 3.152-11.416 1.709-1.32-.565-2.804-2.417-3.492-3.684-1.205-2.219-1.416-6.455-5.282-4.303-3.104 1.73-1.784 4.358-1.11 7.115-1.47-.095-4.111 1.921-4.99.143-3.71-7.517 3.057-13.978 10.593-12.698 5.316.898 3.58 7.857 7.345 8.681 5.622 1.233 5.868-2.165 6.453-6.666l5.065.851c-.422 1.151-1.049 4.467-.341 5.4l4.275.436c2.206-.647 1.886-6.837 3.057-7.068l4.397.817c-.122 2.145-1.668 4.977.701 6.257 1.559.15 3.336.361 4.582-.755 1.382-2.125-2.124-9.193-1.484-9.703l5.044-1.273.007-.021z" fill="#fff"/></g></g></g><rect x="98.222" y="98.222" width="95.556" height="95.556" rx="47.778" stroke="#fff" stroke-width="3.822"/></g><g fill="#171717"><path d="M38.547 153l-3.74-14.2h1.88l2.92 11.84 2.9-11.84h1.96l2.92 11.84 2.9-11.84h1.9l-3.74 14.2h-2.16l-2.8-11-2.8 11h-2.14zm208.768 0v-14.2h8.92v1.68h-7.2v4.58h6.96v1.64h-6.96v4.62h7.36V153h-9.08z"/></g><path d="M139.513 51V36.8h3.36l5.64 9.8v-9.8h3.04V51h-3.4l-5.6-9.46V51h-3.04z" fill="#d92d20"/><path d="M145.857 255.32c-1.093 0-2.047-.207-2.86-.62s-1.46-.98-1.94-1.7c-.467-.733-.74-1.58-.82-2.54l1.8-.12c.093.707.3 1.307.62 1.8s.747.867 1.28 1.12c.547.253 1.2.38 1.96.38.667 0 1.233-.087 1.7-.26s.82-.427 1.06-.76c.253-.333.38-.74.38-1.22 0-.44-.107-.827-.32-1.16-.2-.347-.593-.66-1.18-.94-.573-.293-1.427-.58-2.56-.86-1.093-.28-1.967-.587-2.62-.92-.64-.333-1.107-.74-1.4-1.22-.28-.48-.42-1.073-.42-1.78 0-.8.187-1.5.56-2.1.387-.613.933-1.087 1.64-1.42.707-.347 1.547-.52 2.52-.52 1.04 0 1.933.2 2.68.6a4.59 4.59 0 0 1 1.78 1.6c.44.68.713 1.453.82 2.32l-1.8.12c-.08-.573-.267-1.08-.56-1.52a2.88 2.88 0 0 0-1.16-1.06c-.493-.253-1.093-.38-1.8-.38-.88 0-1.58.213-2.1.64a1.99 1.99 0 0 0-.78 1.64c0 .44.1.807.3 1.1.213.28.587.533 1.12.76.533.213 1.3.447 2.3.7 1.187.293 2.127.647 2.82 1.06.707.4 1.207.867 1.5 1.4.307.533.46 1.14.46 1.82 0 .827-.213 1.547-.64 2.16-.427.6-1.013 1.067-1.76 1.4-.747.32-1.607.48-2.58.48z" fill="#171717"/></g><rect x="3" y="3" width="286" height="286" rx="143" stroke="#e2d5f6" stroke-width="6"/><defs><filter id="A" x="60" y="60" width="178.986" height="182.479" filterUnits="userSpaceOnUse" color-interpolation-filters="sRGB"><feFlood flood-opacity="0"/><feBlend in="SourceGraphic" result="B"/><feColorMatrix in="SourceAlpha" values="0 0 0 0 0 0 0 0 0 0 0 0 0 0 0 0 0 0 127 0" result="C"/><feOffset dx="6.98603" dy="10.4791"/><feGaussianBlur stdDeviation="8.733"/><feComposite in2="C" operator="arithmetic" k2="-1" k3="1"/><feColorMatrix values="0 0 0 0 0.886275 0 0 0 0 0.835294 0 0 0 0 0.964706 0 0 0 1 0"/><feBlend in2="B"/></filter><linearGradient id="B" x1="113.016" y1="71.108" x2="184.804" y2="187.753" gradientUnits="userSpaceOnUse"><stop stop-color="#5724a9"/><stop offset="1" stop-color="#421984"/></linearGradient><clipPath id="C"><rect x="6" y="6" width="280" height="280" rx="140" fill="#fff"/></clipPath><clipPath id="D"><rect x="100.133" y="100.133" width="91.733" height="91.733" rx="45.867" fill="#fff"/></clipPath><clipPath id="E"><rect x="100.133" y="100.133" width="91.733" height="91.733" rx="45.867" fill="#fff"/></clipPath><clipPath id="F"><rect x="99.988" y="100.133" width="91.733" height="91.733" rx="25.36" fill="#fff"/></clipPath><clipPath id="G"><path fill="#fff" transform="matrix(0 -1 1 0 96.0816 148.561)" d="M0 0h61.311v99.546H0z"/></clipPath></defs></svg>