<svg width="100" height="100" viewBox="0 0 100 100" fill="none" xmlns="http://www.w3.org/2000/svg">
<g clip-path="url(#clip0_1392_237453)">
<rect x="4.13333" y="4.13336" width="91.7333" height="91.7333" rx="45.8667" fill="white"/>
<g clip-path="url(#clip1_1392_237453)">
<rect x="4.13333" y="4.13336" width="91.7333" height="91.7333" rx="45.8667" fill="url(#paint0_linear_1392_237453)"/>
<g clip-path="url(#clip2_1392_237453)">
<rect x="3.98779" y="4.13342" width="91.7333" height="91.7333" rx="25.3597" fill="#6D2DD3"/>
<g clip-path="url(#clip3_1392_237453)">
<path d="M-13.3522 -8.14198C-11.3844 -6.2294 -9.44966 -4.27259 -7.48181 -2.36002C-6.52 -1.43137 -5.51396 -0.535878 -4.50792 0.337493C-4.25365 0.558601 -4.27576 0.713375 -4.40842 0.956592C-4.77325 1.60886 -5.10491 2.27219 -5.48079 2.92445C-6.19939 4.17371 -6.75216 5.5114 -7.76925 6.58377C-8.01247 6.83805 -7.84664 7.01492 -7.5592 7.11442C-5.46974 7.87724 -3.73404 9.28128 -1.82147 10.3647C-1.72197 10.42 -1.65564 10.6521 -1.68881 10.7738C-2.3079 12.8301 -2.96017 14.8753 -3.56821 16.9316C-4.14309 18.8884 -4.65164 20.8673 -5.19335 22.8352C-5.27074 23.1226 -5.21546 23.2884 -4.89486 23.3658C-4.05465 23.5759 -3.2255 23.808 -2.38529 24.0291C-0.881764 24.4271 0.621764 24.8472 2.1474 25.2121C3.84993 25.6211 5.55245 25.9749 7.26603 26.3397C7.56453 26.406 7.65297 26.5608 7.65297 26.8482C7.64192 27.6111 7.66403 28.3849 7.65297 29.1478C7.63086 30.5297 7.6198 31.9005 7.54242 33.2825C7.5203 33.7247 7.63086 33.8021 8.02885 33.7468C8.71428 33.6583 9.41077 33.5699 10.0962 33.5699C11.3786 33.5588 12.661 33.6252 13.9435 33.6473C14.8058 33.6583 14.7947 33.6583 14.9937 34.4986C15.4912 36.5991 15.9998 38.6996 16.5194 40.789C16.9616 42.569 17.448 44.3378 17.9013 46.1067C17.9787 46.3941 18.0892 46.5931 18.4319 46.4936C18.8742 46.361 19.3274 46.2172 19.7807 46.0956C21.5274 45.6092 23.2852 45.1338 25.032 44.6363C26.823 44.1167 28.6139 43.575 30.4049 43.0112C30.7034 42.9117 30.8471 42.9338 30.9908 43.1991C32.0411 45.1117 33.4451 46.8253 34.1748 48.9147C34.2853 49.2132 34.4843 49.2685 34.7386 49.0474C34.8491 48.959 34.9376 48.8595 35.0592 48.7821C36.8391 47.7429 38.619 46.7037 40.41 45.6866C40.5205 45.6313 40.7969 45.7197 40.8964 45.8303C41.7145 46.7037 42.4884 47.6323 43.3175 48.4836C45.3186 50.5399 47.3417 52.5741 49.3538 54.6082C49.8513 55.1168 49.8513 55.1168 50.3709 54.5861C52.195 52.7288 54.0412 50.8826 55.8543 49.0142C56.8382 48.0082 57.789 46.969 58.7066 45.8966C58.9719 45.5871 59.1599 45.5318 59.4694 45.7418C59.58 45.8192 59.7126 45.8635 59.8342 45.9408C61.5478 46.9801 63.4715 47.6986 64.9971 49.0585C65.2514 49.2796 65.4393 49.169 65.5499 48.8705C66.3016 46.77 67.7056 45.0343 68.7891 43.1217C68.8444 43.0222 69.0765 42.9338 69.1871 42.967C71.3318 43.5971 73.4544 44.2825 75.5992 44.9016C77.3459 45.4102 79.1037 45.8524 80.8615 46.3278C81.6686 46.5489 81.6575 46.5489 81.8565 45.775C82.4093 43.6524 83.0063 41.5298 83.5369 39.4071C83.9791 37.6162 84.344 35.8031 84.7751 34.0011C84.8083 33.8573 85.0294 33.6694 85.1621 33.6583C86.1128 33.6141 87.0636 33.5699 88.0254 33.592C89.2746 33.6141 90.5128 33.7026 91.7511 33.7578C92.0827 33.7799 92.2596 33.6915 92.1601 33.3046C92.0938 33.0724 92.0385 32.8292 92.0385 32.586C92.0274 30.6402 92.0385 28.6945 92.0274 26.7487C92.0274 26.4392 92.2043 26.3729 92.4365 26.3286C93.8073 26.0412 95.1893 25.798 96.5491 25.4553C99.2024 24.7919 101.845 24.0512 104.487 23.3769C104.896 23.2774 104.94 23.0894 104.841 22.7467C104.443 21.3537 104.056 19.9497 103.658 18.5567C102.906 15.9808 102.143 13.4049 101.413 10.829C101.369 10.6853 101.447 10.4089 101.557 10.3426C103.448 9.25916 105.172 7.87724 107.251 7.11442C107.66 6.95964 107.649 6.78276 107.383 6.47321C107.041 6.08627 106.709 5.67722 106.455 5.22395C105.725 3.94153 105.017 2.64806 104.321 1.34352C103.934 0.613871 103.945 0.602819 104.608 0.0611057C104.675 0.00583075 104.73 -0.0604992 104.796 -0.115778C106.311 -1.57509 107.826 -3.0344 109.329 -4.50477C110.589 -5.73191 111.828 -6.9701 113.099 -8.18619C113.254 -8.34097 113.342 -8.46258 113.342 -8.59525L112.601 -8.59525C112.601 -8.39625 112.402 -8.2083 112.004 -7.79925C110.39 -6.18517 108.798 -4.56004 107.162 -2.96807C106.057 -1.8957 104.885 -0.889654 103.669 0.215883C103.271 -0.513769 102.906 -1.16604 102.574 -1.82936C102.519 -1.93992 102.552 -2.18313 102.641 -2.26052C104.034 -3.56505 105.427 -4.85854 106.831 -6.16307C107.56 -6.83745 108.279 -7.52287 109.02 -8.18619C109.185 -8.32991 109.274 -8.46258 109.263 -8.59525L108.688 -8.59525C106.543 -6.58317 104.409 -4.5932 102.22 -2.54796C101.734 -3.32184 101.259 -4.09571 100.783 -4.86958C101.822 -5.72085 102.851 -6.57211 103.868 -7.41232C104.188 -7.67764 104.509 -7.94298 104.807 -8.23042C104.929 -8.35203 104.995 -8.47364 104.984 -8.5842L104.465 -8.5842C104.089 -8.24148 103.757 -7.89876 103.392 -7.60027C102.596 -6.93694 101.778 -6.28467 100.971 -5.63241C100.662 -5.37813 100.43 -5.2123 100.109 -5.68768C99.7994 -6.16306 99.3461 -6.55001 98.9481 -6.98117C99.4677 -7.39022 99.9652 -7.79926 100.474 -8.19726C100.651 -8.32992 100.728 -8.46259 100.728 -8.5842L100.297 -8.5842C99.6888 -8.14198 99.1692 -7.77714 98.6496 -7.41232C98.5833 -7.3681 98.4395 -7.34599 98.3732 -7.39021C97.4888 -7.79926 96.6043 -8.21937 95.8305 -8.5842C95.8305 -8.5842 95.8305 -8.5842 95.8415 -8.5842L91.2757 -8.5842C91.2646 -8.05354 91.1651 -7.53393 90.9993 -6.99222C90.5239 -5.45553 89.8053 -4.0736 88.7329 -2.87962C87.9148 -1.97308 86.8646 -1.3982 85.7701 -0.889653C84.6093 -0.347939 83.3821 -0.381104 82.1218 -0.447438C82.1218 -1.04443 82.1218 -1.63037 82.1218 -2.24947C82.7078 -2.39319 83.3158 -2.49269 83.9017 -2.68063C86.6324 -3.58717 88.4013 -5.4113 89.0535 -8.21937C89.0757 -8.34097 89.0978 -8.45152 89.1088 -8.57313L88.5782 -8.57313C88.5892 -7.75503 88.2576 -7.02539 87.8264 -6.3289C86.7098 -4.53793 85.1399 -3.31078 83.0063 -2.92384C82.7078 -2.86857 82.3982 -2.83541 82.0334 -2.78013C81.8786 -3.47662 81.7349 -4.10677 81.5801 -4.7922C81.8786 -4.86959 82.1661 -4.95803 82.4646 -5.03541C83.7912 -5.38919 84.8967 -6.06357 85.5711 -7.29071C85.8143 -7.73293 85.947 -8.16408 85.9691 -8.57313L85.5048 -8.57313C85.5158 -7.89875 85.1289 -7.29071 84.4435 -6.61634C83.6696 -5.85352 82.6525 -5.52185 81.6022 -5.3118C81.4917 -5.28969 81.3148 -5.3892 81.2485 -5.48869C80.961 -5.89774 80.6957 -6.31784 80.4635 -6.67161C81.0937 -6.95905 81.7459 -7.18016 82.3208 -7.54499C82.763 -7.82137 82.9841 -8.19725 82.9841 -8.56208L82.2987 -8.56208C82.2877 -8.39624 82.1992 -8.23041 82.0444 -8.07564C81.4253 -7.44548 80.6294 -7.2465 79.8113 -7.25755C79.4464 -7.25755 79.0927 -7.63343 78.7168 -7.82137C78.164 -8.09776 77.6002 -8.35203 77.1911 -8.55102C77.2022 -8.56208 77.2133 -8.56207 77.2243 -8.57313L73.8082 -8.57313C73.8082 -7.11382 73.0675 -5.9088 71.9841 -4.9912C70.8233 -4.00727 69.4413 -3.71983 67.9268 -4.0736C67.6062 -4.15099 67.4845 -4.25048 67.5067 -4.58215C67.5288 -4.8917 67.5067 -5.20124 67.5067 -5.53291C68.0815 -5.53291 68.579 -5.52185 69.0765 -5.53291C70.8454 -5.57713 72.0393 -6.6495 72.4263 -7.94298C72.4926 -8.15303 72.5147 -8.37414 72.5258 -8.58419L72.0172 -8.58419C72.0172 -7.72188 71.4755 -6.89272 70.6243 -6.4284C69.6182 -5.88669 68.5237 -5.9309 67.4293 -6.08567C67.3519 -6.09673 67.2634 -6.19624 67.2082 -6.27362C66.9428 -6.67162 66.6886 -7.08067 66.4011 -7.53394C66.9428 -7.44549 67.4624 -7.30177 67.982 -7.29071C68.5237 -7.27966 69.0876 -7.32388 69.6072 -7.45654C70.0715 -7.57815 70.4032 -8.11986 70.3921 -8.57313L69.8725 -8.57313C69.8725 -8.34097 69.6072 -8.02036 69.375 -7.89875C69.0986 -7.75504 68.7338 -7.72187 68.4243 -7.73293C67.3408 -7.77715 66.3016 -8.02037 65.3287 -8.49575C65.3066 -8.5068 65.2956 -8.52892 65.2845 -8.58419L63.0513 -8.58419C63.0513 -8.53997 63.0513 -8.4847 63.0513 -8.42942C63.0182 -7.39021 62.0232 -6.4284 60.984 -6.38417C60.796 -6.37312 60.6081 -6.31784 60.4202 -6.31784C60.0332 -6.30679 59.6905 -6.3289 59.5579 -6.82639C59.3478 -7.63343 58.8393 -8.21936 57.988 -8.57313L57.999 -8.57313L56.0201 -8.57313C56.0201 -8.57313 56.0201 -8.57313 56.0201 -8.56208C56.0201 -8.39624 55.799 -8.17514 55.6221 -8.09775C54.3618 -7.53393 53.2231 -7.96508 51.9739 -8.57313L47.7507 -8.57313C47.7618 -8.57313 47.7728 -8.56208 47.7839 -8.56208C46.5457 -8.03142 45.4512 -7.53392 44.2241 -8.07564C44.014 -8.16408 43.8593 -8.39624 43.6824 -8.56208C43.6934 -8.57313 43.6934 -8.57314 43.7045 -8.58419L41.7256 -8.58419C41.7256 -8.58419 41.7366 -8.58418 41.7366 -8.57313C40.8743 -8.2083 40.3879 -7.57815 40.1336 -6.74899C40.0783 -6.58316 39.8572 -6.38418 39.6914 -6.37312C38.8733 -6.29573 37.7456 -6.48367 37.1708 -7.22438C36.8502 -7.63343 36.7064 -8.10881 36.7064 -8.58419L34.4733 -8.58419C34.4843 -8.51786 34.4843 -8.46258 34.4954 -8.39624C33.5114 -8.17514 32.5275 -7.90982 31.5325 -7.75504C31.1456 -7.68871 30.6813 -7.7661 30.3164 -7.92087C30.0953 -8.00931 29.8742 -8.34098 29.8521 -8.58419L29.2993 -8.58419C29.2993 -8.56208 29.2993 -8.55103 29.2993 -8.52892C29.3215 -8.05354 29.7084 -7.50077 30.2501 -7.42338C30.9134 -7.32388 31.6099 -7.35705 32.2843 -7.36811C32.616 -7.37916 32.9587 -7.47866 33.3014 -7.53393C33.025 -7.10277 32.815 -6.6495 32.4943 -6.30678C32.3064 -6.10778 31.9305 -6.05251 31.632 -6.01934C30.3164 -5.88668 29.1114 -6.07462 28.2049 -7.1691C27.829 -7.62237 27.6742 -8.09775 27.6853 -8.57313L27.1878 -8.57313C27.1657 -7.96508 27.4199 -7.42338 27.7958 -6.92589C28.5255 -5.96407 29.5315 -5.52185 30.7365 -5.52185C31.2009 -5.52185 31.6652 -5.52185 32.2069 -5.52185C32.2069 -5.15702 32.229 -4.75903 32.1959 -4.36104C32.1848 -4.26154 32.019 -4.12887 31.8974 -4.09571C29.5978 -3.47661 27.3426 -4.65953 26.5355 -6.52788C26.2812 -7.12488 25.9054 -7.74399 25.8832 -8.36308C25.8832 -8.42942 25.8832 -8.5068 25.8832 -8.57313L22.4561 -8.57313C22.4671 -8.57313 22.4782 -8.56207 22.4782 -8.56207C21.9365 -8.28569 21.2068 -7.97614 20.5325 -7.56709C20.0902 -7.29071 19.6591 -7.14699 19.1837 -7.34598C18.6641 -7.55604 18.1445 -7.79926 17.6802 -8.10881C17.4922 -8.24147 17.4038 -8.4073 17.4259 -8.57313L16.7294 -8.57313C16.7294 -8.19724 16.9837 -7.82137 17.4922 -7.50076C18.0339 -7.15804 18.6641 -6.94799 19.2611 -6.68266C18.9847 -6.27361 18.6641 -5.78719 18.3214 -5.26758C16.641 -5.59924 15.1264 -6.17412 14.3636 -7.92087C14.2641 -8.14198 14.2198 -8.35202 14.2198 -8.56207L13.7334 -8.56207C13.7113 -7.81031 14.1314 -7.18016 14.6178 -6.60528C15.3254 -5.76507 16.254 -5.22336 17.3485 -5.01331C17.6138 -4.95803 17.8792 -4.85853 18.1445 -4.78114C17.9787 -4.09571 17.8349 -3.4545 17.6802 -2.79118C14.9827 -2.96807 13.0811 -4.34998 11.7434 -6.52788C11.3233 -7.21332 11.1354 -7.89875 11.1465 -8.56207L10.649 -8.56207C10.6379 -7.73292 10.9585 -6.97011 11.3455 -6.28467C12.2631 -4.68165 13.5897 -3.4545 15.3475 -2.80223C15.9224 -2.59218 16.5525 -2.49268 17.1606 -2.37107C17.4701 -2.3158 17.6581 -2.22736 17.636 -1.85148C17.6028 -1.38715 17.6249 -0.922823 17.6249 -0.469553C15.2812 -0.115781 13.3244 -0.867547 11.5997 -2.30474C9.86404 -3.74194 9.01278 -5.70979 8.49317 -7.82137C8.4379 -8.05353 8.41579 -8.3078 8.42684 -8.56207L3.87204 -8.56207C3.87204 -8.56207 3.87204 -8.56207 3.88309 -8.56207C3.12027 -8.2083 2.25796 -7.79925 1.39564 -7.40126C1.29614 -7.35704 1.1082 -7.35704 1.01976 -7.41231C0.500154 -7.75503 0.00266393 -8.11986 -0.594325 -8.55102C-0.594325 -8.55102 -0.583271 -8.55102 -0.583271 -8.56207L-1.04759 -8.56207C-1.04759 -8.37413 -0.804376 -8.19725 -0.317941 -7.76609C0.0137199 -7.4676 0.411712 -7.23544 0.754428 -6.99222C0.234826 -6.41734 -0.251608 -5.86456 -0.815432 -5.24546C-2.15313 -6.351 -3.45766 -7.42337 -4.85064 -8.57312L-5.33707 -8.57312C-5.33707 -8.45152 -5.25969 -8.32991 -5.11597 -8.20831C-3.78932 -7.09171 -2.46268 -5.97512 -1.10287 -4.83642C-1.55614 -4.09571 -2.03152 -3.33289 -2.52901 -2.52585C-4.70692 -4.56004 -6.82955 -6.55 -8.9964 -8.56207L-9.59338 -8.56207C-9.59338 -8.4073 -9.44966 -8.25253 -9.14011 -7.97615C-7.71397 -6.67162 -6.30994 -5.35601 -4.89486 -4.04043C-4.28681 -3.4766 -3.68982 -2.90173 -3.05967 -2.34897C-2.82751 -2.14997 -2.72801 -1.98414 -2.90489 -1.6967C-3.26972 -1.08865 -3.60138 -0.458497 -4.03254 0.304325C-7.10593 -2.68062 -10.1019 -5.58818 -13.1753 -8.56207L-13.6286 -8.56207C-13.6286 -8.46257 -13.5291 -8.31886 -13.3522 -8.14198ZM-4.71797 22.9015C-3.55716 18.8331 -2.41846 14.7979 -1.24659 10.6853C-0.527993 11.0944 0.0468856 11.415 0.610708 11.7356C0.931314 11.9235 1.04187 12.1446 0.909203 12.5426C0.0689958 15.207 -0.726988 17.8713 -1.54509 20.5356C-1.74408 21.199 -1.71091 21.2321 -1.03654 21.3758C0.787595 21.7849 2.60067 22.205 4.42481 22.6251C5.33135 22.8351 6.24894 23.0563 7.15548 23.2553C7.43186 23.3105 7.59769 23.399 7.58664 23.7085C7.57558 24.405 7.58664 25.0904 7.58664 25.9085C3.41877 25.1457 -0.572213 23.9296 -4.71797 22.9015ZM6.54743 14.5989C6.35949 15.0301 6.1605 15.4723 5.9615 15.9034C5.53034 16.8321 5.57456 16.9426 6.55849 17.1416C7.06704 17.2411 7.58664 17.2743 8.10624 17.3296C7.97358 17.9818 7.86302 18.6231 7.69719 19.2422C7.66402 19.3748 7.43186 19.5628 7.32131 19.5406C5.77356 19.2974 4.22581 19.01 2.67806 18.7336C2.65595 18.7336 2.63384 18.6894 2.53434 18.5899C3.10922 17.0421 3.70621 15.4612 4.3032 13.8582C5.09918 14.1235 5.78461 14.3446 6.54743 14.5989ZM10.0962 14.411C9.74243 14.8642 9.23389 15.2733 9.02383 15.8039C8.57056 16.9316 7.74141 16.8763 6.81276 16.7326C6.64693 16.7105 6.47005 16.6773 6.18261 16.622C6.47005 15.9698 6.74643 15.3507 7.03387 14.7316C7.06704 14.6542 7.24392 14.6321 7.35448 14.621C8.26101 14.5436 9.16755 14.4773 10.0962 14.411ZM3.07605 15.7818C2.73334 16.7105 2.42379 17.6391 2.09213 18.5678C1.95946 18.9437 2.05896 19.1316 2.49012 19.1979C3.34138 19.3306 4.18159 19.5407 5.03285 19.6954C5.88411 19.8391 6.73537 19.9497 7.63086 20.0713C7.58664 20.9779 7.55347 21.8733 7.50925 22.813C4.63486 22.1497 1.78258 21.4864 -1.10287 20.8231C-0.251608 18.0261 0.610709 15.218 1.48408 12.3547C2.30218 12.7969 3.07605 13.2059 3.89415 13.6481C3.61777 14.3778 3.33033 15.0743 3.07605 15.7818ZM16.9284 33.1387C14.6068 33.0835 12.2741 33.0503 9.95248 33.0392C9.33338 33.0392 8.71428 33.1277 8.12835 33.1719C8.12835 31.0051 8.12835 28.8272 8.12835 26.6492C8.12835 25.9528 8.13941 25.2563 8.12835 24.5598C8.11729 24.0733 8.03991 23.598 8.03991 23.1115C8.02885 22.2161 8.00674 21.3095 8.07307 20.414C8.12835 19.6954 8.28313 18.9768 8.41579 18.2693C8.65901 16.9758 9.43288 15.9808 10.2289 14.9858C11.1354 13.8582 12.4952 13.416 13.5897 12.6642C13.9103 12.9627 14.2199 13.2391 14.5626 13.5486C13.9877 13.9466 13.3907 14.2783 12.9043 14.7205C11.2017 16.2683 10.1183 18.1256 9.76454 20.4582C9.4771 22.3377 9.49921 24.2171 9.45499 26.0965C9.41077 27.8101 9.56555 29.5236 9.62082 31.2372C9.63188 31.5247 9.72032 31.6352 10.0078 31.6463C10.461 31.6463 10.9032 31.7126 11.3565 31.7237C13.3575 31.7568 15.3475 31.8232 17.3485 31.79C19.5154 31.7568 21.6933 31.591 23.6722 30.6181C24.4129 30.2533 25.032 29.6231 25.6842 29.1035C25.9938 28.8603 26.3144 28.6171 26.5687 28.3186C26.9667 27.8211 27.3094 27.2794 27.7295 26.6935C28.028 27.0362 28.3044 27.3457 28.5918 27.6884C27.8622 28.7719 27.3647 30.1096 26.2702 31.0714C24.8551 32.3096 23.2521 33.0061 21.3837 33.1166C20.4882 33.1719 19.5927 33.2603 18.6973 33.2714C18.0892 33.3046 17.5143 33.1498 16.9284 33.1387ZM7.6198 0.0611104C7.1997 0.647044 6.91226 1.15559 6.50321 1.57569C6.33738 1.74152 5.95044 1.77468 5.67406 1.74152C4.39164 1.55358 3.13133 1.18876 1.84891 1.15559C0.301158 1.11137 -1.22448 1.38775 -2.47374 2.46012C-2.49585 2.48223 -2.54007 2.47118 -2.72801 2.48224C-2.02047 1.39881 -1.39031 0.381713 -0.693824 -0.591157C-0.10789 -1.3982 0.776538 -1.56403 1.69413 -1.32081C2.61173 -1.07759 3.50721 -0.734879 4.40269 -0.414277C5.43084 -0.060502 6.42582 0.381717 7.6198 0.0611104ZM2.56751 1.65309C3.5846 1.71942 4.60169 2.05108 5.58562 2.37168C6.35949 2.6149 6.59166 3.28927 6.13839 3.89732C4.5243 6.08628 2.42379 7.52347 -0.362163 7.55664C-1.86569 7.56769 -3.21444 6.90438 -4.39737 5.97573C-2.99334 2.64806 -0.859654 1.40987 2.56751 1.65309ZM5.16551 5.69934C5.61878 5.29029 6.04994 4.87018 6.49216 4.45008C6.75748 4.19581 7.01176 4.10738 7.37658 4.30637C7.82985 4.54959 8.31629 4.72647 8.92433 4.9918C7.21075 5.62195 6.47005 7.12548 5.38662 8.27523C5.01074 8.67323 4.64591 9.1044 4.2037 9.44711C3.3856 10.0773 2.47906 10.022 1.60569 9.59082C0.677041 9.13755 -0.218443 8.61795 -1.18026 8.09835C-0.46166 8.05413 0.17955 8.07625 0.787595 7.96569C2.46801 7.64509 3.91626 6.83805 5.16551 5.69934ZM7.01176 7.03704C7.69719 6.15261 8.57056 5.55562 9.59871 5.20185C9.93037 5.0913 10.3173 5.11341 10.6711 5.08024C10.7153 5.12447 10.7595 5.15763 10.8037 5.20185C9.86404 6.95965 8.94645 8.73956 7.95146 10.4753C7.73036 10.8732 7.27709 11.1607 6.90121 11.4481C6.59165 11.6803 6.23788 11.625 5.87306 11.4813C5.09918 11.1939 4.31425 10.9396 3.45193 10.6411C4.98863 9.66821 5.99467 8.34157 7.01176 7.03704ZM10.5716 6.52849C10.9143 5.64407 11.4339 4.88124 12.3073 4.38375C12.849 4.08526 13.3133 3.66516 13.855 3.27822C13.5565 3.99682 13.247 4.66014 13.0038 5.35663C12.6389 6.37372 12.5947 7.43503 12.6832 8.49634C12.7605 9.50238 12.2299 10.0773 11.4671 10.5637C10.6269 11.0944 9.70926 11.3597 8.72534 11.4813C8.34946 11.5255 7.98463 11.5808 7.59769 11.625C9.01278 10.1657 9.84193 8.38579 10.5716 6.52849ZM13.3465 10.1878C12.9706 8.16469 12.9816 6.17472 13.9324 4.29531C14.8058 2.59278 15.9555 1.14453 17.9123 0.525431C18.1998 1.03398 18.4983 1.55358 18.7415 1.9958C18.0892 2.68123 17.4038 3.27822 16.8621 3.98576C16.044 5.05813 15.5686 6.31843 15.4359 7.66719C15.3807 8.27523 15.3917 8.90539 15.4359 9.5245C15.5686 11.216 16.7184 12.1446 18.0671 12.8853C19.1726 13.4934 20.3887 13.6703 21.6159 13.7476C22.7104 13.825 23.7385 13.4934 24.7445 13.0954C24.833 13.0622 24.9325 13.018 25.0541 12.9738C25.3747 13.5044 25.6732 14.024 25.9827 14.5326C23.5063 16.6663 19.438 16.5446 16.8289 14.7426C16.0771 14.223 15.3586 13.6371 14.6621 13.0512C13.7997 12.3104 13.5455 11.2602 13.3465 10.1878ZM46.402 -5.14596C46.1477 -4.42737 45.9487 -3.75299 46.2251 -3.04545C46.2583 -2.94595 46.2251 -2.79118 46.1588 -2.70273C45.4733 -1.75198 44.6884 -1.23237 43.5055 -1.58614C43.2291 -1.66353 42.9085 -2.02836 42.82 -2.3158C42.5326 -3.33289 43.019 -4.36104 43.9256 -4.88065C44.0472 -4.94698 44.2351 -4.98015 44.3678 -4.93592C45.0532 -4.70376 45.6944 -4.90275 46.402 -5.14596ZM55.3568 -4.94698C55.4895 -4.9912 55.6995 -4.92487 55.8322 -4.84748C56.7387 -4.2726 57.1588 -3.33289 56.8825 -2.3158C56.794 -2.0173 56.4513 -1.66354 56.1528 -1.56404C55.1799 -1.25449 54.0412 -1.7962 53.5437 -2.70274C53.4995 -2.79118 53.4332 -2.92384 53.4664 -2.99017C53.8201 -3.71983 53.5327 -4.39421 53.3226 -5.13491C54.0302 -4.91381 54.6603 -4.69271 55.3568 -4.94698ZM95.2998 -0.414281C96.0516 -0.690664 96.7923 -0.989153 97.5551 -1.21026C99.5672 -1.79619 100.164 -1.03338 100.993 0.182711C101.48 0.901312 101.889 1.66413 102.254 2.49328C102.066 2.34957 101.9 2.17268 101.69 2.06212C100.197 1.27719 98.6054 0.956583 96.9249 1.1998C95.9189 1.34352 94.9239 1.5978 93.9289 1.79679C93.5973 1.86312 93.343 1.82996 93.144 1.4983C92.8566 1.03398 92.4918 0.613871 92.0827 0.0721575C93.2877 0.359599 94.2938 -0.0494513 95.2998 -0.414281ZM100.695 2.1174C102.01 2.59278 102.817 3.6762 103.569 4.79279C103.801 5.13551 103.945 5.5335 104.155 5.94255C102.773 6.9707 101.281 7.64508 99.5672 7.54558C98.8265 7.50136 98.0858 7.23604 97.3782 6.95965C95.9521 6.38478 94.7692 5.45613 93.8184 4.25109C93.0777 3.30033 93.2325 2.69229 94.3491 2.26113C96.4385 1.44303 98.5722 1.35458 100.695 2.1174ZM93.2877 4.50535C94.3048 5.36767 95.2998 6.26316 96.3943 7.00386C97.4335 7.70035 98.6607 8.02096 99.921 8.07624C100.208 8.0873 100.496 8.00991 100.905 7.95463C100.695 8.10941 100.573 8.21997 100.441 8.2863C99.5561 8.75062 98.6828 9.24811 97.7762 9.66822C96.6486 10.1989 95.6978 9.7677 94.9239 8.93855C94.1058 8.06518 93.3872 7.10337 92.5691 6.24105C92.0938 5.74356 91.4968 5.34556 90.944 4.90335C91.353 4.72646 91.8284 4.56064 92.2596 4.31742C92.7018 4.08526 92.9671 4.22897 93.2877 4.50535ZM96.2616 10.6521C95.2335 10.9948 94.3159 11.4371 93.343 11.5918C92.7129 11.6913 92.1933 11.1165 91.8063 10.5858C90.8666 9.30338 90.1701 7.89936 89.5953 6.41794C89.4294 5.98678 89.2083 5.57773 88.9761 5.0913C90.7561 5.06919 91.9169 6.031 92.9229 7.31342C93.8626 8.52951 94.8244 9.74559 96.2616 10.6521ZM89.4294 7.18076C89.9269 8.78379 90.7782 10.2541 92.0606 11.5697C90.9219 11.5034 89.8937 11.3707 88.943 10.9285C88.6113 10.7737 88.3018 10.5858 87.9922 10.3868C87.34 9.9446 86.953 9.35867 87.0083 8.5074C87.141 6.68327 86.8093 4.94757 85.8254 3.34454C87.34 4.35058 88.8324 5.26818 89.4294 7.18076ZM86.4666 6.51744C86.7872 8.21997 86.5329 9.90037 86.0244 11.5366C85.8917 11.9567 85.6595 12.3878 85.3611 12.6974C83.8465 14.2451 82.155 15.5386 79.966 15.9366C77.9761 16.3014 76.0303 16.1688 74.2946 14.9416C74.1067 14.809 73.9188 14.6984 73.6977 14.5547C74.0183 14.0019 74.3167 13.5044 74.5821 13.0733C75.4776 13.2833 76.3288 13.5376 77.1911 13.6813C78.3851 13.8803 79.568 13.6481 80.7067 13.2723C81.6354 12.9627 82.4535 12.4542 83.1831 11.7908C83.9128 11.1386 84.2002 10.2984 84.2776 9.39183C84.543 6.40689 83.4595 4.01892 81.0605 2.2169C81.0163 2.18373 80.9831 2.15057 80.9168 2.09529C81.2153 1.57569 81.5027 1.04504 81.8123 0.503322C84.5319 1.61991 85.947 3.73149 86.4666 6.51744ZM83.2053 17.7718C82.2655 17.8934 81.348 18.0703 80.4525 17.6833C79.7007 17.3627 78.9821 16.9979 78.3741 16.7215C79.4133 16.4673 80.5741 16.224 81.7017 15.8813C82.2213 15.7265 82.7188 15.417 83.161 15.0853C84.0234 14.4441 84.8304 14.6652 85.6817 15.0964C86.8867 15.7044 87.6274 16.7768 88.4676 17.8381C86.6877 17.4844 84.9409 17.5396 83.2053 17.7718ZM66.9981 28.5839C67.8383 28.5508 68.38 28.9156 68.8333 29.5457C69.6956 30.7397 69.9167 32.1216 70.0494 33.6362C68.6011 32.2543 66.9318 31.4583 65.1961 30.7729C64.19 30.3749 63.3167 29.8332 62.775 28.8382C62.4986 28.3297 62.1006 27.8985 61.8131 27.5005C62.7197 27.799 63.6483 28.197 64.6323 28.4181C65.3951 28.595 66.2132 28.6171 66.9981 28.5839ZM38.022 27.3568C36.9275 28.7387 36.22 30.3086 34.3848 30.8503C32.9697 31.2704 30.7034 32.4975 29.6863 33.6362C29.7637 31.9558 29.9848 31.0714 30.637 29.9106C31.1235 29.0483 31.7536 28.5287 32.8481 28.5839C34.6391 28.6834 35.6672 28.5618 38.022 27.3568ZM10.1515 31.2041C9.89721 29.4794 10.052 27.8543 10.9696 26.4392C11.8098 25.1457 13.059 24.2613 14.5073 23.7196C15.3586 23.399 16.254 23.1668 17.1606 23.0452C17.9344 22.9457 18.3103 23.3437 18.244 24.1397C18.1224 25.809 17.4591 27.2794 16.5083 28.6392C15.1596 30.5628 13.2691 31.3036 10.9806 31.193C10.7042 31.193 10.4389 31.2041 10.1515 31.2041ZM11.246 17.8602C12.252 16.5446 13.1917 15.2512 14.85 14.7868C15.3696 14.6431 15.8339 14.6431 16.3204 14.9748C17.8681 16.0472 19.5928 16.5999 21.5827 16.5778C19.836 17.4844 18.2108 18.214 16.1988 17.7607C14.6178 17.407 12.9485 17.4844 11.246 17.8602ZM23.5727 16.4783C24.2028 16.2572 24.833 16.025 25.4742 15.8039C24.9988 17.0974 24.5566 18.3909 24.0481 19.6512C23.3626 21.3427 22.1687 22.5035 20.3556 22.9346C19.9465 23.0341 19.4933 22.9678 19.0621 22.9125C18.5646 22.8462 18.3435 22.4703 18.3103 21.9839C18.1887 20.403 18.852 19.1648 20.035 18.1698C21.0631 17.2854 22.3345 16.8984 23.5727 16.4783ZM15.0932 18.0924C16.1877 18.1256 17.2822 18.3356 18.4098 18.4683C17.8571 19.5849 16.8731 20.204 15.7123 20.5025C14.7616 20.7457 13.7666 20.8452 12.8048 21.0663C11.8761 21.2763 10.9585 21.5638 10.0188 21.8291C10.1846 20.9557 10.2841 19.9829 10.6047 19.0874C10.7374 18.7115 11.3455 18.3577 11.7766 18.2914C12.8711 18.1145 13.9877 18.0592 15.0932 18.0924ZM12.0088 21.7075C12.7495 21.5085 13.5234 21.398 14.2972 21.2653C15.4359 21.0663 16.5968 20.9447 17.6028 20.0824C17.5475 20.801 17.5365 21.4201 17.4148 22.006C17.3706 22.1939 17.0279 22.3819 16.7847 22.4482C15.0711 22.9236 13.3907 23.4542 12.0088 24.6372C11.1465 25.3779 10.3173 26.1407 10.0299 27.3126C9.97459 27.3015 9.90826 27.2905 9.85299 27.2794C9.93037 26.0965 9.9967 24.9246 10.0851 23.7417C10.1736 22.5588 10.9806 21.9949 12.0088 21.7075ZM18.5535 25.3668C19.0068 23.8522 19.0289 23.8522 20.5988 23.7085C20.7425 23.6975 20.8973 23.6754 21.1405 23.6532C19.8912 25.3115 20.0792 27.2794 19.6149 29.0593C19.2279 30.5186 18.6309 31.0824 17.1606 31.2814C16.8952 31.3146 16.6189 31.3367 16.3425 31.3367C15.5465 31.3478 14.7505 31.3367 13.8882 31.3367C16.5636 30.1538 17.7907 27.9427 18.5535 25.3668ZM20.5877 26.3065C20.7425 25.2784 21.1516 24.3829 21.8149 23.598C22.0802 23.2884 22.445 23.0784 22.8983 22.7135C23.0089 24.6482 23.1526 26.4281 23.1747 28.197C23.1857 28.8272 22.9204 29.4684 22.7435 30.0875C22.644 30.4633 22.3676 30.6734 21.9586 30.7397C21.0963 30.8834 20.234 31.0824 19.3053 31.2704C20.1345 29.6674 20.3335 27.9759 20.5877 26.3065ZM23.6058 25.8422C23.5727 25.0683 23.4068 24.3055 23.3405 23.5316C23.2742 22.8241 23.4732 22.1718 23.8048 21.5417C24.0923 21 24.3134 20.403 24.6119 19.7286C24.6782 20.3587 24.7224 20.8894 24.7998 21.409C24.9767 22.614 25.43 23.7196 26.1375 24.6924C26.6682 25.4332 26.6461 26.1849 26.3034 26.9477C25.7064 28.2965 24.5787 29.1588 23.3626 30.0543C23.7827 28.5729 23.6722 27.202 23.6058 25.8422ZM27.6079 25.9307C26.5134 24.5819 25.5847 23.1558 25.2973 21.409C24.9325 19.1869 25.2089 17.0974 26.7456 15.2733C27.2541 15.5828 27.7737 15.8813 28.1607 16.1135C27.9285 17.2743 27.5415 18.3467 27.5305 19.419C27.5084 21.2763 28.0059 23.0341 29.2662 24.5156C30.2943 25.7206 31.632 25.9417 33.0803 25.8975C34.3738 25.8643 35.612 25.4774 36.6733 24.7919C37.613 24.1839 38.409 23.3437 39.3155 22.5477C39.7024 22.7688 40.222 23.0563 40.7416 23.3547C39.813 26.2734 36.1758 28.2412 33.6552 28.0975C32.7707 28.0533 31.8974 27.9648 31.0129 27.8874C29.5868 27.7658 28.5034 27.0362 27.6079 25.9307ZM43.7487 11.8019C43.7708 11.7798 43.815 11.7908 43.9366 11.7577C43.6381 12.9848 43.3728 14.1677 43.0522 15.3286C43.008 15.4944 42.7205 15.6492 42.5105 15.6823C41.0844 15.9145 40.1447 16.7547 39.8351 18.1145C39.5145 19.5296 40.0562 21.0773 41.7035 21.5417C43.9366 22.1718 45.5949 20.1045 45.2965 18.203C45.1417 17.2632 44.6774 16.5668 43.9698 15.9919C43.8593 15.9034 43.7266 15.7155 43.7487 15.6049C44.0804 14.3999 44.4562 13.1949 44.81 11.9788C45.1748 12.6089 45.4623 13.2391 45.8603 13.7919C46.7005 14.9416 47.9718 15.4281 49.2653 15.8703C49.398 15.9145 49.608 16.0693 49.608 16.1467C49.4975 17.1195 49.4864 18.1366 49.1769 19.0542C48.3477 21.5085 46.5678 22.8794 43.9698 23.0673C43.1185 23.1226 42.2231 23.1668 41.405 22.9568C40.609 22.7467 39.8462 22.2934 39.1718 21.807C38.2763 21.1547 37.425 20.403 36.9718 19.3417C36.7507 18.822 36.5959 18.2693 36.5185 17.7055C36.3084 16.0361 36.817 14.5105 37.6461 13.0843C37.7125 12.9627 37.9557 12.83 38.0773 12.8632C40.1447 13.3828 42.0683 13.2723 43.7487 11.8019ZM42.2231 -0.967044C41.7919 -0.126838 41.604 0.713372 41.7477 1.61991C41.7698 1.73047 41.6813 1.90735 41.5818 1.97368C41.1065 2.31639 40.6421 2.68122 40.1225 2.95761C39.5698 3.24505 38.9949 3.09027 38.5748 2.637C38.1547 2.19478 37.9999 1.66413 38.3095 1.12242C38.5858 0.624929 38.9286 0.171655 39.2602 -0.29267C39.3376 -0.392169 39.5034 -0.502719 39.6029 -0.480605C40.5205 -0.347941 41.3829 -0.524833 42.2231 -0.967044ZM42.2894 0.182714C42.3668 -0.027335 42.4552 -0.237388 42.5547 -0.436381C42.9306 -1.18815 42.9306 -1.1771 43.7708 -1.02232C44.4673 -0.889659 45.0975 -1.11075 45.7939 -1.55297C45.6502 -0.535876 46.0372 0.193768 46.6341 0.846036C46.7115 0.923425 46.7779 1.0782 46.7447 1.1777C46.4241 2.52645 44.81 3.42193 43.5276 2.96866C42.7648 2.69228 41.803 1.46514 42.2894 0.182714ZM56.4071 -1.12182C56.5176 -1.15499 56.7277 -1.08865 56.794 -1.00021C57.5789 0.027943 57.9217 1.31036 56.9267 2.40484C56.1196 3.28927 54.7709 3.35561 53.8754 2.49329C53.5437 2.17268 53.2784 1.77469 53.0352 1.3767C52.9578 1.24403 52.991 0.934472 53.1015 0.812863C53.6764 0.160599 54.0302 -0.55799 53.9196 -1.55297C54.7598 -0.978092 55.5558 -0.867549 56.4071 -1.12182ZM60.0222 -0.469555C60.1548 -0.48061 60.3538 -0.414272 60.4312 -0.325828C60.7739 0.127442 61.1277 0.580704 61.382 1.07819C61.7026 1.6973 61.581 2.19479 61.0945 2.67017C60.6413 3.11239 60.1217 3.234 59.5357 2.92445C59.0383 2.65912 58.585 2.30534 58.1317 1.97368C58.0322 1.90735 57.9438 1.73047 57.9659 1.61991C58.1538 0.669152 57.8774 -0.182117 57.4463 -1.02232C58.2754 -0.535888 59.1156 -0.370056 60.0222 -0.469555ZM59.8121 13.0954C60.4202 13.0069 61.0282 12.9185 61.6363 12.8632C61.7689 12.8522 61.9679 12.9627 62.0343 13.0733C63.0845 14.809 63.5046 16.6884 62.9961 18.6673C62.8302 19.3085 62.4212 19.9386 61.99 20.4582C61.4815 21.0663 60.8403 21.5638 60.2212 22.0613C58.8393 23.1558 57.2473 23.4211 55.5558 23.0452C54.7709 22.8683 53.9749 22.6583 53.2231 22.3708C52.3498 22.0392 51.8191 21.3095 51.2885 20.5577C50.3266 19.22 50.2271 17.7055 50.1055 16.1688C50.0945 16.0803 50.2271 15.9034 50.3156 15.8813C52.4493 15.3064 54.1297 14.223 54.8925 11.9677C55.2463 13.1617 55.6111 14.3446 55.9428 15.5497C55.9759 15.6823 55.8433 15.9255 55.7106 16.025C54.5829 16.9316 54.2071 18.1035 54.4834 19.4964C54.6935 20.5467 55.8985 21.4974 56.9377 21.6191C57.7337 21.7075 58.397 21.4753 59.0051 21.0221C60.0664 20.2261 60.2986 18.2803 59.4915 17.1637C58.9166 16.3788 58.2202 15.7929 57.2031 15.7044C56.783 15.6713 56.6503 15.4281 56.5729 15.0411C56.3739 14.0572 56.1086 13.0954 55.8764 12.1115C55.8543 12.012 55.8433 11.9124 55.8101 11.7135C56.2081 11.9788 56.5287 12.1888 56.8493 12.3989C57.7558 12.9959 58.7398 13.2391 59.8121 13.0954ZM66.9428 19.1316C66.9649 18.7557 66.9871 18.3798 66.9428 18.004C66.8986 17.6502 66.777 17.3075 66.6886 16.9205C66.9871 16.9648 67.2634 17.0311 67.5509 17.0532C67.8383 17.0753 68.1368 17.0532 68.4685 17.0532C68.9328 18.2914 69.1428 19.5406 68.7227 20.8341C68.2695 22.205 67.374 22.7135 65.8262 22.415C64.9418 22.2492 64.179 21.807 63.5378 21.1547C63.2835 20.9005 63.0403 20.6241 62.786 20.3587C63.0514 19.817 63.3056 19.3085 63.571 18.7668C63.8584 19.0321 64.1237 19.3417 64.4554 19.5738C64.776 19.806 65.1408 19.9939 65.5167 20.1155C66.2906 20.3919 66.8765 19.9718 66.9428 19.1316ZM64.2895 22.3266C65.2182 22.9457 66.2795 23.1336 67.374 22.9125C68.4353 22.7025 69.375 21.2321 69.3861 19.8613C69.3861 19.3748 69.4082 18.8773 69.3418 18.4019C69.2755 17.9266 69.1097 17.4622 68.977 16.9758C69.6293 16.7768 70.2484 16.5889 70.9338 16.3788C71.4755 17.407 71.7851 18.5014 71.7187 19.6512C71.6524 20.7678 71.4645 21.8733 70.9228 22.9125C70.2152 24.2392 69.3197 25.2563 67.7057 25.3668C64.8644 25.5548 62.6202 24.4935 60.9287 22.1718C61.4483 21.6854 61.9348 21.2321 62.3991 20.7899C63.0292 21.3206 63.6152 21.8844 64.2895 22.3266ZM66.379 17.7828C66.4564 18.1587 66.4453 18.5678 66.3901 18.9437C66.3016 19.5075 65.9368 19.6954 65.4061 19.4964C64.7318 19.2422 64.2232 18.7778 63.8363 18.1808C63.7257 18.004 63.6926 17.7607 63.6815 17.5396C63.6152 16.6441 63.582 15.7597 63.5488 15.0964C64.0353 15.417 64.6654 15.9255 65.3619 16.2683C66.0252 16.5999 66.2353 17.1637 66.379 17.7828ZM48.8231 23.8412C49.409 24.7809 50.3045 24.7698 50.8905 23.8301C51.2332 23.2663 51.4543 22.6251 51.7307 22.017C52.1066 22.2603 52.5598 22.5367 52.991 22.8351C53.0573 22.8794 53.1347 23.012 53.1126 23.0894C52.8362 24.4603 52.3608 25.7316 51.1447 26.5608C49.9176 27.39 49.1437 27.191 47.9276 26.0412C47.1095 25.2673 46.7889 24.206 46.5678 23.1226C46.5457 23.0341 46.6231 22.8904 46.7005 22.8351C47.1316 22.5477 47.5628 22.2713 47.9497 22.0281C48.2482 22.6472 48.4804 23.2774 48.8231 23.8412ZM48.5467 21.3758C48.5467 21.0442 48.8784 20.7125 49.0553 20.3809C49.3538 19.7949 49.6301 19.1979 49.8402 18.7778C50.2161 19.4854 50.6915 20.3366 51.1226 21.2211C51.2111 21.409 51.189 21.7075 51.1005 21.9175C50.8683 22.5035 50.6251 23.0894 50.2935 23.609C50.0834 23.9407 49.7075 23.9186 49.398 23.6311C48.7457 23.0231 48.5578 22.205 48.5467 21.3758ZM46.4794 24.5266C46.999 25.9085 47.8502 26.9698 49.3095 27.4452C50.3045 27.7658 51.0895 27.2683 51.7749 26.6824C52.6483 25.9528 53.2121 25.002 53.4221 23.8633C53.4664 23.609 53.5658 23.3658 53.6322 23.1226C54.2071 23.2442 54.7377 23.3879 55.2794 23.4764C55.5558 23.5206 55.6221 23.6201 55.589 23.8854C55.4453 25.2673 54.9699 26.4834 54.0965 27.5779C53.0573 28.8714 51.8081 29.8 50.1608 30.0985C49.807 30.1648 49.398 30.0985 49.0553 29.9769C46.2914 29.0704 44.7437 27.0915 44.1356 24.3166C44.0804 24.0844 44.1246 23.8412 44.1246 23.5537C44.7326 23.41 45.3738 23.2663 46.0703 23.1115C46.203 23.5869 46.3025 24.0733 46.4794 24.5266ZM48.5688 9.50239C48.5578 10.0441 48.602 10.6079 48.7236 11.1275C48.8342 11.614 49.4311 11.9898 49.8734 11.9567C50.4261 11.9235 50.802 11.5918 51.0121 11.0944C51.2995 10.3979 51.2221 9.66822 51.0673 8.94962C51.001 8.62901 50.9568 8.30841 50.8905 7.95464C51.3548 8.24208 51.7749 8.50739 52.195 8.77272C52.2613 8.81694 52.3498 8.89434 52.3498 8.96067C52.4935 10.232 52.5709 11.4813 51.7086 12.5868C50.4925 14.1346 48.5357 13.7919 47.6512 12.0783C47.1427 11.0943 47.198 10.033 47.3638 8.98278C47.3749 8.89433 47.4965 8.79484 47.596 8.73956C47.9829 8.48529 48.3809 8.23102 48.8121 7.95464C48.7236 8.4853 48.5799 8.99384 48.5688 9.50239ZM49.409 7.75564C49.4975 7.42397 49.6744 7.11443 49.8513 6.68327C50.4704 8.03203 50.8462 9.30338 50.6251 10.6964C50.5588 11.1165 50.3487 11.426 49.8955 11.4481C49.409 11.4702 49.1879 11.1386 49.0884 10.7074C48.8563 9.69032 49.1548 8.72851 49.409 7.75564ZM46.8663 9.06017C46.8663 9.823 46.8 10.5416 46.8774 11.2381C47.01 12.4873 48.1045 13.6924 49.1879 14.0019C50.6694 14.411 52.0844 13.2944 52.5819 12.1336C52.9468 11.2823 52.991 10.3868 52.8583 9.48027C52.8362 9.36971 52.8583 9.2481 52.8583 9.10438C52.9578 9.08227 52.991 9.07122 53.0241 9.07122C54.3839 9.01595 54.4613 9.08228 54.4724 10.4642C54.4945 12.421 53.6654 13.8803 51.8965 14.7426C51.2995 15.0301 50.6472 15.4059 50.0171 15.3949C48.2925 15.3617 46.9216 14.5326 45.9377 13.0843C45.1638 11.9456 45.0753 10.6964 45.3849 9.39184C45.4181 9.27023 45.5728 9.08228 45.6834 9.07123C46.0593 9.02701 46.4352 9.06017 46.8663 9.06017ZM58.9498 17.5507C59.1046 17.9487 59.1599 18.3798 59.2594 18.7999C59.182 20.2593 57.9991 21.21 56.584 20.8783C55.9096 20.7236 55.6443 20.1376 55.3458 19.618C54.7377 18.5457 54.9257 16.9205 56.3297 16.3235C57.2583 15.9255 58.5076 16.4562 58.9498 17.5507ZM55.8875 11.0059C55.401 10.431 55.1468 9.65716 54.793 8.94962C55.3126 8.64007 55.6885 8.41896 55.9649 8.25312C56.5287 9.01595 57.0151 9.83405 57.6674 10.5084C58.795 11.6692 60.9066 11.6582 61.8242 10.5195C62.6644 9.49133 62.786 8.29735 62.3438 7.08126C62.1006 6.40688 61.6915 5.79884 61.3488 5.15763C61.7026 4.94757 62.0785 4.72646 62.4654 4.50536C64.4112 6.10838 64.5328 8.96067 63.2725 10.6411C62.7307 11.3707 62.2996 12.1778 61.3378 12.421C59.2594 12.9627 57.3468 12.7084 55.8875 11.0059ZM60.0885 9.20388C60.6523 8.90539 60.8734 8.35263 60.5639 7.4682C60.3649 6.88226 59.9116 6.38478 59.5468 5.85412C59.4141 5.65512 59.2372 5.48928 59.0825 5.29028C60.0996 5.02496 60.8292 5.3124 61.3378 6.14156C61.9016 7.0481 62.2554 7.98779 62.0011 9.09333C61.5257 11.1386 59.3368 11.2491 58.1207 10.2984C57.3247 9.67927 56.8714 8.828 56.5066 7.92147C56.4734 7.83302 56.4624 7.71141 56.4955 7.63403C56.7166 7.19181 56.9598 6.7496 57.1699 6.35161C57.5568 7.13654 57.8996 7.94358 58.3639 8.69534C58.7619 9.33655 59.5357 9.50238 60.0885 9.20388ZM59.9116 7.13654C60.0443 7.35764 60.1548 7.60086 60.1991 7.85514C60.2654 8.23102 60.2322 8.67323 59.8121 8.77272C59.5357 8.83905 59.0935 8.73956 58.8945 8.54056C58.1096 7.76669 57.8885 6.70538 57.6121 5.68829C57.5347 5.38979 57.5347 5.06918 57.5016 4.67119C58.5629 5.34557 59.3036 6.17472 59.9116 7.13654ZM56.197 7.22497C55.5669 8.24207 54.185 8.79484 53.0352 8.51846C51.3327 8.10941 50.3598 6.9486 50.0945 5.13552C50.4593 4.9918 50.8131 4.85913 51.1779 4.71541C51.4322 5.24607 51.6533 5.82095 51.9628 6.32949C52.5266 7.2692 53.19 7.4682 54.3287 7.14759C55.0362 6.94859 55.6111 6.05311 55.5226 5.27923C55.4563 4.73752 55.4231 4.18476 55.3679 3.59882C55.7216 3.54355 56.0865 3.48827 56.4955 3.42194C57.1257 4.74858 56.9598 5.99783 56.197 7.22497ZM54.9809 4.60486C54.9809 4.88124 55.0252 5.15763 55.0141 5.43401C55.003 6.15261 54.6161 6.60588 53.8533 6.81593C53.3447 6.95965 52.6483 6.65009 52.3608 6.11944C52.1508 5.72144 51.9849 5.30134 51.8081 4.8923C51.6975 4.61591 51.7638 4.38376 51.9076 4.08526C52.2503 3.37772 52.4714 2.61489 52.7035 2.00685C53.1015 2.36062 53.5659 2.93549 54.1628 3.24505C54.7819 3.56565 54.9809 3.98576 54.9809 4.60486ZM49.7186 4.57169C48.3146 4.51641 47.1206 2.68123 47.6733 1.3988C47.7286 1.26614 47.9387 1.15559 48.0935 1.10032C48.9779 0.790765 49.4312 0.403821 49.8623 -0.469554C50.2382 0.370652 50.8241 0.890263 51.6422 1.10032C51.9739 1.1777 52.0734 1.36564 52.1176 1.66414C52.3719 3.21188 51.2111 4.63802 49.7186 4.57169ZM52.6483 0.547547C52.4824 0.680211 52.1839 0.735478 51.9628 0.702309C50.9126 0.558591 49.995 -0.624332 50.0834 -1.6967C50.0945 -1.77409 50.1055 -1.89569 50.1497 -1.92886C50.8462 -2.36002 50.9015 -3.1339 51.1447 -3.80827C51.6533 -3.34394 52.0402 -2.70274 52.8362 -2.70274C52.9136 -2.70274 53.002 -2.59219 53.0573 -2.5148C53.7096 -1.58615 53.5327 -0.182105 52.6483 0.547547ZM50.3045 -2.83541C50.2271 -2.65852 49.995 -2.44847 49.8513 -2.44847C49.6965 -2.44847 49.4754 -2.66958 49.3869 -2.83541C48.801 -4.09572 49.2764 -5.24547 49.8402 -6.50578C50.4482 -5.23442 50.9015 -4.09572 50.3045 -2.83541ZM49.5638 -1.93991C49.597 -1.9178 49.6191 -1.85147 49.6301 -1.80725C49.8955 -0.81227 48.6131 0.724431 47.5849 0.713376C46.9105 0.702321 46.0703 -0.635383 46.2583 -1.36504C46.3467 -1.68564 46.4352 -1.99519 46.5347 -2.30474C46.6231 -2.55902 46.811 -2.64746 47.0764 -2.75801C47.5628 -2.97912 47.9718 -3.36606 48.4141 -3.68666C48.4693 -3.71983 48.4804 -3.80827 48.5467 -3.92988C48.7789 -3.12284 48.8673 -2.37107 49.5638 -1.93991ZM46.8 2.12846C46.8995 2.04001 46.9547 1.91841 47.1095 1.71941C47.0764 2.75861 47.3527 3.57671 47.9276 4.28425C47.994 4.36164 48.005 4.52747 47.9718 4.62697C47.7286 5.20184 47.5407 5.80989 47.198 6.31844C46.8221 6.88226 46.1919 6.9707 45.5286 6.71643C45.009 6.52849 44.6663 6.00889 44.6773 5.35663C44.6773 4.95863 44.7105 4.56064 44.7658 4.16264C44.8211 3.81993 44.9648 3.59882 45.3296 3.39982C45.8824 3.07922 46.3246 2.55961 46.8 2.12846ZM44.3346 3.59882C44.2904 4.19581 44.2241 4.79279 44.213 5.40084C44.1909 6.22999 44.6663 6.92648 45.3517 7.14759C46.413 7.49031 47.1537 7.30237 47.6733 6.46216C48.005 5.92045 48.2482 5.32345 48.5357 4.73752C48.8784 4.87018 49.2432 5.00286 49.597 5.13552C49.3869 7.01493 48.3809 8.00991 46.9105 8.47423C45.7055 8.85012 44.5005 8.5074 43.6934 7.4682C42.7427 6.25211 42.4994 4.8923 43.207 3.43299C43.616 3.48827 43.9698 3.54355 44.3346 3.59882ZM41.3165 8.72851C41.7919 7.97675 42.1346 7.13654 42.5326 6.36266C42.7427 6.7496 42.9748 7.18076 43.207 7.63403C43.2402 7.70036 43.2623 7.79986 43.2291 7.86619C42.8311 8.86117 42.3226 9.76771 41.4381 10.431C40.819 10.8954 39.3155 11.0501 38.6301 10.5305C37.9115 9.98882 37.4471 8.83906 37.6572 7.83302C37.8451 6.92648 38.3095 6.16366 38.8954 5.45612C38.9507 5.38978 39.0612 5.31241 39.1386 5.31241C39.6251 5.27924 40.1004 5.25712 40.6864 5.22395C40.3658 5.61089 40.0673 5.93151 39.813 6.29633C39.5587 6.66116 39.3155 7.0481 39.1386 7.45715C38.8291 8.16469 39.0281 8.86117 39.5919 9.19283C40.1447 9.50238 40.9185 9.35867 41.3165 8.72851ZM40.9296 8.44106C40.6753 8.79484 40.2884 9.027 39.8462 8.76167C39.4039 8.5074 39.4261 8.06518 39.5808 7.65614C40.0673 6.40688 40.9959 5.53351 42.1125 4.80386C42.0904 6.15262 41.7145 7.36869 40.9296 8.44106ZM37.8451 6.06416C37.1265 7.29131 36.8391 8.55162 37.5024 9.92248C38.1215 11.1938 39.2823 11.5697 40.5979 11.2712C42.0462 10.9396 42.82 9.88932 43.406 8.64007C43.4613 8.52951 43.5055 8.41896 43.5608 8.3084C43.5829 8.26418 43.616 8.23102 43.6381 8.19785C44.0361 8.43001 44.412 8.66217 44.81 8.88328C44.3346 11.4592 42.0351 12.7084 40.3658 12.6532C39.7798 12.631 39.1939 12.5868 38.619 12.4873C38.0441 12.3878 37.5135 12.1336 37.1818 11.6361C36.7175 10.9506 36.1537 10.2873 35.8883 9.5245C35.3245 7.8883 35.5677 6.31844 36.7838 4.98074C36.9386 4.81491 37.0823 4.64908 37.226 4.49431C37.624 4.72647 37.9999 4.94758 38.42 5.1908C38.2321 5.47824 38.022 5.76566 37.8451 6.06416ZM42.7979 16.1798C43.4944 16.1909 44.2904 16.7768 44.5226 17.4733C44.8763 18.5125 44.5005 19.9165 43.6492 20.602C43.4723 20.7457 43.1959 20.9005 42.9969 20.8673C42.3557 20.7678 41.6924 20.6572 41.1175 20.3919C40.4542 20.0824 40.5426 19.3638 40.5205 18.822C40.5316 17.2411 41.4823 16.1688 42.7979 16.1798ZM34.2522 20.1155C34.816 19.8613 35.3135 19.4301 35.822 19.0653C35.9326 18.9879 35.9878 18.8442 36.0873 18.7004C36.3858 19.2643 36.6401 19.7396 36.8723 20.215C36.9054 20.2924 36.8833 20.4582 36.828 20.5246C36.0984 21.2653 35.3466 21.9728 34.3406 22.3487C32.7265 22.9457 31.2009 22.1497 30.8692 20.4361C30.6481 19.2864 30.8029 18.1587 31.2451 17.1085C31.8421 17.0642 32.428 17.02 33.0029 16.9758C32.9034 17.4401 32.7707 17.9045 32.7265 18.3688C32.6933 18.7004 32.7265 19.0653 32.815 19.3969C33.0029 20.0934 33.5778 20.4251 34.2522 20.1155ZM36.0431 17.6502C36.021 17.8934 35.9326 18.1808 35.7778 18.3577C35.4572 18.7115 35.1034 19.0763 34.6833 19.3085C34.3848 19.4743 33.8542 19.607 33.6441 19.4522C33.3898 19.2643 33.2461 18.7557 33.2572 18.4019C33.2682 17.9155 33.3677 17.3627 33.6331 16.9647C33.8984 16.5668 34.4069 16.3235 34.827 16.0361C35.3024 15.6934 35.7888 15.3728 36.1647 15.1185C36.1316 15.8592 36.1094 16.7547 36.0431 17.6502ZM30.7365 16.9758C30.6592 17.2743 30.5707 17.5839 30.4933 17.8934C30.2059 19.01 30.1948 20.1376 30.626 21.21C31.3556 23.001 32.7044 23.3547 34.6612 22.6804C35.1808 22.5035 35.6672 22.205 36.1094 21.8733C36.5296 21.5527 36.8612 21.1105 37.2371 20.7125C37.7899 21.2211 38.2763 21.6743 38.7848 22.1497C37.4914 24.0955 35.6562 25.0904 33.3898 25.3558C32.8813 25.411 32.3617 25.3889 31.8531 25.3447C30.3054 25.201 29.4541 24.1728 28.8019 22.8904C28.1275 21.5527 27.8622 20.1266 28.0612 18.6562C28.1606 17.8823 28.4702 17.1306 28.6803 16.3567C29.432 16.5889 30.0511 16.7768 30.7365 16.9758ZM40.9075 24.7367C41.1065 25.7427 41.2944 26.7709 41.5045 27.799C41.7808 29.1256 41.814 30.4302 41.2944 31.7237C40.9185 32.6412 40.3105 33.3598 39.4703 33.8573C38.5748 34.3769 38.0441 34.2222 37.5798 33.2825C36.9718 32.0664 36.9165 30.795 37.4029 29.5126C37.9115 28.1638 38.8843 27.1357 39.8019 26.0854C40.1889 25.6211 40.5648 25.1568 40.9075 24.7367ZM30.6702 33.382C31.9305 32.6191 33.2351 31.9558 34.5396 31.2704C35.0371 31.0051 35.5788 30.8061 36.1537 30.5628C36.1868 32.1327 35.4019 33.2382 34.2964 34.2001C33.2129 35.1398 32.1627 36.1347 31.1124 37.1076C30.9355 37.2734 30.825 37.4946 30.626 37.7709C30.3496 37.0192 30.0622 36.3227 29.8411 35.6151C29.5426 34.6091 29.7526 33.9458 30.6702 33.382ZM32.4391 36.389C33.2461 35.6373 34.1416 34.9629 34.9486 34.2001C35.4682 33.7136 35.8773 33.1166 36.3527 32.5528C36.5738 33.0392 36.8723 33.592 37.0602 34.189C37.1155 34.3548 36.8944 34.6533 36.7507 34.8523C35.9768 35.8031 35.1255 36.6986 34.418 37.7046C33.633 38.8212 33.2903 40.1478 33.1687 41.5076C33.1466 41.784 33.2461 42.0825 33.2903 42.37C33.2461 42.3921 33.2019 42.4142 33.1577 42.4363C32.6602 41.4745 32.1295 40.5237 31.6652 39.5508C31.0019 38.2131 31.4662 37.2845 32.4391 36.389ZM33.6773 41.5961C33.6441 40.6895 33.9868 39.7277 34.3406 38.8544C34.9155 37.4172 35.8773 36.2232 37.1265 35.2945C37.9446 34.6865 38.5858 34.8634 38.9617 35.8141C39.7467 37.793 39.8793 39.8051 39.2823 41.8614C38.8401 43.376 37.7014 44.2936 36.4743 45.1338C36.1316 45.366 35.7336 45.5097 35.3356 45.7197C34.3185 44.4815 33.7436 43.0886 33.6773 41.5961ZM39.2713 43.0886C40.2773 41.0765 40.3215 38.9649 39.8019 36.8202C39.6914 36.3559 39.5145 35.8915 39.4482 35.4161C39.415 35.2061 39.4924 34.8965 39.6361 34.7639C40.0894 34.3769 40.5979 34.0563 41.1839 33.6473C40.8964 34.7307 41.2281 35.6262 41.5487 36.5217C41.8693 37.4172 42.2341 38.3016 42.4994 39.2192C42.9196 40.7006 42.5768 41.574 41.2834 42.4031C40.4874 42.9117 39.6693 43.3871 38.7848 43.7961C38.9396 43.575 39.1386 43.3539 39.2713 43.0886ZM41.7698 35.6704C41.3829 34.4433 41.4934 33.3046 42.1788 32.0885C43.1517 33.5478 44.0693 34.9297 44.9869 36.3116C45.4402 36.9971 45.7276 37.7709 45.7608 38.589C45.7718 38.8765 45.5397 39.2413 45.3186 39.4624C44.7105 40.0594 44.0361 40.6011 43.3065 41.2423C43.2733 39.1639 42.3336 37.4724 41.7698 35.6704ZM43.2401 32.9066C42.6211 32.1438 42.3226 31.2593 42.3226 30.2533C42.3226 29.7005 42.2231 29.1588 42.1457 28.4734C42.2894 28.6613 42.3557 28.7498 42.411 28.8382C43.2401 30.2643 44.3899 31.3588 45.8713 32.0443C46.8774 32.5086 47.2201 33.2714 47.2532 34.2664C47.3085 35.6041 46.8 36.8091 46.2472 38.0805C45.5949 36.0795 44.5005 34.4543 43.2401 32.9066ZM48.8342 32.6965C47.0874 32.2985 45.4844 31.5357 44.1799 30.2975C42.9417 29.1367 42.1125 27.6884 41.7919 26.008C41.6482 25.2563 41.6924 24.4824 41.6482 23.6532C42.2894 23.6532 42.82 23.6311 43.3507 23.6754C43.4613 23.6864 43.6271 23.9186 43.6492 24.0623C43.9145 26.6492 45.3296 28.4955 47.4412 29.8442C49.0553 30.8834 50.7357 30.8503 52.3387 29.8C54.2623 28.5508 55.5669 26.8482 55.998 24.5487C56.1639 23.6422 56.186 23.6422 57.1146 23.6422C57.391 23.6422 57.6674 23.6422 57.9659 23.6422C58.2975 26.0301 57.5237 27.9869 56.0644 29.7116C54.6382 31.403 52.7146 32.2654 50.6251 32.7518C50.0613 32.8955 49.409 32.8292 48.8342 32.6965ZM58.8061 24.7477C59.6684 25.7869 60.586 26.804 61.4041 27.8874C62.587 29.4462 63.0292 31.1709 62.2333 33.0503C61.6363 34.4654 60.7961 34.4764 59.5689 33.3377C57.8996 31.8121 57.8222 29.8553 58.1981 27.8101C58.397 26.793 58.6071 25.7648 58.8061 24.7477ZM53.4332 32.2985C55.1136 31.4362 56.5176 30.3086 57.4905 28.5065C57.5126 30.4855 57.2362 32.188 55.9096 33.6694C54.8041 34.9187 53.9528 36.389 53.4774 38.1136C52.792 36.4553 52.0513 34.8855 52.7146 33.1056C52.8251 32.796 53.1236 32.4644 53.4332 32.2985ZM54.2292 37.3287C55.0031 35.98 55.8764 34.6865 56.7166 33.382C56.982 32.9729 57.2583 32.5749 57.5568 32.1327C58.4413 33.6031 58.2202 35.0292 57.6895 36.4775C57.2473 37.6935 56.8714 38.9428 56.5066 40.181C56.4181 40.4684 56.4513 40.789 56.4181 41.2534C55.6 40.5127 54.7709 39.9157 54.1297 39.1418C53.6985 38.6443 53.9196 37.8704 54.2292 37.3287ZM57.1478 39.5398C57.3689 38.6554 57.7448 37.8041 57.999 36.9307C58.2423 36.1126 58.4523 35.2724 58.6292 34.4322C58.6734 34.2111 58.585 33.9568 58.5518 33.6694C59.0935 34.0563 59.58 34.388 60.0443 34.7418C60.3649 34.985 60.2986 35.3056 60.1991 35.6373C59.8232 36.9528 59.5026 38.2795 59.58 39.6614C59.6352 40.8222 59.8232 41.972 60.387 43.0112C60.5307 43.2765 60.7297 43.5197 60.8624 43.8735C60.2322 43.4976 59.591 43.1438 58.9719 42.7569C58.5629 42.5026 58.1649 42.2152 57.8001 41.9056C57.0372 41.2865 56.9267 40.4242 57.1478 39.5398ZM60.1106 40.2584C59.978 38.6996 60.2101 37.2182 60.7629 35.792C61.1277 34.8634 61.791 34.6644 62.5649 35.2835C64.4885 36.8091 65.8041 38.7328 65.9921 41.2423C66.1137 42.9117 65.4061 44.371 64.4001 45.7197C62.0121 44.6142 60.3317 43.0443 60.1106 40.2584ZM64.8202 36.9528C64.2785 36.2121 63.6262 35.5599 62.9961 34.8855C62.6755 34.5428 62.5207 34.2553 62.7971 33.791C63.0403 33.382 63.1951 32.9176 63.4162 32.4201C63.6373 32.796 63.7921 33.194 64.0574 33.4704C64.6986 34.1227 65.4061 34.7086 66.0805 35.3277C66.6554 35.8473 67.2745 36.3448 67.772 36.9307C68.2252 37.4724 68.5237 38.1247 68.2916 38.8986C67.8936 40.181 67.175 41.2865 66.4343 42.5247C66.7328 40.3247 65.9921 38.5669 64.8202 36.9528ZM65.0081 33.8131C64.0684 32.9508 63.5157 31.8895 63.5599 30.5518C65.4614 31.4362 67.4514 32.1327 69.1318 33.4151C69.9609 34.0563 70.1489 34.6312 69.8614 35.6594C69.8172 35.8252 69.773 35.991 69.7067 36.1569C69.5077 36.6765 69.3087 37.185 69.0765 37.7709C68.0041 36.1016 66.3901 35.0734 65.0081 33.8131ZM63.4272 27.6442C61.4262 26.7819 59.7347 25.5769 58.9719 23.3658C59.4805 23.0784 59.989 22.7909 60.4754 22.5145C61.0614 23.1115 61.6031 23.7859 62.2664 24.3055C63.4162 25.212 64.7649 25.7095 66.2353 25.8533C66.8212 25.9085 67.4182 25.8975 67.9931 25.8311C69.9388 25.61 70.9228 24.2392 71.575 22.603C72.4373 20.4693 72.4263 18.3246 71.3981 16.213C71.9288 15.8924 72.4373 15.6049 72.968 15.2843C73.7971 16.3014 74.3499 17.4291 74.4826 18.7447C74.6374 20.3035 74.5158 21.8291 73.8414 23.2663C73.167 24.6924 72.2494 25.9528 71.0665 26.992C70.1157 27.8211 68.8775 27.9538 67.7057 28.0754C66.2574 28.2191 64.787 28.2302 63.4272 27.6442ZM73.2333 26.4502C73.0786 25.9417 73.0896 25.4553 73.4213 24.9688C74.173 23.8743 74.7258 22.6804 74.9248 21.3537C75.0022 20.8562 75.0354 20.3477 75.0906 19.7839C75.9861 21.4974 76.6605 23.1226 76.2072 25.1125C75.8534 26.6824 75.8977 28.3407 76.3399 30.0322C74.969 29.0372 73.7198 28.0754 73.2333 26.4502ZM76.6937 29.391C76.5831 28.2191 76.561 27.0472 76.5942 25.8643C76.6273 24.8693 76.7932 23.8743 76.9037 22.8573C78.0203 23.399 78.6394 24.3608 78.9268 25.5105C79.2364 26.7487 79.3912 28.0201 79.6675 29.2583C79.8223 29.9216 80.0876 30.5628 80.3198 31.2593C79.3912 31.0714 78.4293 30.9387 77.5117 30.6844C76.9369 30.5297 76.7379 29.8885 76.6937 29.391ZM81.956 31.1598C80.8726 31.0161 80.364 30.1648 80.1319 29.1809C79.9329 28.3297 79.8334 27.4452 79.6675 26.5829C79.4685 25.5879 79.3248 24.5708 78.5178 23.6754C79.2585 23.7306 79.8334 23.7085 80.3751 23.8412C80.5962 23.8965 80.8394 24.2502 80.9057 24.5156C81.3701 26.2181 81.9118 27.8764 83.0726 29.2473C83.8133 30.1206 84.5982 30.9498 85.7812 31.2593C85.7701 31.3146 85.759 31.3588 85.748 31.4141C84.4877 31.3257 83.2053 31.3146 81.956 31.1598ZM84.1892 29.7669C82.9399 28.595 82.1218 27.1246 81.7017 25.4553C81.5801 24.9909 81.4917 24.5045 81.4696 24.0291C81.4475 23.3658 81.8123 22.9568 82.4646 23.0452C83.3932 23.1779 84.3329 23.3879 85.2173 23.7196C86.754 24.3055 88.0917 25.2452 88.9098 26.7045C89.4847 27.7216 89.739 28.8824 89.6505 30.0875C89.6284 30.4302 89.6505 30.7729 89.6505 31.1598C87.6163 31.3257 85.7148 31.193 84.1892 29.7669ZM89.6505 27.2241C89.1641 25.6543 87.948 24.7256 86.6435 23.8965C85.4937 23.1557 84.1892 22.7909 82.8736 22.4593C82.4756 22.3598 82.2545 22.1387 82.2545 21.6964C82.2434 21.1989 82.1661 20.7015 82.0997 20.0934C83.548 21.2653 85.2726 21.1326 86.8535 21.5196C87.2184 21.608 87.6053 21.6633 87.9591 21.7849C89.1088 22.1608 89.6616 23.0231 89.7279 24.1618C89.7942 25.201 89.739 26.2402 89.739 27.2794C89.7279 27.2683 89.6616 27.2573 89.6505 27.2241ZM84.7419 20.6794C83.7691 20.5246 82.9068 20.1708 82.155 19.5517C81.8123 19.2643 81.558 18.8663 81.2263 18.4793C82.1439 18.3688 82.951 18.214 83.7691 18.1808C85.0073 18.1366 86.2565 18.1256 87.5058 18.1919C87.948 18.214 88.4013 18.4462 88.7993 18.6783C89.3299 18.9879 89.2636 19.607 89.3852 20.1155C89.5289 20.7125 89.5842 21.3316 89.6837 21.9728C88.1249 21.1216 86.4224 20.9336 84.7419 20.6794ZM81.3811 21.9397C81.3369 22.5809 81.0163 22.9125 80.364 22.9457C78.8273 23.0231 77.6113 22.404 76.6384 21.2542C75.7097 20.1708 75.3228 18.8331 74.8695 17.5286C74.6705 16.9426 74.4384 16.3567 74.2062 15.7044C75.8313 16.3678 77.4896 16.8984 79.0042 17.7055C80.6072 18.5788 81.4917 20.016 81.3811 21.9397ZM83.7249 7.25814C83.8686 8.00991 83.8133 8.8059 83.747 9.56872C83.6254 11.0501 82.5751 11.8129 81.3922 12.432C80.0655 13.1285 78.6394 13.3828 77.158 13.1949C76.3731 13.0954 75.6102 12.7858 74.8142 12.5647C75.0464 11.8019 75.2344 11.1828 75.4002 10.619C76.2957 10.7185 77.158 10.8622 78.0313 10.9175C79.1037 10.9838 80.0434 10.5858 80.8284 9.86721C81.4696 9.28127 81.4696 8.47423 81.4032 7.70036C81.3037 6.51743 80.7731 5.5114 79.9108 4.69331C79.6675 4.46114 79.4354 4.24003 79.1922 4.00787C79.6786 3.47721 80.1429 2.99078 80.6072 2.48223C82.3761 3.60988 83.3379 5.26818 83.7249 7.25814ZM80.751 6.91543C81.3369 8.9275 80.6846 10.0883 78.4294 10.4421C77.4012 10.5969 76.5942 10.4089 75.4997 9.98881C75.4997 9.71243 75.5107 9.41394 75.4997 9.1265C75.4776 8.83906 75.4223 8.55162 75.3891 8.33051C76.0967 8.38578 76.7932 8.50739 77.4896 8.49634C78.4515 8.48528 78.9268 7.76668 78.5178 6.89331C78.2082 6.24105 77.7329 5.65512 77.3238 5.04707C77.766 4.83702 78.2746 4.58275 78.8052 4.32847C79.6233 5.03602 80.4304 5.80989 80.751 6.91543ZM76.8705 8.00991C76.3841 7.94358 75.8756 7.84408 75.4223 7.64508C75.157 7.52347 74.958 7.21392 74.7811 6.94859C74.3278 6.28527 73.9077 5.59985 73.565 5.08024C74.2173 5.11341 75.0906 5.16869 75.964 5.1908C76.8042 5.21291 78.0313 6.46216 78.0092 7.30237C77.9982 7.75564 77.4786 8.09836 76.8705 8.00991ZM74.9801 9.00489C75.0796 9.57977 74.969 10.221 74.8364 10.7959C74.56 11.9677 74.1288 13.0954 73.4213 14.0793C72.6695 15.1296 71.5419 15.6492 70.37 16.0361C69.6735 16.2683 68.9328 16.4451 68.2031 16.5557C67.374 16.6884 66.6001 16.3899 65.8483 16.0472C64.4112 15.3728 63.383 14.2783 62.587 12.9295C62.3991 12.6089 62.4101 12.4431 62.6644 12.1778C63.5046 11.2934 64.2564 10.3094 64.4443 9.07122C64.5549 8.33052 64.4664 7.55664 64.4664 6.68327C65.4061 7.57875 66.2906 8.40791 67.1639 9.23706C67.374 9.43605 67.3408 9.62399 67.2303 9.87826C66.3679 11.8019 67.6062 14.2562 70.1821 14.3225C71.4645 14.3557 73.0896 12.5647 72.6916 11.0391C72.2162 9.17072 70.381 8.27523 68.9107 8.59584C68.6896 8.64006 68.4574 8.69534 68.2695 8.81695C68.0263 8.97172 67.8494 8.91645 67.6835 8.73956C66.8544 7.86619 66.0252 6.99282 65.1629 6.08628C65.8484 6.08628 66.4675 6.1526 67.0755 6.06416C67.6504 5.98677 68.2474 5.84305 68.7449 5.56667C69.4635 5.15762 70.0936 4.60485 70.768 4.12947C70.8785 4.05209 71.0996 4.01892 71.2102 4.0742C73.178 5.15762 74.5821 6.72749 74.9801 9.00489ZM69.4192 8.98278C70.6132 8.96067 72.0615 10.431 72.0504 11.6471C72.0394 12.4431 70.8454 13.615 70.0494 13.6039C68.8333 13.5929 67.4182 12.1667 67.4403 10.9727C67.4624 9.98882 68.4464 8.99383 69.4192 8.98278ZM69.9057 4.26215C68.4795 5.43401 66.8765 6.00889 65.0745 5.4119C64.3006 5.15763 63.6152 4.5938 62.8745 4.15159C63.184 3.60988 63.4162 3.22294 63.571 2.94655C64.4222 3.31138 65.2624 3.77571 66.1579 4.02998C67.6835 4.4722 69.5408 3.41088 69.7509 2.07318C69.972 0.647037 69.5187 -0.535889 68.3579 -1.39821C67.8383 -1.78514 67.2413 -2.08364 66.6664 -2.42635C66.8654 -2.78012 67.0976 -3.16706 67.3298 -3.56506C69.773 -3.12284 71.1328 -0.967041 71.0996 0.890258C71.0886 1.46514 71.0444 2.05107 70.9449 2.62595C70.8343 3.31138 70.4363 3.81993 69.9057 4.26215ZM66.2685 -1.99519C67.5288 -1.45348 68.778 -0.867546 69.2092 0.580704C69.7067 2.26112 68.7448 3.4551 67.1197 3.62093C65.8262 3.75359 64.8202 3.10133 63.8694 2.34956C63.8142 2.30534 63.7699 2.20584 63.7589 2.12846C63.7257 1.64202 63.7147 1.16665 63.6815 0.613876C64.2564 1.05609 64.7428 1.46514 65.2735 1.81891C65.5499 2.00685 65.8926 2.16162 66.2242 2.2169C66.9981 2.34957 67.5067 2.07318 67.7499 1.44303C67.9378 0.967647 67.7167 0.260101 67.1529 -0.09367C66.5891 -0.447441 65.9589 -0.70171 65.3509 -1.00021C65.1519 -1.08865 64.9418 -1.15499 64.7207 -1.24343C65.2071 -1.50876 65.6604 -1.75197 66.1247 -1.99519C66.1579 -1.99519 66.2242 -2.00624 66.2685 -1.99519ZM63.6926 -0.16C63.5046 -0.370052 63.3388 -0.613274 63.1177 -0.91177C64.5438 -0.878605 65.7599 -0.4585 66.8544 0.304321C67.175 0.525429 67.385 0.85709 67.2634 1.28825C67.1308 1.74152 66.6554 1.9184 66.0474 1.67519C65.0855 1.28825 64.3669 0.580711 63.6926 -0.16ZM63.0956 0.492268C63.3388 1.54253 63.3941 2.55961 62.6755 3.51038C61.1277 5.55561 58.3197 4.96968 57.0815 3.33349C57.0151 3.24505 57.0593 3.02394 57.1367 2.91338C57.2915 2.68122 57.4905 2.49328 57.7006 2.25006C58.1096 2.55961 58.4965 2.88023 58.9166 3.15661C59.79 3.74254 60.6192 3.6541 61.3378 3.04606C62.2885 2.22796 62.1337 1.1777 61.6694 0.492268C61.382 0.0611116 61.0503 -0.336887 60.7408 -0.756992C61.0172 -0.989155 61.2935 -1.24343 61.6252 -1.51981C62.2996 -1.00021 62.8966 -0.392158 63.0956 0.492268ZM59.0383 -0.944927C58.784 -1.03337 58.4965 -1.0776 58.2533 -1.18815C57.3247 -1.60826 57.4021 -1.61932 57.4352 -2.6143C57.4573 -3.2334 57.2252 -3.87461 57.1036 -4.51582C57.9327 -4.40526 58.6624 -4.81431 59.3368 -5.4113C59.4141 -5.47763 59.591 -5.52185 59.6795 -5.47763C60.785 -4.99119 61.8021 -4.01833 61.4925 -2.52585C61.3267 -1.67459 59.9116 -0.635376 59.0383 -0.944927ZM53.0905 -4.18415C53.1347 -3.99622 53.1457 -3.80828 53.1347 -3.62033C53.1015 -3.25551 52.8472 -3.10073 52.5266 -3.28867C52.2392 -3.46556 51.9076 -3.66456 51.7307 -3.94094C51.2111 -4.74799 50.8683 -5.6324 50.9678 -6.73794C51.9849 -6.04145 52.8251 -5.35603 53.0905 -4.18415ZM54.4945 -5.32286C53.4995 -5.44447 52.8251 -6.08567 52.206 -6.80427C52.0513 -6.98115 51.9407 -7.20227 51.7307 -7.50076C53.0794 -7.48971 54.2071 -7.21332 55.0141 -6.19623C55.1468 -6.0304 55.2684 -5.64346 55.191 -5.57713C55.0362 -5.4113 54.7267 -5.2897 54.4945 -5.32286ZM47.9387 -7.43443C47.2643 -6.4284 46.5346 -5.59924 45.3407 -5.34497C45.1748 -5.3118 44.9869 -5.27864 44.8211 -5.32286C44.5226 -5.40025 44.3015 -5.58819 44.5115 -5.93091C44.6773 -6.20729 44.8653 -6.49473 45.1085 -6.70478C45.6834 -7.20227 47.0874 -7.5671 47.9387 -7.43443ZM48.0382 -6.2294C48.2151 -6.38417 48.4362 -6.50578 48.7568 -6.72689C48.7457 -5.34497 48.4583 -4.20627 47.408 -3.39923C47.2532 -3.27762 46.8995 -3.17811 46.8221 -3.26655C46.6673 -3.42133 46.5457 -3.71982 46.5789 -3.92988C46.6784 -4.92486 47.3085 -5.62135 48.0382 -6.2294ZM42.7869 -4.50476C42.212 -3.69772 42.1236 -2.89068 42.3557 -2.02836C42.3889 -1.91781 42.3115 -1.71881 42.2231 -1.65248C41.018 -0.801211 39.9014 -0.546942 38.7959 -1.57509C37.9557 -2.34896 37.8894 -3.6535 38.7075 -4.54899C39.0391 -4.91381 39.4703 -5.20125 39.9014 -5.45552C40.023 -5.53291 40.3326 -5.46657 40.4653 -5.35602C41.3497 -4.63742 41.6371 -4.52687 42.7869 -4.50476ZM38.9949 -0.768042C38.6964 -0.370051 38.3647 0.016889 38.0994 0.436994C37.215 1.82997 37.7788 2.75861 38.9175 3.43299C39.4371 3.74254 40.0783 3.62093 40.609 3.27821C41.0844 2.96867 41.5376 2.6149 42.0241 2.27218C42.2673 2.57068 42.4994 2.84705 42.7427 3.12344C42.1678 4.26214 40.5758 4.98074 39.0944 4.81491C37.9778 4.6933 36.6512 3.4551 36.4964 2.34956C36.2974 0.790758 36.7064 -0.535876 38.1215 -1.49769C38.409 -1.26553 38.6964 -1.02231 38.9949 -0.768042ZM33.9979 1.52041C33.3346 1.8963 32.6823 1.81891 32.4501 1.38775C32.2401 0.989759 32.4833 0.459093 33.1356 0.0942665C34.1858 -0.491667 35.2914 -0.922827 36.5627 -0.900713C35.8883 0.127431 35.0371 0.934476 33.9979 1.52041ZM34.9155 -1.27659C34.1527 -0.900706 33.3346 -0.557989 32.5828 -0.104719C32.0079 0.237997 31.7868 0.945532 31.9526 1.40986C32.229 2.15057 32.9697 2.50434 33.7436 2.13951C34.3516 1.86313 34.8823 1.43197 35.4461 1.05609C35.6451 0.923425 35.811 0.768648 36.0431 0.580705C36.01 1.15558 35.9878 1.65309 35.9657 2.15058C35.9657 2.21691 35.9326 2.29429 35.8773 2.32746C34.8049 3.16767 33.6883 3.85309 32.218 3.5546C30.0732 3.12344 30.0069 0.779703 31.024 -0.414278C31.6541 -1.15499 32.4612 -1.5972 33.3346 -1.95098C33.423 -1.98414 33.5667 -1.98413 33.6552 -1.93991C34.0863 -1.71881 34.5175 -1.48664 34.9155 -1.27659ZM30.7697 -0.823321C29.7084 0.171663 29.5536 1.99579 30.4049 3.02394C31.2119 3.98575 32.3175 4.33953 33.5004 4.05209C34.4069 3.83098 35.2361 3.34454 36.1205 2.96866C36.2974 3.26716 36.5185 3.63199 36.7396 4.00787C35.1587 5.94256 32.2622 6.08627 30.5597 4.79279C29.8521 4.25108 29.0561 3.81993 28.824 2.88023C28.2712 0.669153 28.5365 -1.04444 30.2943 -2.6143C30.836 -3.10073 31.621 -3.32184 32.3175 -3.66456C32.4722 -3.36606 32.5828 -3.15601 32.7044 -2.94596C32.815 -2.75802 32.9476 -2.57008 33.0029 -2.50374C32.2511 -1.93992 31.4441 -1.45347 30.7697 -0.823321ZM29.0561 4.20687C29.7637 4.93652 30.5928 5.56667 31.5657 5.82095C32.4833 6.06416 33.4672 6.05311 34.4622 6.16366C33.6662 7.00387 32.8371 7.8883 31.9858 8.76167C31.8974 8.85011 31.632 8.87222 31.4994 8.81695C29.6089 7.98779 27.1325 8.92751 26.9446 11.7024C26.8782 12.62 27.4752 13.3828 28.2712 13.8692C29.3657 14.5326 30.7808 14.3667 31.6873 13.5597C32.616 12.7305 33.1024 11.1496 32.4722 9.8451C32.3506 9.59083 32.3727 9.42499 32.5386 9.25916C33.4119 8.43001 34.2853 7.60087 35.2029 6.73855C35.2029 7.43504 35.1587 8.06519 35.214 8.68429C35.2582 9.17072 35.3466 9.71244 35.5898 10.1215C36.021 10.8622 36.5517 11.5587 37.0823 12.2331C37.2813 12.4873 37.3255 12.6421 37.1376 12.8964C36.7175 13.4491 36.3748 14.0572 35.9105 14.5657C34.9044 15.6602 33.6441 16.3457 32.1737 16.5668C31.632 16.6552 31.024 16.5557 30.4712 16.412C29.3104 16.1135 28.1828 15.6934 27.1988 14.9969C26.1486 14.2451 25.629 13.1175 25.231 11.9567C24.9878 11.2602 24.833 10.5305 24.7003 9.80088C24.5566 8.94962 24.8662 8.16469 25.231 7.40187C25.9054 5.96467 26.9998 4.94758 28.3486 4.15159C28.6471 3.9526 28.8129 3.9526 29.0561 4.20687ZM31.4441 9.43604C32.3064 10.1104 32.4612 11.0944 31.9195 12.1225C31.4994 12.9185 30.7808 13.3386 29.9627 13.5597C29.6531 13.6371 29.2109 13.5486 28.9456 13.3718C28.3486 12.9517 27.7405 12.4873 27.641 11.625C27.829 10.619 28.3044 9.77877 29.2551 9.29233C29.9958 8.9054 30.7476 8.88328 31.4441 9.43604ZM24.9546 6.94859C24.7224 7.34658 24.4682 7.71141 23.9707 7.76669C23.429 7.83302 22.8872 7.95463 22.3566 7.93252C21.7928 7.89936 21.5938 7.49031 21.7707 6.97071C22.1134 5.93151 23.0862 5.22396 24.1697 5.20185C24.8883 5.1908 25.6069 5.11341 26.1486 5.08024C25.7948 5.62196 25.3526 6.27421 24.9546 6.94859ZM22.4561 5.08024C22.1134 5.5114 21.7375 5.9315 21.4279 6.39582C21.0852 6.90437 20.8641 7.4903 21.2511 8.05413C21.6159 8.58478 22.2571 8.56267 22.8209 8.54056C23.3073 8.51845 23.7938 8.36368 24.3023 8.26418C24.2581 8.83906 24.2249 9.425 24.1807 10.022C22.9867 10.4531 21.7375 10.7074 20.4882 10.2763C18.7525 9.66822 18.443 8.65113 19.0068 6.79383C19.3274 5.74357 20.1234 5.02496 20.8973 4.32847C21.4279 4.58275 21.9475 4.83703 22.4561 5.08024ZM18.9405 5.84305C18.4651 6.57271 18.2329 7.41292 18.2551 8.30841C18.2882 9.71244 19.3274 10.5305 20.7315 10.8401C21.9254 11.1054 23.1084 10.9506 24.2802 10.4974C24.4903 11.1939 24.6782 11.824 24.8883 12.4984C23.7275 13.018 22.5666 13.3718 21.2732 13.2391C19.847 13.0954 18.5425 12.7305 17.3706 11.8572C16.0771 10.8954 15.7013 9.60188 15.9003 8.1094C16.0219 7.22497 16.2651 6.3516 16.5525 5.51139C17.0058 4.20686 17.9787 3.28928 19.0953 2.48224C19.5596 2.97973 20.0129 3.47721 20.4551 3.95259C19.9465 4.57169 19.3827 5.16868 18.9405 5.84305ZM26.8672 31.1709C26.8782 31.1709 26.8893 31.1709 26.8672 31.1709V31.1709ZM26.8451 31.193C26.7787 32.1216 26.7124 33.0282 26.6461 33.9347C26.635 34.0453 26.6129 34.2111 26.5466 34.2443C25.9385 34.5317 25.3305 34.797 24.6229 35.1066C24.5566 34.3769 24.5013 33.7689 24.4571 33.1498C24.4461 33.0503 24.4903 32.8955 24.5566 32.8402C25.3084 32.2764 26.0822 31.7347 26.8451 31.193ZM22.036 33.5367C22.6661 33.4372 23.2852 33.2935 23.8933 33.1719C24.0259 33.9568 24.1476 34.7528 24.3023 35.6925C25.1536 35.3609 25.8832 35.0734 26.6571 34.7639C26.8893 35.4604 27.1325 36.179 27.3868 36.9639C25.7838 37.5609 24.1918 38.1579 22.5003 38.788C22.3013 37.6162 22.1134 36.5548 21.9254 35.4935C21.848 35.0182 21.7707 34.5428 21.7043 34.0674C21.6822 33.8021 21.6933 33.592 22.036 33.5367ZM23.3184 38.987C24.7445 38.5116 26.1486 37.9478 27.6079 37.4061C28.0169 38.1689 28.4481 38.9649 28.9014 39.8051C26.0491 40.6785 23.2521 41.5298 20.433 42.3921C19.7807 39.5508 19.1174 36.6986 18.443 33.7468C19.3827 33.7468 20.2671 33.7468 21.1737 33.7468C21.4169 35.184 21.6712 36.7096 21.9586 38.2242C22.1908 39.5066 22.0802 39.3961 23.3184 38.987ZM18.3435 46.0072C17.3043 41.8725 16.2872 37.8041 15.248 33.6915C16.2209 33.6915 17.05 33.6915 17.9123 33.6915C18.3656 35.6262 18.8189 37.5167 19.25 39.3961C19.4822 40.4242 19.7033 41.4524 19.9134 42.4916C19.9907 42.8896 20.1676 43.0001 20.5656 42.8675C22.8983 42.1267 25.231 41.4082 27.5637 40.6896C27.9064 40.579 28.2933 40.5569 28.6139 40.4021C29.1225 40.1589 29.3878 40.3911 29.6089 40.8001C29.8963 41.3197 30.1838 41.8283 30.5597 42.5247C26.4692 43.6856 22.4561 44.8353 18.3435 46.0072ZM38.0331 46.3941C36.8723 47.0464 35.7115 47.7097 34.6059 48.3399C33.8763 47.1017 33.1134 45.775 32.3175 44.4594C31.1898 42.58 30.018 40.7338 28.9345 38.8433C28.4039 37.9147 27.9838 36.9197 27.5637 35.9357C26.8782 34.3217 26.9446 32.6634 27.5194 31.0603C27.9064 29.9659 28.5255 28.9488 29.0451 27.8764C29.5205 28.0201 29.9295 28.1417 30.3275 28.2744C30.0401 28.9045 29.7084 29.4794 29.5094 30.0875C28.7576 32.3096 28.7908 34.5096 29.6973 36.7096C30.7697 39.3297 32.2401 41.7066 33.7104 44.0946C34.1084 44.7358 34.5396 45.366 34.9044 46.0293C35.0702 46.3167 35.1919 46.3499 35.4682 46.1841C37.5688 45.0122 39.6693 43.8403 41.7808 42.6795C43.3949 41.7951 44.8321 40.6895 46.0924 39.3518C46.9326 38.4564 47.4522 37.3951 47.806 36.19C48.1045 35.184 48.3588 34.2001 48.2703 33.0503C48.7347 33.1719 49.1216 33.2603 49.4754 33.3488C49.8181 35.781 49.4533 38.0363 47.9718 40.0041C47.0764 41.176 45.8603 42.0051 44.5779 42.7237C42.411 43.984 40.211 45.178 38.0331 46.3941ZM50.2714 46.3167C51.3658 45.0011 52.4824 43.6966 53.599 42.37C54.3397 42.8343 55.1025 43.3097 55.8985 43.7961C53.8865 45.9519 51.8965 48.0856 49.8623 50.2635C47.8613 48.1188 45.8603 45.974 43.8261 43.7961C44.5889 43.3207 45.3628 42.8343 46.1367 42.3479C46.999 43.3981 47.8502 44.4373 48.7015 45.4765C48.9668 45.7971 49.2322 46.1177 49.5307 46.4162C49.807 46.7037 50.0392 46.5931 50.2714 46.3167ZM49.8623 46.1288C48.7236 44.7469 47.6402 43.4313 46.5347 42.0936C47.1538 41.5298 47.6955 41.0544 48.2593 40.5458C48.6573 41.0433 49.0663 41.5408 49.4643 42.0494C49.7407 42.4031 49.995 42.381 50.2603 42.0383C50.6472 41.5408 51.0563 41.0433 51.4543 40.5348C52.0181 41.0433 52.5709 41.5408 53.1789 42.0825C52.0844 43.4092 51.0121 44.7137 49.8623 46.1288ZM49.8513 41.8725C49.4201 41.2755 49.0442 40.7669 48.6904 40.2363C48.6352 40.1589 48.6462 40.0041 48.6794 39.9157C49.0774 39.0423 49.4864 38.1689 49.8623 37.3619C50.2382 38.2131 50.6472 39.1529 51.0895 40.1699C50.7246 40.6674 50.3156 41.2313 49.8513 41.8725ZM54.6051 49.5449C53.1679 51.0374 51.7196 52.5077 50.2935 54.0002C50.0281 54.2766 49.796 54.3871 49.4864 54.0665C48.1708 52.7178 46.8442 51.3911 45.5397 50.0424C44.0361 48.4836 42.5658 46.9027 41.0291 45.2775C41.7477 44.8685 42.3889 44.4926 43.0522 44.1609C43.1849 44.0946 43.4723 44.1609 43.5829 44.2715C45.4954 46.3057 47.3859 48.362 49.2764 50.4183C49.8181 51.0042 49.8955 51.0042 50.4372 50.4183C51.7417 48.9921 53.0573 47.5881 54.3618 46.173C54.9257 45.565 55.5005 44.968 56.0423 44.3378C56.2634 44.0725 56.4734 44.0283 56.7609 44.1941C57.3578 44.5368 57.9659 44.8795 58.6845 45.2996C57.2915 46.7479 55.9538 48.1519 54.6051 49.5449ZM68.3026 42.967C67.2413 44.7911 66.1358 46.5821 65.0855 48.3288C62.6755 46.9579 60.177 45.5429 57.6784 44.1278C56.3186 43.3539 54.9478 42.6132 53.6322 41.773C51.4543 40.38 50.4151 38.2574 50.0945 35.7478C50.0392 35.2945 50.1497 34.8192 50.1719 34.3548C50.1829 34.0453 50.0171 33.5588 50.1497 33.4704C50.4925 33.2493 50.9457 33.194 51.399 33.0724C51.4322 33.6252 51.4211 34.1227 51.4985 34.6202C51.8965 37.3951 53.3116 39.5619 55.589 41.1539C56.783 41.983 58.0212 42.7458 59.2704 43.4976C60.2986 44.1167 61.3599 44.6695 62.4101 45.2444C63.0292 45.5871 63.6483 45.9187 64.2896 46.2172C64.4112 46.2725 64.6986 46.1951 64.7539 46.0846C66.3348 43.4423 67.9489 40.8112 69.4192 38.1136C70.2042 36.6765 70.7238 35.0734 70.7569 33.4041C70.768 32.6965 70.5358 31.9779 70.4584 31.2593C70.3368 30.198 69.9388 29.2583 69.2976 28.3075C69.7619 28.1638 70.1599 28.0422 70.5469 27.9317C71.8182 29.6784 72.6806 31.5578 72.6032 33.78C72.57 34.9187 72.2715 35.991 71.7409 36.9639C70.6353 38.987 69.4745 40.977 68.3026 42.967ZM72.8574 31.193C73.2333 31.4804 73.6313 31.8121 74.0514 32.1216C74.3389 32.3428 74.6374 32.5528 74.958 32.7186C75.2012 32.8513 75.3228 32.984 75.2896 33.2714C75.2122 33.8463 75.157 34.4212 75.0796 35.0955C74.4163 34.8081 73.8193 34.5428 73.2223 34.2664C73.1449 34.2332 73.1007 34.0784 73.0896 33.9679C73.0012 33.0503 72.9238 32.1216 72.8574 31.193ZM77.6223 38.8654C77.9319 37.1297 78.2635 35.4051 78.5731 33.7247C79.4354 33.7247 80.3088 33.7247 81.2706 33.7247C80.5962 36.6654 79.9439 39.5177 79.2806 42.3921C76.4947 41.5408 73.6755 40.6785 70.8122 39.8051C71.2544 38.976 71.6745 38.191 72.1057 37.395C73.167 37.8041 74.2062 38.2131 75.2675 38.6001C75.8866 38.8322 76.5168 39.0312 77.1469 39.2192C77.4454 39.3076 77.567 39.175 77.6223 38.8654ZM84.4656 33.6804C83.4374 37.782 82.4203 41.8504 81.3811 45.9851C77.2796 44.7911 73.1891 43.8514 69.176 42.4252C69.6182 41.6624 70.0162 40.9549 70.4363 40.2363C71.1439 40.4242 71.8072 40.5679 72.4373 40.7669C74.5931 41.4303 76.7379 42.1157 78.8826 42.7901C79.6454 43.0333 79.6344 43.0222 79.8113 42.2152C80.2535 40.2473 80.7178 38.2795 81.1711 36.3006C81.3369 35.5599 81.5248 34.8192 81.6907 34.0784C81.746 33.8021 81.8565 33.6583 82.1661 33.6583C82.8847 33.6915 83.6032 33.6804 84.4656 33.6804ZM77.7439 33.5588C77.8545 33.581 78.0092 33.8131 77.9982 33.9126C77.755 35.4935 77.4896 37.0744 77.2133 38.788C75.5218 38.1579 73.9188 37.5609 72.3268 36.9639C72.57 36.179 72.8022 35.4714 73.0233 34.7528C73.775 35.0513 74.5157 35.3388 75.4002 35.6925C75.5439 34.7639 75.6655 33.9789 75.7982 33.1719C76.4283 33.2935 77.0917 33.4041 77.7439 33.5588ZM91.5852 26.4613C91.5631 28.2633 91.5189 30.0764 91.5078 31.8784C91.5078 32.2985 91.5852 32.7297 91.6294 33.1277C89.4626 33.1277 87.2957 33.1056 85.1399 33.1387C83.8354 33.1608 82.5198 33.3377 81.2153 33.2825C79.2917 33.2051 77.3017 33.3267 75.4997 32.4422C73.9962 31.7015 72.7248 30.6734 71.962 29.1146C71.7077 28.606 71.3981 28.1196 71.1328 27.6663C71.4203 27.3457 71.7077 27.0362 72.0062 26.7045C72.4152 27.2794 72.7358 27.8874 73.1891 28.3628C74.4273 29.6563 75.7761 30.795 77.6113 31.2151C79.5459 31.6684 81.4917 31.8231 83.4706 31.801C85.35 31.7789 87.2294 31.7568 89.1088 31.7236C89.3631 31.7236 89.6284 31.6794 89.8827 31.6242C89.9711 31.602 90.0817 31.4915 90.1038 31.392C90.1591 31.1709 90.1701 30.9498 90.1812 30.7176C90.2144 28.3407 90.2807 25.9528 90.2586 23.5759C90.2365 21.6854 90.0154 19.817 89.3299 18.0482C88.954 17.0864 88.4234 16.224 87.5942 15.5607C87.2957 15.3175 87.0967 14.9416 86.7982 14.6873C86.3008 14.2894 85.7701 13.9466 85.1842 13.5376C85.5269 13.2391 85.8254 12.9738 86.2234 12.631C87.1299 13.2501 88.1912 13.8361 89.0978 14.61C90.4797 15.8039 91.2978 17.3517 91.5189 19.1979C91.7068 20.7457 91.7842 22.2934 91.6294 23.8522C91.5299 24.7256 91.5963 25.599 91.5852 26.4613ZM97.2124 18.7226C96.2727 18.9105 95.4214 19.0874 94.5591 19.2311C93.9179 19.3417 93.2546 19.408 92.6134 19.5296C92.2264 19.5959 92.0053 19.5849 91.9611 19.0874C91.9058 18.5125 91.7179 17.9376 91.5852 17.3627C92.4144 17.2301 93.1993 17.0974 94.0837 16.9537C93.9068 16.4562 93.7963 16.0803 93.6526 15.7155C93.5088 15.3507 93.332 14.9858 93.1551 14.5878C93.8958 14.3446 94.6033 14.1235 95.3883 13.8582C95.9963 15.4612 96.5822 17.0421 97.2124 18.7226ZM95.8636 13.6481C96.5933 13.2501 97.4003 12.819 98.2405 12.3657C99.1139 15.218 99.9652 18.015 100.827 20.8341C97.9642 21.4974 95.1229 22.1497 92.2264 22.8241C92.1822 21.8733 92.1269 21 92.0827 20.1045C93.4757 19.8723 94.8687 19.6512 96.2616 19.408C96.5712 19.3527 96.8697 19.2421 97.1792 19.209C97.6657 19.1648 97.7652 18.9437 97.6104 18.5125C97.0245 16.9205 96.4606 15.3175 95.8636 13.6481ZM92.4807 14.621C92.5691 14.6321 92.6797 14.7095 92.7129 14.7868C92.9892 15.3728 93.2435 15.9808 93.542 16.6441C92.8787 16.7105 92.337 16.7547 91.8063 16.81C91.4857 16.8431 91.2978 16.7326 91.1098 16.4451C90.6787 15.8039 90.1812 15.2069 89.7058 14.5878C89.6616 14.5215 89.6284 14.4441 89.6063 14.411C90.5681 14.4773 91.5189 14.5436 92.4807 14.621ZM104.42 22.9346C100.297 23.9738 96.2506 24.9909 92.1269 26.0191C92.1269 25.1457 92.1159 24.405 92.138 23.6643C92.138 23.5316 92.3149 23.3216 92.4365 23.2995C95.2003 22.6472 97.9531 22.006 100.728 21.3869C101.424 21.2321 101.458 21.21 101.237 20.5025C100.507 18.1366 99.7662 15.7818 99.0365 13.416C98.926 13.0512 98.7933 12.6863 98.7601 12.3104C98.7491 12.1225 98.9149 11.8572 99.0807 11.7466C99.6225 11.3928 100.186 11.1054 100.85 10.7295C102.298 14.7316 103.227 18.8331 104.42 22.9346ZM93.6526 -6.85955C92.9782 -6.98116 92.2817 -7.03644 91.552 -7.12488C91.6184 -7.43443 91.6737 -7.7882 91.7842 -8.11986C91.8174 -8.23042 92.0164 -8.34097 92.138 -8.35202C92.6908 -8.38519 93.2546 -8.44048 93.7852 -8.36309C94.6807 -8.23042 95.5873 -8.06458 96.4606 -7.79925C98.4948 -7.1691 99.7994 -5.65452 100.816 -3.90777C102.22 -1.49771 103.547 0.967638 104.918 3.39982C105.537 4.4943 106.167 5.58879 106.764 6.62799C105.493 7.37975 104.155 8.16468 102.829 8.96067C100.971 10.0773 99.136 11.2381 97.2566 12.3215C95.8305 13.1506 94.3491 13.8803 92.6797 14.1014C91.6073 14.2341 90.546 14.1235 89.5621 13.7366C88.4565 13.3054 87.4173 12.7305 86.3118 12.2109C86.4555 11.7135 86.5771 11.3265 86.6988 10.9175C86.8204 10.9617 86.953 10.9617 87.0304 11.028C87.9701 11.7687 89.1309 11.9124 90.2365 12.1557C91.8948 12.5205 93.4867 12.1778 95.0566 11.5697C97.8425 10.4974 100.33 8.87222 102.862 7.33552C103.403 7.00386 103.934 6.63904 104.476 6.31844C104.708 6.17472 104.796 6.08628 104.631 5.79884C103.923 4.52748 103.293 3.22293 102.563 1.96262C101.712 0.470148 100.861 -1.02232 99.8878 -2.43741C99.0476 -3.66455 98.0968 -4.84748 96.7812 -5.62135C96.1179 -6.00829 95.3661 -6.24045 94.6586 -6.52789C94.3491 -6.63844 94.0063 -6.79322 93.6526 -6.85955ZM90.7782 -5.12386C91.143 -5.86457 91.9169 -6.00829 92.6134 -5.97512C93.4867 -5.94195 94.349 -5.72085 95.2003 -5.52185C95.6315 -5.42236 96.0295 -5.20125 96.339 -5.07964C95.2445 -4.47159 94.1058 -3.88566 93.0114 -3.21128C92.3149 -2.79118 91.6958 -2.24946 91.0435 -1.77408C90.3581 -1.27659 89.5842 -1.08866 88.744 -1.06655C88.1802 -1.04444 87.6274 -0.967046 87.0636 -0.911771C88.7661 -1.93992 89.9269 -3.38817 90.7782 -5.12386ZM93.8184 -3.17812C94.7581 -3.78617 95.7089 -4.39422 96.8918 -4.49371C97.3561 -4.52688 97.6435 -4.3721 97.9199 -4.06255C98.4837 -3.42134 99.0476 -2.76907 99.6777 -2.05047C97.8868 -2.00625 96.3943 -1.36504 94.8797 -0.756994C93.8958 -0.370054 92.8897 -0.160005 91.8395 -0.370054C91.3973 -0.458497 90.9772 -0.690664 90.5239 -0.856492C91.6626 -1.66353 92.7129 -2.45952 93.8184 -3.17812ZM91.5078 0.86814C91.8948 1.26613 92.1933 1.75257 92.4807 2.23901C92.7571 2.69227 92.5581 3.07922 92.1822 3.36666C91.1319 4.16265 89.949 4.31741 88.6887 4.07419C87.351 3.80886 86.3118 2.99078 85.2947 2.15057C84.5651 1.55358 83.8796 0.912372 83.2163 0.326438C84.5319 0.0832205 85.9028 -0.270558 87.2957 -0.414281C88.8324 -0.58011 90.347 -0.336896 91.5078 0.86814ZM74.3389 -8.03143C74.3831 -8.15303 74.5268 -8.35202 74.6263 -8.34097C75.2343 -8.3078 75.8313 -8.23042 76.4283 -8.17514C77.7771 -8.04247 78.8605 -7.32388 79.8886 -6.51683C80.5851 -5.96407 80.95 -5.17914 81.1711 -4.36104C81.3922 -3.53189 81.5248 -2.66957 81.6243 -1.81831C81.7902 -0.392167 81.2374 0.834983 80.3861 1.92947C79.6565 2.86917 78.9047 3.78676 77.7881 4.28425C77.3127 4.50536 76.7821 4.64908 76.2625 4.71541C74.5379 4.93652 72.968 4.42797 71.5087 3.5546C71.3981 3.48827 71.3539 3.21189 71.365 3.035C71.4313 2.18374 71.5861 1.33247 71.5861 0.481205C71.5861 -0.469559 71.1439 -1.28765 70.6021 -2.05047C70.4584 -2.24946 70.3258 -2.43742 70.1268 -2.72485C71.4313 -2.40425 72.6474 -2.12786 73.8414 -1.7962C73.9851 -1.75198 74.1288 -1.46453 74.1509 -1.27659C74.372 0.127441 75.1901 1.08925 76.5278 1.3988C78.3741 1.82996 80.154 0.857093 80.1098 -1.43137C80.0876 -2.79118 79.2253 -3.47662 78.2082 -3.89672C77.1911 -4.31682 76.0856 -4.13993 75.157 -3.42133C75.0243 -3.31078 74.8364 -3.22234 74.77 -3.07862C74.4605 -2.39319 74.0072 -2.49268 73.4213 -2.70274C72.4594 -3.0344 71.4645 -3.27761 70.3479 -3.59822C70.6243 -3.71983 70.779 -3.79722 70.9449 -3.8525C72.8685 -4.58215 73.7308 -6.19624 74.3389 -8.03143ZM76.2072 -3.355C77.2906 -3.56506 78.6726 -3.06757 79.1369 -2.29369C79.6123 -1.49771 79.2585 -0.745942 78.9489 -0.0162894C78.6283 0.746532 77.8987 0.735481 77.2133 0.735481C75.9529 0.735481 74.9801 0.0721545 74.7037 -0.955994C74.4162 -2.01731 75.1348 -3.14495 76.2072 -3.355ZM63.173 -7.27966C63.2172 -7.37915 63.2835 -7.51182 63.3498 -7.65554C63.6815 -8.40731 63.6704 -8.36309 64.4996 -8.15303C65.8041 -7.84348 67.2303 -6.0083 67.0313 -4.65954C66.8876 -3.68667 66.578 -2.8354 65.7046 -2.27157C64.4664 -1.47559 63.2835 -1.36504 61.8795 -1.95098C61.9348 -2.36003 61.99 -2.72485 62.0453 -3.08967C62.6423 -3.04545 63.2393 -2.97912 63.8363 -2.96807C64.6875 -2.94596 65.3951 -3.43239 65.6051 -4.13993C65.9147 -5.2123 65.7157 -5.94196 64.8755 -6.4505C64.3559 -6.77111 63.7699 -7.00327 63.173 -7.27966ZM62.7529 -6.70478C62.8081 -6.749 62.9297 -6.76006 62.9961 -6.72689C63.6262 -6.4505 64.3006 -6.24045 64.8423 -5.84246C65.373 -5.45552 65.4393 -4.81431 65.1298 -4.19521C64.8534 -3.64244 64.3669 -3.39922 63.7699 -3.42133C63.3388 -3.43239 62.9076 -3.48766 62.4875 -3.54294C62.189 -3.58716 62.0232 -3.73088 61.8574 -4.04043C61.5478 -4.58215 61.0724 -5.02436 60.6523 -5.49975C60.5418 -5.62136 60.387 -5.69873 60.1438 -5.86457C61.194 -5.86457 62.0453 -6.07463 62.7529 -6.70478ZM56.5066 -8.27464C56.5508 -8.34097 56.6945 -8.36309 56.783 -8.36309C57.8664 -8.41837 58.983 -7.54499 59.1599 -6.49473C59.2594 -5.88668 58.8171 -5.58818 58.4081 -5.3118C57.7337 -4.84747 56.5619 -4.90276 55.9096 -5.40025C55.8433 -5.44447 55.7659 -5.5108 55.7438 -5.57713C55.3679 -6.59422 55.3679 -6.59422 54.6272 -7.30176C55.3347 -7.53392 56.0754 -7.60026 56.5066 -8.27464ZM40.5648 -6.50578C40.7306 -7.55604 41.8472 -8.42942 42.9417 -8.37414C43.0412 -8.37414 43.1849 -8.34097 43.218 -8.28569C43.6492 -7.60026 44.3899 -7.54499 45.0975 -7.32388C44.5889 -6.79322 43.9698 -6.40629 43.9698 -5.59925C43.9698 -5.52186 43.8482 -5.44447 43.7708 -5.38919C42.8311 -4.74798 41.3829 -4.94697 40.7085 -5.84246C40.5758 -5.98618 40.5316 -6.28467 40.5648 -6.50578ZM37.3808 -6.43945C37.9778 -6.07463 38.7075 -5.95302 39.3929 -5.72085C38.608 -5.33391 38.0552 -4.64848 37.7235 -3.79722C37.7014 -3.74194 37.6351 -3.6756 37.5798 -3.65349C36.7949 -3.4545 35.9989 -3.23339 35.2029 -3.58716C34.6391 -3.83038 34.429 -4.32788 34.418 -4.8917C34.3959 -5.43341 34.7275 -5.8314 35.1697 -6.11884C35.413 -6.27362 35.7115 -6.35101 35.9657 -6.49473C36.4522 -6.749 36.8502 -6.77111 37.3808 -6.43945ZM34.9486 -8.06459C36.0984 -8.5068 36.1094 -8.48469 36.5185 -7.2686C35.9547 -7.00328 35.3687 -6.77111 34.8491 -6.4505C33.9758 -5.90879 33.7768 -5.16808 34.1195 -4.09571C34.3516 -3.38816 35.0371 -2.9349 35.9215 -2.95701C36.5074 -2.96807 37.0823 -3.0344 37.6683 -3.07862C37.7235 -2.71379 37.7788 -2.36002 37.8451 -1.92886C37.1265 -1.65248 36.3637 -1.42032 35.5677 -1.61932C34.429 -1.90676 33.4451 -2.40424 32.9366 -3.59822C32.0853 -5.59923 33.4893 -7.50076 34.9486 -8.06459ZM18.1003 -2.07258C18.2329 -3.05651 18.4651 -4.04044 18.7747 -4.9912C19.1063 -5.99724 19.9023 -6.62739 20.7757 -7.22438C22.1023 -8.11986 23.5837 -8.24146 25.0873 -8.35202C25.1757 -8.36307 25.3415 -8.17514 25.3747 -8.04248C25.828 -6.71583 26.3255 -5.4113 27.5194 -4.56004C28.0501 -4.18416 28.6581 -3.91883 29.2883 -3.56506C28.3375 -3.28867 27.3978 -3.01229 26.4581 -2.73591C26.3255 -2.69168 26.1817 -2.68063 26.0601 -2.62535C25.6511 -2.4153 25.3747 -2.45951 25.0873 -2.87962C24.1476 -4.23943 21.7043 -4.4937 20.3556 -3.13389C19.1174 -1.88464 19.4932 0.138499 20.6209 0.94554C21.6712 1.6973 23.241 1.90736 24.5013 0.713377C25.0762 0.171667 25.4853 -0.447439 25.5516 -1.25448C25.5848 -1.64142 25.7838 -1.78514 26.1596 -1.86253C27.2762 -2.10575 28.3707 -2.40424 29.5205 -2.70273C29.1446 -2.06152 28.7797 -1.50875 28.4813 -0.922819C27.9948 0.0279406 28.0612 1.05609 28.1607 2.08423C28.1607 2.1174 28.1828 2.15057 28.1938 2.18373C28.4702 3.53249 28.4702 3.53249 27.1988 4.10737C25.7616 4.74858 24.2913 4.93652 22.7325 4.59381C21.5164 4.32848 20.6872 3.53249 19.9023 2.65912C19.5596 2.27218 19.2611 1.84101 18.9626 1.42091C18.2108 0.381709 17.9344 -0.812273 18.1003 -2.07258ZM25.0652 -1.26554C24.9878 -0.425325 24.4792 0.138491 23.7496 0.470152C23.3516 0.64704 22.8983 0.702311 22.4671 0.812864C20.9968 0.73548 20.0902 -0.370054 20.3666 -1.8183C20.4993 -2.51479 21.0963 -2.81328 21.638 -3.10072C22.434 -3.53188 23.2742 -3.57611 24.0702 -3.12284C24.7777 -2.72485 25.1425 -2.08363 25.0652 -1.26554ZM14.3304 -0.0826163C15.0711 0.0500474 15.8229 0.193774 16.5415 0.337492C15.5133 1.18876 14.4852 2.10635 13.3907 2.94655C11.9424 4.0742 10.3063 4.50537 8.50423 3.91943C8.11729 3.79782 7.76352 3.54354 7.44292 3.28927C7.14442 3.05711 7.02281 2.72546 7.18864 2.31641C7.8188 0.713378 9.09016 -0.0383922 10.6932 -0.358999C11.9314 -0.613271 13.1254 -0.292665 14.3304 -0.0826163ZM4.95546 -0.701711C3.6841 -1.15498 2.39062 -1.54192 1.1082 -1.93991C0.82076 -2.02835 0.4891 -2.01731 0.091107 -2.06153C0.63282 -2.7138 1.15242 -3.34394 1.66097 -3.9741C2.31323 -4.77009 3.1866 -4.61531 3.87204 -4.25048C5.2429 -3.52083 6.52532 -2.62535 7.82985 -1.7962C8.26101 -1.51981 8.68112 -1.21026 9.13439 -0.900712C7.77458 -0.060506 6.39266 -0.193166 4.95546 -0.701711ZM7.65297 -5.91984C8.24996 -5.79823 8.73639 -5.55502 9.02383 -4.95803C9.84193 -3.27762 10.9917 -1.8957 12.7827 -0.955991C12.5615 -0.922826 12.462 -0.900712 12.3625 -0.900712C11.7987 -0.955991 11.2349 -1.02232 10.66 -1.06654C9.78665 -1.14393 9.00172 -1.45348 8.32735 -2.00625C6.79065 -3.27762 5.15446 -4.34998 3.20872 -5.01331C4.65697 -5.63241 6.061 -6.24045 7.65297 -5.91984ZM-3.20339 -0.20422C-2.36318 -1.69669 -1.52298 -3.20023 -0.616437 -4.65954C0.776537 -6.90378 2.91022 -8.03142 5.47506 -8.36308C6.20472 -8.46258 6.95648 -8.38519 7.69719 -8.36308C7.77458 -8.36308 7.88513 -8.26358 7.90724 -8.18619C8.00674 -7.82136 8.08413 -7.45654 8.16152 -7.11382C7.50925 -7.03644 6.89015 -7.01433 6.27105 -6.89272C3.89415 -6.4505 1.98157 -5.27864 0.489099 -3.34395C-1.02548 -1.38715 -2.20841 0.768657 -3.40239 2.92445C-3.92199 3.87521 -4.41948 4.84808 -4.93908 5.79885C-5.0828 6.05312 -5.04963 6.17472 -4.79536 6.32949C-3.68983 7.00387 -2.6064 7.73352 -1.48981 8.38579C0.00266463 9.25916 1.50619 10.1436 3.05394 10.9175C4.54642 11.6582 6.10522 12.2552 7.80775 12.2883C8.49318 12.2994 9.17861 12.1667 9.85299 12.0562C10.3947 11.9677 10.9364 11.8351 11.456 11.6471C11.9646 11.4592 12.4399 11.1717 12.9927 10.9064C13.1254 11.3486 13.2359 11.7356 13.3575 12.1336C12.1525 12.7416 11.0912 13.5929 9.69821 13.9135C7.79669 14.3446 6.00572 14.1567 4.3032 13.2833C3.04289 12.6421 1.8268 11.8903 0.599652 11.1717C-1.18026 10.1215 -2.94912 9.04912 -4.72903 8.00992C-5.52501 7.53454 -6.35417 7.10337 -7.07276 6.69433C-5.79034 4.41692 -4.50792 2.09529 -3.20339 -0.20422Z" fill="white" fill-opacity="0.06"/>
</g>
<path d="M24.3184 51.8405L23.0522 47.2513C25.9454 46.7134 30.7377 43.5676 31.3708 40.5989C32.0651 37.3579 29.8664 34.9884 29.3694 32.0605L33.7397 30.3719C40.3564 39.2916 34.8289 50.397 24.3116 51.8405H24.3184Z" fill="white"/>
<path d="M55.2089 43.9508C56.441 45.3331 59.3613 45.3263 60.5186 43.801C62.3974 41.3226 62.765 38.2858 65.6581 36.284C71.8255 32.008 79.0004 39.6476 76.4 46.1842C74.3442 51.3386 68.1836 50.5896 64.0924 48.3426C60.6275 50.6509 56.1619 51.1139 52.7787 48.3971C49.4976 50.6577 45.7059 50.7666 41.9074 49.8746C41.1722 49.7044 38.5242 49.078 38.6876 48.1383L40.3417 44.0734C42.5065 45.0062 49.8856 46.1638 49.0142 42.3712C48.5173 40.1991 44.9639 35.4941 44.9571 34.5681C44.9571 33.9145 48.0136 31.8309 48.5581 31.8173C49.9264 31.7901 52.6085 37.2372 53.1939 38.5922C53.7793 39.9472 54.3444 42.9908 55.2089 43.9577V43.9508ZM68.4287 40.3149C64.6506 44.0598 67.1693 45.4624 71.56 44.7203C72.8466 43.8759 71.2809 40.7983 69.9875 40.3353L68.4287 40.3149Z" fill="white"/>
<path d="M74.4307 52.3061C76.0372 57.8962 78.8146 66.5164 71.49 68.9744C68.9985 69.8119 63.9407 70.1115 63.0421 67.0679H62.4158C62.0278 67.2381 61.9461 67.9394 61.6534 68.1982C59.3389 70.2681 52.6337 70.1387 51.0272 67.0679C48.4813 69.9413 42.9878 70.2204 39.6114 68.7769C38.2907 68.2118 36.8068 66.3598 36.1192 65.0933C34.9143 62.8736 34.7033 58.6384 30.8367 60.79C27.7326 62.5195 29.0532 65.1478 29.7272 67.9054C28.2568 67.8101 25.6155 69.8255 24.7374 68.0484C21.0274 60.5313 27.7939 54.0696 35.3296 55.3497C40.6461 56.2485 38.9102 63.2072 42.6746 64.0311C48.2975 65.2635 48.5425 61.8659 49.128 57.3651L54.1926 58.2163C53.7705 59.367 53.1443 62.6829 53.8522 63.6158L58.1272 64.0515C60.3328 63.4047 60.0128 57.2153 61.1837 56.9838L65.5812 57.8009C65.4587 59.9457 63.9134 62.7783 66.2824 64.0583C67.8412 64.2081 69.618 64.4192 70.8637 63.3025C72.2456 61.1781 68.7398 54.1105 69.3797 53.5998L74.4239 52.3265L74.4307 52.3061Z" fill="white"/>
</g>
</g>
</g>
<rect x="2.22222" y="2.22225" width="95.5555" height="95.5555" rx="47.7778" stroke="white" stroke-width="3.82222"/>
<defs>
<linearGradient id="paint0_linear_1392_237453" x1="17.0164" y1="-24.8922" x2="88.8043" y2="91.7534" gradientUnits="userSpaceOnUse">
<stop stop-color="#5724A9"/>
<stop offset="1" stop-color="#421984"/>
</linearGradient>
<clipPath id="clip0_1392_237453">
<rect x="4.13333" y="4.13336" width="91.7333" height="91.7333" rx="45.8667" fill="white"/>
</clipPath>
<clipPath id="clip1_1392_237453">
<rect x="4.13333" y="4.13336" width="91.7333" height="91.7333" rx="45.8667" fill="white"/>
</clipPath>
<clipPath id="clip2_1392_237453">
<rect x="3.98779" y="4.13342" width="91.7333" height="91.7333" rx="25.3597" fill="white"/>
</clipPath>
<clipPath id="clip3_1392_237453">
<rect width="61.3108" height="99.5458" fill="white" transform="translate(0.0815582 52.5614) rotate(-90)"/>
</clipPath>
</defs>
</svg>
