<svg width="20" height="20" viewBox="0 0 20 20" fill="none" xmlns="http://www.w3.org/2000/svg">
<path d="M17.1875 9.6875C16.9751 9.68669 16.7635 9.71294 16.5578 9.76562C16.457 6.52031 14.2648 4.89687 12.6516 3.70469C11.7328 3.02578 10.9375 2.43828 10.9375 1.875C10.9375 1.62636 10.8387 1.3879 10.6629 1.21209C10.4871 1.03627 10.2486 0.9375 10 0.9375C9.75136 0.9375 9.5129 1.03627 9.33709 1.21209C9.16127 1.3879 9.0625 1.62636 9.0625 1.875C9.0625 2.43828 8.26719 3.02578 7.34375 3.70703C5.73203 4.89922 3.53984 6.51953 3.4375 9.76797C3.06816 9.67261 2.6819 9.66302 2.30828 9.73996C1.93467 9.81689 1.58361 9.9783 1.282 10.2118C0.980381 10.4454 0.736204 10.7448 0.568161 11.0872C0.400118 11.4297 0.312665 11.806 0.3125 12.1875V16.25C0.3125 16.4986 0.411272 16.7371 0.587087 16.9129C0.762903 17.0887 1.00136 17.1875 1.25 17.1875H18.75C18.9986 17.1875 19.2371 17.0887 19.4129 16.9129C19.5887 16.7371 19.6875 16.4986 19.6875 16.25V12.1875C19.6875 11.5245 19.4241 10.8886 18.9553 10.4197C18.4864 9.95089 17.8505 9.6875 17.1875 9.6875ZM3.4375 15.3125H2.1875V12.1875C2.1875 12.0217 2.25335 11.8628 2.37056 11.7456C2.48777 11.6283 2.64674 11.5625 2.8125 11.5625C2.97826 11.5625 3.13723 11.6283 3.25444 11.7456C3.37165 11.8628 3.4375 12.0217 3.4375 12.1875V15.3125ZM8.46172 5.21406C9.00859 4.8125 9.55547 4.40469 10 3.94297C10.4438 4.40469 10.9953 4.8125 11.5383 5.21406C12.875 6.20312 14.25 7.22188 14.6016 9.0625H5.39844C5.75 7.22188 7.125 6.20312 8.46172 5.21406ZM14.6875 15.3125H12.8125V13.125C12.8125 12.8764 12.7137 12.6379 12.5379 12.4621C12.3621 12.2863 12.1236 12.1875 11.875 12.1875C11.6264 12.1875 11.3879 12.2863 11.2121 12.4621C11.0363 12.6379 10.9375 12.8764 10.9375 13.125V15.3125H9.0625V13.125C9.0625 12.8764 8.96373 12.6379 8.78791 12.4621C8.6121 12.2863 8.37364 12.1875 8.125 12.1875C7.87636 12.1875 7.6379 12.2863 7.46209 12.4621C7.28627 12.6379 7.1875 12.8764 7.1875 13.125V15.3125H5.3125V10.9375H14.6875V15.3125ZM17.8125 15.3125H16.5625V12.1875C16.5625 12.0217 16.6283 11.8628 16.7456 11.7456C16.8628 11.6283 17.0217 11.5625 17.1875 11.5625C17.3533 11.5625 17.5122 11.6283 17.6294 11.7456C17.7467 11.8628 17.8125 12.0217 17.8125 12.1875V15.3125Z" fill="white"/>
</svg>
