<svg xmlns="http://www.w3.org/2000/svg" width="42" height="42" fill="none" xmlns:v="https://vecta.io/nano"><g clip-path="url(#A)"><rect width="42" height="42" rx="12" fill="#0b0515"/><g clip-path="url(#B)"><g clip-path="url(#C)"><path d="M-8.006-5.62l2.688 2.647 1.362 1.235c.116.101.106.172.046.283l-.491.901C-4.731.019-4.985.631-5.45 1.122c-.111.116-.035.197.096.243.957.349 1.751.992 2.627 1.488.046.025.076.132.061.187l-.86 2.819-.744 2.703c-.035.132-.01.208.137.243l1.149.304 2.075.542 2.344.516c.137.03.177.101.177.233v1.053l-.051 1.893c-.01.202.041.238.223.213l.947-.081 1.761.035c.395.005.39.005.481.39l.699 2.88.633 2.435c.035.132.086.223.243.177l.618-.182 2.404-.668 2.46-.744c.137-.046.203-.035.268.086.481.876 1.124 1.66 1.458 2.617.051.137.142.162.258.061.051-.041.091-.086.147-.121l2.45-1.417c.051-.025.177.015.223.066l1.109 1.215 2.764 2.804c.228.233.228.233.466-.01l2.511-2.551 1.306-1.427c.121-.142.208-.167.349-.071.051.035.111.056.167.091.785.476 1.665.805 2.364 1.427.116.101.203.051.253-.086.344-.962.987-1.756 1.483-2.632.025-.046.132-.086.182-.071l2.936.886 2.409.653c.37.101.364.101.456-.253l.769-2.916.567-2.475c.015-.066.116-.152.177-.157l1.311-.03 1.706.076c.152.01.233-.03.187-.208a1.21 1.21 0 0 1-.056-.329l-.005-2.673c0-.142.081-.172.187-.192l1.883-.4 3.634-.952c.187-.046.207-.132.162-.289l-.542-1.918-1.028-3.538c-.02-.066.015-.192.066-.223.866-.496 1.655-1.129 2.607-1.478.187-.071.182-.152.061-.294A3.36 3.36 0 0 1 46.847.5l-.977-1.777c-.177-.334-.172-.339.132-.587.03-.025.056-.056.086-.081l2.075-2.009 1.726-1.686c.071-.071.111-.127.111-.187h-.339c0 .091-.091.177-.273.364l-2.217 2.212-1.599 1.458-.501-.936c-.025-.051-.01-.162.03-.197l1.918-1.787 1.002-.926c.076-.066.116-.127.111-.187h-.263l-2.961 2.769-.658-1.063 1.412-1.164.43-.375c.056-.056.086-.111.081-.162h-.238l-.491.45-1.108.901c-.142.116-.248.192-.395-.025-.142-.218-.349-.395-.531-.592l.698-.557c.081-.061.116-.121.116-.177h-.197l-.754.537c-.03.02-.096.03-.127.01l-1.164-.547h-2.085a2.66 2.66 0 0 1-.127.729c-.218.704-.547 1.336-1.038 1.883-.375.415-.855.678-1.357.911-.531.248-1.093.233-1.67.202v-.825l.815-.197c1.25-.415 2.06-1.25 2.359-2.536l.025-.162h-.243c.005.375-.147.709-.344 1.028-.511.82-1.23 1.382-2.207 1.559l-.445.066-.207-.921.405-.111c.607-.162 1.114-.471 1.422-1.033a1.38 1.38 0 0 0 .182-.587h-.212c.005.309-.172.587-.486.896-.354.349-.82.501-1.301.597-.051.01-.132-.035-.162-.081l-.359-.542c.288-.132.587-.233.85-.4.202-.127.304-.299.304-.466h-.314c-.005.076-.046.152-.116.223-.284.289-.648.38-1.023.375-.167 0-.329-.172-.501-.258l-.699-.334-1.549-.01c0 .668-.339 1.22-.835 1.64-.531.45-1.164.582-1.858.42-.147-.035-.203-.081-.192-.233.01-.142 0-.283 0-.435h.719c.81-.02 1.357-.511 1.534-1.103.03-.096.041-.197.046-.294h-.233c0 .395-.248.774-.638.987-.461.248-.962.228-1.463.157-.035-.005-.076-.051-.101-.086l-.369-.577c.248.04.486.106.724.111.248.005.506-.015.744-.076.213-.056.364-.304.359-.511h-.238c0 .106-.121.253-.228.309-.127.066-.294.081-.435.076-.496-.02-.972-.132-1.417-.349-.01-.005-.015-.015-.02-.04h-1.022v.071c-.015.476-.471.916-.947.936-.086.005-.172.03-.258.03-.177.005-.334-.005-.395-.233-.096-.369-.329-.638-.719-.8h.005-.906c0 .081-.101.182-.182.218-.577.258-1.098.061-1.67-.218H19.97c-.552.248-1.053.476-1.615.228-.096-.04-.167-.147-.248-.223l-.896-.01c-.39.172-.612.461-.729.84-.025.076-.127.167-.202.172-.375.035-.891-.051-1.154-.39-.147-.187-.213-.405-.213-.623H13.89l.01.086-1.357.294c-.177.03-.39-.005-.557-.076a.42.42 0 0 1-.213-.304h-.253v.025c.01.218.187.471.435.506.304.046.623.03.931.025.152-.005.309-.051.466-.076-.127.197-.223.405-.369.562-.086.091-.258.116-.395.132-.602.061-1.154-.025-1.569-.526-.172-.208-.243-.425-.238-.643h-.228c-.01.278.106.526.278.754.334.44.795.643 1.346.643h.673l-.005.531c-.005.046-.081.106-.137.121-1.053.283-2.085-.258-2.455-1.114-.117-.273-.289-.557-.299-.84v-.096H8.388l-.881.461c-.202.127-.4.192-.618.101-.238-.096-.476-.208-.688-.349-.086-.061-.127-.137-.116-.213h-.319c0 .172.116.344.349.491.248.157.537.253.81.375l-.43.648c-.769-.152-1.463-.415-1.812-1.215-.046-.101-.066-.197-.066-.294h-.223c-.01.344.182.633.405.896.324.385.749.633 1.25.729.121.025.243.071.364.106l-.213.911c-1.235-.081-2.106-.714-2.718-1.711-.192-.314-.278-.628-.273-.931h-.228c-.005.38.142.729.319 1.043.42.734 1.028 1.296 1.832 1.594.263.096.552.142.83.197.142.025.228.066.218.238-.015.213-.005.425-.005.633-1.073.162-1.969-.182-2.759-.84-.795-.658-1.184-1.559-1.422-2.526-.025-.106-.035-.223-.03-.339H-.12l-1.134.531c-.046.02-.132.02-.172-.005l-.739-.521-.208-.005c0 .086.111.167.334.364.152.137.334.243.491.354l-.719.8-1.848-1.524h-.223c0 .056.035.111.101.167l1.837 1.544-.653 1.058-2.961-2.764h-.273c0 .071.066.142.208.268l1.944 1.802.84.774c.106.091.152.167.071.299l-.516.916-4.186-4.059h-.208c0 .046.046.111.127.192zm3.953 14.213L-2.464 3l.85.481c.147.086.197.187.137.369l-1.124 3.66c-.091.304-.076.319.233.385l2.5.572 1.25.289c.127.025.202.066.197.208V9.97c-1.908-.349-3.736-.906-5.634-1.377zm5.158-3.801l-.268.597c-.197.425-.177.476.273.567.233.046.471.061.709.086l-.187.876c-.015.061-.121.147-.172.137l-2.126-.369c-.01 0-.02-.02-.066-.066l.81-2.166 1.028.339zm1.625-.086c-.162.208-.395.395-.491.638-.208.516-.587.491-1.012.425l-.289-.051.39-.866c.015-.035.096-.046.147-.051l1.255-.096zm-3.214.628l-.45 1.276c-.061.172-.015.258.182.289l1.164.228 1.189.172-.056 1.255-3.943-.911 1.184-3.877 1.103.592-.375.977zm6.342 7.947l-3.194-.046c-.283 0-.567.04-.835.061v-2.986-.957l-.04-.663.015-1.235c.025-.329.096-.658.157-.982.111-.592.466-1.048.83-1.503.415-.516 1.038-.719 1.539-1.063l.445.405c-.263.182-.537.334-.759.537-.78.709-1.276 1.559-1.438 2.627-.132.86-.121 1.721-.142 2.581-.02.785.051 1.569.076 2.354.005.132.046.182.177.187.208 0 .41.03.618.036l2.743.03c.992-.015 1.989-.091 2.895-.537.339-.167.623-.456.921-.693.142-.111.288-.223.405-.359.182-.228.339-.476.531-.744l.395.456c-.334.496-.562 1.108-1.063 1.549-.648.567-1.382.886-2.237.937l-1.23.071c-.278.015-.542-.056-.81-.061zM1.596-1.864c-.192.268-.324.501-.511.693-.076.076-.253.091-.38.076-.587-.086-1.164-.253-1.751-.268-.709-.02-1.407.106-1.979.597-.01.01-.03.005-.116.01l.931-1.407c.268-.37.673-.445 1.093-.334s.83.268 1.24.415c.471.162.926.364 1.473.218zm-2.313.729c.466.03.931.182 1.382.329.354.111.461.42.253.699C.178.894-.783 1.552-2.059 1.568c-.688.005-1.306-.299-1.848-.724.643-1.524 1.62-2.09 3.189-1.979zM.472.717l.607-.572c.121-.116.238-.157.405-.066.208.111.43.192.709.314-.785.289-1.124.977-1.62 1.503-.172.182-.339.38-.542.537-.375.289-.79.263-1.189.066l-1.276-.683c.329-.02.623-.01.901-.061C-.763 1.608-.1 1.239.472.717zm.845.612c.314-.405.714-.678 1.184-.84.152-.051.329-.04.491-.056l.061.056-1.306 2.414c-.101.182-.309.314-.481.445-.142.106-.304.081-.471.015L-.313 2.98c.704-.445 1.164-1.053 1.63-1.65zm1.63-.233c.157-.405.395-.754.795-.982.248-.137.461-.329.709-.506l-.39.952c-.167.466-.187.952-.147 1.438.035.461-.208.724-.557.947-.385.243-.805.364-1.255.42l-.516.066c.648-.668 1.028-1.483 1.362-2.333zm1.27 1.675c-.172-.926-.167-1.837.268-2.698.4-.779.926-1.443 1.822-1.726l.38.673-.86.911c-.375.491-.592 1.068-.653 1.686a5.3 5.3 0 0 0 0 .85c.061.774.587 1.2 1.205 1.539.506.278 1.063.359 1.625.395.501.035.972-.116 1.432-.299l.142-.056.425.714c-1.134.977-2.997.921-4.191.096-.344-.238-.673-.506-.992-.774-.395-.339-.511-.82-.602-1.311zm15.134-7.021c-.116.329-.207.638-.081.962.015.046 0 .116-.03.157-.314.435-.673.673-1.215.511a.57.57 0 0 1-.314-.334c-.132-.466.091-.936.506-1.174.056-.03.142-.046.202-.025.314.106.607.015.931-.096zm4.1.091c.061-.02.157.01.218.046.415.263.607.693.481 1.159-.041.137-.197.299-.334.344-.445.142-.967-.106-1.195-.521-.02-.04-.051-.101-.035-.132.162-.334.03-.643-.066-.982.324.101.612.202.931.086zM41.74-2.082l1.033-.364c.921-.268 1.195.081 1.574.638a6.63 6.63 0 0 1 .577 1.058c-.086-.066-.162-.147-.258-.197-.683-.359-1.412-.506-2.182-.395-.461.066-.916.182-1.372.273-.152.03-.268.015-.359-.137-.132-.213-.299-.405-.486-.653.552.132 1.012-.056 1.473-.223zm2.47 1.159c.602.218.972.714 1.316 1.225.106.157.172.339.268.526-.633.471-1.316.78-2.101.734-.339-.02-.678-.142-1.002-.268-.653-.263-1.195-.688-1.63-1.24-.339-.435-.268-.714.243-.911.957-.375 1.934-.415 2.905-.066zM40.819.171l1.422 1.144c.476.319 1.038.466 1.615.491.132.005.263-.03.45-.056-.096.071-.152.121-.213.152l-1.22.633c-.516.243-.952.046-1.306-.334L40.49.965c-.218-.228-.491-.41-.744-.612l.602-.268c.203-.106.324-.04.471.086zm1.362 2.814c-.471.157-.891.359-1.336.43-.288.046-.526-.218-.704-.461-.43-.587-.749-1.23-1.012-1.908-.076-.197-.177-.385-.284-.607.815-.01 1.346.43 1.807 1.017.43.557.871 1.114 1.529 1.529zm-3.128-1.589c.228.734.617 1.407 1.205 2.009-.521-.03-.992-.091-1.427-.294-.152-.071-.294-.157-.435-.248-.299-.202-.476-.471-.45-.86.061-.835-.091-1.63-.542-2.364.694.461 1.377.881 1.65 1.756zm-1.357-.304c.147.78.03 1.549-.202 2.298a1.39 1.39 0 0 1-.304.531c-.694.709-1.468 1.301-2.47 1.483-.911.167-1.802.106-2.597-.456l-.273-.177.405-.678 1.195.278c.547.091 1.088-.015 1.61-.187.425-.142.8-.375 1.134-.678.334-.299.466-.683.501-1.098.121-1.367-.375-2.46-1.473-3.285-.02-.015-.035-.03-.066-.056l.41-.729c1.245.511 1.893 1.478 2.131 2.754zm-1.493 5.153c-.43.056-.85.137-1.26-.04l-.952-.44 1.523-.385c.238-.071.466-.213.668-.364.395-.294.764-.192 1.154.005.552.278.891.769 1.276 1.255-.815-.162-1.615-.137-2.409-.03zm-7.42 4.95c.385-.015.633.152.84.44.395.547.496 1.179.557 1.873-.663-.633-1.427-.997-2.222-1.311-.461-.182-.861-.43-1.109-.886-.126-.233-.309-.43-.44-.612l1.291.42c.349.081.724.091 1.083.076zm-13.267-.562c-.501.633-.825 1.352-1.665 1.6-.648.192-1.685.754-2.151 1.276.035-.769.137-1.174.435-1.706.223-.395.511-.633 1.012-.607.82.045 1.291-.01 2.369-.562zm-12.76 1.762c-.116-.79-.046-1.534.375-2.182.385-.592.957-.997 1.62-1.245.39-.147.8-.253 1.215-.309.354-.046.526.137.496.501-.056.764-.359 1.438-.795 2.06-.618.881-1.483 1.22-2.531 1.169l-.38.005zm.501-6.109c.461-.602.891-1.195 1.65-1.407.238-.066.45-.066.673.086.709.491 1.498.744 2.409.734-.8.415-1.544.749-2.465.542-.724-.162-1.488-.127-2.268.046zM8.9 5.652l.871-.309-.653 1.761c-.314.774-.86 1.306-1.691 1.503-.187.046-.395.015-.592-.01-.228-.03-.329-.202-.344-.425-.056-.724.248-1.291.79-1.746.471-.405 1.053-.582 1.62-.774zm-3.882.739c.501.015 1.002.111 1.519.172-.253.511-.704.795-1.235.931-.435.111-.891.157-1.331.258l-1.276.349c.076-.4.121-.845.268-1.255.061-.172.339-.334.537-.364.501-.081 1.012-.106 1.519-.091zM3.605 8.047c.339-.091.693-.142 1.048-.202.521-.091 1.053-.147 1.513-.542l-.086.881c-.02.086-.177.172-.289.202-.785.218-1.554.461-2.187 1.002-.395.339-.774.688-.906 1.225l-.081-.015.106-1.62c.04-.542.41-.8.881-.931zm2.997 1.675c.208-.693.218-.693.936-.759l.248-.025c-.572.759-.486 1.66-.699 2.475-.177.668-.45.926-1.124 1.017-.121.015-.248.025-.375.025H4.466c1.225-.542 1.787-1.554 2.136-2.733zm.931.43a2.44 2.44 0 0 1 .562-1.24c.121-.142.289-.238.496-.405l.127 2.511c.005.289-.116.582-.197.866-.046.172-.172.268-.359.299l-1.215.243c.38-.734.471-1.508.587-2.273zm1.382-.213c-.015-.354-.091-.704-.121-1.058-.03-.324.061-.623.213-.911.132-.248.233-.521.37-.83l.086.769c.081.552.289 1.058.612 1.503.243.339.233.683.076 1.033-.273.618-.79 1.012-1.346 1.422.192-.678.142-1.306.111-1.929zm1.832.04c-.501-.618-.926-1.27-1.058-2.07-.167-1.017-.04-1.974.663-2.809l.648.385c-.106.531-.283 1.022-.288 1.513-.01.85.218 1.655.795 2.333.471.552 1.083.653 1.746.633.592-.015 1.159-.192 1.645-.506.43-.278.795-.663 1.21-1.028l.653.369c-.425 1.336-2.091 2.237-3.245 2.171l-1.21-.096c-.653-.056-1.149-.39-1.559-.896zm7.39-6.469c.01-.01.03-.005.086-.02l-.405 1.635c-.02.076-.152.147-.248.162-.653.106-1.083.491-1.225 1.114-.147.648.101 1.357.855 1.569 1.022.289 1.782-.658 1.645-1.529-.071-.43-.283-.749-.607-1.012-.051-.04-.111-.127-.101-.177l.486-1.66.481.83c.385.526.967.749 1.559.952.061.02.157.091.157.127-.051.445-.056.911-.197 1.331-.38 1.124-1.195 1.751-2.384 1.837-.39.025-.8.046-1.174-.051-.364-.096-.714-.304-1.022-.526-.41-.299-.8-.643-1.007-1.129-.101-.238-.172-.491-.207-.749-.096-.764.137-1.463.516-2.116.03-.056.142-.116.197-.101.947.238 1.827.187 2.597-.486zm-.698-5.846c-.197.385-.284.769-.218 1.184.01.051-.03.132-.076.162-.218.157-.43.324-.668.45-.253.132-.516.061-.709-.147-.192-.202-.263-.445-.121-.693.127-.228.284-.435.435-.648.035-.046.111-.096.157-.086a1.92 1.92 0 0 0 1.2-.223zm.03.526c.035-.096.076-.192.121-.283.172-.344.172-.339.557-.268.319.061.607-.04.926-.243-.066.466.111.8.385 1.098.035.035.066.106.051.152-.147.618-.886 1.028-1.473.82-.349-.127-.79-.688-.567-1.276zm6.464-.597c.051-.015.147.015.177.056.359.471.516 1.058.061 1.559-.369.405-.987.435-1.397.04-.152-.147-.273-.329-.385-.511a.28.28 0 0 1 .03-.258c.263-.299.425-.628.375-1.083.385.263.749.314 1.139.197zm1.655.299c.061-.005.152.025.187.066.157.208.319.415.435.643.147.283.091.511-.132.729-.208.202-.445.258-.714.116-.228-.121-.435-.283-.643-.435-.046-.03-.086-.111-.076-.162.086-.435-.04-.825-.238-1.21.38.223.764.299 1.179.253zm-.096 6.211l.835-.106c.061-.005.152.046.182.096.481.795.673 1.655.44 2.561-.076.294-.263.582-.461.82-.233.278-.526.506-.81.734-.633.501-1.362.623-2.136.45-.359-.081-.724-.177-1.068-.309-.4-.152-.643-.486-.886-.83-.44-.612-.486-1.306-.542-2.009-.005-.04.056-.121.096-.132.977-.263 1.746-.759 2.096-1.792l.481 1.64c.015.061-.045.172-.106.218-.516.415-.688.952-.562 1.589.096.481.648.916 1.124.972.364.04.668-.066.947-.273.486-.364.592-1.255.223-1.767-.263-.359-.582-.628-1.048-.668-.192-.015-.253-.127-.289-.304l-.319-1.341c-.01-.046-.015-.091-.03-.182l.476.314c.415.273.866.385 1.357.319zm3.265 2.764c.01-.172.02-.344 0-.516-.02-.162-.076-.319-.116-.496l.395.061c.132.01.268 0 .42 0 .213.567.309 1.139.116 1.731-.207.628-.617.86-1.326.724-.405-.076-.754-.278-1.048-.577l-.344-.364.359-.729c.132.121.253.263.405.369s.314.192.486.248c.354.127.623-.066.653-.45zM27.542 8.33a1.83 1.83 0 0 0 1.412.268c.486-.096.916-.769.921-1.397 0-.223.01-.45-.02-.668s-.106-.43-.167-.653l.896-.273c.248.471.39.972.359 1.498-.03.511-.116 1.017-.364 1.493-.324.607-.734 1.073-1.473 1.124-1.301.086-2.328-.4-3.103-1.463l.673-.633.866.704zm.957-2.08c.035.172.03.359.005.531-.04.258-.207.344-.45.253a1.47 1.47 0 0 1-.719-.602c-.051-.081-.066-.192-.071-.294l-.061-1.119c.223.147.511.38.83.537.304.152.4.41.466.693zm-8.038 2.774c.268.43.678.425.947-.005.157-.258.258-.552.385-.83l.577.375c.03.02.066.081.056.116-.127.628-.344 1.21-.901 1.589-.562.38-.916.289-1.473-.238-.375-.354-.521-.84-.623-1.336-.01-.04.025-.106.061-.132l.572-.37.4.83zm-.127-1.129c0-.152.152-.304.233-.456l.359-.734.587 1.119c.04.086.03.223-.01.319-.106.268-.218.537-.369.774-.096.152-.268.142-.41.01-.299-.278-.385-.653-.39-1.033zm-.947 1.443c.238.633.628 1.119 1.296 1.336.456.147.815-.081 1.129-.349.4-.334.658-.769.754-1.291.02-.116.066-.228.096-.339l.754.162c.127.02.157.066.142.187-.066.633-.283 1.189-.683 1.691-.476.592-1.048 1.017-1.802 1.154a1.02 1.02 0 0 1-.506-.056c-1.265-.415-1.974-1.321-2.253-2.592-.025-.106-.005-.218-.005-.349l.891-.202.187.648zm.957-6.879c-.005.248.015.506.071.744.051.223.324.395.527.38.253-.015.425-.167.521-.395.132-.319.096-.653.025-.982l-.081-.456.597.375c.03.02.071.056.071.086.066.582.101 1.154-.294 1.66-.557.709-1.453.552-1.858-.233-.233-.45-.208-.936-.132-1.417.005-.04.061-.086.106-.111l.557-.359c-.041.243-.106.476-.111.709zm.385-.8c.041-.152.122-.294.202-.491.284.618.456 1.2.354 1.837-.03.192-.127.334-.334.344-.223.01-.324-.142-.369-.339-.106-.466.03-.906.147-1.351zm-1.164.597c0 .349-.03.678.005.997.061.572.562 1.124 1.058 1.265.678.187 1.326-.324 1.554-.855.167-.39.187-.8.127-1.215-.01-.051 0-.106 0-.172l.076-.015c.623-.025.658.005.663.638.01.896-.37 1.564-1.179 1.959-.273.132-.572.304-.86.299-.79-.015-1.417-.395-1.868-1.058-.354-.521-.395-1.093-.253-1.691.015-.056.086-.142.137-.147.172-.02.344-.005.542-.005zm5.532 3.887c.071.182.096.38.142.572-.035.668-.577 1.103-1.225.952-.309-.071-.43-.339-.567-.577-.278-.491-.192-1.235.451-1.508.425-.182.997.061 1.2.562zm-1.402-2.997c-.223-.263-.339-.618-.501-.941l.537-.319c.258.349.481.724.779 1.033.516.531 1.483.526 1.903.005.385-.471.44-1.017.238-1.574-.111-.309-.299-.587-.456-.881l.511-.299c.891.734.946 2.04.369 2.809-.248.334-.445.704-.886.815-.952.248-1.827.132-2.495-.648zm1.924-.825c.258-.137.359-.39.218-.795-.091-.268-.299-.496-.466-.739-.061-.091-.142-.167-.213-.258.466-.121.8.01 1.033.39.258.415.42.845.304 1.351-.218.936-1.22.987-1.777.552-.364-.283-.572-.673-.739-1.088-.015-.04-.02-.096-.005-.132l.309-.587.547 1.073c.182.294.537.369.79.233zm-.081-.947c.061.101.111.213.132.329.03.172.015.375-.177.42a.52.52 0 0 1-.42-.106c-.359-.354-.461-.84-.587-1.306-.035-.137-.035-.283-.051-.466.486.309.825.688 1.104 1.129zm-1.701.04a1.4 1.4 0 0 1-1.448.592c-.779-.187-1.225-.719-1.346-1.549l.496-.192.359.739c.258.43.562.521 1.083.375.324-.091.587-.501.547-.855l-.071-.769.516-.081c.289.607.213 1.179-.137 1.741zm-.557-1.2l.015.38c-.005.329-.182.537-.531.633-.233.066-.552-.076-.683-.319-.096-.182-.172-.375-.253-.562-.051-.127-.02-.233.045-.369.157-.324.258-.673.365-.952.182.162.395.425.668.567.283.147.375.339.375.623zM20.871.201c-.643-.025-1.189-.866-.936-1.453.025-.061.121-.111.192-.137a1.24 1.24 0 0 0 .81-.719c.172.385.44.623.815.719.152.035.197.121.218.258.116.709-.415 1.362-1.098 1.331zm1.341-1.842c-.076.061-.212.086-.314.071-.481-.066-.901-.607-.86-1.098.005-.035.01-.091.03-.106.319-.197.344-.552.456-.86.233.213.41.506.774.506.035 0 .076.051.101.086.299.425.218 1.068-.187 1.402zM21.139-3.19c-.035.081-.142.177-.208.177-.071 0-.172-.101-.213-.177-.268-.577-.051-1.103.208-1.68.278.582.486 1.103.213 1.68zm-.339.41c.015.01.025.04.03.061.122.456-.466 1.159-.936 1.154-.309-.005-.694-.618-.607-.952l.127-.43c.04-.116.127-.157.248-.208.223-.101.41-.278.612-.425.025-.015.03-.056.061-.111.106.369.147.714.466.911zM19.534-.918c.046-.04.071-.096.142-.187-.015.476.111.85.375 1.174.03.035.035.111.02.157-.111.263-.197.542-.354.774-.172.258-.461.299-.764.182-.238-.086-.395-.324-.39-.623 0-.182.015-.364.041-.547.025-.157.091-.258.258-.349.253-.147.456-.385.673-.582zm-1.129.673l-.056.825c-.01.38.208.699.521.8.486.157.825.071 1.063-.314.152-.248.263-.521.395-.79l.486.182c-.096.86-.557 1.316-1.23 1.529-.552.172-1.103.015-1.473-.461-.435-.557-.547-1.179-.223-1.848l.516.076zm-1.382 2.349c.218-.344.375-.729.557-1.083l.309.582c.015.03.025.076.01.106-.182.456-.415.871-.82 1.174-.284.213-.972.283-1.286.046-.329-.248-.542-.774-.445-1.235.086-.415.299-.764.567-1.088.025-.03.076-.066.111-.066l.709-.04-.4.491c-.116.167-.228.344-.309.531-.142.324-.051.643.208.795.253.142.607.076.79-.213zm-.177-.132c-.116.162-.294.268-.496.147-.203-.116-.192-.319-.122-.506.223-.572.648-.972 1.159-1.306-.01.618-.182 1.174-.542 1.665zM15.434.884c-.329.562-.461 1.139-.157 1.767.284.582.815.754 1.417.618.663-.152 1.017-.633 1.286-1.205l.071-.152c.01-.02.025-.035.035-.051l.537.314c-.218 1.179-1.271 1.751-2.035 1.726a6.02 6.02 0 0 1-.8-.076c-.263-.046-.506-.162-.658-.39-.213-.314-.471-.618-.592-.967-.258-.749-.147-1.468.41-2.08l.203-.223.547.319-.263.4zm2.268 4.631a.93.93 0 0 1 .79.592c.162.476-.01 1.119-.4 1.432-.081.066-.207.137-.299.121-.294-.046-.597-.096-.86-.218-.304-.142-.263-.471-.273-.719.005-.724.44-1.215 1.043-1.21zm-3.913 1.802c.258-.116.486-.314.719-.481.051-.035.076-.101.121-.167l.359.693c.015.035.005.111-.02.142-.334.339-.678.663-1.139.835-.739.273-1.437-.091-1.589-.876-.101-.526-.03-1.043.172-1.524l.805-.061-.127.638c-.015.152 0 .319.04.471.086.319.349.471.658.329zm.82-1.129c-.01.111-.051.243-.121.324-.147.162-.309.329-.501.435-.137.076-.38.137-.476.066-.116-.086-.182-.319-.177-.481.005-.223.051-.476.172-.658s.354-.294.547-.425l.612-.42-.056 1.159zm-2.43-.309l-.111.42c-.132.511-.137 1.028.061 1.518.334.82.952.982 1.848.673.238-.081.461-.218.663-.37.192-.147.344-.349.516-.531l.709.658c-.592.891-1.432 1.346-2.47 1.468a3.63 3.63 0 0 1-.704-.005c-.709-.066-1.098-.537-1.397-1.124-.309-.612-.43-1.265-.339-1.939.045-.354.187-.699.283-1.053l.942.283zm4.657 3.553l.273 1.402c.127.607.142 1.205-.096 1.797-.172.42-.451.749-.835.977-.41.238-.653.167-.866-.263-.278-.557-.304-1.139-.081-1.726.233-.617.678-1.088 1.098-1.569l.506-.617zm-4.687 3.958l1.772-.967c.228-.121.476-.213.739-.324.015.719-.344 1.225-.85 1.665l-1.458 1.331c-.081.076-.132.177-.223.304l-.359-.987c-.137-.461-.04-.764.38-1.022zm.81 1.377l1.149-1.002c.238-.223.425-.496.643-.754.101.223.238.476.324.749.025.076-.076.213-.142.304l-1.068 1.306c-.359.511-.516 1.119-.572 1.741-.01.127.035.263.056.395l-.061.03-.683-1.321c-.304-.613-.091-1.038.354-1.448zm.567 2.384c-.015-.415.142-.855.304-1.255.263-.658.704-1.205 1.275-1.63.375-.278.668-.197.84.238.359.906.42 1.827.147 2.769-.203.694-.724 1.114-1.286 1.498-.157.106-.339.172-.521.268-.466-.567-.729-1.205-.759-1.888zm2.561.683c.461-.921.481-1.888.243-2.87-.051-.213-.132-.425-.162-.643-.015-.096.02-.238.086-.299.208-.177.44-.324.709-.511-.132.496.02.906.167 1.316l.435 1.235c.192.678.035 1.078-.557 1.458a9.61 9.61 0 0 1-1.144.638c.071-.101.162-.202.223-.324zm1.144-3.396c-.177-.562-.127-1.083.187-1.64l1.286 1.934c.207.314.339.668.354 1.043.005.132-.101.299-.203.4-.278.273-.587.521-.921.815-.015-.952-.445-1.726-.704-2.551zm.673-1.265c-.284-.349-.42-.754-.42-1.215 0-.253-.046-.501-.081-.815l.122.167c.38.653.906 1.154 1.584 1.468.461.213.618.562.633 1.017.025.612-.208 1.164-.461 1.746-.299-.916-.8-1.66-1.377-2.369zm2.561-.096c-.8-.182-1.534-.531-2.131-1.098-.567-.531-.946-1.194-1.093-1.964-.066-.344-.046-.699-.066-1.078l.779.01c.051.005.127.111.137.177.122 1.184.769 2.03 1.736 2.647.739.476 1.508.461 2.242-.02.881-.572 1.478-1.351 1.675-2.404.076-.415.086-.415.511-.415h.39c.152 1.093-.203 1.989-.871 2.779-.653.774-1.534 1.169-2.49 1.392-.258.066-.557.035-.82-.025zm4.566-3.639l1.19 1.438c.542.714.744 1.503.38 2.364-.273.648-.658.653-1.22.132-.764-.698-.8-1.594-.628-2.531l.278-1.402zm-2.46 3.457c.769-.395 1.412-.911 1.858-1.736.01.906-.116 1.686-.724 2.364a5.08 5.08 0 0 0-1.113 2.035c-.314-.759-.653-1.478-.349-2.293a.75.75 0 0 1 .329-.37zm.364 2.303l1.139-1.807.385-.572c.405.673.304 1.326.061 1.989l-.542 1.696c-.041.132-.025.278-.041.491-.375-.339-.754-.613-1.048-.967-.197-.228-.096-.582.046-.83zm1.336 1.012c.101-.405.273-.795.39-1.195l.288-1.144c.02-.101-.02-.218-.035-.349l.683.491c.147.111.116.258.071.41-.172.602-.319 1.21-.284 1.842.025.531.111 1.058.369 1.534.066.121.157.233.218.395l-.866-.511a4.53 4.53 0 0 1-.537-.39c-.349-.284-.4-.678-.299-1.083zm1.357.329c-.061-.714.046-1.392.299-2.045.167-.425.471-.516.825-.233.881.699 1.483 1.579 1.569 2.728.056.764-.268 1.432-.729 2.05-1.093-.506-1.863-1.225-1.964-2.501zm2.156-1.513c-.248-.339-.547-.638-.835-.947-.147-.157-.218-.289-.091-.501.111-.187.182-.4.283-.628.101.172.172.354.294.481.294.299.617.567.926.85.263.238.547.466.774.734.208.248.344.547.238.901-.182.587-.511 1.093-.85 1.66.137-1.007-.203-1.812-.739-2.551zm.086-1.438c-.43-.395-.683-.881-.663-1.493.871.405 1.782.724 2.551 1.311.38.294.466.557.334 1.027l-.071.228-.288.739c-.491-.764-1.23-1.235-1.863-1.812zm-.724-2.824c-.916-.395-1.691-.947-2.04-1.959l.688-.39c.268.273.516.582.82.82.526.415 1.144.643 1.817.709.268.025.542.02.805-.01.891-.101 1.341-.729 1.64-1.478.395-.977.39-1.959-.081-2.926l.719-.425c.38.466.633.982.694 1.584.071.714.015 1.412-.294 2.07a5.21 5.21 0 0 1-1.27 1.706c-.435.38-1.002.44-1.539.496-.663.066-1.336.071-1.959-.197zm4.49-.547c-.071-.233-.066-.456.086-.678.344-.501.597-1.048.688-1.655l.076-.719c.41.785.719 1.529.511 2.44-.162.719-.142 1.478.061 2.252-.628-.456-1.2-.896-1.422-1.64zm1.584 1.346c-.051-.537-.061-1.073-.046-1.615.015-.456.091-.911.142-1.377.511.248.795.688.926 1.215l.339 1.716c.071.304.192.597.299.916l-1.286-.263c-.263-.071-.354-.364-.375-.592zm2.409.81c-.496-.066-.729-.456-.835-.906-.091-.39-.137-.795-.213-1.189-.091-.456-.157-.921-.526-1.331.339.025.602.015.85.076.101.025.213.187.243.309.213.78.461 1.539.992 2.166.339.4.699.78 1.24.921l-.015.071-1.736-.117zm1.022-.638c-.572-.537-.947-1.21-1.139-1.974-.056-.213-.096-.435-.106-.653-.01-.304.157-.491.456-.45.425.061.855.157 1.26.309.703.268 1.316.699 1.691 1.367a2.72 2.72 0 0 1 .339 1.549c-.01.157 0 .314 0 .491-.931.076-1.802.015-2.501-.638zm2.501-1.164c-.223-.719-.779-1.144-1.377-1.524-.526-.339-1.124-.506-1.726-.658-.182-.046-.283-.147-.283-.349-.005-.228-.041-.456-.071-.734.663.537 1.453.476 2.177.653l.506.121c.526.172.779.567.81 1.088.03.476.005.952.005 1.427-.005-.005-.035-.01-.041-.025zm-2.247-2.997c-.445-.071-.84-.233-1.184-.516-.157-.132-.273-.314-.425-.491l1.164-.137 1.711.005c.203.01.41.116.592.223.243.142.213.425.268.658.066.273.091.557.137.85-.714-.39-1.493-.476-2.263-.592zm-1.539.577c-.02.294-.167.445-.466.461-.704.035-1.26-.248-1.706-.774-.425-.496-.602-1.109-.81-1.706l-.304-.835 2.197.916a1.96 1.96 0 0 1 1.088 1.939zm1.073-6.722c.066.344.041.709.01 1.058-.056.678-.537 1.028-1.078 1.311-.607.319-1.26.435-1.939.349-.359-.046-.709-.187-1.073-.289l.268-.891 1.205.137c.491.03.921-.152 1.281-.481.294-.268.294-.638.263-.992-.046-.542-.288-1.002-.683-1.377l-.329-.314.648-.699c.81.516 1.25 1.276 1.427 2.187zm-1.362-.157c.268.921-.03 1.453-1.063 1.615-.471.071-.84-.015-1.341-.208v-.395c-.01-.132-.035-.263-.051-.364l.962.076c.44-.005.658-.334.471-.734-.142-.299-.359-.567-.547-.845l.678-.329c.374.324.744.678.891 1.184zm-1.777.501c-.223-.03-.456-.076-.663-.167-.121-.056-.213-.197-.294-.319l-.557-.855 1.098.051c.385.01.947.582.936.967-.005.208-.243.364-.521.324zm-.866.456c.046.263-.005.557-.066.82-.127.537-.324 1.053-.648 1.503-.344.481-.86.719-1.397.896-.319.106-.658.187-.992.238-.38.061-.734-.076-1.078-.233-.658-.309-1.129-.81-1.493-1.427-.086-.147-.081-.223.035-.344.385-.405.729-.855.815-1.422.051-.339.01-.693.01-1.093l1.235 1.169c.096.091.081.177.03.294-.395.881.172 2.004 1.351 2.035.587.015 1.331-.805 1.149-1.503-.218-.855-1.058-1.265-1.731-1.119-.101.02-.208.046-.294.101-.111.071-.192.046-.268-.035L27.942.894c.314 0 .597.03.876-.01.263-.035.537-.101.764-.228.329-.187.618-.44.926-.658.051-.035.152-.051.203-.025.901.496 1.544 1.215 1.726 2.258zm-2.546-.01c.547-.01 1.21.663 1.205 1.22-.005.364-.552.901-.916.896-.557-.005-1.205-.658-1.194-1.205.01-.45.461-.906.906-.911zm.223-2.161c-.653.537-1.387.8-2.212.526-.354-.116-.668-.375-1.007-.577l.319-.552c.39.167.774.38 1.184.496.698.202 1.549-.283 1.645-.896.101-.653-.106-1.195-.638-1.589-.238-.177-.511-.314-.774-.471l.304-.521a2.09 2.09 0 0 1 1.726 2.04c-.005.263-.025.531-.071.795-.051.314-.233.547-.476.749zm-1.665-2.865c.577.248 1.149.516 1.346 1.179.228.769-.213 1.316-.957 1.392-.592.061-1.053-.238-1.488-.582-.025-.02-.046-.066-.051-.101l-.035-.693.729.552a1.14 1.14 0 0 0 .435.182c.354.061.587-.066.698-.354.086-.218-.015-.542-.273-.704s-.547-.278-.825-.415c-.091-.041-.187-.071-.288-.111l.643-.344c.015 0 .046-.005.066 0zm-1.179.84c-.086-.096-.162-.208-.263-.344.653.015 1.21.208 1.711.557.147.101.243.253.187.45-.061.208-.278.289-.557.177-.44-.177-.769-.501-1.078-.84zm-.273.299c.111.481.137.947-.192 1.382-.709.936-1.994.668-2.561-.081-.03-.04-.01-.142.025-.192.071-.106.162-.192.258-.304l.557.415c.4.268.779.228 1.108-.051.435-.375.364-.855.152-1.169-.132-.197-.283-.38-.425-.572l.405-.349c.309.238.582.516.673.921zm-1.858-.658c-.116-.04-.248-.061-.359-.111-.425-.192-.39-.197-.374-.653.01-.283-.096-.577-.152-.871.38.051.714-.137 1.023-.41.035-.03.116-.051.157-.03.506.223.972.668.83 1.351-.076.39-.724.866-1.124.724zm-2.723-1.483a.89.89 0 0 1 .02.258c-.015.167-.132.238-.278.152-.132-.081-.284-.172-.364-.299-.238-.369-.395-.774-.349-1.281.466.319.85.633.972 1.169zm.643-.521c-.455-.056-.764-.349-1.048-.678-.071-.081-.122-.182-.218-.319.617.005 1.134.132 1.503.597.061.076.116.253.081.283-.071.076-.213.132-.319.116zm-3.001-.967c-.309.461-.643.84-1.189.957a.54.54 0 0 1-.238.01c-.137-.035-.238-.121-.142-.278.076-.127.162-.258.273-.354.263-.228.906-.395 1.296-.334zm.046.552c.081-.071.182-.127.329-.228-.005.633-.137 1.154-.617 1.524-.071.056-.233.101-.268.061-.071-.071-.127-.208-.111-.304.046-.456.334-.774.668-1.053zm-2.404.79c-.263.37-.304.739-.197 1.134a.2.2 0 0 1-.061.172c-.552.39-1.063.506-1.569.035-.385-.354-.415-.952-.04-1.362.152-.167.349-.299.547-.415.056-.035.197-.005.258.046.405.329.537.38 1.063.39zm-1.736 1.711l-.41.552c-.405.638-.147 1.063.374 1.372.238.142.532.086.774-.071l.648-.461.329.39c-.263.521-.992.85-1.67.774-.511-.056-1.119-.623-1.189-1.129-.091-.714.096-1.321.744-1.761l.4.334zm-2.288 1.048c-.304.172-.602.137-.709-.061-.096-.182.015-.425.314-.592.481-.268.987-.466 1.569-.456-.309.471-.698.84-1.174 1.109zm.42-1.281l-1.068.537c-.263.157-.364.481-.289.693.127.339.466.501.82.334.278-.127.521-.324.78-.496.091-.061.167-.132.273-.218l-.035.719c0 .03-.015.066-.04.081-.491.385-1.002.699-1.675.562-.982-.197-1.012-1.27-.547-1.817.289-.339.658-.542 1.058-.704a.21.21 0 0 1 .147.005l.577.304zm-1.898.208c-.486.456-.557 1.291-.167 1.761.37.44.876.602 1.417.471.415-.101.795-.324 1.2-.496l.284.476a2.12 2.12 0 0 1-2.83.359c-.324-.248-.688-.445-.795-.876-.253-1.012-.132-1.797.673-2.516.248-.223.607-.324.926-.481l.177.329a1.89 1.89 0 0 0 .137.202c-.344.258-.714.481-1.022.769zM11.41.034c.324.334.704.623 1.149.739.42.111.871.106 1.326.157l-1.134 1.189c-.04.04-.162.051-.223.025-.866-.38-1.999.051-2.085 1.321-.03.42.243.769.607.992a1.34 1.34 0 0 0 1.564-.142c.425-.38.648-1.103.359-1.701-.056-.116-.046-.192.03-.268l1.22-1.154.005.891c.02.223.061.471.172.658.197.339.44.658.683.967.091.116.111.187.025.304-.192.253-.349.531-.562.764-.461.501-1.038.815-1.711.916-.248.04-.526-.005-.78-.071-.531-.137-1.048-.329-1.498-.648-.481-.344-.719-.86-.901-1.392-.111-.319-.182-.653-.243-.987-.066-.39.076-.749.243-1.098.309-.658.81-1.124 1.427-1.488.137-.091.213-.091.324.025zm1.093 2.394c.395.309.466.759.218 1.23-.192.364-.521.557-.896.658-.142.035-.344-.005-.466-.086-.273-.192-.552-.405-.597-.8.086-.461.304-.845.739-1.068.339-.177.683-.187 1.002.066zM9.532 1.289c-.106.182-.223.349-.45.375-.248.03-.496.086-.739.076-.258-.015-.349-.202-.268-.44.157-.476.602-.8 1.098-.81l.906-.056-.547.855zM8.388.434l-.471.602c-.157.233-.258.501-.081.759.167.243.461.233.719.223.223-.01.445-.081.678-.127l-.056.805c-.547.197-1.119.314-1.691.116-.795-.278-.936-.744-.678-1.594.147-.481.511-.81.866-1.129l.714.344zm-1.61.349c-.218.334-.324.719-.314 1.129.015.643.491 1.017 1.134 1.159.547.121 1.088.051 1.625-.157l.278.916c-.531.238-1.063.4-1.655.339-.653-.066-1.25-.233-1.787-.633-.592-.44-.764-1.033-.673-1.716.056-.405.167-.805.299-1.189.208-.597.653-1.017 1.164-1.387l.623.673-.693.866zm3.629 11.596h0zm-.01.01l-.091 1.255c-.005.051-.015.127-.046.142l-.881.395-.076-.896c-.005-.045.015-.116.046-.142l1.048-.754zm-2.202 1.073l.85-.167.187 1.154 1.078-.425.334 1.007-2.237.835-.263-1.508-.101-.653c-.01-.122-.005-.218.152-.243zm.587 2.495l1.964-.724.592 1.098-3.877 1.184-.911-3.958h1.25l.359 2.05c.106.587.056.537.623.349zm-2.278 3.214l-1.417-5.639h1.22l.612 2.612.304 1.417c.035.182.116.233.299.172l3.204-.997c.157-.051.334-.061.481-.132.233-.111.354-.005.456.182l.435.79-5.593 1.595zm9.015.177l-1.569.891-1.048-1.777-1.549-2.571c-.243-.425-.435-.881-.628-1.331-.314-.739-.284-1.498-.02-2.232.177-.501.461-.967.699-1.458l.587.182-.375.83a4.18 4.18 0 0 0 .086 3.032c.491 1.2 1.164 2.288 1.837 3.381l.547.886c.076.132.132.147.258.071l2.89-1.605c.739-.405 1.397-.911 1.974-1.524.385-.41.623-.896.785-1.448.137-.461.253-.911.213-1.437l.552.137c.157 1.114-.01 2.146-.688 3.047-.41.537-.967.916-1.554 1.245l-2.996 1.68zm5.603-.035l1.523-1.807 1.053.653-2.764 2.961-2.764-2.961 1.058-.663 1.174 1.432.38.43c.127.132.233.081.339-.046zm-.187-.086l-1.524-1.848.79-.709.552.688c.127.162.243.152.364-.005l.547-.688.79.709-1.518 1.853zm-.005-1.949l-.531-.749c-.025-.036-.02-.106-.005-.147l.542-1.169.562 1.286-.567.779zm2.177 3.513l-1.974 2.04c-.122.127-.228.177-.37.03l-1.807-1.842-2.065-2.182.926-.511c.061-.03.192 0 .243.051l2.607 2.814c.248.268.284.268.532 0l1.797-1.944.769-.84c.101-.122.197-.142.329-.066l.881.506-1.868 1.944zm6.271-3.012l-1.473 2.455-3.391-1.923-1.853-1.078c-.997-.638-1.473-1.61-1.62-2.759-.025-.207.025-.425.035-.638.005-.142-.071-.364-.01-.405.157-.101.364-.127.572-.182l.046.709c.182 1.27.83 2.263 1.873 2.991l1.686 1.073 1.438.8.86.445c.056.025.187-.01.213-.061l2.136-3.649c.359-.658.597-1.392.613-2.156.005-.324-.101-.653-.137-.982-.056-.486-.238-.916-.531-1.351l.572-.172c.582.8.977 1.66.941 2.678-.015.521-.152 1.012-.395 1.458l-1.574 2.749zm2.085-5.391l.547.425c.132.101.268.197.415.273.111.061.167.122.152.253l-.096.835-.85-.38c-.035-.015-.056-.086-.061-.137l-.106-1.271zm2.182 3.513l.435-2.354h1.235l-.911 3.968-3.877-1.184.592-1.104 1.448.552.861.284c.137.041.192-.02.218-.162zm3.133-2.374l-1.412 5.634-5.588-1.63.577-1.002.916.243 2.951.926c.349.111.344.106.425-.263l.623-2.708.238-1.017c.025-.127.076-.192.218-.192l1.053.01zm-3.078-.056c.051.01.121.116.116.162l-.359 2.232-2.237-.835.319-1.012 1.088.43.182-1.154.891.177zm6.337-3.25l-.035 2.48c0 .192.035.39.056.572-.992 0-1.984-.01-2.971.005l-1.797.066c-.881-.035-1.792.02-2.617-.385-.688-.339-1.27-.81-1.62-1.524-.116-.233-.258-.455-.38-.663l.4-.44c.187.263.334.542.542.759.567.592 1.185 1.114 2.025 1.306.886.208 1.777.278 2.683.268l2.581-.035a1.7 1.7 0 0 0 .354-.046c.041-.01.091-.061.101-.106.025-.101.03-.202.035-.309l.035-3.27c-.01-.866-.111-1.721-.425-2.531-.172-.44-.415-.835-.795-1.139-.137-.111-.228-.283-.364-.4-.228-.182-.471-.339-.739-.526l.476-.415c.415.283.901.552 1.316.906a3.2 3.2 0 0 1 1.108 2.101c.086.709.122 1.417.051 2.131-.045.4-.015.8-.02 1.195zm2.576-3.543l-1.215.233-.891.137c-.177.03-.278.025-.299-.202-.025-.263-.111-.526-.172-.79l1.144-.187-.197-.567-.228-.516 1.022-.334.835 2.227zm-.617-2.323l1.088-.587 1.185 3.877-3.938.911-.066-1.245 1.913-.319c.142-.025.278-.076.42-.091.223-.02.268-.121.197-.319l-.8-2.227zm-1.549.445c.041.005.091.04.106.076l.38.85-.795.076c-.147.015-.233-.035-.319-.167-.197-.294-.425-.567-.643-.85-.02-.03-.035-.066-.046-.081l1.316.096zm5.467 3.806l-5.629 1.412.005-1.078c0-.061.081-.157.137-.167l3.796-.876c.319-.071.334-.081.233-.405L43.451 4.25c-.051-.167-.111-.334-.127-.506-.005-.086.071-.208.147-.258.248-.162.506-.294.81-.466.663 1.832 1.088 3.71 1.635 5.588zm-4.93-13.641c-.309-.056-.628-.081-.962-.121l.106-.456c.015-.051.106-.101.162-.106.253-.015.511-.04.754-.005.41.061.825.137 1.225.258.931.289 1.529.982 1.994 1.782l1.878 3.346.845 1.478-1.802 1.068-2.551 1.539c-.653.38-1.331.714-2.096.815-.491.061-.977.01-1.427-.167-.506-.197-.982-.461-1.488-.699l.177-.592c.056.02.116.02.152.051.43.339.962.405 1.468.516.759.167 1.488.01 2.207-.268 1.276-.491 2.414-1.235 3.573-1.939l.739-.466c.106-.066.147-.106.071-.238l-.947-1.756-1.225-2.015c-.385-.562-.82-1.103-1.422-1.458-.304-.177-.648-.283-.972-.415-.142-.051-.299-.121-.461-.152zm-1.316.795c.167-.339.521-.405.84-.39.4.015.795.116 1.185.208.197.046.38.147.521.202l-1.524.855c-.319.192-.602.44-.901.658-.314.228-.668.314-1.053.324-.258.01-.511.046-.769.071.779-.471 1.311-1.134 1.701-1.928zm1.392.891c.43-.278.866-.557 1.407-.602a.52.52 0 0 1 .471.197l.805.921c-.82.02-1.503.314-2.197.592-.45.177-.911.273-1.392.177-.203-.041-.395-.147-.602-.223l1.508-1.063zm-1.058 1.853c.177.182.314.405.445.628.127.208.035.385-.137.516-.481.364-1.022.435-1.599.324-.612-.121-1.088-.496-1.554-.881l-.952-.835 1.868-.339c.704-.076 1.397.035 1.929.587zm-7.861-4.075c.02-.056.086-.147.132-.142l.825.076c.617.061 1.114.39 1.584.759.319.253.486.612.587.987.101.38.162.774.207 1.164.076.653-.177 1.215-.567 1.716-.334.43-.678.85-1.19 1.078-.218.101-.461.167-.698.197-.79.101-1.508-.132-2.177-.531-.051-.03-.071-.157-.066-.238l.101-1.169c0-.435-.203-.81-.451-1.159l-.218-.309 1.701.425c.066.02.132.152.142.238.101.643.476 1.083 1.088 1.225.845.197 1.66-.248 1.64-1.296-.01-.623-.405-.936-.871-1.129s-.972-.111-1.397.218c-.061.051-.147.091-.177.157-.142.314-.349.268-.618.172l-1.407-.41.273-.116c.881-.334 1.276-1.073 1.554-1.913zm.855 2.141c.496-.096 1.129.132 1.341.486.218.364.056.709-.086 1.043-.147.349-.481.344-.795.344-.577 0-1.023-.304-1.149-.774a.9.9 0 0 1 .688-1.098zm-5.968-1.797l.081-.172c.152-.344.147-.324.527-.228.597.142 1.25.982 1.159 1.599-.066.445-.207.835-.607 1.093-.567.364-1.108.415-1.751.147l.076-.521.82.056c.39.01.714-.213.81-.537.142-.491.051-.825-.334-1.058-.238-.147-.506-.253-.779-.38zm-.192.263c.025-.02.081-.025.111-.01.288.127.597.223.845.405.243.177.273.471.132.754-.127.253-.349.364-.623.354-.197-.005-.395-.03-.587-.056-.137-.02-.213-.086-.288-.228-.142-.248-.359-.45-.552-.668-.051-.056-.122-.091-.233-.167.481 0 .871-.096 1.195-.385zm-2.86-.719c.02-.03.086-.04.127-.04.496-.025 1.007.375 1.088.855.046.278-.157.415-.344.542-.309.213-.845.187-1.144-.04-.03-.02-.066-.051-.076-.081-.172-.466-.172-.466-.511-.79.324-.106.663-.137.861-.445zm-7.299.81c.076-.481.587-.881 1.088-.855.045 0 .111.015.127.04.197.314.537.339.86.44-.233.243-.516.42-.516.79 0 .035-.056.071-.091.096-.43.294-1.093.202-1.402-.208-.061-.066-.081-.202-.066-.304zm-1.458.03c.273.167.607.223.921.329-.359.177-.613.491-.764.881-.01.025-.04.056-.066.066-.359.091-.724.192-1.088.03-.258-.111-.354-.339-.359-.597-.01-.248.142-.43.344-.562.111-.071.248-.106.364-.172a.57.57 0 0 1 .648.025zm-1.114-.744c.526-.202.531-.192.719.364l-.764.375c-.4.248-.491.587-.334 1.078.106.324.42.531.825.521.268-.005.532-.035.8-.056l.081.526c-.329.127-.678.233-1.043.142-.521-.132-.972-.359-1.205-.906-.39-.916.253-1.787.921-2.045zM6.394-2.841a7.63 7.63 0 0 1 .309-1.336c.152-.461.516-.749.916-1.022.607-.41 1.286-.466 1.974-.516.04-.005.116.081.132.142.208.607.435 1.205.982 1.594.243.172.521.294.81.456l-1.296.38c-.061.02-.127.025-.182.051-.187.096-.314.076-.445-.116-.43-.623-1.549-.739-2.166-.116-.567.572-.395 1.498.121 1.868.481.344 1.2.44 1.777-.106.263-.248.45-.531.481-.901.015-.177.106-.243.278-.278l1.539-.385-.476.815c-.223.435-.192.906-.147 1.377 0 .015.01.03.015.046.127.618.127.618-.455.881-.658.294-1.331.38-2.045.223-.557-.121-.936-.486-1.296-.886-.157-.177-.294-.375-.43-.567-.344-.476-.471-1.022-.395-1.599zm3.189.369c-.035.385-.268.643-.602.795-.182.081-.39.106-.587.157-.673-.035-1.088-.542-.962-1.205.061-.319.334-.456.582-.587.364-.197.749-.218 1.114-.01.324.182.491.476.456.85zm-4.915.542l1.012.192L4.238-.543c-.663.516-1.412.714-2.237.445-.177-.056-.339-.172-.486-.289-.137-.106-.192-.258-.116-.445.289-.734.871-1.078 1.605-1.225.567-.116 1.114.03 1.665.127zM.376-2.214l-1.761-.567c-.132-.04-.283-.035-.466-.056l.719-.876c.299-.364.699-.294 1.012-.127.628.334 1.215.744 1.812 1.124l.597.41c-.623.385-1.255.324-1.913.091zm1.235-2.389c.273.056.496.167.628.44.375.769.901 1.402 1.721 1.832l-.192.025-.78-.076c-.4-.035-.759-.177-1.068-.43C1.216-3.393.467-3.884-.424-4.188c.663-.283 1.306-.562 2.035-.415zM-3.36-1.986l1.184-2.04C-1.538-5.053-.561-5.569.614-5.721c.334-.046.678-.01 1.017 0 .035 0 .086.046.096.081l.116.491-.866.101c-1.088.202-1.964.739-2.647 1.625-.693.896-1.235 1.883-1.782 2.87L-4.154.763c-.066.116-.051.172.066.243l1.513.941 2.08 1.159c.683.339 1.397.612 2.177.628.314.005.628-.056.936-.106a4.11 4.11 0 0 0 .734-.187c.233-.086.45-.218.704-.339l.167.562c-.552.278-1.038.668-1.675.815-.871.197-1.691.111-2.47-.289l-1.696-.967-2.44-1.448-1.073-.602 1.772-3.158z" fill="#fff" fill-opacity=".06"/></g></g><path d="M32.101 17.938a1.15 1.15 0 0 1-1.148 1.148h-1.148v1.149a1.15 1.15 0 0 1-1.149 1.148 1.15 1.15 0 0 1-1.148-1.148v-1.149h-1.148a1.15 1.15 0 0 1-1.149-1.148 1.15 1.15 0 0 1 1.149-1.148h1.148v-1.149a1.15 1.15 0 0 1 1.148-1.148 1.15 1.15 0 0 1 1.149 1.148v1.149h1.148a1.15 1.15 0 0 1 1.148 1.148zm-9.57-3.445h.383v.383a1.15 1.15 0 0 0 1.148 1.148 1.15 1.15 0 0 0 1.148-1.148v-.383h.383a1.15 1.15 0 0 0 1.149-1.149 1.15 1.15 0 0 0-1.149-1.148h-.383v-.383a1.15 1.15 0 0 0-1.148-1.148 1.15 1.15 0 0 0-1.148 1.148v.383h-.383a1.15 1.15 0 0 0-1.148 1.148 1.15 1.15 0 0 0 1.148 1.149zm7.255 8.65a1.15 1.15 0 0 1 .21 1.141 9.57 9.57 0 0 1-6.925 6.053 9.57 9.57 0 0 1-8.829-2.578 9.57 9.57 0 0 1-2.578-8.829 9.57 9.57 0 0 1 6.053-6.925 1.15 1.15 0 0 1 1.141.206 1.15 1.15 0 0 1 .38 1.095c-.101.517-.152 1.043-.152 1.569a8.05 8.05 0 0 0 8.039 8.039 8.16 8.16 0 0 0 1.567-.152 1.15 1.15 0 0 1 1.095.38zm-2.853 2.069a10.35 10.35 0 0 1-10.144-10.144c-.861.614-1.577 1.407-2.1 2.326s-.839 1.94-.927 2.994.055 2.113.419 3.106.939 1.894 1.687 2.641 1.649 1.323 2.641 1.686 2.052.506 3.106.419 2.075-.404 2.994-.927 1.712-1.239 2.326-2.1z" fill="#fff"/></g><defs><clipPath id="A"><rect width="42" height="42" rx="12" fill="#fff"/></clipPath><clipPath id="B"><rect x="-.067" width="42" height="42" rx="11.611" fill="#fff"/></clipPath><clipPath id="C"><path fill="#fff" transform="matrix(0 -1 1 0 -1.85577 22.1726)" d="M0 0h28.071v45.577H0z"/></clipPath></defs></svg>