<svg width="29" height="28" viewBox="0 0 29 28" fill="none" xmlns="http://www.w3.org/2000/svg">
<path d="M18.4376 7.4373C17.7577 7.43737 17.0802 7.51628 16.4185 7.67246C16.2217 7.38491 16.0023 7.11352 15.7623 6.8609L16.5902 5.67746C16.79 5.39231 16.8682 5.0395 16.8078 4.69665C16.7474 4.35379 16.5533 4.04898 16.2681 3.84925C15.983 3.64953 15.6302 3.57127 15.2873 3.63168C14.9445 3.69208 14.6397 3.88621 14.4399 4.17136L13.6109 5.35918C12.8419 5.02246 12.0153 4.83679 11.1762 4.8123L10.9246 3.39043C10.8581 3.05341 10.6621 2.7559 10.3787 2.56176C10.0954 2.36762 9.74715 2.29231 9.40886 2.35201C9.07057 2.41171 8.76917 2.60165 8.56935 2.88106C8.36953 3.16048 8.28722 3.5071 8.34009 3.84652L8.59165 5.2684C7.8117 5.57835 7.09845 6.03504 6.49056 6.61371L5.30274 5.78136C5.01759 5.58164 4.66479 5.50338 4.32193 5.56379C3.97908 5.62419 3.67426 5.81832 3.47454 6.10347C3.27482 6.38862 3.19655 6.74143 3.25696 7.08429C3.31737 7.42714 3.5115 7.73196 3.79665 7.93168L4.98446 8.76183C4.64683 9.53014 4.46113 10.3565 4.43759 11.1954L3.01571 11.447C2.69223 11.5037 2.40174 11.6795 2.20159 11.9399C2.00144 12.2003 1.90619 12.5263 1.93462 12.8534C1.96305 13.1806 2.11311 13.4852 2.35517 13.7072C2.59723 13.9291 2.91371 14.0523 3.24212 14.0523C3.3191 14.0522 3.39593 14.0456 3.47181 14.0326L4.89368 13.7811C5.00105 14.0536 5.12675 14.3185 5.26993 14.574C4.43957 15.4403 3.88198 16.5315 3.66641 17.712C3.45083 18.8925 3.58677 20.1103 4.05733 21.2141C4.5279 22.318 5.31236 23.2594 6.31331 23.9213C7.31426 24.5832 8.48759 24.9365 9.68759 24.9373H18.4376C20.7582 24.9373 22.9838 24.0154 24.6248 22.3745C26.2657 20.7335 27.1876 18.5079 27.1876 16.1873C27.1876 13.8667 26.2657 11.6411 24.6248 10.0001C22.9838 8.35917 20.7582 7.4373 18.4376 7.4373ZM11.0001 7.4373C11.5438 7.43774 12.0816 7.55079 12.5795 7.76934C13.0774 7.98789 13.5247 8.3072 13.8931 8.70715C12.3361 9.65146 11.1108 11.056 10.3865 12.7267C10.1545 12.7004 9.92111 12.6872 9.68759 12.6873C8.92677 12.6872 8.17263 12.8293 7.46399 13.1062C7.1701 12.5059 7.03384 11.8407 7.06806 11.1732C7.10227 10.5058 7.30583 9.85797 7.65956 9.29089C8.01329 8.7238 8.50554 8.2561 9.08996 7.93182C9.67438 7.60754 10.3317 7.43735 11.0001 7.4373ZM18.4376 22.3123H9.68759C8.75933 22.3123 7.86909 21.9436 7.21271 21.2872C6.55634 20.6308 6.18759 19.7406 6.18759 18.8123C6.18759 17.884 6.55634 16.9938 7.21271 16.3374C7.86909 15.6811 8.75933 15.3123 9.68759 15.3123H9.71821C9.70618 15.4326 9.69634 15.5529 9.68977 15.6732C9.66947 16.0213 9.78828 16.3632 10.0201 16.6237C10.2518 16.8842 10.5776 17.042 10.9257 17.0623C11.2738 17.0826 11.6157 16.9638 11.8762 16.732C12.1367 16.5002 12.2945 16.1745 12.3148 15.8264C12.3379 15.42 12.4017 15.0169 12.5051 14.6232L12.5215 14.5631C12.823 13.4606 13.4268 12.4643 14.2645 11.6867C15.1023 10.9091 16.1407 10.3812 17.2626 10.1625C18.3845 9.94376 19.5451 10.043 20.6136 10.449C21.6821 10.8549 22.6158 11.5515 23.3094 12.46C24.003 13.3685 24.4289 14.4528 24.5389 15.5905C24.6489 16.7282 24.4388 17.874 23.9321 18.8986C23.4255 19.9232 22.6425 20.7858 21.6716 21.389C20.7008 21.9922 19.5806 22.312 18.4376 22.3123Z" fill="white"/>
</svg>
