<svg width="100" height="46" viewBox="0 0 100 46" fill="none" xmlns="http://www.w3.org/2000/svg">
<path d="M11.4512 18.3311C11.4954 18.32 11.5452 18.3477 11.6006 18.4141C12.0433 19.0117 12.4473 19.637 12.8125 20.29C13.1777 20.932 13.46 21.6348 13.6592 22.3984C13.8584 23.1068 14.0023 23.8649 14.0908 24.6729C14.1794 25.4697 14.1628 26.2168 14.041 26.9141C14.0299 26.9473 14.0133 26.9971 13.9912 27.0635C13.9801 27.1299 13.9635 27.1963 13.9414 27.2627C13.9193 27.3291 13.8861 27.3844 13.8418 27.4287C13.8086 27.473 13.7699 27.4951 13.7256 27.4951C13.6481 27.4951 13.5983 27.4232 13.5762 27.2793C13.5651 27.1243 13.554 27.0026 13.543 26.9141C13.4544 25.7077 13.2165 24.5456 12.8291 23.4277C12.4417 22.3099 11.9437 21.347 11.335 20.5391C11.2796 20.4727 11.2243 20.4062 11.1689 20.3398C11.1247 20.2734 11.0915 20.2015 11.0693 20.124C11.0472 20.0908 11.0472 19.9857 11.0693 19.8086C11.1025 19.6204 11.1413 19.4268 11.1855 19.2275C11.2298 19.0173 11.2741 18.8236 11.3184 18.6465C11.3737 18.4694 11.418 18.3643 11.4512 18.3311ZM7.4834 35.2646C6.56478 35.0212 5.7347 34.6227 4.99316 34.0693C4.25163 33.516 3.5931 32.863 3.01758 32.1104C2.16536 30.9814 1.51237 29.5537 1.05859 27.8271C0.604818 26.0895 0.361328 24.6507 0.328125 23.5107C0.272786 22.0166 0.427734 20.4062 0.792969 18.6797C1.16927 16.9531 1.75586 15.4977 2.55273 14.3135C3.2168 13.2952 4.08008 12.3932 5.14258 11.6074C6.21615 10.8105 7.38379 10.3623 8.64551 10.2627C8.70085 10.0303 8.81706 9.79232 8.99414 9.54883C9.17122 9.30534 9.41471 9.12272 9.72461 9.00098C9.83529 8.93457 9.99023 8.88477 10.1895 8.85156C10.3997 8.80729 10.6377 8.81836 10.9033 8.88477C10.859 8.32031 11.014 7.89421 11.3682 7.60645C11.7223 7.30762 12.1042 7.1582 12.5137 7.1582C12.9121 7.1582 13.2884 7.30762 13.6426 7.60645C13.9967 7.89421 14.1572 8.32031 14.124 8.88477C14.3786 8.81836 14.6055 8.80729 14.8047 8.85156C15.015 8.88477 15.1865 8.93457 15.3193 9.00098C15.6182 9.12272 15.8561 9.30534 16.0332 9.54883C16.2103 9.79232 16.321 10.0303 16.3652 10.2627C17.627 10.3623 18.7891 10.8105 19.8516 11.6074C20.9251 12.3932 21.7995 13.2952 22.4746 14.3135C23.2604 15.4977 23.8359 16.9531 24.2012 18.6797C24.5775 20.4062 24.749 22.0166 24.7158 23.5107C24.6715 24.6507 24.417 26.0895 23.9521 27.8271C23.4984 29.5537 22.8509 30.9814 22.0098 32.1104C21.4453 32.863 20.7868 33.516 20.0342 34.0693C19.2816 34.6227 18.446 35.0212 17.5273 35.2646C16.9408 35.9066 16.1826 36.4268 15.2529 36.8252C14.3122 37.2458 13.3991 37.4505 12.5137 37.4395C11.6283 37.4505 10.7152 37.2458 9.77441 36.8252C8.84473 36.4378 8.08105 35.9176 7.4834 35.2646ZM11.4346 8.78516C11.4346 9.08398 11.5065 9.37174 11.6504 9.64844C11.7943 9.92513 11.8662 10.0745 11.8662 10.0967C11.18 9.42155 10.5381 9.2168 9.94043 9.48242C9.58626 9.63737 9.34831 9.89746 9.22656 10.2627C9.77995 10.2959 10.3223 10.4176 10.8535 10.6279C11.3958 10.8382 11.8164 11.1868 12.1152 11.6738C12.3698 12.0612 12.4971 12.515 12.4971 13.0352C12.486 13.6107 12.2979 14.1364 11.9326 14.6123C11.5785 15.0882 11.0638 15.3262 10.3887 15.3262C9.9681 15.3262 9.59733 15.2044 9.27637 14.9609C8.96647 14.7174 8.80599 14.3633 8.79492 13.8984C8.77279 13.3783 8.98861 12.9632 9.44238 12.6533C8.65658 12.4209 7.78223 12.5924 6.81934 13.168C7.19564 13.2122 7.5332 13.3451 7.83203 13.5664C8.36328 13.9538 8.5791 14.5127 8.47949 15.2432C7.68262 15.3206 6.88021 15.5143 6.07227 15.8242C5.26432 16.123 4.52279 16.516 3.84766 17.0029C3.08398 17.5785 2.46419 18.3255 1.98828 19.2441C1.51237 20.1628 1.22461 21.1589 1.125 22.2324C1.03646 23.306 1.1416 24.3353 1.44043 25.3203C1.73926 26.3053 2.22624 27.152 2.90137 27.8604C3.6429 28.6019 4.48958 29.194 5.44141 29.6367C6.4043 30.0794 7.41699 30.3561 8.47949 30.4668C8.52376 31.0312 8.40755 31.5072 8.13086 31.8945C7.8099 32.293 7.37272 32.4977 6.81934 32.5088C7.78223 33.1175 8.65658 33.3057 9.44238 33.0732C9.18783 32.9294 9.00521 32.708 8.89453 32.4092C8.75065 32.0771 8.75065 31.7396 8.89453 31.3965C9.16016 30.7324 9.66374 30.4004 10.4053 30.4004C11.1911 30.4004 11.7887 30.749 12.1982 31.4463C12.4196 31.8447 12.5081 32.2874 12.4639 32.7744C12.4196 33.2725 12.2868 33.7041 12.0654 34.0693C11.7445 34.6449 11.2188 35.0433 10.4883 35.2646C9.85742 35.4417 9.18783 35.4971 8.47949 35.4307C9.02181 35.8844 9.6582 36.2386 10.3887 36.4932C11.1413 36.7477 11.8496 36.875 12.5137 36.875C13.1667 36.875 13.875 36.7477 14.6387 36.4932C15.3802 36.2275 16.0111 35.8734 16.5312 35.4307C15.8229 35.4971 15.1644 35.4417 14.5557 35.2646C13.8141 35.0433 13.2773 34.6449 12.9453 34.0693C12.724 33.7041 12.5911 33.2725 12.5469 32.7744C12.5026 32.2874 12.5911 31.8447 12.8125 31.4463C13.222 30.749 13.8197 30.4004 14.6055 30.4004C15.347 30.4004 15.8506 30.7324 16.1162 31.3965C16.2601 31.7507 16.2601 32.0882 16.1162 32.4092C16.0166 32.708 15.8395 32.9294 15.585 33.0732C16.3597 33.3057 17.2396 33.1175 18.2246 32.5088C17.6491 32.4977 17.2064 32.293 16.8965 31.8945C16.6198 31.5072 16.5036 31.0312 16.5479 30.4668C17.6104 30.3561 18.6175 30.0794 19.5693 29.6367C20.5322 29.2051 21.3844 28.613 22.126 27.8604C22.79 27.152 23.2715 26.3053 23.5703 25.3203C23.8802 24.3353 23.9854 23.306 23.8857 22.2324C23.7972 21.1589 23.515 20.1628 23.0391 19.2441C22.5632 18.3255 21.9434 17.5785 21.1797 17.0029C20.5046 16.516 19.7575 16.123 18.9385 15.8242C18.1305 15.5143 17.3337 15.3206 16.5479 15.2432C16.4482 14.5127 16.6641 13.9538 17.1953 13.5664C17.4831 13.3451 17.8262 13.2122 18.2246 13.168C17.2396 12.5924 16.3597 12.4209 15.585 12.6533C16.0277 12.9743 16.2435 13.3893 16.2324 13.8984C16.2103 14.3633 16.0387 14.7174 15.7178 14.9609C15.4079 15.2044 15.0482 15.3262 14.6387 15.3262C13.9635 15.3262 13.4434 15.0882 13.0781 14.6123C12.7129 14.1364 12.5303 13.6107 12.5303 13.0352C12.5303 12.515 12.6576 12.0612 12.9121 11.6738C13.2109 11.1868 13.626 10.8382 14.1572 10.6279C14.6885 10.4176 15.2308 10.2959 15.7842 10.2627C15.6735 9.90853 15.4411 9.64844 15.0869 9.48242C14.4893 9.2168 13.8473 9.42155 13.1611 10.0967C13.1611 10.0745 13.2275 9.92513 13.3604 9.64844C13.5042 9.37174 13.5762 9.08398 13.5762 8.78516C13.5762 8.43099 13.46 8.15983 13.2275 7.97168C13.0062 7.78353 12.7682 7.68945 12.5137 7.68945C12.248 7.68945 11.999 7.78353 11.7666 7.97168C11.5452 8.15983 11.4346 8.43099 11.4346 8.78516ZM13.46 33.7871C13.9801 34.584 14.8656 34.9714 16.1162 34.9492C17.0348 34.9271 17.8815 34.7113 18.6562 34.3018C19.4421 33.8923 20.1393 33.3665 20.748 32.7246C21.6335 31.8281 22.3473 30.738 22.8896 29.4541C23.432 28.1702 23.8027 26.9141 24.002 25.6855C23.7363 26.3607 23.36 27.0358 22.873 27.7109C22.3861 28.375 21.8438 28.9173 21.2461 29.3379C20.6595 29.7363 20.0065 30.0794 19.2871 30.3672C18.5788 30.6549 17.8483 30.8486 17.0957 30.9482C17.14 31.5238 17.4609 31.8724 18.0586 31.9941C18.5566 32.0827 19.016 31.9997 19.4365 31.7451C19.8682 31.5016 20.084 31.3799 20.084 31.3799C19.929 31.734 19.7188 32.0329 19.4531 32.2764C19.1875 32.5199 18.9606 32.7025 18.7725 32.8242C18.1527 33.2227 17.5052 33.4827 16.8301 33.6045C16.166 33.7262 15.585 33.6709 15.0869 33.4385C14.6885 33.2725 14.4893 33.0013 14.4893 32.625C14.8656 32.791 15.1921 32.7191 15.4688 32.4092C15.7122 32.1657 15.7565 31.8835 15.6016 31.5625C15.4688 31.3079 15.3027 31.1419 15.1035 31.0645C14.9154 30.998 14.7493 30.9648 14.6055 30.9648C14.0299 30.9648 13.5928 31.2249 13.2939 31.7451C12.9066 32.3981 12.9619 33.0788 13.46 33.7871ZM16.1162 10.7939C14.9098 10.7718 14.0244 11.1536 13.46 11.9395C13.2054 12.2936 13.0726 12.6533 13.0615 13.0186C13.0615 13.3838 13.139 13.6992 13.2939 13.9648C13.5817 14.474 14.0244 14.7285 14.6221 14.7285C14.9984 14.7285 15.3027 14.568 15.5352 14.2471C15.7786 13.9261 15.762 13.6051 15.4854 13.2842C15.3193 13.1071 15.1312 13.0241 14.9209 13.0352C14.7217 13.0352 14.5778 13.0518 14.4893 13.085C14.4893 12.7419 14.6885 12.4707 15.0869 12.2715C15.596 12.0501 16.1826 12.0003 16.8467 12.1221C17.5107 12.2327 18.1527 12.4928 18.7725 12.9023C18.9606 13.0241 19.1875 13.2122 19.4531 13.4668C19.7188 13.7103 19.929 14.0036 20.084 14.3467C19.7962 14.1032 19.4199 13.9261 18.9551 13.8154C18.5013 13.6937 18.0973 13.7103 17.7432 13.8652C17.3779 14.0312 17.1621 14.3411 17.0957 14.7949C17.8704 14.8945 18.6286 15.0993 19.3701 15.4092C20.1117 15.7191 20.7868 16.0898 21.3955 16.5215C21.9821 16.931 22.5023 17.4733 22.9561 18.1484C23.4098 18.8125 23.7585 19.471 24.002 20.124C23.8359 19.0283 23.515 17.8717 23.0391 16.6543C22.5742 15.4368 21.9655 14.3799 21.2129 13.4834C20.5599 12.7308 19.8018 12.0999 18.9385 11.5908C18.0752 11.0817 17.1344 10.8161 16.1162 10.7939ZM11.5674 33.7871C12.0544 33.0677 12.1042 32.387 11.7168 31.7451C11.429 31.2249 10.9919 30.9648 10.4053 30.9648C10.2725 30.9648 10.1064 30.998 9.90723 31.0645C9.70801 31.1419 9.54199 31.3079 9.40918 31.5625C9.2653 31.8835 9.3151 32.1657 9.55859 32.4092C9.84635 32.7191 10.1729 32.791 10.5381 32.625C10.527 33.0013 10.3278 33.2725 9.94043 33.4385C9.43132 33.6709 8.83919 33.7262 8.16406 33.6045C7.5 33.4827 6.85807 33.2227 6.23828 32.8242C6.05013 32.7025 5.82324 32.5199 5.55762 32.2764C5.30306 32.0329 5.09831 31.734 4.94336 31.3799C4.94336 31.3799 5.15365 31.5016 5.57422 31.7451C5.99479 31.9997 6.4541 32.0827 6.95215 31.9941C7.5498 31.8724 7.88184 31.5238 7.94824 30.9482C7.1735 30.8486 6.43197 30.6549 5.72363 30.3672C5.0153 30.0794 4.3623 29.7363 3.76465 29.3379C3.16699 28.9173 2.62467 28.375 2.1377 27.7109C1.66178 27.0358 1.29102 26.3607 1.02539 25.6855C1.21354 26.9141 1.57878 28.1702 2.12109 29.4541C2.67448 30.738 3.39388 31.8281 4.2793 32.7246C4.88802 33.3665 5.57975 33.8923 6.35449 34.3018C7.1403 34.7113 7.98698 34.9271 8.89453 34.9492C10.1341 34.9714 11.0251 34.584 11.5674 33.7871ZM8.89453 10.7939C7.8763 10.8161 6.93555 11.0817 6.07227 11.5908C5.20898 12.0999 4.45638 12.7308 3.81445 13.4834C3.06185 14.3799 2.44759 15.4368 1.97168 16.6543C1.49577 17.8717 1.1748 19.0283 1.00879 20.124C1.25228 19.471 1.60091 18.8125 2.05469 18.1484C2.50846 17.4733 3.03418 16.931 3.63184 16.5215C4.22949 16.0898 4.89909 15.7191 5.64062 15.4092C6.38216 15.0993 7.15137 14.8945 7.94824 14.7949C7.8597 14.3411 7.63281 14.0312 7.26758 13.8652C6.92448 13.7103 6.52051 13.6937 6.05566 13.8154C5.59082 13.9261 5.22005 14.1032 4.94336 14.3467C5.09831 14.0036 5.30306 13.7103 5.55762 13.4668C5.82324 13.2122 6.05013 13.0241 6.23828 12.9023C6.85807 12.4928 7.5 12.2327 8.16406 12.1221C8.83919 12.0003 9.43132 12.0501 9.94043 12.2715C10.3278 12.4707 10.527 12.7419 10.5381 13.085C10.4274 13.0186 10.2669 12.9964 10.0566 13.0186C9.84635 13.0407 9.6748 13.1292 9.54199 13.2842C9.2653 13.6051 9.24316 13.9261 9.47559 14.2471C9.70801 14.568 10.0179 14.7285 10.4053 14.7285C11.0029 14.7285 11.4401 14.474 11.7168 13.9648C11.8828 13.6992 11.9603 13.3838 11.9492 13.0186C11.9382 12.6533 11.8109 12.2936 11.5674 11.9395C10.9919 11.1536 10.1009 10.7718 8.89453 10.7939Z" fill="#6D2DD3"/>
<path d="M34.9922 43.7168C33.9076 44.0599 32.8395 44.4085 31.7881 44.7627C30.7367 45.1169 29.7295 45.4489 28.7666 45.7588C28.5895 45.8141 28.5452 45.7588 28.6338 45.5928L29.3145 44.3311C29.3477 44.2646 29.3753 44.2148 29.3975 44.1816C29.4307 44.1484 29.4805 44.1208 29.5469 44.0986C29.8457 43.988 30.2386 43.8496 30.7256 43.6836C31.2126 43.5286 31.7383 43.3571 32.3027 43.1689C32.8783 42.9919 33.4648 42.8092 34.0625 42.6211C34.6602 42.4329 35.2301 42.2559 35.7725 42.0898C35.861 42.0566 35.9163 42.0456 35.9385 42.0566C35.9606 42.0788 35.9495 42.1341 35.9053 42.2227L35.1914 43.5176C35.1582 43.5618 35.125 43.6006 35.0918 43.6338C35.0697 43.6781 35.0365 43.7057 34.9922 43.7168ZM46.6963 10.9766C46.6963 11.1647 46.7461 11.3141 46.8457 11.4248C46.9564 11.5244 47.0837 11.6019 47.2275 11.6572C47.3714 11.7126 47.5264 11.7458 47.6924 11.7568C47.8695 11.7679 48.0244 11.7734 48.1572 11.7734C48.4671 11.7734 48.7549 11.707 49.0205 11.5742C49.2972 11.4414 49.5462 11.2699 49.7676 11.0596C49.7897 10.8604 49.7676 10.6501 49.7012 10.4287C49.6348 10.2074 49.5296 10.0081 49.3857 9.83105C49.2419 9.65397 49.0648 9.51562 48.8545 9.41602C48.6442 9.30534 48.4007 9.26107 48.124 9.2832C47.958 9.32747 47.792 9.41048 47.626 9.53223C47.46 9.6429 47.305 9.77572 47.1611 9.93066C47.0283 10.0856 46.9176 10.2572 46.8291 10.4453C46.7406 10.6224 46.6963 10.7995 46.6963 10.9766ZM50.5811 10.5449C50.5811 10.9212 50.5312 11.2865 50.4316 11.6406C50.332 11.9948 50.1771 12.3102 49.9668 12.5869C49.7565 12.8636 49.4854 13.085 49.1533 13.251C48.8324 13.417 48.445 13.5 47.9912 13.5C47.4268 13.5 46.9508 13.3174 46.5635 12.9521C46.1761 12.5869 45.9714 12.0999 45.9492 11.4912C45.9492 11.1813 45.9935 10.8105 46.082 10.3789C46.1816 9.9362 46.3311 9.51009 46.5303 9.10059C46.7295 8.69108 46.984 8.33691 47.2939 8.03809C47.6149 7.72819 47.9967 7.54557 48.4395 7.49023C48.86 7.44596 49.2087 7.52897 49.4854 7.73926C49.762 7.94954 49.9834 8.21517 50.1494 8.53613C50.3044 8.86816 50.415 9.22233 50.4814 9.59863C50.5479 9.96387 50.5811 10.2793 50.5811 10.5449ZM35.5732 26.6484C36.835 26.3939 38.0745 26.0729 39.292 25.6855C40.5094 25.2871 41.738 24.8389 42.9775 24.3408C43.055 24.3298 43.0938 24.374 43.0938 24.4736C42.9941 25.0381 42.9886 25.5195 43.0771 25.918C43.1768 26.3164 43.3483 26.654 43.5918 26.9307C43.8464 27.1963 44.1618 27.4066 44.5381 27.5615C44.9255 27.7165 45.3626 27.8327 45.8496 27.9102C46.3809 27.235 46.9287 26.5765 47.4932 25.9346C48.0576 25.2816 48.6497 24.6618 49.2695 24.0752C49.8893 23.4775 50.5368 22.9242 51.2119 22.415C51.887 21.9059 52.6064 21.4466 53.3701 21.0371C53.7354 20.8379 54.1504 20.7106 54.6152 20.6553C55.0801 20.5999 55.556 20.6055 56.043 20.6719C56.5299 20.7383 57.0059 20.86 57.4707 21.0371C57.9355 21.2142 58.3506 21.4411 58.7158 21.7178C59.0921 21.9834 59.3965 22.2933 59.6289 22.6475C59.8724 22.9906 60.0052 23.3669 60.0273 23.7764C59.9831 24.7171 59.7949 25.5306 59.4629 26.2168C59.1419 26.903 58.7158 27.5007 58.1846 28.0098C58.749 28.043 59.3079 28.0374 59.8613 27.9932C60.4147 27.9378 60.9294 27.9102 61.4053 27.9102H61.7041C61.9476 27.9102 62.1468 27.9766 62.3018 28.1094C62.4567 28.2311 62.5729 28.3916 62.6504 28.5908C62.7389 28.779 62.7777 28.9837 62.7666 29.2051C62.7666 29.4264 62.7279 29.6367 62.6504 29.8359C62.5729 30.0241 62.4512 30.1846 62.2852 30.3174C62.1302 30.4391 61.9365 30.5 61.7041 30.5H61.4053C60.863 30.5 60.2321 30.5055 59.5127 30.5166C58.8044 30.5277 58.0407 30.5387 57.2217 30.5498C56.4027 30.5609 55.5505 30.5664 54.665 30.5664C53.7907 30.5775 52.9163 30.5719 52.042 30.5498C51.4443 30.6383 50.819 30.6937 50.166 30.7158C49.513 30.738 48.8822 30.7324 48.2734 30.6992C47.6647 30.6771 47.1113 30.6328 46.6133 30.5664C46.1152 30.5 45.7223 30.4225 45.4346 30.334C45.2686 30.5775 45.1413 30.7933 45.0527 30.9814C44.9642 31.1807 44.8923 31.3356 44.8369 31.4463C44.693 31.7562 44.5326 31.889 44.3555 31.8447C44.1562 31.7783 44.0954 31.5736 44.1729 31.2305C44.195 31.1419 44.2448 31.0036 44.3223 30.8154C44.3997 30.6383 44.4993 30.3783 44.6211 30.0352C44.3333 29.9355 44.04 29.8027 43.7412 29.6367C43.4535 29.4596 43.1878 29.2438 42.9443 28.9893C42.7008 28.7347 42.4906 28.4469 42.3135 28.126C42.1364 27.7939 42.0202 27.4176 41.9648 26.9971C41.1348 27.3512 40.3102 27.6722 39.4912 27.96C38.6722 28.2367 37.7923 28.4857 36.8516 28.707C36.752 29.4043 36.6302 30.085 36.4863 30.749C36.3424 31.4131 36.182 32.0439 36.0049 32.6416C35.8278 33.2393 35.6341 33.7926 35.4238 34.3018C35.2246 34.8219 35.0199 35.2812 34.8096 35.6797C34.2451 36.7533 33.5091 37.5833 32.6016 38.1699C31.7051 38.7676 30.6868 39.1273 29.5469 39.249C28.5286 39.3597 27.5824 39.3597 26.708 39.249C25.8337 39.1494 24.998 38.9447 24.2012 38.6348C23.9909 38.5573 23.8636 38.4743 23.8193 38.3857C23.7751 38.2972 23.7861 38.2142 23.8525 38.1367C23.9079 38.0592 24.0075 37.9984 24.1514 37.9541C24.2842 37.9098 24.4336 37.8932 24.5996 37.9043C25.1641 37.9264 25.6566 37.932 26.0771 37.9209C26.4977 37.9098 26.8906 37.8711 27.2559 37.8047C27.6322 37.7383 27.9974 37.6442 28.3516 37.5225C28.7057 37.4118 29.0931 37.2679 29.5137 37.0908C30.2552 36.7809 30.958 36.3327 31.6221 35.7461C32.2972 35.1595 32.9059 34.4954 33.4482 33.7539C33.9906 33.0234 34.4665 32.2432 34.876 31.4131C35.2855 30.583 35.6064 29.764 35.8389 28.9561C35.7393 28.9782 35.6064 29.0059 35.4404 29.0391C35.2744 29.0612 35.1527 29.0778 35.0752 29.0889C34.9867 29.0889 34.9535 29.0446 34.9756 28.9561C35.0309 28.6019 35.1029 28.2533 35.1914 27.9102C35.2799 27.5671 35.3519 27.2184 35.4072 26.8643C35.4294 26.7425 35.4847 26.6706 35.5732 26.6484ZM47.2441 28.0596C47.7311 28.1592 48.2956 28.2145 48.9375 28.2256C49.5794 28.2367 50.2546 28.2035 50.9629 28.126C51.6712 28.0485 52.3906 27.9323 53.1211 27.7773C53.8626 27.6113 54.5654 27.4121 55.2295 27.1797C55.9046 26.9362 56.5244 26.654 57.0889 26.333C57.6644 26.012 58.1403 25.6579 58.5166 25.2705C58.2842 24.7946 57.9521 24.3962 57.5205 24.0752C57.0889 23.7432 56.6185 23.4941 56.1094 23.3281C55.6003 23.151 55.0801 23.057 54.5488 23.0459C54.0286 23.0348 53.5583 23.1123 53.1377 23.2783C52.5622 23.4997 52.0033 23.7874 51.4609 24.1416C50.9297 24.4847 50.415 24.8721 49.917 25.3037C49.43 25.7243 48.9596 26.1725 48.5059 26.6484C48.0632 27.1243 47.6426 27.5947 47.2441 28.0596ZM69.5732 12.6113C69.0199 12.8659 68.4388 13.1315 67.8301 13.4082C67.2324 13.6849 66.6514 13.9505 66.0869 14.2051C65.5225 14.4596 64.9967 14.6976 64.5098 14.9189C64.0228 15.1403 63.6077 15.3229 63.2646 15.4668C63.1872 15.5 63.1318 15.5 63.0986 15.4668C63.0654 15.4336 63.0654 15.3838 63.0986 15.3174L63.9121 13.6904C63.9674 13.6019 64.0228 13.541 64.0781 13.5078C64.1445 13.4635 64.2054 13.4248 64.2607 13.3916L70.3203 10.7021C70.4974 10.6247 70.5527 10.6689 70.4863 10.835L69.8057 12.3789C69.7725 12.4785 69.695 12.556 69.5732 12.6113ZM61.123 30.5C60.7689 30.5 60.5033 30.3672 60.3262 30.1016C60.1491 29.8249 60.0605 29.526 60.0605 29.2051C60.0605 28.8841 60.1491 28.5853 60.3262 28.3086C60.5033 28.0319 60.7689 27.8936 61.123 27.8936H61.4219C61.7539 27.8936 62.1247 27.8659 62.5342 27.8105C62.9437 27.7552 63.3753 27.6667 63.8291 27.5449C64.2829 27.4121 64.7422 27.2461 65.207 27.0469C65.6719 26.8477 66.1201 26.5986 66.5518 26.2998C66.2972 26.001 65.9928 25.7354 65.6387 25.5029C65.2845 25.2705 64.9525 25.1322 64.6426 25.0879C64.4102 25.0547 64.1777 25.0658 63.9453 25.1211C63.7129 25.1654 63.4971 25.2705 63.2979 25.4365C63.1982 25.5361 63.1042 25.5472 63.0156 25.4697C62.9271 25.3923 62.8939 25.2871 62.916 25.1543C62.9492 24.9883 62.9935 24.7891 63.0488 24.5566C63.1152 24.3242 63.2038 24.0863 63.3145 23.8428C63.4251 23.5882 63.5579 23.3392 63.7129 23.0957C63.8789 22.8411 64.0726 22.6143 64.2939 22.415C65.29 21.5628 66.4577 21.1367 67.7969 21.1367C68.1842 21.1367 68.6048 21.1699 69.0586 21.2363C69.5234 21.3027 69.9606 21.4245 70.3701 21.6016C70.7796 21.7786 71.1227 22.0166 71.3994 22.3154C71.6872 22.6143 71.8366 22.9961 71.8477 23.4609C71.8698 24.125 71.7259 24.6895 71.416 25.1543C71.1061 25.6191 70.7021 26.0508 70.2041 26.4492C70.3812 26.737 70.6136 26.9749 70.9014 27.1631C71.1891 27.3512 71.5156 27.4951 71.8809 27.5947C72.235 27.7054 72.6169 27.7829 73.0264 27.8271C73.4469 27.8714 73.8786 27.8936 74.3213 27.8936H74.6201C74.9632 27.8936 75.2178 28.0319 75.3838 28.3086C75.5609 28.5853 75.6494 28.8841 75.6494 29.2051C75.6494 29.526 75.5609 29.8249 75.3838 30.1016C75.2178 30.3672 74.9632 30.5 74.6201 30.5H74.3213C73.6683 30.5 73.0596 30.4502 72.4951 30.3506C71.9307 30.251 71.3994 30.0905 70.9014 29.8691C69.9274 29.4264 69.0365 28.7292 68.2285 27.7773C67.0775 28.7513 65.9486 29.4541 64.8418 29.8857C64.2884 30.096 63.7295 30.251 63.165 30.3506C62.6006 30.4502 62.0195 30.5 61.4219 30.5H61.123ZM75.7822 3.97656C75.7822 4.16471 75.832 4.31413 75.9316 4.4248C76.0423 4.52441 76.1696 4.60189 76.3135 4.65723C76.4574 4.71257 76.6123 4.74577 76.7783 4.75684C76.9554 4.7679 77.1104 4.77344 77.2432 4.77344C77.5531 4.77344 77.8408 4.70703 78.1064 4.57422C78.3831 4.44141 78.6322 4.26986 78.8535 4.05957C78.8757 3.86035 78.8535 3.65007 78.7871 3.42871C78.7207 3.20736 78.6156 3.00814 78.4717 2.83105C78.3278 2.65397 78.1507 2.51562 77.9404 2.41602C77.7301 2.30534 77.4867 2.26107 77.21 2.2832C77.0439 2.32747 76.8779 2.41048 76.7119 2.53223C76.5459 2.6429 76.391 2.77572 76.2471 2.93066C76.1143 3.08561 76.0036 3.25716 75.915 3.44531C75.8265 3.6224 75.7822 3.79948 75.7822 3.97656ZM79.667 3.54492C79.667 3.92122 79.6172 4.28646 79.5176 4.64062C79.418 4.99479 79.263 5.31022 79.0527 5.58691C78.8424 5.86361 78.5713 6.08496 78.2393 6.25098C77.9183 6.41699 77.5309 6.5 77.0771 6.5C76.5127 6.5 76.0368 6.31738 75.6494 5.95215C75.262 5.58691 75.0573 5.09993 75.0352 4.49121C75.0352 4.18132 75.0794 3.81055 75.168 3.37891C75.2676 2.9362 75.417 2.51009 75.6162 2.10059C75.8154 1.69108 76.07 1.33691 76.3799 1.03809C76.7008 0.72819 77.0827 0.545573 77.5254 0.490234C77.946 0.445964 78.2946 0.528971 78.5713 0.739258C78.848 0.949544 79.0693 1.21517 79.2354 1.53613C79.3903 1.86816 79.501 2.22233 79.5674 2.59863C79.6338 2.96387 79.667 3.2793 79.667 3.54492ZM78.3057 8.05469C78.361 7.96615 78.4108 7.92188 78.4551 7.92188C78.4993 7.91081 78.5381 7.95508 78.5713 8.05469C78.7484 8.58594 78.9808 9.13379 79.2686 9.69824C79.5563 10.2516 79.9548 10.6833 80.4639 10.9932C80.165 11.5244 79.9326 11.9339 79.7666 12.2217C79.6117 12.5094 79.5508 12.8193 79.584 13.1514L81.0947 25.8516C81.0947 26.1504 81.0615 26.4714 80.9951 26.8145C80.9398 27.1465 80.8568 27.473 80.7461 27.7939C80.6465 28.1038 80.5247 28.3916 80.3809 28.6572C80.248 28.9118 80.1097 29.111 79.9658 29.2549C79.6449 29.5537 79.2409 29.7917 78.7539 29.9688C78.2669 30.1348 77.7578 30.2565 77.2266 30.334C76.6953 30.4115 76.1696 30.4613 75.6494 30.4834C75.1403 30.4945 74.6865 30.5 74.2881 30.5H73.9893C73.6351 30.5 73.3695 30.3672 73.1924 30.1016C73.0153 29.8249 72.9268 29.526 72.9268 29.2051C72.9268 28.8841 73.0153 28.5853 73.1924 28.3086C73.3695 28.0319 73.6351 27.8936 73.9893 27.8936H74.2881C74.4873 27.8936 74.8747 27.888 75.4502 27.877C76.0257 27.8659 76.6289 27.8271 77.2598 27.7607C77.8906 27.6943 78.4717 27.5947 79.0029 27.4619C79.5342 27.3291 79.8551 27.1465 79.9658 26.9141C79.6559 24.623 79.3405 22.332 79.0195 20.041C78.7096 17.7389 78.3942 15.4368 78.0732 13.1348C78.0068 12.6699 77.9238 12.2161 77.8242 11.7734C77.7246 11.3197 77.542 10.8825 77.2764 10.4619C77.1989 10.3402 77.1491 10.2627 77.127 10.2295C77.1159 10.1852 77.1436 10.0967 77.21 9.96387C77.387 9.6429 77.5697 9.32747 77.7578 9.01758C77.946 8.69661 78.1286 8.37565 78.3057 8.05469ZM89.9102 3.05762C89.6667 2.81413 89.401 2.72559 89.1133 2.79199C88.8255 2.8584 88.5599 2.99121 88.3164 3.19043C88.2168 3.25684 88.0895 3.38411 87.9346 3.57227C87.7907 3.74935 87.6523 3.9375 87.5195 4.13672C87.3867 4.33594 87.276 4.51855 87.1875 4.68457C87.11 4.83952 87.0879 4.93359 87.1211 4.9668C87.2207 5.02214 87.359 5.04427 87.5361 5.0332C87.7132 5.01107 87.8958 4.97786 88.084 4.93359C88.2721 4.88932 88.4437 4.83952 88.5986 4.78418C88.7646 4.72884 88.8864 4.6901 88.9639 4.66797C89.2516 4.52409 89.4951 4.38574 89.6943 4.25293C89.9046 4.12012 90.0928 3.9375 90.2588 3.70508C90.2588 3.5944 90.2145 3.48926 90.126 3.38965C90.0485 3.29004 89.9766 3.17936 89.9102 3.05762ZM86.2744 4.90039C86.3851 4.6901 86.5124 4.45768 86.6562 4.20312C86.8112 3.9375 86.9883 3.66081 87.1875 3.37305C87.3978 3.09635 87.5915 2.83626 87.7686 2.59277C87.9567 2.33822 88.1504 2.11133 88.3496 1.91211C88.5488 1.71289 88.7646 1.55241 88.9971 1.43066C89.2295 1.29785 89.5007 1.22038 89.8105 1.19824C90.1536 1.26465 90.4193 1.4196 90.6074 1.66309C90.7956 1.90658 90.9173 2.1888 90.9727 2.50977C91.0391 2.81966 91.0446 3.14062 90.9893 3.47266C90.9339 3.79362 90.8343 4.06478 90.6904 4.28613C90.3805 4.85059 89.9268 5.34863 89.3291 5.78027C88.6318 6.26725 87.8516 6.54948 86.9883 6.62695C86.5788 6.67122 86.1416 6.64355 85.6768 6.54395C85.2119 6.44434 84.7858 6.26725 84.3984 6.0127C84.332 5.99056 84.2546 6.0293 84.166 6.12891C84.0775 6.21745 83.9834 6.33366 83.8838 6.47754C83.7842 6.62142 83.6846 6.77637 83.585 6.94238C83.4854 7.09733 83.3968 7.23014 83.3193 7.34082C83.2087 7.4847 83.1035 7.54004 83.0039 7.50684C82.9154 7.46257 82.8711 7.38509 82.8711 7.27441C82.9154 7.1084 82.9818 6.91471 83.0703 6.69336C83.1589 6.47201 83.2529 6.25065 83.3525 6.0293C83.4632 5.80794 83.5739 5.59212 83.6846 5.38184C83.7952 5.17155 83.9004 4.98893 84 4.83398C84.0885 4.66797 84.1937 4.52409 84.3154 4.40234C84.4372 4.2806 84.6032 4.264 84.8135 4.35254C84.8577 4.39681 84.9408 4.45215 85.0625 4.51855C85.1953 4.57389 85.3392 4.63477 85.4941 4.70117C85.6491 4.75651 85.7985 4.80632 85.9424 4.85059C86.0863 4.88379 86.1969 4.90039 86.2744 4.90039ZM86.2578 8.85156C86.3242 8.85156 86.3685 8.87923 86.3906 8.93457C86.4238 8.98991 86.446 9.05078 86.457 9.11719C86.4792 9.18359 86.4902 9.25553 86.4902 9.33301C86.4902 9.39941 86.4902 9.44922 86.4902 9.48242C86.457 9.90299 86.4515 10.318 86.4736 10.7275C86.4958 11.126 86.529 11.5299 86.5732 11.9395C86.6618 12.9245 86.7669 13.9427 86.8887 14.9941C87.0104 16.0456 87.1322 17.1025 87.2539 18.165C87.3867 19.2275 87.5085 20.2845 87.6191 21.3359C87.7409 22.3874 87.8405 23.4111 87.918 24.4072C87.9512 24.7946 87.9678 25.2539 87.9678 25.7852C87.9678 26.3053 87.9456 26.8366 87.9014 27.3789C87.8571 27.9102 87.7796 28.4193 87.6689 28.9062C87.5693 29.3932 87.4365 29.8027 87.2705 30.1348C87.2152 30.2233 87.1598 30.3008 87.1045 30.3672C87.0492 30.4336 86.9938 30.4779 86.9385 30.5C86.8499 30.5221 86.8057 30.4779 86.8057 30.3672C86.7614 29.4043 86.7061 28.4303 86.6396 27.4453C86.5732 26.4603 86.4847 25.4587 86.374 24.4404C86.1305 22.3265 85.8981 20.2458 85.6768 18.1982C85.4554 16.1507 85.234 14.0811 85.0127 11.9893C85.0348 11.7347 85.0902 11.4746 85.1787 11.209C85.2673 10.9434 85.3724 10.6667 85.4941 10.3789C85.5605 10.224 85.6325 10.0579 85.71 9.88086C85.7874 9.69271 85.8594 9.52669 85.9258 9.38281C86.0033 9.22786 86.0697 9.10059 86.125 9.00098C86.1803 8.90137 86.2246 8.85156 86.2578 8.85156ZM97.2979 13.6113C96.7445 13.8659 96.1634 14.1315 95.5547 14.4082C94.957 14.6849 94.376 14.9505 93.8115 15.2051C93.2471 15.4596 92.7214 15.6976 92.2344 15.9189C91.7474 16.1403 91.3324 16.3229 90.9893 16.4668C90.9118 16.5 90.8564 16.5 90.8232 16.4668C90.79 16.4336 90.79 16.3838 90.8232 16.3174L91.6367 14.6904C91.6921 14.6019 91.7474 14.541 91.8027 14.5078C91.8691 14.4635 91.93 14.4248 91.9854 14.3916L98.0449 11.7021C98.222 11.6247 98.2773 11.6689 98.2109 11.835L97.5303 13.3789C97.4971 13.4785 97.4196 13.556 97.2979 13.6113ZM95.8369 24.5566C95.6709 24.5677 95.5215 24.6341 95.3887 24.7559C95.2559 24.8665 95.1396 24.9993 95.04 25.1543C94.9515 25.2982 94.8796 25.4476 94.8242 25.6025C94.7799 25.7575 94.7578 25.8737 94.7578 25.9512C94.9017 26.1836 95.1009 26.3441 95.3555 26.4326C95.61 26.5101 95.8646 26.5488 96.1191 26.5488C96.4069 26.5267 96.667 26.4603 96.8994 26.3496C97.1429 26.2279 97.3089 26.1117 97.3975 26.001C97.3975 25.8571 97.3421 25.7021 97.2314 25.5361C97.1318 25.359 96.999 25.1986 96.833 25.0547C96.6781 24.9108 96.5065 24.7946 96.3184 24.7061C96.1413 24.6064 95.9808 24.5566 95.8369 24.5566ZM97.9951 27.4785C97.8402 27.9434 97.5579 28.3363 97.1484 28.6572C96.7389 28.9782 96.2354 29.1387 95.6377 29.1387C95.3389 29.1387 95.0511 29.0612 94.7744 28.9062C94.5088 28.7513 94.2764 28.5521 94.0771 28.3086C93.8779 28.054 93.723 27.7663 93.6123 27.4453C93.5127 27.1243 93.4795 26.7979 93.5127 26.4658C93.5348 26.2334 93.5846 25.9622 93.6621 25.6523C93.7396 25.3424 93.8392 25.027 93.9609 24.7061C94.0827 24.3851 94.221 24.0641 94.376 23.7432C94.542 23.4222 94.7246 23.14 94.9238 22.8965C95.123 22.653 95.3333 22.4538 95.5547 22.2988C95.776 22.1439 96.0085 22.0664 96.252 22.0664C96.6836 22.0664 97.0876 22.238 97.4639 22.5811C97.8402 22.9242 98.1667 23.3613 98.4434 23.8926C98.7201 24.4128 98.9359 24.9938 99.0908 25.6357C99.2458 26.2666 99.3177 26.8809 99.3066 27.4785C99.2956 28.2754 99.1904 29.1055 98.9912 29.9688C98.8031 30.821 98.5485 31.6621 98.2275 32.4922C97.9066 33.3223 97.5358 34.1025 97.1152 34.833C96.7057 35.5745 96.2686 36.1999 95.8037 36.709C95.1175 37.4616 94.387 38.0371 93.6123 38.4355C92.8486 38.8451 92.0462 39.1107 91.2051 39.2324C90.3639 39.3542 89.484 39.3542 88.5654 39.2324C87.6579 39.1107 86.7171 38.9004 85.7432 38.6016C85.6546 38.5684 85.5993 38.513 85.5771 38.4355C85.5439 38.3581 85.5495 38.2751 85.5938 38.1865C85.627 38.109 85.6934 38.0371 85.793 37.9707C85.8815 37.9154 86.0033 37.8932 86.1582 37.9043C87.0879 37.9818 87.929 37.9652 88.6816 37.8545C89.4453 37.7438 90.1536 37.5501 90.8066 37.2734C91.4707 37.0078 92.1071 36.6647 92.7158 36.2441C93.3245 35.8236 93.9499 35.3311 94.5918 34.7666C95.0234 34.3903 95.4385 33.9531 95.8369 33.4551C96.2464 32.957 96.6117 32.4424 96.9326 31.9111C97.2646 31.3688 97.5413 30.8265 97.7627 30.2842C97.984 29.7419 98.139 29.2383 98.2275 28.7734C98.2386 28.6738 98.2386 28.5632 98.2275 28.4414C98.2165 28.3086 98.1999 28.1813 98.1777 28.0596C98.1556 27.9378 98.1279 27.8271 98.0947 27.7275C98.0615 27.6169 98.0283 27.5339 97.9951 27.4785Z" fill="#171717"/>
</svg>
