<svg width="29" height="28" viewBox="0 0 29 28" fill="none" xmlns="http://www.w3.org/2000/svg">
<path d="M13.1875 3.9375V2.1875C13.1875 1.8394 13.3258 1.50556 13.5719 1.25942C13.8181 1.01328 14.1519 0.875 14.5 0.875C14.8481 0.875 15.1819 1.01328 15.4281 1.25942C15.6742 1.50556 15.8125 1.8394 15.8125 2.1875V3.9375C15.8125 4.2856 15.6742 4.61944 15.4281 4.86558C15.1819 5.11172 14.8481 5.25 14.5 5.25C14.1519 5.25 13.8181 5.11172 13.5719 4.86558C13.3258 4.61944 13.1875 4.2856 13.1875 3.9375ZM21.9375 14C21.9375 15.471 21.5013 16.909 20.6841 18.1321C19.8668 19.3551 18.7052 20.3084 17.3462 20.8714C15.9872 21.4343 14.4917 21.5816 13.049 21.2946C11.6063 21.0076 10.281 20.2993 9.24089 19.2591C8.20074 18.219 7.49239 16.8937 7.20541 15.451C6.91843 14.0083 7.06572 12.5128 7.62865 11.1538C8.19157 9.79477 9.14486 8.63319 10.3679 7.81594C11.591 6.9987 13.029 6.5625 14.5 6.5625C16.4719 6.56453 18.3625 7.34877 19.7569 8.74313C21.1512 10.1375 21.9355 12.0281 21.9375 14ZM19.3125 14C19.3125 13.0482 19.0303 12.1177 18.5014 11.3263C17.9726 10.5349 17.221 9.91808 16.3417 9.55383C15.4623 9.18958 14.4947 9.09428 13.5611 9.27997C12.6276 9.46566 11.7701 9.92401 11.097 10.597C10.424 11.2701 9.96566 12.1276 9.77997 13.0611C9.59428 13.9947 9.68958 14.9623 10.0538 15.8417C10.4181 16.721 11.0349 17.4726 11.8263 18.0014C12.6177 18.5303 13.5482 18.8125 14.5 18.8125C15.7759 18.8111 16.9991 18.3036 17.9014 17.4014C18.8036 16.4991 19.3111 15.2759 19.3125 14ZM6.13391 7.49109C6.25599 7.61318 6.40093 7.71003 6.56045 7.7761C6.71997 7.84218 6.89093 7.87618 7.06359 7.87618C7.23625 7.87618 7.40722 7.84218 7.56674 7.7761C7.72625 7.71003 7.87119 7.61318 7.99328 7.49109C8.11537 7.36901 8.21221 7.22407 8.27829 7.06455C8.34436 6.90503 8.37837 6.73407 8.37837 6.56141C8.37837 6.38875 8.34436 6.21778 8.27829 6.05826C8.21221 5.89875 8.11537 5.75381 7.99328 5.63172L6.68078 4.31922C6.43421 4.07265 6.09979 3.93413 5.75109 3.93413C5.40239 3.93413 5.06797 4.07265 4.82141 4.31922C4.57484 4.56579 4.43632 4.90021 4.43632 5.24891C4.43632 5.59761 4.57484 5.93203 4.82141 6.17859L6.13391 7.49109ZM6.13391 20.5067L4.82141 21.8192C4.69932 21.9413 4.60247 22.0862 4.5364 22.2458C4.47032 22.4053 4.43632 22.5762 4.43632 22.7489C4.43632 22.9216 4.47032 23.0925 4.5364 23.252C4.60247 23.4116 4.69932 23.5565 4.82141 23.6786C5.06797 23.9252 5.40239 24.0637 5.75109 24.0637C5.92375 24.0637 6.09472 24.0297 6.25424 23.9636C6.41375 23.8975 6.55869 23.8007 6.68078 23.6786L7.99328 22.3661C8.23985 22.1195 8.37837 21.7851 8.37837 21.4364C8.37837 21.0877 8.23985 20.7533 7.99328 20.5067C7.74671 20.2602 7.41229 20.1216 7.06359 20.1216C6.71489 20.1216 6.38047 20.2602 6.13391 20.5067ZM21.9375 7.875C22.1099 7.87514 22.2807 7.8413 22.44 7.77543C22.5993 7.70956 22.7441 7.61294 22.8661 7.49109L24.1786 6.17859C24.3007 6.05651 24.3975 5.91157 24.4636 5.75205C24.5297 5.59253 24.5637 5.42157 24.5637 5.24891C24.5637 5.07625 24.5297 4.90528 24.4636 4.74576C24.3975 4.58625 24.3007 4.44131 24.1786 4.31922C24.0565 4.19713 23.9116 4.10028 23.752 4.03421C23.5925 3.96814 23.4216 3.93413 23.2489 3.93413C23.0762 3.93413 22.9053 3.96814 22.7458 4.03421C22.5862 4.10028 22.4413 4.19713 22.3192 4.31922L21.0067 5.63172C20.8221 5.81529 20.6962 6.04964 20.6451 6.30496C20.594 6.56027 20.62 6.82502 20.7198 7.06551C20.8196 7.30601 20.9886 7.51139 21.2055 7.65554C21.4223 7.79968 21.6771 7.87608 21.9375 7.875ZM22.8661 20.5089C22.6195 20.2623 22.2851 20.1238 21.9364 20.1238C21.5877 20.1238 21.2533 20.2623 21.0067 20.5089C20.7602 20.7555 20.6216 21.0899 20.6216 21.4386C20.6216 21.7873 20.7602 22.1217 21.0067 22.3683L22.3192 23.6808C22.5658 23.9273 22.9002 24.0659 23.2489 24.0659C23.5976 24.0659 23.932 23.9273 24.1786 23.6808C24.4252 23.4342 24.5637 23.0998 24.5637 22.7511C24.5637 22.4024 24.4252 22.068 24.1786 21.8214L22.8661 20.5089ZM5.75 14C5.75 13.6519 5.61172 13.3181 5.36558 13.0719C5.11944 12.8258 4.7856 12.6875 4.4375 12.6875H2.6875C2.3394 12.6875 2.00556 12.8258 1.75942 13.0719C1.51328 13.3181 1.375 13.6519 1.375 14C1.375 14.3481 1.51328 14.6819 1.75942 14.9281C2.00556 15.1742 2.3394 15.3125 2.6875 15.3125H4.4375C4.7856 15.3125 5.11944 15.1742 5.36558 14.9281C5.61172 14.6819 5.75 14.3481 5.75 14ZM14.5 22.75C14.1519 22.75 13.8181 22.8883 13.5719 23.1344C13.3258 23.3806 13.1875 23.7144 13.1875 24.0625V25.8125C13.1875 26.1606 13.3258 26.4944 13.5719 26.7406C13.8181 26.9867 14.1519 27.125 14.5 27.125C14.8481 27.125 15.1819 26.9867 15.4281 26.7406C15.6742 26.4944 15.8125 26.1606 15.8125 25.8125V24.0625C15.8125 23.7144 15.6742 23.3806 15.4281 23.1344C15.1819 22.8883 14.8481 22.75 14.5 22.75ZM26.3125 12.6875H24.5625C24.2144 12.6875 23.8806 12.8258 23.6344 13.0719C23.3883 13.3181 23.25 13.6519 23.25 14C23.25 14.3481 23.3883 14.6819 23.6344 14.9281C23.8806 15.1742 24.2144 15.3125 24.5625 15.3125H26.3125C26.6606 15.3125 26.9944 15.1742 27.2406 14.9281C27.4867 14.6819 27.625 14.3481 27.625 14C27.625 13.6519 27.4867 13.3181 27.2406 13.0719C26.9944 12.8258 26.6606 12.6875 26.3125 12.6875Z" fill="white"/>
</svg>
