<svg width="21" height="20" viewBox="0 0 21 20" fill="none" xmlns="http://www.w3.org/2000/svg">
<g clip-path="url(#clip0_1321_13475)">
<path d="M8.85 19.9C4.1 19.05 0.5 14.95 0.5 10C0.5 4.5 5 0 10.5 0C16 0 20.5 4.5 20.5 10C20.5 14.95 16.9 19.05 12.15 19.9L11.6 19.45H9.4L8.85 19.9Z" fill="url(#paint0_linear_1321_13475)"/>
<path d="M14.3999 12.8004L14.8499 10.0004H12.1999V8.05039C12.1999 7.25039 12.4999 6.65039 13.6999 6.65039H14.9999V4.10039C14.2999 4.00039 13.4999 3.90039 12.7999 3.90039C10.4999 3.90039 8.8999 5.30039 8.8999 7.80039V10.0004H6.3999V12.8004H8.8999V19.8504C9.4499 19.9504 9.9999 20.0004 10.5499 20.0004C11.0999 20.0004 11.6499 19.9504 12.1999 19.8504V12.8004H14.3999Z" fill="white"/>
</g>
<defs>
<linearGradient id="paint0_linear_1321_13475" x1="10.5005" y1="19.3045" x2="10.5005" y2="-0.00368389" gradientUnits="userSpaceOnUse">
<stop stop-color="#0062E0"/>
<stop offset="1" stop-color="#19AFFF"/>
</linearGradient>
<clipPath id="clip0_1321_13475">
<rect width="20" height="20" fill="white" transform="translate(0.5)"/>
</clipPath>
</defs>
</svg>
