<svg width="29" height="28" viewBox="0 0 29 28" fill="none" xmlns="http://www.w3.org/2000/svg">
<g clip-path="url(#clip0_1298_1641)">
<path d="M19.3126 7.43713C19.131 7.43713 18.9506 7.44369 18.7712 7.45463C18.5142 5.81643 17.7726 4.29269 16.642 3.07963C15.5114 1.86658 14.0435 1.01975 12.4274 0.648222C12.2108 0.598715 11.9852 0.60502 11.7716 0.666544C11.5581 0.728068 11.3637 0.842797 11.2066 0.99998C11.0496 1.15716 10.935 1.35165 10.8736 1.56522C10.8122 1.77879 10.8061 2.00444 10.8557 2.22103C11.0714 3.16103 11.0447 4.14041 10.7782 5.06729C10.5118 5.99416 10.0142 6.83814 9.33215 7.52003C8.65015 8.20193 7.80609 8.69939 6.87917 8.96573C5.95226 9.23208 4.97287 9.25858 4.03291 9.04275C3.81617 8.99317 3.59039 8.99947 3.37675 9.06104C3.16311 9.12261 2.96862 9.23745 2.81151 9.39477C2.65441 9.5521 2.53984 9.74675 2.47856 9.96048C2.41729 10.1742 2.41131 10.4 2.46119 10.6167C2.90224 12.4992 3.98075 14.1712 5.51385 15.3493C4.88346 16.269 4.5161 17.3434 4.45136 18.4565C4.38662 19.5697 4.62698 20.6794 5.1465 21.6659C5.66602 22.6525 6.44499 23.4786 7.39944 24.0551C8.35388 24.6315 9.44758 24.9365 10.5626 24.9371H19.3126C21.6332 24.9371 23.8588 24.0153 25.4998 22.3743C27.1407 20.7334 28.0626 18.5078 28.0626 16.1871C28.0626 13.8665 27.1407 11.6409 25.4998 9.99994C23.8588 8.359 21.6332 7.43713 19.3126 7.43713ZM13.6131 3.93713C14.318 4.38172 14.9158 4.9768 15.3636 5.67968C15.8113 6.38257 16.098 7.17584 16.2031 8.0026C15.1061 8.41968 14.1037 9.05213 13.2551 9.86269C12.4064 10.6732 11.7285 11.6455 11.2615 12.7221C11.0294 12.6973 10.796 12.6856 10.5626 12.6871C9.47711 12.6863 8.41112 12.9755 7.47494 13.5249C6.78905 13.0779 6.20627 12.4899 5.76541 11.8001C7.81211 11.6856 9.74462 10.8201 11.1927 9.36914C12.6408 7.91824 13.5026 5.98405 13.6131 3.93713ZM19.3126 22.3121H10.5626C9.63434 22.3121 8.7441 21.9434 8.08772 21.287C7.43135 20.6306 7.0626 19.7404 7.0626 18.8121C7.0626 17.8839 7.43135 16.9936 8.08772 16.3373C8.7441 15.6809 9.63434 15.3121 10.5626 15.3121H10.5932C10.5812 15.4324 10.5713 15.5528 10.5648 15.6731C10.5445 16.0212 10.6633 16.3631 10.8951 16.6236C11.1269 16.8841 11.4526 17.0418 11.8007 17.0621C12.1488 17.0824 12.4907 16.9636 12.7512 16.7318C13.0117 16.5001 13.1695 16.1743 13.1898 15.8262C13.2129 15.4198 13.2767 15.0168 13.3801 14.6231L13.3965 14.5629C13.6981 13.4604 14.3018 12.4641 15.1395 11.6865C15.9773 10.9089 17.0157 10.381 18.1376 10.1623C19.2595 9.94359 20.4202 10.0428 21.4886 10.4488C22.5571 10.8548 23.4909 11.5513 24.1844 12.4598C24.878 13.3683 25.3039 14.4526 25.4139 15.5903C25.5239 16.728 25.3138 17.8738 24.8071 18.8984C24.3005 19.923 23.5175 20.7856 22.5466 21.3888C21.5758 21.992 20.4556 22.3118 19.3126 22.3121Z" fill="white"/>
</g>
<defs>
<clipPath id="clip0_1298_1641">
<rect width="28" height="28" fill="white" transform="translate(0.5)"/>
</clipPath>
</defs>
</svg>
