<svg width="21" height="20" viewBox="0 0 21 20" fill="none" xmlns="http://www.w3.org/2000/svg">
<path d="M19.1404 10.2052C19.1404 9.56704 19.0831 8.95337 18.9767 8.36426H10.5V11.8499H15.3438C15.1311 12.9708 14.4929 13.92 13.5356 14.5582V16.8246H16.4566C18.1585 15.2536 19.1404 12.9463 19.1404 10.2052Z" fill="#4285F4"/>
<path d="M10.5002 18.9999C12.9303 18.9999 14.9677 18.1981 16.4568 16.8234L13.5358 14.557C12.734 15.097 11.7112 15.4243 10.5002 15.4243C8.16012 15.4243 6.17186 13.8451 5.46001 11.7178H2.46533V14.0415C3.9463 16.9789 6.98189 18.9999 10.5002 18.9999Z" fill="#34A853"/>
<path d="M5.46017 11.7097C5.28016 11.1697 5.17379 10.5969 5.17379 9.99963C5.17379 9.40233 5.28016 8.82958 5.46017 8.28956V5.96582H2.4655C1.85183 7.17678 1.5 8.5432 1.5 9.99963C1.5 11.4561 1.85183 12.8225 2.4655 14.0334L4.79742 12.217L5.46017 11.7097Z" fill="#FBBC05"/>
<path d="M10.5002 4.58379C11.8257 4.58379 13.004 5.04199 13.9449 5.92567L16.5223 3.34828C14.9595 1.89186 12.9303 1 10.5002 1C6.98189 1 3.9463 3.021 2.46533 5.96658L5.46001 8.29031C6.17186 6.16295 8.16012 4.58379 10.5002 4.58379Z" fill="#EA4335"/>
</svg>
