<svg width="29" height="28" viewBox="0 0 29 28" fill="none" xmlns="http://www.w3.org/2000/svg">
<path d="M27.1873 10.5C27.1873 10.8481 27.049 11.1819 26.8028 11.4281C26.5567 11.6742 26.2229 11.8125 25.8748 11.8125H24.5623V13.125C24.5623 13.4731 24.424 13.8069 24.1778 14.0531C23.9317 14.2992 23.5979 14.4375 23.2498 14.4375C22.9017 14.4375 22.5678 14.2992 22.3217 14.0531C22.0756 13.8069 21.9373 13.4731 21.9373 13.125V11.8125H20.6248C20.2767 11.8125 19.9428 11.6742 19.6967 11.4281C19.4506 11.1819 19.3123 10.8481 19.3123 10.5C19.3123 10.1519 19.4506 9.81806 19.6967 9.57192C19.9428 9.32578 20.2767 9.1875 20.6248 9.1875H21.9373V7.875C21.9373 7.5269 22.0756 7.19306 22.3217 6.94692C22.5678 6.70078 22.9017 6.5625 23.2498 6.5625C23.5979 6.5625 23.9317 6.70078 24.1778 6.94692C24.424 7.19306 24.5623 7.5269 24.5623 7.875V9.1875H25.8748C26.2229 9.1875 26.5567 9.32578 26.8028 9.57192C27.049 9.81806 27.1873 10.1519 27.1873 10.5ZM16.2498 6.5625H16.6873V7C16.6873 7.3481 16.8256 7.68194 17.0717 7.92808C17.3178 8.17422 17.6517 8.3125 17.9998 8.3125C18.3479 8.3125 18.6817 8.17422 18.9278 7.92808C19.174 7.68194 19.3123 7.3481 19.3123 7V6.5625H19.7498C20.0979 6.5625 20.4317 6.42422 20.6778 6.17808C20.924 5.93194 21.0623 5.5981 21.0623 5.25C21.0623 4.9019 20.924 4.56806 20.6778 4.32192C20.4317 4.07578 20.0979 3.9375 19.7498 3.9375H19.3123V3.5C19.3123 3.1519 19.174 2.81806 18.9278 2.57192C18.6817 2.32578 18.3479 2.1875 17.9998 2.1875C17.6517 2.1875 17.3178 2.32578 17.0717 2.57192C16.8256 2.81806 16.6873 3.1519 16.6873 3.5V3.9375H16.2498C15.9017 3.9375 15.5678 4.07578 15.3217 4.32192C15.0756 4.56806 14.9373 4.9019 14.9373 5.25C14.9373 5.5981 15.0756 5.93194 15.3217 6.17808C15.5678 6.42422 15.9017 6.5625 16.2498 6.5625ZM24.5415 16.4478C24.6935 16.6243 24.7958 16.8381 24.8379 17.0672C24.88 17.2963 24.8604 17.5325 24.781 17.7516C24.149 19.4765 23.0926 21.0144 21.7095 22.2235C20.3264 23.4325 18.661 24.2736 16.867 24.6693C15.0731 25.065 13.2083 25.0024 11.4449 24.4874C9.68153 23.9724 8.07626 23.0215 6.77725 21.7225C5.47824 20.4235 4.52736 18.8182 4.01234 17.0548C3.49732 15.2914 3.43477 13.4267 3.83044 11.6328C4.22612 9.8388 5.06729 8.17341 6.27632 6.79027C7.48535 5.40712 9.02328 4.35079 10.7482 3.71875C10.9669 3.63884 11.2029 3.61856 11.4321 3.65997C11.6612 3.70138 11.8752 3.803 12.0521 3.9544C12.229 4.1058 12.3624 4.30154 12.4387 4.52152C12.515 4.74151 12.5314 4.97784 12.4862 5.20625C12.3703 5.79714 12.3121 6.39787 12.3123 7C12.3149 9.43588 13.2837 11.7712 15.0061 13.4937C16.7285 15.2161 19.0639 16.1849 21.4998 16.1875C22.1008 16.1874 22.7004 16.1292 23.2902 16.0136C23.5186 15.9685 23.7548 15.985 23.9747 16.0613C24.1945 16.1376 24.3902 16.271 24.5415 16.4478ZM21.281 18.8125C18.2248 18.7529 15.3104 17.5122 13.149 15.3508C10.9875 13.1893 9.7469 10.2749 9.68727 7.21875C8.70361 7.91987 7.88458 8.82694 7.28719 9.87683C6.6898 10.9267 6.32841 12.0942 6.22817 13.298C6.12793 14.5018 6.29125 15.7129 6.70677 16.8472C7.12229 17.9814 7.78002 19.0114 8.63417 19.8656C9.48832 20.7197 10.5184 21.3775 11.6526 21.793C12.7868 22.2085 13.998 22.3718 15.2018 22.2716C16.4056 22.1714 17.573 21.81 18.6229 21.2126C19.6728 20.6152 20.5799 19.7962 21.281 18.8125Z" fill="white"/>
</svg>
