<svg width="29" height="28" viewBox="0 0 29 28" fill="none" xmlns="http://www.w3.org/2000/svg">
<g clip-path="url(#clip0_1298_1659)">
<path d="M26.75 16.1874H22.8005C22.8081 16.042 22.8125 15.8965 22.8125 15.7499C22.8125 13.5453 21.9367 11.431 20.3778 9.87212C18.8189 8.31322 16.7046 7.43744 14.5 7.43744C12.2954 7.43744 10.1811 8.31322 8.62218 9.87212C7.06328 11.431 6.1875 13.5453 6.1875 15.7499C6.1875 15.8965 6.1875 16.042 6.19953 16.1874H2.25C1.9019 16.1874 1.56806 16.3257 1.32192 16.5719C1.07578 16.818 0.9375 17.1518 0.9375 17.4999C0.9375 17.848 1.07578 18.1819 1.32192 18.428C1.56806 18.6742 1.9019 18.8124 2.25 18.8124H26.75C27.0981 18.8124 27.4319 18.6742 27.6781 18.428C27.9242 18.1819 28.0625 17.848 28.0625 17.4999C28.0625 17.1518 27.9242 16.818 27.6781 16.5719C27.4319 16.3257 27.0981 16.1874 26.75 16.1874ZM8.8125 15.7499C8.8125 14.2415 9.41172 12.7949 10.4783 11.7283C11.5449 10.6617 12.9916 10.0624 14.5 10.0624C16.0084 10.0624 17.4551 10.6617 18.5217 11.7283C19.5883 12.7949 20.1875 14.2415 20.1875 15.7499C20.1875 15.8965 20.1798 16.042 20.1689 16.1874H8.83109C8.82016 16.042 8.8125 15.8965 8.8125 15.7499ZM24.5625 21.8749C24.5625 22.223 24.4242 22.5569 24.1781 22.803C23.9319 23.0492 23.5981 23.1874 23.25 23.1874H5.75C5.4019 23.1874 5.06806 23.0492 4.82192 22.803C4.57578 22.5569 4.4375 22.223 4.4375 21.8749C4.4375 21.5268 4.57578 21.193 4.82192 20.9469C5.06806 20.7007 5.4019 20.5624 5.75 20.5624H23.25C23.5981 20.5624 23.9319 20.7007 24.1781 20.9469C24.4242 21.193 24.5625 21.5268 24.5625 21.8749ZM1.88031 10.0854C1.99039 9.7554 2.22698 9.48258 2.5381 9.32692C2.84922 9.17126 3.20942 9.14548 3.53953 9.25526L4.85203 9.69276C5.01733 9.74575 5.17047 9.83102 5.30259 9.9436C5.43471 10.0562 5.54318 10.1939 5.62173 10.3487C5.70028 10.5035 5.74734 10.6723 5.76019 10.8454C5.77305 11.0185 5.75143 11.1924 5.69661 11.3571C5.64178 11.5218 5.55483 11.674 5.44079 11.8049C5.32674 11.9358 5.18787 12.0427 5.03222 12.1195C4.87656 12.1964 4.70721 12.2415 4.53397 12.2525C4.36074 12.2634 4.18705 12.2399 4.02297 12.1832L2.71047 11.7457C2.54694 11.6912 2.39574 11.605 2.26551 11.4921C2.13529 11.3792 2.02858 11.2417 1.95149 11.0875C1.87441 10.9333 1.82844 10.7655 1.81623 10.5935C1.80402 10.4216 1.82579 10.2489 1.88031 10.0854ZM8.00531 4.79057C7.94568 4.62586 7.91962 4.45087 7.92867 4.27593C7.93772 4.10099 7.9817 3.92963 8.05802 3.77195C8.13433 3.61427 8.24144 3.47347 8.37303 3.35783C8.50462 3.2422 8.65802 3.15408 8.8242 3.09866C8.99038 3.04324 9.16597 3.02165 9.34063 3.03516C9.51528 3.04867 9.68546 3.097 9.84115 3.17731C9.99683 3.25762 10.1349 3.36829 10.2471 3.50278C10.3593 3.63727 10.4435 3.79287 10.4947 3.96041L10.9322 5.27291C10.9918 5.43762 11.0179 5.61261 11.0088 5.78755C10.9998 5.96249 10.9558 6.13385 10.8795 6.29153C10.8032 6.44921 10.6961 6.59001 10.5645 6.70565C10.4329 6.82128 10.2795 6.9094 10.1133 6.96482C9.94712 7.02024 9.77153 7.04183 9.59687 7.02832C9.42222 7.01481 9.25204 6.96648 9.09635 6.88617C8.94067 6.80586 8.80264 6.69519 8.6904 6.5607C8.57816 6.42621 8.49398 6.27061 8.44281 6.10307L8.00531 4.79057ZM23.3178 11.3531C23.2633 11.1895 23.2415 11.0169 23.2537 10.8449C23.2659 10.673 23.3119 10.5051 23.389 10.351C23.4661 10.1968 23.5728 10.0593 23.703 9.94637C23.8332 9.83343 23.9844 9.74725 24.148 9.69276L25.4605 9.25526C25.7895 9.14974 26.147 9.17827 26.4551 9.33465C26.7633 9.49103 26.9974 9.76264 27.1065 10.0905C27.2157 10.4184 27.1911 10.7761 27.0381 11.086C26.8852 11.3959 26.6162 11.6329 26.2895 11.7457L24.977 12.1832C24.6469 12.293 24.2867 12.2672 23.9756 12.1116C23.6645 11.9559 23.4279 11.6831 23.3178 11.3531ZM18.0678 5.27291L18.5053 3.96041C18.5565 3.79287 18.6407 3.63727 18.7529 3.50278C18.8651 3.36829 19.0032 3.25762 19.1589 3.17731C19.3145 3.097 19.4847 3.04867 19.6594 3.03516C19.834 3.02165 20.0096 3.04324 20.1758 3.09866C20.342 3.15408 20.4954 3.2422 20.627 3.35783C20.7586 3.47347 20.8657 3.61427 20.942 3.77195C21.0183 3.92963 21.0623 4.10099 21.0713 4.27593C21.0804 4.45087 21.0543 4.62586 20.9947 4.79057L20.5572 6.10307C20.506 6.27061 20.4218 6.42621 20.3096 6.5607C20.1974 6.69519 20.0593 6.80586 19.9036 6.88617C19.748 6.96648 19.5778 7.01481 19.4031 7.02832C19.2285 7.04183 19.0529 7.02024 18.8867 6.96482C18.7205 6.9094 18.5671 6.82128 18.4355 6.70565C18.3039 6.59001 18.1968 6.44921 18.1205 6.29153C18.0442 6.13385 18.0002 5.96249 17.9912 5.78755C17.9821 5.61261 18.0082 5.43762 18.0678 5.27291Z" fill="white"/>
</g>
<defs>
<clipPath id="clip0_1298_1659">
<rect width="28" height="28" fill="white" transform="translate(0.5)"/>
</clipPath>
</defs>
</svg>
