<svg xmlns="http://www.w3.org/2000/svg" width="300" height="300" fill="#fff" opacity=".1" xmlns:v="https://vecta.io/nano"><path d="M299.347 149.213l-13.87-13.667-7.027-6.376c-.601-.522-.548-.888-.235-1.463l2.534-4.651c1.698-2.953 3.004-6.115 5.407-8.649.575-.601.183-1.019-.496-1.255-4.937-1.803-9.038-5.121-13.557-7.682-.235-.131-.392-.679-.314-.967l4.441-14.555c1.358-4.625 2.56-9.303 3.84-13.954.183-.679.052-1.071-.706-1.254l-5.929-1.568-10.71-2.796c-4.022-.967-8.045-1.803-12.094-2.665-.705-.157-.914-.523-.914-1.202v-5.435l.261-9.773c.052-1.045-.209-1.228-1.149-1.097-1.62.209-3.265.418-4.885.418-3.03.026-6.06-.131-9.09-.183-2.037-.026-2.011-.026-2.481-2.012l-3.605-14.868-3.265-12.569c-.183-.679-.444-1.15-1.254-.915l-3.187.941-12.407 3.449-12.695 3.841c-.705.235-1.045.183-1.384-.444-2.482-4.521-5.799-8.571-7.523-13.509-.262-.706-.732-.836-1.332-.314-.262.209-.471.444-.758.627l-12.643 7.317c-.261.131-.914-.078-1.149-.34-1.933-2.064-3.761-4.259-5.72-6.271L151.189.895c-1.176-1.202-1.176-1.202-2.404.052l-12.956 13.17c-2.324 2.378-4.571 4.834-6.739 7.369-.627.732-1.071.862-1.802.366-.261-.183-.575-.288-.862-.47-4.049-2.456-8.594-4.155-12.199-7.369-.601-.523-1.045-.261-1.306.444-1.776 4.965-5.093 9.067-7.653 13.588-.131.235-.679.444-.941.366l-15.15-4.573c-4.127-1.202-8.28-2.247-12.434-3.371-1.907-.523-1.881-.523-2.351 1.307l-3.97 15.051c-1.045 4.233-1.907 8.519-2.926 12.778-.078.34-.601.784-.914.81-2.246.105-4.493.209-6.765.157-2.952-.052-5.877-.261-8.803-.392-.784-.052-1.202.157-.967 1.071.157.549.287 1.124.287 1.699l.026 13.797c0 .732-.418.889-.967.993-3.239.679-6.504 1.254-9.717 2.064l-18.755 4.913c-.966.235-1.071.679-.836 1.489l2.795 9.904 5.302 18.265c.105.34-.078.993-.34 1.15-4.467 2.561-8.541 5.827-13.452 7.63-.966.366-.94.784-.313 1.516.81.915 1.593 1.881 2.194 2.953l5.041 9.172c.914 1.724.888 1.75-.679 3.031-.157.13-.287.287-.444.418l-10.71 10.374-8.907 8.701c-.366.366-.575.653-.575.967h1.75c0-.47.47-.915 1.411-1.881l11.441-11.419c2.612-2.535 5.381-4.913 8.254-7.526l2.586 4.834c.131.261.052.836-.157 1.019l-9.9 9.224-5.172 4.782c-.392.34-.601.653-.575.967h1.358l15.281-14.293 3.396 5.487-7.288 6.01c-.758.627-1.515 1.254-2.22 1.934-.287.287-.444.575-.418.836h1.228c.888-.81 1.672-1.62 2.534-2.326l5.72-4.651c.731-.601 1.28-.993 2.038.131.731 1.123 1.802 2.038 2.743 3.057l-3.605 2.874c-.418.314-.601.627-.601.915h1.019l3.892-2.77c.157-.104.496-.157.653-.052l6.008 2.822h-.026 10.788c.026-1.254.261-2.482.653-3.763 1.123-3.632 2.821-6.898 5.355-9.721 1.933-2.142 4.414-3.501 7-4.703 2.743-1.28 5.642-1.202 8.62-1.045v4.259c-1.384.34-2.821.575-4.206 1.019-6.452 2.143-10.631 6.454-12.172 13.092-.052.287-.105.548-.131.836h1.254c-.026-1.934.758-3.659 1.776-5.305 2.638-4.233 6.347-7.133 11.389-8.048.705-.131 1.437-.209 2.299-.34l1.071 4.756-2.09.575c-3.135.836-5.747 2.43-7.34 5.331-.575 1.045-.888 2.064-.94 3.031h1.097c-.026-1.594.888-3.031 2.508-4.625 1.829-1.803 4.232-2.587 6.713-3.084.261-.052.679.183.836.418.679.967 1.306 1.96 1.855 2.796-1.489.68-3.03 1.202-4.388 2.065-1.045.653-1.567 1.541-1.567 2.404h1.62c.026-.392.235-.784.601-1.15 1.463-1.49 3.343-1.96 5.276-1.934.862 0 1.698.889 2.586 1.333 1.306.653 2.638 1.254 3.605 1.725-.026.026-.052.026-.078.052h8.071c0-3.449 1.75-6.298 4.31-8.467 2.743-2.325 6.008-3.005 9.586-2.168.758.183 1.045.418.993 1.202-.052.731 0 1.463 0 2.247-1.358 0-2.534-.026-3.709 0-4.18.104-7.001 2.639-7.915 5.696-.157.497-.209 1.019-.235 1.516h1.201c0-2.038 1.28-3.998 3.292-5.096 2.377-1.28 4.963-1.175 7.549-.81.182.027.391.262.522.445.627.94 1.228 1.907 1.907 2.979-1.28-.21-2.508-.549-3.735-.575-1.28-.027-2.612.078-3.84.392-1.097.287-1.881 1.567-1.855 2.639h1.228c0-.549.627-1.307 1.175-1.594.653-.34 1.515-.418 2.247-.392 2.56.104 5.015.679 7.314 1.803.052.026.078.078.104.209h5.277v-.366c.078-2.456 2.429-4.73 4.884-4.834.444-.026.888-.157 1.332-.157.915-.026 1.724.026 2.038 1.202.496 1.908 1.698 3.293 3.709 4.129h-.026 4.676v-.026c0-.392.522-.915.94-1.098 2.978-1.332 5.668-.313 8.62 1.124h9.978c-.026 0-.052-.026-.078-.026 2.925-1.255 5.511-2.431 8.411-1.15.496.209.862.758 1.28 1.15l-.053.052h4.676s-.026 0-.026-.026c2.037-.863 3.187-2.352 3.787-4.312.131-.392.653-.862 1.045-.888 1.933-.183 4.598.261 5.956 2.012.757.967 1.097 2.09 1.097 3.214h5.276c-.026-.157-.026-.288-.052-.444 2.325-.523 4.65-1.15 7.001-1.516.914-.157 2.011.026 2.873.392.522.209 1.045.993 1.097 1.568h1.306v-.131c-.052-1.123-.966-2.43-2.246-2.613-1.568-.235-3.213-.157-4.807-.13-.783.026-1.593.261-2.403.392.653-1.02 1.15-2.091 1.907-2.901.444-.47 1.332-.601 2.038-.679 3.108-.314 5.955.13 8.097 2.717.888 1.072 1.254 2.195 1.228 3.319h1.175c.052-1.437-.548-2.718-1.436-3.894-1.724-2.273-4.101-3.318-6.949-3.318h-3.474c0-.863-.052-1.803.026-2.744.026-.235.418-.549.706-.627 5.433-1.463 10.761 1.333 12.668 5.749.601 1.411 1.489 2.874 1.541 4.337v.497h8.098c-.026 0-.052-.026-.052-.026 1.28-.654 3.004-1.385 4.597-2.352 1.045-.653 2.064-.993 3.187-.523 1.227.497 2.455 1.072 3.552 1.803.444.314.653.706.601 1.098h1.646c0-.889-.601-1.777-1.803-2.535-1.28-.81-2.769-1.306-4.179-1.934l2.22-3.344c3.971.784 7.549 2.142 9.352 6.271.235.523.339 1.019.339 1.516h1.149c.053-1.777-.94-3.267-2.089-4.625-1.672-1.986-3.866-3.267-6.452-3.763-.627-.131-1.254-.366-1.881-.549l1.097-4.704c6.374.419 10.867 3.685 14.027 8.833.993 1.62 1.437 3.24 1.411 4.808h1.175c.026-1.96-.731-3.763-1.645-5.383-2.168-3.789-5.303-6.69-9.456-8.231-1.358-.497-2.847-.732-4.284-1.02-.731-.13-1.175-.339-1.123-1.228.078-1.097.026-2.195.026-3.266 5.538-.836 10.161.941 14.236 4.338 4.101 3.397 6.112 8.048 7.34 13.039.13.549.183 1.15.157 1.751h10.761-.026l5.878-2.744c.235-.105.679-.105.888.026 1.227.81 2.403 1.672 3.813 2.692 0 0-.026 0-.026.026h1.097c0-.445-.574-.863-1.724-1.882-.783-.705-1.724-1.254-2.533-1.829l3.709-4.129 9.534 7.866h1.149c0-.288-.183-.575-.522-.863l-9.482-7.969 3.369-5.462 15.281 14.268h1.411c0-.366-.34-.732-1.071-1.385l-10.031-9.303-4.336-3.998c-.548-.47-.783-.862-.365-1.541.862-1.438 1.645-2.927 2.664-4.73l21.602 20.957H300c0-.236-.235-.575-.653-.993zm-20.401-73.375l-8.202 28.874-4.388-2.482c-.757-.444-1.019-.967-.705-1.908l5.799-18.892c.47-1.568.392-1.646-1.202-1.986l-12.904-2.953-6.452-1.49c-.653-.131-1.044-.34-1.018-1.071.026-1.646 0-3.266 0-5.2 9.847 1.803 19.277 4.677 29.072 7.108zm-26.617 19.624l1.385-3.083c1.018-2.195.914-2.456-1.411-2.927-1.202-.235-2.429-.314-3.657-.444.314-1.542.575-3.057.967-4.521.078-.313.626-.758.888-.706 3.657.575 7.314 1.254 10.97 1.908.053 0 .105.105.34.34l-4.179 11.184-5.303-1.751zm-8.385.444c.836-1.071 2.038-2.038 2.534-3.292 1.071-2.665 3.03-2.535 5.224-2.195.392.052.81.131 1.489.261l-2.011 4.468c-.079.183-.496.235-.758.261l-6.478.496zm16.587-3.24l2.325-6.585c.313-.888.078-1.333-.94-1.489-2.012-.314-3.997-.81-6.008-1.176-2.012-.34-4.023-.601-6.139-.889l.288-6.48 20.348 4.704-6.112 20.016-5.695-3.057 1.933-5.043zm-32.73-41.025l16.483.235c1.463 0 2.925-.209 4.31-.314V66.98v4.939c.026 1.15.209 2.273.209 3.423.026 2.117.078 4.259-.079 6.376-.13 1.698-.496 3.397-.809 5.069-.575 3.057-2.403 5.409-4.284 7.761-2.142 2.665-5.355 3.711-7.941 5.488l-2.299-2.091c1.359-.941 2.769-1.725 3.919-2.77 4.022-3.658 6.582-8.048 7.418-13.562.679-4.442.627-8.884.731-13.327.105-4.05-.261-8.101-.392-12.151-.026-.679-.235-.941-.914-.967-1.071 0-2.116-.157-3.187-.183l-14.157-.157c-5.12.078-10.266.47-14.941 2.77-1.75.862-3.213 2.352-4.754 3.58-.732.575-1.489 1.15-2.09 1.855-.94 1.176-1.75 2.456-2.743 3.841l-2.037-2.352c1.724-2.561 2.899-5.723 5.485-7.996 3.344-2.927 7.131-4.573 11.546-4.834 2.116-.131 4.231-.34 6.347-.366 1.437-.078 2.795.287 4.179.313zm21.994 78.183c.993-1.385 1.672-2.587 2.639-3.58.391-.392 1.306-.471 1.959-.392 3.03.444 6.008 1.306 9.038 1.385 3.657.104 7.261-.549 10.213-3.084.052-.052.157-.026.601-.052-1.672 2.561-3.161 4.965-4.807 7.264-1.384 1.908-3.474 2.3-5.642 1.725s-4.284-1.385-6.399-2.143c-2.43-.836-4.781-1.881-7.602-1.123zm11.938-3.763c-2.403-.157-4.807-.941-7.131-1.699-1.829-.574-2.377-2.168-1.306-3.606 3.813-5.173 8.776-8.57 15.359-8.649 3.552-.026 6.739 1.542 9.534 3.737-3.317 7.865-8.359 10.792-16.456 10.217zm-6.139-9.564c-1.071.967-2.089 1.96-3.134 2.953-.627.601-1.228.81-2.09.34-1.071-.575-2.22-.993-3.657-1.621 4.049-1.489 5.799-5.043 8.359-7.76.888-.941 1.75-1.96 2.795-2.77 1.933-1.49 4.075-1.359 6.138-.34 2.194 1.071 4.31 2.3 6.583 3.528-1.698.104-3.213.052-4.65.313-3.97.758-7.392 2.666-10.344 5.357zm-4.362-3.162c-1.619 2.091-3.683 3.502-6.112 4.338-.784.261-1.698.209-2.534.287-.104-.104-.209-.182-.313-.287l6.739-12.464c.522-.941 1.593-1.62 2.481-2.3.732-.549 1.568-.418 2.43-.078 1.828.679 3.683 1.28 5.72 1.986-3.631 2.299-6.008 5.435-8.411 8.518zm-8.411 1.202c-.81 2.091-2.037 3.894-4.101 5.07-1.28.705-2.377 1.698-3.657 2.613.705-1.699 1.437-3.267 2.011-4.913.862-2.404.967-4.912.758-7.421-.183-2.378 1.071-3.737 2.873-4.886 1.985-1.255 4.154-1.882 6.478-2.169l2.665-.34c-3.344 3.449-5.303 7.656-7.027 12.046zm-6.556-8.649c.888 4.782.862 9.485-1.385 13.928-2.063 4.024-4.78 7.447-9.403 8.91l-1.959-3.475c1.541-1.62 3.16-3.031 4.44-4.704 1.933-2.534 3.056-5.513 3.37-8.701.13-1.437.104-2.927 0-4.39-.314-3.998-3.03-6.193-6.217-7.944-2.612-1.437-5.485-1.855-8.385-2.038-2.586-.183-5.015.601-7.392 1.542-.209.078-.444.183-.731.287l-2.195-3.684c5.851-5.043 15.464-4.756 21.629-.496 1.776 1.228 3.474 2.613 5.119 3.998 2.038 1.751 2.639 4.233 3.109 6.768zm-78.102 36.243c.601-1.698 1.071-3.292.418-4.965-.079-.235 0-.601.157-.81 1.619-2.247 3.474-3.475 6.269-2.639.653.183 1.41 1.045 1.619 1.725.679 2.404-.47 4.834-2.612 6.062-.287.157-.731.235-1.045.131-1.619-.549-3.134-.079-4.806.496zm-21.158-.47c-.314.104-.81-.052-1.123-.235-2.142-1.359-3.135-3.58-2.482-5.984.209-.706 1.019-1.542 1.724-1.777 2.299-.732 4.989.549 6.165 2.691.104.209.261.523.183.68-.836 1.724-.157 3.318.339 5.069-1.672-.522-3.161-1.045-4.806-.444zM42.63 130.947c-1.776.654-3.526 1.359-5.329 1.882-4.754 1.385-6.165-.418-8.124-3.293-1.149-1.698-2.116-3.501-2.978-5.461.444.34.836.758 1.332 1.019 3.526 1.855 7.288 2.613 11.258 2.038 2.377-.339 4.728-.94 7.079-1.411.784-.157 1.384-.078 1.855.706.679 1.097 1.541 2.09 2.508 3.371-2.847-.68-5.224.287-7.601 1.149zm-12.747-5.984c-3.108-1.123-5.015-3.684-6.791-6.323-.549-.81-.888-1.751-1.384-2.718 3.265-2.43 6.791-4.024 10.84-3.789 1.75.105 3.5.732 5.172 1.385 3.37 1.359 6.165 3.554 8.411 6.402 1.75 2.247 1.384 3.685-1.254 4.704-4.937 1.933-9.978 2.142-14.993.339zm17.501-5.644c-2.403-2.038-4.754-4.155-7.34-5.905-2.455-1.647-5.355-2.404-8.333-2.535-.679-.026-1.358.157-2.325.287.496-.365.784-.627 1.097-.783 2.09-1.098 4.153-2.274 6.295-3.267 2.664-1.254 4.911-.235 6.739 1.725 1.933 2.064 3.631 4.337 5.564 6.376 1.123 1.176 2.534 2.116 3.84 3.162-.966.418-2.09.81-3.108 1.384-1.045.549-1.672.209-2.429-.444zm-7.027-14.528c2.429-.81 4.597-1.856 6.896-2.222 1.489-.235 2.717 1.124 3.631 2.378 2.22 3.032 3.866 6.35 5.224 9.852.392 1.019.914 1.986 1.463 3.135-4.206.053-6.948-2.221-9.325-5.252-2.22-2.874-4.493-5.749-7.889-7.891zm16.143 8.205c-1.175-3.789-3.187-7.265-6.217-10.374 2.691.157 5.12.47 7.366 1.515.784.366 1.515.81 2.246 1.281 1.541 1.045 2.455 2.43 2.325 4.442-.313 4.311.47 8.414 2.795 12.203-3.579-2.378-7.105-4.547-8.515-9.067zm7.001 1.567c-.758-4.024-.157-7.996 1.045-11.863.313-.993.862-2.012 1.567-2.744 3.579-3.658 7.575-6.716 12.747-7.656 4.702-.862 9.299-.549 13.4 2.352.444.314.888.575 1.41.915l-2.09 3.502c-2.116-.496-4.127-1.097-6.165-1.437-2.821-.47-5.616.078-8.306.967-2.194.732-4.127 1.933-5.851 3.501-1.724 1.542-2.403 3.528-2.586 5.67-.627 7.056 1.933 12.7 7.601 16.959.105.079.183.157.34.288l-2.116 3.762c-6.426-2.639-9.769-7.63-10.997-14.215zm7.706-26.601c2.22-.287 4.388-.706 6.504.209 1.776.758 3.474 1.62 4.911 2.273-2.455.601-5.198 1.176-7.862 1.986-1.228.366-2.403 1.097-3.448 1.881-2.037 1.516-3.944.993-5.956-.026-2.847-1.437-4.597-3.972-6.582-6.48 4.206.836 8.333.706 12.434.157zm38.293-25.556c-1.985.078-3.265-.784-4.336-2.273-2.037-2.822-2.56-6.088-2.873-9.668 3.422 3.266 7.366 5.148 11.467 6.768 2.377.941 4.441 2.221 5.721 4.573.653 1.202 1.593 2.221 2.272 3.162-2.142-.706-4.336-1.646-6.661-2.169-1.802-.418-3.735-.47-5.59-.392zm68.464 2.901c2.586-3.266 4.257-6.977 8.593-8.257 3.344-.993 8.699-3.894 11.102-6.585-.183 3.972-.705 6.062-2.247 8.806-1.149 2.038-2.638 3.266-5.224 3.136-4.231-.235-6.661.052-12.224 2.901zm65.851-9.093c.6 4.076.235 7.918-1.933 11.262-1.985 3.057-4.937 5.148-8.359 6.428-2.011.758-4.127 1.307-6.269 1.594-1.829.235-2.717-.706-2.56-2.587.287-3.946 1.855-7.421 4.101-10.635 3.187-4.547 7.654-6.298 13.061-6.036l1.959-.026zm-2.586 31.54c-2.377 3.109-4.598 6.167-8.516 7.264-1.227.34-2.325.34-3.474-.444-3.657-2.535-7.732-3.841-12.433-3.789 4.127-2.143 7.966-3.867 12.72-2.796 3.736.836 7.68.653 11.703-.235zm-29.125 3.266l-4.493 1.594 3.37-9.093c1.619-3.998 4.44-6.742 8.724-7.761.966-.235 2.037-.078 3.056.052 1.176.157 1.698 1.045 1.776 2.195.288 3.737-1.28 6.663-4.075 9.015-2.429 2.091-5.433 3.005-8.358 3.998zm20.035-3.815c-2.586-.078-5.172-.575-7.837-.888 1.306-2.639 3.631-4.102 6.374-4.808 2.246-.575 4.597-.81 6.87-1.333 2.194-.496 4.362-1.176 6.582-1.803-.392 2.064-.627 4.364-1.384 6.48-.314.888-1.75 1.725-2.769 1.881-2.586.418-5.224.549-7.836.47zm7.287-8.545c-1.75.47-3.578.732-5.407 1.045-2.69.47-5.433.758-7.81 2.796.131-1.698.157-3.162.444-4.547.105-.444.914-.889 1.489-1.045 4.049-1.124 8.019-2.378 11.284-5.174 2.038-1.751 3.997-3.554 4.676-6.324l.418.078-.549 8.362c-.209 2.796-2.115 4.129-4.545 4.808zm-15.463-8.649c-1.071 3.58-1.123 3.58-4.833 3.92-.339.026-.705.078-1.28.131 2.952-3.92 2.508-8.571 3.605-12.778.914-3.449 2.325-4.782 5.799-5.252a15.66 15.66 0 0 1 1.933-.131h5.799c-6.322 2.796-9.221 8.022-11.023 14.111zm-4.807-2.221c-.365 2.43-1.332 4.547-2.899 6.402-.627.732-1.489 1.228-2.56 2.09-.261-4.573-.601-8.78-.653-12.961-.026-1.489.601-3.005 1.019-4.468.235-.889.888-1.385 1.854-1.542 2.038-.34 4.075-.81 6.269-1.254-1.959 3.789-2.429 7.787-3.03 11.733zm-7.131 1.098c.079 1.829.471 3.632.627 5.461.157 1.672-.313 3.214-1.097 4.704-.679 1.28-1.201 2.691-1.907 4.285-.156-1.489-.261-2.744-.444-3.972a17.37 17.37 0 0 0-3.16-7.761c-1.254-1.751-1.202-3.528-.392-5.331 1.41-3.188 4.075-5.226 6.948-7.343-.993 3.502-.731 6.742-.575 9.956zm-9.455-.209c2.586 3.188 4.78 6.559 5.459 10.687.862 5.252.209 10.191-3.422 14.503l-3.343-1.986c.548-2.744 1.462-5.278 1.488-7.813.053-4.39-1.123-8.545-4.101-12.046-2.429-2.848-5.589-3.371-9.011-3.266-3.056.078-5.982.993-8.49 2.613-2.22 1.437-4.101 3.423-6.243 5.305l-3.369-1.908c2.194-6.898 10.788-11.55 16.743-11.21 2.09.105 4.154.314 6.243.496 3.37.287 5.93 2.012 8.046 4.625zm-38.137 33.395c-.052.052-.157.026-.444.104l2.09-8.44c.104-.392.783-.758 1.279-.836 3.37-.549 5.59-2.535 6.322-5.749.757-3.345-.523-7.003-4.415-8.1-5.276-1.49-9.194 3.397-8.489 7.891.366 2.221 1.463 3.867 3.134 5.226.262.209.575.653.523.915-.784 2.848-1.672 5.697-2.508 8.571-.862-1.49-1.541-2.979-2.481-4.285-1.985-2.718-4.989-3.867-8.045-4.913-.314-.105-.81-.47-.81-.653.261-2.3.287-4.704 1.018-6.872 1.96-5.801 6.165-9.041 12.303-9.485 2.012-.131 4.128-.235 6.061.261 1.88.496 3.683 1.568 5.276 2.718 2.116 1.542 4.127 3.319 5.198 5.827.522 1.228.888 2.535 1.071 3.867.496 3.946-.705 7.552-2.664 10.923-.157.288-.732.601-1.019.523-4.885-1.228-9.43-.967-13.4 2.509zm3.605 30.181c1.018-1.986 1.462-3.972 1.123-6.115-.052-.261.157-.679.392-.836 1.123-.81 2.22-1.672 3.448-2.325 1.306-.68 2.664-.314 3.657.757.992 1.046 1.358 2.3.626 3.58-.653 1.176-1.462 2.247-2.246 3.345-.183.235-.575.496-.81.444-2.168-.313-4.205.105-6.19 1.15zm-.157-2.718a14.58 14.58 0 0 1-.627 1.464c-.888 1.776-.888 1.75-2.873 1.385-1.646-.314-3.135.209-4.781 1.254.34-2.404-.574-4.129-1.985-5.671-.183-.182-.339-.548-.261-.783.758-3.188 4.571-5.305 7.601-4.234 1.803.654 4.075 3.554 2.926 6.585zm-33.357 3.084c-.261.078-.757-.079-.914-.288-1.855-2.43-2.664-5.461-.313-8.048 1.906-2.09 5.093-2.247 7.209-.209.784.758 1.411 1.698 1.985 2.639.183.314.105 1.045-.156 1.333-1.359 1.542-2.195 3.24-1.933 5.592-1.986-1.359-3.866-1.62-5.878-1.019zm-8.541-1.542c-.314.026-.784-.131-.967-.34-.809-1.071-1.645-2.142-2.246-3.318-.758-1.464-.47-2.639.679-3.763 1.071-1.045 2.299-1.333 3.683-.601 1.176.627 2.246 1.463 3.317 2.247.236.157.444.575.392.836-.444 2.248.209 4.26 1.228 6.246a9.53 9.53 0 0 0-6.086-1.307zm.496-32.062c-1.437.209-2.873.418-4.31.549-.313.026-.784-.235-.94-.496-2.482-4.103-3.474-8.545-2.273-13.222.392-1.516 1.358-3.005 2.377-4.233 1.202-1.437 2.717-2.613 4.18-3.789 3.265-2.587 7.026-3.214 11.023-2.326 1.854.418 3.735.915 5.511 1.594 2.064.784 3.318 2.508 4.571 4.285 2.273 3.162 2.508 6.742 2.795 10.374.026.209-.287.627-.496.679-5.041 1.359-9.012 3.92-10.814 9.25l-2.482-8.466c-.078-.314.235-.888.549-1.124 2.664-2.143 3.552-4.913 2.899-8.205-.496-2.482-3.343-4.73-5.798-5.017-1.881-.209-3.448.34-4.885 1.411-2.508 1.881-3.056 6.48-1.149 9.12 1.358 1.855 3.003 3.24 5.407 3.449.992.078 1.306.653 1.488 1.568.471 2.326 1.098 4.599 1.646 6.924.052.235.078.471.157.941l-2.456-1.62c-2.141-1.411-4.466-1.986-7-1.646zM109.63 84.748c-.052.888-.105 1.777 0 2.665.104.836.392 1.646.601 2.561-.706-.105-1.359-.261-2.038-.314s-1.384 0-2.168 0c-1.097-2.927-1.593-5.879-.6-8.937 1.07-3.24 3.186-4.442 6.843-3.737 2.09.392 3.892 1.437 5.407 2.979.601.601 1.176 1.254 1.776 1.882l-1.854 3.763c-.679-.627-1.306-1.359-2.09-1.908-.757-.549-1.619-.993-2.507-1.28-1.829-.653-3.213.34-3.37 2.326zm6.269-7.552c-2.194-1.463-4.702-1.907-7.288-1.385-2.507.496-4.728 3.972-4.754 7.212 0 1.15-.052 2.326.105 3.449s.548 2.221.862 3.371l-4.624 1.411c-1.28-2.43-2.011-5.017-1.854-7.735.157-2.639.601-5.252 1.88-7.709 1.672-3.136 3.788-5.54 7.602-5.801 6.713-.444 12.015 2.064 16.012 7.552l-3.474 3.266c-1.489-1.254-2.874-2.587-4.467-3.632zm-4.937 10.74c-.183-.889-.157-1.855-.026-2.744.209-1.333 1.071-1.777 2.325-1.307 1.593.601 2.795 1.699 3.709 3.11.261.418.34.993.366 1.516.156 2.117.235 4.207.313 5.775-1.149-.758-2.638-1.96-4.284-2.77-1.567-.784-2.063-2.117-2.403-3.58zm41.48-14.32c-1.384-2.221-3.5-2.195-4.884.026-.81 1.333-1.332 2.848-1.985 4.285-.889-.575-1.96-1.228-2.978-1.934-.157-.105-.34-.418-.288-.601.653-3.24 1.777-6.245 4.65-8.205 2.899-1.96 4.728-1.489 7.601 1.228 1.933 1.829 2.691 4.338 3.213 6.898.052.209-.131.549-.313.679l-2.952 1.907c-.705-1.463-1.254-2.953-2.064-4.285zm.653 5.827c0 .784-.783 1.568-1.201 2.352-.705 1.385-1.358 2.796-1.855 3.789-.888-1.672-2.011-3.684-3.03-5.775-.209-.444-.157-1.15.052-1.646.549-1.385 1.124-2.77 1.907-3.998.497-.784 1.385-.732 2.116-.052 1.541 1.437 1.985 3.371 2.011 5.331zm4.885-7.447c-1.228-3.266-3.239-5.775-6.687-6.898-2.351-.758-4.205.418-5.825 1.803a11.12 11.12 0 0 0-3.892 6.663c-.104.601-.34 1.176-.496 1.751-1.359-.287-2.612-.627-3.892-.836-.653-.105-.81-.34-.732-.967.34-3.266 1.463-6.141 3.527-8.728 2.455-3.057 5.407-5.252 9.299-5.958.836-.157 1.802 0 2.612.287 6.53 2.143 10.187 6.82 11.624 13.379.13.549.026 1.124.026 1.803l-4.598 1.045c-.313-1.124-.548-2.273-.966-3.345zm-4.937 35.511c.026-1.28-.078-2.613-.366-3.841-.261-1.15-1.671-2.038-2.716-1.96-1.306.079-2.194.862-2.691 2.038-.679 1.647-.496 3.371-.13 5.07.156.757.261 1.515.418 2.351l-3.083-1.933c-.156-.105-.365-.288-.365-.444-.34-3.005-.523-5.958 1.515-8.571 2.873-3.659 7.496-2.849 9.586 1.202 1.202 2.325 1.071 4.834.679 7.316-.026.209-.313.445-.548.575l-2.874 1.855c.209-1.254.549-2.456.575-3.658zm-1.985 4.129c-.209.784-.627 1.515-1.045 2.534-1.463-3.187-2.351-6.192-1.828-9.485.156-.993.653-1.725 1.724-1.777 1.149-.052 1.671.732 1.906 1.751.549 2.404-.156 4.677-.757 6.977zm6.008-3.084c0-1.803.156-3.501-.026-5.147-.314-2.953-2.9-5.801-5.46-6.533-3.5-.967-6.843 1.672-8.019 4.416-.862 2.012-.966 4.129-.653 6.271.052.262 0 .549 0 .889-.235.052-.313.078-.392.078-3.213.131-3.395-.026-3.422-3.292-.052-4.625 1.907-8.075 6.087-10.113 1.41-.679 2.951-1.568 4.44-1.542 4.075.078 7.314 2.038 9.639 5.461 1.828 2.691 2.037 5.644 1.306 8.727-.078.288-.444.732-.705.758-.888.105-1.777.026-2.795.026zm-28.551-20.068c-.365-.941-.496-1.96-.731-2.953.183-3.449 2.978-5.696 6.321-4.913 1.594.366 2.221 1.751 2.926 2.979 1.437 2.535.993 6.376-2.325 7.787-2.194.941-5.146-.313-6.191-2.9zm7.236 15.469c1.149 1.359 1.75 3.188 2.586 4.861l-2.769 1.646c-1.332-1.803-2.481-3.737-4.022-5.331-2.665-2.743-7.654-2.717-9.822-.026-1.985 2.43-2.273 5.252-1.228 8.127.575 1.594 1.541 3.031 2.351 4.547l-2.638 1.541c-4.597-3.789-4.885-10.53-1.907-14.502 1.28-1.725 2.299-3.632 4.571-4.207 4.911-1.281 9.43-.68 12.878 3.344zm-9.926 4.26c-1.332.705-1.855 2.012-1.123 4.102.47 1.385 1.541 2.561 2.403 3.815.313.471.731.863 1.097 1.333-2.403.627-4.127-.052-5.329-2.012-1.332-2.143-2.168-4.364-1.567-6.977 1.123-4.834 6.295-5.095 9.169-2.848 1.88 1.463 2.951 3.475 3.813 5.618.079.209.105.496.026.679-.522 1.045-1.097 2.091-1.593 3.031-.914-1.855-1.724-3.762-2.821-5.539-.94-1.516-2.769-1.908-4.075-1.202zm.418 4.886c-.314-.523-.575-1.097-.679-1.698-.157-.889-.079-1.934.914-2.169.653-.157 1.698.078 2.168.549 1.855 1.829 2.377 4.337 3.03 6.741.183.706.183 1.464.261 2.404-2.507-1.594-4.257-3.554-5.694-5.827zm8.777-.209c1.489-2.404 4.754-3.71 7.47-3.057 4.023.967 6.322 3.71 6.948 7.996l-2.559.993c-.601-1.255-1.124-2.613-1.855-3.815-1.332-2.221-2.899-2.692-5.59-1.934-1.672.47-3.03 2.587-2.821 4.416.157 1.28.235 2.587.366 3.972l-2.665.418c-1.489-3.136-1.097-6.088.706-8.989zm2.873 6.193c0-.653-.105-1.306-.078-1.96.026-1.698.94-2.77 2.742-3.266 1.202-.34 2.847.392 3.527 1.646.496.941.888 1.934 1.306 2.901.261.653.104 1.202-.235 1.907-.81 1.673-1.333 3.476-1.881 4.913-.941-.836-2.038-2.195-3.448-2.927-1.463-.758-1.933-1.751-1.933-3.214zm12.434.078c3.317.131 6.138 4.469 4.832 7.5-.131.313-.627.575-.993.705-2.089.732-3.16 1.647-4.179 3.711-.888-1.986-2.273-3.214-4.206-3.711-.783-.182-1.018-.627-1.123-1.332-.601-3.659 2.142-7.029 5.669-6.873zm-6.923 9.512c.392-.314 1.098-.444 1.62-.366 2.481.34 4.65 3.136 4.441 5.671-.027.182-.053.47-.157.548-1.646 1.019-1.776 2.848-2.351 4.442-1.202-1.097-2.116-2.613-3.997-2.613-.182 0-.391-.261-.522-.444-1.541-2.195-1.123-5.513.966-7.238zm5.538 7.996c.183-.418.732-.915 1.071-.915.366 0 .888.523 1.097.915 1.385 2.979.261 5.696-1.071 8.675-1.436-3.005-2.507-5.696-1.097-8.675zm1.75-2.117c-.078-.052-.13-.209-.157-.313-.626-2.352 2.404-5.984 4.833-5.958 1.593.026 3.578 3.188 3.134 4.913-.209.757-.418 1.489-.653 2.221-.209.601-.653.81-1.28 1.071-1.149.523-2.115 1.437-3.16 2.195-.131.078-.157.287-.314.575-.548-1.908-.757-3.685-2.403-4.704zm6.53-9.616c-.235.209-.365.497-.731.967.078-2.456-.575-4.39-1.933-6.062-.157-.183-.183-.575-.104-.81.574-1.359 1.018-2.796 1.828-3.998.888-1.333 2.377-1.542 3.944-.941 1.228.444 2.038 1.672 2.012 3.214a20.6 20.6 0 0 1-.209 2.822c-.131.81-.47 1.333-1.332 1.803-1.306.758-2.351 1.986-3.475 3.005zm5.825-3.475c.105-1.411.262-2.822.288-4.259.052-1.96-1.071-3.606-2.691-4.129-2.507-.81-4.257-.366-5.485 1.62-.784 1.28-1.358 2.692-2.038 4.076l-2.507-.94c.496-4.442 2.873-6.794 6.347-7.892 2.847-.888 5.695-.078 7.601 2.378 2.247 2.875 2.822 6.089 1.15 9.538l-2.665-.392zm7.132-12.125c-1.124 1.777-1.933 3.763-2.874 5.592l-1.593-3.005c-.079-.157-.131-.392-.052-.549.94-2.351 2.142-4.494 4.231-6.062 1.463-1.097 5.015-1.463 6.635-.235 1.698 1.28 2.795 3.998 2.299 6.376-.444 2.143-1.542 3.946-2.926 5.618-.131.157-.392.34-.575.34l-3.657.209c.758-.915 1.463-1.673 2.064-2.535s1.175-1.777 1.593-2.744c.732-1.672.262-3.318-1.071-4.102-1.306-.732-3.134-.392-4.074 1.097zm.914.68c.601-.836 1.515-1.385 2.56-.758 1.044.601.992 1.646.627 2.613-1.15 2.953-3.344 5.017-5.982 6.742.052-3.188.94-6.063 2.795-8.597zm7.288 5.618c1.697-2.901 2.377-5.88.809-9.12-1.463-3.005-4.205-3.893-7.314-3.188-3.421.784-5.25 3.267-6.634 6.219-.131.262-.235.523-.366.784-.052.105-.131.183-.183.262l-2.769-1.621c1.123-6.088 6.557-9.041 10.501-8.91 1.384.052 2.769.157 4.127.392s2.612.836 3.396 2.012c1.097 1.62 2.429 3.188 3.056 4.991 1.332 3.867.757 7.578-2.116 10.74l-1.045 1.149-2.821-1.646c.444-.679.941-1.359 1.359-2.064zm-11.703-23.91c-1.645-.026-3.526-1.411-4.075-3.057-.835-2.456.053-5.775 2.064-7.395.418-.34 1.071-.706 1.541-.627 1.515.235 3.082.497 4.441 1.124 1.567.732 1.358 2.43 1.41 3.711-.026 3.737-2.272 6.271-5.381 6.245zm20.192-9.302c-1.332.601-2.508 1.62-3.709 2.482-.262.183-.392.523-.627.862l-1.855-3.58c-.078-.183-.026-.575.105-.732 1.724-1.751 3.5-3.423 5.877-4.312 3.814-1.411 7.418.47 8.202 4.521.522 2.718.157 5.383-.888 7.865l-4.153.314c.235-1.097.548-2.195.653-3.292a6.99 6.99 0 0 0-.209-2.43c-.444-1.646-1.803-2.43-3.396-1.698zm-4.232 5.827c.052-.575.261-1.254.627-1.672.758-.836 1.594-1.698 2.586-2.247.705-.392 1.959-.706 2.456-.34.6.444.94 1.646.914 2.482-.026 1.15-.261 2.456-.888 3.397s-1.829 1.515-2.821 2.195c-1.124.81-2.273 1.568-3.161 2.169l.287-5.984zm12.538 1.594l.575-2.169c.679-2.639.705-5.304-.313-7.839-1.724-4.233-4.911-5.069-9.535-3.475-1.227.418-2.377 1.124-3.421 1.908-.993.758-1.777 1.803-2.665 2.744l-3.657-3.397c3.056-4.599 7.392-6.951 12.747-7.578 1.202-.131 2.43-.078 3.631.026 3.657.34 5.668 2.77 7.21 5.801 1.593 3.162 2.22 6.533 1.75 10.008-.235 1.829-.967 3.606-1.463 5.435l-4.859-1.463zM171.145 71.5l-1.411-7.238c-.653-3.136-.731-6.219.497-9.276.888-2.169 2.325-3.867 4.31-5.043 2.116-1.228 3.369-.862 4.466 1.359 1.437 2.874 1.568 5.879.418 8.911-1.201 3.188-3.5 5.618-5.668 8.101l-2.612 3.188zm24.188-20.434c-2.978 1.803-6.06 3.371-9.142 4.991-1.176.627-2.456 1.098-3.814 1.672-.078-3.711 1.776-6.324 4.388-8.597 2.56-2.221 5.042-4.573 7.523-6.872.418-.392.679-.915 1.15-1.568.653 1.777 1.332 3.423 1.854 5.095.705 2.378.209 3.946-1.959 5.278zm-4.179-7.108c-1.907 1.777-4.023 3.371-5.93 5.174-1.227 1.15-2.194 2.561-3.317 3.893-.523-1.15-1.228-2.456-1.672-3.867-.13-.392.392-1.098.731-1.568 1.829-2.247 3.84-4.364 5.512-6.742 1.855-2.639 2.664-5.775 2.952-8.989.052-.653-.183-1.359-.288-2.038l.314-.157c1.175 2.273 2.429 4.521 3.526 6.82 1.567 3.162.47 5.357-1.828 7.473zm-2.926-12.307c.079 2.143-.731 4.416-1.567 6.48-1.358 3.397-3.631 6.219-6.583 8.414-1.933 1.437-3.448 1.019-4.336-1.228-1.854-4.677-2.168-9.433-.757-14.293 1.045-3.58 3.735-5.749 6.635-7.735.809-.549 1.75-.889 2.69-1.385 2.403 2.927 3.761 6.219 3.918 9.747zm-13.217-3.528c-2.377 4.756-2.482 9.747-1.254 14.816.261 1.097.679 2.195.836 3.319.078.496-.105 1.228-.444 1.542-1.071.915-2.273 1.672-3.657 2.639.679-2.561-.105-4.677-.862-6.794s-1.62-4.207-2.246-6.376c-.993-3.501-.183-5.566 2.873-7.526 1.881-1.202 3.814-2.326 5.903-3.292-.365.523-.836 1.045-1.149 1.672zm-5.903 17.534c.914 2.901.653 5.592-.967 8.466l-6.635-9.982c-1.071-1.62-1.75-3.449-1.828-5.383-.026-.679.522-1.542 1.045-2.064 1.436-1.411 3.03-2.691 4.754-4.207.078 4.913 2.298 8.911 3.631 13.17zm-3.475 6.533c1.463 1.803 2.169 3.893 2.169 6.271 0 1.307.235 2.587.417 4.207-.339-.444-.496-.653-.626-.862-1.96-3.371-4.676-5.958-8.176-7.578-2.377-1.098-3.187-2.901-3.265-5.252-.131-3.162 1.07-6.01 2.377-9.015 1.541 4.73 4.127 8.571 7.104 12.229zm-13.217.497c4.127.941 7.915 2.744 10.997 5.67 2.926 2.744 4.885 6.167 5.642 10.139.34 1.777.235 3.606.34 5.566-1.515 0-2.769.052-4.023-.052-.261-.026-.653-.575-.705-.915-.627-6.115-3.97-10.478-8.96-13.666-3.813-2.456-7.784-2.378-11.571.105-4.545 2.953-7.627 6.977-8.646 12.412-.392 2.143-.444 2.143-2.638 2.143h-2.012c-.783-5.644 1.045-10.269 4.493-14.346 3.37-3.998 7.915-6.036 12.852-7.186 1.332-.34 2.873-.183 4.231.131zm-23.561 18.788c-2.037-2.456-4.205-4.86-6.138-7.421-2.795-3.684-3.84-7.761-1.959-12.203 1.41-3.345 3.395-3.371 6.295-.679 3.944 3.606 4.127 8.231 3.239 13.065l-1.437 7.238zm12.695-17.847c-3.971 2.038-7.288 4.704-9.587 8.963-.052-4.677.601-8.702 3.736-12.203 2.612-2.953 4.623-6.428 5.746-10.504 1.62 3.92 3.37 7.63 1.803 11.837-.261.732-.967 1.516-1.698 1.907zm-1.881-11.889c-1.828 3.188-3.892 6.245-5.877 9.329-.627.967-1.28 1.908-1.985 2.953-2.09-3.475-1.568-6.846-.314-10.269 1.045-2.874 1.933-5.827 2.795-8.754.209-.679.131-1.437.209-2.535 1.933 1.751 3.892 3.162 5.407 4.991 1.019 1.176.497 3.005-.235 4.285zm-6.896-5.226c-.522 2.09-1.41 4.102-2.011 6.167-.575 1.934-1.071 3.92-1.489 5.906-.104.523.104 1.124.183 1.803l-3.526-2.535c-.758-.575-.601-1.333-.366-2.117.888-3.11 1.645-6.245 1.463-9.512-.131-2.744-.575-5.461-1.907-7.918-.34-.627-.81-1.202-1.123-2.038l4.466 2.639a23.35 23.35 0 0 1 2.769 2.012c1.802 1.463 2.064 3.501 1.541 5.592zm-7-1.699c.313 3.684-.235 7.186-1.541 10.557-.862 2.195-2.43 2.665-4.258 1.202-4.545-3.606-7.654-8.153-8.098-14.084-.287-3.946 1.385-7.395 3.762-10.583 5.642 2.613 9.612 6.324 10.135 12.909zm-11.128 7.813c1.28 1.751 2.821 3.292 4.31 4.886.758.81 1.123 1.489.47 2.587-.574.967-.94 2.064-1.462 3.24-.523-.888-.889-1.829-1.515-2.482-1.515-1.542-3.187-2.927-4.781-4.39-1.358-1.228-2.821-2.404-3.996-3.789-1.071-1.28-1.776-2.822-1.228-4.651.941-3.031 2.638-5.644 4.389-8.571-.706 5.2 1.044 9.355 3.813 13.17zm-.444 7.421c2.22 2.038 3.526 4.547 3.422 7.709-4.493-2.09-9.195-3.737-13.165-6.768-1.959-1.516-2.403-2.874-1.724-5.305.105-.392.209-.784.366-1.176l1.489-3.815c2.533 3.946 6.347 6.376 9.612 9.355zm3.735 14.581c4.728 2.038 8.725 4.886 10.527 10.113l-3.552 2.012c-1.385-1.411-2.665-3.005-4.232-4.233-2.716-2.143-5.903-3.319-9.377-3.658a20.05 20.05 0 0 0-4.154.052c-4.597.523-6.922 3.763-8.463 7.63-2.037 5.043-2.011 10.113.418 15.103l-3.709 2.195c-1.959-2.404-3.265-5.069-3.579-8.179-.366-3.684-.078-7.29 1.515-10.687 1.593-3.371 3.761-6.35 6.556-8.806 2.246-1.96 5.172-2.273 7.941-2.561 3.421-.34 6.896-.366 10.108 1.019zM94.767 67.45c.366 1.202.34 2.352-.444 3.502-1.776 2.587-3.082 5.409-3.552 8.545-.183 1.176-.261 2.378-.392 3.71-2.116-4.05-3.709-7.891-2.638-12.595.836-3.711.731-7.63-.314-11.628 3.239 2.352 6.191 4.625 7.34 8.466zm-8.176-6.951c.261 2.77.314 5.54.235 8.336-.078 2.352-.47 4.704-.731 7.108-2.638-1.28-4.101-3.554-4.78-6.271-.731-2.927-1.097-5.932-1.75-8.858-.366-1.568-.993-3.083-1.541-4.73 2.194.444 4.467.758 6.635 1.359 1.358.366 1.829 1.881 1.933 3.057zm-12.434-4.181c2.56.34 3.761 2.352 4.31 4.677.47 2.012.705 4.102 1.097 6.141.47 2.352.81 4.756 2.717 6.872-1.75-.131-3.108-.078-4.388-.392-.522-.131-1.097-.967-1.254-1.594-1.097-4.024-2.377-7.944-5.12-11.184-1.75-2.064-3.605-4.024-6.4-4.756l.078-.366c2.978.209 6.008.235 8.96.601zm-5.276 3.293c2.952 2.77 4.885 6.245 5.877 10.191.287 1.098.496 2.247.549 3.371.052 1.568-.81 2.535-2.351 2.326-2.194-.314-4.415-.81-6.504-1.594-3.631-1.385-6.791-3.606-8.724-7.055-1.358-2.404-1.959-5.148-1.75-7.996.052-.81 0-1.62 0-2.535 4.806-.392 9.299-.078 12.904 3.293zm-12.904 6.01c1.149 3.711 4.023 5.906 7.105 7.865 2.717 1.751 5.799 2.613 8.907 3.397.94.235 1.463.758 1.463 1.803.026 1.176.209 2.352.366 3.789-3.422-2.77-7.497-2.456-11.232-3.371-.862-.209-1.776-.34-2.612-.627-2.717-.889-4.023-2.927-4.179-5.618-.157-2.456-.026-4.913-.026-7.369.026.026.183.052.209.131zM67.575 81.09c2.299.366 4.336 1.202 6.112 2.665.81.679 1.41 1.62 2.194 2.535-2.168.261-4.075.627-6.008.706-2.926.105-5.877.131-8.829-.026-1.045-.052-2.116-.601-3.056-1.15-1.254-.732-1.097-2.195-1.384-3.397-.34-1.411-.47-2.874-.705-4.39 3.683 2.012 7.706 2.456 11.676 3.057zm7.941-2.979c.105-1.516.862-2.299 2.403-2.378 3.631-.183 6.504 1.28 8.803 3.998 2.194 2.561 3.108 5.723 4.179 8.806.47 1.385 1.019 2.77 1.567 4.311-3.84-1.568-7.758-2.822-11.336-4.73-3.788-2.064-5.877-5.461-5.616-10.008zm-5.538 34.702c-.34-1.777-.209-3.659-.052-5.462.287-3.501 2.769-5.304 5.564-6.767 3.135-1.647 6.504-2.248 10.004-1.803 1.855.235 3.657.967 5.538 1.489l-1.384 4.599c-2.116-.235-4.153-.575-6.217-.706-2.534-.156-4.754.784-6.609 2.483-1.515 1.385-1.515 3.292-1.358 5.121.235 2.796 1.489 5.174 3.526 7.108l1.698 1.62-3.344 3.606c-4.179-2.665-6.452-6.585-7.366-11.288zm7.026.81c-1.384-4.756.157-7.5 5.485-8.336 2.429-.366 4.336.078 6.922 1.071 0 .654-.026 1.359 0 2.039.052.679.183 1.358.261 1.881-1.672-.131-3.317-.418-4.963-.392-2.272.026-3.396 1.725-2.429 3.789.731 1.542 1.855 2.927 2.821 4.364l-3.5 1.698c-1.933-1.672-3.84-3.501-4.597-6.114zm9.168-2.587c1.149.157 2.351.392 3.422.862.627.288 1.097 1.019 1.515 1.646 1.071 1.568 2.063 3.188 2.873 4.416l-5.668-.261c-1.985-.052-4.885-3.005-4.832-4.991.026-1.071 1.254-1.881 2.691-1.672zm4.467-2.352c-.235-1.359.026-2.874.34-4.233.653-2.77 1.672-5.435 3.343-7.761 1.776-2.483 4.441-3.711 7.209-4.625a31.1 31.1 0 0 1 5.12-1.228c1.959-.314 3.788.392 5.564 1.202 3.396 1.594 5.825 4.181 7.706 7.369.444.757.418 1.149-.183 1.777-1.985 2.09-3.762 4.416-4.206 7.342-.261 1.751-.052 3.58-.052 5.644l-6.373-6.036c-.497-.47-.418-.914-.157-1.515 2.037-4.547-.888-10.348-6.974-10.505-3.031-.078-6.87 4.155-5.93 7.761 1.123 4.416 5.459 6.533 8.933 5.775.523-.105 1.071-.235 1.515-.523.575-.366.993-.235 1.385.183l5.955 6.272c-1.619 0-3.082-.157-4.518.052-1.359.183-2.769.522-3.945 1.176-1.698.967-3.187 2.273-4.78 3.397-.261.183-.784.261-1.045.13-4.65-2.56-7.967-6.271-8.907-11.654zm13.139.052c-2.821.053-6.243-3.423-6.217-6.297.026-1.882 2.847-4.651 4.728-4.625 2.873.026 6.217 3.397 6.165 6.219-.053 2.325-2.377 4.677-4.676 4.703zm-1.149 11.158c3.369-2.77 7.157-4.129 11.414-2.718 1.829.601 3.448 1.934 5.199 2.979l-1.646 2.849c-2.011-.863-3.997-1.96-6.112-2.561-3.605-1.045-7.993 1.463-8.49 4.625-.522 3.371.549 6.167 3.291 8.205 1.228.915 2.639 1.62 3.997 2.43l-1.567 2.692c-5.773-1.046-8.986-6.141-8.907-10.531.026-1.359.131-2.744.366-4.103.261-1.62 1.202-2.822 2.456-3.867zm8.593 14.79c-2.977-1.28-5.929-2.665-6.948-6.088-1.175-3.972 1.097-6.794 4.937-7.186 3.056-.314 5.433 1.228 7.68 3.005.13.104.235.339.261.522.078 1.15.104 2.274.183 3.58-1.359-1.045-2.508-2.012-3.762-2.848-.653-.444-1.463-.81-2.246-.941-1.829-.313-3.03.34-3.605 1.829-.444 1.124.079 2.796 1.411 3.633s2.821 1.437 4.257 2.142c.471.209.967.366 1.489.575l-3.317 1.777c-.078 0-.235.026-.34 0zm6.087-4.338c.444.497.835 1.072 1.358 1.777-3.37-.078-6.243-1.071-8.829-2.874-.758-.523-1.254-1.307-.967-2.326.314-1.071 1.437-1.489 2.874-.914 2.272.914 3.97 2.587 5.564 4.337zm1.41-1.541c-.575-2.483-.705-4.887.993-7.134 3.657-4.834 10.291-3.449 13.217.418.157.209.052.732-.131.993-.365.549-.836.993-1.332 1.568-.966-.732-1.881-1.49-2.873-2.143-2.064-1.385-4.023-1.176-5.721.261-2.246 1.934-1.88 4.417-.783 6.037.679 1.019 1.462 1.959 2.194 2.952l-2.09 1.803c-1.593-1.228-3.004-2.665-3.474-4.755zm9.587 3.397c.6.209 1.279.313 1.854.575 2.194.992 2.011 1.019 1.933 3.37-.052 1.464.496 2.979.784 4.495-1.959-.261-3.683.705-5.277 2.116-.183.157-.601.262-.81.157-2.612-1.15-5.015-3.449-4.283-6.977.391-2.012 3.735-4.468 5.799-3.736zm14.053 7.656c-.105-.444-.131-.889-.105-1.333.079-.862.679-1.228 1.437-.784.679.418 1.463.889 1.881 1.542 1.227 1.908 2.037 3.998 1.802 6.611-2.403-1.646-4.388-3.266-5.015-6.036zm-3.318 2.691c2.351.288 3.945 1.803 5.407 3.502.366.418.627.941 1.124 1.646-3.187-.026-5.852-.679-7.758-3.083-.314-.392-.601-1.307-.418-1.464.365-.392 1.097-.679 1.645-.601zm15.49 4.991c1.593-2.378 3.317-4.337 6.138-4.938.392-.079.836-.157 1.228-.053.705.183 1.228.628.732 1.438-.392.653-.836 1.332-1.411 1.829-1.358 1.176-4.676 2.038-6.687 1.724zm-.235-2.848c-.418.366-.94.653-1.698 1.176.026-3.266.705-5.958 3.187-7.865.366-.288 1.201-.523 1.384-.314.366.366.653 1.071.575 1.568-.235 2.352-1.724 3.998-3.448 5.435zm12.407-4.076c1.359-1.908 1.568-3.815 1.019-5.854-.078-.261.105-.731.314-.888 2.847-2.012 5.485-2.613 8.097-.183 1.985 1.829 2.142 4.913.209 7.029-.784.863-1.802 1.542-2.821 2.143-.287.183-1.019.026-1.332-.235-2.09-1.699-2.769-1.96-5.486-2.012zm8.96-8.832c.705-.941 1.489-1.856 2.116-2.849 2.089-3.292.757-5.487-1.933-7.081-1.228-.732-2.743-.444-3.997.366-1.123.731-2.194 1.568-3.343 2.378a67.59 67.59 0 0 0-1.698-2.012c1.358-2.692 5.12-4.39 8.62-3.998 2.638.287 5.773 3.214 6.138 5.827.47 3.684-.496 6.82-3.84 9.093-.679-.549-1.358-1.123-2.063-1.724zm11.807-5.41c1.567-.888 3.108-.705 3.657.314.496.941-.079 2.195-1.62 3.057-2.481 1.385-5.094 2.404-8.097 2.352 1.593-2.43 3.604-4.338 6.06-5.723zm-2.168 6.612c1.802-.889 3.735-1.699 5.511-2.77 1.358-.81 1.881-2.483 1.489-3.58-.653-1.751-2.403-2.587-4.232-1.725-1.436.653-2.69 1.673-4.022 2.561-.47.314-.862.679-1.411 1.124l.183-3.711c0-.157.078-.34.209-.418 2.534-1.986 5.172-3.606 8.646-2.901 5.068 1.02 5.224 6.559 2.821 9.381-1.489 1.751-3.396 2.796-5.459 3.633-.209.078-.549.078-.758-.027l-2.977-1.567zm9.795-1.072c2.508-2.352 2.873-6.663.862-9.093-1.907-2.274-4.519-3.11-7.314-2.43-2.142.522-4.101 1.672-6.191 2.56l-1.462-2.456c3.735-4.573 10.579-4.912 14.601-1.855 1.672 1.28 3.553 2.299 4.101 4.52 1.306 5.227.679 9.277-3.474 12.987-1.28 1.15-3.134 1.673-4.78 2.483a41.83 41.83 0 0 0-.914-1.699c-.261-.444-.575-.888-.705-1.045 1.776-1.333 3.683-2.482 5.276-3.972zm4.049-11.889c-1.672-1.725-3.631-3.214-5.93-3.815-2.168-.575-4.493-.549-6.843-.81l5.851-6.141c.209-.209.836-.261 1.149-.131 4.467 1.96 10.318-.261 10.762-6.82.157-2.169-1.254-3.972-3.135-5.121-2.586-1.568-5.929-1.176-8.071.732-2.194 1.96-3.344 5.697-1.855 8.78.288.601.235.993-.156 1.385l-6.296 5.958c0-1.646.105-3.136-.026-4.599-.104-1.15-.313-2.43-.888-3.397-1.019-1.751-2.272-3.397-3.526-4.991-.47-.601-.575-.967-.131-1.568.993-1.306 1.803-2.744 2.9-3.946 2.377-2.587 5.355-4.207 8.829-4.73 1.28-.209 2.716.026 4.022.366 2.743.706 5.407 1.698 7.732 3.345 2.482 1.777 3.709 4.442 4.65 7.186.574 1.646.94 3.371 1.253 5.096.34 2.012-.391 3.867-1.253 5.67-1.594 3.397-4.18 5.801-7.367 7.682-.705.471-1.097.471-1.671-.13zm-5.642-12.36c-2.038-1.594-2.404-3.92-1.124-6.35.993-1.881 2.691-2.874 4.624-3.397.731-.183 1.776.026 2.403.444 1.41.993 2.847 2.091 3.082 4.129-.444 2.378-1.567 4.364-3.813 5.514-1.751.914-3.527.966-5.172-.34zm15.333 5.879c.548-.94 1.149-1.803 2.324-1.933 1.28-.157 2.56-.445 3.814-.392 1.332.078 1.802 1.045 1.384 2.273a6.12 6.12 0 0 1-5.668 4.181c-1.698.026-3.396.209-4.675.287.835-1.28 1.88-2.822 2.821-4.416zm5.903 4.416c.81-1.019 1.698-2.012 2.429-3.109.81-1.202 1.332-2.587.418-3.92-.862-1.254-2.377-1.202-3.709-1.149-1.149.052-2.299.418-3.5.653l.287-4.155c2.821-1.019 5.773-1.62 8.725-.601 4.101 1.437 4.832 3.841 3.5 8.231-.758 2.483-2.638 4.181-4.467 5.827l-3.683-1.777zm8.306-1.803c1.124-1.724 1.672-3.71 1.62-5.827-.078-3.318-2.534-5.252-5.851-5.984-2.821-.627-5.616-.261-8.385.81l-1.437-4.729c2.743-1.228 5.486-2.065 8.542-1.751 3.37.34 6.452 1.202 9.221 3.266 3.056 2.274 3.944 5.331 3.474 8.859-.288 2.09-.862 4.154-1.541 6.14-1.071 3.084-3.37 5.253-6.008 7.16l-3.213-3.475c1.201-1.464 2.534-2.875 3.578-4.469zm-18.728-59.865c-.026 0-.053 0 0 0h0zm.052-.052l.47-6.48c.026-.261.078-.653.235-.732 1.437-.679 2.874-1.307 4.545-2.038l.392 4.625c.026.235-.078.601-.235.732-1.776 1.333-3.605 2.613-5.407 3.894zm11.363-5.54c-1.489.235-2.952.575-4.389.862l-.966-5.958-5.564 2.195-1.724-5.2 11.545-4.312 1.359 7.787.522 3.371c.052.627.026 1.124-.783 1.254zm-3.03-12.882c-3.37 1.124-6.687 2.456-10.135 3.737l-3.057-5.67 20.009-6.114 4.702 20.434h-6.452l-1.855-10.583c-.548-3.031-.287-2.77-3.212-1.803zm11.754-16.593l7.314 29.11h-6.295l-3.161-13.483-1.567-7.317c-.183-.941-.601-1.202-1.541-.889l-16.535 5.148c-.81.261-1.724.314-2.481.679-1.202.575-1.829.026-2.351-.941l-2.247-4.076 28.864-8.231zm-46.522-.915l8.098-4.599 5.407 9.172 7.993 13.274c1.254 2.195 2.246 4.547 3.239 6.872 1.62 3.815 1.463 7.735.105 11.524-.915 2.587-2.377 4.991-3.605 7.526l-3.03-.941c.679-1.489 1.463-2.848 1.933-4.285 1.776-5.252 1.698-10.452-.444-15.652-2.534-6.193-6.008-11.811-9.482-17.455-.941-1.515-1.959-3.005-2.821-4.573-.392-.679-.679-.758-1.332-.366l-14.916 8.283a40.9 40.9 0 0 0-10.187 7.865c-1.985 2.117-3.213 4.625-4.049 7.473-.705 2.378-1.306 4.703-1.097 7.421l-2.847-.706c-.81-5.749.052-11.079 3.553-15.731 2.115-2.77 4.989-4.73 8.019-6.428 5.12-2.979 10.318-5.801 15.463-8.675zm-28.916.183l-7.862 9.329-5.433-3.371 14.262-15.286 14.262 15.287-5.459 3.423-6.06-7.395c-.627-.758-1.254-1.516-1.959-2.221-.653-.679-1.202-.418-1.751.235zm.967.444l7.862 9.538-4.074 3.658-2.848-3.554c-.653-.836-1.253-.784-1.88.026l-2.821 3.554-4.075-3.658 7.836-9.564zm.026 10.06l2.743 3.867c.13.183.104.549.026.758l-2.795 6.036-2.899-6.637 2.925-4.024zm-11.232-18.135l10.187-10.531c.627-.653 1.176-.915 1.907-.157l9.325 9.512 10.658 11.262c-1.698.967-3.213 1.855-4.78 2.639-.314.157-.993 0-1.254-.261l-13.453-14.529c-1.28-1.385-1.462-1.385-2.742 0l-9.273 10.034c-1.332 1.437-2.691 2.848-3.971 4.338-.522.627-1.018.732-1.698.34l-4.545-2.613 9.639-10.034zm-32.364 15.548l7.601-12.673 17.501 9.93c3.213 1.829 6.452 3.58 9.561 5.566 5.146 3.292 7.601 8.309 8.358 14.241.131 1.071-.13 2.195-.182 3.293-.027.732.365 1.881.052 2.09-.81.523-1.881.653-2.952.941-.078-1.306-.052-2.482-.235-3.658-.94-6.559-4.284-11.68-9.665-15.443-2.821-1.96-5.746-3.763-8.698-5.54-2.429-1.463-4.937-2.77-7.418-4.129-1.463-.81-2.926-1.594-4.441-2.3-.287-.131-.966.052-1.097.314-3.735 6.245-7.549 12.464-11.023 18.84-1.855 3.397-3.082 7.186-3.161 11.132-.026 1.672.523 3.371.706 5.069.287 2.509 1.227 4.73 2.742 6.977l-2.951.889c-3.004-4.129-5.042-8.571-4.859-13.823a16.61 16.61 0 0 1 2.037-7.526c2.613-4.782 5.355-9.485 8.124-14.189zM95.655 56.24l-2.821-2.195c-.679-.523-1.384-1.019-2.142-1.411-.575-.314-.862-.627-.784-1.306.183-1.359.313-2.718.496-4.312l4.388 1.96c.183.078.287.444.314.706l.548 6.559zM84.397 38.105l-2.246 12.151h-6.374l4.702-20.486 20.009 6.115-3.056 5.697-7.471-2.848c-1.463-.549-2.952-1.019-4.441-1.463-.705-.209-.993.105-1.123.836zM68.228 50.36l7.288-29.083c9.691 2.822 19.356 5.043 28.838 8.414l-2.978 5.174c-1.672-.444-3.239-.784-4.728-1.254l-15.228-4.782c-1.802-.575-1.776-.549-2.194 1.359l-3.213 13.98-1.228 5.252c-.131.653-.392.993-1.123.993-1.698-.078-3.396-.052-5.433-.052zm15.882.287c-.261-.052-.627-.601-.601-.836l1.855-11.524L96.909 42.6l-1.646 5.226-5.616-2.221-.94 5.958c-1.489-.287-3.056-.549-4.597-.915zM51.406 67.424l.183-12.804c0-.993-.183-2.012-.287-2.953l15.333-.026c3.082-.052 6.191-.47 9.273-.34 4.545.183 9.247-.105 13.505 1.986 3.552 1.751 6.556 4.181 8.359 7.865.601 1.202 1.332 2.352 1.959 3.423l-2.063 2.273c-.966-1.359-1.724-2.796-2.795-3.92-2.926-3.057-6.112-5.749-10.448-6.742-4.571-1.071-9.168-1.437-13.844-1.385l-13.322.183c-.601 0-1.228.105-1.828.235-.209.052-.47.314-.523.549-.131.523-.157 1.045-.183 1.594l-.183 16.88c.052 4.468.575 8.885 2.194 13.065.888 2.273 2.142 4.311 4.101 5.879.705.575 1.175 1.463 1.881 2.064 1.175.941 2.429 1.751 3.814 2.718l-2.455 2.142c-2.142-1.463-4.649-2.848-6.791-4.677-3.265-2.822-5.198-6.48-5.721-10.844-.444-3.658-.627-7.317-.261-11.001.235-2.064.078-4.129.105-6.167zM38.111 85.715l6.269-1.202c1.515-.261 3.082-.418 4.597-.706.914-.157 1.437-.131 1.541 1.045.131 1.359.575 2.718.888 4.076l-5.903.967c.418 1.176.679 2.064 1.019 2.927s.758 1.725 1.175 2.665l-5.276 1.725-4.31-11.498zm3.187 11.994l-5.616 3.031-6.112-20.016 20.322-4.703.34 6.428-9.874 1.646c-.731.131-1.437.392-2.168.47-1.149.105-1.384.627-1.019 1.646l4.127 11.498zm7.993-2.299c-.209-.026-.47-.209-.548-.392-.653-1.385-1.254-2.822-1.959-4.39l4.101-.392c.758-.078 1.202.183 1.646.862 1.019 1.516 2.194 2.927 3.317 4.39.105.157.183.34.235.418l-6.791-.496zM21.08 75.759l29.047-7.29-.026 5.566c0 .313-.418.81-.705.862l-19.591 4.521c-1.646.366-1.724.418-1.201 2.091l5.198 16.75c.261.862.575 1.725.653 2.613.026.444-.366 1.071-.758 1.333-1.28.836-2.612 1.515-4.179 2.404-3.422-9.46-5.616-19.154-8.437-28.849zm25.442 70.423c1.593.287 3.239.418 4.963.627-.157.731-.287 1.567-.549 2.351-.078.262-.548.523-.836.549-1.306.079-2.638.209-3.892.026-2.116-.313-4.258-.705-6.321-1.332-4.806-1.49-7.889-5.07-10.292-9.198-3.317-5.697-6.452-11.524-9.691-17.273l-4.362-7.63 9.299-5.513 13.165-7.944c3.37-1.96 6.87-3.685 10.814-4.207 2.534-.314 5.041-.052 7.366.862 2.612 1.019 5.067 2.378 7.68 3.606l-.914 3.057c-.287-.104-.601-.104-.784-.261-2.22-1.751-4.963-2.09-7.575-2.665-3.918-.863-7.68-.052-11.389 1.385-6.583 2.534-12.46 6.376-18.441 10.008l-3.814 2.404c-.549.339-.758.549-.366 1.228 1.672 3.005 3.161 6.088 4.885 9.067 2.011 3.528 4.023 7.056 6.321 10.4 1.985 2.901 4.232 5.697 7.34 7.526 1.567.914 3.343 1.463 5.015 2.143.731.261 1.541.627 2.377.784zm6.791-4.103c-.862 1.751-2.69 2.09-4.336 2.012-2.064-.078-4.101-.601-6.112-1.071-1.019-.235-1.959-.758-2.69-1.046 2.586-1.437 5.276-2.822 7.862-4.416 1.646-.993 3.108-2.273 4.65-3.397 1.62-1.175 3.448-1.62 5.433-1.672 1.332-.052 2.638-.235 3.97-.366-4.023 2.43-6.765 5.854-8.777 9.956zm-7.183-4.599c-2.22 1.437-4.467 2.874-7.262 3.11-1.097.078-1.776-.288-2.429-1.02l-4.153-4.755c4.232-.105 7.758-1.62 11.337-3.058 2.325-.914 4.702-1.411 7.183-.914 1.045.209 2.038.758 3.108 1.15-2.69 1.907-5.172 3.789-7.784 5.487zm5.459-9.564c-.914-.94-1.62-2.09-2.299-3.24-.653-1.071-.183-1.986.705-2.665 2.482-1.882 5.276-2.248 8.254-1.673 3.161.627 5.616 2.561 8.019 4.547 1.724 1.411 3.344 2.927 4.911 4.312-3.108.574-6.347 1.411-9.639 1.75-3.631.392-7.209-.183-9.952-3.031zm40.566 21.035c-.105.288-.444.758-.679.732-1.437-.078-2.847-.261-4.258-.392-3.187-.313-5.747-2.012-8.176-3.92-1.646-1.306-2.508-3.161-3.03-5.095-.522-1.96-.836-3.998-1.071-6.01-.392-3.371.914-6.271 2.925-8.858 1.724-2.221 3.5-4.39 6.139-5.566 1.123-.523 2.377-.862 3.605-1.019 4.075-.523 7.784.679 11.232 2.743.261.157.366.81.34 1.229-.157 2.012-.523 4.024-.523 6.036 0 2.247 1.045 4.181 2.325 5.984l1.123 1.594-8.776-2.195c-.34-.105-.679-.784-.731-1.228-.523-3.319-2.455-5.592-5.616-6.324-4.362-1.019-8.568 1.28-8.463 6.689.052 3.214 2.09 4.835 4.493 5.828s5.015.574 7.209-1.124c.313-.261.758-.47.914-.81.731-1.62 1.802-1.385 3.187-.889 2.273.784 4.623 1.359 7.262 2.117-.653.287-1.019.47-1.411.601-4.545 1.725-6.582 5.54-8.019 9.877zm-4.414-11.053c-2.56.497-5.825-.679-6.922-2.508-1.123-1.882-.287-3.659.444-5.383.757-1.803 2.481-1.777 4.101-1.777 2.978 0 5.276 1.568 5.93 3.998.679 2.508-1.019 5.174-3.552 5.67zm30.796 9.276c-.104.236-.261.549-.418.889-.783 1.777-.757 1.672-2.716 1.176-3.083-.732-6.452-5.07-5.982-8.257.34-2.3 1.071-4.312 3.135-5.645 2.925-1.881 5.72-2.142 9.037-.757l-.391 2.691c-1.411-.105-2.821-.261-4.232-.287-2.011-.053-3.683 1.097-4.179 2.769-.732 2.535-.262 4.26 1.724 5.462 1.227.757 2.612 1.306 4.022 1.959zm.993-1.358c-.131.104-.418.13-.575.052-1.489-.653-3.082-1.15-4.362-2.09-1.254-.915-1.411-2.431-.679-3.894.653-1.306 1.802-1.881 3.213-1.829 1.018.026 2.037.157 3.03.287.705.105 1.097.445 1.489 1.176.731 1.281 1.854 2.326 2.847 3.449.261.288.627.471 1.201.863-2.481 0-4.492.496-6.164 1.986zm14.758 3.71c-.104.157-.444.209-.653.209-2.56.131-5.198-1.933-5.616-4.416-.235-1.437.81-2.143 1.776-2.796 1.594-1.097 4.363-.967 5.904.209.156.105.339.262.392.418.888 2.404.888 2.404 2.638 4.077-1.672.548-3.422.705-4.441 2.299zm37.667-4.181c-.392 2.483-3.03 4.547-5.616 4.416-.235 0-.575-.078-.653-.209-1.019-1.62-2.769-1.75-4.441-2.273 1.202-1.254 2.664-2.169 2.664-4.076 0-.183.288-.366.471-.497 2.22-1.515 5.642-1.045 7.235 1.072.314.339.418 1.045.34 1.567zm7.523-.156c-1.411-.863-3.135-1.15-4.754-1.699 1.854-.914 3.16-2.535 3.944-4.547.052-.13.209-.287.339-.339 1.855-.471 3.736-.993 5.616-.157 1.333.575 1.829 1.751 1.855 3.083.052 1.281-.731 2.221-1.776 2.901-.575.366-1.28.549-1.881.888-1.149.601-2.09.653-3.343-.13zm5.746 3.841c-2.716 1.045-2.742.993-3.709-1.882 1.332-.627 2.717-1.176 3.944-1.933 2.064-1.281 2.534-3.031 1.724-5.566-.548-1.673-2.168-2.744-4.257-2.692-1.385.027-2.743.183-4.128.288l-.417-2.718c1.697-.653 3.5-1.202 5.38-.731 2.691.679 5.016 1.855 6.217 4.677 2.012 4.73-1.306 9.224-4.754 10.557zm39.809-14.163c-.314 2.326-.862 4.651-1.594 6.898-.783 2.378-2.664 3.868-4.728 5.279-3.134 2.116-6.634 2.404-10.187 2.665-.209.026-.601-.418-.679-.731-1.071-3.136-2.246-6.22-5.067-8.232-1.254-.888-2.691-1.515-4.18-2.351l6.687-1.96c.314-.105.653-.131.941-.261.966-.497 1.619-.392 2.298.6 2.22 3.215 7.993 3.816 11.18.602 2.926-2.953 2.037-7.735-.627-9.643-2.481-1.777-6.191-2.273-9.168.549-1.359 1.28-2.325 2.744-2.482 4.651-.078.915-.548 1.255-1.437 1.437-2.638.575-5.224 1.281-7.94 1.986.888-1.515 1.75-2.822 2.455-4.207 1.149-2.247.993-4.677.758-7.107 0-.079-.053-.157-.079-.235-.653-3.188-.653-3.188 2.351-4.547 3.396-1.516 6.87-1.96 10.553-1.15 2.873.627 4.832 2.509 6.687 4.573.81.915 1.515 1.934 2.22 2.927 1.776 2.456 2.429 5.278 2.038 8.257zm-16.457-1.908c.183-1.986 1.385-3.318 3.109-4.102.94-.418 2.011-.549 3.03-.81 3.474.183 5.616 2.796 4.963 6.219-.314 1.646-1.724 2.352-3.004 3.031-1.881 1.019-3.866 1.124-5.747.052-1.671-.94-2.533-2.456-2.351-4.39zm25.364-2.796l-5.224-.993c2.429-2.012 4.858-4.18 7.444-6.166 3.422-2.666 7.288-3.685 11.546-2.3.914.288 1.75.889 2.507 1.49.706.548.993 1.332.601 2.299-1.489 3.789-4.493 5.566-8.28 6.324-2.926.601-5.747-.157-8.594-.654zm22.151 1.464c3.003 1.071 6.06 1.986 9.09 2.926.679.209 1.462.183 2.403.288l-3.709 4.52c-1.542 1.882-3.605 1.516-5.225.654-3.239-1.725-6.269-3.841-9.351-5.801-1.019-.654-2.011-1.385-3.082-2.117 3.213-1.986 6.478-1.672 9.874-.47zm-6.374 12.333c-1.411-.287-2.56-.862-3.239-2.273-1.933-3.972-4.65-7.238-8.881-9.459.522-.079.757-.131.992-.131l4.023.392c2.064.183 3.918.915 5.512 2.221 3.63 3.005 7.496 5.54 12.094 7.108-3.422 1.463-6.74 2.9-10.501 2.142zm25.651-13.509c-1.985 3.528-3.971 7.081-6.112 10.531-3.292 5.304-8.333 7.969-14.393 8.753-1.724.235-3.5.053-5.25 0-.183 0-.445-.235-.497-.418-.235-.862-.418-1.724-.601-2.534 1.542-.183 3.004-.236 4.467-.523 5.616-1.045 10.135-3.815 13.661-8.388 3.579-4.625 6.374-9.721 9.195-14.816l3.631-6.794c.339-.601.261-.889-.34-1.254l-7.81-4.861c-3.526-2.064-7.079-4.154-10.736-5.984-3.526-1.75-7.209-3.161-11.232-3.24-1.619-.026-3.239.288-4.832.549-1.28.209-2.56.523-3.788.967-1.201.444-2.324 1.123-3.63 1.751l-.862-2.901c2.847-1.437 5.354-3.449 8.646-4.207 4.492-1.019 8.724-.575 12.747 1.49 2.977 1.516 5.851 3.293 8.75 4.99l12.591 7.474c1.88 1.123 3.839 2.143 5.537 3.109l-9.142 16.306z"/><path d="M.653 150.787l13.87 13.667 7.027 6.376c.601.522.549.888.235 1.463l-2.534 4.651c-1.698 2.953-3.004 6.115-5.407 8.649-.575.601-.183 1.019.496 1.255 4.937 1.803 9.038 5.121 13.557 7.682.235.131.392.679.313.967l-4.441 14.555c-1.358 4.625-2.56 9.302-3.84 13.953-.183.68-.052 1.072.705 1.255l5.93 1.568 10.71 2.796c4.023.966 8.045 1.803 12.094 2.665.705.157.914.522.914 1.202v5.435c-.052 3.266-.078 6.507-.261 9.773-.052 1.045.209 1.228 1.149 1.097 1.619-.209 3.265-.418 4.885-.418 3.03-.026 6.06.131 9.09.183 2.038.026 2.011.026 2.482 2.012l3.605 14.869 3.265 12.568c.183.68.444 1.15 1.254.915l3.187-.941 12.407-3.449 12.695-3.841c.705-.235 1.045-.183 1.384.444 2.482 4.521 5.799 8.571 7.523 13.51.262.705.732.836 1.332.313.262-.209.471-.444.758-.627l12.643-7.317c.261-.13.914.079 1.149.34 1.933 2.065 3.761 4.259 5.72 6.272l14.262 14.476c1.176 1.202 1.176 1.202 2.404-.052l12.956-13.17c2.324-2.378 4.571-4.834 6.739-7.369.627-.732 1.071-.862 1.802-.366.261.183.575.288.862.47 4.049 2.457 8.594 4.155 12.199 7.369.601.523 1.045.262 1.306-.444 1.776-4.965 5.093-9.067 7.653-13.588.131-.235.679-.444.941-.366l15.15 4.573c4.127 1.202 8.28 2.247 12.433 3.371 1.907.523 1.881.523 2.351-1.306l3.971-15.052c1.045-4.233 1.907-8.518 2.925-12.778.079-.339.601-.784.914-.81 2.247-.104 4.493-.209 6.766-.156 2.951.052 5.877.261 8.803.392.783.052 1.201-.157.966-1.072-.157-.549-.287-1.123-.287-1.698l-.026-13.797c0-.732.418-.889.966-.993 3.239-.68 6.504-1.255 9.717-2.065l18.755-4.912c.966-.235 1.071-.68.836-1.49l-2.795-9.903-5.303-18.265c-.104-.34.079-.993.34-1.15 4.467-2.561 8.542-5.827 13.452-7.63.967-.366.941-.784.314-1.516-.81-.915-1.594-1.881-2.194-2.953a388.96 388.96 0 0 1-5.042-9.172c-.914-1.724-.888-1.75.679-3.031.157-.13.288-.287.444-.418l10.71-10.374 8.907-8.701c.366-.366.575-.653.575-.967h-1.75c0 .47-.47.915-1.411 1.881l-11.441 11.419c-2.612 2.535-5.381 4.913-8.254 7.526l-2.586-4.834c-.131-.261-.052-.836.157-1.019l9.9-9.224 5.172-4.782c.391-.34.6-.653.574-.967h-1.358l-15.281 14.293-3.396-5.487 7.288-6.01c.758-.627 1.515-1.254 2.221-1.934.287-.287.444-.575.417-.836h-1.227c-.888.81-1.672 1.62-2.534 2.326l-5.72 4.651c-.732.601-1.28.993-2.038-.131-.731-1.123-1.802-2.038-2.743-3.057l3.605-2.874c.418-.314.601-.627.601-.915h-1.019l-3.892 2.77c-.157.104-.496.157-.653.052l-6.008-2.822h.026-10.788c-.026 1.254-.261 2.483-.653 3.763-1.123 3.632-2.821 6.898-5.354 9.721-1.933 2.142-4.415 3.501-7.001 4.703-2.743 1.28-5.642 1.202-8.62 1.045v-4.259c1.385-.34 2.821-.575 4.206-1.019 6.452-2.143 10.631-6.454 12.172-13.092.052-.287.105-.548.131-.836h-1.254c.026 1.934-.758 3.659-1.776 5.305-2.639 4.233-6.348 7.133-11.389 8.048-.705.131-1.437.209-2.299.34l-1.071-4.756 2.09-.575c3.134-.836 5.747-2.43 7.34-5.331.575-1.045.888-2.064.94-3.031h-1.097c.026 1.594-.888 3.031-2.507 4.625-1.829 1.803-4.232 2.587-6.714 3.084-.261.052-.679-.183-.835-.418-.68-.967-1.306-1.96-1.855-2.796 1.489-.68 3.03-1.202 4.388-2.065 1.045-.653 1.568-1.541 1.568-2.404h-1.62c-.026.392-.235.784-.601 1.15-1.462 1.49-3.343 1.96-5.276 1.934-.862 0-1.698-.889-2.586-1.333-1.306-.653-2.638-1.254-3.605-1.725.026-.026.052-.026.079-.052h-8.072c0 3.449-1.75 6.298-4.31 8.467-2.743 2.325-6.008 3.005-9.586 2.168-.758-.183-1.045-.418-.993-1.202.052-.731 0-1.463 0-2.247h3.709c4.18-.104 7.001-2.639 7.915-5.696.157-.497.209-1.019.235-1.516h-1.201c0 2.038-1.28 3.998-3.292 5.096-2.377 1.28-4.963 1.175-7.549.81-.182-.026-.391-.262-.522-.445-.627-.94-1.228-1.907-1.907-2.979 1.28.21 2.508.549 3.735.575 1.28.027 2.612-.078 3.84-.392 1.097-.287 1.881-1.567 1.855-2.639h-1.228c0 .549-.627 1.307-1.175 1.594-.653.34-1.515.418-2.247.392-2.56-.104-5.015-.679-7.314-1.803-.052-.026-.078-.078-.104-.209h-5.277v.366c-.078 2.456-2.429 4.73-4.884 4.834-.444.026-.888.157-1.332.157-.915.026-1.724-.026-2.038-1.202-.496-1.908-1.698-3.293-3.709-4.129h.026-4.676v.026c0 .392-.522.915-.94 1.098-2.978 1.333-5.668.313-8.62-1.124h-9.978c.026 0 .052.026.078.026-2.925 1.255-5.511 2.431-8.411 1.15-.496-.209-.862-.758-1.28-1.15l.053-.052h-4.676s.026 0 .026.026c-2.037.863-3.187 2.352-3.787 4.312-.131.392-.653.862-1.045.888-1.933.183-4.598-.261-5.956-2.012-.757-.967-1.097-2.09-1.097-3.214h-5.276c.026.157.026.288.052.444-2.325.523-4.65 1.15-7.001 1.516-.914.157-2.011-.026-2.873-.392-.522-.209-1.045-.993-1.097-1.568h-1.306v.131c.052 1.123.966 2.43 2.246 2.613 1.568.235 3.213.157 4.807.13.783-.026 1.593-.261 2.403-.392-.653 1.02-1.15 2.091-1.907 2.901-.444.47-1.332.601-2.038.679-3.108.314-5.955-.13-8.097-2.717-.888-1.072-1.254-2.195-1.228-3.319h-1.175c-.052 1.437.549 2.718 1.437 3.894 1.724 2.273 4.1 3.318 6.948 3.318h3.474c0 .863.052 1.803-.026 2.744-.026.235-.418.549-.706.627-5.433 1.463-10.761-1.333-12.668-5.749-.601-1.411-1.489-2.874-1.541-4.337v-.497h-8.097c.026 0 .052.026.052.026-1.28.654-3.004 1.385-4.597 2.352-1.045.653-2.064.993-3.187.523-1.228-.497-2.455-1.072-3.552-1.803-.444-.314-.653-.706-.601-1.098h-1.646c0 .889.601 1.777 1.802 2.535 1.28.81 2.769 1.306 4.179 1.934l-2.22 3.344c-3.97-.784-7.549-2.142-9.351-6.271-.235-.523-.34-1.019-.34-1.516H64.65c-.052 1.777.94 3.267 2.09 4.625 1.672 1.986 3.866 3.267 6.452 3.763.627.131 1.254.366 1.881.549l-1.097 4.704c-6.373-.419-10.866-3.685-14.027-8.833-.993-1.62-1.437-3.24-1.411-4.808h-1.175c-.026 1.96.731 3.763 1.646 5.383 2.168 3.789 5.303 6.69 9.456 8.231 1.358.497 2.847.732 4.284 1.02.731.13 1.175.339 1.123 1.228-.078 1.097-.026 2.195-.026 3.266-5.538.836-10.161-.941-14.236-4.338-4.101-3.397-6.112-8.048-7.34-13.039a6.44 6.44 0 0 1-.157-1.751H41.35h.026l-5.877 2.744c-.235.105-.679.105-.888-.026-1.228-.81-2.403-1.672-3.814-2.692 0 0 .026 0 .026-.026h-1.097c0 .445.575.863 1.724 1.882.784.705 1.724 1.254 2.534 1.829l-3.709 4.129-9.534-7.866h-1.149c0 .288.183.575.522.863l9.482 7.969-3.37 5.462-15.281-14.268H9.534c0 .366.34.732 1.071 1.385l10.031 9.303 4.336 3.998c.549.47.784.862.366 1.541-.862 1.438-1.646 2.927-2.664 4.73L1.071 149.794H0c0 .236.235.575.653.993zm20.4 73.375l8.202-28.874 4.388 2.482c.758.444 1.019.967.705 1.908L28.55 218.57c-.47 1.568-.392 1.646 1.201 1.986l12.904 2.953 6.452 1.489c.653.131 1.045.34 1.019 1.072-.026 1.646 0 3.266 0 5.2-9.848-1.803-19.277-4.678-29.073-7.108zm26.617-19.624l-1.384 3.084c-1.019 2.194-.914 2.456 1.411 2.926 1.202.235 2.429.314 3.657.444-.313 1.542-.575 3.058-.966 4.521-.078.314-.627.758-.888.705-3.657-.574-7.314-1.254-10.971-1.907-.052 0-.105-.105-.34-.34l4.179-11.184 5.303 1.751zm8.385-.444c-.836 1.071-2.037 2.038-2.534 3.292-1.071 2.666-3.03 2.535-5.224 2.195-.392-.052-.81-.13-1.489-.261l2.011-4.468c.078-.183.496-.236.758-.262l6.478-.496zm-16.587 3.24l-2.325 6.585c-.314.888-.078 1.333.94 1.489 2.011.314 3.997.81 6.008 1.176 2.011.34 4.023.601 6.138.889l-.287 6.48-20.348-4.703 6.112-20.016 5.694 3.057-1.933 5.043zm32.73 41.025l-16.482-.235c-1.463 0-2.925.209-4.31.314v-15.417-4.939c-.026-1.15-.209-2.274-.209-3.423-.026-2.117-.078-4.26.078-6.376.131-1.699.496-3.397.81-5.07.575-3.057 2.403-5.409 4.284-7.76 2.142-2.666 5.355-3.711 7.941-5.488l2.299 2.091c-1.358.94-2.769 1.724-3.918 2.77-4.023 3.658-6.583 8.048-7.418 13.561-.679 4.443-.627 8.885-.731 13.327-.105 4.05.261 8.1.392 12.151.026.679.235.94.914.967 1.071 0 2.116.156 3.187.182l14.158.157c5.12-.078 10.266-.47 14.941-2.77 1.75-.862 3.213-2.351 4.754-3.58.731-.574 1.489-1.149 2.09-1.855.94-1.176 1.75-2.456 2.743-3.841l2.038 2.352c-1.724 2.561-2.899 5.722-5.485 7.996-3.343 2.926-7.131 4.573-11.545 4.834-2.116.131-4.232.34-6.347.366-1.437.078-2.795-.288-4.179-.314zm-21.994-78.183c-.993 1.385-1.672 2.587-2.638 3.58-.392.392-1.306.471-1.959.392-3.03-.444-6.008-1.306-9.038-1.385-3.657-.104-7.262.549-10.213 3.084-.052.052-.157.026-.601.052 1.672-2.561 3.161-4.965 4.806-7.264 1.384-1.908 3.474-2.3 5.642-1.725s4.284 1.385 6.4 2.143c2.429.836 4.78 1.881 7.601 1.123zm-11.937 3.763c2.403.157 4.806.941 7.131 1.699 1.828.574 2.377 2.168 1.306 3.606-3.814 5.173-8.777 8.57-15.359 8.649-3.552.026-6.739-1.542-9.534-3.737 3.317-7.865 8.359-10.792 16.456-10.217zm6.138 9.564c1.071-.967 2.09-1.96 3.135-2.953.627-.601 1.228-.81 2.09-.34 1.071.575 2.22.993 3.657 1.621-4.049 1.489-5.799 5.043-8.359 7.76-.888.941-1.75 1.96-2.795 2.77-1.933 1.49-4.075 1.359-6.138.34-2.194-1.071-4.31-2.3-6.582-3.528 1.698-.104 3.213-.052 4.65-.313 3.97-.758 7.392-2.666 10.344-5.357zm4.362 3.162c1.62-2.091 3.683-3.502 6.112-4.338.784-.261 1.698-.209 2.534-.287.105.104.209.183.313.287l-6.739 12.464c-.522.941-1.593 1.62-2.481 2.3-.731.549-1.567.418-2.429.078-1.828-.679-3.683-1.28-5.721-1.986 3.631-2.299 6.008-5.435 8.411-8.518zm8.411-1.202c.81-2.091 2.038-3.894 4.101-5.07 1.28-.705 2.377-1.698 3.657-2.613-.705 1.699-1.437 3.267-2.011 4.913-.862 2.404-.966 4.912-.758 7.421.183 2.378-1.071 3.737-2.873 4.886-1.985 1.255-4.153 1.882-6.478 2.169l-2.664.34c3.343-3.449 5.303-7.656 7.026-12.046zm6.556 8.649c-.888-4.782-.862-9.485 1.384-13.928 2.064-4.024 4.78-7.447 9.404-8.91l1.959 3.475c-1.541 1.62-3.161 3.031-4.441 4.704-1.933 2.534-3.056 5.513-3.37 8.701-.131 1.437-.105 2.927 0 4.39.313 3.998 3.03 6.193 6.217 7.944 2.612 1.437 5.485 1.855 8.385 2.038 2.586.183 5.015-.601 7.392-1.542.209-.078.444-.183.731-.287l2.194 3.684c-5.851 5.044-15.464 4.756-21.628.497-1.776-1.228-3.474-2.613-5.12-3.998-2.037-1.751-2.638-4.233-3.108-6.768zm78.102-36.243c-.601 1.698-1.071 3.292-.418 4.965.079.235 0 .601-.157.81-1.619 2.247-3.474 3.475-6.269 2.639-.653-.183-1.41-1.045-1.619-1.725-.679-2.404.47-4.834 2.612-6.062.287-.157.731-.235 1.045-.131 1.619.549 3.134.079 4.806-.496zm21.158.47c.314-.104.81.052 1.123.235 2.142 1.359 3.135 3.58 2.482 5.984-.209.706-1.019 1.542-1.724 1.777-2.299.732-4.989-.549-6.165-2.691-.104-.209-.261-.523-.183-.68.836-1.724.157-3.318-.339-5.069 1.672.522 3.161 1.045 4.806.444zm94.375 10.714c1.777-.654 3.527-1.359 5.329-1.882 4.754-1.385 6.165.418 8.124 3.293 1.149 1.698 2.116 3.501 2.978 5.461-.444-.34-.836-.758-1.333-1.019-3.526-1.855-7.287-2.613-11.258-2.038-2.377.339-4.728.94-7.079 1.411-.783.157-1.384.078-1.854-.706-.679-1.097-1.541-2.09-2.508-3.371 2.847.68 5.224-.287 7.601-1.149zm12.748 5.984c3.108 1.123 5.015 3.684 6.791 6.323.549.81.888 1.751 1.384 2.718-3.265 2.43-6.791 4.024-10.84 3.789-1.75-.105-3.5-.732-5.172-1.385-3.369-1.359-6.164-3.554-8.411-6.402-1.75-2.247-1.384-3.685 1.254-4.704 4.937-1.933 9.978-2.142 14.994-.339zm-17.502 5.644c2.404 2.038 4.754 4.155 7.34 5.905 2.456 1.647 5.355 2.404 8.333 2.535.679.026 1.358-.157 2.325-.287-.496.365-.784.627-1.097.783-2.09 1.098-4.154 2.274-6.295 3.267-2.665 1.254-4.911.235-6.74-1.725-1.933-2.064-3.63-4.337-5.563-6.376-1.124-1.176-2.534-2.116-3.84-3.162.966-.418 2.089-.81 3.108-1.384 1.045-.549 1.672-.209 2.429.444zm7.027 14.528c-2.429.81-4.597 1.856-6.896 2.222-1.489.235-2.717-1.124-3.631-2.378-2.22-3.032-3.866-6.35-5.224-9.852-.392-1.019-.914-1.986-1.463-3.135 4.206-.053 6.948 2.221 9.325 5.252 2.221 2.874 4.493 5.749 7.889 7.891zm-16.143-8.205c1.176 3.789 3.187 7.265 6.217 10.374-2.69-.156-5.12-.47-7.366-1.515-.784-.366-1.515-.81-2.247-1.281-1.541-1.045-2.455-2.43-2.324-4.442.313-4.311-.471-8.414-2.795-12.203 3.578 2.378 7.105 4.547 8.515 9.067zm-7-1.567c.757 4.024.156 7.996-1.045 11.863-.314.993-.862 2.012-1.567 2.744-3.579 3.658-7.575 6.715-12.747 7.656-4.702.862-9.3.549-13.401-2.352-.444-.313-.888-.575-1.41-.914l2.09-3.502c2.115.497 4.127 1.098 6.164 1.437 2.821.471 5.616-.078 8.307-.967 2.194-.731 4.127-1.933 5.851-3.501 1.724-1.542 2.403-3.528 2.586-5.67.627-7.056-1.933-12.7-7.601-16.959-.105-.079-.183-.157-.34-.288l2.116-3.762c6.426 2.639 9.769 7.63 10.997 14.215zm-7.706 26.601c-2.22.287-4.388.705-6.504-.209-1.776-.758-3.474-1.621-4.911-2.274 2.456-.601 5.198-1.176 7.863-1.986 1.227-.366 2.403-1.097 3.448-1.881 2.037-1.516 3.944-.993 5.955.026 2.847 1.437 4.597 3.972 6.583 6.48-4.206-.836-8.333-.705-12.434-.156zm-38.293 25.555c1.985-.078 3.265.784 4.336 2.274 2.037 2.822 2.56 6.088 2.873 9.668-3.422-3.266-7.366-5.148-11.467-6.768-2.377-.94-4.441-2.221-5.721-4.573-.653-1.202-1.593-2.221-2.272-3.161 2.142.705 4.336 1.646 6.661 2.168 1.802.418 3.735.471 5.59.392zm-68.464-2.9c-2.586 3.266-4.257 6.977-8.593 8.257-3.344.993-8.699 3.894-11.102 6.585.183-3.972.705-6.062 2.247-8.806 1.149-2.038 2.638-3.266 5.224-3.136 4.231.236 6.661-.052 12.224-2.9zm-65.851 9.093c-.601-4.076-.235-7.917 1.933-11.262 1.985-3.057 4.937-5.148 8.359-6.428 2.011-.758 4.127-1.307 6.269-1.594 1.828-.235 2.716.705 2.56 2.587-.287 3.946-1.855 7.421-4.101 10.635-3.187 4.547-7.653 6.298-13.06 6.036l-1.959.026zm2.586-31.539c2.377-3.11 4.597-6.167 8.516-7.265 1.228-.339 2.325-.339 3.474.445 3.657 2.534 7.732 3.841 12.434 3.788-4.127 2.143-7.967 3.868-12.721 2.796-3.735-.836-7.68-.653-11.702.236zm29.125-3.267l4.493-1.594-3.37 9.094c-1.62 3.998-4.44 6.742-8.724 7.761-.967.235-2.037.078-3.056-.053-1.175-.156-1.698-1.045-1.776-2.195-.287-3.736 1.28-6.663 4.075-9.015 2.429-2.09 5.433-3.005 8.359-3.998zm-20.035 3.815c2.586.079 5.172.575 7.836.889-1.306 2.639-3.631 4.102-6.374 4.808-2.246.575-4.597.81-6.87 1.333-2.194.496-4.362 1.175-6.582 1.803.392-2.065.627-4.364 1.384-6.481.313-.888 1.75-1.724 2.769-1.881 2.586-.418 5.224-.549 7.836-.471zm-7.288 8.545c1.75-.47 3.578-.732 5.407-1.045 2.691-.47 5.433-.758 7.81-2.796-.131 1.698-.157 3.162-.444 4.547-.105.444-.914.888-1.489 1.045-4.049 1.123-8.019 2.378-11.284 5.174-2.038 1.75-3.997 3.553-4.676 6.323l-.418-.078.549-8.362c.209-2.796 2.116-4.129 4.545-4.808zm15.464 8.649c1.071-3.58 1.123-3.58 4.832-3.919.34-.026.705-.079 1.28-.131-2.952 3.92-2.508 8.571-3.605 12.778-.914 3.449-2.325 4.782-5.799 5.252-.627.079-1.28.131-1.933.131h-5.799c6.321-2.796 9.221-8.022 11.023-14.111zm4.806 2.221c.366-2.43 1.332-4.546 2.899-6.402.627-.731 1.489-1.228 2.56-2.09.261 4.573.601 8.78.653 12.961.026 1.489-.601 3.005-1.019 4.468-.235.889-.888 1.385-1.855 1.542-2.038.34-4.075.81-6.269 1.254 1.959-3.789 2.429-7.787 3.03-11.733zm7.131-1.097c-.078-1.829-.47-3.632-.627-5.461-.157-1.673.313-3.214 1.097-4.704.679-1.28 1.202-2.691 1.907-4.285.157 1.489.261 2.743.444 3.972a17.36 17.36 0 0 0 3.161 7.76c1.254 1.751 1.202 3.528.392 5.331-1.411 3.188-4.075 5.226-6.948 7.343.993-3.502.731-6.742.575-9.956zm9.456.209c-2.586-3.188-4.78-6.559-5.459-10.687-.862-5.253-.209-10.191 3.422-14.503l3.343 1.986c-.549 2.744-1.463 5.278-1.489 7.813-.052 4.39 1.123 8.545 4.101 12.046 2.429 2.849 5.589 3.371 9.011 3.267 3.056-.079 5.982-.993 8.49-2.613 2.22-1.438 4.101-3.424 6.243-5.305l3.369 1.908c-2.194 6.898-10.788 11.549-16.743 11.21-2.09-.105-4.154-.314-6.243-.497-3.37-.287-5.93-2.012-8.046-4.625zm38.137-33.395c.052-.052.157-.026.444-.104l-2.09 8.44c-.104.392-.783.758-1.279.836-3.37.549-5.59 2.535-6.322 5.749-.757 3.344.523 7.003 4.415 8.1 5.276 1.49 9.194-3.397 8.489-7.891-.366-2.221-1.463-3.868-3.134-5.226-.262-.209-.575-.654-.523-.915.784-2.848 1.672-5.697 2.508-8.571.862 1.49 1.541 2.979 2.481 4.286 1.985 2.717 4.989 3.867 8.045 4.912.314.105.81.47.81.653-.261 2.3-.287 4.704-1.018 6.873-1.96 5.801-6.165 9.041-12.303 9.485-2.012.131-4.128.235-6.061-.261-1.88-.497-3.683-1.568-5.276-2.718-2.116-1.541-4.127-3.318-5.198-5.827-.523-1.228-.888-2.535-1.071-3.867-.496-3.946.705-7.552 2.664-10.923.157-.287.732-.601 1.019-.522 4.885 1.228 9.43.966 13.4-2.509zm-3.605-30.181c-1.018 1.986-1.462 3.972-1.123 6.115.052.261-.157.679-.392.836-1.123.81-2.22 1.672-3.448 2.326-1.306.679-2.664.313-3.657-.758-.992-1.046-1.358-2.3-.626-3.58.653-1.176 1.462-2.247 2.246-3.345.183-.235.575-.496.81-.444 2.168.313 4.205-.105 6.19-1.15zm.157 2.718a14.58 14.58 0 0 1 .627-1.464c.888-1.776.888-1.75 2.873-1.385 1.646.314 3.135-.209 4.781-1.254-.34 2.404.574 4.129 1.985 5.671.183.182.339.548.261.783-.758 3.188-4.571 5.305-7.601 4.234-1.803-.654-4.075-3.554-2.926-6.585zm33.357-3.084c.261-.078.757.079.914.288 1.855 2.43 2.664 5.461.313 8.048-1.906 2.09-5.093 2.247-7.209.209-.784-.758-1.411-1.698-1.985-2.639-.183-.314-.105-1.045.156-1.333 1.359-1.542 2.195-3.24 1.933-5.592 1.986 1.359 3.866 1.62 5.878 1.019zm8.541 1.542c.314-.026.784.131.967.34.809 1.071 1.645 2.142 2.246 3.318.758 1.464.47 2.639-.679 3.763-1.071 1.045-2.299 1.333-3.683.601-1.176-.627-2.246-1.463-3.317-2.247-.236-.157-.444-.575-.392-.836.444-2.248-.209-4.26-1.228-6.246a9.53 9.53 0 0 0 6.086 1.307zm-.496 32.062c1.437-.209 2.873-.418 4.31-.548.313-.027.784.235.94.496 2.482 4.103 3.474 8.545 2.273 13.222-.392 1.516-1.358 3.005-2.377 4.233-1.202 1.438-2.717 2.613-4.18 3.789-3.265 2.587-7.026 3.214-11.023 2.326-1.854-.418-3.735-.915-5.511-1.594-2.064-.784-3.318-2.509-4.571-4.285-2.273-3.162-2.508-6.742-2.795-10.374-.026-.209.287-.627.496-.68 5.041-1.359 9.012-3.919 10.814-9.25l2.482 8.466c.078.314-.235.889-.549 1.124-2.664 2.143-3.552 4.913-2.899 8.205.496 2.482 3.343 4.73 5.798 5.017 1.881.209 3.448-.34 4.885-1.411 2.508-1.881 3.056-6.48 1.149-9.12-1.358-1.855-3.003-3.24-5.407-3.449-.992-.078-1.306-.653-1.489-1.568-.47-2.325-1.097-4.599-1.645-6.924-.052-.235-.078-.471-.157-.941l2.456 1.62c2.141 1.411 4.466 1.986 7 1.646zm16.848 14.268c.052-.889.105-1.777 0-2.666-.104-.836-.392-1.646-.601-2.56.706.104 1.359.261 2.038.313s1.384 0 2.168 0c1.097 2.927 1.593 5.879.6 8.937-1.07 3.24-3.186 4.442-6.843 3.736-2.09-.392-3.892-1.437-5.407-2.978-.601-.601-1.176-1.255-1.776-1.882l1.854-3.763c.679.627 1.306 1.359 2.09 1.908a9.07 9.07 0 0 0 2.507 1.28c1.829.654 3.213-.339 3.37-2.325zm-6.269 7.551c2.194 1.464 4.702 1.908 7.288 1.385 2.507-.496 4.728-3.972 4.754-7.212 0-1.149.052-2.325-.105-3.449s-.548-2.221-.862-3.371l4.624-1.411c1.28 2.43 2.011 5.017 1.854 7.735-.156 2.639-.6 5.252-1.88 7.708-1.672 3.136-3.788 5.54-7.602 5.801-6.713.445-12.015-2.064-16.012-7.551l3.474-3.267c1.489 1.255 2.874 2.587 4.467 3.632zm4.937-10.739c.183.888.157 1.855.026 2.743-.209 1.333-1.071 1.777-2.325 1.307-1.593-.601-2.795-1.699-3.709-3.11-.261-.418-.34-.993-.366-1.515-.156-2.117-.235-4.207-.313-5.775 1.149.758 2.638 1.96 4.284 2.77 1.567.784 2.063 2.116 2.403 3.58zm-41.48 14.319c1.384 2.221 3.5 2.195 4.884-.026.81-1.332 1.332-2.848 1.985-4.285.889.575 1.96 1.228 2.978 1.933.157.105.34.419.288.601-.653 3.241-1.777 6.246-4.65 8.205-2.899 1.96-4.728 1.49-7.601-1.228-1.933-1.829-2.691-4.337-3.213-6.898-.052-.209.131-.549.313-.68l2.952-1.907c.705 1.463 1.254 2.953 2.064 4.285zm-.653-5.827c0-.784.783-1.568 1.201-2.352.705-1.385 1.358-2.796 1.855-3.789.888 1.673 2.011 3.685 3.03 5.775.209.445.157 1.15-.052 1.647-.549 1.384-1.124 2.769-1.907 3.998-.497.783-1.385.731-2.116.052-1.541-1.437-1.985-3.371-2.011-5.331zm-4.885 7.447c1.228 3.267 3.239 5.775 6.687 6.899 2.351.758 4.205-.418 5.825-1.803 2.064-1.725 3.396-3.972 3.892-6.663.104-.601.34-1.176.496-1.751 1.359.287 2.612.627 3.892.836.653.105.81.34.732.967-.34 3.266-1.463 6.141-3.527 8.727-2.455 3.058-5.407 5.253-9.299 5.958-.836.157-1.802 0-2.612-.287-6.53-2.143-10.187-6.82-11.624-13.379-.13-.549-.026-1.124-.026-1.803l4.598-1.045c.313 1.123.548 2.273.966 3.344zm4.937-35.511c-.026 1.28.078 2.613.366 3.841.261 1.15 1.671 2.038 2.716 1.96 1.306-.079 2.194-.862 2.691-2.038.679-1.647.496-3.371.13-5.07-.156-.757-.261-1.515-.418-2.351l3.083 1.933c.156.105.365.288.365.444.34 3.005.523 5.958-1.515 8.571-2.873 3.659-7.496 2.849-9.586-1.202-1.202-2.325-1.071-4.834-.679-7.316.026-.209.313-.445.548-.575l2.874-1.855c-.209 1.254-.549 2.456-.575 3.658zm1.985-4.129c.209-.784.627-1.515 1.045-2.534 1.463 3.187 2.351 6.192 1.828 9.485-.156.993-.653 1.725-1.724 1.777-1.149.052-1.671-.732-1.906-1.751-.549-2.404.156-4.677.757-6.977zm-6.008 3.084c0 1.803-.156 3.501.026 5.147.314 2.953 2.9 5.801 5.46 6.533 3.5.967 6.843-1.672 8.019-4.416.862-2.012.966-4.129.653-6.271-.052-.262 0-.549 0-.889.235-.052.313-.078.392-.078 3.213-.131 3.395.026 3.422 3.292.052 4.625-1.907 8.075-6.087 10.113-1.41.679-2.951 1.568-4.44 1.541-4.075-.078-7.314-2.038-9.639-5.461-1.828-2.691-2.037-5.644-1.306-8.727.078-.288.444-.732.705-.758.888-.105 1.777-.026 2.795-.026zm28.551 20.068c.365.941.496 1.96.731 2.953-.183 3.449-2.978 5.696-6.321 4.912-1.594-.366-2.221-1.75-2.926-2.979-1.437-2.534-.993-6.375 2.325-7.787 2.194-.94 5.146.314 6.191 2.901zm-7.236-15.469c-1.149-1.359-1.75-3.188-2.586-4.861l2.769-1.646c1.332 1.803 2.481 3.737 4.022 5.331 2.665 2.743 7.654 2.717 9.822.026 1.985-2.43 2.273-5.252 1.228-8.127-.575-1.594-1.541-3.031-2.351-4.546l2.638-1.542c4.597 3.789 4.885 10.53 1.907 14.502-1.28 1.725-2.299 3.632-4.571 4.207-4.911 1.281-9.43.68-12.878-3.344zm9.926-4.26c1.332-.705 1.855-2.012 1.123-4.102-.47-1.385-1.541-2.561-2.403-3.815-.313-.471-.731-.863-1.097-1.333 2.403-.627 4.127.052 5.329 2.012 1.332 2.143 2.168 4.364 1.567 6.977-1.123 4.834-6.295 5.095-9.169 2.848-1.88-1.463-2.951-3.475-3.813-5.618-.079-.209-.105-.496-.026-.679.522-1.045 1.097-2.091 1.593-3.031.914 1.855 1.724 3.762 2.821 5.539.94 1.516 2.769 1.908 4.075 1.202zm-.418-4.886c.314.523.575 1.097.679 1.698.157.889.079 1.934-.914 2.169-.653.157-1.698-.078-2.168-.549-1.855-1.829-2.377-4.337-3.03-6.741-.183-.706-.183-1.464-.261-2.404 2.507 1.594 4.257 3.554 5.694 5.827zm-8.777.209c-1.489 2.404-4.754 3.71-7.47 3.057-4.023-.967-6.322-3.71-6.948-7.996l2.559-.993c.601 1.255 1.124 2.613 1.855 3.815 1.332 2.221 2.899 2.692 5.59 1.934 1.672-.47 3.03-2.587 2.821-4.416-.157-1.28-.235-2.587-.366-3.972l2.665-.418c1.489 3.136 1.097 6.088-.706 8.989zm-2.873-6.193c0 .653.105 1.307.078 1.96-.026 1.698-.94 2.77-2.742 3.266-1.202.34-2.847-.392-3.527-1.646-.496-.941-.888-1.934-1.306-2.901-.261-.653-.104-1.202.235-1.907.81-1.673 1.333-3.476 1.881-4.913.94.836 2.038 2.195 3.448 2.927 1.463.758 1.933 1.751 1.933 3.214zm-12.434-.078c-3.317-.131-6.138-4.469-4.832-7.5.131-.313.627-.575.993-.705 2.089-.732 3.16-1.647 4.179-3.711.888 1.986 2.273 3.214 4.206 3.711.783.182 1.018.627 1.123 1.332.601 3.659-2.142 7.029-5.669 6.873zm6.923-9.512c-.392.314-1.098.444-1.62.366-2.481-.34-4.65-3.136-4.441-5.671.027-.182.053-.47.157-.548 1.646-1.019 1.776-2.848 2.351-4.442 1.202 1.097 2.116 2.613 3.997 2.613.182 0 .391.261.522.444 1.541 2.195 1.123 5.513-.966 7.238zm-5.538-7.996c-.183.418-.732.915-1.071.915-.366 0-.888-.523-1.097-.915-1.385-2.979-.261-5.696 1.071-8.675 1.436 3.005 2.507 5.696 1.097 8.675zm-1.75 2.117c.078.052.13.209.157.313.626 2.352-2.404 5.984-4.833 5.958-1.593-.026-3.578-3.188-3.134-4.913.209-.757.418-1.489.653-2.221.209-.601.653-.81 1.28-1.071 1.149-.523 2.115-1.437 3.16-2.195.131-.078.157-.287.314-.575.548 1.908.757 3.685 2.403 4.704zm-6.53 9.616c.235-.209.365-.497.731-.967-.078 2.456.575 4.39 1.933 6.062.157.183.183.575.104.81-.574 1.359-1.018 2.796-1.828 3.998-.888 1.333-2.377 1.542-3.944.941-1.228-.444-2.038-1.672-2.012-3.214a20.6 20.6 0 0 1 .209-2.822c.131-.81.47-1.333 1.332-1.803 1.306-.758 2.351-1.986 3.475-3.005zm-5.825 3.475c-.105 1.411-.262 2.822-.288 4.259-.052 1.96 1.071 3.606 2.691 4.129 2.507.81 4.257.366 5.485-1.62.784-1.28 1.358-2.692 2.038-4.076l2.507.94c-.496 4.442-2.873 6.794-6.347 7.892-2.847.888-5.695.078-7.601-2.378-2.247-2.875-2.822-6.089-1.15-9.538l2.665.392zm-7.132 12.125c1.124-1.777 1.933-3.763 2.874-5.592l1.593 3.005c.079.157.131.392.052.549-.94 2.351-2.142 4.494-4.231 6.062-1.463 1.097-5.015 1.463-6.635.235-1.698-1.28-2.795-3.998-2.299-6.376.444-2.143 1.542-3.946 2.926-5.618.131-.157.392-.34.575-.34l3.657-.209c-.758.915-1.463 1.673-2.064 2.535s-1.175 1.777-1.593 2.744c-.732 1.672-.262 3.318 1.071 4.102 1.306.732 3.134.392 4.074-1.097zm-.914-.68c-.601.836-1.515 1.385-2.56.758-1.044-.601-.992-1.646-.627-2.613 1.15-2.953 3.344-5.017 5.982-6.742-.052 3.188-.94 6.063-2.795 8.597zm-7.288-5.618c-1.697 2.901-2.377 5.88-.809 9.12 1.463 3.005 4.205 3.893 7.314 3.188 3.421-.784 5.25-3.267 6.634-6.219.131-.262.235-.523.366-.784.052-.105.131-.183.183-.262l2.769 1.621c-1.123 6.088-6.557 9.041-10.501 8.91-1.384-.052-2.769-.157-4.127-.392s-2.612-.836-3.396-2.012c-1.097-1.62-2.429-3.188-3.056-4.991-1.332-3.867-.757-7.578 2.116-10.74l1.045-1.149 2.821 1.646c-.444.679-.941 1.359-1.359 2.064zm11.703 23.91c1.645.026 3.526 1.411 4.075 3.057.835 2.456-.053 5.775-2.064 7.395-.418.34-1.071.706-1.541.627-1.515-.235-3.082-.496-4.441-1.123-1.567-.732-1.358-2.431-1.41-3.711.026-3.737 2.272-6.271 5.381-6.245zm-20.192 9.302c1.332-.601 2.508-1.62 3.709-2.482.262-.183.392-.523.627-.862l1.855 3.579a.91.91 0 0 1-.105.732c-1.724 1.751-3.5 3.423-5.877 4.312-3.814 1.411-7.418-.471-8.202-4.521-.522-2.718-.157-5.383.888-7.865l4.153-.314c-.235 1.098-.548 2.195-.653 3.293-.078.784 0 1.646.209 2.43.444 1.646 1.803 2.43 3.396 1.698zm4.232-5.827c-.052.575-.261 1.254-.627 1.673-.758.836-1.594 1.698-2.586 2.247-.705.392-1.959.705-2.456.339-.6-.444-.94-1.646-.914-2.482.026-1.15.261-2.456.888-3.397s1.829-1.516 2.821-2.195c1.124-.81 2.273-1.568 3.161-2.169l-.287 5.984zm-12.538-1.594l-.575 2.169c-.679 2.639-.705 5.305.313 7.839 1.724 4.233 4.911 5.07 9.535 3.476 1.227-.418 2.377-1.124 3.421-1.908.993-.758 1.777-1.803 2.665-2.744l3.657 3.397c-3.056 4.599-7.392 6.951-12.747 7.578-1.202.131-2.43.079-3.631-.026-3.657-.34-5.668-2.77-7.21-5.801-1.593-3.162-2.22-6.533-1.75-10.008.235-1.829.967-3.606 1.463-5.435l4.859 1.463zm24.031 18.344l1.411 7.238c.653 3.136.731 6.219-.497 9.276-.888 2.169-2.325 3.868-4.31 5.044-2.116 1.228-3.369.862-4.466-1.359-1.437-2.874-1.568-5.88-.418-8.911 1.201-3.188 3.5-5.618 5.668-8.1l2.612-3.188zm-24.188 20.434c2.978-1.803 6.06-3.371 9.142-4.991 1.176-.627 2.456-1.097 3.814-1.672.078 3.71-1.776 6.323-4.388 8.597-2.56 2.221-5.042 4.573-7.523 6.872-.418.392-.679.915-1.15 1.568-.653-1.777-1.332-3.423-1.854-5.096-.705-2.377-.209-3.945 1.959-5.278zm4.179 7.108c1.907-1.777 4.023-3.371 5.93-5.174 1.227-1.15 2.194-2.561 3.317-3.894.523 1.15 1.228 2.457 1.672 3.868.13.392-.392 1.097-.732 1.567-1.828 2.248-3.839 4.364-5.511 6.742-1.855 2.639-2.664 5.775-2.952 8.989-.052.653.183 1.359.288 2.038l-.314.157c-1.175-2.273-2.429-4.521-3.526-6.82-1.567-3.162-.47-5.357 1.828-7.473zm2.926 12.307c-.079-2.143.731-4.416 1.567-6.48 1.358-3.397 3.631-6.219 6.583-8.414 1.933-1.438 3.448-1.019 4.336 1.228 1.854 4.677 2.168 9.433.757 14.293-1.045 3.58-3.735 5.749-6.635 7.735-.809.549-1.75.888-2.69 1.385-2.403-2.927-3.761-6.219-3.918-9.747zm13.217 3.528c2.377-4.756 2.482-9.747 1.254-14.816-.261-1.098-.679-2.195-.836-3.319-.078-.496.105-1.228.444-1.542 1.071-.914 2.273-1.672 3.657-2.639-.679 2.561.105 4.678.862 6.794s1.62 4.207 2.246 6.376c.993 3.502.183 5.566-2.873 7.526-1.881 1.202-3.814 2.325-5.903 3.292.365-.522.836-1.045 1.149-1.672zm5.903-17.534c-.914-2.9-.653-5.592.967-8.466l6.635 9.982c1.071 1.62 1.75 3.449 1.828 5.383.026.679-.522 1.541-1.045 2.064-1.436 1.411-3.03 2.691-4.754 4.207-.078-4.913-2.298-8.911-3.631-13.17zm3.475-6.533c-1.463-1.803-2.169-3.893-2.169-6.271 0-1.306-.235-2.587-.417-4.207.339.444.496.653.626.862 1.96 3.371 4.676 5.958 8.176 7.578 2.377 1.098 3.187 2.901 3.265 5.253.131 3.161-1.07 6.01-2.377 9.015-1.541-4.73-4.127-8.571-7.104-12.23zm13.217-.496c-4.127-.941-7.915-2.744-10.997-5.67-2.926-2.744-4.885-6.167-5.642-10.139-.34-1.777-.235-3.606-.34-5.566 1.515 0 2.769-.052 4.023.052.261.026.653.575.705.915.627 6.115 3.97 10.478 8.96 13.666 3.813 2.457 7.784 2.378 11.571-.104 4.545-2.953 7.627-6.977 8.646-12.412.392-2.143.444-2.143 2.638-2.143h2.012c.783 5.644-1.045 10.269-4.493 14.346-3.37 3.998-7.915 6.036-12.852 7.186-1.332.339-2.873.183-4.231-.131zm23.561-18.788c2.037 2.456 4.205 4.86 6.138 7.421 2.795 3.685 3.84 7.761 1.959 12.203-1.41 3.345-3.395 3.371-6.295.68-3.944-3.606-4.127-8.232-3.239-13.066l1.437-7.238zm-12.695 17.847c3.971-2.038 7.288-4.703 9.587-8.963.052 4.678-.601 8.702-3.736 12.203-2.612 2.953-4.623 6.429-5.746 10.505-1.62-3.92-3.37-7.63-1.803-11.837.261-.732.967-1.516 1.698-1.908zm1.881 11.89c1.828-3.188 3.892-6.246 5.877-9.329.627-.967 1.28-1.907 1.985-2.953 2.09 3.476 1.568 6.847.314 10.27-1.045 2.874-1.933 5.827-2.795 8.753-.209.68-.131 1.438-.209 2.535-1.933-1.751-3.892-3.162-5.407-4.991-1.019-1.176-.497-3.005.235-4.285zm6.896 5.226c.522-2.091 1.41-4.103 2.011-6.167a75 75 0 0 0 1.489-5.906c.104-.522-.104-1.123-.183-1.803l3.526 2.535c.758.575.601 1.333.366 2.117-.888 3.109-1.645 6.245-1.463 9.511.131 2.744.575 5.462 1.907 7.918.34.627.81 1.202 1.123 2.038l-4.466-2.639a23.43 23.43 0 0 1-2.769-2.012c-1.802-1.464-2.064-3.502-1.541-5.592zm7 1.698c-.313-3.684.235-7.186 1.541-10.556.862-2.195 2.43-2.666 4.258-1.202 4.545 3.606 7.654 8.152 8.098 14.084.287 3.946-1.385 7.395-3.762 10.583-5.642-2.613-9.612-6.324-10.135-12.909zm11.128-7.813c-1.28-1.75-2.821-3.292-4.31-4.886-.758-.81-1.123-1.49-.47-2.587.574-.967.94-2.064 1.462-3.24.523.888.889 1.829 1.515 2.482 1.515 1.542 3.187 2.927 4.781 4.39 1.358 1.228 2.821 2.404 3.996 3.789 1.071 1.28 1.776 2.822 1.228 4.651-.941 3.031-2.638 5.644-4.389 8.571.706-5.2-1.044-9.355-3.813-13.17zm.444-7.421c-2.22-2.038-3.526-4.547-3.422-7.708 4.493 2.09 9.195 3.736 13.165 6.767 1.959 1.516 2.403 2.875 1.724 5.305-.105.392-.209.784-.366 1.176l-1.489 3.815c-2.533-3.946-6.347-6.376-9.612-9.355zm-3.735-14.581c-4.728-2.038-8.725-4.886-10.527-10.112l3.552-2.012c1.385 1.411 2.665 3.005 4.232 4.233 2.716 2.143 5.903 3.318 9.377 3.658 1.385.131 2.795.105 4.154-.052 4.597-.523 6.922-3.763 8.463-7.63 2.037-5.044 2.011-10.113-.418-15.104l3.709-2.195c1.959 2.404 3.265 5.07 3.579 8.179.365 3.685.078 7.291-1.515 10.688-1.594 3.37-3.762 6.349-6.557 8.806-2.246 1.959-5.172 2.273-7.941 2.56-3.421.34-6.896.366-10.108-1.019zm23.169-2.822c-.366-1.202-.34-2.352.444-3.501 1.776-2.587 3.082-5.409 3.552-8.545.183-1.176.262-2.378.392-3.711 2.116 4.051 3.709 7.892 2.638 12.595-.835 3.711-.731 7.63.314 11.628-3.239-2.351-6.191-4.625-7.34-8.466zm8.176 6.951c-.261-2.77-.314-5.54-.235-8.336.078-2.352.47-4.703.731-7.107 2.638 1.28 4.101 3.553 4.78 6.271.732 2.927 1.097 5.932 1.75 8.858.366 1.568.993 3.084 1.541 4.73-2.194-.444-4.466-.758-6.634-1.359-1.359-.366-1.829-1.881-1.933-3.057zm12.433 4.181c-2.559-.34-3.761-2.352-4.31-4.678-.47-2.012-.705-4.102-1.097-6.14-.47-2.352-.809-4.756-2.716-6.873 1.75.131 3.108.079 4.388.392.522.131 1.097.967 1.254 1.594 1.097 4.024 2.377 7.944 5.12 11.184 1.75 2.065 3.604 4.024 6.399 4.756l-.078.366c-2.978-.209-6.008-.235-8.96-.601zm5.277-3.293c-2.952-2.77-4.885-6.245-5.877-10.191-.288-1.097-.497-2.247-.549-3.37-.052-1.568.81-2.535 2.351-2.326 2.194.313 4.414.81 6.504 1.594 3.631 1.385 6.792 3.606 8.724 7.055 1.359 2.404 1.96 5.148 1.751 7.996-.053.81 0 1.62 0 2.535-4.807.392-9.299.078-12.904-3.293zm12.904-6.01c-1.15-3.71-4.023-5.905-7.105-7.865-2.717-1.751-5.799-2.613-8.908-3.397-.94-.235-1.462-.758-1.462-1.803-.026-1.176-.209-2.352-.366-3.789 3.422 2.77 7.497 2.456 11.232 3.371.862.209 1.776.34 2.612.627 2.717.888 4.023 2.927 4.179 5.618.157 2.456.027 4.913.027 7.369-.027-.026-.183-.052-.209-.131zm-11.598-15.469c-2.299-.366-4.336-1.202-6.112-2.665-.81-.68-1.411-1.62-2.195-2.535 2.168-.261 4.075-.627 6.008-.706 2.926-.104 5.877-.13 8.829.027 1.045.052 2.116.601 3.056 1.149 1.254.732 1.097 2.195 1.385 3.397.339 1.411.47 2.875.705 4.39-3.683-2.012-7.706-2.456-11.676-3.057zm-7.941 2.979c-.104 1.515-.862 2.299-2.403 2.378-3.631.183-6.504-1.281-8.803-3.998-2.194-2.561-3.108-5.723-4.179-8.806-.47-1.385-1.019-2.77-1.567-4.312 3.839 1.568 7.757 2.822 11.336 4.73 3.788 2.064 5.877 5.461 5.616 10.008zm5.538-34.702c.339 1.777.209 3.659.052 5.462-.287 3.501-2.769 5.304-5.564 6.767-3.134 1.647-6.504 2.248-10.004 1.803-1.855-.235-3.657-.966-5.538-1.489l1.385-4.599c2.115.235 4.153.575 6.216.706 2.534.156 4.754-.784 6.609-2.483 1.515-1.385 1.515-3.292 1.358-5.121-.235-2.796-1.489-5.174-3.526-7.108l-1.698-1.62 3.344-3.606c4.179 2.665 6.451 6.585 7.366 11.288zm-7.027-.81c1.385 4.756-.157 7.5-5.485 8.336-2.429.366-4.336-.078-6.922-1.071 0-.654.026-1.359 0-2.039-.053-.679-.183-1.358-.262-1.881 1.672.131 3.318.418 4.963.392 2.273-.026 3.396-1.725 2.43-3.789-.732-1.542-1.855-2.927-2.821-4.364l3.5-1.698c1.933 1.672 3.84 3.501 4.597 6.114zm-9.168 2.587c-1.15-.157-2.351-.392-3.422-.862-.627-.288-1.097-1.019-1.515-1.646-1.071-1.568-2.064-3.188-2.873-4.416l5.668.261c1.985.052 4.884 3.005 4.832 4.991-.026 1.071-1.254 1.881-2.69 1.672zm-4.467 2.352c.235 1.359-.026 2.874-.34 4.233-.653 2.77-1.671 5.435-3.343 7.761-1.776 2.482-4.441 3.711-7.209 4.625a31.04 31.04 0 0 1-5.12 1.228c-1.959.314-3.788-.392-5.564-1.202-3.396-1.594-5.825-4.181-7.706-7.369-.444-.757-.418-1.149.183-1.777 1.985-2.09 3.762-4.416 4.206-7.342.261-1.751.052-3.58.052-5.644l6.373 6.036c.497.47.418.914.157 1.515-2.037 4.547.888 10.348 6.974 10.505 3.031.078 6.87-4.155 5.93-7.761-1.123-4.416-5.459-6.533-8.933-5.775-.523.105-1.071.235-1.515.523-.575.366-.993.235-1.385-.183l-5.955-6.272c1.619 0 3.082.157 4.518-.052 1.359-.183 2.769-.522 3.945-1.176 1.698-.967 3.187-2.273 4.78-3.397.261-.183.784-.261 1.045-.13 4.649 2.56 7.967 6.271 8.907 11.654zm-13.139-.052c2.821-.053 6.243 3.423 6.217 6.297-.026 1.882-2.847 4.651-4.728 4.625-2.873-.026-6.217-3.397-6.165-6.219.053-2.325 2.377-4.677 4.676-4.703zm1.149-11.158c-3.369 2.77-7.157 4.129-11.414 2.718-1.829-.601-3.448-1.934-5.199-2.979l1.646-2.849c2.011.863 3.997 1.96 6.112 2.561 3.605 1.045 7.993-1.463 8.49-4.625.522-3.371-.549-6.167-3.291-8.205-1.228-.915-2.639-1.62-3.997-2.43l1.567-2.692c5.773 1.046 8.986 6.141 8.908 10.531-.027 1.359-.131 2.744-.366 4.103-.261 1.62-1.202 2.822-2.456 3.867zm-8.593-14.79c2.977 1.28 5.929 2.665 6.948 6.088 1.175 3.972-1.097 6.794-4.937 7.186-3.056.314-5.433-1.228-7.68-3.005-.13-.104-.235-.339-.261-.522-.078-1.15-.104-2.274-.183-3.58 1.359 1.045 2.508 2.012 3.762 2.848.653.444 1.463.81 2.246.941 1.829.313 3.03-.34 3.605-1.829.444-1.124-.079-2.796-1.411-3.633s-2.821-1.437-4.257-2.142c-.471-.209-.967-.366-1.489-.575l3.317-1.777c.078 0 .235-.026.34 0zm-6.087 4.338c-.444-.497-.835-1.072-1.358-1.777 3.37.078 6.243 1.071 8.829 2.874.758.523 1.254 1.307.967 2.326-.314 1.071-1.437 1.489-2.874.914-2.272-.914-3.97-2.587-5.564-4.337zm-1.41 1.541c.575 2.483.705 4.887-.993 7.134-3.657 4.834-10.291 3.449-13.217-.418-.157-.209-.052-.732.131-.993.365-.549.836-.993 1.332-1.568.966.732 1.881 1.49 2.873 2.143 2.064 1.385 4.023 1.176 5.721-.261 2.246-1.934 1.88-4.417.783-6.037-.679-1.019-1.462-1.959-2.194-2.952l2.09-1.803c1.593 1.228 3.004 2.665 3.474 4.755zm-9.587-3.397c-.6-.209-1.279-.313-1.854-.574-2.194-.993-2.011-1.02-1.933-3.371.052-1.464-.496-2.979-.784-4.495 1.959.261 3.683-.705 5.277-2.116.183-.157.601-.262.81-.157 2.612 1.15 5.015 3.449 4.283 6.977-.391 2.012-3.735 4.468-5.799 3.736zm-14.053-7.656c.105.444.131.889.105 1.333-.079.862-.679 1.228-1.437.784-.679-.418-1.463-.889-1.881-1.542-1.227-1.908-2.037-3.998-1.802-6.611 2.403 1.646 4.388 3.266 5.015 6.036zm3.318-2.691c-2.351-.288-3.945-1.803-5.407-3.502-.366-.418-.627-.941-1.124-1.646 3.187.026 5.852.679 7.758 3.083.314.392.601 1.307.418 1.464-.365.392-1.097.679-1.645.601zm-15.49-4.991c-1.593 2.378-3.317 4.337-6.138 4.938-.392.079-.836.157-1.228.053-.705-.183-1.228-.628-.732-1.438.392-.653.836-1.332 1.411-1.829 1.358-1.176 4.676-2.038 6.687-1.724zm.235 2.848c.418-.366.94-.653 1.698-1.176-.026 3.266-.705 5.958-3.187 7.865-.366.288-1.201.523-1.384.314-.366-.366-.653-1.071-.575-1.568.235-2.352 1.724-3.998 3.448-5.435zm-12.407 4.076c-1.359 1.908-1.568 3.815-1.019 5.854.078.261-.105.731-.314.888-2.847 2.012-5.485 2.613-8.097.183-1.985-1.829-2.142-4.913-.209-7.029.784-.863 1.802-1.542 2.821-2.143.287-.183 1.019-.026 1.332.235 2.09 1.699 2.769 1.96 5.486 2.012zm-8.96 8.832c-.705.941-1.489 1.856-2.116 2.849-2.089 3.292-.757 5.487 1.933 7.081 1.228.732 2.743.444 3.997-.366 1.123-.731 2.194-1.568 3.343-2.378a67.59 67.59 0 0 0 1.698 2.012c-1.358 2.692-5.12 4.39-8.62 3.998-2.638-.287-5.773-3.214-6.138-5.827-.47-3.684.496-6.82 3.84-9.093.679.549 1.358 1.123 2.063 1.724zm-11.807 5.41c-1.567.888-3.108.705-3.657-.314-.496-.941.079-2.195 1.62-3.057 2.481-1.385 5.094-2.404 8.097-2.352-1.593 2.43-3.604 4.338-6.06 5.723zm2.168-6.612c-1.802.889-3.735 1.699-5.511 2.77-1.358.81-1.881 2.483-1.489 3.58.653 1.751 2.403 2.587 4.232 1.725 1.436-.653 2.69-1.673 4.022-2.561.47-.314.862-.679 1.411-1.124l-.183 3.711c0 .157-.078.34-.209.418-2.534 1.986-5.172 3.606-8.646 2.901-5.068-1.02-5.224-6.559-2.821-9.381 1.489-1.751 3.396-2.796 5.459-3.633.209-.078.549-.078.758.027l2.977 1.567zm-9.795 1.072c-2.508 2.352-2.873 6.663-.862 9.093 1.907 2.274 4.519 3.11 7.314 2.43 2.142-.522 4.101-1.672 6.191-2.56l1.462 2.456c-3.735 4.573-10.579 4.912-14.601 1.855-1.672-1.28-3.553-2.299-4.101-4.52-1.306-5.227-.679-9.277 3.474-12.987 1.28-1.15 3.134-1.673 4.78-2.483a41.83 41.83 0 0 0 .914 1.699c.261.444.575.888.705 1.045-1.776 1.333-3.683 2.482-5.276 3.972zm-4.049 11.889c1.672 1.725 3.631 3.214 5.93 3.815 2.168.575 4.493.549 6.843.81l-5.851 6.141c-.209.209-.836.261-1.149.131-4.467-1.96-10.318.261-10.762 6.82-.157 2.169 1.254 3.972 3.135 5.121 2.586 1.568 5.929 1.176 8.071-.731 2.194-1.96 3.344-5.697 1.855-8.78-.288-.601-.235-.993.156-1.385l6.296-5.958c0 1.646-.105 3.136.026 4.599.104 1.15.313 2.43.888 3.397 1.019 1.751 2.272 3.397 3.526 4.991.47.601.575.967.131 1.568-.993 1.306-1.803 2.744-2.9 3.946-2.377 2.587-5.355 4.207-8.829 4.729-1.28.209-2.716-.026-4.022-.365-2.743-.706-5.407-1.699-7.732-3.345-2.481-1.777-3.709-4.442-4.65-7.186-.575-1.646-.94-3.371-1.254-5.096-.34-2.012.392-3.867 1.254-5.67 1.593-3.397 4.179-5.801 7.366-7.682.705-.471 1.097-.471 1.671.13zm5.642 12.36c2.038 1.594 2.404 3.92 1.124 6.35-.993 1.881-2.691 2.874-4.624 3.397-.731.183-1.776-.026-2.403-.444-1.41-.993-2.847-2.091-3.082-4.129.444-2.378 1.567-4.364 3.813-5.514 1.751-.914 3.527-.966 5.172.34zm-15.333-5.879c-.549.94-1.149 1.803-2.325 1.933-1.28.157-2.56.445-3.814.392-1.332-.078-1.802-1.045-1.384-2.273a6.12 6.12 0 0 1 5.668-4.181c1.698-.026 3.396-.209 4.676-.287-.836 1.28-1.881 2.822-2.821 4.416zm-5.903-4.416c-.81 1.019-1.698 2.012-2.429 3.109-.81 1.202-1.332 2.587-.418 3.92.862 1.254 2.377 1.202 3.709 1.149 1.149-.052 2.299-.418 3.5-.653l-.287 4.155c-2.821 1.019-5.773 1.62-8.724.601-4.101-1.437-4.832-3.841-3.5-8.231.757-2.483 2.638-4.181 4.467-5.827l3.683 1.777zm-8.306 1.803c-1.123 1.724-1.672 3.71-1.62 5.827.078 3.318 2.534 5.252 5.851 5.984 2.821.627 5.616.261 8.385-.81l1.437 4.729c-2.743 1.228-5.485 2.065-8.541 1.751-3.37-.34-6.452-1.202-9.221-3.266-3.056-2.274-3.944-5.331-3.474-8.859.287-2.09.862-4.154 1.541-6.14 1.071-3.084 3.37-5.253 6.008-7.16l3.213 3.475c-1.202 1.464-2.534 2.875-3.579 4.469zm18.729 59.865h0 0zm-.052.052l-.47 6.481c-.026.261-.078.653-.235.731-1.437.68-2.873 1.307-4.545 2.038l-.392-4.625c-.026-.235.078-.601.235-.731 1.776-1.333 3.605-2.613 5.407-3.894zm-11.363 5.54c1.489-.235 2.952-.575 4.388-.862l.966 5.957 5.564-2.195 1.724 5.2-11.546 4.312-1.358-7.787-.522-3.371c-.052-.627-.026-1.123.784-1.254zm3.03 12.882c3.37-1.123 6.687-2.456 10.135-3.736l3.057 5.67-20.009 6.115-4.702-20.435h6.452l1.855 10.583c.548 3.031.287 2.77 3.213 1.803zm-11.754 16.593l-7.314-29.109h6.295l3.161 13.483 1.567 7.317c.183.94.601 1.202 1.541.888l16.535-5.148c.81-.261 1.724-.313 2.482-.679 1.202-.575 1.829-.026 2.351.941l2.247 4.076-28.864 8.231zm46.522.915l-8.098 4.599-5.407-9.172-7.993-13.274c-1.254-2.195-2.246-4.547-3.239-6.873-1.619-3.815-1.463-7.734-.105-11.523.914-2.587 2.377-4.991 3.605-7.526l3.03.941c-.679 1.489-1.463 2.848-1.933 4.285-1.776 5.252-1.698 10.452.444 15.652 2.534 6.193 6.008 11.811 9.482 17.456.941 1.515 1.959 3.005 2.821 4.573.392.679.679.757 1.332.365l14.916-8.283a40.91 40.91 0 0 0 10.187-7.865c1.985-2.117 3.213-4.626 4.049-7.474.705-2.378 1.306-4.703 1.097-7.421l2.847.706c.81 5.748-.052 11.079-3.553 15.73-2.115 2.77-4.989 4.73-8.019 6.428l-15.463 8.676zm28.916-.183l7.862-9.329 5.433 3.371-14.262 15.287-14.262-15.287 5.459-3.423 6.06 7.395c.627.758 1.254 1.516 1.959 2.221.653.68 1.202.418 1.751-.235zm-.967-.444l-7.862-9.538 4.074-3.658 2.848 3.554c.653.836 1.253.783 1.88-.027l2.821-3.553 4.075 3.658-7.836 9.564zm-.026-10.061l-2.743-3.867c-.13-.183-.104-.549-.026-.758l2.795-6.036 2.899 6.637-2.925 4.024zm11.232 18.135l-10.187 10.531c-.627.653-1.176.914-1.907.157l-9.325-9.512-10.658-11.262c1.698-.967 3.213-1.856 4.78-2.64.314-.156.993 0 1.254.262l13.453 14.528c1.28 1.385 1.462 1.385 2.742 0l9.273-10.034c1.332-1.437 2.691-2.848 3.971-4.337.522-.628 1.018-.732 1.698-.34l4.545 2.613-9.639 10.034zm32.364-15.548l-7.601 12.674-17.501-9.93c-3.213-1.829-6.452-3.58-9.561-5.566-5.146-3.292-7.601-8.309-8.358-14.241-.131-1.071.13-2.195.182-3.292.027-.732-.365-1.882-.052-2.091.81-.523 1.881-.653 2.952-.941.078 1.307.052 2.483.235 3.659.94 6.558 4.284 11.68 9.665 15.443 2.821 1.96 5.746 3.763 8.698 5.54 2.429 1.463 4.937 2.769 7.418 4.128 1.463.81 2.926 1.594 4.441 2.3.287.13.966-.052 1.097-.314l11.023-18.84c1.855-3.397 3.082-7.186 3.161-11.132.026-1.672-.523-3.371-.706-5.069-.287-2.509-1.227-4.73-2.742-6.977l2.951-.888c3.004 4.128 5.042 8.571 4.859 13.823-.078 2.691-.784 5.226-2.037 7.525-2.613 4.782-5.355 9.486-8.124 14.189zm10.762-27.829l2.821 2.195c.679.523 1.384 1.019 2.142 1.411.574.314.862.627.783 1.307-.182 1.359-.313 2.717-.496 4.311l-4.388-1.959c-.183-.079-.288-.445-.314-.706l-.548-6.559zm11.258 18.135l2.246-12.151h6.374l-4.702 20.487-20.009-6.115 3.057-5.697 7.47 2.849c1.463.548 2.952 1.019 4.441 1.463.705.209.992-.104 1.123-.836zm16.169-12.255l-7.288 29.083c-9.691-2.822-19.356-5.043-28.838-8.414l2.978-5.174c1.672.444 3.239.784 4.728 1.254l15.229 4.782c1.802.575 1.776.549 2.194-1.359l3.213-13.979 1.227-5.253c.131-.653.392-.993 1.124-.993 1.698.079 3.395.053 5.433.053zm-15.882-.288c.261.052.627.601.601.836l-1.855 11.524-11.545-4.312 1.646-5.226 5.616 2.221.94-5.957c1.489.287 3.056.548 4.597.914zm32.704-16.776l-.183 12.804c0 .993.183 2.012.287 2.953-5.119 0-10.239-.052-15.333.026-3.082.052-6.19.471-9.273.34-4.545-.183-9.247.104-13.504-1.986-3.553-1.751-6.557-4.181-8.359-7.865-.601-1.202-1.332-2.352-1.959-3.423l2.063-2.274c.967 1.359 1.724 2.796 2.795 3.92 2.926 3.057 6.113 5.748 10.449 6.741 4.571 1.072 9.168 1.438 13.844 1.385l13.322-.183c.6 0 1.227-.104 1.828-.235.209-.052.47-.313.523-.548.13-.523.156-1.046.182-1.594l.183-16.881c-.052-4.468-.574-8.884-2.194-13.065-.888-2.274-2.142-4.312-4.101-5.88-.705-.574-1.175-1.463-1.881-2.064-1.175-.941-2.429-1.751-3.813-2.717l2.455-2.143c2.142 1.463 4.65 2.848 6.792 4.677 3.265 2.822 5.198 6.481 5.72 10.844.444 3.659.627 7.317.261 11.001-.235 2.065-.078 4.129-.104 6.167zm13.295-18.291l-6.269 1.202c-1.515.261-3.082.418-4.597.705-.914.157-1.437.131-1.541-1.045-.131-1.359-.575-2.717-.888-4.076l5.903-.967c-.418-1.176-.679-2.064-1.019-2.927s-.757-1.724-1.175-2.665l5.276-1.725 4.31 11.498zm-3.186-11.994l5.616-3.031 6.112 20.016-20.322 4.703-.34-6.428 9.874-1.646c.731-.131 1.437-.392 2.168-.47 1.149-.105 1.384-.628 1.019-1.647l-4.127-11.497zm-7.993 2.299c.209.026.47.209.548.392.653 1.385 1.254 2.822 1.959 4.39l-4.101.392c-.757.079-1.201-.183-1.645-.862-1.019-1.516-2.195-2.927-3.318-4.39-.104-.157-.183-.34-.235-.418l6.792.496zm28.21 19.651l-29.046 7.29.026-5.566c0-.313.418-.81.705-.862l19.591-4.521c1.645-.366 1.724-.418 1.201-2.09l-5.198-16.75c-.261-.862-.574-1.725-.653-2.613-.026-.444.366-1.071.758-1.333 1.28-.836 2.612-1.515 4.179-2.404 3.422 9.46 5.616 19.154 8.437 28.849zm-25.442-70.423c-1.593-.287-3.239-.418-4.963-.627.157-.731.288-1.567.549-2.351.078-.262.549-.523.836-.549 1.306-.079 2.638-.209 3.892-.026 2.116.313 4.258.705 6.321 1.332 4.806 1.49 7.889 5.07 10.292 9.198 3.317 5.697 6.452 11.524 9.691 17.273l4.362 7.63-9.299 5.513-13.165 7.944c-3.37 1.96-6.87 3.685-10.814 4.207-2.534.314-5.042.052-7.366-.862-2.612-1.019-5.068-2.378-7.68-3.606l.914-3.057c.288.104.601.104.784.261 2.22 1.751 4.963 2.09 7.575 2.665 3.918.863 7.68.052 11.389-1.385 6.582-2.534 12.46-6.376 18.441-10.008l3.814-2.404c.548-.339.757-.549.366-1.228-1.672-3.005-3.161-6.088-4.885-9.067-2.011-3.528-4.023-7.056-6.321-10.4-1.986-2.901-4.232-5.697-7.34-7.526-1.568-.914-3.344-1.463-5.016-2.143-.731-.261-1.541-.627-2.377-.784zm-6.791 4.103c.862-1.751 2.69-2.09 4.336-2.012 2.064.078 4.101.601 6.112 1.071 1.019.235 1.959.758 2.691 1.046-2.586 1.437-5.277 2.822-7.863 4.416-1.645.993-3.108 2.273-4.649 3.397-1.62 1.175-3.448 1.62-5.433 1.672-1.332.052-2.639.235-3.971.366 4.023-2.43 6.766-5.853 8.777-9.956zm7.183 4.599c2.221-1.437 4.467-2.874 7.262-3.11 1.097-.078 1.776.288 2.429 1.02l4.153 4.755c-4.231.105-7.758 1.62-11.336 3.058-2.325.914-4.702 1.411-7.183.914-1.045-.209-2.038-.758-3.109-1.15 2.691-1.907 5.172-3.789 7.784-5.487zm-5.459 9.564c.914.941 1.619 2.09 2.299 3.24.653 1.071.182 1.986-.706 2.665-2.481 1.882-5.276 2.248-8.254 1.673-3.161-.627-5.616-2.561-8.019-4.547-1.724-1.411-3.344-2.927-4.911-4.312 3.109-.574 6.348-1.411 9.639-1.75 3.631-.392 7.209.183 9.952 3.031zm-40.566-21.035c.104-.288.444-.758.679-.732 1.437.078 2.847.261 4.258.392 3.187.314 5.746 2.012 8.176 3.92 1.645 1.306 2.507 3.161 3.03 5.095.522 1.96.836 3.998 1.071 6.01.392 3.371-.915 6.271-2.926 8.858-1.724 2.221-3.5 4.39-6.138 5.566-1.123.523-2.377.862-3.605 1.019-4.075.523-7.784-.679-11.232-2.743-.261-.157-.366-.81-.34-1.229.157-2.012.523-4.024.523-6.036 0-2.247-1.045-4.181-2.325-5.984l-1.123-1.594 8.777 2.195c.339.105.679.784.731 1.228.522 3.319 2.455 5.592 5.616 6.324 4.362 1.019 8.568-1.28 8.463-6.689-.052-3.214-2.09-4.835-4.493-5.828s-5.015-.574-7.209 1.124c-.314.261-.758.47-.914.81-.732 1.62-1.803 1.385-3.187.889-2.273-.784-4.623-1.359-7.262-2.117.653-.287 1.019-.47 1.411-.601 4.545-1.725 6.582-5.54 8.019-9.877zm4.414 11.053c2.56-.497 5.825.679 6.923 2.508 1.123 1.882.287 3.659-.445 5.383-.757 1.803-2.481 1.777-4.101 1.777-2.977 0-5.276-1.568-5.929-3.998-.679-2.508 1.019-5.174 3.552-5.67zm-30.796-9.276c.104-.236.261-.549.418-.889.783-1.777.757-1.672 2.716-1.176 3.083.732 6.452 5.07 5.982 8.257-.34 2.3-1.071 4.312-3.135 5.645-2.925 1.881-5.72 2.142-9.037.757l.391-2.691c1.411.105 2.821.261 4.232.287 2.011.053 3.683-1.097 4.179-2.769.732-2.535.262-4.26-1.724-5.462-1.227-.757-2.612-1.306-4.022-1.959zm-.993 1.358c.131-.104.418-.13.575-.052 1.489.653 3.082 1.15 4.362 2.09 1.254.915 1.411 2.431.679 3.894-.653 1.307-1.802 1.881-3.213 1.829-1.018-.026-2.037-.157-3.03-.287-.705-.105-1.097-.445-1.489-1.176-.731-1.281-1.854-2.326-2.847-3.449-.261-.288-.627-.471-1.201-.863 2.481 0 4.492-.496 6.164-1.986zm-14.758-3.71c.104-.157.444-.209.653-.209 2.56-.131 5.198 1.933 5.616 4.416.235 1.437-.81 2.143-1.776 2.796-1.594 1.097-4.363.967-5.904-.209-.156-.105-.339-.262-.392-.418-.888-2.404-.888-2.404-2.638-4.077 1.672-.548 3.422-.705 4.441-2.299zm-37.667 4.181c.392-2.483 3.03-4.547 5.616-4.416.235 0 .575.078.653.209 1.019 1.62 2.769 1.75 4.441 2.273-1.202 1.254-2.664 2.169-2.664 4.076 0 .183-.288.366-.471.497-2.22 1.515-5.642 1.045-7.235-1.072-.314-.339-.418-1.045-.34-1.567zm-7.523.156c1.411.863 3.135 1.15 4.754 1.699-1.854.915-3.16 2.535-3.944 4.547-.052.13-.209.287-.339.339-1.855.471-3.736.993-5.616.157-1.333-.575-1.829-1.751-1.855-3.083-.052-1.281.731-2.221 1.776-2.901.575-.366 1.28-.549 1.881-.888 1.149-.601 2.09-.653 3.343.13zm-5.746-3.841c2.716-1.045 2.742-.993 3.709 1.882-1.332.627-2.717 1.176-3.944 1.933-2.064 1.281-2.534 3.031-1.724 5.566.548 1.673 2.168 2.744 4.257 2.692 1.385-.027 2.743-.183 4.128-.288l.417 2.718c-1.697.653-3.5 1.202-5.38.731-2.691-.679-5.016-1.855-6.217-4.677-2.012-4.73 1.306-9.224 4.754-10.557zm-39.809 14.163c.314-2.326.862-4.651 1.593-6.898.784-2.378 2.664-3.868 4.728-5.279 3.135-2.116 6.635-2.404 10.187-2.665.209-.026.601.418.679.731 1.071 3.136 2.246 6.22 5.067 8.232 1.254.888 2.691 1.515 4.18 2.351l-6.687 1.96c-.313.105-.653.131-.94.262-.966.496-1.62.391-2.299-.601-2.22-3.215-7.993-3.816-11.18-.601-2.925 2.952-2.037 7.734.627 9.642 2.481 1.777 6.191 2.273 9.168-.549 1.358-1.28 2.325-2.744 2.482-4.651.078-.915.548-1.255 1.437-1.437 2.638-.575 5.224-1.281 7.94-1.986-.888 1.515-1.75 2.822-2.455 4.207-1.149 2.247-.993 4.677-.758 7.107 0 .079.052.157.078.235.653 3.188.653 3.188-2.351 4.547-3.396 1.516-6.87 1.96-10.553 1.15-2.873-.627-4.832-2.509-6.687-4.573-.81-.915-1.515-1.934-2.22-2.927-1.776-2.456-2.429-5.278-2.038-8.257zm16.456 1.908c-.183 1.986-1.384 3.318-3.108 4.102-.94.418-2.011.549-3.03.81-3.474-.183-5.616-2.796-4.963-6.219.313-1.646 1.724-2.352 3.004-3.031 1.881-1.019 3.866-1.124 5.747-.052 1.672.94 2.534 2.456 2.351 4.39zm-25.363 2.796l5.224.993c-2.429 2.012-4.859 4.18-7.445 6.166-3.422 2.666-7.288 3.685-11.545 2.3-.914-.288-1.75-.889-2.508-1.49-.705-.548-.993-1.332-.601-2.299 1.489-3.789 4.493-5.566 8.28-6.324 2.926-.601 5.747.157 8.594.654zm-22.151-1.464c-3.004-1.071-6.06-1.986-9.09-2.926-.679-.209-1.463-.183-2.403-.288l3.709-4.52c1.541-1.882 3.605-1.516 5.224-.654 3.239 1.725 6.269 3.842 9.351 5.801 1.019.654 2.011 1.385 3.082 2.117-3.213 1.986-6.478 1.672-9.874.47zm6.374-12.333c1.41.287 2.56.862 3.239 2.273 1.933 3.972 4.65 7.238 8.881 9.459-.522.079-.758.131-.993.131l-4.023-.392c-2.064-.183-3.918-.915-5.512-2.221-3.631-3.005-7.497-5.54-12.094-7.108 3.422-1.463 6.739-2.9 10.501-2.142zm-25.651 13.509c1.985-3.528 3.97-7.081 6.112-10.531 3.291-5.304 8.333-7.969 14.393-8.753 1.724-.235 3.5-.053 5.25 0 .183 0 .444.235.496.418.235.862.418 1.724.601 2.534-1.541.183-3.004.236-4.467.523-5.616 1.045-10.135 3.815-13.661 8.388-3.578 4.625-6.373 9.721-9.195 14.816l-3.631 6.794c-.339.601-.261.889.34 1.254l7.81 4.861c3.526 2.064 7.079 4.154 10.736 5.984 3.526 1.75 7.209 3.161 11.232 3.24 1.62.026 3.239-.288 4.832-.549 1.28-.209 2.56-.523 3.788-.967 1.202-.444 2.325-1.123 3.631-1.751l.862 2.901c-2.847 1.437-5.355 3.449-8.646 4.207-4.493 1.019-8.724.575-12.747-1.489-2.978-1.516-5.851-3.293-8.75-4.991l-12.59-7.474c-1.881-1.123-3.84-2.142-5.538-3.109l9.142-16.306z"/></svg>