<svg width="52" height="49" viewBox="0 0 52 49" fill="none" xmlns="http://www.w3.org/2000/svg">
<path d="M9.686 23.964C8.004 23.964 6.583 23.7127 5.423 23.21C4.263 22.7073 3.364 21.992 2.726 21.064C2.088 20.136 1.72067 19.0533 1.624 17.816L6.09 17.613C6.264 18.5023 6.65067 19.1693 7.25 19.614C7.86867 20.0393 8.68067 20.252 9.686 20.252C10.8073 20.252 11.687 19.933 12.325 19.295C12.9823 18.657 13.311 17.7773 13.311 16.656C13.311 15.9213 13.1563 15.2833 12.847 14.742C12.557 14.2007 12.1413 13.7753 11.6 13.466C11.0587 13.1567 10.411 13.002 9.657 13.002C8.82567 13.002 8.11033 13.1857 7.511 13.553C6.91167 13.9203 6.496 14.3843 6.264 14.945H1.856L3.277 2.91H16.414V6.622H7.018L6.264 12.625L5.771 12.19C6.09967 11.6873 6.50567 11.262 6.989 10.914C7.49167 10.5467 8.07167 10.2663 8.729 10.073C9.38633 9.86033 10.1113 9.754 10.904 9.754C12.3347 9.754 13.5623 10.0537 14.587 10.653C15.631 11.2523 16.4333 12.074 16.994 13.118C17.5547 14.162 17.835 15.3413 17.835 16.656C17.835 18.1447 17.4967 19.44 16.82 20.542C16.1433 21.644 15.196 22.4947 13.978 23.094C12.76 23.674 11.3293 23.964 9.686 23.964Z" fill="url(#paint0_linear_1298_2449)"/>
<path d="M21.9288 22.37L26.9608 7.75H28.6948L23.6798 22.37H21.9288Z" fill="#6D591D"/>
<path d="M35.628 20.772C34.234 20.772 33.1573 20.449 32.398 19.803C31.65 19.157 31.2477 18.307 31.191 17.253L33.078 17.151C33.146 17.8423 33.4067 18.341 33.86 18.647C34.3247 18.9417 34.914 19.089 35.628 19.089C36.104 19.089 36.5403 19.0267 36.937 18.902C37.345 18.766 37.668 18.5507 37.906 18.256C38.1553 17.95 38.28 17.5533 38.28 17.066C38.28 16.3407 38.0363 15.808 37.549 15.468C37.0617 15.1167 36.4157 14.941 35.611 14.941H34.608V13.343H35.611C36.257 13.343 36.7953 13.2127 37.226 12.952C37.6567 12.6913 37.872 12.238 37.872 11.592C37.872 11.0253 37.6907 10.5947 37.328 10.3C36.9653 9.994 36.41 9.841 35.662 9.841C34.9367 9.841 34.387 9.98267 34.013 10.266C33.639 10.5493 33.418 10.9347 33.35 11.422L31.463 11.32C31.5763 10.368 31.99 9.603 32.704 9.025C33.4293 8.447 34.4153 8.158 35.662 8.158C36.5233 8.158 37.26 8.294 37.872 8.566C38.484 8.82667 38.9543 9.20633 39.283 9.705C39.6117 10.2037 39.776 10.7873 39.776 11.456C39.776 12.1927 39.538 12.7933 39.062 13.258C38.5973 13.7227 37.9117 14.04 37.005 14.21V13.904C37.991 14.0287 38.7673 14.38 39.334 14.958C39.9007 15.5247 40.184 16.25 40.184 17.134C40.184 17.8933 39.9913 18.5507 39.606 19.106C39.2207 19.65 38.688 20.0637 38.008 20.347C37.328 20.6303 36.5347 20.772 35.628 20.772ZM46.253 20.772C44.859 20.772 43.7823 20.449 43.023 19.803C42.275 19.157 41.8727 18.307 41.816 17.253L43.703 17.151C43.771 17.8423 44.0317 18.341 44.485 18.647C44.9497 18.9417 45.539 19.089 46.253 19.089C46.729 19.089 47.1653 19.0267 47.562 18.902C47.97 18.766 48.293 18.5507 48.531 18.256C48.7803 17.95 48.905 17.5533 48.905 17.066C48.905 16.3407 48.6613 15.808 48.174 15.468C47.6867 15.1167 47.0407 14.941 46.236 14.941H45.233V13.343H46.236C46.882 13.343 47.4203 13.2127 47.851 12.952C48.2817 12.6913 48.497 12.238 48.497 11.592C48.497 11.0253 48.3157 10.5947 47.953 10.3C47.5903 9.994 47.035 9.841 46.287 9.841C45.5617 9.841 45.012 9.98267 44.638 10.266C44.264 10.5493 44.043 10.9347 43.975 11.422L42.088 11.32C42.2013 10.368 42.615 9.603 43.329 9.025C44.0543 8.447 45.0403 8.158 46.287 8.158C47.1483 8.158 47.885 8.294 48.497 8.566C49.109 8.82667 49.5793 9.20633 49.908 9.705C50.2367 10.2037 50.401 10.7873 50.401 11.456C50.401 12.1927 50.163 12.7933 49.687 13.258C49.2223 13.7227 48.5367 14.04 47.63 14.21V13.904C48.616 14.0287 49.3923 14.38 49.959 14.958C50.5257 15.5247 50.809 16.25 50.809 17.134C50.809 17.8933 50.6163 18.5507 50.231 19.106C49.8457 19.65 49.313 20.0637 48.633 20.347C47.953 20.6303 47.1597 20.772 46.253 20.772Z" fill="#6D591D"/>
<g clip-path="url(#clip0_1298_2449)">
<path d="M1.53505 43.5V33.56H5.49705C6.20639 33.56 6.81772 33.6813 7.33105 33.924C7.84439 34.1667 8.24105 34.512 8.52106 34.96C8.80105 35.408 8.94105 35.94 8.94105 36.556C8.94105 37.004 8.83839 37.4053 8.63306 37.76C8.43706 38.1147 8.17105 38.3993 7.83505 38.614C7.50839 38.8193 7.15839 38.936 6.78506 38.964L6.71506 38.838C7.34039 38.838 7.82572 38.9827 8.17105 39.272C8.51639 39.552 8.71705 39.9953 8.77306 40.602L9.03906 43.5H7.51305L7.27505 40.798C7.24706 40.3967 7.11172 40.1027 6.86905 39.916C6.62639 39.72 6.22972 39.622 5.67906 39.622H3.04705V43.5H1.53505ZM3.04705 38.236H5.52505C6.09439 38.236 6.54239 38.096 6.86905 37.816C7.20505 37.5267 7.37305 37.1207 7.37305 36.598C7.37305 36.066 7.20505 35.66 6.86905 35.38C6.53305 35.0907 6.04305 34.946 5.39905 34.946H3.04705V38.236ZM13.7713 43.668C13.0619 43.668 12.4413 43.5093 11.9093 43.192C11.3773 42.8747 10.9666 42.422 10.6773 41.834C10.3879 41.246 10.2433 40.56 10.2433 39.776C10.2433 38.9827 10.3879 38.2967 10.6773 37.718C10.9666 37.1393 11.3773 36.6913 11.9093 36.374C12.4413 36.0473 13.0619 35.884 13.7713 35.884C14.4806 35.884 15.1013 36.0473 15.6333 36.374C16.1653 36.6913 16.5759 37.1393 16.8653 37.718C17.1546 38.2967 17.2993 38.9827 17.2993 39.776C17.2993 40.56 17.1546 41.246 16.8653 41.834C16.5759 42.422 16.1653 42.8747 15.6333 43.192C15.1013 43.5093 14.4806 43.668 13.7713 43.668ZM13.7713 42.38C14.4059 42.38 14.8959 42.1513 15.2413 41.694C15.5866 41.2273 15.7593 40.588 15.7593 39.776C15.7593 38.964 15.5866 38.3293 15.2413 37.872C14.8959 37.4053 14.4059 37.172 13.7713 37.172C13.1459 37.172 12.6559 37.4053 12.3013 37.872C11.9559 38.3293 11.7833 38.964 11.7833 39.776C11.7833 40.588 11.9559 41.2273 12.3013 41.694C12.6559 42.1513 13.1459 42.38 13.7713 42.38ZM21.249 43.668C20.5024 43.668 19.905 43.4207 19.457 42.926C19.0184 42.422 18.799 41.7267 18.799 40.84V36.052H20.283V40.462C20.283 41.134 20.3997 41.6287 20.633 41.946C20.8664 42.2633 21.221 42.422 21.697 42.422C22.2384 42.422 22.6584 42.2493 22.957 41.904C23.265 41.5493 23.419 41.0547 23.419 40.42V36.052H24.903V43.5H23.517L23.489 41.554L23.699 41.638C23.5684 42.2913 23.293 42.7953 22.873 43.15C22.453 43.4953 21.9117 43.668 21.249 43.668ZM27.0021 43.5V36.052H28.3601L28.4161 38.04L28.2341 37.942C28.3181 37.4567 28.4768 37.0647 28.7101 36.766C28.9435 36.4673 29.2281 36.248 29.5641 36.108C29.9001 35.9587 30.2641 35.884 30.6561 35.884C31.2161 35.884 31.6781 36.01 32.0421 36.262C32.4155 36.5047 32.6955 36.8407 32.8821 37.27C33.0781 37.69 33.1761 38.1707 33.1761 38.712V43.5H31.6921V39.16C31.6921 38.7213 31.6455 38.3527 31.5521 38.054C31.4588 37.7553 31.3048 37.5267 31.0901 37.368C30.8755 37.2093 30.5955 37.13 30.2501 37.13C29.7275 37.13 29.3028 37.3027 28.9761 37.648C28.6495 37.9933 28.4861 38.4973 28.4861 39.16V43.5H27.0021ZM37.7556 43.668C37.1209 43.668 36.5656 43.5093 36.0896 43.192C35.6229 42.8747 35.2636 42.4267 35.0116 41.848C34.7689 41.26 34.6476 40.5693 34.6476 39.776C34.6476 38.9827 34.7736 38.2967 35.0256 37.718C35.2776 37.13 35.6369 36.6773 36.1036 36.36C36.5702 36.0427 37.1209 35.884 37.7556 35.884C38.2689 35.884 38.7262 35.9913 39.1276 36.206C39.5289 36.4207 39.8322 36.7193 40.0376 37.102V33.56H41.5216V43.5H40.1356L40.0936 42.38C39.8882 42.7813 39.5756 43.0987 39.1556 43.332C38.7449 43.556 38.2782 43.668 37.7556 43.668ZM38.1476 42.38C38.5489 42.38 38.8896 42.2773 39.1696 42.072C39.4496 41.8667 39.6642 41.568 39.8136 41.176C39.9629 40.784 40.0376 40.3173 40.0376 39.776C40.0376 39.216 39.9629 38.7447 39.8136 38.362C39.6642 37.97 39.4496 37.676 39.1696 37.48C38.8896 37.2747 38.5489 37.172 38.1476 37.172C37.5502 37.172 37.0742 37.4053 36.7196 37.872C36.3649 38.3293 36.1876 38.964 36.1876 39.776C36.1876 40.5787 36.3649 41.2133 36.7196 41.68C37.0742 42.1467 37.5502 42.38 38.1476 42.38ZM48.6274 43.5V36.416H46.5274V35.198H47.3814C47.7548 35.198 48.0581 35.1513 48.2914 35.058C48.5248 34.9553 48.6928 34.7873 48.7954 34.554C48.8981 34.3113 48.9494 33.98 48.9494 33.56H50.1394V43.5H48.6274Z" fill="#6D591D"/>
</g>
<defs>
<linearGradient id="paint0_linear_1298_2449" x1="-1.54899" y1="5.05599" x2="15.049" y2="23.944" gradientUnits="userSpaceOnUse">
<stop stop-color="#B54708"/>
<stop offset="1" stop-color="#F5C946"/>
</linearGradient>
<clipPath id="clip0_1298_2449">
<path d="M0 38.5C0 32.9772 4.47715 28.5 10 28.5H42C47.5228 28.5 52 32.9772 52 38.5C52 44.0228 47.5228 48.5 42 48.5H10C4.47715 48.5 0 44.0228 0 38.5Z" fill="white"/>
</clipPath>
</defs>
</svg>
