<svg width="327" height="171" viewBox="0 0 327 171" fill="none" xmlns="http://www.w3.org/2000/svg">
<circle cx="163.5" cy="60.5" r="60.5" fill="url(#paint0_linear_1298_2828)"/>
<path d="M126.661 97.4286H200.71V23.3795H126.661V97.4286Z" fill="black"/>
<path d="M135.141 163.384C133.669 163.384 132.405 163.136 131.349 162.64C130.293 162.144 129.469 161.448 128.877 160.552C128.285 159.656 127.949 158.6 127.869 157.384L131.541 157.216C131.637 157.888 131.829 158.464 132.117 158.944C132.421 159.408 132.821 159.76 133.317 160C133.829 160.24 134.453 160.36 135.189 160.36C135.797 160.36 136.309 160.288 136.725 160.144C137.157 160 137.485 159.784 137.709 159.496C137.933 159.192 138.045 158.824 138.045 158.392C138.045 157.992 137.949 157.648 137.757 157.36C137.565 157.056 137.197 156.784 136.653 156.544C136.109 156.288 135.309 156.04 134.253 155.8C132.797 155.464 131.621 155.088 130.725 154.672C129.845 154.256 129.205 153.736 128.805 153.112C128.405 152.472 128.205 151.672 128.205 150.712C128.205 149.688 128.453 148.792 128.949 148.024C129.461 147.256 130.197 146.656 131.157 146.224C132.117 145.792 133.261 145.576 134.589 145.576C135.997 145.576 137.189 145.824 138.165 146.32C139.141 146.816 139.901 147.496 140.445 148.36C141.005 149.224 141.341 150.216 141.453 151.336L137.805 151.528C137.757 150.936 137.597 150.424 137.325 149.992C137.053 149.544 136.685 149.2 136.221 148.96C135.757 148.72 135.197 148.6 134.541 148.6C133.709 148.6 133.053 148.784 132.573 149.152C132.109 149.52 131.877 150 131.877 150.592C131.877 151.008 131.981 151.36 132.189 151.648C132.413 151.92 132.773 152.16 133.269 152.368C133.781 152.576 134.501 152.776 135.429 152.968C137.013 153.288 138.261 153.696 139.173 154.192C140.101 154.672 140.757 155.248 141.141 155.92C141.525 156.592 141.717 157.36 141.717 158.224C141.717 159.28 141.445 160.2 140.901 160.984C140.373 161.752 139.613 162.344 138.621 162.76C137.645 163.176 136.485 163.384 135.141 163.384ZM148.427 163.288C147.099 163.288 146.011 162.984 145.163 162.376C144.331 161.752 143.915 160.888 143.915 159.784C143.915 158.648 144.267 157.776 144.971 157.168C145.691 156.544 146.747 156.088 148.139 155.8L152.291 154.984C152.291 154.152 152.099 153.528 151.715 153.112C151.347 152.68 150.811 152.464 150.107 152.464C149.419 152.464 148.883 152.624 148.499 152.944C148.115 153.248 147.867 153.704 147.755 154.312L144.131 154.144C144.371 152.736 145.003 151.672 146.027 150.952C147.067 150.216 148.427 149.848 150.107 149.848C152.027 149.848 153.467 150.304 154.427 151.216C155.403 152.128 155.891 153.464 155.891 155.224V159.616C155.891 159.984 155.947 160.232 156.059 160.36C156.187 160.472 156.371 160.528 156.611 160.528H156.971V163C156.859 163.032 156.675 163.064 156.419 163.096C156.179 163.128 155.939 163.144 155.699 163.144C155.187 163.144 154.707 163.056 154.259 162.88C153.827 162.704 153.475 162.408 153.203 161.992C152.931 161.56 152.795 160.952 152.795 160.168L153.107 160.408C152.947 160.984 152.659 161.488 152.243 161.92C151.843 162.352 151.315 162.688 150.659 162.928C150.019 163.168 149.275 163.288 148.427 163.288ZM149.291 160.816C149.883 160.816 150.403 160.704 150.851 160.48C151.299 160.24 151.651 159.896 151.907 159.448C152.163 159 152.291 158.472 152.291 157.864V157.24L149.363 157.864C148.787 157.976 148.347 158.168 148.043 158.44C147.755 158.696 147.611 159.032 147.611 159.448C147.611 159.88 147.755 160.216 148.043 160.456C148.331 160.696 148.747 160.816 149.291 160.816ZM161.987 163C160.931 163 160.107 162.736 159.515 162.208C158.923 161.68 158.627 160.824 158.627 159.64V145.96H162.227V159.256C162.227 159.64 162.315 159.912 162.491 160.072C162.667 160.232 162.923 160.312 163.259 160.312H164.123V163H161.987ZM169.92 163.288C168.592 163.288 167.504 162.984 166.656 162.376C165.824 161.752 165.408 160.888 165.408 159.784C165.408 158.648 165.76 157.776 166.464 157.168C167.184 156.544 168.24 156.088 169.632 155.8L173.784 154.984C173.784 154.152 173.592 153.528 173.208 153.112C172.84 152.68 172.304 152.464 171.6 152.464C170.912 152.464 170.376 152.624 169.992 152.944C169.608 153.248 169.36 153.704 169.248 154.312L165.624 154.144C165.864 152.736 166.496 151.672 167.52 150.952C168.56 150.216 169.92 149.848 171.6 149.848C173.52 149.848 174.96 150.304 175.92 151.216C176.896 152.128 177.384 153.464 177.384 155.224V159.616C177.384 159.984 177.44 160.232 177.552 160.36C177.68 160.472 177.864 160.528 178.104 160.528H178.464V163C178.352 163.032 178.168 163.064 177.912 163.096C177.672 163.128 177.432 163.144 177.192 163.144C176.68 163.144 176.2 163.056 175.752 162.88C175.32 162.704 174.968 162.408 174.696 161.992C174.424 161.56 174.288 160.952 174.288 160.168L174.6 160.408C174.44 160.984 174.152 161.488 173.736 161.92C173.336 162.352 172.808 162.688 172.152 162.928C171.512 163.168 170.768 163.288 169.92 163.288ZM170.784 160.816C171.376 160.816 171.896 160.704 172.344 160.48C172.792 160.24 173.144 159.896 173.4 159.448C173.656 159 173.784 158.472 173.784 157.864V157.24L170.856 157.864C170.28 157.976 169.84 158.168 169.536 158.44C169.248 158.696 169.104 159.032 169.104 159.448C169.104 159.88 169.248 160.216 169.536 160.456C169.824 160.696 170.24 160.816 170.784 160.816ZM180.354 163V150.136H183.594L183.714 153.232L183.378 153.088C183.554 152.4 183.818 151.816 184.17 151.336C184.538 150.856 184.978 150.488 185.49 150.232C186.002 149.976 186.562 149.848 187.17 149.848C188.242 149.848 189.106 150.16 189.762 150.784C190.434 151.408 190.866 152.248 191.058 153.304L190.602 153.328C190.746 152.576 190.994 151.944 191.346 151.432C191.714 150.904 192.162 150.512 192.69 150.256C193.218 149.984 193.81 149.848 194.466 149.848C195.362 149.848 196.13 150.032 196.77 150.4C197.41 150.768 197.906 151.32 198.258 152.056C198.61 152.776 198.786 153.664 198.786 154.72V163H195.186V155.728C195.186 154.72 195.034 153.968 194.73 153.472C194.426 152.96 193.93 152.704 193.242 152.704C192.81 152.704 192.442 152.824 192.138 153.064C191.834 153.304 191.594 153.656 191.418 154.12C191.258 154.568 191.178 155.12 191.178 155.776V163H187.938V155.776C187.938 154.784 187.794 154.024 187.506 153.496C187.218 152.968 186.722 152.704 186.018 152.704C185.586 152.704 185.21 152.824 184.89 153.064C184.586 153.304 184.354 153.656 184.194 154.12C184.034 154.584 183.954 155.136 183.954 155.776V163H180.354Z" fill="black"/>
<defs>
<linearGradient id="paint0_linear_1298_2828" x1="163.5" y1="0" x2="163.5" y2="121" gradientUnits="userSpaceOnUse">
<stop stop-color="#FEFAEC"/>
<stop offset="1" stop-color="#FCEFC7"/>
</linearGradient>
</defs>
</svg>
