<svg width="279" height="88" viewBox="0 0 279 88" fill="none" xmlns="http://www.w3.org/2000/svg">
<path d="M136.54 0C138.682 7.45489 142.386 18.9505 132.618 22.2285C129.296 23.3454 122.551 23.7449 121.352 19.686H120.517C120 19.913 119.891 20.8483 119.5 21.1933C116.414 23.9537 107.472 23.7812 105.33 19.686C101.934 23.5179 94.6084 23.8902 90.1057 21.9652C88.3445 21.2115 86.3655 18.7417 85.4486 17.0527C83.8418 14.0926 83.5604 8.44465 78.404 11.314C74.2644 13.6204 76.0256 17.1254 76.9243 20.8029C74.9634 20.6758 71.4412 23.3635 70.2701 20.9936C65.3225 10.969 74.3461 2.35179 84.3956 4.05887C91.4855 5.25747 89.1706 14.5375 94.1908 15.6362C101.689 17.2797 102.016 12.7487 102.797 6.74663L109.551 7.88166C108.988 9.41623 108.153 13.8383 109.097 15.0823L114.798 15.6635C117.739 14.8008 117.313 6.54687 118.874 6.23814L124.738 7.32777C124.575 10.1881 122.514 13.9654 125.674 15.6725C127.752 15.8723 130.122 16.1538 131.783 14.6646C133.626 11.8316 128.951 2.40627 129.804 1.72525L136.531 0.0272397L136.54 0Z" fill="white"/>
<path d="M143.053 28L141.275 22.0146C145.338 21.313 152.069 17.2103 152.958 13.3384C153.933 9.11133 150.845 6.02094 150.147 2.20235L156.285 0C165.578 11.6334 157.815 26.1173 143.044 28H143.053Z" fill="white"/>
<path d="M183.096 15.0874C184.628 16.8061 188.259 16.7976 189.698 14.9011C192.035 11.8193 192.492 8.04328 196.089 5.55413C203.758 0.237186 212.679 9.73658 209.446 17.8644C206.89 24.2735 199.229 23.3422 194.142 20.5483C189.834 23.4184 184.281 23.9941 180.074 20.616C175.994 23.4269 171.28 23.5623 166.557 22.4532C165.642 22.2416 162.35 21.4627 162.553 20.2943L164.61 15.2398C167.301 16.3997 176.477 17.839 175.393 13.1232C174.776 10.4224 170.357 4.57203 170.349 3.42058C170.349 2.6078 174.149 0.0170595 174.826 0.000126549C176.528 -0.0337394 179.863 6.73945 180.591 8.42428C181.319 10.1091 182.021 13.8936 183.096 15.0959V15.0874ZM199.534 10.5663C194.836 15.2229 197.968 16.967 203.428 16.0441C205.027 14.9943 203.081 11.1674 201.472 10.5917L199.534 10.5663Z" fill="white"/>
<path opacity="0.5" d="M59.6808 58V45.93H64.0158C65.4664 45.93 66.5601 46.1907 67.2968 46.712C68.0334 47.2333 68.4018 48.0607 68.4018 49.194C68.4018 49.704 68.2941 50.1517 68.0788 50.537C67.8634 50.9223 67.5461 51.2283 67.1268 51.455C66.7188 51.6703 66.2314 51.7837 65.6648 51.795L65.6478 51.727C66.6791 51.7497 67.4781 52.033 68.0448 52.577C68.6228 53.1097 68.9118 53.8123 68.9118 54.685C68.9118 55.7843 68.5434 56.6117 67.8068 57.167C67.0701 57.7223 66.0218 58 64.6618 58H59.6808ZM61.5168 56.351H64.6108C65.3701 56.351 65.9594 56.198 66.3788 55.892C66.8094 55.5747 67.0248 55.1157 67.0248 54.515C67.0248 53.9257 66.8094 53.4667 66.3788 53.138C65.9594 52.8093 65.3701 52.645 64.6108 52.645H61.5168V56.351ZM61.5168 51.081H63.9818C64.7864 51.081 65.4098 50.928 65.8518 50.622C66.2938 50.316 66.5148 49.8853 66.5148 49.33C66.5148 48.7407 66.2994 48.3043 65.8688 48.021C65.4494 47.7263 64.8204 47.579 63.9818 47.579H61.5168V51.081ZM71.0318 58V48.956H72.6808L72.7488 51.353L72.5958 51.302C72.7205 50.486 72.9698 49.891 73.3438 49.517C73.7292 49.143 74.2448 48.956 74.8908 48.956H75.7578V50.571H74.8908C74.4375 50.571 74.0578 50.6447 73.7518 50.792C73.4458 50.9393 73.2135 51.166 73.0548 51.472C72.9075 51.778 72.8338 52.1747 72.8338 52.662V58H71.0318ZM77.2408 58V48.956H79.0428V58H77.2408ZM77.2068 47.647V45.845H79.0768V47.647H77.2068ZM81.7398 58V48.956H83.3888L83.4568 51.37L83.2358 51.251C83.3378 50.6617 83.5305 50.1857 83.8138 49.823C84.0972 49.4603 84.4428 49.194 84.8508 49.024C85.2588 48.8427 85.7008 48.752 86.1768 48.752C86.8568 48.752 87.4178 48.905 87.8598 49.211C88.3132 49.5057 88.6532 49.9137 88.8798 50.435C89.1178 50.945 89.2368 51.5287 89.2368 52.186V58H87.4348V52.73C87.4348 52.1973 87.3782 51.7497 87.2648 51.387C87.1515 51.0243 86.9645 50.7467 86.7038 50.554C86.4432 50.3613 86.1032 50.265 85.6838 50.265C85.0492 50.265 84.5335 50.4747 84.1368 50.894C83.7402 51.3133 83.5418 51.9253 83.5418 52.73V58H81.7398ZM95.2226 60.754C94.5086 60.754 93.8796 60.6463 93.3356 60.431C92.7916 60.2157 92.3439 59.9097 91.9926 59.513C91.6412 59.1277 91.4032 58.6743 91.2786 58.153L93.1486 58.034C93.2732 58.408 93.4886 58.7027 93.7946 58.918C94.1119 59.1447 94.5879 59.258 95.2226 59.258C95.9706 59.258 96.5429 59.0993 96.9396 58.782C97.3476 58.4647 97.5516 57.983 97.5516 57.337V56.028C97.3362 56.4927 96.9906 56.861 96.5146 57.133C96.0386 57.405 95.5059 57.541 94.9166 57.541C94.1572 57.541 93.4829 57.354 92.8936 56.98C92.3042 56.606 91.8452 56.0903 91.5166 55.433C91.1879 54.7757 91.0236 54.0163 91.0236 53.155C91.0236 52.2823 91.1822 51.5173 91.4996 50.86C91.8282 50.2027 92.2816 49.687 92.8596 49.313C93.4489 48.939 94.1119 48.752 94.8486 48.752C95.4946 48.752 96.0612 48.8993 96.5486 49.194C97.0472 49.4887 97.4042 49.8853 97.6196 50.384V48.956H99.3536V57.286C99.3536 58.034 99.1836 58.663 98.8436 59.173C98.5149 59.6943 98.0389 60.0853 97.4156 60.346C96.8036 60.618 96.0726 60.754 95.2226 60.754ZM95.2056 56.011C95.9082 56.011 96.4692 55.756 96.8886 55.246C97.3192 54.736 97.5402 54.0333 97.5516 53.138C97.5629 52.5487 97.4722 52.0443 97.2796 51.625C97.0869 51.1943 96.8092 50.8657 96.4466 50.639C96.0952 50.401 95.6816 50.282 95.2056 50.282C94.4689 50.282 93.8966 50.5427 93.4886 51.064C93.0919 51.574 92.8936 52.2653 92.8936 53.138C92.8936 54.022 93.0976 54.7247 93.5056 55.246C93.9249 55.756 94.4916 56.011 95.2056 56.011ZM101.695 58V48.956H103.497V58H101.695ZM101.661 47.647V45.845H103.531V47.647H101.661ZM106.194 58V48.956H107.843L107.911 51.37L107.69 51.251C107.792 50.6617 107.985 50.1857 108.268 49.823C108.551 49.4603 108.897 49.194 109.305 49.024C109.713 48.8427 110.155 48.752 110.631 48.752C111.311 48.752 111.872 48.905 112.314 49.211C112.767 49.5057 113.107 49.9137 113.334 50.435C113.572 50.945 113.691 51.5287 113.691 52.186V58H111.889V52.73C111.889 52.1973 111.832 51.7497 111.719 51.387C111.606 51.0243 111.419 50.7467 111.158 50.554C110.897 50.3613 110.557 50.265 110.138 50.265C109.503 50.265 108.988 50.4747 108.591 50.894C108.194 51.3133 107.996 51.9253 107.996 52.73V58H106.194ZM119.677 60.754C118.963 60.754 118.334 60.6463 117.79 60.431C117.246 60.2157 116.798 59.9097 116.447 59.513C116.095 59.1277 115.857 58.6743 115.733 58.153L117.603 58.034C117.727 58.408 117.943 58.7027 118.249 58.918C118.566 59.1447 119.042 59.258 119.677 59.258C120.425 59.258 120.997 59.0993 121.394 58.782C121.802 58.4647 122.006 57.983 122.006 57.337V56.028C121.79 56.4927 121.445 56.861 120.969 57.133C120.493 57.405 119.96 57.541 119.371 57.541C118.611 57.541 117.937 57.354 117.348 56.98C116.758 56.606 116.299 56.0903 115.971 55.433C115.642 54.7757 115.478 54.0163 115.478 53.155C115.478 52.2823 115.636 51.5173 115.954 50.86C116.282 50.2027 116.736 49.687 117.314 49.313C117.903 48.939 118.566 48.752 119.303 48.752C119.949 48.752 120.515 48.8993 121.003 49.194C121.501 49.4887 121.858 49.8853 122.074 50.384V48.956H123.808V57.286C123.808 58.034 123.638 58.663 123.298 59.173C122.969 59.6943 122.493 60.0853 121.87 60.346C121.258 60.618 120.527 60.754 119.677 60.754ZM119.66 56.011C120.362 56.011 120.923 55.756 121.343 55.246C121.773 54.736 121.994 54.0333 122.006 53.138C122.017 52.5487 121.926 52.0443 121.734 51.625C121.541 51.1943 121.263 50.8657 120.901 50.639C120.549 50.401 120.136 50.282 119.66 50.282C118.923 50.282 118.351 50.5427 117.943 51.064C117.546 51.574 117.348 52.2653 117.348 53.138C117.348 54.022 117.552 54.7247 117.96 55.246C118.379 55.756 118.946 56.011 119.66 56.011ZM133.967 58C133.105 58 132.471 57.8017 132.063 57.405C131.655 57.0083 131.451 56.3907 131.451 55.552V46.831H133.253V55.416C133.253 55.8353 133.343 56.1243 133.525 56.283C133.706 56.4417 133.984 56.521 134.358 56.521H135.65V58H133.967ZM130.074 50.435V48.956H135.65V50.435H130.074ZM137.372 58V45.93H139.174V50.996L138.953 50.962C139.055 50.452 139.242 50.0383 139.514 49.721C139.786 49.3923 140.12 49.1487 140.517 48.99C140.913 48.8313 141.35 48.752 141.826 48.752C142.483 48.752 143.038 48.8993 143.492 49.194C143.945 49.4773 144.285 49.8797 144.512 50.401C144.75 50.9223 144.869 51.5173 144.869 52.186V58H143.067V52.662C143.067 51.846 142.925 51.2453 142.642 50.86C142.37 50.4633 141.939 50.265 141.35 50.265C140.692 50.265 140.165 50.4747 139.769 50.894C139.372 51.302 139.174 51.9027 139.174 52.696V58H137.372ZM150.939 58.204C150.055 58.204 149.29 58.0113 148.644 57.626C148.01 57.2407 147.517 56.691 147.165 55.977C146.825 55.263 146.655 54.43 146.655 53.478C146.655 52.526 146.825 51.6987 147.165 50.996C147.517 50.282 148.01 49.7323 148.644 49.347C149.279 48.9503 150.027 48.752 150.888 48.752C151.704 48.752 152.424 48.9447 153.047 49.33C153.671 49.704 154.152 50.248 154.492 50.962C154.844 51.676 155.019 52.5373 155.019 53.546V54.005H148.525C148.571 54.889 148.803 55.552 149.222 55.994C149.653 56.436 150.231 56.657 150.956 56.657C151.489 56.657 151.931 56.5323 152.282 56.283C152.634 56.0337 152.877 55.6993 153.013 55.28L154.883 55.399C154.645 56.2377 154.175 56.9177 153.472 57.439C152.781 57.949 151.937 58.204 150.939 58.204ZM148.525 52.645H153.115C153.059 51.8403 152.826 51.2453 152.418 50.86C152.022 50.4747 151.512 50.282 150.888 50.282C150.242 50.282 149.71 50.486 149.29 50.894C148.882 51.2907 148.627 51.8743 148.525 52.645ZM165.769 58.272C164.817 58.272 163.984 58.0907 163.27 57.728C162.567 57.354 162.023 56.827 161.638 56.147C161.264 55.467 161.077 54.6623 161.077 53.733V45.913H162.913V53.733C162.913 54.651 163.162 55.3593 163.661 55.858C164.16 56.3453 164.862 56.589 165.769 56.589C166.676 56.589 167.378 56.3453 167.877 55.858C168.376 55.3593 168.625 54.651 168.625 53.733V45.913H170.461V53.733C170.461 54.6623 170.268 55.467 169.883 56.147C169.509 56.827 168.971 57.354 168.268 57.728C167.565 58.0907 166.732 58.272 165.769 58.272ZM172.949 58V48.956H174.598L174.649 51.2L174.445 51.132C174.547 50.6333 174.722 50.2083 174.972 49.857C175.232 49.5057 175.55 49.2337 175.924 49.041C176.298 48.8483 176.706 48.752 177.148 48.752C177.918 48.752 178.547 48.973 179.035 49.415C179.522 49.8457 179.828 50.4407 179.953 51.2H179.664C179.766 50.6673 179.936 50.2253 180.174 49.874C180.423 49.5113 180.74 49.2337 181.126 49.041C181.511 48.8483 181.947 48.752 182.435 48.752C183.069 48.752 183.608 48.888 184.05 49.16C184.503 49.4207 184.843 49.806 185.07 50.316C185.308 50.826 185.427 51.4493 185.427 52.186V58H183.625V52.628C183.625 51.846 183.483 51.2567 183.2 50.86C182.916 50.4633 182.486 50.265 181.908 50.265C181.534 50.265 181.205 50.3613 180.922 50.554C180.638 50.7467 180.417 51.0243 180.259 51.387C180.111 51.7497 180.038 52.186 180.038 52.696V58H178.321V52.696C178.321 51.9253 178.19 51.3303 177.93 50.911C177.68 50.4803 177.25 50.265 176.638 50.265C176.252 50.265 175.918 50.3613 175.635 50.554C175.363 50.7467 175.147 51.03 174.989 51.404C174.83 51.7667 174.751 52.1973 174.751 52.696V58H172.949ZM187.674 58V48.956H189.323L189.374 51.2L189.17 51.132C189.272 50.6333 189.448 50.2083 189.697 49.857C189.958 49.5057 190.275 49.2337 190.649 49.041C191.023 48.8483 191.431 48.752 191.873 48.752C192.644 48.752 193.273 48.973 193.76 49.415C194.248 49.8457 194.554 50.4407 194.678 51.2H194.389C194.491 50.6673 194.661 50.2253 194.899 49.874C195.149 49.5113 195.466 49.2337 195.851 49.041C196.237 48.8483 196.673 48.752 197.16 48.752C197.795 48.752 198.333 48.888 198.775 49.16C199.229 49.4207 199.569 49.806 199.795 50.316C200.033 50.826 200.152 51.4493 200.152 52.186V58H198.35V52.628C198.35 51.846 198.209 51.2567 197.925 50.86C197.642 50.4633 197.211 50.265 196.633 50.265C196.259 50.265 195.931 50.3613 195.647 50.554C195.364 50.7467 195.143 51.0243 194.984 51.387C194.837 51.7497 194.763 52.186 194.763 52.696V58H193.046V52.696C193.046 51.9253 192.916 51.3303 192.655 50.911C192.406 50.4803 191.975 50.265 191.363 50.265C190.978 50.265 190.644 50.3613 190.36 50.554C190.088 50.7467 189.873 51.03 189.714 51.404C189.556 51.7667 189.476 52.1973 189.476 52.696V58H187.674ZM205.066 58.204C204.125 58.204 203.371 57.9887 202.805 57.558C202.249 57.1273 201.972 56.521 201.972 55.739C201.972 54.957 202.204 54.3507 202.669 53.92C203.145 53.478 203.876 53.1607 204.862 52.968L207.973 52.373C207.973 51.6703 207.808 51.149 207.48 50.809C207.151 50.4577 206.664 50.282 206.018 50.282C205.44 50.282 204.986 50.4123 204.658 50.673C204.329 50.9223 204.102 51.2963 203.978 51.795L202.125 51.676C202.295 50.7693 202.714 50.0553 203.383 49.534C204.063 49.0127 204.941 48.752 206.018 48.752C207.242 48.752 208.171 49.0807 208.806 49.738C209.452 50.384 209.775 51.2963 209.775 52.475V55.994C209.775 56.2093 209.809 56.3623 209.877 56.453C209.956 56.5323 210.081 56.572 210.251 56.572H210.574V58C210.517 58.0113 210.426 58.0227 210.302 58.034C210.177 58.0453 210.047 58.051 209.911 58.051C209.525 58.051 209.191 57.9887 208.908 57.864C208.636 57.7393 208.432 57.5353 208.296 57.252C208.16 56.9573 208.092 56.5663 208.092 56.079L208.279 56.164C208.188 56.5607 207.99 56.912 207.684 57.218C207.389 57.524 207.009 57.7677 206.545 57.949C206.091 58.119 205.598 58.204 205.066 58.204ZM205.355 56.776C205.899 56.776 206.363 56.674 206.749 56.47C207.134 56.2547 207.434 55.96 207.65 55.586C207.865 55.212 207.973 54.787 207.973 54.311V53.733L205.321 54.243C204.777 54.345 204.391 54.5093 204.165 54.736C203.949 54.9513 203.842 55.229 203.842 55.569C203.842 55.9543 203.972 56.2547 204.233 56.47C204.505 56.674 204.879 56.776 205.355 56.776ZM212.012 58V45.93H213.814V50.996L213.593 50.962C213.695 50.452 213.882 50.0383 214.154 49.721C214.426 49.3923 214.761 49.1487 215.157 48.99C215.554 48.8313 215.99 48.752 216.466 48.752C217.124 48.752 217.679 48.8993 218.132 49.194C218.586 49.4773 218.926 49.8797 219.152 50.401C219.39 50.9223 219.509 51.5173 219.509 52.186V58H217.707V52.662C217.707 51.846 217.566 51.2453 217.282 50.86C217.01 50.4633 216.58 50.265 215.99 50.265C215.333 50.265 214.806 50.4747 214.409 50.894C214.013 51.302 213.814 51.9027 213.814 52.696V58H212.012ZM46.1217 82.272C45.0337 82.272 44.0761 82.0227 43.2487 81.524C42.4214 81.014 41.7754 80.2887 41.3107 79.348C40.8461 78.4073 40.6137 77.2853 40.6137 75.982C40.6137 74.69 40.8404 73.5737 41.2937 72.633C41.7584 71.681 42.4044 70.95 43.2317 70.44C44.0591 69.9187 45.0281 69.658 46.1387 69.658C47.6347 69.658 48.7964 70.032 49.6237 70.78C50.4511 71.528 50.9894 72.565 51.2387 73.891L49.3177 73.993C49.1591 73.1657 48.8191 72.5197 48.2977 72.055C47.7764 71.579 47.0567 71.341 46.1387 71.341C45.4021 71.341 44.7617 71.528 44.2177 71.902C43.6851 72.276 43.2657 72.8087 42.9597 73.5C42.6651 74.1913 42.5177 75.0187 42.5177 75.982C42.5177 76.9453 42.6651 77.7727 42.9597 78.464C43.2657 79.1553 43.6907 79.6823 44.2347 80.045C44.7787 80.4077 45.4077 80.589 46.1217 80.589C47.0964 80.589 47.8501 80.334 48.3827 79.824C48.9267 79.3027 49.2667 78.5887 49.4027 77.682L51.3237 77.784C51.1764 78.702 50.8817 79.4953 50.4397 80.164C49.9977 80.8327 49.4141 81.354 48.6887 81.728C47.9634 82.0907 47.1077 82.272 46.1217 82.272ZM55.0492 82C54.4599 82 53.9839 81.847 53.6212 81.541C53.2586 81.235 53.0772 80.7477 53.0772 80.079V69.93H54.8792V79.909C54.8792 80.113 54.9302 80.266 55.0322 80.368C55.1456 80.47 55.3042 80.521 55.5082 80.521H56.2222V82H55.0492ZM61.4819 82.204C60.6206 82.204 59.8669 82.0113 59.2209 81.626C58.5749 81.2407 58.0762 80.691 57.7249 79.977C57.3736 79.263 57.1979 78.43 57.1979 77.478C57.1979 76.5147 57.3736 75.6817 57.7249 74.979C58.0762 74.2763 58.5749 73.7323 59.2209 73.347C59.8669 72.9503 60.6206 72.752 61.4819 72.752C62.3432 72.752 63.0969 72.9503 63.7429 73.347C64.3889 73.7323 64.8876 74.2763 65.2389 74.979C65.5902 75.6817 65.7659 76.5147 65.7659 77.478C65.7659 78.43 65.5902 79.263 65.2389 79.977C64.8876 80.691 64.3889 81.2407 63.7429 81.626C63.0969 82.0113 62.3432 82.204 61.4819 82.204ZM61.4819 80.64C62.2526 80.64 62.8476 80.3623 63.2669 79.807C63.6862 79.2403 63.8959 78.464 63.8959 77.478C63.8959 76.492 63.6862 75.7213 63.2669 75.166C62.8476 74.5993 62.2526 74.316 61.4819 74.316C60.7226 74.316 60.1276 74.5993 59.6969 75.166C59.2776 75.7213 59.0679 76.492 59.0679 77.478C59.0679 78.464 59.2776 79.2403 59.6969 79.807C60.1276 80.3623 60.7226 80.64 61.4819 80.64ZM71.072 82.204C70.222 82.204 69.5023 82.0737 68.913 81.813C68.335 81.5523 67.8873 81.1953 67.57 80.742C67.2527 80.2773 67.0713 79.7447 67.026 79.144L68.879 79.059C68.9697 79.5577 69.185 79.9543 69.525 80.249C69.865 80.5437 70.3807 80.691 71.072 80.691C71.6387 80.691 72.0863 80.6003 72.415 80.419C72.7437 80.2377 72.908 79.9487 72.908 79.552C72.908 79.3367 72.8513 79.1553 72.738 79.008C72.636 78.8493 72.432 78.719 72.126 78.617C71.82 78.5037 71.3667 78.396 70.766 78.294C69.8707 78.124 69.168 77.9257 68.658 77.699C68.148 77.4723 67.7853 77.1833 67.57 76.832C67.3547 76.4807 67.247 76.0557 67.247 75.557C67.247 74.7297 67.553 74.0553 68.165 73.534C68.7883 73.0127 69.6837 72.752 70.851 72.752C71.633 72.752 72.2903 72.888 72.823 73.16C73.3557 73.4207 73.7693 73.7777 74.064 74.231C74.37 74.673 74.5627 75.1717 74.642 75.727L72.789 75.829C72.7323 75.5117 72.619 75.2397 72.449 75.013C72.2903 74.775 72.075 74.5937 71.803 74.469C71.531 74.333 71.208 74.265 70.834 74.265C70.256 74.265 69.8253 74.3783 69.542 74.605C69.2587 74.8317 69.117 75.1263 69.117 75.489C69.117 75.761 69.1793 75.982 69.304 76.152C69.44 76.322 69.6553 76.4637 69.95 76.577C70.2447 76.679 70.6357 76.7697 71.123 76.849C72.0637 77.0077 72.8003 77.206 73.333 77.444C73.8657 77.6707 74.2397 77.954 74.455 78.294C74.6703 78.634 74.778 79.0477 74.778 79.535C74.778 80.1017 74.6193 80.5833 74.302 80.98C73.9847 81.3767 73.5483 81.6827 72.993 81.898C72.4377 82.102 71.7973 82.204 71.072 82.204ZM80.3247 82.204C79.4407 82.204 78.6757 82.0113 78.0297 81.626C77.395 81.2407 76.902 80.691 76.5507 79.977C76.2107 79.263 76.0407 78.43 76.0407 77.478C76.0407 76.526 76.2107 75.6987 76.5507 74.996C76.902 74.282 77.395 73.7323 78.0297 73.347C78.6643 72.9503 79.4123 72.752 80.2737 72.752C81.0897 72.752 81.8093 72.9447 82.4327 73.33C83.056 73.704 83.5377 74.248 83.8777 74.962C84.229 75.676 84.4047 76.5373 84.4047 77.546V78.005H77.9107C77.956 78.889 78.1883 79.552 78.6077 79.994C79.0383 80.436 79.6163 80.657 80.3417 80.657C80.8743 80.657 81.3163 80.5323 81.6677 80.283C82.019 80.0337 82.2627 79.6993 82.3987 79.28L84.2687 79.399C84.0307 80.2377 83.5603 80.9177 82.8577 81.439C82.1663 81.949 81.322 82.204 80.3247 82.204ZM77.9107 76.645H82.5007C82.444 75.8403 82.2117 75.2453 81.8037 74.86C81.407 74.4747 80.897 74.282 80.2737 74.282C79.6277 74.282 79.095 74.486 78.6757 74.894C78.2677 75.2907 78.0127 75.8743 77.9107 76.645ZM86.2306 82V72.956H87.8796L87.9476 75.353L87.7946 75.302C87.9192 74.486 88.1686 73.891 88.5426 73.517C88.9279 73.143 89.4436 72.956 90.0896 72.956H90.9566V74.571H90.0896C89.6362 74.571 89.2566 74.6447 88.9506 74.792C88.6446 74.9393 88.4122 75.166 88.2536 75.472C88.1062 75.778 88.0326 76.1747 88.0326 76.662V82H86.2306ZM100.523 82C99.6615 82 99.0268 81.8017 98.6188 81.405C98.2108 81.0083 98.0068 80.3907 98.0068 79.552V70.831H99.8088V79.416C99.8088 79.8353 99.8995 80.1243 100.081 80.283C100.262 80.4417 100.54 80.521 100.914 80.521H102.206V82H100.523ZM96.6298 74.435V72.956H102.206V74.435H96.6298ZM107.501 82.204C106.64 82.204 105.886 82.0113 105.24 81.626C104.594 81.2407 104.096 80.691 103.744 79.977C103.393 79.263 103.217 78.43 103.217 77.478C103.217 76.5147 103.393 75.6817 103.744 74.979C104.096 74.2763 104.594 73.7323 105.24 73.347C105.886 72.9503 106.64 72.752 107.501 72.752C108.363 72.752 109.116 72.9503 109.762 73.347C110.408 73.7323 110.907 74.2763 111.258 74.979C111.61 75.6817 111.785 76.5147 111.785 77.478C111.785 78.43 111.61 79.263 111.258 79.977C110.907 80.691 110.408 81.2407 109.762 81.626C109.116 82.0113 108.363 82.204 107.501 82.204ZM107.501 80.64C108.272 80.64 108.867 80.3623 109.286 79.807C109.706 79.2403 109.915 78.464 109.915 77.478C109.915 76.492 109.706 75.7213 109.286 75.166C108.867 74.5993 108.272 74.316 107.501 74.316C106.742 74.316 106.147 74.5993 105.716 75.166C105.297 75.7213 105.087 76.492 105.087 77.478C105.087 78.464 105.297 79.2403 105.716 79.807C106.147 80.3623 106.742 80.64 107.501 80.64ZM118.093 82V69.93H121.969C123.862 69.93 125.318 70.457 126.338 71.511C127.358 72.5537 127.868 74.044 127.868 75.982C127.868 77.9087 127.364 79.3933 126.355 80.436C125.358 81.4787 123.93 82 122.071 82H118.093ZM119.929 80.317H121.969C123.307 80.317 124.304 79.96 124.961 79.246C125.63 78.5207 125.964 77.4327 125.964 75.982C125.964 74.5087 125.63 73.415 124.961 72.701C124.304 71.9757 123.307 71.613 121.969 71.613H119.929V80.317ZM133.815 82.204C132.931 82.204 132.166 82.0113 131.52 81.626C130.885 81.2407 130.392 80.691 130.041 79.977C129.701 79.263 129.531 78.43 129.531 77.478C129.531 76.526 129.701 75.6987 130.041 74.996C130.392 74.282 130.885 73.7323 131.52 73.347C132.155 72.9503 132.903 72.752 133.764 72.752C134.58 72.752 135.3 72.9447 135.923 73.33C136.546 73.704 137.028 74.248 137.368 74.962C137.719 75.676 137.895 76.5373 137.895 77.546V78.005H131.401C131.446 78.889 131.679 79.552 132.098 79.994C132.529 80.436 133.107 80.657 133.832 80.657C134.365 80.657 134.807 80.5323 135.158 80.283C135.509 80.0337 135.753 79.6993 135.889 79.28L137.759 79.399C137.521 80.2377 137.051 80.9177 136.348 81.439C135.657 81.949 134.812 82.204 133.815 82.204ZM131.401 76.645H135.991C135.934 75.8403 135.702 75.2453 135.294 74.86C134.897 74.4747 134.387 74.282 133.764 74.282C133.118 74.282 132.585 74.486 132.166 74.894C131.758 75.2907 131.503 75.8743 131.401 76.645ZM143.444 82.204C142.56 82.204 141.795 82.0113 141.149 81.626C140.514 81.2407 140.021 80.691 139.67 79.977C139.33 79.263 139.16 78.43 139.16 77.478C139.16 76.526 139.33 75.6987 139.67 74.996C140.021 74.282 140.514 73.7323 141.149 73.347C141.783 72.9503 142.531 72.752 143.393 72.752C144.209 72.752 144.928 72.9447 145.552 73.33C146.175 73.704 146.657 74.248 146.997 74.962C147.348 75.676 147.524 76.5373 147.524 77.546V78.005H141.03C141.075 78.889 141.307 79.552 141.727 79.994C142.157 80.436 142.735 80.657 143.461 80.657C143.993 80.657 144.435 80.5323 144.787 80.283C145.138 80.0337 145.382 79.6993 145.518 79.28L147.388 79.399C147.15 80.2377 146.679 80.9177 145.977 81.439C145.285 81.949 144.441 82.204 143.444 82.204ZM141.03 76.645H145.62C145.563 75.8403 145.331 75.2453 144.923 74.86C144.526 74.4747 144.016 74.282 143.393 74.282C142.747 74.282 142.214 74.486 141.795 74.894C141.387 75.2907 141.132 75.8743 141.03 76.645ZM149.35 82V72.956H150.999L151.067 75.37L150.846 75.251C150.948 74.6617 151.14 74.1857 151.424 73.823C151.707 73.4603 152.053 73.194 152.461 73.024C152.869 72.8427 153.311 72.752 153.787 72.752C154.467 72.752 155.028 72.905 155.47 73.211C155.923 73.5057 156.263 73.9137 156.49 74.435C156.728 74.945 156.847 75.5287 156.847 76.186V82H155.045V76.73C155.045 76.1973 154.988 75.7497 154.875 75.387C154.761 75.0243 154.574 74.7467 154.314 74.554C154.053 74.3613 153.713 74.265 153.294 74.265C152.659 74.265 152.143 74.4747 151.747 74.894C151.35 75.3133 151.152 75.9253 151.152 76.73V82H149.35ZM158.918 84.669L159.768 82H158.833V79.858H161.026V81.745L159.955 84.669H158.918ZM169.782 82V71.613H166.076V69.93H175.324V71.613H171.618V82H169.782ZM179.17 82.204C178.309 82.204 177.555 82.0113 176.909 81.626C176.263 81.2407 175.765 80.691 175.413 79.977C175.062 79.263 174.886 78.43 174.886 77.478C174.886 76.5147 175.062 75.6817 175.413 74.979C175.765 74.2763 176.263 73.7323 176.909 73.347C177.555 72.9503 178.309 72.752 179.17 72.752C180.032 72.752 180.785 72.9503 181.431 73.347C182.077 73.7323 182.576 74.2763 182.927 74.979C183.279 75.6817 183.454 76.5147 183.454 77.478C183.454 78.43 183.279 79.263 182.927 79.977C182.576 80.691 182.077 81.2407 181.431 81.626C180.785 82.0113 180.032 82.204 179.17 82.204ZM179.17 80.64C179.941 80.64 180.536 80.3623 180.955 79.807C181.375 79.2403 181.584 78.464 181.584 77.478C181.584 76.492 181.375 75.7213 180.955 75.166C180.536 74.5993 179.941 74.316 179.17 74.316C178.411 74.316 177.816 74.5993 177.385 75.166C176.966 75.7213 176.756 76.492 176.756 77.478C176.756 78.464 176.966 79.2403 177.385 79.807C177.816 80.3623 178.411 80.64 179.17 80.64ZM188.913 84.754C188.199 84.754 187.57 84.6463 187.026 84.431C186.482 84.2157 186.035 83.9097 185.683 83.513C185.332 83.1277 185.094 82.6743 184.969 82.153L186.839 82.034C186.964 82.408 187.179 82.7027 187.485 82.918C187.803 83.1447 188.279 83.258 188.913 83.258C189.661 83.258 190.234 83.0993 190.63 82.782C191.038 82.4647 191.242 81.983 191.242 81.337V80.028C191.027 80.4927 190.681 80.861 190.205 81.133C189.729 81.405 189.197 81.541 188.607 81.541C187.848 81.541 187.174 81.354 186.584 80.98C185.995 80.606 185.536 80.0903 185.207 79.433C184.879 78.7757 184.714 78.0163 184.714 77.155C184.714 76.2823 184.873 75.5173 185.19 74.86C185.519 74.2027 185.972 73.687 186.55 73.313C187.14 72.939 187.803 72.752 188.539 72.752C189.185 72.752 189.752 72.8993 190.239 73.194C190.738 73.4887 191.095 73.8853 191.31 74.384V72.956H193.044V81.286C193.044 82.034 192.874 82.663 192.534 83.173C192.206 83.6943 191.73 84.0853 191.106 84.346C190.494 84.618 189.763 84.754 188.913 84.754ZM188.896 80.011C189.599 80.011 190.16 79.756 190.579 79.246C191.01 78.736 191.231 78.0333 191.242 77.138C191.254 76.5487 191.163 76.0443 190.97 75.625C190.778 75.1943 190.5 74.8657 190.137 74.639C189.786 74.401 189.372 74.282 188.896 74.282C188.16 74.282 187.587 74.5427 187.179 75.064C186.783 75.574 186.584 76.2653 186.584 77.138C186.584 78.022 186.788 78.7247 187.196 79.246C187.616 79.756 188.182 80.011 188.896 80.011ZM199.159 82.204C198.275 82.204 197.51 82.0113 196.864 81.626C196.229 81.2407 195.736 80.691 195.385 79.977C195.045 79.263 194.875 78.43 194.875 77.478C194.875 76.526 195.045 75.6987 195.385 74.996C195.736 74.282 196.229 73.7323 196.864 73.347C197.498 72.9503 198.246 72.752 199.108 72.752C199.924 72.752 200.643 72.9447 201.267 73.33C201.89 73.704 202.372 74.248 202.712 74.962C203.063 75.676 203.239 76.5373 203.239 77.546V78.005H196.745C196.79 78.889 197.022 79.552 197.442 79.994C197.872 80.436 198.45 80.657 199.176 80.657C199.708 80.657 200.15 80.5323 200.502 80.283C200.853 80.0337 201.097 79.6993 201.233 79.28L203.103 79.399C202.865 80.2377 202.394 80.9177 201.692 81.439C201 81.949 200.156 82.204 199.159 82.204ZM196.745 76.645H201.335C201.278 75.8403 201.046 75.2453 200.638 74.86C200.241 74.4747 199.731 74.282 199.108 74.282C198.462 74.282 197.929 74.486 197.51 74.894C197.102 75.2907 196.847 75.8743 196.745 76.645ZM208.201 82C207.339 82 206.705 81.8017 206.297 81.405C205.889 81.0083 205.685 80.3907 205.685 79.552V70.831H207.487V79.416C207.487 79.8353 207.577 80.1243 207.759 80.283C207.94 80.4417 208.218 80.521 208.592 80.521H209.884V82H208.201ZM204.308 74.435V72.956H209.884V74.435H204.308ZM211.606 82V69.93H213.408V74.996L213.187 74.962C213.289 74.452 213.476 74.0383 213.748 73.721C214.02 73.3923 214.354 73.1487 214.751 72.99C215.147 72.8313 215.584 72.752 216.06 72.752C216.717 72.752 217.272 72.8993 217.726 73.194C218.179 73.4773 218.519 73.8797 218.746 74.401C218.984 74.9223 219.103 75.5173 219.103 76.186V82H217.301V76.662C217.301 75.846 217.159 75.2453 216.876 74.86C216.604 74.4633 216.173 74.265 215.584 74.265C214.926 74.265 214.399 74.4747 214.003 74.894C213.606 75.302 213.408 75.9027 213.408 76.696V82H211.606ZM225.173 82.204C224.289 82.204 223.524 82.0113 222.878 81.626C222.244 81.2407 221.751 80.691 221.399 79.977C221.059 79.263 220.889 78.43 220.889 77.478C220.889 76.526 221.059 75.6987 221.399 74.996C221.751 74.282 222.244 73.7323 222.878 73.347C223.513 72.9503 224.261 72.752 225.122 72.752C225.938 72.752 226.658 72.9447 227.281 73.33C227.905 73.704 228.386 74.248 228.726 74.962C229.078 75.676 229.253 76.5373 229.253 77.546V78.005H222.759C222.805 78.889 223.037 79.552 223.456 79.994C223.887 80.436 224.465 80.657 225.19 80.657C225.723 80.657 226.165 80.5323 226.516 80.283C226.868 80.0337 227.111 79.6993 227.247 79.28L229.117 79.399C228.879 80.2377 228.409 80.9177 227.706 81.439C227.015 81.949 226.171 82.204 225.173 82.204ZM222.759 76.645H227.349C227.293 75.8403 227.06 75.2453 226.652 74.86C226.256 74.4747 225.746 74.282 225.122 74.282C224.476 74.282 223.944 74.486 223.524 74.894C223.116 75.2907 222.861 75.8743 222.759 76.645ZM231.079 82V72.956H232.728L232.796 75.353L232.643 75.302C232.768 74.486 233.017 73.891 233.391 73.517C233.777 73.143 234.292 72.956 234.938 72.956H235.805V74.571H234.938C234.485 74.571 234.105 74.6447 233.799 74.792C233.493 74.9393 233.261 75.166 233.102 75.472C232.955 75.778 232.881 76.1747 232.881 76.662V82H231.079ZM236.229 82V79.858H238.422V82H236.229Z" fill="#FAFAFA"/>
</svg>
