<svg width="50" height="50" viewBox="0 0 50 50" fill="none" xmlns="http://www.w3.org/2000/svg">
<g clip-path="url(#clip0_1302_33988)">
<rect width="50" height="50" rx="14" fill="url(#paint0_linear_1302_33988)"/>
<g clip-path="url(#clip1_1302_33988)">
<path d="M-9.45116 -5.62033C-8.37857 -4.74466 -7.32405 -3.84874 -6.25146 -2.97307C-5.72721 -2.54789 -5.17886 -2.13789 -4.63051 -1.73802C-4.49192 -1.63678 -4.50397 -1.56592 -4.57628 -1.45457C-4.77513 -1.15593 -4.95591 -0.852223 -5.16079 -0.553583C-5.55246 0.0183867 -5.85375 0.63085 -6.40813 1.12183C-6.5407 1.23825 -6.45031 1.31923 -6.29364 1.36479C-5.15476 1.71404 -4.20871 2.35688 -3.16624 2.85292C-3.11201 2.87823 -3.07586 2.98453 -3.09393 3.04021C-3.43138 3.98168 -3.7869 4.91809 -4.11832 5.85957C-4.43166 6.75548 -4.70885 7.66152 -5.00411 8.5625C-5.04629 8.69411 -5.01617 8.77003 -4.84142 8.80546C-4.38346 8.90164 -3.93152 9.00793 -3.47356 9.10916C-2.65405 9.29139 -1.83454 9.48373 -1.00298 9.65077C-0.0750014 9.83805 0.852973 10 1.78697 10.1671C1.94967 10.1974 1.99788 10.2683 1.99788 10.3999C1.99185 10.7491 2.0039 11.1035 1.99788 11.4527C1.98583 12.0854 1.9798 12.7131 1.93762 13.3458C1.92557 13.5483 1.98583 13.5837 2.20276 13.5584C2.57636 13.5179 2.95598 13.4774 3.32958 13.4774C4.02858 13.4723 4.72757 13.5027 5.42656 13.5128C5.89658 13.5179 5.89055 13.5179 5.99902 13.9026C6.27018 14.8643 6.54736 15.826 6.83058 16.7827C7.07161 17.5976 7.33674 18.4075 7.5838 19.2173C7.62598 19.3489 7.68624 19.4401 7.87304 19.3945C8.11407 19.3338 8.36113 19.268 8.60819 19.2123C9.56027 18.9896 10.5184 18.7719 11.4705 18.5441C12.4466 18.3062 13.4228 18.0582 14.399 17.8001C14.5617 17.7545 14.64 17.7646 14.7184 17.8861C15.2908 18.7618 16.0561 19.5464 16.4538 20.503C16.5141 20.6397 16.6225 20.665 16.7611 20.5637C16.8214 20.5233 16.8696 20.4777 16.9359 20.4423C17.906 19.9665 18.8762 19.4907 19.8524 19.025C19.9126 18.9997 20.0633 19.0402 20.1175 19.0908C20.5634 19.4907 20.9852 19.9159 21.4371 20.3056C22.5278 21.2471 23.6305 22.1784 24.7272 23.1098C24.9984 23.3426 24.9984 23.3426 25.2816 23.0996C26.2759 22.2493 27.2822 21.404 28.2704 20.5486C28.8067 20.088 29.3249 19.6122 29.8251 19.1212C29.9697 18.9794 30.0721 18.9541 30.2409 19.0503C30.3011 19.0857 30.3734 19.106 30.4397 19.1414C31.3737 19.6172 32.4222 19.9462 33.2538 20.5688C33.3923 20.67 33.4948 20.6194 33.555 20.4828C33.9648 19.521 34.7301 18.7264 35.3206 17.8507C35.3507 17.8051 35.4773 17.7646 35.5375 17.7798C36.7065 18.0683 37.8635 18.3822 39.0325 18.6656C39.9846 18.8985 40.9427 19.1009 41.9008 19.3186C42.3407 19.4198 42.3347 19.4198 42.4431 19.0655C42.7444 18.0936 43.0698 17.1218 43.359 16.15C43.6001 15.33 43.7989 14.4999 44.0339 13.6748C44.052 13.609 44.1725 13.5229 44.2448 13.5179C44.763 13.4976 45.2813 13.4774 45.8055 13.4875C46.4864 13.4976 47.1613 13.5381 47.8362 13.5634C48.017 13.5736 48.1134 13.5331 48.0592 13.3559C48.023 13.2496 47.9929 13.1383 47.9929 13.0269C47.9869 12.136 47.9929 11.2452 47.9869 10.3543C47.9869 10.2126 48.0833 10.1822 48.2098 10.162C48.957 10.0304 49.7102 9.91903 50.4514 9.76212C51.8976 9.45842 53.3378 9.11928 54.778 8.81052C55.0009 8.76497 55.025 8.67892 54.9708 8.52201C54.7539 7.88423 54.5429 7.2414 54.326 6.60363C53.9163 5.42426 53.5005 4.24489 53.1028 3.06552C53.0787 2.99972 53.1209 2.87317 53.1811 2.8428C54.2115 2.34676 55.1515 1.71404 56.2844 1.36479C56.5074 1.29392 56.5013 1.21294 56.3567 1.07121C56.1699 0.894054 55.9891 0.706769 55.8505 0.49924C55.4528 -0.0879142 55.0672 -0.680131 54.6876 -1.27741C54.4767 -1.61148 54.4827 -1.61654 54.8442 -1.86456C54.8804 -1.88987 54.9105 -1.92024 54.9467 -1.94555C55.7722 -2.61369 56.5977 -3.28184 57.4173 -3.95504C58.1042 -4.51689 58.7791 -5.08379 59.4721 -5.64058C59.5564 -5.71144 59.6046 -5.76712 59.6046 -5.82786L59.2009 -5.82786C59.2009 -5.73675 59.0924 -5.6507 58.8755 -5.46342C57.9957 -4.72441 57.128 -3.98035 56.2362 -3.25147C55.6336 -2.76048 54.9949 -2.29987 54.332 -1.7937C54.1151 -2.12777 53.9163 -2.42641 53.7355 -2.73011C53.7054 -2.78073 53.7234 -2.89208 53.7716 -2.92752C54.5309 -3.5248 55.2901 -4.11701 56.0554 -4.71429C56.4531 -5.02305 56.8448 -5.33688 57.2485 -5.64058C57.3389 -5.70638 57.3871 -5.76712 57.3811 -5.82786L57.0678 -5.82786C55.8987 -4.90664 54.7358 -3.99553 53.5427 -3.05912C53.2775 -3.41344 53.0184 -3.76775 52.7593 -4.12207C53.3257 -4.51182 53.8861 -4.90157 54.4405 -5.28626C54.6153 -5.40774 54.79 -5.52922 54.9527 -5.66082C55.019 -5.7165 55.0551 -5.77219 55.0491 -5.8228L54.7659 -5.8228C54.561 -5.66589 54.3802 -5.50898 54.1814 -5.37231C53.7475 -5.06861 53.3016 -4.76997 52.8617 -4.47133C52.693 -4.35491 52.5665 -4.27899 52.3917 -4.49664C52.223 -4.71429 51.9759 -4.89145 51.759 -5.08886C52.0422 -5.27614 52.3134 -5.46342 52.5906 -5.64564C52.687 -5.70638 52.7292 -5.76712 52.7292 -5.8228L52.4942 -5.8228C52.1627 -5.62034 51.8795 -5.4533 51.5963 -5.28626C51.5602 -5.26601 51.4818 -5.25589 51.4457 -5.27614C50.9636 -5.46342 50.4815 -5.65577 50.0597 -5.8228C50.0597 -5.8228 50.0597 -5.8228 50.0658 -5.8228L47.5771 -5.8228C47.5711 -5.57984 47.5168 -5.34194 47.4265 -5.09392C47.1673 -4.39034 46.7757 -3.75763 46.1912 -3.21097C45.7453 -2.79591 45.1728 -2.5327 44.5763 -2.29987C43.9435 -2.05184 43.2747 -2.06703 42.5877 -2.0974C42.5877 -2.37073 42.5877 -2.639 42.5877 -2.92246C42.9071 -2.98826 43.2385 -3.03381 43.5579 -3.11986C45.0463 -3.53492 46.0104 -4.3701 46.3659 -5.65576C46.378 -5.71144 46.39 -5.76206 46.396 -5.81774L46.1068 -5.81774C46.1128 -5.44317 45.9321 -5.1091 45.6971 -4.79022C45.0884 -3.97022 44.2328 -3.40838 43.0698 -3.23122C42.9071 -3.20591 42.7384 -3.19073 42.5395 -3.16542C42.4552 -3.4843 42.3768 -3.77282 42.2925 -4.08664C42.4552 -4.12207 42.6118 -4.16257 42.7745 -4.198C43.4976 -4.35997 44.1002 -4.66874 44.4678 -5.23058C44.6004 -5.43305 44.6727 -5.63045 44.6847 -5.81774L44.4316 -5.81774C44.4377 -5.50897 44.2268 -5.23058 43.8532 -4.92182C43.4313 -4.57256 42.877 -4.42071 42.3045 -4.32454C42.2443 -4.31442 42.1478 -4.35998 42.1117 -4.40553C41.955 -4.59281 41.8104 -4.78515 41.6839 -4.94713C42.0273 -5.07873 42.3829 -5.17997 42.6962 -5.347C42.9372 -5.47355 43.0577 -5.64564 43.0577 -5.81268L42.6841 -5.81268C42.6781 -5.73675 42.6299 -5.66082 42.5455 -5.58996C42.2081 -5.30144 41.7742 -5.21034 41.3283 -5.2154C41.1295 -5.2154 40.9367 -5.3875 40.7318 -5.47355C40.4305 -5.60009 40.1232 -5.7165 39.9002 -5.80762C39.9062 -5.81268 39.9123 -5.81267 39.9183 -5.81774L38.0563 -5.81774C38.0563 -5.14959 37.6526 -4.59788 37.0621 -4.17776C36.4294 -3.72727 35.6761 -3.59566 34.8506 -3.75763C34.6758 -3.79307 34.6096 -3.83862 34.6216 -3.99047C34.6337 -4.1322 34.6216 -4.27392 34.6216 -4.42577C34.935 -4.42577 35.2061 -4.42071 35.4773 -4.42577C36.4414 -4.44602 37.0922 -4.93701 37.3031 -5.52922C37.3393 -5.62539 37.3513 -5.72663 37.3573 -5.8228L37.0801 -5.8228C37.0801 -5.42799 36.7849 -5.04836 36.3209 -4.83577C35.7725 -4.58775 35.176 -4.60799 34.5794 -4.67886C34.5373 -4.68392 34.489 -4.72948 34.4589 -4.76491C34.3143 -4.94713 34.1757 -5.13441 34.019 -5.34194C34.3143 -5.30145 34.5975 -5.23564 34.8807 -5.23058C35.176 -5.22552 35.4833 -5.24577 35.7665 -5.30651C36.0196 -5.36218 36.2004 -5.61021 36.1943 -5.81774L35.9111 -5.81774C35.9111 -5.71144 35.7665 -5.56465 35.64 -5.50897C35.4893 -5.44317 35.2905 -5.42799 35.1218 -5.43305C34.5312 -5.45329 33.9648 -5.56465 33.4345 -5.78231C33.4225 -5.78737 33.4164 -5.79749 33.4104 -5.8228L32.1932 -5.8228C32.1932 -5.80255 32.1932 -5.77724 32.1932 -5.75194C32.1751 -5.27614 31.6328 -4.83577 31.0664 -4.81552C30.9639 -4.81046 30.8615 -4.78516 30.7591 -4.78516C30.5482 -4.7801 30.3614 -4.79022 30.2891 -5.01799C30.1746 -5.3875 29.8974 -5.65576 29.4334 -5.81774L29.4394 -5.81774L28.3608 -5.81774C28.3608 -5.81774 28.3608 -5.81774 28.3608 -5.81268C28.3608 -5.73675 28.2403 -5.63552 28.1439 -5.60009C27.4569 -5.34194 26.8363 -5.53934 26.1553 -5.81774L23.8535 -5.81774C23.8595 -5.81774 23.8655 -5.81267 23.8716 -5.81267C23.1967 -5.56971 22.6001 -5.34194 21.9313 -5.58996C21.8168 -5.63045 21.7324 -5.73675 21.636 -5.81267C21.642 -5.81774 21.642 -5.81774 21.648 -5.8228L20.5694 -5.8228C20.5694 -5.8228 20.5754 -5.8228 20.5754 -5.81773C20.1054 -5.6507 19.8403 -5.36218 19.7017 -4.98256C19.6716 -4.90663 19.5511 -4.81553 19.4607 -4.81046C19.0148 -4.77503 18.4001 -4.86108 18.0868 -5.20021C17.912 -5.38749 17.8337 -5.60515 17.8337 -5.8228L16.6165 -5.8228C16.6225 -5.79243 16.6225 -5.76712 16.6285 -5.73675C16.0922 -5.63551 15.5559 -5.51404 15.0136 -5.44318C14.8027 -5.4128 14.5496 -5.44824 14.3508 -5.5191C14.2303 -5.55959 14.1098 -5.71144 14.0977 -5.8228L13.7964 -5.8228C13.7964 -5.81268 13.7964 -5.80762 13.7964 -5.79749C13.8085 -5.57984 14.0194 -5.32676 14.3146 -5.29132C14.6762 -5.24577 15.0558 -5.26095 15.4234 -5.26602C15.6042 -5.27108 15.791 -5.31663 15.9778 -5.34194C15.8271 -5.14454 15.7126 -4.937 15.5379 -4.78009C15.4354 -4.68898 15.2306 -4.66367 15.0679 -4.64849C14.3508 -4.58775 13.694 -4.6738 13.1999 -5.1749C12.995 -5.38243 12.9106 -5.60008 12.9166 -5.81773L12.6455 -5.81773C12.6334 -5.53934 12.772 -5.29132 12.9769 -5.06355C13.3746 -4.62318 13.923 -4.42071 14.5798 -4.42071C14.8329 -4.42071 15.0859 -4.42071 15.3812 -4.42071C15.3812 -4.25368 15.3933 -4.07146 15.3752 -3.88924C15.3691 -3.84368 15.2788 -3.78294 15.2125 -3.76775C13.9591 -3.4843 12.7298 -4.0259 12.29 -4.88132C12.1514 -5.15465 11.9465 -5.43811 11.9344 -5.72157C11.9344 -5.75194 11.9344 -5.78736 11.9344 -5.81773L10.0664 -5.81773C10.0725 -5.81773 10.0785 -5.81267 10.0785 -5.81267C9.78322 -5.68613 9.38552 -5.5444 9.01794 -5.35712C8.77691 -5.23058 8.54191 -5.16478 8.2828 -5.25589C7.99958 -5.35206 7.71637 -5.46342 7.46329 -5.60515C7.36085 -5.66589 7.31264 -5.74181 7.32469 -5.81773L6.94507 -5.81773C6.94507 -5.64564 7.08366 -5.47354 7.36085 -5.32675C7.65611 -5.16984 7.99958 -5.07367 8.32498 -4.95219C8.17433 -4.7649 7.99958 -4.5422 7.81278 -4.3043C6.89686 -4.45615 6.07132 -4.71935 5.65554 -5.5191C5.60131 -5.62033 5.57721 -5.7165 5.57721 -5.81267L5.31207 -5.81267C5.30002 -5.46848 5.529 -5.17997 5.79414 -4.91676C6.17979 -4.53207 6.68596 -4.28405 7.28251 -4.18787C7.42713 -4.16257 7.57175 -4.11701 7.71637 -4.08158C7.62598 -3.76776 7.54765 -3.47418 7.46329 -3.17048C5.99299 -3.25147 4.95655 -3.88417 4.22743 -4.88132C3.99845 -5.19515 3.89601 -5.50897 3.90203 -5.81267L3.63087 -5.81267C3.62485 -5.43305 3.79959 -5.08379 4.0105 -4.76997C4.51064 -4.03602 5.23374 -3.47418 6.19184 -3.17554C6.50518 -3.07937 6.84865 -3.03381 7.18007 -2.97813C7.3488 -2.95282 7.45123 -2.91233 7.43918 -2.74024C7.42111 -2.52764 7.43316 -2.31505 7.43316 -2.10752C6.15568 -1.94555 5.08912 -2.28974 4.14909 -2.94776C3.20304 -3.60578 2.73905 -4.50676 2.45584 -5.47354C2.42571 -5.57984 2.41366 -5.69626 2.41968 -5.81267L-0.0629506 -5.81267C-0.0629506 -5.81267 -0.0629496 -5.81267 -0.0569243 -5.81267C-0.472705 -5.6507 -0.942718 -5.46342 -1.41273 -5.2812C-1.46696 -5.26095 -1.5694 -5.26095 -1.61761 -5.28626C-1.90082 -5.44317 -2.17198 -5.61021 -2.49738 -5.80761C-2.49738 -5.80761 -2.49135 -5.80761 -2.49135 -5.81267L-2.74444 -5.81267C-2.74444 -5.72662 -2.61187 -5.64564 -2.34673 -5.44823C-2.16596 -5.31157 -1.94903 -5.20527 -1.76223 -5.09392C-2.04544 -4.83071 -2.31058 -4.57762 -2.61789 -4.29417C-3.34702 -4.80034 -4.05806 -5.29132 -4.81732 -5.81773L-5.08245 -5.81773C-5.08245 -5.76205 -5.04027 -5.70638 -4.96193 -5.6507C-4.23884 -5.13947 -3.51574 -4.62824 -2.77456 -4.10689C-3.02162 -3.76776 -3.28073 -3.4185 -3.55189 -3.049C-4.73898 -3.98034 -5.89593 -4.89145 -7.07699 -5.81267L-7.40239 -5.81267C-7.40239 -5.74181 -7.32405 -5.67095 -7.15533 -5.54441C-6.378 -4.94713 -5.61272 -4.34478 -4.84142 -3.74244C-4.51 -3.4843 -4.1846 -3.22109 -3.84113 -2.96801C-3.71459 -2.8769 -3.66036 -2.80097 -3.75677 -2.66937C-3.95562 -2.39098 -4.1364 -2.10246 -4.3714 -1.7532C-6.04658 -3.11986 -7.67957 -4.45108 -9.35475 -5.81267L-9.60181 -5.81267C-9.60181 -5.76712 -9.54758 -5.70132 -9.45116 -5.62033ZM-4.745 8.59287C-4.11229 6.73017 -3.49164 4.88266 -2.8529 2.99972C-2.46122 3.187 -2.14788 3.33379 -1.84056 3.48058C-1.66582 3.56662 -1.60556 3.66786 -1.67787 3.85008C-2.13583 5.06994 -2.56969 6.28981 -3.0156 7.50967C-3.12406 7.81337 -3.10598 7.82856 -2.73841 7.89436C-1.74415 8.08164 -0.755918 8.27399 0.238341 8.46633C0.732457 8.5625 1.2326 8.66374 1.72672 8.75485C1.87736 8.78016 1.96775 8.82065 1.96172 8.96238C1.9557 9.28126 1.96172 9.59509 1.96172 9.96965C-0.310008 9.62039 -2.48533 9.06361 -4.745 8.59287ZM1.3953 4.79155C1.29286 4.98896 1.18439 5.19142 1.07593 5.38883C0.840922 5.81401 0.865026 5.86463 1.40132 5.95574C1.67851 6.00129 1.96172 6.01648 2.24494 6.04178C2.17263 6.34042 2.11237 6.634 2.02198 6.91746C2.0039 6.9782 1.87736 7.06424 1.8171 7.05412C0.973489 6.94276 0.129876 6.81116 -0.713737 6.68462C-0.725789 6.68462 -0.73784 6.66437 -0.792073 6.61882C-0.478731 5.91018 -0.153337 5.18636 0.172056 4.45242C0.605915 4.5739 0.979515 4.67513 1.3953 4.79155ZM3.32958 4.7055C3.13676 4.91303 2.85957 5.10031 2.74508 5.34327C2.49802 5.85956 2.04608 5.83426 1.53992 5.76846C1.44953 5.75833 1.35312 5.74315 1.19644 5.71784C1.35312 5.4192 1.50376 5.13574 1.66043 4.85229C1.67851 4.81686 1.77492 4.80673 1.83518 4.80167C2.3293 4.76624 2.82341 4.73587 3.32958 4.7055ZM-0.496808 5.33315C-0.683608 5.75833 -0.852331 6.18351 -1.03311 6.60869C-1.10542 6.78079 -1.05118 6.86684 -0.816176 6.89721C-0.352189 6.95795 0.105773 7.05412 0.569761 7.12498C1.03375 7.19079 1.49774 7.24141 1.98583 7.29708C1.96172 7.71214 1.94364 8.12214 1.91954 8.55238C0.352831 8.24868 -1.20183 7.94498 -2.77456 7.64128C-2.31058 6.36067 -1.84056 5.075 -1.36452 3.76403C-0.918615 3.9665 -0.496808 4.15378 -0.0508985 4.35624C-0.201544 4.69031 -0.358214 5.0092 -0.496808 5.33315ZM7.05353 13.28C5.78811 13.2547 4.51667 13.2395 3.25125 13.2344C2.9138 13.2344 2.57636 13.2749 2.25699 13.2952C2.25699 12.3031 2.25699 11.3059 2.25699 10.3088C2.25699 9.9899 2.26301 9.67101 2.25699 9.35212C2.25096 9.12941 2.20878 8.91176 2.20878 8.68905C2.20276 8.27905 2.1907 7.86399 2.22686 7.45399C2.25699 7.12498 2.34135 6.79597 2.41366 6.47203C2.54623 5.87981 2.96803 5.42426 3.40189 4.96871C3.89601 4.45242 4.63718 4.24995 5.23374 3.90576C5.40849 4.04242 5.57721 4.16896 5.76401 4.31069C5.45067 4.49291 5.12527 4.64476 4.86014 4.84723C3.93216 5.55586 3.34163 6.40623 3.14881 7.47424C2.99214 8.33473 3.00419 9.19521 2.98008 10.0557C2.95598 10.8403 3.04034 11.6248 3.07047 12.4094C3.0765 12.541 3.1247 12.5916 3.28138 12.5967C3.52843 12.5967 3.76947 12.627 4.01652 12.6321C5.1072 12.6473 6.19184 12.6776 7.28251 12.6625C8.46357 12.6473 9.65066 12.5714 10.7293 12.1259C11.133 11.9589 11.4704 11.6704 11.826 11.4325C11.9947 11.3211 12.1694 11.2098 12.308 11.0731C12.525 10.8453 12.7118 10.5973 12.9407 10.329C13.1034 10.4859 13.2541 10.6277 13.4108 10.7846C13.0131 11.2806 12.7419 11.8931 12.1453 12.3335C11.374 12.9004 10.5003 13.2192 9.48193 13.2699C8.99384 13.2952 8.50575 13.3357 8.01766 13.3407C7.68624 13.3559 7.3729 13.285 7.05353 13.28ZM1.9798 -1.86456C1.75082 -1.59629 1.59415 -1.36346 1.37119 -1.17111C1.28081 -1.09519 1.0699 -1.08 0.919257 -1.09519C0.220263 -1.18123 -0.46668 -1.34827 -1.16567 -1.36345C-2.00929 -1.3837 -2.84085 -1.25716 -3.52177 -0.766178C-3.53382 -0.756054 -3.55792 -0.761112 -3.66036 -0.75605C-3.27471 -1.25209 -2.93124 -1.71777 -2.55161 -2.1632C-2.23224 -2.5327 -1.75018 -2.60863 -1.25003 -2.49727C-0.749892 -2.38591 -0.261802 -2.229 0.226289 -2.08221C0.78669 -1.92024 1.32901 -1.71777 1.9798 -1.86456ZM-0.773996 -1.13568C-0.219621 -1.10531 0.334754 -0.953455 0.871051 -0.806668C1.29286 -0.695311 1.4194 -0.386551 1.17234 -0.108159C0.292573 0.894054 -0.852331 1.55207 -2.37084 1.56726C-3.19035 1.57232 -3.92549 1.26862 -4.57026 0.843439C-3.80498 -0.680126 -2.642 -1.24703 -0.773996 -1.13568ZM0.64207 0.716898C0.889128 0.529615 1.12413 0.337268 1.36517 0.144926C1.50979 0.0285068 1.64838 -0.0119843 1.84723 0.0791259C2.09429 0.190485 2.35943 0.271469 2.69085 0.392948C1.75684 0.681465 1.35312 1.36985 0.762586 1.89627C0.557709 2.07849 0.358857 2.2759 0.117825 2.43281C-0.328086 2.72132 -0.822202 2.69601 -1.29824 2.49861C-1.80441 2.29108 -2.2925 2.05318 -2.81674 1.81528C-2.42507 1.79503 -2.07557 1.80516 -1.74415 1.75454C-0.828227 1.60775 -0.0388471 1.23825 0.64207 0.716898ZM1.64838 1.32936C2.02198 0.924425 2.49802 0.651096 3.05842 0.489122C3.23919 0.438505 3.4501 0.448629 3.64292 0.433444C3.66703 0.453691 3.69113 0.468875 3.71523 0.489122C3.20304 1.29393 2.7029 2.10886 2.16057 2.90354C2.04006 3.08576 1.793 3.21737 1.58812 3.34897C1.4194 3.45527 1.22657 3.42996 1.02772 3.36416C0.605915 3.23255 0.178082 3.11613 -0.291931 2.97947C0.545657 2.53404 1.09401 1.92664 1.64838 1.32936ZM3.58869 1.09652C3.77549 0.691589 4.0587 0.342332 4.53474 0.114557C4.83001 -0.0221087 5.08309 -0.214453 5.37836 -0.391612C5.21566 -0.0626036 5.04694 0.2411 4.91437 0.559986C4.71552 1.02566 4.69141 1.51158 4.73962 1.9975C4.7818 2.45811 4.49256 2.72132 4.07678 2.94404C3.61882 3.187 3.11868 3.30848 2.58238 3.36416C2.3775 3.3844 2.17865 3.40971 1.96775 3.42996C2.73905 2.76182 3.19099 1.94689 3.58869 1.09652ZM5.10117 2.77194C4.89629 1.84565 4.90232 0.934547 5.42054 0.0740598C5.89658 -0.705439 6.52326 -1.36852 7.58983 -1.65197C7.7465 -1.41913 7.9092 -1.18123 8.04176 -0.978766C7.68624 -0.664942 7.31264 -0.391612 7.01738 -0.0676639C6.57147 0.42332 6.31236 1.00035 6.24005 1.61787C6.20992 1.89627 6.21594 2.18478 6.24005 2.46824C6.31236 3.24268 6.93904 3.66786 7.67419 4.00699C8.27677 4.28538 8.93961 4.36637 9.60847 4.4018C10.205 4.43723 10.7654 4.28538 11.3138 4.10316C11.362 4.08798 11.4162 4.06773 11.4825 4.04748C11.6573 4.29044 11.8199 4.52834 11.9887 4.76118C10.6389 5.73808 8.42139 5.68241 6.9993 4.85735C6.58955 4.61945 6.19787 4.35118 5.81824 4.08292C5.34823 3.74378 5.20963 3.26292 5.10117 2.77194ZM23.1183 -4.24861C22.9797 -3.9196 22.8713 -3.61084 23.0219 -3.28689C23.04 -3.24134 23.0219 -3.17048 22.9858 -3.12998C22.6122 -2.69468 22.1843 -2.45678 21.5396 -2.61875C21.3889 -2.65418 21.2142 -2.82122 21.166 -2.95282C21.0093 -3.4185 21.2744 -3.88924 21.7686 -4.12714C21.8348 -4.15751 21.9373 -4.17269 22.0096 -4.15245C22.3832 -4.04615 22.7327 -4.13726 23.1183 -4.24861ZM27.9992 -4.15751C28.0716 -4.17775 28.186 -4.14738 28.2584 -4.11195C28.7525 -3.84874 28.9815 -3.4185 28.8308 -2.95283C28.7826 -2.81616 28.5958 -2.65419 28.4331 -2.60863C27.9028 -2.46691 27.2822 -2.71493 27.011 -3.12998C26.9869 -3.17048 26.9508 -3.23122 26.9688 -3.26158C27.1617 -3.59566 27.005 -3.90442 26.8905 -4.24355C27.2761 -4.14232 27.6196 -4.04109 27.9992 -4.15751ZM49.7705 -2.08222C50.1803 -2.20876 50.584 -2.34542 50.9998 -2.44666C52.0965 -2.71492 52.4219 -2.36567 52.8738 -1.80888C53.1389 -1.47988 53.3619 -1.13062 53.5607 -0.750992C53.4583 -0.816794 53.3679 -0.897782 53.2534 -0.948399C52.4399 -1.30778 51.5722 -1.45457 50.6563 -1.34321C50.1079 -1.27741 49.5656 -1.16099 49.0233 -1.06988C48.8425 -1.03951 48.7039 -1.05469 48.5955 -1.20654C48.4388 -1.41913 48.2399 -1.61148 48.017 -1.8595C48.6738 -1.7279 49.2222 -1.91518 49.7705 -2.08222ZM52.7111 -0.923091C53.4282 -0.705439 53.8681 -0.209397 54.2778 0.301833C54.4044 0.458745 54.4827 0.640968 54.5972 0.82825C53.8439 1.29899 53.0305 1.60775 52.0965 1.56219C51.6927 1.54195 51.289 1.42047 50.9034 1.29393C50.126 1.03072 49.4813 0.605539 48.963 0.0538173C48.5593 -0.381487 48.6437 -0.65988 49.2523 -0.857287C50.3912 -1.23185 51.5541 -1.27235 52.7111 -0.923091ZM48.6738 0.170232C49.2282 0.565042 49.7705 0.975038 50.3671 1.31417C50.9335 1.63306 51.6024 1.77985 52.2893 1.80516C52.446 1.81022 52.6026 1.77479 52.8256 1.74948C52.7111 1.82034 52.6448 1.87096 52.5725 1.90133C52.0904 2.11392 51.6144 2.3417 51.1203 2.53404C50.5056 2.777 49.9874 2.57959 49.5656 2.19996C49.1197 1.80009 48.728 1.35973 48.2821 0.96492C48.023 0.737144 47.6976 0.554918 47.3963 0.352451C47.6193 0.271463 47.8784 0.195543 48.1134 0.0841861C48.3544 -0.0221104 48.4991 0.0436893 48.6738 0.170232ZM50.2947 2.98453C49.7343 3.14144 49.2342 3.34391 48.7039 3.41477C48.3605 3.46033 48.0772 3.19712 47.8663 2.95416C47.3542 2.367 46.9745 1.72417 46.6612 1.04591C46.5708 0.848499 46.4503 0.661216 46.3237 0.438503C47.2939 0.428381 47.9266 0.868745 48.475 1.4559C48.9871 2.01269 49.5114 2.56947 50.2947 2.98453ZM46.5708 1.39516C46.842 2.12911 47.3059 2.80231 48.0049 3.40465C47.3843 3.37428 46.8239 3.31354 46.3057 3.11107C46.1249 3.04021 45.9562 2.95416 45.7874 2.86305C45.4319 2.66058 45.221 2.39231 45.2511 2.00256C45.3235 1.16739 45.1427 0.372699 44.6064 -0.361244C45.4319 0.0993688 46.2454 0.519491 46.5708 1.39516ZM44.9559 1.09146C45.1306 1.87096 44.992 2.64033 44.7148 3.38946C44.6425 3.58181 44.516 3.77921 44.3533 3.92094C43.5278 4.62958 42.6058 5.22179 41.4127 5.40401C40.3281 5.57105 39.2675 5.51031 38.3215 4.94846C38.219 4.88772 38.1166 4.8371 37.9961 4.7713C38.1708 4.51822 38.3335 4.29044 38.4781 4.09303C38.9662 4.18921 39.4302 4.30563 39.9002 4.37143C40.551 4.46254 41.1958 4.35624 41.8164 4.18415C42.3226 4.04242 42.7685 3.80958 43.1662 3.50588C43.5639 3.20724 43.7206 2.82256 43.7628 2.4075C43.9074 1.04084 43.3169 -0.052479 42.0093 -0.877533C41.9852 -0.892719 41.9671 -0.907902 41.9309 -0.933211C42.0936 -1.17111 42.2503 -1.41407 42.419 -1.66209C43.9014 -1.15086 44.6727 -0.184082 44.9559 1.09146ZM43.1783 6.24425C42.6661 6.29993 42.1659 6.38092 41.6778 6.20376C41.2681 6.05697 40.8764 5.88993 40.545 5.76339C41.1114 5.64697 41.7441 5.53562 42.3588 5.3787C42.642 5.30784 42.9131 5.16611 43.1542 5.01426C43.6242 4.72068 44.0641 4.82192 44.528 5.01932C45.1849 5.29772 45.5886 5.7887 46.0465 6.27462C45.0764 6.11265 44.1243 6.13795 43.1783 6.24425ZM34.3444 11.1946C34.8024 11.1794 35.0977 11.3464 35.3447 11.6349C35.8147 12.1816 35.9352 12.8143 36.0075 13.5078C35.2182 12.8751 34.3083 12.5106 33.3622 12.1968C32.8139 12.0146 32.3378 11.7665 32.0426 11.311C31.8919 11.0782 31.675 10.8807 31.5183 10.6985C32.0124 10.8352 32.5186 11.0174 33.0549 11.1187C33.4707 11.1996 33.9166 11.2098 34.3444 11.1946ZM18.5508 10.6327C17.9542 11.2654 17.5686 11.9842 16.5683 12.2322C15.797 12.4246 14.5617 12.9864 14.0073 13.5078C14.0495 12.7384 14.17 12.3335 14.5255 11.802C14.7907 11.4072 15.1341 11.1693 15.7307 11.1946C16.7069 11.2401 17.2673 11.1845 18.5508 10.6327ZM3.35971 12.3942C3.22112 11.6046 3.30548 10.8605 3.80562 10.2126C4.26358 9.62039 4.9445 9.21546 5.73388 8.96744C6.19787 8.82065 6.68596 8.71435 7.18007 8.65867C7.60188 8.61312 7.80676 8.79534 7.7706 9.15978C7.70432 9.9241 7.34277 10.5973 6.82455 11.2199C6.0894 12.1006 5.05899 12.4398 3.81165 12.3891C3.661 12.3891 3.51638 12.3942 3.35971 12.3942ZM3.95627 6.28475C4.50461 5.68241 5.01681 5.09019 5.92068 4.8776C6.20389 4.8118 6.45698 4.8118 6.72211 4.96365C7.56572 5.45463 8.50575 5.70771 9.5904 5.69759C8.63832 6.11265 7.75252 6.44672 6.65583 6.23919C5.79414 6.07722 4.88424 6.11265 3.95627 6.28475ZM10.675 5.65204C11.0185 5.5508 11.362 5.4445 11.7115 5.34327C11.4524 5.93549 11.2113 6.52771 10.9342 7.10474C10.5606 7.87917 9.90977 8.41065 8.92153 8.60806C8.69858 8.65361 8.45152 8.62324 8.21651 8.59793C7.94535 8.56756 7.82484 8.39547 7.80676 8.17275C7.74047 7.44893 8.10202 6.88202 8.74679 6.42647C9.30719 6.02154 10.0002 5.84438 10.675 5.65204ZM6.05325 6.39104C6.6498 6.40623 7.24636 6.5024 7.86099 6.56314C7.5597 7.07437 7.0234 7.35782 6.39069 7.49449C5.87247 7.60584 5.33015 7.6514 4.8059 7.75263C4.29974 7.84881 3.7996 7.98041 3.2874 8.10189C3.37779 7.70202 3.43202 7.25659 3.60677 6.84659C3.67908 6.6745 4.0105 6.51252 4.2455 6.48215C4.84206 6.40116 5.45067 6.37586 6.05325 6.39104ZM4.37205 8.04621C4.77578 7.9551 5.19758 7.90448 5.61939 7.84374C6.24005 7.75263 6.87276 7.69696 7.42111 7.30214C7.39098 7.63115 7.38495 7.91461 7.31867 8.18288C7.29456 8.26893 7.10776 8.35498 6.97519 8.38534C6.04119 8.603 5.12527 8.84596 4.37205 9.38756C3.90203 9.72669 3.4501 10.0759 3.29343 10.6125C3.2633 10.6074 3.22714 10.6024 3.19701 10.5973C3.2392 10.0557 3.27535 9.51916 3.32356 8.97756C3.37176 8.43596 3.81165 8.17781 4.37205 8.04621ZM7.93932 9.72163C8.18638 9.02818 8.19843 9.02818 9.0541 8.96237C9.13243 8.95731 9.2168 8.94719 9.34937 8.93707C8.66845 9.69632 8.77089 10.5973 8.5178 11.4122C8.3069 12.0804 7.98151 12.3385 7.18007 12.4296C7.03546 12.4448 6.88481 12.4549 6.73416 12.4549C6.3003 12.46 5.86645 12.4549 5.39644 12.4549C6.85468 11.9133 7.52354 10.901 7.93932 9.72163ZM9.04808 10.1519C9.13244 9.68113 9.35539 9.27114 9.71694 8.91176C9.86156 8.77003 10.0604 8.67386 10.3075 8.50682C10.3677 9.39262 10.4461 10.2075 10.4581 11.0174C10.4641 11.3059 10.3195 11.5995 10.2231 11.883C10.1689 12.0551 10.0182 12.1512 9.79528 12.1816C9.32526 12.2474 8.85525 12.3385 8.34908 12.4246C8.80102 11.6906 8.90948 10.9162 9.04808 10.1519ZM10.6931 9.93928C10.675 9.58496 10.5847 9.23571 10.5485 8.88139C10.5123 8.55744 10.6208 8.2588 10.8016 7.97029C10.9583 7.72226 11.0788 7.44893 11.2415 7.14017C11.2776 7.42869 11.3017 7.67165 11.3439 7.90955C11.4403 8.46127 11.6874 8.96744 12.073 9.41287C12.3623 9.752 12.3502 10.0962 12.1634 10.4454C11.838 11.063 11.2234 11.4578 10.5606 11.8678C10.7895 11.1895 10.7293 10.5619 10.6931 9.93928ZM12.8745 9.97977C12.2779 9.36225 11.7717 8.70929 11.6151 7.90955C11.4162 6.89215 11.5669 5.93549 12.4045 5.10031C12.6816 5.24204 12.9649 5.3787 13.1758 5.485C13.0492 6.01647 12.8383 6.50746 12.8323 6.99844C12.8202 7.84881 13.0914 8.65361 13.7783 9.33188C14.3387 9.8836 15.0679 9.98483 15.8572 9.96459C16.5623 9.9494 17.2372 9.77224 17.8156 9.45842C18.3278 9.18003 18.7617 8.79534 19.2558 8.4309C19.4667 8.53213 19.7499 8.66373 20.0331 8.8004C19.527 10.1367 17.5445 11.0377 16.1706 10.9719C15.6885 10.9516 15.2125 10.9111 14.7304 10.8757C13.9531 10.82 13.3626 10.4859 12.8745 9.97977ZM21.6721 3.51094C21.6842 3.50082 21.7083 3.50588 21.7746 3.4907C21.6119 4.05254 21.4673 4.59414 21.2925 5.12562C21.2684 5.20154 21.1117 5.27241 20.9973 5.28759C20.2199 5.39389 19.7077 5.77858 19.539 6.40116C19.3643 7.04906 19.6595 7.75769 20.5574 7.97029C21.7746 8.2588 22.6785 7.31227 22.5158 6.44166C22.4314 6.01141 22.1783 5.69253 21.7927 5.42932C21.7324 5.38883 21.6601 5.30278 21.6721 5.25216C21.8529 4.70044 22.0578 4.14872 22.2506 3.59193C22.4495 3.88045 22.6061 4.16896 22.8231 4.42205C23.281 4.94846 23.974 5.17118 24.679 5.37364C24.7513 5.39389 24.8658 5.46475 24.8658 5.50019C24.8056 5.94561 24.7995 6.41129 24.6308 6.83141C24.1789 7.9551 23.2087 8.58275 21.7927 8.6688C21.3287 8.69411 20.8406 8.71435 20.3947 8.61818C19.9608 8.52201 19.545 8.31448 19.1775 8.09176C18.6894 7.79312 18.2254 7.44893 17.9783 6.96301C17.8578 6.72511 17.7734 6.47203 17.7313 6.21388C17.6168 5.44957 17.894 4.75106 18.3459 4.0981C18.3821 4.04242 18.5146 3.98168 18.5809 3.99687C19.7077 4.23476 20.7562 4.18415 21.6721 3.51094ZM20.8406 -2.3353C20.6056 -1.95061 20.5031 -1.56592 20.5815 -1.15086C20.5935 -1.10025 20.5453 -1.01926 20.4911 -0.988893C20.232 -0.831981 19.9789 -0.664945 19.6957 -0.538404C19.3944 -0.406799 19.081 -0.477664 18.8521 -0.685193C18.6231 -0.88766 18.5387 -1.13062 18.7074 -1.37864C18.8581 -1.60642 19.0449 -1.81395 19.2257 -2.02654C19.2678 -2.07209 19.3582 -2.12271 19.4125 -2.11258C19.9126 -2.05184 20.3826 -2.13283 20.8406 -2.3353ZM20.8767 -1.80888C20.9189 -1.90506 20.9671 -2.00123 21.0214 -2.09234C21.2262 -2.43653 21.2262 -2.43147 21.6842 -2.36061C22.0638 -2.29987 22.4073 -2.4011 22.7869 -2.60356C22.7086 -2.13789 22.9195 -1.80382 23.2449 -1.50518C23.2871 -1.46975 23.3232 -1.39889 23.3051 -1.35333C23.1304 -0.735807 22.2506 -0.325813 21.5516 -0.533342C21.1358 -0.659885 20.6116 -1.22173 20.8767 -1.80888ZM28.5717 -2.40617C28.632 -2.42135 28.7464 -2.39098 28.7826 -2.35048C29.2104 -1.87975 29.3972 -1.29259 28.8549 -0.791486C28.415 -0.386552 27.6799 -0.35618 27.1918 -0.750991C27.011 -0.897781 26.8664 -1.08 26.7338 -1.26222C26.6916 -1.32296 26.7097 -1.46469 26.77 -1.52037C27.0833 -1.81901 27.2761 -2.14801 27.2159 -2.60356C27.6739 -2.34036 28.1077 -2.28975 28.5717 -2.40617ZM30.5421 -2.10752C30.6145 -2.11259 30.7229 -2.08221 30.7651 -2.04172C30.9519 -1.83419 31.1447 -1.62666 31.2833 -1.39889C31.4581 -1.11543 31.3918 -0.887659 31.1266 -0.670006C30.8796 -0.467539 30.5964 -0.411857 30.277 -0.553585C30.0058 -0.675066 29.7588 -0.837043 29.5117 -0.988893C29.4575 -1.01926 29.4093 -1.10025 29.4213 -1.15087C29.5238 -1.58617 29.3731 -1.97592 29.1381 -2.36061C29.5901 -2.1379 30.048 -2.06197 30.5421 -2.10752ZM30.4276 4.10316C30.7591 4.06267 31.0905 4.02217 31.4219 3.99686C31.4942 3.9918 31.6027 4.04242 31.6388 4.09303C32.2113 4.88772 32.4403 5.74821 32.1631 6.65425C32.0727 6.94782 31.8497 7.23634 31.6147 7.47424C31.3375 7.75263 30.9881 7.98041 30.6506 8.20818C29.8974 8.70929 29.0297 8.83077 28.1077 8.65867C27.6799 8.57769 27.246 8.48152 26.8363 8.34991C26.3602 8.19806 26.071 7.86399 25.7817 7.51979C25.2575 6.90733 25.2033 6.21388 25.137 5.51031C25.131 5.46981 25.2033 5.38883 25.2515 5.3787C26.4145 5.1155 27.3304 4.61945 27.7462 3.58687C27.939 4.13353 28.1378 4.67513 28.3186 5.22685C28.3367 5.28759 28.2644 5.39895 28.1921 5.4445C27.5774 5.85956 27.3726 6.3961 27.5232 7.03387C27.6377 7.51473 28.2945 7.95004 28.8609 8.00572C29.2948 8.04621 29.6563 7.93992 29.9878 7.73239C30.5662 7.36795 30.6928 6.47709 30.2529 5.96586C29.9396 5.60648 29.5599 5.33821 29.0056 5.29772C28.7766 5.28253 28.7043 5.17118 28.6621 4.99402C28.5536 4.54353 28.409 4.10316 28.2825 3.65267C28.2704 3.60712 28.2644 3.56156 28.2463 3.47045C28.4632 3.59193 28.638 3.6881 28.8127 3.78427C29.3068 4.0576 29.8431 4.16896 30.4276 4.10316ZM34.3143 6.86684C34.3263 6.69474 34.3384 6.52264 34.3143 6.35055C34.2902 6.18857 34.2239 6.03166 34.1757 5.8545C34.3384 5.87475 34.489 5.90512 34.6457 5.91524C34.8024 5.92536 34.9651 5.91524 35.1459 5.91524C35.3989 6.48215 35.5134 7.05412 35.2844 7.64634C35.0374 8.27399 34.5493 8.50682 33.7057 8.37016C33.2236 8.29423 32.8078 8.09177 32.4583 7.79313C32.3198 7.67671 32.1872 7.55017 32.0486 7.42868C32.1932 7.18066 32.3318 6.94782 32.4764 6.6998C32.6331 6.82128 32.7777 6.96301 32.9585 7.06931C33.1332 7.1756 33.3321 7.26165 33.537 7.31733C33.9588 7.44387 34.2781 7.25153 34.3143 6.86684ZM32.8681 8.32966C33.3743 8.61312 33.9528 8.69917 34.5493 8.59793C35.1278 8.50176 35.64 7.82856 35.646 7.20091C35.646 6.9782 35.6581 6.75042 35.6219 6.53277C35.5857 6.31511 35.4954 6.10253 35.423 5.87981C35.7786 5.7887 36.116 5.70265 36.4896 5.60648C36.7849 6.07722 36.9536 6.57832 36.9174 7.10474C36.8813 7.61597 36.7789 8.12213 36.4836 8.59793C36.0979 9.20533 35.6098 9.67101 34.7301 9.72163C33.1814 9.80767 31.9582 9.32175 31.0363 8.2588C31.3195 8.03609 31.5846 7.82856 31.8377 7.62609C32.1812 7.86905 32.5005 8.1272 32.8681 8.32966ZM34.007 6.24931C34.0492 6.42141 34.0431 6.60869 34.013 6.78079C33.9648 7.03893 33.7659 7.12498 33.4767 7.03387C33.1091 6.91746 32.832 6.70486 32.621 6.43153C32.5608 6.35055 32.5427 6.23919 32.5367 6.13796C32.5005 5.72796 32.4824 5.32303 32.4644 5.01933C32.7295 5.16612 33.073 5.39895 33.4526 5.55586C33.8142 5.70771 33.9286 5.96586 34.007 6.24931ZM24.438 9.02311C24.7574 9.45336 25.2455 9.4483 25.5648 9.01805C25.7516 8.75991 25.8721 8.46633 26.0228 8.18794C26.2277 8.29929 26.4747 8.42584 26.7097 8.5625C26.7459 8.58275 26.7881 8.64349 26.776 8.67892C26.6254 9.30657 26.3663 9.88866 25.7034 10.2683C25.0345 10.6479 24.6127 10.5568 23.9499 10.0304C23.504 9.67607 23.3292 9.19015 23.2087 8.69411C23.1967 8.65361 23.2389 8.58781 23.281 8.5625C23.516 8.4309 23.7511 8.30435 23.962 8.193C24.1247 8.47645 24.2512 8.76497 24.438 9.02311ZM24.2873 7.89436C24.2873 7.74251 24.4681 7.59066 24.5645 7.43881C24.7272 7.17054 24.8779 6.89721 24.9924 6.70487C25.1972 7.02881 25.4564 7.41856 25.6914 7.8235C25.7396 7.90954 25.7275 8.04621 25.6793 8.14238C25.5528 8.41065 25.4202 8.67892 25.2394 8.91682C25.1249 9.06867 24.9201 9.05855 24.7513 8.92694C24.3958 8.64855 24.2934 8.27399 24.2873 7.89436ZM23.1605 9.33694C23.4437 9.96965 23.9077 10.4556 24.7031 10.6732C25.2455 10.82 25.6733 10.5922 26.0469 10.324C26.5229 9.9899 26.8302 9.55459 26.9447 9.03324C26.9688 8.91682 27.0231 8.80546 27.0592 8.69411C27.3726 8.74978 27.6618 8.81559 27.9571 8.85608C28.1077 8.87633 28.1439 8.92188 28.1258 9.04336C28.0475 9.67607 27.7883 10.2329 27.3123 10.734C26.7459 11.3262 26.065 11.7514 25.1671 11.888C24.9743 11.9184 24.7513 11.888 24.5645 11.8323C23.0581 11.4173 22.2145 10.5112 21.8831 9.24077C21.8529 9.13447 21.877 9.02312 21.877 8.89151C22.2084 8.82571 22.5579 8.75991 22.9376 8.68904C23.0099 8.9067 23.0641 9.12941 23.1605 9.33694ZM24.2994 2.45812C24.2934 2.70614 24.3175 2.96428 24.3838 3.20218C24.444 3.42489 24.7694 3.59699 25.0104 3.58181C25.3117 3.56662 25.5166 3.41477 25.6311 3.187C25.7878 2.86811 25.7456 2.53404 25.6612 2.20503C25.6251 2.05824 25.601 1.91145 25.5648 1.74948C25.8179 1.88108 26.0469 2.00256 26.2759 2.12404C26.312 2.14429 26.3602 2.17972 26.3602 2.21009C26.4386 2.79219 26.4807 3.36416 26.0107 3.87032C25.3479 4.57896 24.2813 4.42205 23.7993 3.63748C23.5221 3.187 23.5522 2.70107 23.6426 2.22021C23.6486 2.17972 23.7149 2.13417 23.7691 2.10886C23.98 1.99244 24.197 1.87602 24.432 1.74948C24.3838 1.99244 24.3054 2.22528 24.2994 2.45812ZM24.7574 1.65837C24.8056 1.50652 24.902 1.36479 24.9984 1.16739C25.3358 1.78491 25.5407 2.367 25.4202 3.00477C25.384 3.19712 25.2696 3.33885 25.0225 3.34897C24.7574 3.3591 24.6368 3.20724 24.5826 3.00983C24.4561 2.54416 24.6188 2.1038 24.7574 1.65837ZM23.3714 2.25565C23.3714 2.6049 23.3353 2.93391 23.3775 3.2528C23.4498 3.82477 24.0463 4.37649 24.6368 4.51822C25.4443 4.7055 26.2156 4.19427 26.4868 3.66279C26.6856 3.27304 26.7097 2.86305 26.6374 2.44799C26.6254 2.39737 26.6374 2.34169 26.6374 2.27589C26.6916 2.26577 26.7097 2.26071 26.7278 2.26071C27.469 2.2354 27.5112 2.26577 27.5172 2.89848C27.5292 3.7944 27.0773 4.46254 26.1132 4.85735C25.7878 4.98896 25.4323 5.16105 25.0888 5.15599C24.1488 5.1408 23.4016 4.76118 22.8653 4.0981C22.4434 3.57675 22.3952 3.00478 22.564 2.4075C22.582 2.35182 22.6664 2.26577 22.7267 2.26071C22.9315 2.24046 23.1364 2.25565 23.3714 2.25565ZM29.9576 6.14302C30.042 6.32524 30.0721 6.52264 30.1264 6.71499C30.0842 7.38313 29.4394 7.81844 28.6681 7.66658C28.3005 7.59572 28.1559 7.32745 27.9932 7.08955C27.6618 6.59857 27.7642 5.8545 28.5295 5.58117C29.0357 5.39895 29.7166 5.64191 29.9576 6.14302ZM28.2885 3.1465C28.0233 2.8833 27.8848 2.52898 27.6919 2.20503C27.9751 2.06331 28.18 1.96207 28.3307 1.88614C28.638 2.2354 28.9031 2.60996 29.2586 2.91873C29.8733 3.45021 31.0242 3.44514 31.5243 2.92379C31.9823 2.45305 32.0486 1.90639 31.8076 1.34961C31.675 1.04084 31.452 0.76245 31.2652 0.468872C31.4581 0.3727 31.6629 0.271466 31.8738 0.170233C32.9344 0.904175 33.0007 2.21009 32.3137 2.97947C32.0185 3.31354 31.7835 3.68304 31.2592 3.7944C30.1264 4.04242 29.0839 3.926 28.2885 3.1465ZM30.5783 2.32145C30.8856 2.18478 31.0061 1.9317 30.8374 1.52677C30.7289 1.2585 30.4819 1.03072 30.283 0.787762C30.2107 0.69665 30.1143 0.62072 30.0299 0.52961C30.5843 0.408129 30.982 0.539738 31.2592 0.919363C31.5665 1.33442 31.7594 1.76466 31.6208 2.27083C31.3616 3.20724 30.1685 3.25786 29.5057 2.82255C29.0718 2.5391 28.8248 2.14935 28.6259 1.73429C28.6079 1.6938 28.6018 1.63812 28.6199 1.60269C28.7404 1.40022 28.873 1.19776 28.9875 1.01554C29.1984 1.37492 29.3852 1.74442 29.6383 2.08861C29.8552 2.38219 30.277 2.45811 30.5783 2.32145ZM30.4819 1.37491C30.5542 1.47615 30.6144 1.58751 30.6386 1.70392C30.6747 1.87602 30.6566 2.07849 30.4276 2.12404C30.277 2.15441 30.036 2.10886 29.9275 2.01775C29.4997 1.66343 29.3792 1.17751 29.2285 0.711836C29.1863 0.575171 29.1863 0.428378 29.1683 0.246157C29.7467 0.554921 30.1505 0.934548 30.4819 1.37491ZM28.4572 1.41541C28.1137 1.88108 27.3605 2.13417 26.7338 2.00763C25.8059 1.82034 25.2756 1.28887 25.131 0.458752C25.3298 0.392951 25.5226 0.332207 25.7215 0.266406C25.8601 0.509366 25.9806 0.772572 26.1493 1.00541C26.4566 1.43565 26.8182 1.52676 27.4388 1.37997C27.8245 1.28886 28.1378 0.878868 28.0896 0.52455C28.0535 0.276528 28.0354 0.0234455 28.0053 -0.244823C28.1981 -0.270132 28.3969 -0.295438 28.6199 -0.325809C28.9634 0.281594 28.873 0.853558 28.4572 1.41541ZM27.7944 0.215788C27.7944 0.342331 27.8185 0.468872 27.8124 0.595416C27.8064 0.924424 27.5955 1.13195 27.1797 1.22813C26.9025 1.29393 26.5229 1.1522 26.3663 0.909237C26.2518 0.727017 26.1614 0.534674 26.065 0.347392C26.0047 0.220849 26.0409 0.114558 26.1192 -0.0221076C26.306 -0.346056 26.4265 -0.695314 26.5531 -0.973707C26.77 -0.811733 27.0231 -0.548528 27.3485 -0.406801C27.6859 -0.260011 27.7944 -0.0676647 27.7944 0.215788ZM24.9261 0.200602C24.1608 0.175294 23.51 -0.664943 23.8113 -1.2521C23.8414 -1.31284 23.9559 -1.36345 24.0403 -1.38876C24.5224 -1.53049 24.7694 -1.70765 25.0044 -2.10752C25.2093 -1.72284 25.5287 -1.48493 25.9746 -1.38876C26.1553 -1.35333 26.2096 -1.26728 26.2337 -1.13062C26.3723 -0.421981 25.7396 0.230971 24.9261 0.200602ZM26.5229 -1.64185C26.4325 -1.58111 26.2698 -1.5558 26.1493 -1.57099C25.5769 -1.63679 25.0767 -2.17839 25.1249 -2.66937C25.131 -2.7048 25.137 -2.76048 25.1611 -2.77566C25.5407 -2.97307 25.5708 -3.32739 25.7034 -3.63615C25.9806 -3.42356 26.1915 -3.12998 26.6254 -3.12998C26.6675 -3.12998 26.7158 -3.07937 26.7459 -3.04394C27.1014 -2.61875 27.005 -1.97592 26.5229 -1.64185ZM25.2455 -3.19073C25.2033 -3.10974 25.0767 -3.01357 24.9984 -3.01357C24.914 -3.01357 24.7935 -3.1148 24.7453 -3.19073C24.4259 -3.76776 24.685 -4.29417 24.9924 -4.8712C25.3238 -4.28911 25.5708 -3.76776 25.2455 -3.19073ZM24.8417 -2.78072C24.8598 -2.7706 24.8719 -2.74023 24.8779 -2.71999C25.0225 -2.26444 24.3235 -1.56086 23.7631 -1.56592C23.3955 -1.57098 22.9376 -2.18345 23.04 -2.51752C23.0882 -2.66431 23.1364 -2.80604 23.1907 -2.94776C23.2389 -3.06418 23.3413 -3.10467 23.4859 -3.15529C23.7511 -3.25652 23.974 -3.43368 24.215 -3.58047C24.2452 -3.59566 24.2512 -3.63615 24.2873 -3.69183C24.4139 -3.32233 24.4621 -2.97813 24.8417 -2.78072ZM23.3353 -0.918029C23.3895 -0.958522 23.4196 -1.0142 23.504 -1.10531C23.4859 -0.62951 23.6366 -0.254949 23.9499 0.0689989C23.9861 0.10443 23.9921 0.180354 23.974 0.225909C23.8414 0.489117 23.739 0.767512 23.5522 1.00035C23.3473 1.2585 23.0038 1.29899 22.6423 1.18257C22.3591 1.09652 22.1723 0.858624 22.1783 0.559985C22.1783 0.377764 22.1964 0.195542 22.2265 0.0133216C22.2567 -0.14359 22.335 -0.244825 22.5338 -0.335935C22.8351 -0.482725 23.0762 -0.720624 23.3353 -0.918029ZM21.9915 -0.244823C21.9674 0.0285079 21.9313 0.301835 21.9252 0.580228C21.9132 0.959853 22.1723 1.27874 22.5459 1.37997C23.1244 1.53689 23.5281 1.45084 23.8113 1.06615C23.9921 0.818131 24.1247 0.544797 24.2813 0.276526C24.4681 0.337267 24.667 0.398013 24.8598 0.458752C24.7453 1.31924 24.197 1.77479 23.3955 1.98738C22.7387 2.15947 22.0819 2.00256 21.642 1.52677C21.1238 0.969981 20.9912 0.347394 21.3769 -0.320749C21.5998 -0.29544 21.7927 -0.270131 21.9915 -0.244823ZM20.3465 2.1038C20.6056 1.7596 20.7924 1.37491 21.0093 1.0206C21.1238 1.19776 21.2503 1.39516 21.3769 1.60269C21.395 1.63306 21.407 1.67861 21.3889 1.70899C21.172 2.16454 20.8948 2.57959 20.4128 2.88329C20.0753 3.09588 19.2558 3.16675 18.8822 2.92885C18.4905 2.68083 18.2374 2.15441 18.3519 1.6938C18.4544 1.27874 18.7074 0.929484 19.0268 0.605536C19.0569 0.575166 19.1172 0.539738 19.1594 0.539738C19.4245 0.524552 19.6836 0.514428 20.003 0.499242C19.8282 0.6764 19.6656 0.823193 19.527 0.990229C19.3884 1.15726 19.2558 1.33442 19.1594 1.5217C18.9907 1.84565 19.0991 2.16454 19.4064 2.31639C19.7077 2.45811 20.1295 2.39231 20.3465 2.1038ZM20.1356 1.97219C19.997 2.13416 19.7861 2.24046 19.545 2.11898C19.304 2.00256 19.3161 1.80009 19.4004 1.61281C19.6656 1.04084 20.1717 0.640973 20.7803 0.306903C20.7683 0.924428 20.5634 1.48121 20.1356 1.97219ZM18.4544 0.883929C18.0627 1.44577 17.906 2.02281 18.2676 2.65046C18.605 3.23255 19.2377 3.40465 19.9548 3.26798C20.7442 3.11613 21.166 2.63527 21.4853 2.0633C21.5155 2.01269 21.5396 1.96207 21.5697 1.91145C21.5818 1.89121 21.5998 1.87602 21.6119 1.86083C21.8288 1.96713 22.0337 2.07342 22.2506 2.17466C21.9915 3.35403 20.7381 3.926 19.8282 3.90069C19.5089 3.89057 19.1895 3.87032 18.8762 3.82477C18.5628 3.77921 18.2736 3.66279 18.0928 3.43502C17.8397 3.12119 17.5324 2.81749 17.3878 2.46824C17.0805 1.71911 17.213 1.00035 17.8759 0.387887C17.9602 0.311963 18.0386 0.236035 18.1169 0.165171C18.3338 0.271468 18.5387 0.372704 18.7677 0.484061C18.6653 0.615664 18.5508 0.747264 18.4544 0.883929ZM21.1539 5.51537C21.5336 5.52043 21.9674 5.7887 22.094 6.10759C22.2868 6.58339 22.0819 7.22622 21.6179 7.54004C21.5215 7.60584 21.3709 7.67671 21.2624 7.66152C20.9129 7.61597 20.5513 7.56535 20.238 7.44387C19.8765 7.30214 19.9247 6.97313 19.9126 6.72511C19.9186 6.00129 20.4369 5.51031 21.1539 5.51537ZM16.496 7.31733C16.8033 7.20091 17.0745 7.0035 17.3516 6.83647C17.4119 6.80104 17.442 6.73523 17.4963 6.66943C17.659 6.92758 17.7976 7.14523 17.9241 7.36288C17.9422 7.39832 17.9301 7.47424 17.9 7.50461C17.5023 7.84374 17.0925 8.16769 16.5442 8.33979C15.6644 8.61312 14.8329 8.24868 14.6521 7.46412C14.5316 6.9377 14.6159 6.42141 14.857 5.94055C15.1823 5.9203 15.5017 5.90006 15.8151 5.87981C15.7608 6.0924 15.6885 6.30499 15.6644 6.51758C15.6463 6.66943 15.6644 6.83647 15.7126 6.98832C15.8151 7.3072 16.1284 7.45905 16.496 7.31733ZM17.4722 6.18857C17.4601 6.29993 17.4119 6.43153 17.3275 6.51252C17.1528 6.6745 16.96 6.84153 16.731 6.94783C16.5683 7.02375 16.279 7.08449 16.1646 7.01363C16.026 6.92758 15.9476 6.69474 15.9537 6.53277C15.9597 6.31005 16.0139 6.05697 16.1585 5.87475C16.3032 5.69253 16.5803 5.58117 16.8093 5.44957C17.0684 5.29266 17.3336 5.14587 17.5384 5.02945C17.5204 5.36858 17.5083 5.77858 17.4722 6.18857ZM14.5798 5.87981C14.5376 6.01648 14.4894 6.1582 14.4472 6.29993C14.2905 6.81116 14.2845 7.32745 14.5195 7.81844C14.9172 8.63843 15.6524 8.8004 16.7189 8.49164C17.0021 8.41065 17.2673 8.27399 17.5083 8.12214C17.7373 7.97535 17.9181 7.77288 18.1229 7.59066C18.4242 7.8235 18.6894 8.03103 18.9666 8.24868C18.2615 9.13953 17.2613 9.59509 16.026 9.71657C15.7488 9.74187 15.4656 9.73175 15.1884 9.7115C14.3448 9.6457 13.8808 9.17497 13.5253 8.58781C13.1577 7.97535 13.0131 7.32239 13.1215 6.64919C13.1758 6.29487 13.3445 5.95067 13.459 5.59636C13.8687 5.70265 14.2062 5.7887 14.5798 5.87981ZM20.1235 9.43311C20.232 9.89372 20.3344 10.3645 20.4489 10.8352C20.5996 11.4426 20.6176 12.0399 20.3344 12.6321C20.1295 13.0522 19.7981 13.3812 19.3402 13.609C18.8521 13.8469 18.5628 13.776 18.3097 13.3458C17.9783 12.789 17.9482 12.2069 18.2133 11.6198C18.4905 11.0022 19.0208 10.5315 19.5209 10.0506C19.7318 9.83804 19.9367 9.62545 20.1235 9.43311ZM14.5436 13.3913C15.2306 13.0421 15.9416 12.7384 16.6526 12.4246C16.9238 12.3031 17.2191 12.212 17.5324 12.1006C17.5505 12.8194 17.1227 13.3255 16.5201 13.7659C15.9295 14.1962 15.3571 14.6517 14.7846 15.0971C14.6882 15.1731 14.628 15.2743 14.5195 15.4008C14.3689 15.0566 14.2122 14.7378 14.0917 14.4138C13.929 13.9532 14.0435 13.6495 14.5436 13.3913ZM15.5077 14.7681C15.9476 14.4239 16.4357 14.1152 16.8756 13.7659C17.1588 13.5432 17.3818 13.2699 17.6409 13.0117C17.7614 13.2344 17.9241 13.4875 18.0265 13.7608C18.0567 13.8368 17.9361 13.9734 17.8578 14.0645C17.436 14.4999 16.972 14.9099 16.5864 15.3705C16.1585 15.8817 15.9717 16.4891 15.9054 17.1117C15.8934 17.2382 15.9476 17.3749 15.9717 17.5065C15.9476 17.5166 15.9235 17.5267 15.8994 17.5369C15.6283 17.0965 15.339 16.6612 15.0859 16.2158C14.7244 15.6033 14.9775 15.1781 15.5077 14.7681ZM16.1826 17.1522C16.1646 16.7371 16.3514 16.2967 16.5442 15.8969C16.8575 15.2389 17.3818 14.6922 18.0627 14.267C18.5086 13.9886 18.8581 14.0696 19.063 14.5049C19.4908 15.411 19.5631 16.3322 19.2377 17.2737C18.9967 17.9671 18.376 18.3872 17.7072 18.7719C17.5204 18.8782 17.3034 18.944 17.0865 19.0402C16.5321 18.4733 16.2188 17.8355 16.1826 17.1522ZM19.2317 17.8355C19.78 16.9143 19.8041 15.9475 19.5209 14.9655C19.4607 14.7529 19.3643 14.5403 19.3281 14.3227C19.31 14.2265 19.3522 14.0848 19.4305 14.0241C19.6776 13.8469 19.9548 13.7001 20.2742 13.5128C20.1175 14.0089 20.2983 14.4189 20.473 14.8289C20.6478 15.2389 20.8466 15.6438 20.9912 16.0639C21.2202 16.7422 21.0334 17.1421 20.3284 17.5217C19.8945 17.7545 19.4486 17.9722 18.9666 18.1594C19.0509 18.0582 19.1594 17.957 19.2317 17.8355ZM20.5935 14.4391C20.3826 13.8773 20.4429 13.3559 20.8165 12.7991C21.3468 13.4673 21.8469 14.1 22.347 14.7327C22.5941 15.0465 22.7508 15.4008 22.7688 15.7754C22.7749 15.907 22.6483 16.074 22.5278 16.1753C22.1964 16.4486 21.8288 16.6966 21.4311 16.9902C21.413 16.0386 20.9008 15.2642 20.5935 14.4391ZM21.395 13.1737C21.0575 12.8244 20.8948 12.4195 20.8948 11.9589C20.8948 11.7058 20.8406 11.4578 20.7984 11.144C20.8767 11.23 20.9129 11.2705 20.943 11.311C21.395 11.964 22.0216 12.4651 22.8291 12.7789C23.3775 12.9915 23.5643 13.3407 23.5823 13.7963C23.6125 14.4087 23.3353 14.9605 23.034 15.5426C22.6785 14.6264 22.0819 13.8823 21.395 13.1737ZM24.444 13.0775C23.4919 12.8953 22.6182 12.546 21.9072 11.9791C21.2323 11.4477 20.7803 10.7846 20.6056 10.0152C20.5272 9.67101 20.5513 9.31669 20.5272 8.93707C20.8767 8.93707 21.166 8.92694 21.4552 8.94719C21.5155 8.95225 21.6059 9.05855 21.6179 9.12435C21.7625 10.3088 22.5338 11.1541 23.6848 11.7716C24.5645 12.2474 25.4805 12.2322 26.3542 11.7514C27.4027 11.1794 28.1137 10.3999 28.3487 9.34706C28.4391 8.93201 28.4512 8.93201 28.9574 8.93201C29.108 8.93201 29.2586 8.93201 29.4213 8.93201C29.6021 10.0253 29.1803 10.9212 28.3849 11.7109C27.6076 12.4853 26.5591 12.8801 25.4202 13.1028C25.1129 13.1686 24.7574 13.1383 24.444 13.0775ZM29.8793 9.43817C30.3493 9.91397 30.8495 10.3796 31.2954 10.8757C31.9401 11.5894 32.1812 12.379 31.7473 13.2395C31.4219 13.8874 30.9639 13.8925 30.2951 13.3711C29.3852 12.6726 29.343 11.7767 29.5479 10.8403C29.6563 10.3746 29.7708 9.90385 29.8793 9.43817ZM26.9508 12.8953C27.8667 12.5005 28.632 11.9842 29.1622 11.1591C29.1743 12.0652 29.0236 12.8447 28.3005 13.5229C27.698 14.0949 27.234 14.7681 26.9749 15.5577C26.6013 14.7985 26.1975 14.0797 26.5591 13.2648C26.6193 13.1231 26.782 12.9712 26.9508 12.8953ZM27.3846 15.1984C27.8064 14.5808 28.2825 13.9886 28.7404 13.3913C28.885 13.2041 29.0357 13.0218 29.1984 12.8194C29.6804 13.4926 29.5599 14.1455 29.2707 14.8086C29.0297 15.3654 28.8248 15.9374 28.6259 16.5043C28.5777 16.6359 28.5958 16.7827 28.5777 16.9953C28.1318 16.6561 27.6799 16.3828 27.3304 16.0285C27.0954 15.8007 27.2159 15.4464 27.3846 15.1984ZM28.9754 16.2107C29.0959 15.8058 29.3008 15.416 29.4394 15.0161C29.572 14.6416 29.6865 14.2569 29.7829 13.8722C29.807 13.771 29.7588 13.6546 29.7407 13.5229C30.036 13.7001 30.3011 13.852 30.5542 14.0139C30.7289 14.1253 30.6928 14.2721 30.6386 14.4239C30.4337 15.0263 30.2589 15.6337 30.3011 16.2664C30.3312 16.7979 30.4337 17.3243 30.741 17.8001C30.8193 17.9216 30.9278 18.0329 31.0001 18.1949C30.6566 18.0228 30.3071 17.8608 29.9697 17.6836C29.7467 17.5672 29.5298 17.4356 29.331 17.2939C28.9152 17.0104 28.8549 16.6156 28.9754 16.2107ZM30.5903 16.5397C30.518 15.826 30.6446 15.1477 30.9459 14.4948C31.1447 14.0696 31.5063 13.9785 31.9281 14.262C32.9766 14.9605 33.6936 15.8412 33.7961 16.9902C33.8624 17.7545 33.4767 18.4227 32.9284 19.0402C31.6268 18.534 30.7109 17.8153 30.5903 16.5397ZM33.1573 15.0263C32.8621 14.6871 32.5066 14.3885 32.1631 14.0797C31.9883 13.9228 31.904 13.7912 32.0546 13.5786C32.1872 13.3913 32.2715 13.1788 32.3921 12.951C32.5126 13.1231 32.5969 13.3053 32.7416 13.4318C33.0911 13.7305 33.4767 13.9987 33.8443 14.2822C34.1576 14.5201 34.4951 14.7479 34.7662 15.0161C35.0133 15.2642 35.176 15.5628 35.0494 15.9171C34.8325 16.5043 34.4408 17.0104 34.0371 17.5774C34.1998 16.5701 33.7961 15.7653 33.1573 15.0263ZM33.2598 13.5888C32.7476 13.1939 32.4463 12.708 32.4704 12.0956C33.5068 12.5005 34.5915 12.8194 35.5074 13.4065C35.9593 13.7001 36.0618 13.9633 35.9051 14.4341C35.881 14.51 35.8569 14.5859 35.8208 14.6618C35.7123 14.8997 35.6038 15.1326 35.4773 15.4008C34.8928 14.6365 34.013 14.1658 33.2598 13.5888ZM32.3981 10.7643C31.3074 10.3695 30.3855 9.8178 29.9697 8.80546C30.2469 8.67386 30.5241 8.54225 30.7892 8.41571C31.1086 8.68904 31.4038 8.99781 31.7654 9.23571C32.3921 9.65076 33.1272 9.87854 33.9286 9.94434C34.248 9.96965 34.5734 9.96459 34.8867 9.93422C35.9473 9.83298 36.4836 9.20533 36.8391 8.45621C37.3091 7.4793 37.3031 6.49734 36.7427 5.53055C37.0319 5.38376 37.3091 5.25216 37.5984 5.10537C38.0503 5.57105 38.3516 6.08734 38.4239 6.68968C38.5083 7.40338 38.442 8.10189 38.0744 8.75991C37.7068 9.41286 37.2067 9.98989 36.5619 10.4657C36.0437 10.8453 35.3688 10.9061 34.7301 10.9617C33.9407 11.0275 33.1393 11.0326 32.3981 10.7643ZM37.743 10.2177C37.6586 9.98483 37.6646 9.76212 37.8454 9.53941C38.2552 9.0383 38.5565 8.49164 38.6649 7.88424C38.7071 7.65646 38.7252 7.42362 38.7553 7.16548C39.2434 7.95004 39.611 8.69411 39.3639 9.60521C39.1711 10.324 39.1952 11.0832 39.4362 11.8577C38.689 11.4021 38.0081 10.9617 37.743 10.2177ZM39.6291 11.5641C39.5688 11.0275 39.5568 10.491 39.5748 9.9494C39.5929 9.49385 39.6833 9.0383 39.7435 8.57262C40.3522 8.82065 40.6896 9.26101 40.8463 9.78743C41.015 10.3543 41.0994 10.9364 41.25 11.5033C41.3344 11.807 41.479 12.1006 41.6055 12.4195C41.0994 12.3335 40.5751 12.2727 40.075 12.1563C39.7616 12.0854 39.6532 11.7919 39.6291 11.5641ZM42.4973 12.3739C41.9068 12.3081 41.6296 11.9184 41.5031 11.4679C41.3946 11.0782 41.3404 10.6732 41.25 10.2784C41.1415 9.82286 41.0632 9.35719 40.6233 8.94719C41.027 8.9725 41.3404 8.96237 41.6357 9.02311C41.7562 9.04842 41.8887 9.21039 41.9249 9.33188C42.178 10.1114 42.4732 10.8706 43.106 11.4983C43.5097 11.8981 43.9375 12.2778 44.5823 12.4195C44.5763 12.4448 44.5702 12.4651 44.5642 12.4904C43.8773 12.4499 43.1783 12.4448 42.4973 12.3739ZM43.7146 11.7362C43.0336 11.1996 42.5877 10.5264 42.3588 9.76212C42.2925 9.54953 42.2443 9.32682 42.2322 9.10916C42.2202 8.80546 42.419 8.61818 42.7745 8.65867C43.2807 8.71941 43.7929 8.81559 44.275 8.96744C45.1125 9.23571 45.8417 9.66595 46.2876 10.3341C46.6009 10.7998 46.7395 11.3312 46.6913 11.883C46.6793 12.0399 46.6913 12.1968 46.6913 12.3739C45.5826 12.4499 44.5461 12.3891 43.7146 11.7362ZM46.6913 10.572C46.4262 9.85323 45.7633 9.42805 45.0523 9.04842C44.4256 8.70929 43.7146 8.54225 42.9975 8.3904C42.7806 8.34485 42.66 8.24361 42.66 8.04115C42.654 7.81337 42.6118 7.58559 42.5757 7.3072C43.3651 7.84374 44.3051 7.783 45.1668 7.96016C45.3656 8.00065 45.5765 8.02596 45.7694 8.08164C46.396 8.25374 46.6973 8.64855 46.7335 9.1699C46.7696 9.6457 46.7395 10.1215 46.7395 10.5973C46.7335 10.5922 46.6973 10.5872 46.6913 10.572ZM44.0158 7.57547C43.4856 7.50461 43.0156 7.34264 42.6058 7.05918C42.419 6.92758 42.2804 6.74536 42.0996 6.5682C42.5998 6.51758 43.0397 6.44672 43.4856 6.43153C44.1605 6.41129 44.8414 6.40622 45.5223 6.4366C45.7633 6.44672 46.0104 6.55301 46.2273 6.65931C46.5166 6.80103 46.4804 7.08449 46.5467 7.31733C46.625 7.59066 46.6552 7.87411 46.7094 8.16769C45.8597 7.77794 44.9318 7.69189 44.0158 7.57547ZM42.184 8.1525C42.1599 8.44608 41.9852 8.59793 41.6296 8.61312C40.792 8.64855 40.1292 8.36509 39.5989 7.83868C39.0928 7.34263 38.8819 6.73017 38.6348 6.13289C38.5263 5.86463 38.3998 5.59636 38.2733 5.29772C39.159 5.60142 40.0629 5.84438 40.8885 6.21388C41.7622 6.61375 42.2443 7.27177 42.184 8.1525ZM43.4615 1.43059C43.5398 1.77479 43.5097 2.13923 43.4735 2.48849C43.4072 3.16675 42.8348 3.516 42.19 3.79946C41.4669 4.11834 40.6896 4.23476 39.8821 4.14872C39.4543 4.10316 39.0385 3.96143 38.6047 3.8602C38.7312 3.51094 38.8337 3.22749 38.924 2.96935C39.4121 3.0149 39.8821 3.0807 40.3582 3.10601C40.9427 3.13638 41.4549 2.95416 41.8827 2.62515C42.2322 2.35688 42.2322 1.98738 42.1961 1.63306C42.1418 1.09146 41.8526 0.630848 41.3826 0.256285C41.25 0.149988 41.1235 0.0487517 40.9909 -0.0575448C41.256 -0.300505 41.5091 -0.523214 41.7622 -0.756052C42.7263 -0.239762 43.2506 0.519489 43.4615 1.43059ZM41.8405 1.27368C42.1599 2.19491 41.8044 2.72638 40.5751 2.88836C40.0147 2.95922 39.5748 2.87317 38.9783 2.68082C38.9783 2.55428 38.9843 2.41762 38.9783 2.28602C38.9662 2.15441 38.9361 2.02281 38.918 1.92157C39.3037 1.94688 39.6833 2.00256 40.0629 1.9975C40.5872 1.99244 40.8463 1.66343 40.6233 1.26355C40.4546 0.964914 40.1955 0.696648 39.9725 0.418255C40.2136 0.322084 40.4908 0.205665 40.78 0.0892466C41.2259 0.413195 41.6658 0.767513 41.8405 1.27368ZM39.7255 1.77479C39.4603 1.74442 39.1832 1.69886 38.9361 1.60775C38.7915 1.55207 38.683 1.41034 38.5866 1.28886C38.3395 0.985161 38.1106 0.671343 37.9238 0.433443C38.2793 0.448627 38.7553 0.473936 39.2314 0.48406C39.6893 0.494183 40.3582 1.06615 40.3461 1.45084C40.3401 1.65837 40.0569 1.81528 39.7255 1.77479ZM38.6951 2.23034C38.7493 2.49355 38.689 2.78712 38.6167 3.05033C38.4661 3.58687 38.2311 4.10316 37.8454 4.55365C37.4357 5.03451 36.821 5.27241 36.1823 5.44957C35.8027 5.55586 35.3989 5.63685 35.0012 5.68747C34.5493 5.74821 34.1275 5.61154 33.7177 5.45463C32.9344 5.14587 32.374 4.64476 31.9401 4.02723C31.8377 3.88045 31.8437 3.80452 31.9823 3.68304C32.4403 3.27811 32.85 2.82762 32.9525 2.26071C33.0127 1.92158 32.9645 1.56726 32.9645 1.16739C33.4767 1.57738 33.9588 1.95701 34.4348 2.33663C34.5493 2.42774 34.5312 2.51379 34.471 2.63021C34.001 3.51094 34.6758 4.63464 36.0799 4.66501C36.7789 4.68019 37.6646 3.8602 37.4477 3.16169C37.1886 2.30626 36.1883 1.89627 35.3869 2.04305C35.2664 2.0633 35.1398 2.08861 35.0374 2.14429C34.9048 2.21515 34.8084 2.18985 34.718 2.10886C34.2661 1.70899 33.8142 1.30911 33.3441 0.894055C33.7177 0.894055 34.0552 0.924421 34.3866 0.883928C34.7 0.848496 35.0253 0.782694 35.2965 0.656153C35.6882 0.46887 36.0316 0.215786 36.3992 -0.00186723C36.4595 -0.0372981 36.58 -0.0524825 36.6403 -0.0271739C37.7129 0.46887 38.4781 1.18763 38.6951 2.23034ZM35.6641 2.22021C36.3149 2.21009 37.1042 2.8833 37.0982 3.44008C37.0922 3.80452 36.4414 4.34106 36.0075 4.336C35.3447 4.33094 34.5734 3.67798 34.5855 3.13132C34.5975 2.68083 35.1338 2.22528 35.6641 2.22021ZM35.9292 0.058878C35.1519 0.595415 34.2781 0.858624 33.2959 0.585293C32.8741 0.468874 32.5005 0.210728 32.0968 0.00826096C32.2655 -0.239761 32.3921 -0.416921 32.4764 -0.543464C32.9404 -0.376428 33.3984 -0.163835 33.8865 -0.0474165C34.718 0.15505 35.7304 -0.330875 35.8449 -0.943338C35.9654 -1.59629 35.7183 -2.1379 35.0856 -2.53271C34.8024 -2.70987 34.477 -2.84653 34.1636 -3.00344C34.2721 -3.16541 34.3987 -3.34258 34.5252 -3.5248C35.8569 -3.32233 36.5981 -2.3353 36.58 -1.48494C36.574 -1.22173 36.5499 -0.953461 36.4956 -0.690254C36.4354 -0.37643 36.2185 -0.143589 35.9292 0.058878ZM33.9467 -2.80603C34.6337 -2.55801 35.3146 -2.28975 35.5496 -1.62667C35.8208 -0.85729 35.2965 -0.310627 34.4107 -0.234703C33.7057 -0.173961 33.1573 -0.472601 32.6391 -0.816795C32.609 -0.837042 32.5849 -0.882597 32.5789 -0.91803C32.5608 -1.14074 32.5548 -1.35839 32.5367 -1.61148C32.85 -1.40901 33.1152 -1.22173 33.4044 -1.05975C33.555 -0.973705 33.7418 -0.902841 33.9226 -0.877533C34.3444 -0.816793 34.6216 -0.943336 34.7542 -1.23185C34.8566 -1.4495 34.7361 -1.77345 34.4288 -1.93543C34.1215 -2.0974 33.778 -2.21382 33.4466 -2.35048C33.3381 -2.39098 33.2236 -2.42135 33.1031 -2.46184C33.3682 -2.58332 33.6153 -2.69468 33.8684 -2.80603C33.8865 -2.80603 33.9226 -2.8111 33.9467 -2.80603ZM32.5427 -1.9658C32.4403 -2.06197 32.3499 -2.17333 32.2294 -2.30999C33.0067 -2.29481 33.6695 -2.10246 34.2661 -1.75321C34.4408 -1.65197 34.5553 -1.50012 34.489 -1.30272C34.4167 -1.09519 34.1576 -1.0142 33.8262 -1.12556C33.302 -1.30272 32.9103 -1.62666 32.5427 -1.9658ZM32.2173 -1.66715C32.3499 -1.18629 32.38 -0.720625 31.9883 -0.28532C31.1447 0.651093 29.6142 0.382824 28.9393 -0.366304C28.9031 -0.406799 28.9272 -0.508033 28.9694 -0.558651C29.0538 -0.664947 29.1622 -0.750995 29.2767 -0.862352C29.4997 -0.720625 29.7106 -0.573833 29.9396 -0.44729C30.4156 -0.179022 30.8675 -0.219515 31.2592 -0.497907C31.7774 -0.872473 31.6931 -1.35333 31.44 -1.66715C31.2833 -1.86456 31.1025 -2.04678 30.9338 -2.23913C31.0845 -2.34542 31.2351 -2.46184 31.4159 -2.58838C31.7835 -2.35048 32.1089 -2.07209 32.2173 -1.66715ZM30.0058 -2.32517C29.8672 -2.36567 29.7106 -2.38592 29.578 -2.43653C29.0718 -2.62888 29.114 -2.63394 29.1321 -3.08949C29.1442 -3.37295 29.0176 -3.66652 28.9513 -3.9601C29.4033 -3.90948 29.801 -4.09677 30.1685 -4.3701C30.2107 -4.40046 30.3071 -4.42071 30.3553 -4.40046C30.9579 -4.17775 31.5123 -3.73232 31.3436 -3.049C31.2532 -2.65925 30.4819 -2.18345 30.0058 -2.32517ZM26.764 -3.80825C26.7881 -3.7222 26.7941 -3.63615 26.7881 -3.55011C26.77 -3.38307 26.6314 -3.31221 26.4566 -3.39825C26.3 -3.47924 26.1192 -3.57035 26.0228 -3.6969C25.7396 -4.0664 25.5528 -4.47133 25.607 -4.9775C26.1614 -4.65861 26.6193 -4.34479 26.764 -3.80825ZM27.5292 -4.3296C26.9869 -4.38528 26.6193 -4.67886 26.2819 -5.00787C26.1975 -5.08885 26.1373 -5.19009 26.0228 -5.32676C26.7579 -5.32169 27.3726 -5.19515 27.8124 -4.72947C27.8848 -4.65355 27.951 -4.47639 27.9089 -4.44602C27.8245 -4.3701 27.6558 -4.31442 27.5292 -4.3296ZM23.9559 -5.29638C23.5884 -4.83577 23.1906 -4.45615 22.5399 -4.33973C22.4495 -4.32454 22.347 -4.30936 22.2567 -4.3296C22.094 -4.36504 21.9734 -4.45109 22.0879 -4.608C22.1783 -4.73454 22.2808 -4.86614 22.4133 -4.96232C22.7267 -5.19009 23.4919 -5.35713 23.9559 -5.29638ZM24.0102 -4.74466C24.1066 -4.81552 24.2271 -4.8712 24.4018 -4.97244C24.3958 -4.33973 24.2391 -3.81837 23.6667 -3.44887C23.5823 -3.39319 23.3895 -3.34763 23.3473 -3.38813C23.263 -3.45899 23.1967 -3.59566 23.2148 -3.69183C23.269 -4.14738 23.6125 -4.46627 24.0102 -4.74466ZM21.1479 -3.95504C20.8346 -3.58554 20.7864 -3.21603 20.9129 -2.82122C20.931 -2.7706 20.8888 -2.67949 20.8406 -2.64912C20.1838 -2.25937 19.5752 -2.14296 18.9726 -2.61369C18.5146 -2.96801 18.4785 -3.56529 18.9244 -3.97529C19.1052 -4.14232 19.3402 -4.27393 19.5752 -4.39034C19.6414 -4.42577 19.8102 -4.3954 19.8825 -4.34479C20.3645 -4.01578 20.5212 -3.96516 21.1479 -3.95504ZM19.081 -2.24419C18.9184 -2.06197 18.7376 -1.88481 18.593 -1.69246C18.1109 -1.05469 18.4182 -0.62951 19.0389 -0.320749C19.3221 -0.179021 19.6716 -0.2347 19.9608 -0.391612C20.2199 -0.53334 20.467 -0.695312 20.7321 -0.852226C20.8647 -0.715558 20.9912 -0.589019 21.1238 -0.462478C20.8105 0.0588748 19.9427 0.387887 19.1353 0.311963C18.5267 0.256284 17.8036 -0.310626 17.7192 -0.816795C17.6108 -1.53049 17.8337 -2.13789 18.605 -2.57826C18.7617 -2.47196 18.9184 -2.36061 19.081 -2.24419ZM16.3574 -1.19642C15.9958 -1.02432 15.6403 -1.05975 15.5138 -1.25716C15.3993 -1.43938 15.5318 -1.68234 15.8874 -1.84938C16.4598 -2.11765 17.0624 -2.31506 17.7554 -2.30493C17.3878 -1.8342 16.9238 -1.46469 16.3574 -1.19642ZM16.8575 -2.47702C16.4417 -2.30493 15.9958 -2.14802 15.5861 -1.94049C15.2727 -1.78357 15.1522 -1.45963 15.2426 -1.24704C15.3933 -0.907905 15.797 -0.745933 16.2188 -0.912969C16.5502 -1.03951 16.8394 -1.23691 17.1468 -1.40901C17.2552 -1.46975 17.3456 -1.54062 17.4722 -1.62666C17.4541 -1.36346 17.442 -1.13568 17.43 -0.907901C17.43 -0.877532 17.4119 -0.842101 17.3818 -0.826917C16.7973 -0.442227 16.1887 -0.128406 15.3872 -0.265071C14.2182 -0.462476 14.1821 -1.53555 14.7364 -2.08222C15.0799 -2.42135 15.5198 -2.62382 15.9958 -2.78579C16.044 -2.80098 16.1224 -2.80097 16.1706 -2.78072C16.4056 -2.67949 16.6406 -2.5732 16.8575 -2.47702ZM14.5978 -2.2695C14.0194 -1.81394 13.935 -0.97877 14.399 -0.508033C14.8389 -0.067668 15.4415 0.0943098 16.0862 -0.0372954C16.5803 -0.138528 17.0323 -0.361245 17.5143 -0.533342C17.6108 -0.396676 17.7313 -0.22964 17.8518 -0.0575439C16.9901 0.828252 15.4113 0.894052 14.4834 0.301835C14.0977 0.053813 13.6638 -0.143588 13.5373 -0.573832C13.236 -1.58617 13.3806 -2.37073 14.3387 -3.08949C14.634 -3.31221 15.0618 -3.41344 15.4415 -3.57035C15.5258 -3.43369 15.5861 -3.33752 15.6524 -3.24134C15.7126 -3.1553 15.7849 -3.06925 15.8151 -3.03888C15.4053 -2.78073 14.9654 -2.55801 14.5978 -2.2695ZM13.6638 0.0335703C14.0495 0.367641 14.5014 0.656156 15.0317 0.772574C15.5318 0.883931 16.0681 0.878869 16.6105 0.929484C16.1766 1.31417 15.7247 1.71911 15.2607 2.11898C15.2125 2.15947 15.0679 2.1696 14.9955 2.14429C13.9651 1.76466 12.6154 2.19491 12.5129 3.46539C12.4768 3.88551 12.8022 4.23476 13.236 4.45748C13.8326 4.76118 14.6039 4.68525 15.098 4.31575C15.6042 3.93613 15.8693 3.21231 15.5258 2.61503C15.4595 2.49861 15.4716 2.42268 15.562 2.34675C16.038 1.96713 16.5141 1.58751 17.0142 1.1927C17.0142 1.51158 16.9901 1.8001 17.0202 2.08355C17.0443 2.30627 17.0925 2.55429 17.2251 2.74157C17.4601 3.0807 17.7493 3.39959 18.0386 3.70835C18.147 3.82477 18.1712 3.89563 18.0687 4.01205C17.8397 4.26513 17.6529 4.54353 17.3998 4.77636C16.8515 5.27747 16.1646 5.5913 15.3631 5.69253C15.0679 5.73302 14.7364 5.68747 14.4351 5.62166C13.8024 5.485 13.1878 5.29266 12.6515 4.97377C12.0791 4.62957 11.7958 4.11328 11.5789 3.58181C11.4463 3.26292 11.362 2.92885 11.2897 2.59478C11.2113 2.20503 11.3801 1.84565 11.5789 1.4964C11.9465 0.838378 12.543 0.372703 13.2782 0.00826172C13.4409 -0.0828485 13.5313 -0.0828485 13.6638 0.0335703ZM14.9654 2.42774C15.4354 2.7365 15.5198 3.187 15.2245 3.65773C14.9955 4.02217 14.6039 4.21452 14.158 4.31575C13.9892 4.35118 13.7482 4.31069 13.6036 4.2297C13.2782 4.03736 12.9468 3.82477 12.8925 3.42996C12.995 2.96934 13.2541 2.58466 13.7723 2.36194C14.176 2.18478 14.5858 2.17466 14.9654 2.42774ZM11.4283 1.28886C11.3017 1.47108 11.1631 1.63812 10.892 1.66343C10.5967 1.6938 10.3014 1.74948 10.0122 1.73935C9.70489 1.72417 9.59642 1.53689 9.69284 1.29899C9.87964 0.823192 10.4099 0.499244 11.0004 0.489122C11.3921 0.484059 11.7838 0.448629 12.0791 0.433444C11.8862 0.681466 11.6452 0.980102 11.4283 1.28886ZM10.0664 0.433444C9.87964 0.630849 9.67476 0.823188 9.50604 1.03578C9.31924 1.26862 9.19872 1.53689 9.40962 1.79503C9.60848 2.03799 9.95797 2.02787 10.2653 2.01775C10.5304 2.00762 10.7956 1.93676 11.0727 1.8912C11.0486 2.15441 11.0306 2.42268 11.0065 2.69601C10.3557 2.89342 9.67476 3.00984 8.99384 2.81243C8.04779 2.53404 7.87907 2.06837 8.18638 1.21801C8.36113 0.737146 8.79499 0.408134 9.2168 0.0892479C9.50604 0.205667 9.78925 0.322087 10.0664 0.433444ZM8.15023 0.782695C7.89112 1.11677 7.76458 1.50146 7.77663 1.91145C7.79471 2.55429 8.36113 2.92885 9.12641 3.07058C9.7772 3.19206 10.422 3.1212 11.0607 2.91367C11.1752 3.23255 11.2776 3.52107 11.3921 3.82983C10.7594 4.06773 10.1267 4.2297 9.42167 4.16896C8.64435 4.10316 7.9333 3.93612 7.29456 3.53625C6.58954 3.09589 6.38467 2.50367 6.49313 1.82034C6.55941 1.41541 6.69198 1.01553 6.84865 0.630845C7.09571 0.0335668 7.62598 -0.386548 8.23459 -0.756051C8.48767 -0.528275 8.73473 -0.300504 8.97576 -0.0828502C8.69858 0.200603 8.39126 0.473933 8.15023 0.782695ZM12.4707 12.379C12.4768 12.379 12.4828 12.379 12.4707 12.379V12.379ZM12.4587 12.3891C12.4225 12.8143 12.3864 13.2294 12.3502 13.6444C12.3442 13.695 12.3321 13.771 12.296 13.7862C11.9646 13.9178 11.6331 14.0392 11.2475 14.181C11.2113 13.8469 11.1812 13.5685 11.1571 13.2851C11.1511 13.2395 11.1752 13.1686 11.2113 13.1433C11.6211 12.8852 12.0429 12.6372 12.4587 12.3891ZM9.83746 13.4622C10.1809 13.4167 10.5184 13.3509 10.8498 13.2952C10.9221 13.6546 10.9884 14.019 11.0727 14.4492C11.5367 14.2974 11.9344 14.1658 12.3562 14.0241C12.4828 14.3429 12.6154 14.672 12.7539 15.0313C11.8802 15.3047 11.0125 15.578 10.0905 15.8665C9.98207 15.33 9.87964 14.844 9.7772 14.3581C9.73502 14.1405 9.69284 13.9228 9.65668 13.7052C9.64463 13.5837 9.65066 13.4875 9.83746 13.4622ZM10.5364 15.9576C11.3138 15.74 12.0791 15.4818 12.8745 15.2338C13.0974 15.5831 13.3324 15.9475 13.5795 16.3322C12.0248 16.7321 10.5003 17.1218 8.96371 17.5166C8.60819 16.2158 8.24664 14.9098 7.87907 13.5584C8.39126 13.5584 8.87333 13.5584 9.36744 13.5584C9.50001 14.2164 9.6386 14.9149 9.79528 15.6084C9.92182 16.1955 9.86156 16.1449 10.5364 15.9576ZM7.82483 19.1718C7.25841 17.2787 6.70403 15.416 6.13761 13.5331C6.66788 13.5331 7.11982 13.5331 7.58983 13.5331C7.83689 14.4189 8.08395 15.2844 8.31895 16.1449C8.44549 16.6156 8.56601 17.0864 8.6805 17.5622C8.72268 17.7444 8.81909 17.795 9.03602 17.7343C10.3075 17.3951 11.5789 17.0661 12.8504 16.7371C13.0372 16.6865 13.2481 16.6764 13.4228 16.6055C13.7 16.4942 13.8446 16.6005 13.9651 16.7877C14.1218 17.0256 14.2785 17.2585 14.4834 17.5774C12.2538 18.1088 10.0664 18.6352 7.82483 19.1718ZM18.5568 19.3489C17.9241 19.6476 17.2914 19.9513 16.6888 20.2398C16.2911 19.6729 15.8753 19.0655 15.4415 18.4632C14.8268 17.6027 14.1881 16.7574 13.5976 15.8918C13.3083 15.4666 13.0793 15.0111 12.8504 14.5606C12.4768 13.8216 12.5129 13.0623 12.8263 12.3284C13.0372 11.8273 13.3746 11.3616 13.6578 10.8706C13.9169 10.9364 14.1399 10.9921 14.3568 11.0528C14.2001 11.3414 14.0194 11.6046 13.9109 11.883C13.5011 12.9004 13.5192 13.9076 14.0133 14.9149C14.5978 16.1145 15.3993 17.2028 16.2007 18.2961C16.4176 18.5897 16.6526 18.8782 16.8515 19.1819C16.9419 19.3135 17.0082 19.3287 17.1588 19.2528C18.3037 18.7162 19.4486 18.1797 20.5996 17.6482C21.4793 17.2433 22.2627 16.7371 22.9496 16.1247C23.4076 15.7147 23.6908 15.2287 23.8836 14.677C24.0463 14.2164 24.1849 13.7659 24.1367 13.2395C24.3898 13.2952 24.6007 13.3357 24.7935 13.3762C24.9803 14.4897 24.7815 15.5223 23.974 16.4233C23.4859 16.9598 22.8231 17.3395 22.1241 17.6685C20.943 18.2455 19.7439 18.7922 18.5568 19.3489ZM25.2274 19.3135C25.8239 18.7112 26.4325 18.1139 27.0411 17.5065C27.4449 17.7191 27.8607 17.9367 28.2945 18.1594C27.1978 19.1465 26.1132 20.1234 25.0044 21.1205C23.9137 20.1386 22.8231 19.1566 21.7143 18.1594C22.1301 17.9418 22.5519 17.7191 22.9737 17.4964C23.4437 17.9772 23.9077 18.453 24.3717 18.9288C24.5163 19.0756 24.6609 19.2224 24.8236 19.3591C24.9743 19.4907 25.1008 19.4401 25.2274 19.3135ZM25.0044 19.2275C24.3838 18.5948 23.7932 17.9924 23.1907 17.3799C23.5281 17.1218 23.8234 16.9042 24.1307 16.6713C24.3476 16.8991 24.5706 17.1269 24.7875 17.3597C24.9381 17.5217 25.0767 17.5116 25.2213 17.3546C25.4323 17.1269 25.6552 16.8991 25.8721 16.6663C26.1795 16.8991 26.4807 17.1269 26.8122 17.3749C26.2156 17.9823 25.6311 18.5796 25.0044 19.2275ZM24.9984 17.2787C24.7634 17.0054 24.5585 16.7725 24.3657 16.5296C24.3356 16.4942 24.3416 16.4233 24.3597 16.3828C24.5766 15.9829 24.7995 15.5831 25.0044 15.2136C25.2093 15.6033 25.4323 16.0335 25.6733 16.4992C25.4744 16.727 25.2515 16.9851 24.9984 17.2787ZM27.5895 20.7915C26.8061 21.4749 26.0168 22.1481 25.2394 22.8314C25.0948 22.9579 24.9683 23.0085 24.7995 22.8618C24.0825 22.2442 23.3594 21.6368 22.6483 21.0193C21.8288 20.3056 21.0274 19.5818 20.1898 18.8377C20.5815 18.6504 20.931 18.4783 21.2925 18.3265C21.3648 18.2961 21.5215 18.3265 21.5818 18.3771C22.6242 19.3085 23.6546 20.2499 24.6851 21.1914C24.9803 21.4597 25.0225 21.4597 25.3178 21.1914C26.0288 20.5384 26.7459 19.8956 27.4569 19.2477C27.7642 18.9693 28.0776 18.696 28.3728 18.4075C28.4934 18.286 28.6079 18.2657 28.7645 18.3417C29.0899 18.4986 29.4213 18.6555 29.813 18.8478C29.0538 19.5109 28.3246 20.1538 27.5895 20.7915ZM35.0555 17.7798C34.477 18.615 33.8744 19.435 33.302 20.2347C31.9883 19.6071 30.6265 18.9592 29.2647 18.3113C28.5235 17.957 27.7763 17.6179 27.0592 17.2332C25.8721 16.5954 25.3057 15.6235 25.131 14.4745C25.1008 14.267 25.1611 14.0494 25.1731 13.8368C25.1792 13.695 25.0888 13.4723 25.1611 13.4318C25.3479 13.3306 25.595 13.3053 25.842 13.2496C25.8601 13.5027 25.8541 13.7305 25.8962 13.9583C26.1132 15.2287 26.8845 16.2208 28.1258 16.9497C28.7766 17.3293 29.4515 17.6786 30.1324 18.0228C30.6928 18.3062 31.2713 18.5593 31.8437 18.8225C32.1812 18.9794 32.5186 19.1313 32.8681 19.268C32.9344 19.2933 33.0911 19.2578 33.1212 19.2072C33.9829 17.9975 34.8626 16.7928 35.6641 15.5577C36.0919 14.8997 36.3751 14.1658 36.3932 13.4015C36.3992 13.0775 36.2727 12.7485 36.2305 12.4195C36.1642 11.9336 35.9473 11.5033 35.5978 11.068C35.8509 11.0022 36.0678 10.9466 36.2787 10.8959C36.9717 11.6957 37.4417 12.5562 37.3995 13.5736C37.3814 14.0949 37.2187 14.5859 36.9295 15.0313C36.3269 15.9576 35.6942 16.8687 35.0555 17.7798ZM37.5381 12.3891C37.743 12.5207 37.9599 12.6726 38.1889 12.8143C38.3456 12.9155 38.5083 13.0117 38.683 13.0876C38.8156 13.1484 38.8819 13.2091 38.8638 13.3407C38.8216 13.6039 38.7915 13.8671 38.7493 14.1759C38.3877 14.0443 38.0624 13.9228 37.737 13.7963C37.6948 13.7811 37.6707 13.7102 37.6646 13.6596C37.6164 13.2395 37.5743 12.8143 37.5381 12.3891ZM40.1352 15.9019C40.304 15.1073 40.4847 14.3176 40.6534 13.5483C41.1235 13.5483 41.5995 13.5483 42.1237 13.5483C41.7562 14.8947 41.4006 16.2006 41.0391 17.5166C39.5206 17.1269 37.984 16.7321 36.4233 16.3322C36.6644 15.9526 36.8933 15.5932 37.1283 15.2287C37.7068 15.416 38.2733 15.6033 38.8517 15.7805C39.1892 15.8868 39.5326 15.9779 39.8761 16.0639C40.0388 16.1044 40.1051 16.0437 40.1352 15.9019ZM43.8652 13.528C43.3048 15.4059 42.7504 17.2686 42.184 19.1617C39.9484 18.615 37.7189 18.1848 35.5315 17.5318C35.7725 17.1825 35.9895 16.8586 36.2185 16.5296C36.6041 16.6156 36.9657 16.6814 37.3091 16.7725C38.4842 17.0762 39.6532 17.3901 40.8222 17.6988C41.238 17.8102 41.2319 17.8051 41.3283 17.4356C41.5694 16.5346 41.8225 15.6337 42.0695 14.7276C42.1599 14.3885 42.2623 14.0494 42.3527 13.7102C42.3829 13.5837 42.4431 13.5179 42.6118 13.5179C43.0035 13.5331 43.3952 13.528 43.8652 13.528ZM40.2015 13.4723C40.2618 13.4825 40.3461 13.5887 40.3401 13.6343C40.2075 14.3581 40.0629 15.0819 39.9123 15.8665C38.9903 15.578 38.1166 15.3047 37.2489 15.0313C37.3814 14.672 37.508 14.348 37.6285 14.019C38.0382 14.1557 38.442 14.2873 38.924 14.4492C39.0024 14.0241 39.0687 13.6647 39.141 13.2952C39.4844 13.3509 39.846 13.4015 40.2015 13.4723ZM47.7458 10.2227C47.7338 11.0478 47.7097 11.8779 47.7036 12.703C47.7036 12.8953 47.7458 13.0927 47.7699 13.2749C46.5889 13.2749 45.4078 13.2648 44.2328 13.28C43.5217 13.2901 42.8047 13.3711 42.0936 13.3458C41.0451 13.3104 39.9605 13.366 38.9783 12.9611C38.1588 12.622 37.4658 12.1512 37.05 11.4375C36.9114 11.2047 36.7427 10.982 36.5981 10.7745C36.7548 10.6277 36.9114 10.4859 37.0741 10.3341C37.2971 10.5973 37.4718 10.8757 37.7189 11.0933C38.3938 11.6856 39.1289 12.2069 40.1292 12.3993C41.1837 12.6068 42.2443 12.6776 43.3229 12.6675C44.3473 12.6574 45.3717 12.6473 46.396 12.6321C46.5346 12.6321 46.6793 12.6118 46.8179 12.5865C46.8661 12.5764 46.9263 12.5258 46.9384 12.4802C46.9685 12.379 46.9745 12.2778 46.9806 12.1715C46.9986 11.0832 47.0348 9.98989 47.0227 8.90163C47.0107 8.03608 46.8902 7.18066 46.5166 6.37079C46.3117 5.93043 46.0224 5.53561 45.5705 5.23191C45.4078 5.12056 45.2993 4.94846 45.1366 4.83204C44.8655 4.64982 44.5763 4.49291 44.2569 4.30563C44.4437 4.16896 44.6064 4.04748 44.8233 3.89057C45.3174 4.17402 45.8959 4.44229 46.39 4.79661C47.1432 5.34327 47.5892 6.05191 47.7097 6.89721C47.8121 7.60584 47.8543 8.31448 47.7699 9.02817C47.7157 9.42805 47.7519 9.82792 47.7458 10.2227ZM50.813 6.67956C50.3008 6.7656 49.8368 6.84659 49.3668 6.91239C49.0173 6.96301 48.6557 6.99338 48.3062 7.04906C48.0953 7.07943 47.9748 7.07437 47.9507 6.84659C47.9206 6.58338 47.8181 6.32018 47.7458 6.05697C48.1978 5.99623 48.6256 5.93549 49.1077 5.86969C49.0112 5.64191 48.951 5.46981 48.8727 5.30278C48.7943 5.13574 48.6979 4.96871 48.6015 4.78649C49.0052 4.67513 49.3909 4.5739 49.8187 4.45241C50.1501 5.18636 50.4695 5.91018 50.813 6.67956ZM50.0778 4.35624C50.4755 4.17402 50.9154 3.97662 51.3734 3.76909C51.8494 5.075 52.3134 6.35561 52.7834 7.64634C51.2227 7.95004 49.6741 8.24868 48.0953 8.55744C48.0712 8.12213 48.0411 7.72226 48.017 7.31227C48.7762 7.20597 49.5355 7.10474 50.2947 6.99338C50.4635 6.96807 50.6262 6.91745 50.7949 6.90227C51.06 6.88202 51.1143 6.78079 51.0299 6.58338C50.7105 5.8545 50.4032 5.12056 50.0778 4.35624ZM48.2339 4.80167C48.2821 4.80673 48.3424 4.84216 48.3605 4.8776C48.5111 5.14586 48.6497 5.42426 48.8124 5.72796C48.4508 5.75833 48.1556 5.77858 47.8663 5.80389C47.6916 5.81907 47.5892 5.76845 47.4867 5.63685C47.2517 5.34327 46.9806 5.06994 46.7214 4.78649C46.6973 4.75612 46.6793 4.72069 46.6672 4.7055C47.1915 4.73587 47.7097 4.76624 48.2339 4.80167ZM54.7418 8.60806C52.4942 9.08385 50.2887 9.54953 48.0411 10.0203C48.0411 9.62039 48.0351 9.28126 48.0471 8.94213C48.0471 8.88139 48.1435 8.78521 48.2098 8.77509C49.7163 8.47645 51.2167 8.18287 52.7292 7.89942C53.1088 7.82856 53.1269 7.81843 53.0064 7.49449C52.6087 6.41128 52.2049 5.33315 51.8072 4.24995C51.747 4.08291 51.6747 3.91588 51.6566 3.74378C51.6506 3.65773 51.7409 3.53625 51.8313 3.48563C52.1266 3.32366 52.4339 3.19206 52.7955 3.01996C53.5848 4.85229 54.091 6.73017 54.7418 8.60806ZM48.8727 -5.03317C48.5051 -5.08885 48.1255 -5.11416 47.7277 -5.15466C47.7639 -5.29638 47.794 -5.45836 47.8543 -5.61021C47.8724 -5.66082 47.9808 -5.71144 48.0471 -5.7165C48.3484 -5.73169 48.6557 -5.757 48.945 -5.72157C49.4331 -5.66083 49.9272 -5.5849 50.4032 -5.46342C51.512 -5.1749 52.223 -4.48145 52.7774 -3.68171C53.5427 -2.57826 54.2658 -1.44951 55.013 -0.335936C55.3504 0.16517 55.6939 0.66628 56.0193 1.14208C55.3263 1.48627 54.5972 1.84565 53.8741 2.21009C52.8617 2.72132 51.8615 3.2528 50.8371 3.74884C50.0597 4.12847 49.2523 4.46254 48.3424 4.56377C47.7579 4.62451 47.1794 4.57389 46.6431 4.39674C46.0405 4.19933 45.4741 3.93612 44.8715 3.69822C44.9499 3.47045 45.0161 3.29329 45.0824 3.10601C45.1487 3.12625 45.221 3.12625 45.2632 3.15662C45.7754 3.49576 46.4081 3.56156 47.0107 3.67292C47.9145 3.83995 48.7823 3.68304 49.6379 3.40465C51.1564 2.91366 52.5122 2.1696 53.8922 1.46602C54.1874 1.31417 54.4767 1.14714 54.7719 1.00035C54.8985 0.934547 54.9467 0.894056 54.8563 0.762452C54.4706 0.180358 54.1272 -0.416924 53.7295 -0.993956C53.2655 -1.67728 52.8015 -2.36061 52.2712 -3.0085C51.8133 -3.57035 51.295 -4.11195 50.578 -4.46627C50.2164 -4.64343 49.8067 -4.74972 49.421 -4.88133C49.2523 -4.93194 49.0655 -5.0028 48.8727 -5.03317ZM47.3059 -4.23849C47.5048 -4.57763 47.9266 -4.64343 48.3062 -4.62824C48.7823 -4.61305 49.2523 -4.51182 49.7163 -4.42071C49.9513 -4.37516 50.1682 -4.27392 50.3369 -4.21825C49.7404 -3.93985 49.1197 -3.67158 48.5232 -3.36282C48.1435 -3.17048 47.8061 -2.92245 47.4506 -2.7048C47.077 -2.47703 46.6552 -2.39098 46.1972 -2.38086C45.8899 -2.37073 45.5886 -2.3353 45.2813 -2.30999C46.2092 -2.78073 46.842 -3.44381 47.3059 -4.23849ZM48.963 -3.34764C49.4752 -3.62603 49.9935 -3.90443 50.6382 -3.94998C50.8913 -3.96516 51.048 -3.8943 51.1986 -3.75257C51.5059 -3.459 51.8133 -3.16035 52.1567 -2.83134C51.1805 -2.8111 50.3671 -2.51752 49.5415 -2.23913C49.0052 -2.06197 48.4569 -1.9658 47.8844 -2.06197C47.6434 -2.10246 47.4144 -2.20876 47.1673 -2.28468C47.788 -2.65419 48.3605 -3.01863 48.963 -3.34764ZM47.7036 -1.49506C47.9145 -1.31284 48.0772 -1.09013 48.2339 -0.867413C48.3846 -0.659884 48.2761 -0.482722 48.0712 -0.351118C47.4988 0.0133224 46.854 0.0841824 46.1671 -0.0271743C45.4379 -0.148655 44.8715 -0.523215 44.3171 -0.907902C43.9194 -1.18123 43.5458 -1.47481 43.1843 -1.74308C43.9014 -1.85444 44.6486 -2.01641 45.4078 -2.08222C46.2454 -2.15814 47.0709 -2.04679 47.7036 -1.49506ZM38.3456 -5.56972C38.3697 -5.6254 38.448 -5.7165 38.5022 -5.71144C38.8337 -5.69626 39.159 -5.66082 39.4844 -5.63552C40.2196 -5.57478 40.8101 -5.24577 41.3705 -4.87626C41.7501 -4.62318 41.949 -4.2638 42.0695 -3.88924C42.19 -3.50961 42.2623 -3.1148 42.3166 -2.72505C42.407 -2.07209 42.1057 -1.51024 41.6417 -1.00914C41.244 -0.578894 40.8342 -0.158777 40.2256 0.0689982C39.9665 0.170233 39.6773 0.236034 39.3941 0.266405C38.454 0.36764 37.5984 0.134802 36.803 -0.265072C36.7427 -0.295441 36.7186 -0.421982 36.7246 -0.502968C36.7608 -0.892717 36.8451 -1.28247 36.8451 -1.67222C36.8451 -2.10753 36.6041 -2.48209 36.3088 -2.83134C36.2305 -2.92245 36.1582 -3.00851 36.0497 -3.14011C36.7608 -2.99332 37.4236 -2.86678 38.0744 -2.71493C38.1527 -2.69468 38.2311 -2.56307 38.2431 -2.47702C38.3636 -1.83419 38.8096 -1.39383 39.5387 -1.2521C40.545 -1.05469 41.5151 -1.50012 41.491 -2.54789C41.479 -3.17048 41.009 -3.4843 40.4546 -3.67665C39.9002 -3.86899 39.2976 -3.788 38.7915 -3.45899C38.7192 -3.40838 38.6167 -3.36788 38.5806 -3.30208C38.4118 -2.98826 38.1648 -3.03381 37.8454 -3.12998C37.3212 -3.28183 36.7789 -3.39319 36.1702 -3.53998C36.3209 -3.59566 36.4053 -3.63109 36.4956 -3.6564C37.5441 -3.99047 38.0141 -4.72948 38.3456 -5.56972ZM39.3639 -3.42862C39.9545 -3.5248 40.7077 -3.29702 40.9608 -2.9427C41.2199 -2.57826 41.027 -2.23407 40.8583 -1.9C40.6836 -1.55074 40.2859 -1.5558 39.9123 -1.5558C39.2253 -1.5558 38.6951 -1.8595 38.5444 -2.33024C38.3877 -2.81616 38.7794 -3.33245 39.3639 -3.42862ZM32.2595 -5.22552C32.2836 -5.27108 32.3198 -5.33182 32.3559 -5.39762C32.5367 -5.74181 32.5307 -5.72157 32.9826 -5.62539C33.6936 -5.48367 34.471 -4.64343 34.3625 -4.02591C34.2842 -3.58048 34.1154 -3.19072 33.6394 -2.93258C32.9645 -2.56814 32.3198 -2.51752 31.5545 -2.78579C31.5846 -2.97308 31.6147 -3.14011 31.6449 -3.30714C31.9703 -3.2869 32.2956 -3.25653 32.621 -3.25146C33.085 -3.24134 33.4707 -3.46405 33.5852 -3.788C33.7539 -4.27899 33.6454 -4.61306 33.1875 -4.8459C32.9043 -4.99268 32.5849 -5.09898 32.2595 -5.22552ZM32.0305 -4.96232C32.0606 -4.98256 32.1269 -4.98762 32.1631 -4.97244C32.5066 -4.8459 32.8741 -4.74972 33.1694 -4.5675C33.4586 -4.39034 33.4948 -4.09677 33.3261 -3.81331C33.1754 -3.56023 32.9103 -3.44887 32.5849 -3.45899C32.3499 -3.46405 32.1149 -3.48936 31.8859 -3.51467C31.7232 -3.53492 31.6328 -3.60072 31.5424 -3.74244C31.3737 -3.99047 31.1146 -4.19294 30.8856 -4.41059C30.8254 -4.46627 30.741 -4.5017 30.6084 -4.57762C31.1809 -4.57762 31.6449 -4.6738 32.0305 -4.96232ZM28.6259 -5.68107C28.65 -5.71144 28.7284 -5.72157 28.7766 -5.72157C29.3671 -5.74688 29.9757 -5.347 30.0721 -4.86614C30.1264 -4.58775 29.8853 -4.45108 29.6624 -4.32454C29.2948 -4.11195 28.6561 -4.13726 28.3005 -4.36504C28.2644 -4.38528 28.2222 -4.41565 28.2102 -4.44602C28.0053 -4.9117 28.0053 -4.91169 27.6015 -5.23564C27.9872 -5.34194 28.3909 -5.37231 28.6259 -5.68107ZM19.9367 -4.8712C20.0271 -5.35206 20.6357 -5.75194 21.2323 -5.72663C21.2865 -5.72663 21.3648 -5.71144 21.3829 -5.68613C21.6179 -5.37231 22.0216 -5.347 22.4073 -5.24577C22.1301 -5.00281 21.7927 -4.82565 21.7927 -4.45615C21.7927 -4.42071 21.7264 -4.38528 21.6842 -4.35997C21.172 -4.0664 20.3826 -4.15751 20.015 -4.5675C19.9427 -4.6333 19.9186 -4.76997 19.9367 -4.8712ZM18.2013 -4.84083C18.5267 -4.6738 18.9244 -4.61812 19.298 -4.51182C18.8701 -4.33466 18.5689 -4.02084 18.3881 -3.63109C18.376 -3.60578 18.3399 -3.57541 18.3097 -3.56529C17.8819 -3.47418 17.4481 -3.37294 17.0142 -3.53492C16.7069 -3.64627 16.5924 -3.87405 16.5864 -4.1322C16.5743 -4.38022 16.7551 -4.56244 16.9961 -4.69404C17.1287 -4.76491 17.2914 -4.80034 17.43 -4.86614C17.6951 -4.98256 17.912 -4.99268 18.2013 -4.84083ZM16.8756 -5.5849C17.5023 -5.78737 17.5083 -5.77724 17.7313 -5.22046C17.4239 -5.09898 17.1046 -4.99268 16.8214 -4.84589C16.3453 -4.59787 16.2369 -4.25874 16.4237 -3.76775C16.5502 -3.4438 16.9238 -3.23628 17.4059 -3.2464C17.7252 -3.25147 18.0386 -3.28183 18.358 -3.30208C18.3881 -3.13505 18.4182 -2.97307 18.4544 -2.77566C18.0627 -2.64912 17.6469 -2.54283 17.213 -2.63394C16.5924 -2.76555 16.0561 -2.99332 15.7789 -3.53998C15.3149 -4.45614 16.0802 -5.32675 16.8756 -5.5849ZM7.69227 -2.84147C7.76458 -3.29196 7.89112 -3.74245 8.05984 -4.17775C8.24061 -4.63837 8.67447 -4.92688 9.15051 -5.20021C9.87361 -5.61021 10.6811 -5.66588 11.5006 -5.7165C11.5488 -5.72156 11.6392 -5.63552 11.6572 -5.57478C11.9043 -4.96738 12.1755 -4.3701 12.8263 -3.98035C13.1155 -3.80825 13.4469 -3.68677 13.7904 -3.5248C13.2722 -3.39825 12.76 -3.27171 12.2478 -3.14517C12.1755 -3.12492 12.0971 -3.11986 12.0309 -3.09455C11.8079 -2.99838 11.6573 -3.01862 11.5006 -3.21097C10.9884 -3.83355 9.65668 -3.94998 8.92153 -3.32739C8.24664 -2.75542 8.45152 -1.82913 9.06615 -1.45963C9.6386 -1.11543 10.4943 -1.01926 11.1812 -1.56592C11.4946 -1.81394 11.7175 -2.0974 11.7537 -2.4669C11.7717 -2.64406 11.8802 -2.70986 12.0851 -2.7453C12.6937 -2.85665 13.2902 -2.99332 13.9169 -3.12998C13.7121 -2.83641 13.5132 -2.58332 13.3505 -2.31505C13.0854 -1.87975 13.1215 -1.40901 13.1758 -0.938277C13.1758 -0.923091 13.1878 -0.907905 13.1938 -0.89272C13.3445 -0.275195 13.3445 -0.275193 12.6515 -0.0119867C11.8682 0.281591 11.0667 0.367641 10.2171 0.210729C9.55424 0.0892479 9.10231 -0.275193 8.67447 -0.675065C8.48767 -0.852225 8.32498 -1.04963 8.16228 -1.24198C7.75252 -1.71778 7.60188 -2.26444 7.69227 -2.84147ZM11.4885 -2.47196C11.4463 -2.08728 11.1692 -1.82913 10.7715 -1.67728C10.5545 -1.59629 10.3075 -1.57099 10.0725 -1.52037C9.27103 -1.5558 8.77691 -2.06197 8.92756 -2.72505C8.99987 -3.04393 9.32526 -3.1806 9.62053 -3.3122C10.0544 -3.50961 10.5123 -3.52986 10.9462 -3.32233C11.3319 -3.14011 11.5307 -2.84653 11.4885 -2.47196ZM5.63747 -1.93037C6.0412 -1.86962 6.45095 -1.80382 6.84263 -1.73802C6.28223 -1.34827 5.72183 -0.928151 5.12527 -0.543463C4.33589 -0.0271707 3.44407 0.170236 2.46186 -0.0980325C2.25096 -0.15371 2.05813 -0.270133 1.88339 -0.386551C1.72069 -0.492846 1.65441 -0.644694 1.74479 -0.831976C2.08826 -1.56592 2.78123 -1.91012 3.65497 -2.05691C4.32987 -2.17333 4.98065 -2.02654 5.63747 -1.93037ZM0.527579 -2.21382C-0.165388 -2.42135 -0.870408 -2.5985 -1.5694 -2.78072C-1.72607 -2.82122 -1.90685 -2.81616 -2.12378 -2.83641C-1.82851 -3.13505 -1.5453 -3.42356 -1.26811 -3.71207C-0.912589 -4.07652 -0.43655 -4.00565 -0.0629505 -3.83862C0.684251 -3.50455 1.38324 -3.09455 2.09429 -2.71493C2.3293 -2.58839 2.55828 -2.44666 2.80534 -2.30493C2.06416 -1.92024 1.31093 -1.98098 0.527579 -2.21382ZM1.99788 -4.60293C2.32327 -4.54725 2.58841 -4.4359 2.74508 -4.16257C3.19099 -3.39319 3.81767 -2.76048 4.79385 -2.33024C4.67334 -2.31505 4.6191 -2.30493 4.56487 -2.30493C4.25755 -2.33024 3.95024 -2.36061 3.6369 -2.38086C3.16086 -2.41629 2.73303 -2.55802 2.36545 -2.8111C1.52786 -3.39319 0.636044 -3.88417 -0.424499 -4.18787C0.364882 -4.47133 1.13016 -4.74972 1.99788 -4.60293ZM-3.91947 -1.98604C-3.46151 -2.66937 -3.00355 -3.35776 -2.50943 -4.0259C-1.75018 -5.05343 -0.587196 -5.56972 0.810793 -5.72157C1.2085 -5.76712 1.61825 -5.73169 2.02198 -5.72157C2.06416 -5.72157 2.12442 -5.67601 2.13647 -5.64058C2.1907 -5.47354 2.23288 -5.30651 2.27506 -5.14959C1.91954 -5.11416 1.5821 -5.10404 1.24465 -5.04836C-0.0508989 -4.84589 -1.09336 -4.30936 -1.90685 -3.42356C-2.73238 -2.52764 -3.37715 -1.54061 -4.02793 -0.553583C-4.31115 -0.118279 -4.58231 0.32715 -4.86552 0.762455C-4.94386 0.878874 -4.92578 0.934547 -4.78719 1.00541C-4.1846 1.31417 -3.59407 1.64824 -2.98547 1.94688C-2.17198 2.34676 -1.35247 2.75169 -0.50886 3.10601C0.304625 3.44514 1.15426 3.71847 2.08224 3.73366C2.45584 3.73872 2.82944 3.67798 3.19701 3.62736C3.49228 3.58687 3.78754 3.52613 4.07076 3.44008C4.34794 3.35403 4.60705 3.22243 4.90834 3.10095C4.98065 3.30341 5.04091 3.48057 5.10719 3.66279C4.45038 3.94119 3.8719 4.33094 3.11265 4.47773C2.07621 4.67513 1.10003 4.58908 0.172056 4.18921C-0.514886 3.89563 -1.17772 3.55144 -1.84659 3.22243C-2.81675 2.74157 -3.78087 2.25059 -4.75103 1.77479C-5.18489 1.55714 -5.63682 1.35973 -6.0285 1.17245C-5.32951 0.129743 -4.63051 -0.933212 -3.91947 -1.98604Z" fill="white" fill-opacity="0.06"/>
</g>
<rect width="50" height="13" transform="translate(0 37)" fill="#824FD4"/>
<path d="M16.5763 44.5518H15.6296L15.5421 44.4031C15.5674 44.3356 15.5959 44.2671 15.598 44.1933C15.6086 43.782 15.6602 42.4745 15.4304 42.2014C15.0878 41.8587 14.4015 41.9199 14.3024 42.4408C14.1938 43.0144 14.3741 43.8084 14.2897 44.3884C14.2792 44.4643 14.2528 44.5075 14.1906 44.5507H13.244V42.6232C13.244 42.5726 13.1037 42.2172 13.051 42.1624C12.8434 41.9462 12.3394 41.9578 12.1117 42.1286C12.0801 42.1529 11.9367 42.4091 11.9367 42.426V44.5497H10.8931V41.1522H11.9378L11.9705 41.4791C12.5724 40.8633 13.555 41.0035 14.0631 41.6742H14.1253C14.6766 40.8686 16.0355 40.8917 16.4593 41.825C16.4804 41.8724 16.5763 42.1476 16.5763 42.1655V44.5497V44.5518Z" fill="white"/>
<path d="M19.5606 44.498V44.1057C19.3972 44.2112 19.2622 44.3672 19.0735 44.4358C16.4707 45.3848 16.3189 40.1694 19.1484 41.1532L19.5606 41.4263L19.569 41.1406L19.6671 41.0425L20.6095 41.0636L20.6717 41.1975C20.6053 42.1929 20.7561 43.2896 20.6738 44.2723C20.6654 44.3715 20.6665 44.4379 20.5726 44.498H19.5606ZM18.6255 41.9631C18.1153 42.078 17.9687 42.9058 18.2534 43.2896C18.6013 43.7588 19.3529 43.6745 19.5311 43.1293C19.7419 42.4871 19.3487 41.7986 18.6255 41.9631Z" fill="white"/>
<path d="M24.8163 40.032V44.5398H23.7716V44.0822C23.275 44.582 22.4211 44.7381 21.8455 44.2773C20.6142 43.2913 21.2088 40.7828 23.0062 41.0917C23.3046 41.1434 23.5375 41.3659 23.7716 41.5346V40.032H24.8163ZM22.8386 42.0059C22.1228 42.1304 22.0806 43.323 22.7247 43.5919C23.9339 44.097 24.2344 41.7634 22.8386 42.0059Z" fill="white"/>
<path d="M25.3137 41.1543H26.3595L26.3922 41.6763C26.6895 41.3167 26.9868 41.1121 27.4696 41.0889V42.1993C27.1849 42.1835 26.6125 42.1835 26.4744 42.4777C26.4544 42.5198 26.3595 42.8024 26.3595 42.8204V44.5518H25.4128L25.3148 44.4537V41.1543H25.3137Z" fill="white"/>
<path d="M30.4975 44.5417V44.0841C30.1011 44.4647 29.7922 44.6008 29.2293 44.5364C27.7818 44.3698 27.5383 42.0026 28.7117 41.2855C29.3242 40.9112 30.0052 41.044 30.4975 41.5365V41.1442H31.5433V44.5417H30.4986H30.4975ZM29.5635 42.0068C28.8139 42.1671 28.8529 43.443 29.5814 43.6633C29.9187 43.7656 30.4416 43.4208 30.4954 43.0686C30.5913 42.4317 30.2708 41.8549 29.5645 42.0068H29.5635Z" fill="white"/>
<path d="M34.9789 42.2463H33.9995L33.8677 41.9532C33.7128 41.8182 33.4028 41.8288 33.2131 41.8826C33.056 42.1514 33.1456 42.2601 33.3944 42.3613C33.9753 42.5985 34.8808 42.5564 34.9768 43.3936C35.1549 44.9479 32.1494 44.9184 32.0408 43.4221H33.0855L33.1646 43.6699C33.3533 43.7679 33.8013 43.8207 33.9384 43.6551L33.9942 43.4653C33.542 42.9602 32.2991 43.1827 32.1736 42.3423C31.9216 40.6552 34.903 40.614 34.9799 42.2463H34.9789Z" fill="white"/>
<path d="M38.0613 44.5236V44.066C37.3307 44.8094 36.2312 44.6934 35.7209 43.7613C35.0083 42.4611 35.9655 40.5283 37.5848 41.1789L38.0623 41.5184V41.1261H39.107V44.4256L39.009 44.5236H38.0623H38.0613ZM37.0619 41.9887C36.2828 42.1648 36.4325 43.6938 37.298 43.6558C38.4007 43.6084 38.2552 41.7188 37.0619 41.9887Z" fill="white"/>
<path d="M14.5362 21.8252L14.0203 19.9554C15.199 19.7362 17.1517 18.4545 17.4096 17.2449C17.6925 15.9244 16.7966 14.9589 16.5942 13.766L18.3748 13.078C21.0707 16.7123 18.8186 21.2371 14.5334 21.8252H14.5362Z" fill="white"/>
<path d="M27.1224 18.6105C27.6244 19.1737 28.8143 19.1709 29.2858 18.5495C30.0513 17.5397 30.2011 16.3023 31.3799 15.4867C33.8928 13.7445 36.8161 16.8572 35.7566 19.5205C34.919 21.6206 32.4089 21.3154 30.742 20.3999C29.3302 21.3404 27.5107 21.5291 26.1322 20.4221C24.7954 21.3432 23.2505 21.3876 21.7028 21.0241C21.4033 20.9548 20.3243 20.6996 20.3909 20.3167L21.0649 18.6605C21.9469 19.0405 24.9535 19.5122 24.5984 17.9669C24.396 17.0819 22.9481 15.1649 22.9454 14.7876C22.9454 14.5213 24.1907 13.6723 24.4126 13.6668C24.9701 13.6557 26.0629 15.8751 26.3014 16.4272C26.54 16.9793 26.7702 18.2194 27.1224 18.6133V18.6105ZM32.5087 17.1291C30.9694 18.6549 31.9956 19.2264 33.7846 18.924C34.3088 18.58 33.6709 17.326 33.1439 17.1374L32.5087 17.1291Z" fill="white"/>
<path d="M34.9542 22.0383C35.6088 24.316 36.7404 27.8282 33.756 28.8297C32.7409 29.1709 30.6801 29.293 30.314 28.0529H30.0588C29.9007 28.1223 29.8674 28.408 29.7482 28.5134C28.8051 29.3568 26.0732 29.3041 25.4186 28.0529C24.3813 29.2236 22.143 29.3374 20.7673 28.7492C20.2292 28.519 19.6245 27.7644 19.3444 27.2484C18.8535 26.344 18.7675 24.6184 17.1921 25.495C15.9273 26.1997 16.4654 27.2706 16.74 28.3941C16.1409 28.3553 15.0648 29.1765 14.707 28.4524C13.1953 25.3896 15.9523 22.7568 19.0227 23.2784C21.1889 23.6446 20.4816 26.4799 22.0154 26.8156C24.3064 27.3177 24.4062 25.9334 24.6448 24.0996L26.7083 24.4464C26.5363 24.9152 26.2812 26.2663 26.5696 26.6464L28.3114 26.8239C29.2101 26.5604 29.0797 24.0385 29.5568 23.9442L31.3485 24.2771C31.2986 25.151 30.669 26.3051 31.6342 26.8267C32.2694 26.8877 32.9933 26.9737 33.5008 26.5187C34.0639 25.6532 32.6355 22.7735 32.8962 22.5654L34.9514 22.0466L34.9542 22.0383Z" fill="white"/>
</g>
<defs>
<linearGradient id="paint0_linear_1302_33988" x1="7.022" y1="-15.8206" x2="46.1506" y2="47.758" gradientUnits="userSpaceOnUse">
<stop stop-color="#5724A9"/>
<stop offset="1" stop-color="#421984"/>
</linearGradient>
<clipPath id="clip0_1302_33988">
<rect width="50" height="50" rx="14" fill="white"/>
</clipPath>
<clipPath id="clip1_1302_33988">
<rect width="28.0711" height="54.2583" fill="white" transform="translate(-2.12915 22.1726) rotate(-90)"/>
</clipPath>
</defs>
</svg>
