<svg width="6" height="10" viewBox="0 0 6 10" fill="none" xmlns="http://www.w3.org/2000/svg">
<path fill-rule="evenodd" clip-rule="evenodd" d="M0.293031 9.70701C0.10556 9.51948 0.000244141 9.26517 0.000244141 9.00001C0.000244141 8.73485 0.10556 8.48054 0.293031 8.29301L3.58603 5.00001L0.293031 1.70701C0.110873 1.51841 0.0100779 1.26581 0.0123563 1.00361C0.0146347 0.741413 0.119804 0.4906 0.305212 0.305192C0.49062 0.119784 0.741433 0.0146148 1.00363 0.0123364C1.26583 0.010058 1.51843 0.110853 1.70703 0.293011L5.70703 4.29301C5.8945 4.48054 5.99982 4.73485 5.99982 5.00001C5.99982 5.26517 5.8945 5.51948 5.70703 5.70701L1.70703 9.70701C1.5195 9.89448 1.26519 9.9998 1.00003 9.9998C0.734866 9.9998 0.480558 9.89448 0.293031 9.70701Z" fill="white"/>
</svg>
