<svg width="51" height="11" viewBox="0 0 51 11" fill="none" xmlns="http://www.w3.org/2000/svg">
<path d="M24.4365 0.470032C25.2062 3.14846 26.537 7.27865 23.0275 8.45637C21.8337 8.85765 19.4104 9.00119 18.9798 7.5429H18.6798C18.4938 7.62446 18.4547 7.96049 18.3145 8.08446C17.2055 9.07623 13.9928 9.01424 13.2231 7.5429C12.0032 8.91963 9.37113 9.05339 7.75337 8.36176C7.12062 8.09099 6.40959 7.20362 6.08017 6.59681C5.50286 5.53327 5.40175 3.50406 3.54916 4.53498C2.06187 5.36363 2.69462 6.62291 3.01752 7.94418C2.31301 7.8985 1.04751 8.86417 0.626758 8.01269C-1.15082 4.411 2.09122 1.31499 5.70182 1.92832C8.24913 2.35896 7.41742 5.69312 9.22109 6.08787C11.9152 6.67837 12.0326 5.05043 12.3131 2.89399L14.7397 3.30179C14.5375 3.85313 14.2374 5.44192 14.5767 5.88887L16.6249 6.09766C17.6817 5.78774 17.5284 2.82222 18.0894 2.7113L20.1964 3.10279C20.1377 4.13044 19.3973 5.48759 20.5323 6.10092C21.2793 6.1727 22.1305 6.27383 22.7274 5.7388C23.3895 4.72093 21.7098 1.33457 22.0164 1.08989L24.4332 0.479819L24.4365 0.470032Z" fill="#8A57DC"/>
<path d="M26.7766 10.5301L26.1377 8.37959C27.5976 8.12753 30.0158 6.65348 30.3352 5.26237C30.6856 3.74365 29.5761 2.63332 29.3254 1.26136L31.5306 0.470093C34.8694 4.64978 32.0802 9.85365 26.7732 10.5301H26.7766Z" fill="#8A57DC"/>
<path d="M41.1634 5.89076C41.7138 6.50826 43.0185 6.50521 43.5355 5.82383C44.3748 4.71659 44.539 3.35992 45.8315 2.46561C48.5868 0.55531 51.7922 3.96829 50.6304 6.88849C49.712 9.19119 46.9598 8.85658 45.1321 7.85277C43.5841 8.88396 41.5891 9.09081 40.0777 7.8771C38.6119 8.887 36.9179 8.93567 35.221 8.53719C34.8925 8.46114 33.7095 8.18129 33.7825 7.76151L34.5215 5.94551C35.4886 6.36225 38.7852 6.87937 38.3959 5.18504C38.1739 4.21468 36.5865 2.11275 36.5834 1.69906C36.5834 1.40704 37.9489 0.476222 38.1922 0.470138C38.8035 0.457971 40.0017 2.89147 40.2632 3.4968C40.5247 4.10214 40.7771 5.46185 41.1634 5.8938V5.89076ZM47.0693 4.2664C45.3814 5.93943 46.5067 6.56605 48.4682 6.23449C49.043 5.8573 48.3435 4.48237 47.7657 4.27552L47.0693 4.2664Z" fill="#8A57DC"/>
</svg>
