<svg width="42" height="29" viewBox="0 0 42 29" fill="none" xmlns="http://www.w3.org/2000/svg">
<path d="M10.5364 15.8253L10.0205 13.9554C11.1993 13.7362 13.1519 12.4545 13.4098 11.245C13.6927 9.9244 12.7969 8.95896 12.5944 7.76602L14.3751 7.078C17.071 10.7123 14.8188 15.2371 10.5336 15.8253H10.5364Z" fill="white"/>
<path d="M23.1227 12.6106C23.6247 13.1737 24.8145 13.171 25.2861 12.5495C26.0516 11.5397 26.2013 10.3024 27.3801 9.48674C29.893 7.7445 32.8164 10.8572 31.7569 13.5205C30.9192 15.6206 28.4091 15.3155 26.7422 14.4C25.3304 15.3404 23.511 15.5291 22.1325 14.4222C20.7956 15.3432 19.2507 15.3876 17.703 15.0242C17.4035 14.9548 16.3246 14.6996 16.3911 14.3167L17.0651 12.6605C17.9471 13.0406 20.9537 13.5122 20.5987 11.9669C20.3962 11.0819 18.9484 9.16492 18.9456 8.78762C18.9456 8.52129 20.191 7.67237 20.4128 7.66682C20.9703 7.65572 22.0631 9.87514 22.3017 10.4272C22.5402 10.9793 22.7704 12.2194 23.1227 12.6133V12.6106ZM28.509 11.1291C26.9696 12.655 27.9959 13.2265 29.7848 12.9241C30.309 12.58 29.6711 11.3261 29.1441 11.1374L28.509 11.1291Z" fill="white"/>
<path d="M30.9542 16.0383C31.6088 18.316 32.7404 21.8282 29.756 22.8297C28.7409 23.171 26.6801 23.293 26.314 22.0529H26.0588C25.9007 22.1223 25.8674 22.408 25.7482 22.5135C24.8051 23.3568 22.0732 23.3041 21.4186 22.0529C20.3813 23.2237 18.143 23.3374 16.7673 22.7493C16.2292 22.519 15.6245 21.7644 15.3444 21.2484C14.8535 20.344 14.7675 18.6184 13.1921 19.4951C11.9273 20.1997 12.4654 21.2706 12.74 22.3942C12.1409 22.3553 11.0648 23.1765 10.707 22.4524C9.19535 19.3896 11.9523 16.7569 15.0227 17.2784C17.1889 17.6446 16.4816 20.4799 18.0154 20.8156C20.3064 21.3178 20.4062 19.9334 20.6448 18.0996L22.7083 18.4464C22.5363 18.9152 22.2812 20.2663 22.5696 20.6464L24.3114 20.8239C25.2101 20.5604 25.0797 18.0386 25.5568 17.9443L27.3485 18.2772C27.2986 19.1511 26.669 20.3052 27.6342 20.8267C28.2694 20.8877 28.9933 20.9737 29.5008 20.5188C30.0639 19.6532 28.6355 16.7735 28.8962 16.5654L30.9514 16.0467L30.9542 16.0383Z" fill="white"/>
</svg>
