<svg width="16" height="17" viewBox="0 0 16 17" fill="none" xmlns="http://www.w3.org/2000/svg">
<path d="M15 8.50031C15.0004 8.67008 14.9569 8.83706 14.8736 8.98503C14.7904 9.13299 14.6703 9.25689 14.525 9.34469L5.52 14.8534C5.36818 14.9464 5.19429 14.9972 5.0163 15.0005C4.83831 15.0037 4.66266 14.9595 4.5075 14.8722C4.35382 14.7863 4.2258 14.661 4.1366 14.5091C4.04741 14.3573 4.00026 14.1845 4 14.0084L4 2.99219C4.00026 2.81612 4.04741 2.64329 4.1366 2.49148C4.2258 2.33967 4.35382 2.21436 4.5075 2.12844C4.66266 2.04115 4.83831 1.99688 5.0163 2.00017C5.19429 2.00347 5.36818 2.05422 5.52 2.14719L14.525 7.65594C14.6703 7.74373 14.7904 7.86764 14.8736 8.0156C14.9569 8.16356 15.0004 8.33055 15 8.50031Z" fill="white"/>
</svg>
