<svg width="20" height="20" viewBox="0 0 20 20" fill="none" xmlns="http://www.w3.org/2000/svg">
<path d="M13.7498 12.1875C12.9126 12.1861 12.104 12.4919 11.4771 13.0469L8.28885 11C8.48674 10.348 8.48674 9.65196 8.28885 8.99998L11.4771 6.9531C12.0977 7.49849 12.8946 7.80112 13.7207 7.80518C14.5469 7.80925 15.3467 7.51448 15.9726 6.97522C16.5985 6.43597 17.0084 5.68859 17.1266 4.87091C17.2448 4.05323 17.0634 3.22039 16.6158 2.52595C16.1682 1.83151 15.4846 1.32231 14.6911 1.09224C13.8976 0.862169 13.0477 0.926746 12.2981 1.27406C11.5484 1.62138 10.9497 2.22801 10.6121 2.9821C10.2746 3.73619 10.2211 4.58688 10.4615 5.37732L7.27244 7.42185C6.77651 6.98357 6.16461 6.69778 5.51021 6.59879C4.85581 6.49981 4.18676 6.59184 3.58339 6.86384C2.98002 7.13583 2.46801 7.57622 2.10883 8.13212C1.74965 8.68802 1.55859 9.33579 1.55859 9.99763C1.55859 10.6595 1.74965 11.3072 2.10883 11.8631C2.46801 12.419 2.98002 12.8594 3.58339 13.1314C4.18676 13.4034 4.85581 13.4955 5.51021 13.3965C6.16461 13.2975 6.77651 13.0117 7.27244 12.5734L10.4607 14.625C10.2504 15.3168 10.2635 16.0574 10.4984 16.7413C10.7332 17.4253 11.1778 18.0177 11.7688 18.4344C12.3598 18.8511 13.0672 19.0708 13.7902 19.0622C14.5133 19.0537 15.2153 18.8173 15.7963 18.3867C16.3773 17.9562 16.8077 17.3534 17.0262 16.6641C17.2448 15.9748 17.2405 15.2341 17.0138 14.5474C16.7871 13.8607 16.3496 13.263 15.7636 12.8393C15.1776 12.4156 14.4729 12.1875 13.7498 12.1875ZM13.7498 2.81248C14.0588 2.81248 14.3609 2.90411 14.6179 3.0758C14.8748 3.24749 15.0751 3.49152 15.1933 3.77703C15.3116 4.06254 15.3426 4.37671 15.2823 4.6798C15.222 4.9829 15.0732 5.26131 14.8546 5.47983C14.6361 5.69835 14.3577 5.84716 14.0546 5.90745C13.7515 5.96774 13.4374 5.9368 13.1518 5.81854C12.8663 5.70028 12.6223 5.50001 12.4506 5.24305C12.2789 4.9861 12.1873 4.68401 12.1873 4.37498C12.1873 3.96057 12.3519 3.56315 12.6449 3.27012C12.938 2.9771 13.3354 2.81248 13.7498 2.81248ZM4.99978 11.5625C4.69075 11.5625 4.38866 11.4708 4.13171 11.2991C3.87475 11.1275 3.67448 10.8834 3.55622 10.5979C3.43796 10.3124 3.40702 9.99824 3.46731 9.69515C3.5276 9.39205 3.67641 9.11364 3.89493 8.89512C4.11345 8.6766 4.39186 8.52779 4.69496 8.4675C4.99805 8.40721 5.31222 8.43815 5.59773 8.55641C5.88324 8.67467 6.12727 8.87494 6.29896 9.1319C6.47065 9.38885 6.56228 9.69094 6.56228 9.99998C6.56228 10.4144 6.39766 10.8118 6.10464 11.1048C5.81161 11.3979 5.41419 11.5625 4.99978 11.5625ZM13.7498 17.1875C13.4408 17.1875 13.1387 17.0958 12.8817 16.9241C12.6248 16.7525 12.4245 16.5084 12.3062 16.2229C12.188 15.9374 12.157 15.6232 12.2173 15.3201C12.2776 15.0171 12.4264 14.7386 12.6449 14.5201C12.8635 14.3016 13.1419 14.1528 13.445 14.0925C13.7481 14.0322 14.0622 14.0632 14.3477 14.1814C14.6332 14.2997 14.8773 14.4999 15.049 14.7569C15.2206 15.0138 15.3123 15.3159 15.3123 15.625C15.3123 16.0394 15.1477 16.4368 14.8546 16.7298C14.5616 17.0229 14.1642 17.1875 13.7498 17.1875Z" fill="#E5E5E5"/>
</svg>
