<svg width="22" height="22" viewBox="0 0 22 22" fill="none" xmlns="http://www.w3.org/2000/svg">
<rect width="18" height="18" transform="translate(2 2)" fill="white"/>
<path d="M15.8125 2.75H6.1875C5.82283 2.75 5.47309 2.89487 5.21523 3.15273C4.95737 3.41059 4.8125 3.76033 4.8125 4.125V19.25C4.81256 19.3727 4.84545 19.4931 4.90777 19.5988C4.97008 19.7045 5.05954 19.7916 5.16687 19.8511C5.2742 19.9105 5.39548 19.9402 5.51813 19.9369C5.64078 19.9337 5.76033 19.8977 5.86437 19.8327L11 16.6229L16.1365 19.8327C16.2405 19.8975 16.36 19.9333 16.4825 19.9364C16.605 19.9395 16.7261 19.9098 16.8333 19.8504C16.9405 19.791 17.0299 19.704 17.0922 19.5984C17.1544 19.4929 17.1873 19.3726 17.1875 19.25V4.125C17.1875 3.76033 17.0426 3.41059 16.7848 3.15273C16.5269 2.89487 16.1772 2.75 15.8125 2.75Z" fill="#8A57DC"/>
</svg>
