<svg width="38" height="38" viewBox="0 0 38 38" fill="none" xmlns="http://www.w3.org/2000/svg">
<path d="M19 38C8.50659 38 -3.71835e-07 29.4934 -8.30516e-07 19C-1.2892e-06 8.50659 8.50659 -3.71835e-07 19 -8.30516e-07C29.4934 -1.2892e-06 38 8.50659 38 19C38 29.4934 29.4934 38 19 38Z" fill="url(#paint0_linear_159_843)"/>
<path d="M28.75 11.125H22C21.4377 11.1248 20.8814 11.24 20.3654 11.4633C19.8494 11.6866 19.3847 12.0134 19 12.4234C18.6153 12.0134 18.1506 11.6866 17.6346 11.4633C17.1186 11.24 16.5623 11.1248 16 11.125H9.25C8.95163 11.125 8.66548 11.2435 8.4545 11.4545C8.24353 11.6655 8.125 11.9516 8.125 12.25V25.75C8.125 26.0484 8.24353 26.3345 8.4545 26.5455C8.66548 26.7565 8.95163 26.875 9.25 26.875H16C16.4973 26.875 16.9742 27.0725 17.3258 27.4242C17.6775 27.7758 17.875 28.2527 17.875 28.75C17.875 29.0484 17.9935 29.3345 18.2045 29.5455C18.4155 29.7565 18.7016 29.875 19 29.875C19.2984 29.875 19.5845 29.7565 19.7955 29.5455C20.0065 29.3345 20.125 29.0484 20.125 28.75C20.125 28.2527 20.3225 27.7758 20.6742 27.4242C21.0258 27.0725 21.5027 26.875 22 26.875H28.75C29.0484 26.875 29.3345 26.7565 29.5455 26.5455C29.7565 26.3345 29.875 26.0484 29.875 25.75V12.25C29.875 11.9516 29.7565 11.6655 29.5455 11.4545C29.3345 11.2435 29.0484 11.125 28.75 11.125ZM16 24.625H10.375V13.375H16C16.4973 13.375 16.9742 13.5725 17.3258 13.9242C17.6775 14.2758 17.875 14.7527 17.875 15.25V25.0759C17.2947 24.7789 16.6519 24.6243 16 24.625ZM27.625 24.625H22C21.3479 24.6246 20.7051 24.7798 20.125 25.0778V15.25C20.125 14.7527 20.3225 14.2758 20.6742 13.9242C21.0258 13.5725 21.5027 13.375 22 13.375H27.625V24.625ZM22.375 16H25.375C25.6734 16 25.9595 16.1185 26.1705 16.3295C26.3815 16.5405 26.5 16.8266 26.5 17.125C26.5 17.4234 26.3815 17.7095 26.1705 17.9205C25.9595 18.1315 25.6734 18.25 25.375 18.25H22.375C22.0766 18.25 21.7905 18.1315 21.5795 17.9205C21.3685 17.7095 21.25 17.4234 21.25 17.125C21.25 16.8266 21.3685 16.5405 21.5795 16.3295C21.7905 16.1185 22.0766 16 22.375 16ZM26.5 20.875C26.5 21.1734 26.3815 21.4595 26.1705 21.6705C25.9595 21.8815 25.6734 22 25.375 22H22.375C22.0766 22 21.7905 21.8815 21.5795 21.6705C21.3685 21.4595 21.25 21.1734 21.25 20.875C21.25 20.5766 21.3685 20.2905 21.5795 20.0795C21.7905 19.8685 22.0766 19.75 22.375 19.75H25.375C25.6734 19.75 25.9595 19.8685 26.1705 20.0795C26.3815 20.2905 26.5 20.5766 26.5 20.875Z" fill="url(#paint1_linear_159_843)"/>
<defs>
<linearGradient id="paint0_linear_159_843" x1="-2.94828" y1="22.5216" x2="40.6207" y2="11.7112" gradientUnits="userSpaceOnUse">
<stop stop-color="white"/>
<stop offset="1" stop-color="#F2DEFF"/>
</linearGradient>
<linearGradient id="paint1_linear_159_843" x1="6" y1="36.6827" x2="27.1294" y2="6.40204" gradientUnits="userSpaceOnUse">
<stop stop-color="#8A57DC"/>
<stop offset="0.99875" stop-color="#EAA6F1"/>
</linearGradient>
</defs>
</svg>
