<svg width="38" height="38" viewBox="0 0 38 38" fill="none" xmlns="http://www.w3.org/2000/svg">
<path d="M19 38C8.50659 38 -3.71835e-07 29.4934 -8.30516e-07 19C-1.2892e-06 8.50659 8.50659 -3.71835e-07 19 -8.30516e-07C29.4934 -1.2892e-06 38 8.50659 38 19C38 29.4934 29.4934 38 19 38Z" fill="url(#paint0_linear_159_845)"/>
<path d="M28 16.375H27.5519C27.2799 14.2994 26.2622 12.3935 24.6888 11.0128C23.1153 9.63208 21.0934 8.87074 19 8.87074C16.9066 8.87074 14.8847 9.63208 13.3112 11.0128C11.7378 12.3935 10.7201 14.2994 10.4481 16.375H10C9.70163 16.375 9.41548 16.4935 9.2045 16.7045C8.99353 16.9155 8.875 17.2016 8.875 17.5C8.87838 19.3134 9.36701 21.0929 10.2902 22.6537C11.2134 24.2145 12.5374 25.4998 14.125 26.3763V26.5C14.125 26.9973 14.3225 27.4742 14.6742 27.8258C15.0258 28.1775 15.5027 28.375 16 28.375H22C22.4973 28.375 22.9742 28.1775 23.3258 27.8258C23.6775 27.4742 23.875 26.9973 23.875 26.5V26.3763C25.4626 25.4998 26.7866 24.2145 27.7098 22.6537C28.633 21.0929 29.1216 19.3134 29.125 17.5C29.125 17.2016 29.0065 16.9155 28.7955 16.7045C28.5845 16.4935 28.2984 16.375 28 16.375ZM22.9647 12.6306C21.2447 13.4035 19.8254 14.7187 18.9241 16.375H16.9375C17.4453 15.2588 18.2631 14.3119 19.2935 13.6471C20.324 12.9823 21.5237 12.6276 22.75 12.625C22.8212 12.625 22.8925 12.625 22.9647 12.6306ZM24.5791 14.4194C24.9164 15.0287 25.1511 15.6894 25.2738 16.375H21.6372C22.4137 15.4587 23.4336 14.7807 24.5791 14.4194ZM19 11.125C19.0778 11.125 19.1547 11.125 19.2325 11.1306C18.1256 11.6267 17.1354 12.3499 16.3261 13.2534C15.5168 14.1569 14.9064 15.2204 14.5347 16.375H12.7263C12.9919 14.9039 13.7653 13.5726 14.9118 12.6132C16.0583 11.6538 17.5051 11.1271 19 11.125ZM22.2812 24.6616C22.0854 24.7513 21.9195 24.8954 21.8031 25.0767C21.6868 25.2581 21.625 25.469 21.625 25.6844V26.125H16.375V25.6844C16.375 25.469 16.3132 25.2581 16.1969 25.0767C16.0805 24.8954 15.9146 24.7513 15.7188 24.6616C14.5236 24.1105 13.4849 23.2698 12.697 22.2156C11.909 21.1615 11.3967 19.9273 11.2066 18.625H26.7934C26.6033 19.9273 26.091 21.1615 25.303 22.2156C24.5151 23.2698 23.4764 24.1105 22.2812 24.6616Z" fill="url(#paint1_linear_159_845)"/>
<defs>
<linearGradient id="paint0_linear_159_845" x1="-2.94828" y1="22.5216" x2="40.6207" y2="11.7112" gradientUnits="userSpaceOnUse">
<stop stop-color="white"/>
<stop offset="1" stop-color="#F2DEFF"/>
</linearGradient>
<linearGradient id="paint1_linear_159_845" x1="6.89655" y1="35.4566" x2="29.607" y2="6.32648" gradientUnits="userSpaceOnUse">
<stop stop-color="#8A57DC"/>
<stop offset="0.99875" stop-color="#EAA6F1"/>
</linearGradient>
</defs>
</svg>
