<svg width="38" height="38" viewBox="0 0 38 38" fill="none" xmlns="http://www.w3.org/2000/svg">
<path d="M19 38C8.50659 38 -3.71835e-07 29.4934 -8.30516e-07 19C-1.2892e-06 8.50659 8.50659 -3.71835e-07 19 -8.30516e-07C29.4934 -1.2892e-06 38 8.50659 38 19C38 29.4934 29.4934 38 19 38Z" fill="url(#paint0_linear_159_875)"/>
<path d="M24.3091 9.16937C24.3519 9.02764 24.4224 8.89577 24.5163 8.78132C24.6102 8.66687 24.7258 8.57209 24.8565 8.50241C24.9871 8.43273 25.1302 8.38953 25.2776 8.37528C25.425 8.36103 25.5737 8.37601 25.7153 8.41937C26.7252 8.72901 27.6488 9.27026 28.4125 9.99999C28.6241 10.2071 28.7455 10.4892 28.7505 10.7852C28.7555 11.0812 28.6435 11.3673 28.439 11.5813C28.2345 11.7953 27.9538 11.9201 27.6579 11.9286C27.3619 11.9371 27.0746 11.8285 26.8581 11.6266C26.3479 11.1414 25.7316 10.7819 25.0581 10.5766C24.9164 10.5336 24.7845 10.4631 24.6701 10.369C24.5557 10.275 24.4609 10.1593 24.3913 10.0285C24.3217 9.89779 24.2787 9.75459 24.2645 9.60715C24.2504 9.45972 24.2655 9.31094 24.3091 9.16937ZM28.8297 22.7312C28.3883 24.3791 27.4682 25.859 26.1857 26.9839C24.9033 28.1088 23.316 28.8281 21.6247 29.0508C19.9334 29.2736 18.2141 28.9899 16.684 28.2354C15.154 27.481 13.8821 26.2898 13.0291 24.8125L9.27907 18.3137C8.88204 17.6252 8.77445 16.8073 8.97993 16.0395C9.1854 15.2718 9.68715 14.6169 10.375 14.2187C10.597 14.0906 10.8346 13.9916 11.0819 13.9244C10.8034 13.3444 10.7188 12.6903 10.8404 12.0586C10.9621 11.4268 11.2836 10.8509 11.7576 10.4159C12.2315 9.9808 12.8327 9.70961 13.4726 9.64233C14.1124 9.57504 14.7569 9.71522 15.3109 10.0422C15.612 9.65309 16.0042 9.34402 16.4529 9.14221C16.9016 8.94041 17.3931 8.85205 17.884 8.88493C18.3749 8.91781 18.8501 9.07092 19.2679 9.33077C19.6857 9.59061 20.0332 9.94922 20.2797 10.375L21.6419 12.7347C21.9686 12.4132 22.3645 12.1709 22.7995 12.0262C23.2344 11.8816 23.6966 11.8386 24.1508 11.9004C24.6049 11.9622 25.0388 12.1273 25.4192 12.3829C25.7997 12.6385 26.1165 12.9779 26.3453 13.375L27.9681 16.1875C28.5373 17.1671 28.9065 18.2498 29.0544 19.3731C29.2023 20.4963 29.1259 21.6377 28.8297 22.7312ZM26.0172 17.3116L24.3972 14.5C24.3479 14.4147 24.2824 14.3399 24.2042 14.2799C24.1261 14.2199 24.0369 14.1759 23.9417 14.1504C23.8466 14.1249 23.7473 14.1184 23.6497 14.1313C23.552 14.1441 23.4578 14.1761 23.3725 14.2253C23.2872 14.2746 23.2124 14.3401 23.1524 14.4183C23.0924 14.4964 23.0484 14.5856 23.0229 14.6808C22.9974 14.7759 22.9909 14.8752 23.0038 14.9728C23.0166 15.0705 23.0486 15.1647 23.0978 15.25L23.7241 16.3347C23.8615 16.5727 23.907 16.8527 23.8521 17.122C23.7971 17.3912 23.6456 17.6311 23.4259 17.7962C22.8861 18.2005 22.5226 18.7969 22.4107 19.4619C22.2988 20.127 22.4472 20.8095 22.825 21.3681C22.9126 21.4902 22.9748 21.6286 23.008 21.7752C23.0413 21.9217 23.0448 22.0734 23.0184 22.2213C22.992 22.3693 22.9363 22.5104 22.8545 22.6364C22.7727 22.7625 22.6664 22.8708 22.542 22.9551C22.4177 23.0394 22.2776 23.098 22.1303 23.1273C21.9829 23.1566 21.8311 23.1561 21.684 23.1257C21.5368 23.0954 21.3972 23.036 21.2734 22.9508C21.1496 22.8657 21.0441 22.7566 20.9631 22.63C20.3595 21.7378 20.068 20.671 20.1342 19.5959C20.2003 18.5207 20.6203 17.4977 21.3288 16.6862L18.3344 11.5C18.2349 11.3272 18.0709 11.201 17.8784 11.1491C17.6859 11.0972 17.4806 11.124 17.3078 11.2234C17.135 11.3229 17.0088 11.4869 16.9569 11.6794C16.9051 11.872 16.9318 12.0772 17.0313 12.25L19.3047 16.1875C19.3818 16.3155 19.4326 16.4577 19.4541 16.6056C19.4757 16.7535 19.4675 16.9042 19.4302 17.0489C19.3928 17.1936 19.327 17.3295 19.2366 17.4485C19.1462 17.5675 19.0329 17.6672 18.9035 17.742C18.774 17.8167 18.631 17.8649 18.4828 17.8838C18.3345 17.9026 18.1839 17.8917 18.0399 17.8518C17.8959 17.8118 17.7613 17.7435 17.644 17.6509C17.5266 17.5583 17.4289 17.4433 17.3566 17.3125L14.4372 12.25C14.335 12.0833 14.1718 11.9632 13.9823 11.9151C13.7928 11.8671 13.592 11.8949 13.4227 11.9927C13.2534 12.0904 13.129 12.2504 13.076 12.4386C13.0229 12.6268 13.0455 12.8282 13.1388 13L16.2813 18.4375C16.424 18.6954 16.4598 18.9991 16.3809 19.2832C16.3021 19.5673 16.1148 19.809 15.8595 19.9564C15.6042 20.1039 15.3012 20.1452 15.0158 20.0715C14.7303 19.9979 14.4852 19.8151 14.3331 19.5625L12.5247 16.4378C12.4769 16.3498 12.412 16.2722 12.3337 16.2097C12.2555 16.1472 12.1655 16.101 12.0691 16.0738C11.9727 16.0467 11.8718 16.0391 11.7724 16.0515C11.6731 16.064 11.5772 16.0962 11.4905 16.1463C11.4037 16.1964 11.3279 16.2633 11.2675 16.3432C11.2071 16.423 11.1632 16.5142 11.1386 16.6113C11.114 16.7084 11.1091 16.8094 11.1241 16.9084C11.1392 17.0074 11.1739 17.1024 11.2263 17.1878L14.9781 23.6875C15.8235 25.1517 17.2159 26.2202 18.8491 26.6578C19.6577 26.8745 20.5011 26.9298 21.3312 26.8205C22.1612 26.7112 22.9615 26.4395 23.6866 26.0209C24.4116 25.6023 25.0471 25.045 25.5567 24.3809C26.0663 23.7167 26.4402 22.9586 26.6569 22.15C26.8735 21.3413 26.9288 20.4979 26.8195 19.6679C26.7103 18.8379 26.4386 18.0375 26.02 17.3125L26.0172 17.3116ZM11.7306 25.5625C11.6583 25.4317 11.5606 25.3167 11.4432 25.2241C11.3259 25.1315 11.1913 25.0632 11.0473 25.0232C10.9033 24.9832 10.7527 24.9724 10.6044 24.9912C10.4562 25.0101 10.3131 25.0583 10.1837 25.133C10.0543 25.2077 9.94104 25.3075 9.8506 25.4265C9.76017 25.5455 9.69435 25.6814 9.657 25.8261C9.61965 25.9708 9.61151 26.1215 9.63306 26.2694C9.65461 26.4173 9.70541 26.5594 9.7825 26.6875C10.3019 27.5869 10.9318 28.4177 11.6575 29.1606C11.7597 29.2702 11.8829 29.3583 12.0196 29.4196C12.1563 29.481 12.304 29.5144 12.4538 29.5179C12.6036 29.5214 12.7527 29.4949 12.8921 29.44C13.0316 29.3851 13.1587 29.3029 13.2659 29.1982C13.3732 29.0935 13.4584 28.9685 13.5167 28.8304C13.5749 28.6923 13.605 28.5439 13.6051 28.3941C13.6052 28.2442 13.5754 28.0958 13.5173 27.9576C13.4593 27.8194 13.3743 27.6942 13.2672 27.5894C12.6727 26.9802 12.1566 26.2994 11.7306 25.5625Z" fill="url(#paint1_linear_159_875)"/>
<defs>
<linearGradient id="paint0_linear_159_875" x1="-2.94828" y1="22.5216" x2="40.6207" y2="11.7112" gradientUnits="userSpaceOnUse">
<stop stop-color="white"/>
<stop offset="1" stop-color="#F2DEFF"/>
</linearGradient>
<linearGradient id="paint1_linear_159_875" x1="6.8995" y1="37.1966" x2="31.9368" y2="7.57855" gradientUnits="userSpaceOnUse">
<stop stop-color="#8A57DC"/>
<stop offset="0.99875" stop-color="#EAA6F1"/>
</linearGradient>
</defs>
</svg>
