<svg width="38" height="38" viewBox="0 0 38 38" fill="none" xmlns="http://www.w3.org/2000/svg">
<path d="M19 38C8.50659 38 -3.71835e-07 29.4934 -8.30516e-07 19C-1.2892e-06 8.50659 8.50659 -3.71835e-07 19 -8.30516e-07C29.4934 -1.2892e-06 38 8.50659 38 19C38 29.4934 29.4934 38 19 38Z" fill="url(#paint0_linear_159_874)"/>
<path d="M29.5 26.125H28.375V20.5C28.6153 20.5844 28.8771 20.5848 29.1176 20.5011C29.3582 20.4174 29.5632 20.2546 29.6992 20.0393C29.8352 19.8239 29.894 19.5688 29.8662 19.3157C29.8384 19.0625 29.7255 18.8263 29.5459 18.6456L20.3256 9.42344C19.974 9.07193 19.4972 8.87446 19 8.87446C18.5028 8.87446 18.026 9.07193 17.6744 9.42344L8.45406 18.6437C8.27345 18.8242 8.15958 19.0607 8.13116 19.3144C8.10274 19.5681 8.16146 19.8239 8.29766 20.0399C8.43387 20.2558 8.63947 20.419 8.88068 20.5026C9.12189 20.5862 9.38437 20.5853 9.625 20.5V26.125H8.5C8.20163 26.125 7.91548 26.2435 7.7045 26.4545C7.49353 26.6655 7.375 26.9516 7.375 27.25C7.375 27.5484 7.49353 27.8345 7.7045 28.0455C7.91548 28.2565 8.20163 28.375 8.5 28.375H29.5C29.7984 28.375 30.0845 28.2565 30.2955 28.0455C30.5065 27.8345 30.625 27.5484 30.625 27.25C30.625 26.9516 30.5065 26.6655 30.2955 26.4545C30.0845 26.2435 29.7984 26.125 29.5 26.125ZM11.875 18.4047L19 11.2797L26.125 18.4047V26.125H22.375V21.25C22.375 20.9516 22.2565 20.6655 22.0455 20.4545C21.8345 20.2435 21.5484 20.125 21.25 20.125H16.75C16.4516 20.125 16.1655 20.2435 15.9545 20.4545C15.7435 20.6655 15.625 20.9516 15.625 21.25V26.125H11.875V18.4047ZM20.125 26.125H17.875V22.375H20.125V26.125Z" fill="url(#paint1_linear_159_874)"/>
<defs>
<linearGradient id="paint0_linear_159_874" x1="-2.94828" y1="22.5216" x2="40.6207" y2="11.7112" gradientUnits="userSpaceOnUse">
<stop stop-color="white"/>
<stop offset="1" stop-color="#F2DEFF"/>
</linearGradient>
<linearGradient id="paint1_linear_159_874" x1="5.10345" y1="35.4552" x2="26.8643" y2="3.40187" gradientUnits="userSpaceOnUse">
<stop stop-color="#8A57DC"/>
<stop offset="0.99875" stop-color="#EAA6F1"/>
</linearGradient>
</defs>
</svg>
