<svg xmlns="http://www.w3.org/2000/svg" width="72" height="144" fill="none" xmlns:v="https://vecta.io/nano"><path d="M.513.313l6.543 6.643 3.053 3.365c.25.288.425.263.701.113l2.227-1.214c1.414-.813 2.928-1.439 4.141-2.59.288-.275.488-.088.601.238.863 2.365 2.452 4.329 3.678 6.493.063.113.325.188.463.15l6.968-2.127 6.681-1.839c.325-.088.513-.025.601.338l.751 2.84 1.339 5.129 1.276 5.792c.075.338.25.438.575.438h2.602l4.679-.125c.5-.025.588.1.525.55l-.2 2.34.088 4.354c.012.976.012.963.963 1.189l7.119 1.727 6.018 1.564c.325.088.55.213.438.601l-.45 1.526-1.651 5.943-1.839 6.08c-.113.338-.088.5.213.663 2.164 1.188 4.103 2.777 6.468 3.603.338.125.4.35.15.638-.1.125-.213.225-.3.363l-3.503 6.055c-.062.125.038.438.163.55l3.002 2.74 6.931 6.831c.576.563.576.563-.025 1.151l-6.305 6.205-3.528 3.228c-.35.3-.413.513-.175.863.087.125.138.275.225.413 1.176 1.939 1.989 4.116 3.528 5.843.25.288.125.5-.213.626-2.377.851-4.341 2.44-6.506 3.666-.113.063-.213.325-.175.45l2.189 7.257 1.614 5.955c.25.913.25.901-.625 1.126l-7.206 1.901-6.118 1.402c-.163.037-.375.287-.388.437l-.075 3.241.188 4.216c.025.375-.075.575-.513.463-.263-.075-.538-.138-.813-.138-2.202-.012-4.404 0-6.606-.012-.35 0-.425.2-.475.463l-.988 4.654-2.352 8.982c-.113.463-.325.513-.713.401l-4.742-1.339-8.745-2.54c-.163-.05-.475.038-.55.163-1.226 2.139-2.79 4.091-3.653 6.443-.175.463-.375.45-.726.15-.438-.388-.901-.763-1.414-1.051l-4.391-2.414c-.826-.438-.838-.426-1.451.325-.063.075-.138.138-.2.213l-4.967 5.129-4.166 4.266c-.175.175-.313.275-.463.275v-.838c.225 0 .438-.225.901-.675l5.467-5.48 3.603-3.954-2.315-1.238c-.125-.063-.4-.025-.488.075l-4.416 4.742-2.289 2.477c-.163.187-.313.287-.463.275v-.651l6.843-7.318-2.627-1.627-2.877 3.491-.926 1.063c-.138.138-.275.213-.4.2v-.588l1.113-1.213 2.227-2.74c.288-.35.475-.613-.063-.976-.538-.35-.976-.863-1.464-1.314L.45 129.124c-.15.2-.3.288-.438.288v-.488l1.326-1.864c.05-.075.075-.238.025-.313l-1.351-2.878v-5.154c.601-.013 1.189-.125 1.802-.313 1.739-.538 3.303-1.351 4.654-2.565 1.026-.925 1.676-2.114 2.252-3.352.613-1.314.575-2.703.5-4.129H7.181l-.488 2.014c-1.026 3.09-3.09 5.092-6.268 5.83l-.4.063v-.601c.926.013 1.752-.363 2.54-.85 2.027-1.264 3.415-3.041 3.853-5.455l.163-1.101-2.277-.513-.275 1.001c-.4 1.501-1.164 2.752-2.552 3.515-.5.276-.988.426-1.451.451v-.526c.763.013 1.451-.425 2.214-1.201.863-.876 1.239-2.027 1.476-3.215.025-.125-.088-.325-.2-.4l-1.339-.889c-.325.713-.575 1.452-.988 2.102-.313.501-.738.751-1.151.751v-.776c.188-.012.375-.112.55-.288.713-.7.938-1.601.926-2.527 0-.413-.425-.813-.638-1.238l-.826-1.727c-.013.013-.013.025-.025.038v-3.866c1.651 0 3.015-.838 4.053-2.064 1.113-1.314 1.439-2.877 1.038-4.591-.088-.363-.2-.5-.575-.475-.35.025-.701 0-1.076 0v1.776c-.05 2.002-1.264 3.353-2.727 3.791-.238.075-.488.1-.726.113v-.576c.976 0 1.914-.613 2.44-1.576.613-1.138.563-2.377.388-3.616-.013-.088-.125-.188-.213-.25l-1.426-.913c.1.613.263 1.201.275 1.789.013.613-.038 1.251-.188 1.839-.138.525-.751.901-1.264.888v-.588c.263 0 .626-.3.763-.563.163-.313.2-.726.188-1.076-.05-1.226-.325-2.402-.863-3.503-.013-.025-.038-.038-.1-.05v-2.527h.175c1.176-.037 2.264-1.163 2.314-2.34.013-.213.075-.425.075-.638.013-.438-.013-.826-.576-.976-.913-.238-1.576-.813-1.977-1.776v.013-2.239c.2 0 .45-.25.538-.45.638-1.426.15-2.715-.538-4.129V69.46c0 .012.013.025.013.037.601-1.401 1.164-2.64.55-4.028-.1-.238-.363-.413-.55-.613l-.025.025v-2.239c.425-.963 1.138-1.514 2.077-1.801.188-.063.413-.313.425-.501.088-.926-.125-2.202-.963-2.852-.463-.363-1.001-.526-1.539-.526v-2.527l.213.025.726-3.353c.075-.438-.013-.963-.188-1.376-.1-.25-.475-.5-.751-.526v-.626h.063c.538.025 1.164.463 1.251 1.076.113.751.075 1.539.063 2.302-.013.375-.125.763-.188 1.151.488-.313 1.001-.55 1.389-.913.225-.213.288-.638.325-.976.15-1.489-.063-2.852-1.301-3.878-.513-.425-1.051-.601-1.589-.588v-.563c.688-.025 1.301.263 1.864.688 1.088.826 1.589 1.964 1.589 3.328v1.664l1.314-.013c.113-.012.263-.2.3-.338.701-2.602-.638-5.154-2.752-6.068-.676-.288-1.376-.713-2.077-.738H.025v-3.878c0 .013.013.025.013.025l1.126-2.202c.313-.5.475-.988.25-1.526-.238-.588-.513-1.176-.863-1.701-.15-.213-.338-.313-.525-.288v-.788c.425 0 .851.288 1.214.863.388.613.626 1.326.926 2.002l1.601-1.063C3.39 34.255 2.74 32.541.763 31.677c-.25-.113-.488-.163-.726-.163v-.55c.851-.025 1.564.45 2.214 1.001.951.801 1.564 1.852 1.802 3.09.063.3.175.601.263.901l2.252-.525c-.2-3.053-1.764-5.204-4.229-6.718-.776-.475-1.551-.688-2.302-.676v-.563c.938-.012 1.802.35 2.577.788 1.814 1.038 3.203 2.54 3.941 4.529.238.651.35 1.364.488 2.052.063.35.163.563.588.538.525-.037 1.051-.012 1.564-.012.4-2.652-.45-4.867-2.077-6.818-1.626-1.964-3.853-2.928-6.243-3.516a3.08 3.08 0 0 0-.838-.075v-5.154l1.314-2.802c.05-.113.05-.325-.013-.425L.05 14.75l-.013-.513c.213 0 .413.275.901.826.338.375.601.826.876 1.213L3.791 14.5.025 9.934v-.55c.138 0 .275.088.413.25l3.816 4.541 2.615-1.614L.038 5.242v-.676c.175 0 .35.163.663.513l4.454 4.804 1.914 2.077c.225.263.413.375.738.175l2.264-1.276L.038.513V0C.15 0 .313.113.513.313zm35.13 9.771l-13.825 3.928 1.189 2.102c.213.363.463.488.913.338l9.045-2.777c.751-.225.788-.188.951.575l1.414 6.18.713 3.09c.063.313.163.5.513.488h2.49c-.863-4.717-2.239-9.233-3.403-13.924zm-9.396 12.749l1.476-.663c1.051-.488 1.176-.438 1.401.676.113.576.15 1.163.213 1.752.738-.15 1.464-.275 2.164-.463.15-.037.363-.3.338-.425-.275-1.751-.601-3.503-.913-5.254 0-.025-.05-.05-.163-.163l-5.355 2.002.838 2.54zm-.213 4.016c.513-.4.976-.976 1.576-1.214 1.276-.513 1.214-1.451 1.051-2.502-.025-.188-.062-.388-.125-.713l-2.139.963c-.088.038-.113.238-.125.363l-.238 3.103zm1.551-7.944l3.153-1.114c.425-.15.638-.037.713.45.15.963.388 1.914.563 2.878.163.963.288 1.927.425 2.94l3.103-.138-2.252-9.746-9.583 2.928 1.464 2.727 2.415-.926zM47.228 34.58l-.113-7.894c0-.701.1-1.401.15-2.064h-7.381-2.364c-.55-.013-1.088-.1-1.639-.1-1.013-.013-2.039-.038-3.053.038-.813.063-1.626.238-2.427.388-1.464.275-2.59 1.151-3.716 2.052-1.276 1.026-1.777 2.565-2.627 3.803l1.001 1.101c.45-.651.826-1.326 1.326-1.877 1.752-1.927 3.853-3.153 6.493-3.553 2.127-.325 4.254-.3 6.38-.35 1.939-.05 3.878.125 5.818.188.325.013.45.113.463.438 0 .513.075 1.013.088 1.526l.075 6.781c-.038 2.452-.225 4.917-1.326 7.156-.413.838-1.126 1.539-1.714 2.277-.275.35-.55.713-.888 1.001-.563.45-1.176.838-1.839 1.314l1.126.976c1.226-.826 2.74-1.389 3.828-2.627 1.401-1.601 2.189-3.415 2.315-5.53.063-1.013.163-2.027.175-3.04.038-.688-.138-1.339-.15-2.002zM9.796 24.046c.663-.475 1.239-.801 1.714-1.264.188-.188.225-.626.188-.938-.213-1.451-.625-2.877-.663-4.329-.05-1.751.263-3.478 1.476-4.892.025-.025.013-.075.025-.288-1.226.801-2.377 1.514-3.478 2.302-.913.663-1.101 1.664-.826 2.702s.663 2.052 1.026 3.065c.4 1.163.901 2.29.538 3.641zm1.802-5.717c.075 1.151.45 2.302.813 3.416.275.876 1.038 1.138 1.726.625 2.477-1.827 4.104-4.204 4.141-7.356.012-1.701-.738-3.228-1.789-4.566-3.766 1.589-5.167 4.003-4.892 7.882zm4.579 2.94c-.463.513-.938 1.001-1.414 1.501-.288.3-.388.588-.163 1.001.275.513.475 1.063.776 1.752.713-1.939 2.415-2.777 3.716-4.003.45-.425.938-.838 1.326-1.339.713-.926.651-1.952.163-2.94-.513-1.051-1.101-2.064-1.689-3.153-.05.813-.025 1.539-.15 2.227-.363 1.902-1.276 3.541-2.565 4.954zm1.514 2.089c-1.001.776-1.677 1.764-2.077 2.928-.125.375-.1.813-.138 1.213.05.05.088.1.138.15l5.968-3.228c.45-.25.776-.763 1.101-1.189.263-.35.2-.751.038-1.164-.325-.876-.613-1.764-.951-2.74-1.101 1.739-2.602 2.878-4.078 4.028zm-.576 4.028c-1.001.388-1.864.976-2.427 1.964-.338.613-.813 1.139-1.251 1.752.813-.338 1.564-.688 2.352-.963 1.151-.413 2.352-.463 3.553-.363 1.139.088 1.789-.513 2.34-1.376.601-.951.901-1.989 1.038-3.103l.163-1.276c-1.652 1.601-3.666 2.54-5.768 3.365zm4.141 3.14c-2.29-.425-4.541-.413-6.668.663-1.927.988-3.566 2.29-4.266 4.504l1.664.938c.776-.738 1.451-1.514 2.252-2.127 1.214-.926 2.64-1.464 4.166-1.614.688-.063 1.401-.05 2.102 0 1.914.15 2.965 1.451 3.803 2.977.688 1.251.888 2.627.976 4.016.088 1.239-.288 2.402-.738 3.541-.037.1-.088.213-.138.35l1.764 1.051c2.415-2.803 2.277-7.406.238-10.359-.588-.851-1.251-1.664-1.914-2.452-.838-.976-2.027-1.264-3.24-1.489zM3.903 67.934c.813-.288 1.576-.513 2.377-.2.113.038.288 0 .388-.075 1.076-.776 1.664-1.664 1.264-3.003-.088-.313-.5-.676-.826-.776-1.151-.325-2.315.225-2.903 1.251-.075.138-.113.35-.063.5.263.776.038 1.501-.238 2.302zm.225 10.134c-.05.15.025.388.113.538.651 1.026 1.714 1.501 2.865 1.189.338-.1.738-.488.851-.826.35-1.101-.263-2.39-1.289-2.953-.1-.05-.25-.125-.325-.088-.826.4-1.589.075-2.427-.163.25.801.5 1.514.213 2.302zm5.129 45.202c-.313.851-.651 1.689-.901 2.552-.663 2.277.2 2.953 1.576 3.891.813.55 1.676 1.013 2.615 1.426-.163-.213-.363-.4-.488-.638-.888-1.689-1.251-3.49-.976-5.392.163-1.139.45-2.265.676-3.391.075-.375.038-.663-.338-.888-.525-.325-1.001-.738-1.614-1.201.325 1.364-.138 2.502-.55 3.641zm2.865 6.105c.538 1.489 1.764 2.402 3.028 3.253.388.263.838.425 1.301.663 1.164-1.564 1.927-3.253 1.814-5.192-.05-.838-.35-1.676-.663-2.477-.65-1.614-1.701-2.953-3.065-4.029-1.076-.838-1.764-.663-2.252.601-.926 2.364-1.026 4.779-.163 7.181zm2.702-8.382c.976 1.151 1.989 2.277 2.827 3.515.788 1.176 1.151 2.565 1.214 3.991.012.326-.075.651-.138 1.114.175-.238.3-.376.375-.526.526-1.001 1.088-1.989 1.564-3.015.601-1.276.113-2.352-.826-3.228-.988-.925-2.077-1.739-3.053-2.664-.563-.538-1.013-1.214-1.514-1.839-.2.462-.388 1-.663 1.488-.263.501-.1.801.213 1.164zm6.956 3.365c.388-1.163.888-2.202 1.063-3.303.113-.713-.538-1.301-1.139-1.739-1.451-1.063-3.04-1.851-4.716-2.502-.488-.187-.951-.438-1.501-.7-.025 2.014 1.063 3.328 2.515 4.466 1.376 1.063 2.752 2.152 3.778 3.778zm-3.928-7.731a12.2 12.2 0 0 1 4.967 2.977c-.075-1.288-.225-2.452-.726-3.528-.175-.375-.388-.726-.613-1.076-.501-.738-1.164-1.176-2.127-1.113-2.064.15-4.028-.225-5.842-1.339 1.139 1.714 2.177 3.403 4.341 4.079zm-.751-3.353c1.927.363 3.828.075 5.68-.501.475-.15.963-.413 1.314-.75 1.752-1.714 3.215-3.629 3.666-6.106.413-2.252.263-4.453-1.126-6.418-.15-.213-.275-.425-.438-.676l-1.676 1.001c.238 1.013.525 1.976.688 2.952.225 1.351-.038 2.69-.463 3.979-.35 1.05-.926 1.976-1.677 2.802-.738.826-1.689 1.151-2.715 1.239-3.378.3-6.08-.926-8.119-3.641-.038-.05-.075-.088-.138-.163l-1.802 1.014c1.264 3.077 3.653 4.679 6.806 5.267zm12.736-3.691c.138-1.063.338-2.102-.1-3.115-.363-.851-.776-1.664-1.088-2.352-.288 1.176-.563 2.489-.951 3.766-.175.588-.525 1.151-.901 1.651-.726.976-.475 1.889.013 2.852.688 1.364 1.902 2.202 3.103 3.153-.4-2.014-.338-3.991-.075-5.955zm12.235-18.341c-.038.951.375 1.564 1.088 2.077 1.351.976 2.915 1.226 4.629 1.376-1.564-1.639-2.465-3.528-3.24-5.492-.45-1.138-1.064-2.127-2.189-2.74-.576-.313-1.064-.763-1.514-1.089.338 1.026.788 2.077 1.038 3.19.2.863.225 1.789.188 2.677zM40.685 58.45c1.564-1.239 3.34-2.039 3.953-4.116.475-1.601 1.864-4.166 3.153-5.317-1.902.088-2.903.338-4.216 1.076-.976.55-1.564 1.264-1.501 2.502.113 2.027-.025 3.19-1.389 5.855zm4.354-31.54c-1.952-.288-3.791-.113-5.392.926-1.464.951-2.465 2.365-3.078 4.003-.363.963-.626 1.977-.763 3.003-.113.876.338 1.301 1.239 1.226 1.889-.138 3.553-.888 5.092-1.964 2.177-1.526 3.015-3.666 2.89-6.255l.012-.938zm-15.101 1.239c-1.489 1.139-2.953 2.202-3.478 4.079-.163.588-.163 1.113.213 1.664 1.214 1.752 1.839 3.703 1.814 5.955 1.026-1.977 1.852-3.816 1.339-6.093-.4-1.789-.313-3.678.113-5.605zm-1.564 13.949l-.763 2.152 4.354-1.614c1.914-.776 3.228-2.127 3.716-4.179.113-.463.038-.976-.025-1.464-.075-.563-.501-.813-1.051-.851-1.789-.138-3.19.613-4.316 1.952-1.001 1.163-1.439 2.602-1.914 4.003zm1.827-9.596c.038 1.239.275 2.477.425 3.753 1.264-.626 1.964-1.739 2.302-3.053.275-1.076.388-2.202.638-3.29.238-1.051.563-2.089.863-3.153-.988.188-2.089.3-3.103.663-.425.15-.826.838-.901 1.326-.2 1.239-.263 2.502-.225 3.753zm4.091-3.491c-.225.838-.35 1.714-.5 2.59-.225 1.289-.363 2.602-1.339 3.741.813-.063 1.514-.075 2.177-.213.213-.05.425-.438.5-.713.538-1.939 1.139-3.841 2.477-5.405.838-.976 1.701-1.914 3.028-2.239l-.038-.2-4.003.263c-1.339.1-1.977 1.013-2.302 2.177zm4.141 7.406c-1.714.513-1.714.538-1.877 2.315-.013.163-.038.338-.063.613 1.877-1.414 4.103-1.201 6.118-1.727 1.651-.438 2.289-1.113 2.515-2.777a7.49 7.49 0 0 0 .063-.926v-2.777c-1.339 3.028-3.841 4.416-6.756 5.28zm1.063 2.302c-1.163.175-2.177.638-3.065 1.389-.35.3-.588.713-1.001 1.226 2.189.125 4.204.288 6.205.313.713.012 1.439-.288 2.139-.488.425-.113.663-.425.738-.888.163-.976.388-1.952.601-3.003-1.814.938-3.728 1.164-5.617 1.451zm-.526 3.415c-.876-.038-1.739-.225-2.615-.3-.801-.075-1.539.15-2.252.525-.613.325-1.289.575-2.052.913.713.075 1.314.125 1.902.213a8.31 8.31 0 0 1 3.716 1.514c.838.6 1.689.575 2.552.188 1.526-.676 2.502-1.952 3.515-3.328-1.676.475-3.228.35-4.767.275zm.1 4.529c-1.526-1.239-3.14-2.29-5.117-2.615-2.515-.413-4.879-.1-6.944 1.639l.951 1.601c1.314-.263 2.527-.701 3.741-.713 2.102-.025 4.091.538 5.767 1.964 1.364 1.163 1.614 2.677 1.564 4.316-.038 1.464-.475 2.865-1.251 4.066-.688 1.063-1.639 1.964-2.54 2.99l.913 1.614c3.303-1.051 5.53-5.167 5.367-8.019-.05-1.001-.15-1.989-.238-2.99-.138-1.614-.963-2.84-2.214-3.853zM23.082 64.931c-.025.025-.012.075-.05.213l4.041-1.001c.188-.05.363-.375.4-.613.263-1.614 1.214-2.677 2.752-3.028 1.601-.363 3.353.25 3.878 2.114.713 2.527-1.626 4.404-3.778 4.066-1.063-.175-1.852-.701-2.502-1.501-.1-.125-.313-.275-.438-.25-1.364.375-2.727.801-4.103 1.201.713.413 1.426.738 2.052 1.189 1.301.951 1.852 2.389 2.352 3.853.05.15.225.388.313.388 1.101-.125 2.252-.138 3.29-.488 2.777-.938 4.329-2.953 4.541-5.893.063-.963.113-1.977-.125-2.903-.238-.901-.751-1.764-1.301-2.527-.738-1.013-1.589-1.977-2.79-2.49a7.27 7.27 0 0 0-1.852-.513c-1.889-.238-3.616.338-5.23 1.276-.138.075-.288.35-.25.488.588 2.34.463 4.516-1.201 6.418zm-14.45-1.726c.951-.488 1.902-.701 2.928-.538.125.025.325-.075.4-.188.388-.538.801-1.063 1.114-1.651.325-.626.15-1.276-.363-1.751-.501-.476-1.101-.651-1.714-.3-.563.313-1.076.701-1.601 1.076-.113.088-.238.275-.213.388.15 1.038-.05 2.014-.55 2.965zm1.301.075c-.238.088-.475.188-.701.3-.851.425-.838.425-.663 1.376.15.788-.1 1.501-.601 2.29 1.151-.163 1.977.275 2.715.951.088.088.263.163.375.125 1.526-.363 2.54-2.189 2.027-3.641-.313-.863-1.701-1.952-3.153-1.401zM8.457 79.256a.51.51 0 0 0 .138.438c1.164.888 2.615 1.276 3.853.15a2.38 2.38 0 0 0 .1-3.453c-.363-.375-.813-.676-1.263-.951a.69.69 0 0 0-.638.075c-.738.651-1.551 1.051-2.677.926.651.951.776 1.852.488 2.815zm.738 4.091c-.013.15.063.375.163.463.513.388 1.026.788 1.589 1.076.701.363 1.264.225 1.802-.325.501-.513.638-1.101.288-1.764-.3-.563-.701-1.076-1.076-1.589-.075-.113-.275-.213-.4-.188-1.076.213-2.039-.1-2.99-.588.55.938.738 1.889.626 2.915zm15.351-.238c-.1.688-.2 1.376-.263 2.064-.012.15.113.375.238.45 1.964 1.188 4.091 1.664 6.33 1.088.726-.188 1.439-.651 2.027-1.138.688-.576 1.251-1.301 1.814-2.002 1.238-1.564 1.539-3.365 1.113-5.28-.2-.888-.438-1.789-.763-2.64-.375-.988-1.201-1.589-2.052-2.189-1.514-1.088-3.228-1.201-4.967-1.339a.43.43 0 0 0-.325.238c-.65 2.415-1.877 4.316-4.429 5.18l4.053 1.189c.15.037.425-.113.538-.263 1.026-1.276 2.352-1.701 3.928-1.389 1.189.238 2.265 1.601 2.402 2.777.1.901-.163 1.651-.676 2.34-.901 1.201-3.103 1.464-4.366.55-.888-.651-1.551-1.439-1.652-2.59-.037-.475-.313-.626-.751-.713-1.114-.225-2.202-.525-3.315-.788-.113-.025-.225-.037-.45-.075l.776 1.176c.676 1.026.951 2.139.788 3.353zm6.831 8.069c-.425.025-.851.05-1.276 0-.4-.05-.788-.188-1.226-.288.05.338.125.651.15.976s0 .663 0 1.038c1.401.525 2.815.763 4.279.288 1.551-.513 2.127-1.526 1.789-3.278-.188-1.001-.688-1.864-1.426-2.59-.288-.288-.601-.563-.901-.851l-1.802.888c.3.325.651.626.913 1.001a4.36 4.36 0 0 1 .613 1.201c.313.876-.163 1.539-1.113 1.614zm3.616-3.002c.701 1.051.913 2.252.663 3.49-.238 1.201-1.902 2.264-3.453 2.277-.551 0-1.114.025-1.651-.05s-1.063-.263-1.614-.413l-.676 2.214c1.163.613 2.402.963 3.703.888 1.264-.075 2.515-.288 3.691-.901 1.501-.801 2.652-1.814 2.777-3.641.213-3.215-.988-5.755-3.616-7.669l-1.564 1.664c.6.713 1.239 1.376 1.739 2.139zm-5.142 2.364c.425.088.888.075 1.314.013.638-.1.851-.513.625-1.114-.288-.763-.813-1.339-1.489-1.776-.2-.125-.476-.163-.726-.175-1.013-.075-2.014-.113-2.765-.15.363.55.938 1.264 1.326 2.052.375.751 1.013.988 1.714 1.151zm6.856-19.867c1.063.663 1.051 1.676-.012 2.34-.638.388-1.364.638-2.052.951.275.425.588.938.926 1.426.05.075.2.163.288.138 1.551-.313 2.99-.851 3.928-2.227.938-1.389.713-2.264-.588-3.641-.876-.926-2.077-1.289-3.303-1.539-.1-.025-.263.063-.325.15l-.913 1.414c.701.338 1.414.6 2.052.988zm-2.79-.313c-.375 0-.751.375-1.126.576-.663.338-1.339.65-1.814.888.801.425 1.764.963 2.765 1.451.213.1.55.075.788-.025.663-.263 1.326-.538 1.914-.913.375-.238.35-.663.025-1.013-.688-.738-1.614-.951-2.552-.963zm3.566-2.34c1.564.588 2.765 1.551 3.303 3.203.363 1.126-.2 2.014-.863 2.79-.826.988-1.902 1.626-3.19 1.864-.288.05-.563.163-.838.238.138.65.3 1.251.4 1.864.05.313.163.388.463.35 1.564-.163 2.94-.701 4.179-1.689 1.464-1.176 2.515-2.59 2.852-4.454.075-.4 0-.863-.138-1.251-1.026-3.128-3.265-4.879-6.406-5.567-.263-.063-.538-.013-.863-.013l-.5 2.202c.538.15 1.088.263 1.601.463zM20.48 70.386c.613-.013 1.251.037 1.839.175.55.125.976.801.938 1.301-.038.626-.413 1.051-.976 1.289-.788.325-1.614.238-2.427.063-.363-.075-.726-.125-1.126-.2l.926 1.476c.05.075.138.175.213.175 1.439.163 2.852.25 4.104-.726 1.752-1.376 1.364-3.591-.576-4.591-1.113-.576-2.314-.513-3.503-.325-.1.012-.213.15-.275.263l-.888 1.376c.601-.1 1.176-.263 1.752-.275zm-1.977.951c-.375.1-.726.3-1.214.501 1.526.701 2.965 1.126 4.541.876.475-.075.826-.313.851-.826.025-.55-.35-.801-.838-.913-1.151-.263-2.24.075-3.34.363zm1.476-2.877c.863 0 1.676-.075 2.465.012 1.414.15 2.777 1.389 3.128 2.615.463 1.677-.801 3.278-2.114 3.841-.963.413-1.977.463-3.003.313-.125-.025-.263 0-.425 0-.025.113-.038.15-.038.188-.063 1.539.012 1.626 1.576 1.639 2.214.025 3.866-.913 4.842-2.915.325-.676.751-1.414.738-2.127-.037-1.952-.976-3.503-2.615-4.617-1.289-.876-2.702-.976-4.179-.626-.138.037-.35.213-.363.338-.05.425-.012.851-.012 1.339zm9.608 13.674c.45.175.938.238 1.414.35 1.651-.087 2.727-1.426 2.352-3.028-.175-.763-.838-1.063-1.426-1.401-1.214-.688-3.053-.475-3.728 1.114-.45 1.051.15 2.465 1.389 2.965zm-7.406-3.465c-.651-.55-1.526-.838-2.327-1.239l-.788 1.326c.863.638 1.789 1.189 2.552 1.927 1.314 1.276 1.301 3.666.012 4.704-1.163.951-2.515 1.088-3.891.588-.763-.275-1.451-.738-2.177-1.126l-.738 1.264c1.814 2.202 5.042 2.34 6.943.913.826-.613 1.739-1.101 2.014-2.189.613-2.352.325-4.516-1.601-6.168zm-2.039 4.754c-.338.638-.963.888-1.964.538-.663-.225-1.226-.738-1.827-1.151-.225-.15-.413-.35-.638-.525-.3 1.151.025 1.977.963 2.552 1.026.638 2.089 1.038 3.34.751 2.315-.538 2.44-3.015 1.364-4.391-.701-.901-1.664-1.414-2.69-1.826-.1-.038-.238-.05-.325-.013-.5.25-1.001.525-1.451.763.888.438 1.802.826 2.652 1.351.726.45.913 1.326.575 1.952zm-2.339-.2c.25.15.525.275.813.325.425.075.926.037 1.038-.438.075-.313-.038-.813-.263-1.038-.876-.888-2.077-1.139-3.228-1.451-.338-.088-.701-.088-1.151-.125.763 1.201 1.701 2.039 2.79 2.727zm.1-4.204c1.151-.713 1.777-2.277 1.464-3.578-.463-1.927-1.777-3.028-3.828-3.328l-.475 1.226c.601.288 1.251.538 1.827.888 1.063.638 1.289 1.389.926 2.677-.225.801-1.239 1.451-2.114 1.351-.613-.075-1.239-.113-1.902-.175l-.2 1.276c1.501.713 2.915.525 4.304-.338zm-2.965-1.376c.313 0 .625.05.938.038.813-.013 1.326-.45 1.564-1.314.163-.575-.188-1.364-.788-1.689-.45-.238-.926-.425-1.389-.626-.313-.125-.575-.05-.913.113-.801.388-1.664.638-2.352.901.4.45 1.051.976 1.401 1.651.363.701.838.926 1.539.926zm-.038-5.955c-.063-1.589-2.139-2.94-3.591-2.315-.15.063-.275.3-.338.475-.35 1.001-.788 1.514-1.777 2.002.951.425 1.539 1.088 1.777 2.014.088.375.3.488.638.538 1.752.288 3.365-1.026 3.29-2.715zm-4.554 3.315c.15-.188.213-.526.175-.776C10.359 73.038 9.02 72 7.807 72.1c-.088.013-.225.025-.263.075-.488.788-1.364.851-2.127 1.126.525.575 1.251 1.013 1.251 1.914 0 .088.125.188.213.25 1.051.738 2.64.538 3.466-.463zM6.518 72.35c.2-.088.438-.35.438-.513 0-.175-.25-.425-.438-.526-1.426-.663-2.727-.125-4.154.513 1.439.688 2.727 1.201 4.154.525zm1.013-.838c.025.037.1.063.15.075 1.126.3 2.865-1.151 2.852-2.314-.013-.763-1.526-1.714-2.352-1.501-.363.1-.713.2-1.063.313-.288.1-.388.313-.513.613-.25.55-.688 1.013-1.051 1.514-.038.063-.138.075-.275.15.913.263 1.764.363 2.252 1.151zm4.604-3.128c-.1.113-.238.175-.463.35 1.176-.038 2.102.275 2.903.926.088.075.275.088.388.05.651-.275 1.339-.488 1.914-.876.638-.425.738-1.139.45-1.889-.213-.588-.801-.976-1.539-.963-.45 0-.901.038-1.351.1-.388.063-.638.225-.863.638-.363.626-.951 1.126-1.439 1.664zm1.664-2.79c.676-.05 1.351-.125 2.039-.138.938-.025 1.727.513 1.977 1.289.388 1.201.175 2.039-.776 2.627-.613.375-1.289.651-1.952.976l.45 1.201c2.127-.238 3.253-1.376 3.778-3.04.425-1.364.037-2.727-1.139-3.641-1.376-1.076-2.915-1.351-4.566-.55l.188 1.276zm5.805-3.415c-.851.538-1.801.926-2.677 1.376l1.439.763c.075.038.188.063.263.025 1.126-.45 2.152-1.026 2.903-2.027.525-.701.701-2.402.113-3.178-.613-.813-1.914-1.339-3.053-1.101-1.026.213-1.889.738-2.69 1.401-.075.063-.163.188-.163.275l-.1 1.752c.438-.363.801-.701 1.214-.988s.851-.563 1.314-.763c.801-.35 1.589-.125 1.964.513a1.47 1.47 0 0 1-.526 1.952zm-.325-.438c.4-.288.663-.726.363-1.226-.288-.5-.788-.475-1.251-.3-1.414.55-2.402 1.601-3.228 2.865 1.526-.025 2.903-.45 4.116-1.339zm-2.69-3.491c1.389-.813 2.815-1.138 4.366-.388 1.439.701 1.864 2.014 1.526 3.503-.375 1.639-1.564 2.515-2.978 3.178-.125.063-.25.113-.375.175-.05.025-.088.063-.125.088l.776 1.326c2.915-.538 4.329-3.14 4.266-5.029-.025-.663-.075-1.326-.188-1.977s-.4-1.251-.963-1.626c-.776-.526-1.526-1.163-2.39-1.464-1.852-.638-3.628-.363-5.142 1.013l-.551.5.788 1.351c.325-.213.65-.45.988-.651zm11.447 5.605c.012.788.676 1.689 1.464 1.952 1.176.4 2.765-.025 3.54-.988.163-.2.338-.513.3-.738-.113-.726-.238-1.476-.538-2.127-.35-.751-1.163-.651-1.776-.675-1.789.012-3.003 1.088-2.99 2.577zm4.454-9.671c-.288.638-.776 1.201-1.188 1.777-.088.125-.25.188-.413.3l1.714.888c.088.038.275.013.35-.05.838-.826 1.639-1.676 2.064-2.815.676-1.827-.225-3.553-2.164-3.928-1.301-.25-2.577-.075-3.766.425l-.15 1.989c.525-.113 1.051-.263 1.576-.313a3.34 3.34 0 0 1 1.163.1c.788.213 1.164.863.813 1.626zm-2.79 2.027c.275-.025.601-.125.801-.3.4-.363.813-.763 1.076-1.239.188-.338.338-.938.163-1.176-.213-.288-.788-.45-1.188-.438-.55.012-1.176.125-1.626.425s-.726.876-1.051 1.351c-.388.538-.751 1.088-1.038 1.514l2.865-.138zm-.763-6.005l1.038-.275c1.264-.325 2.54-.338 3.753.15 2.027.826 2.427 2.352 1.664 4.566-.2.588-.538 1.139-.913 1.639-.363.475-.863.851-1.314 1.276l1.626 1.752c2.202-1.464 3.328-3.541 3.628-6.105.063-.575.038-1.163-.013-1.739-.163-1.751-1.326-2.715-2.777-3.453-1.514-.763-3.128-1.063-4.792-.838-.876.113-1.726.463-2.602.701l.701 2.327zm8.783 11.51l3.465.676c1.501.313 2.978.35 4.441-.238 1.038-.425 1.852-1.113 2.415-2.064.588-1.013.413-1.614-.651-2.139a5.13 5.13 0 0 0-4.266-.2c-1.526.575-2.69 1.676-3.878 2.715l-1.526 1.251zm9.783-11.585c-.863 1.426-1.614 2.903-2.39 4.379-.3.563-.525 1.176-.801 1.827 1.777.038 3.028-.851 4.116-2.102 1.063-1.226 2.189-2.415 3.29-3.603.188-.2.438-.325.751-.55-.851-.313-1.639-.638-2.44-.888-1.139-.338-1.889-.1-2.527.938zm3.403 2.002c-.851.913-1.614 1.927-2.477 2.84-.55.588-1.226 1.051-1.864 1.589.55.25 1.176.588 1.852.801.188.063.525-.188.751-.35 1.076-.876 2.089-1.839 3.228-2.64 1.264-.888 2.765-1.276 4.304-1.414.313-.025.651.088.976.138l.075-.15c-1.088-.563-2.164-1.163-3.265-1.689-1.514-.751-2.565-.225-3.578.876zm5.893 1.401c-1.026-.038-2.114.35-3.103.751-1.626.651-2.977 1.739-4.028 3.153-.688.926-.488 1.652.588 2.077 2.239.888 4.516 1.038 6.843.363 1.714-.5 2.752-1.789 3.703-3.178.263-.388.425-.838.663-1.289-1.401-1.151-2.977-1.802-4.666-1.877zm1.689 6.33c-2.277 1.139-4.667 1.189-7.094.601-.526-.125-1.051-.325-1.589-.4-.238-.038-.588.05-.738.213-.438.513-.801 1.088-1.264 1.752 1.226-.325 2.239.05 3.253.413s2.014.776 3.053 1.076c1.676.475 2.665.088 3.603-1.376.575-.901 1.114-1.827 1.576-2.827-.25.175-.5.4-.801.55zm-8.395 2.828c-1.389-.438-2.677-.313-4.053.463l4.779 3.178c.776.513 1.651.838 2.577.876.325.013.738-.25.988-.501.676-.688 1.289-1.451 2.014-2.277-2.352-.038-4.266-1.101-6.305-1.739zm-3.128 1.664c-.863-.701-1.864-1.038-3.003-1.038-.625 0-1.238-.113-2.014-.2.213.163.313.238.413.3 1.614.938 2.852 2.239 3.628 3.916.525 1.138 1.389 1.526 2.515 1.564 1.514.063 2.877-.513 4.316-1.139-2.264-.738-4.104-1.977-5.855-3.403zm-.238 6.331c-.45-1.977-1.314-3.791-2.715-5.267-1.314-1.401-2.953-2.339-4.854-2.702-.851-.163-1.727-.113-2.665-.163 0 .726-.025 1.326.025 1.927.013.125.275.313.438.338 2.928.3 5.017 1.902 6.543 4.291 1.176 1.827 1.139 3.728-.05 5.542-1.414 2.177-3.34 3.653-5.943 4.141-1.026.188-1.026.213-1.026 1.263v.963c2.702.375 4.917-.501 6.868-2.152 1.914-1.614 2.89-3.791 3.441-6.155.163-.638.088-1.376-.063-2.027zm-8.995 11.285c1.176.976 2.327 2.014 3.553 2.94 1.764 1.339 3.716 1.839 5.843.938 1.601-.676 1.614-1.627.325-3.015-1.727-1.889-3.941-1.977-6.255-1.551l-3.465.688zm8.545-6.08c-.976 1.902-2.252 3.49-4.291 4.591 2.24.025 4.166-.288 5.843-1.789 1.414-1.251 3.078-2.214 5.029-2.752-1.877-.776-3.653-1.614-5.667-.863-.35.125-.726.463-.913.813zm5.692.901c-1.526.876-2.99 1.864-4.466 2.815-.463.3-.913.613-1.414.951 1.664 1.001 3.278.751 4.917.15 1.376-.5 2.79-.926 4.191-1.339.325-.1.688-.063 1.214-.1-.838-.926-1.514-1.864-2.39-2.59-.563-.488-1.439-.238-2.052.113zm2.502 3.303c-1.001.25-1.964.676-2.953.963a35.88 35.88 0 0 1-2.828.713c-.25.05-.538-.05-.863-.087l1.213 1.689c.275.363.638.288 1.013.175 1.489-.425 2.99-.788 4.554-.701 1.314.063 2.615.275 3.791.913.3.163.576.388.976.538l-1.264-2.139c-.288-.463-.613-.913-.963-1.326-.701-.863-1.676-.988-2.677-.738zm.813 3.353c-1.764-.15-3.44.113-5.054.738-1.051.413-1.276 1.163-.575 2.039 1.726 2.177 3.903 3.666 6.743 3.878 1.889.138 3.541-.663 5.067-1.802-1.251-2.702-3.028-4.604-6.18-4.854zm-3.741 5.33c-.838-.613-1.576-1.351-2.34-2.064-.388-.363-.713-.538-1.239-.225-.463.275-.988.45-1.551.701.425.25.876.425 1.188.726.738.726 1.401 1.526 2.102 2.289.588.651 1.151 1.351 1.814 1.914.613.513 1.351.851 2.227.588 1.451-.45 2.702-1.264 4.103-2.102-2.49.338-4.479-.501-6.305-1.827zm-3.553.213c-.976-1.064-2.177-1.689-3.691-1.639 1.001 2.152 1.789 4.404 3.24 6.305.726.938 1.376 1.151 2.54.826a4.84 4.84 0 0 0 .563-.175l1.827-.713c-1.889-1.213-3.053-3.04-4.479-4.604zM41.01 87.2c-.976-2.264-2.339-4.179-4.842-5.042l-.963 1.701c.676.663 1.439 1.276 2.027 2.027 1.026 1.301 1.589 2.827 1.752 4.491.063.663.05 1.339-.025 1.989-.25 2.202-1.801 3.315-3.653 4.053-2.415.976-4.842.963-7.231-.2l-1.051 1.776c1.151.938 2.427 1.564 3.916 1.714 1.764.175 3.49.038 5.117-.726 1.614-.763 3.04-1.802 4.216-3.14.938-1.076 1.088-2.477 1.226-3.803.163-1.639.175-3.303-.488-4.842zm-1.351 11.097c-.575-.175-1.126-.163-1.676.213-1.239.851-2.59 1.476-4.091 1.701-.563.088-1.139.126-1.777.188 1.939 1.013 3.778 1.777 6.03 1.264 1.777-.401 3.653-.351 5.567.15-1.126-1.552-2.214-2.965-4.053-3.516zm3.328 3.916a32.57 32.57 0 0 0-3.991-.112c-1.126.037-2.252.225-3.403.35.613 1.263 1.701 1.964 3.003 2.289 1.401.351 2.84.526 4.241.839.751.175 1.476.475 2.264.738-.213-1.051-.363-2.14-.651-3.178-.175-.651-.901-.876-1.464-.926zm2.002 5.955c-.163-1.226-1.126-1.801-2.239-2.064-.963-.225-1.964-.338-2.94-.525-1.126-.226-2.277-.388-3.29-1.302.063.839.038 1.489.188 2.102.063.25.463.526.763.601 1.927.525 3.803 1.138 5.355 2.452.988.838 1.927 1.726 2.277 3.065.063-.012.113-.025.175-.038-.1-1.426-.113-2.877-.288-4.291zm-1.576 2.527c-1.326-1.413-2.99-2.339-4.879-2.814-.525-.138-1.076-.238-1.614-.263-.751-.025-1.214.388-1.114 1.126.15 1.051.388 2.114.763 3.115.663 1.739 1.727 3.253 3.378 4.179 1.151.65 2.465.938 3.828.838.388-.025.776 0 1.213 0 .188-2.302.038-4.454-1.576-6.181zm-2.878 6.181c-1.777-.551-2.827-1.927-3.766-3.403-.838-1.301-1.251-2.778-1.626-4.266-.113-.451-.363-.701-.863-.701-.563-.012-1.126-.1-1.814-.175 1.326 1.639 1.176 3.591 1.614 5.38.1.412.163.85.3 1.251.425 1.301 1.401 1.926 2.69 2.001 1.176.075 2.352.013 3.528.013-.012-.013-.025-.088-.062-.1zm-7.406-5.555c-.175-1.101-.575-2.077-1.276-2.928-.325-.387-.776-.675-1.213-1.05-.125 1.038-.3 1.951-.338 2.877-.05 1.401-.063 2.815.012 4.229.025.5.288 1.013.55 1.463.35.601 1.051.526 1.626.664.676.162 1.376.225 2.102.337-.963-1.764-1.176-3.69-1.464-5.592zm1.426-3.803c.726-.05 1.101-.413 1.139-1.151.088-1.739-.613-3.115-1.914-4.216-1.226-1.051-2.74-1.489-4.216-2.002-.663-.225-1.326-.488-2.064-.751.751 1.839 1.351 3.716 2.265 5.43.988 1.814 2.615 2.815 4.792 2.69zm-16.614 2.652c.851.163 1.752.1 2.615.025 1.676-.138 2.54-1.326 3.24-2.665.788-1.501 1.076-3.115.863-4.791-.113-.889-.463-1.752-.713-2.653l-2.202.663c.113 1.014.275 1.99.338 2.978.075 1.214-.375 2.277-1.189 3.165-.663.726-1.576.726-2.452.651-1.339-.113-2.477-.713-3.403-1.689l-.776-.813-1.726 1.601c1.276 2.002 3.153 3.09 5.405 3.528zm-.388-3.365c2.277.663 3.591-.075 3.991-2.628.175-1.163-.038-2.076-.513-3.315-.313 0-.651.013-.976 0-.325-.025-.651-.088-.901-.125.063.801.2 1.589.188 2.377-.012 1.088-.826 1.626-1.814 1.163-.738-.35-1.401-.888-2.089-1.351l-.813 1.677c.801.926 1.677 1.839 2.928 2.202zm1.238-4.392c-.075-.55-.188-1.126-.413-1.639-.138-.3-.488-.525-.788-.725-.751-.513-1.526-.989-2.114-1.376l.125 2.714c.025.951 1.439 2.34 2.39 2.315.513-.013.901-.601.801-1.289zm1.126-2.139c.651.113 1.376-.013 2.027-.163 1.326-.312 2.602-.8 3.716-1.601 1.188-.851 1.776-2.127 2.214-3.453.263-.788.463-1.626.588-2.452.15-.938-.188-1.814-.575-2.665-.763-1.626-2.002-2.79-3.528-3.691-.363-.213-.55-.2-.851.088-1.001.951-2.114 1.801-3.515 2.014-.838.125-1.714.025-2.702.025l2.89 3.053c.225.238.438.2.726.075 2.177-.976 4.954.425 5.029 3.34.038 1.451-1.989 3.29-3.716 2.84-2.114-.538-3.128-2.615-2.765-4.279.05-.25.113-.513.25-.726.175-.275.113-.475-.088-.663l-3.003-2.853c0 .776.075 1.476-.025 2.164-.088.65-.25 1.326-.563 1.889-.463.813-1.088 1.526-1.626 2.29-.088.125-.125.375-.062.5 1.226 2.227 3.003 3.816 5.58 4.266zm-.025-6.293c-.025 1.351 1.639 2.99 3.015 2.978.901-.013 2.227-1.364 2.214-2.264-.012-1.376-1.626-2.978-2.978-2.953-1.113.025-2.239 1.138-2.252 2.239zm-5.342.55c1.326-1.614 1.977-3.428 1.301-5.467-.288-.876-.926-1.651-1.426-2.49l-1.364.788c.413.963.938 1.914 1.226 2.928.5 1.727-.701 3.828-2.214 4.066-1.614.25-2.953-.263-3.928-1.576-.438-.588-.776-1.264-1.163-1.914-.4.225-.838.488-1.289.751.5 2.765 2.94 4.304 5.042 4.266a13.02 13.02 0 0 0 1.964-.175c.776-.125 1.351-.576 1.852-1.176zm-7.081-4.116c.613 1.426 1.276 2.84 2.915 3.328 1.902.563 3.253-.525 3.44-2.365.15-1.464-.588-2.602-1.439-3.678-.05-.062-.163-.112-.25-.125-.55-.038-1.088-.05-1.714-.088.5.65.963 1.201 1.364 1.802a2.82 2.82 0 0 1 .45 1.076c.15.876-.163 1.451-.876 1.727-.538.213-1.339-.037-1.739-.675s-.688-1.351-1.026-2.039c-.1-.225-.175-.463-.275-.713l-.851 1.589c0 .038-.013.113 0 .163zm2.077-2.915c-.238-.213-.513-.4-.851-.651a7.48 7.48 0 0 0 1.376 4.229c.25.363.626.601 1.114.463.513-.15.713-.688.438-1.376-.438-1.088-1.239-1.902-2.077-2.665zm.738-.676c1.189.275 2.34.338 3.415-.475 2.315-1.752 1.652-4.929-.2-6.331-.1-.075-.35-.025-.475.063-.263.175-.476.4-.751.638.35.463.713.901 1.026 1.376.663.988.563 1.927-.125 2.74-.926 1.076-2.114.901-2.89.375-.488-.325-.938-.701-1.414-1.051l-.863 1.001c.588.763 1.276 1.439 2.277 1.664zm-1.626-4.591c-.1-.288-.15-.613-.275-.888-.475-1.051-.488-.963-1.614-.926-.701.025-1.426-.238-2.152-.375.125.938-.338 1.764-1.013 2.527-.075.088-.125.288-.075.388.55 1.251 1.651 2.402 3.34 2.052.963-.188 2.139-1.789 1.789-2.777zm-3.666-6.731a2.2 2.2 0 0 0 .638.05c.413-.038.588-.325.375-.688-.2-.325-.425-.701-.738-.901-.913-.588-1.914-.976-3.165-.863.788 1.151 1.564 2.102 2.89 2.402zm-1.289 1.589c-.138-1.126-.863-1.889-1.676-2.59-.2-.175-.45-.3-.788-.538.013 1.526.325 2.802 1.476 3.716.188.15.626.288.701.2a1.02 1.02 0 0 0 .288-.788zm-2.39-7.419c1.138-.763 2.077-1.589 2.365-2.94.038-.188.075-.4.025-.588-.088-.338-.3-.588-.688-.35-.313.188-.638.4-.876.676-.563.651-.976 2.239-.826 3.203zm1.364.113c-.175.2-.313.45-.563.813 1.564-.013 2.852-.338 3.766-1.526.138-.175.25-.576.15-.663-.175-.175-.513-.313-.751-.275-1.126.113-1.914.826-2.602 1.651zm1.952-5.943c.913-.651 1.827-.751 2.802-.488.125.038.35-.05.425-.15.963-1.364 1.251-2.627.088-3.878-.876-.951-2.352-1.026-3.365-.1-.413.375-.738.863-1.026 1.351-.088.138-.013.488.113.638.813 1.001.938 1.326.963 2.627zm4.229-4.291c.45-.338.888-.713 1.364-1.013 1.576-1.001 2.627-.363 3.391.926.35.588.213 1.314-.175 1.914-.35.538-.751 1.051-1.139 1.601a33.01 33.01 0 0 1 .963.813c1.289-.65 2.102-2.452 1.914-4.128-.138-1.264-1.539-2.765-2.79-2.94-1.764-.225-3.265.238-4.354 1.839a49.38 49.38 0 0 0 .826.988zm2.59-5.655c.425-.751.338-1.489-.15-1.751-.45-.238-1.051.037-1.464.776-.663 1.189-1.151 2.44-1.126 3.878 1.163-.763 2.077-1.727 2.74-2.902zm-3.165 1.038c.425-.863.813-1.789 1.326-2.64.388-.651 1.188-.901 1.714-.713.838.313 1.239 1.151.826 2.027-.313.688-.801 1.289-1.226 1.927-.15.225-.325.413-.538.676l1.777-.088c.075 0 .163-.037.2-.1.951-1.213 1.726-2.477 1.389-4.141-.488-2.427-3.14-2.502-4.491-1.351-.838.713-1.339 1.626-1.739 2.615a.52.52 0 0 0 .013.363l.751 1.426zm.513-4.692c1.126-1.201 3.19-1.376 4.354-.413a3.35 3.35 0 0 1 1.164 3.503c-.25 1.026-.801 1.964-1.226 2.965l1.176.701c2.189-1.789 2.352-5.067.888-6.994-.613-.801-1.101-1.701-2.164-1.964-2.502-.626-4.441-.325-6.218 1.664-.55.613-.801 1.501-1.189 2.289a19.68 19.68 0 0 1 .813.438 4.68 4.68 0 0 1 .5.338c.638-.851 1.189-1.764 1.902-2.527zm5.692-1.939c.826.801 1.539 1.739 1.827 2.84.275 1.038.263 2.152.388 3.278l2.94-2.802c.1-.1.125-.4.063-.55-.938-2.139.125-4.942 3.265-5.154 1.038-.075 1.902.6 2.452 1.501a3.31 3.31 0 0 1-.35 3.866c-.938 1.051-2.727 1.601-4.204.888-.288-.138-.475-.113-.663.075l-2.852 3.015c.788 0 1.501-.05 2.202.013.55.05 1.163.15 1.626.425.838.488 1.626 1.088 2.39 1.689.288.225.463.275.751.063.625-.475 1.314-.863 1.889-1.389a7.06 7.06 0 0 0 2.264-4.229c.1-.613-.012-1.301-.175-1.927-.338-1.314-.813-2.59-1.601-3.703-.851-1.189-2.127-1.777-3.44-2.227-.788-.275-1.614-.45-2.44-.601-.963-.163-1.852.188-2.715.601-1.626.763-2.777 2.002-3.678 3.528-.225.338-.225.525.063.801zm5.918 2.702c.763.976 1.877 1.151 3.04.538.901-.475 1.376-1.289 1.626-2.215a1.62 1.62 0 0 0-.213-1.151c-.475-.676-1.001-1.364-1.977-1.476-1.139.213-2.089.751-2.64 1.827-.438.838-.463 1.689.163 2.477zm-2.815-7.344c.45-.263.863-.55.926-1.114.075-.613.213-1.226.188-1.827-.038-.638-.501-.863-1.088-.663a2.93 2.93 0 0 0-2.002 2.715c-.012.813-.1 1.626-.138 2.239.613-.4 1.351-.901 2.114-1.351zm-2.114-2.828c.488-.388.963-.813 1.489-1.163.575-.388 1.239-.638 1.877-.2.601.413.575 1.139.55 1.777-.025.55-.2 1.101-.313 1.676l1.989-.138c.488-1.351.776-2.765.288-4.179-.688-1.964-1.839-2.315-3.941-1.676-1.189.363-2.002 1.264-2.79 2.139l.851 1.764zm.863-3.978c.826-.538 1.777-.801 2.79-.776 1.589.038 2.515 1.214 2.865 2.802.3 1.351.125 2.69-.388 4.016l2.264.688c.588-1.314.988-2.627.838-4.091-.163-1.614-.576-3.09-1.564-4.416-1.088-1.464-2.552-1.889-4.241-1.664-1.001.138-1.989.413-2.94.738-1.476.513-2.515 1.614-3.428 2.877l1.664 1.539c.701-.575 1.376-1.214 2.139-1.714zm28.662 8.97c0 .013 0 .025 0 0h0zm.025-.025l3.103-.225c.125-.012.313-.038.35-.113.325-.688.626-1.376.976-2.177l-2.214-.188c-.113-.012-.288.038-.35.113-.638.851-1.251 1.727-1.864 2.59zm2.652-5.442c-.113.713-.275 1.414-.413 2.102l2.852.463-1.051 2.665 2.49.826 2.064-5.53-3.728-.651-1.614-.25c-.3-.025-.538-.012-.601.375zm6.168 1.451c-.538 1.614-1.176 3.203-1.789 4.854l2.715 1.464 2.928-9.583-9.784-2.252v3.09l5.067.888c1.451.263 1.326.138.863 1.539zm7.944-5.63l-13.937-3.503v3.015l6.456 1.514 3.503.751c.45.088.576.288.425.738l-2.465 7.919c-.125.388-.15.826-.325 1.188-.275.575-.013.876.45 1.126l1.952 1.076 3.941-13.824zm.438 22.282l2.202-3.878-4.391-2.59-6.355-3.828c-1.051-.6-2.177-1.076-3.29-1.551-1.827-.776-3.703-.701-5.517-.05-1.238.438-2.389 1.138-3.603 1.727l.45 1.451c.713-.325 1.364-.701 2.052-.926 2.515-.851 5.004-.813 7.494.213 2.965 1.213 5.655 2.877 8.357 4.541.726.45 1.439.938 2.189 1.351.325.188.363.325.175.638l-3.966 7.144c-1.001 1.827-2.252 3.453-3.766 4.879-1.013.951-2.214 1.539-3.578 1.939-1.138.338-2.252.626-3.553.525l.338 1.364c2.752.388 5.304-.025 7.532-1.702 1.326-1.013 2.264-2.389 3.078-3.841 1.426-2.452 2.777-4.942 4.154-7.406zm-.088 13.849l-4.466 3.766 1.614 2.602 7.319-6.831-7.319-6.831-1.639 2.615 3.541 2.902c.363.3.726.601 1.063.938.325.313.2.575-.113.838zm-.213-.463l-4.566-3.766-1.751 1.952 1.701 1.364c.4.313.375.6-.013.901l-1.701 1.351 1.752 1.952 4.579-3.753zm-4.817-.013l-1.852-1.314c-.088-.062-.263-.05-.363-.013l-2.89 1.339 3.178 1.389 1.927-1.401zm8.683 5.38l5.042-4.879c.313-.3.438-.563.075-.913l-4.554-4.466-5.392-5.105c-.463.813-.888 1.539-1.264 2.289-.075.15 0 .475.125.601l6.956 6.443c.663.613.663.701 0 1.314l-4.804 4.441c-.688.638-1.364 1.289-2.077 1.902-.3.25-.35.488-.163.813l1.251 2.177 4.804-4.617zM58.35 92.718l6.068-3.641-4.754-8.382c-.876-1.539-1.714-3.09-2.665-4.579-1.576-2.465-3.978-3.641-6.818-4.004-.513-.063-1.051.063-1.576.088-.35.013-.901-.175-1.001-.025-.25.388-.313.901-.45 1.414.626.038 1.189.025 1.752.113 3.14.45 5.592 2.052 7.394 4.629.938 1.351 1.801 2.752 2.652 4.166.701 1.163 1.326 2.364 1.977 3.553.388.701.763 1.401 1.101 2.127.063.138-.025.463-.15.525-2.99 1.789-5.968 3.616-9.02 5.28-1.626.888-3.44 1.476-5.33 1.514-.801.013-1.614-.25-2.427-.338-1.201-.138-2.264-.588-3.34-1.314l-.425 1.414c1.977 1.439 4.103 2.415 6.618 2.327a7.95 7.95 0 0 0 3.603-.976c2.289-1.251 4.541-2.565 6.793-3.891zm-13.324 5.154l1.051 1.351c.25.325.488.663.675 1.026.15.275.3.413.626.375.651-.087 1.301-.15 2.064-.237l-.938-2.102c-.038-.088-.213-.138-.338-.15l-3.14-.263zm8.682 5.392l-5.818 1.076v3.053l9.809-2.252-2.928-9.584-2.727 1.464 1.364 3.578a32.63 32.63 0 0 1 .701 2.127c.1.338-.05.476-.4.538zm-5.868 7.744l13.925-3.49c-1.351-4.642-2.415-9.271-4.029-13.812l-2.477 1.426c.213.801.375 1.551.601 2.264l2.289 7.293c.275.864.263.851-.651 1.051l-6.693 1.539-2.515.588c-.313.063-.475.188-.475.538.038.813.025 1.626.025 2.602zm-.138-7.606a.53.53 0 0 0 .4.287l5.517-.888-2.064-5.53-2.502.788 1.063 2.689-2.852.451c.138.713.263 1.464.438 2.202zm-8.032 15.663l6.13-.087c.475 0 .963.087 1.414.137l.013-7.344c.025-1.476.225-2.965.163-4.441-.088-2.177.05-4.429-.951-6.468-.838-1.701-2.002-3.14-3.766-4.003-.576-.288-1.126-.638-1.639-.938l-1.088.988c.65.463 1.339.826 1.877 1.339 1.464 1.401 2.752 2.928 3.228 5.005.513 2.189.688 4.391.663 6.63l-.088 6.381c0 .288-.05.588-.113.876-.025.1-.15.225-.263.25-.25.062-.501.075-.763.087l-8.082.088c-2.139-.025-4.254-.275-6.255-1.051-1.088-.425-2.064-1.026-2.815-1.964-.275-.338-.701-.563-.988-.901-.45-.563-.838-1.163-1.301-1.827l-1.026 1.176c.701 1.026 1.364 2.227 2.239 3.253 1.351 1.564 3.103 2.49 5.192 2.74 1.751.213 3.503.3 5.267.125.988-.112 1.977-.037 2.953-.05zm-8.757 6.368l.575-3.002c.125-.726.2-1.477.338-2.202.075-.438.063-.688-.5-.738-.651-.063-1.301-.276-1.952-.426l-.463 2.828c-.563-.201-.988-.326-1.401-.488s-.826-.363-1.276-.563l-.826 2.527 5.505 2.064zm-5.742-1.526l-1.451 2.69 9.583 2.927 2.252-9.733-3.078-.163-.788 4.729c-.063.351-.188.688-.225 1.039-.05.55-.3.663-.788.488l-5.505-1.977zm1.101-3.828c.012.1.1.225.188.262.663.313 1.351.601 2.102.939l.188-1.965c.038-.362-.088-.575-.413-.788-.726-.488-1.401-1.051-2.102-1.589-.075-.05-.163-.087-.2-.112l.238 3.253zm9.408 13.511l3.491-13.912c-.988 0-1.827-.012-2.665.013-.15 0-.388.2-.413.338l-2.164 9.383c-.175.788-.2.825-1.001.575l-8.019-2.49c-.413-.125-.826-.275-1.251-.312-.213-.013-.513.175-.638.363-.4.613-.726 1.251-1.151 2.001 4.529 1.639 9.17 2.69 13.812 4.041zM1.964 121.405c-.138-.763-.2-1.552-.3-2.377-.35.075-.751.137-1.126.262-.125.038-.25.263-.263.401-.038.625-.1 1.263-.013 1.864.15 1.013.338 2.039.638 3.027.713 2.302 2.427 3.779 4.404 4.93 2.727 1.589 5.517 3.09 8.27 4.641l3.653 2.09 2.64-4.454 3.803-6.306c.938-1.614 1.764-3.29 2.014-5.179.15-1.214.025-2.415-.413-3.528-.488-1.251-1.139-2.427-1.726-3.678l-1.464.437c.05.138.05.288.125.376.838 1.063 1.001 2.377 1.276 3.628.413 1.877.025 3.678-.663 5.455-1.213 3.152-3.053 5.967-4.792 8.832l-1.151 1.827c-.163.263-.263.363-.588.175-1.439-.801-2.915-1.514-4.341-2.34-1.689-.963-3.378-1.926-4.979-3.027-1.389-.951-2.727-2.027-3.603-3.516-.438-.75-.701-1.601-1.026-2.402-.125-.35-.3-.738-.375-1.138zm1.964-3.253c-.838.413-1.001 1.289-.963 2.077.038.988.288 1.964.513 2.927.113.488.363.939.5 1.289.688-1.239 1.351-2.527 2.114-3.766.475-.788 1.088-1.489 1.626-2.227.563-.775.776-1.651.801-2.602.025-.638.113-1.264.175-1.902-1.163 1.927-2.802 3.241-4.767 4.204zm2.202 3.44c-.688 1.064-1.376 2.14-1.489 3.478-.038.526.138.851.488 1.164l2.277 1.989c.05-2.027.776-3.716 1.464-5.43.438-1.113.676-2.252.438-3.44-.1-.5-.363-.976-.55-1.489-.913 1.289-1.814 2.477-2.627 3.728zm4.579-2.614c.45.438 1.001.775 1.551 1.101.513.312.951.087 1.276-.338.901-1.189 1.076-2.527.801-3.954-.3-1.513-1.226-2.689-2.177-3.84-.676-.826-1.401-1.602-2.064-2.352-.275 1.488-.676 3.04-.838 4.616-.188 1.739.088 3.453 1.451 4.767zM.638 99.548c-.138.05-.363.213-.35.325.038.688.125 1.363.188 2.039.15 1.526.963 2.752 1.877 3.916.626.788 1.514 1.201 2.44 1.451.938.25 1.914.4 2.877.513 1.614.188 3.003-.438 4.241-1.401 1.063-.826 2.102-1.677 2.665-2.94.25-.538.413-1.139.488-1.727.25-1.951-.325-3.728-1.314-5.379-.075-.125-.388-.175-.588-.163-.963.075-1.927.25-2.89.25-1.076 0-2.002-.501-2.865-1.114l-.763-.538 1.051 4.204c.05.163.375.325.588.35 1.589.25 2.677 1.176 3.028 2.69.488 2.089-.613 4.103-3.203 4.053-1.539-.025-2.315-1.001-2.79-2.152s-.275-2.402.538-3.453c.125-.15.225-.363.388-.438.776-.35.663-.863.425-1.526-.375-1.089-.651-2.214-1.013-3.478-.138.313-.225.488-.288.676-.826 2.177-2.652 3.153-4.729 3.841zm5.292 2.115c-.238 1.226.325 2.79 1.201 3.315.901.538 1.752.138 2.577-.213.863-.362.851-1.188.851-1.964 0-1.426-.751-2.527-1.914-2.84-1.201-.325-2.477.488-2.715 1.702zM1.489 86.913c-.113.05-.263.125-.425.2-.851.375-.801.363-.563 1.301.35 1.476 2.427 3.09 3.953 2.865 1.101-.163 2.064-.513 2.702-1.501.901-1.401 1.026-2.74.363-4.329l-1.289.188c.05.676.125 1.351.138 2.027.025.963-.525 1.764-1.326 2.002-1.214.35-2.039.125-2.615-.826-.363-.588-.626-1.251-.938-1.927zm.651-.475c-.05.063-.063.2-.025.275.313.713.55 1.476 1.001 2.089.438.601 1.164.676 1.864.325.626-.313.901-.863.876-1.539-.013-.488-.075-.976-.138-1.451-.05-.338-.213-.525-.563-.713-.613-.35-1.113-.888-1.651-1.364-.138-.125-.225-.3-.413-.576 0 1.189-.238 2.152-.951 2.953zM.363 79.369c-.075.05-.1.213-.1.313-.063 1.226.926 2.49 2.114 2.69.688.113 1.026-.388 1.339-.851.525-.763.463-2.089-.1-2.827-.05-.075-.125-.163-.2-.188-1.151-.425-1.151-.425-1.952-1.264-.263.801-.338 1.639-1.101 2.127zm2.002-18.041c-1.189.188-2.177 1.451-2.114 2.69 0 .113.038.275.1.313.776.488.838 1.326 1.088 2.127.601-.576 1.038-1.276 1.952-1.276.088 0 .175-.138.238-.225.726-1.063.5-2.702-.513-3.466-.163-.15-.5-.2-.751-.163zm.075-3.603c.413.676.55 1.501.813 2.277.438-.888 1.214-1.514 2.177-1.889.063-.025.138-.1.163-.163.225-.888.475-1.789.075-2.69-.275-.638-.838-.876-1.476-.888-.613-.025-1.063.35-1.389.851-.175.275-.263.613-.425.901-.288.551-.313 1.001.063 1.601zM.601 54.972c-.5 1.301-.475 1.314.901 1.776.3-.638.563-1.301.926-1.889.613-.988 1.451-1.214 2.665-.826.801.263 1.314 1.038 1.289 2.039-.013.663-.088 1.314-.138 1.977l1.301.2c.313-.813.575-1.676.35-2.577-.325-1.289-.888-2.402-2.239-2.977-2.264-.963-4.416.625-5.054 2.277zm6.781-19.066a18.86 18.86 0 0 0-3.303.763c-1.138.375-1.852 1.276-2.527 2.264C.538 40.435.4 42.111.275 43.813c-.013.1.2.288.35.325 1.501.513 2.978 1.076 3.941 2.427.425.601.726 1.289 1.126 2.002l.938-3.203c.05-.15.063-.313.125-.45.238-.463.188-.776-.288-1.101-1.539-1.063-1.827-3.828-.288-5.355 1.414-1.401 3.703-.976 4.616.3.851 1.189 1.089 2.965-.263 4.391-.613.651-1.314 1.113-2.227 1.188-.438.038-.601.263-.688.688-.275 1.264-.613 2.502-.951 3.803.726-.425 1.351-.838 2.014-1.176 1.076-.55 2.239-.475 3.403-.363.038 0 .075.025.113.038 1.526.313 1.526.313 2.177-1.126.726-1.626.938-3.29.55-5.054-.3-1.376-1.201-2.315-2.189-3.203-.438-.388-.926-.726-1.401-1.063-1.176-.851-2.527-1.163-3.953-.976zm.913 7.882c.951-.088 1.589-.663 1.964-1.489.2-.45.263-.963.388-1.451-.088-1.664-1.339-2.69-2.978-2.377-.788.15-1.126.826-1.451 1.439-.488.901-.538 1.852-.025 2.752.45.801 1.176 1.214 2.102 1.126zM9.633 31.64l.475 2.502c.963-1.163 2.002-2.327 2.953-3.565 1.276-1.639 1.764-3.491 1.101-5.53-.138-.438-.425-.838-.713-1.201-.263-.338-.638-.475-1.101-.288-1.814.713-2.665 2.152-3.028 3.966-.288 1.401.075 2.752.313 4.116zm-.701-10.609c-.513-1.439-.951-2.902-1.401-4.354-.1-.325-.088-.701-.138-1.151L5.23 17.302c-.901.738-.726 1.727-.313 2.502.826 1.551 1.839 3.003 2.777 4.479.313.488.663.963 1.013 1.476.951-1.539.801-3.103.225-4.729zm-5.905 3.053c.138.676.413 1.226 1.088 1.551 1.902.926 3.465 2.227 4.529 4.254.038-.25.063-.363.063-.475l-.188-1.927c-.088-.988-.438-1.877-1.063-2.64-1.439-1.739-2.652-3.591-3.403-5.792-.701 1.639-1.389 3.228-1.026 5.029zm6.468-12.286l-5.042 2.927C1.914 16.302.638 18.716.263 21.619c-.113.826-.025 1.677 0 2.515 0 .088.113.213.2.238.413.113.826.2 1.214.288.088-.738.113-1.439.25-2.139.5-2.69 1.827-4.854 4.016-6.543 2.214-1.714 4.654-3.053 7.094-4.404l3.253-1.739c.288-.163.425-.125.601.163l2.327 3.741c.988 1.689 1.989 3.391 2.865 5.142.838 1.689 1.514 3.453 1.551 5.38.012.776-.138 1.551-.263 2.314-.1.613-.25 1.226-.463 1.814-.213.575-.538 1.113-.838 1.739l1.389.413c.688-1.364 1.651-2.565 2.014-4.141.488-2.152.275-4.179-.713-6.105-.726-1.426-1.576-2.802-2.39-4.191l-3.578-6.03c-.538-.901-1.026-1.839-1.489-2.652l-7.807 4.379z" fill="#824fd4" fill-opacity=".1"/></svg>