<svg width="38" height="38" viewBox="0 0 38 38" fill="none" xmlns="http://www.w3.org/2000/svg">
<path d="M19 38C8.50659 38 -3.71835e-07 29.4934 -8.30516e-07 19C-1.2892e-06 8.50659 8.50659 -3.71835e-07 19 -8.30516e-07C29.4934 -1.2892e-06 38 8.50659 38 19C38 29.4934 29.4934 38 19 38Z" fill="url(#paint0_linear_159_859)"/>
<g clip-path="url(#clip0_159_859)">
<path d="M28.8212 19.9263C28.4905 19.6729 28.1054 19.4999 27.6962 19.4209C29.1428 17.7756 29.875 16.1284 29.875 14.5C29.875 11.8122 27.7103 9.625 25.0506 9.625C23.7698 9.61886 22.5384 10.1193 21.625 11.0172C20.7116 10.1193 19.4802 9.61886 18.1994 9.625C15.5397 9.625 13.375 11.8122 13.375 14.5C13.375 15.4516 13.63 16.4031 14.1456 17.3781C13.7341 17.548 13.3603 17.7978 13.0459 18.1131L11.0312 20.125H8.875C8.37772 20.125 7.90081 20.3225 7.54917 20.6742C7.19754 21.0258 7 21.5027 7 22V25.75C7 26.2473 7.19754 26.7242 7.54917 27.0758C7.90081 27.4275 8.37772 27.625 8.875 27.625H18.25C18.342 27.6251 18.4336 27.6137 18.5228 27.5913L24.5228 26.0913C24.5802 26.0772 24.6363 26.0584 24.6906 26.035L28.33 24.4844C28.3516 24.4759 28.3722 24.4666 28.3928 24.4563C28.7998 24.2526 29.1483 23.9488 29.4056 23.5733C29.6628 23.1979 29.8202 22.7631 29.863 22.31C29.9059 21.857 29.8328 21.4004 29.6505 20.9834C29.4682 20.5664 29.1829 20.2026 28.8212 19.9263ZM18.1994 11.875C18.7063 11.8672 19.2039 12.0107 19.6288 12.2873C20.0537 12.5638 20.3864 12.9608 20.5844 13.4275C20.6691 13.6338 20.8133 13.8103 20.9986 13.9345C21.1839 14.0587 21.4019 14.125 21.625 14.125C21.8481 14.125 22.0661 14.0587 22.2514 13.9345C22.4367 13.8103 22.5809 13.6338 22.6656 13.4275C22.8636 12.9608 23.1963 12.5638 23.6212 12.2873C24.0461 12.0107 24.5437 11.8672 25.0506 11.875C26.4456 11.875 27.625 13.0769 27.625 14.5C27.625 16.1931 26.2188 18.1413 23.5581 20.1428L23.125 20.2431C23.125 20.2038 23.125 20.1644 23.125 20.125C23.125 19.3294 22.8089 18.5663 22.2463 18.0037C21.6837 17.4411 20.9206 17.125 20.125 17.125H16.6291C15.9456 16.165 15.625 15.3222 15.625 14.5C15.625 13.0769 16.8044 11.875 18.1994 11.875ZM9.25 22.375H10.375V25.375H9.25V22.375ZM27.4075 22.4322L23.8909 23.9322L18.1112 25.375H12.625V21.7188L14.6369 19.7069C14.7409 19.6018 14.8647 19.5183 15.0011 19.4613C15.1376 19.4044 15.284 19.375 15.4319 19.375H20.125C20.3239 19.375 20.5147 19.454 20.6553 19.5947C20.796 19.7353 20.875 19.9261 20.875 20.125C20.875 20.3239 20.796 20.5147 20.6553 20.6553C20.5147 20.796 20.3239 20.875 20.125 20.875H17.5C17.2016 20.875 16.9155 20.9935 16.7045 21.2045C16.4935 21.4155 16.375 21.7016 16.375 22C16.375 22.2984 16.4935 22.5845 16.7045 22.7955C16.9155 23.0065 17.2016 23.125 17.5 23.125H20.5C20.5848 23.125 20.6694 23.1156 20.7522 23.0969L27.0334 21.6522L27.0775 21.6409C27.1415 21.6235 27.2087 21.6211 27.2739 21.6338C27.339 21.6465 27.4003 21.6741 27.4531 21.7144C27.5058 21.7546 27.5486 21.8065 27.5781 21.8659C27.6076 21.9254 27.623 21.9908 27.6231 22.0572C27.6236 22.1332 27.6039 22.2079 27.566 22.2738C27.5281 22.3397 27.4734 22.3944 27.4075 22.4322Z" fill="url(#paint1_linear_159_859)"/>
</g>
<defs>
<linearGradient id="paint0_linear_159_859" x1="-2.94828" y1="22.5216" x2="40.6207" y2="11.7112" gradientUnits="userSpaceOnUse">
<stop stop-color="white"/>
<stop offset="1" stop-color="#F2DEFF"/>
</linearGradient>
<linearGradient id="paint1_linear_159_859" x1="4.76509" y1="34.1604" x2="24.3502" y2="3.4112" gradientUnits="userSpaceOnUse">
<stop stop-color="#8A57DC"/>
<stop offset="0.99875" stop-color="#EAA6F1"/>
</linearGradient>
<clipPath id="clip0_159_859">
<rect width="24" height="24" fill="white" transform="translate(7 7)"/>
</clipPath>
</defs>
</svg>
