<svg width="38" height="38" viewBox="0 0 38 38" fill="none" xmlns="http://www.w3.org/2000/svg">
<path d="M19 38C8.50659 38 -3.71835e-07 29.4934 -8.30516e-07 19C-1.2892e-06 8.50659 8.50659 -3.71835e-07 19 -8.30516e-07C29.4934 -1.2892e-06 38 8.50659 38 19C38 29.4934 29.4934 38 19 38Z" fill="url(#paint0_linear_159_848)"/>
<path d="M19 13.375C19 13.6734 18.8815 13.9595 18.6705 14.1705C18.4595 14.3815 18.1734 14.5 17.875 14.5H16.375C16.0766 14.5 15.7905 14.3815 15.5795 14.1705C15.3685 13.9595 15.25 13.6734 15.25 13.375C15.25 13.0766 15.3685 12.7905 15.5795 12.5795C15.7905 12.3685 16.0766 12.25 16.375 12.25H17.875C18.1734 12.25 18.4595 12.3685 18.6705 12.5795C18.8815 12.7905 19 13.0766 19 13.375ZM23.5141 25.3394L23.8563 27.7347C23.8943 28.0006 23.8747 28.2717 23.7988 28.5294C23.723 28.7871 23.5926 29.0255 23.4166 29.2285C23.2406 29.4314 23.023 29.5942 22.7786 29.7058C22.5342 29.8173 22.2687 29.875 22 29.875H16C15.7313 29.875 15.4658 29.8173 15.2214 29.7058C14.977 29.5942 14.7594 29.4314 14.5834 29.2285C14.4074 29.0255 14.277 28.7871 14.2012 28.5294C14.1253 28.2717 14.1057 28.0006 14.1437 27.7347L14.4859 25.3394C13.0149 24.5303 11.7879 23.3413 10.9329 21.8965C10.0779 20.4517 9.62621 18.8039 9.625 17.125C9.625 16.8266 9.74353 16.5405 9.9545 16.3295C10.1655 16.1185 10.4516 16 10.75 16H11.875V10.75C11.875 10.2527 12.0725 9.77581 12.4242 9.42417C12.7758 9.07254 13.2527 8.875 13.75 8.875H24.25C24.7473 8.875 25.2242 9.07254 25.5758 9.42417C25.9275 9.77581 26.125 10.2527 26.125 10.75V16H27.25C27.5484 16 27.8345 16.1185 28.0455 16.3295C28.2565 16.5405 28.375 16.8266 28.375 17.125C28.3738 18.8039 27.9221 20.4517 27.0671 21.8965C26.2121 23.3413 24.9851 24.5303 23.5141 25.3394ZM14.125 16H23.875V11.125H14.125V16ZM21.3634 26.1981C19.8135 26.6006 18.1865 26.6006 16.6366 26.1981L16.4322 27.625H21.5678L21.3634 26.1981ZM26.0359 18.25H11.9688C12.2359 19.9238 13.0911 21.4476 14.3806 22.5476C15.6702 23.6477 17.3097 24.252 19.0047 24.252C20.6997 24.252 22.3392 23.6477 23.6288 22.5476C24.9183 21.4476 25.7735 19.9238 26.0406 18.25H26.0359Z" fill="url(#paint1_linear_159_848)"/>
<defs>
<linearGradient id="paint0_linear_159_848" x1="-2.94828" y1="22.5216" x2="40.6207" y2="11.7112" gradientUnits="userSpaceOnUse">
<stop stop-color="white"/>
<stop offset="1" stop-color="#F2DEFF"/>
</linearGradient>
<linearGradient id="paint1_linear_159_848" x1="7.7931" y1="37.4996" x2="32.886" y2="9.82049" gradientUnits="userSpaceOnUse">
<stop stop-color="#8A57DC"/>
<stop offset="0.99875" stop-color="#EAA6F1"/>
</linearGradient>
</defs>
</svg>
