<svg width="19" height="18" viewBox="0 0 19 18" fill="none" xmlns="http://www.w3.org/2000/svg">
<path d="M15.523 7.14797L9.89798 12.773C9.84574 12.8253 9.78371 12.8668 9.71542 12.8951C9.64713 12.9234 9.57394 12.9379 9.50002 12.9379C9.42609 12.9379 9.3529 12.9234 9.28461 12.8951C9.21632 12.8668 9.15429 12.8253 9.10205 12.773L3.47705 7.14797C3.39829 7.0693 3.34465 6.96903 3.32291 6.85986C3.30116 6.75069 3.3123 6.63752 3.35492 6.53468C3.39753 6.43184 3.46969 6.34396 3.56228 6.28216C3.65486 6.22036 3.7637 6.18741 3.87502 6.1875H15.125C15.2363 6.18741 15.3452 6.22036 15.4378 6.28216C15.5303 6.34396 15.6025 6.43184 15.6451 6.53468C15.6877 6.63752 15.6989 6.75069 15.6771 6.85986C15.6554 6.96903 15.6017 7.0693 15.523 7.14797Z" fill="white"/>
</svg>
