<svg width="20" height="20" viewBox="0 0 20 20" fill="none" xmlns="http://www.w3.org/2000/svg">
<path d="M13.4375 5.31248C13.3078 5.31248 13.1789 5.31717 13.0508 5.32498C12.8672 4.15484 12.3375 3.06645 11.5299 2.19998C10.7223 1.33351 9.67388 0.72864 8.51953 0.46326C8.3648 0.427898 8.20362 0.432401 8.0511 0.476347C7.89858 0.520293 7.75972 0.602242 7.64752 0.714515C7.53533 0.826788 7.45348 0.965709 7.40964 1.11826C7.3658 1.27081 7.36141 1.43199 7.39688 1.5867C7.55093 2.25812 7.53189 2.95768 7.34154 3.61973C7.15118 4.28179 6.79576 4.88463 6.30861 5.3717C5.82146 5.85876 5.21857 6.21409 4.55648 6.40434C3.8944 6.59459 3.19484 6.61352 2.52344 6.45935C2.36863 6.42394 2.20735 6.42843 2.05475 6.47242C1.90216 6.5164 1.76323 6.59842 1.65101 6.7108C1.53879 6.82317 1.45696 6.96221 1.41319 7.11487C1.36942 7.26753 1.36515 7.42881 1.40078 7.58357C1.71582 8.92822 2.48618 10.1225 3.58125 10.964C3.13098 11.621 2.86857 12.3884 2.82233 13.1835C2.77609 13.9786 2.94777 14.7712 3.31886 15.4759C3.68994 16.1806 4.24636 16.7707 4.9281 17.1824C5.60985 17.5942 6.39106 17.812 7.1875 17.8125H13.4375C15.0951 17.8125 16.6848 17.154 17.8569 15.9819C19.029 14.8098 19.6875 13.2201 19.6875 11.5625C19.6875 9.90487 19.029 8.31516 17.8569 7.14306C16.6848 5.97096 15.0951 5.31248 13.4375 5.31248ZM9.36641 2.81248C9.86991 3.13005 10.2969 3.5551 10.6168 4.05716C10.9366 4.55922 11.1414 5.12584 11.2164 5.71638C10.4329 6.0143 9.71689 6.46605 9.11069 7.04502C8.50448 7.62399 8.02031 8.31845 7.68672 9.08748C7.52092 9.06972 7.35425 9.06138 7.1875 9.06248C6.41215 9.06188 5.65073 9.26848 4.98203 9.66092C4.49211 9.34164 4.07584 8.92163 3.76094 8.42888C5.22286 8.34713 6.60323 7.72885 7.63757 6.69249C8.67192 5.65613 9.28751 4.27456 9.36641 2.81248ZM13.4375 15.9375H7.1875C6.52446 15.9375 5.88857 15.6741 5.41973 15.2052C4.95089 14.7364 4.6875 14.1005 4.6875 13.4375C4.6875 12.7744 4.95089 12.1386 5.41973 11.6697C5.88857 11.2009 6.52446 10.9375 7.1875 10.9375H7.20938C7.20078 11.0234 7.19375 11.1094 7.18906 11.1953C7.17456 11.4439 7.25942 11.6882 7.42498 11.8742C7.59054 12.0603 7.82324 12.173 8.07188 12.1875C8.32052 12.202 8.56473 12.1171 8.75081 11.9516C8.93688 11.786 9.04956 11.5533 9.06406 11.3047C9.08059 11.0144 9.12613 10.7265 9.2 10.4453L9.21172 10.4023C9.42711 9.61481 9.85835 8.90319 10.4567 8.34777C11.0551 7.79235 11.7969 7.41525 12.5982 7.25903C13.3996 7.10281 14.2286 7.17369 14.9918 7.46367C15.755 7.75365 16.422 8.25119 16.9174 8.90012C17.4128 9.54906 17.717 10.3236 17.7956 11.1362C17.8742 11.9488 17.7241 12.7673 17.3622 13.4991C17.0003 14.231 16.441 14.8471 15.7475 15.2779C15.054 15.7088 14.2539 15.9372 13.4375 15.9375Z" fill="#8A57DC"/>
</svg>
