<svg width="19" height="18" viewBox="0 0 19 18" fill="none" xmlns="http://www.w3.org/2000/svg">
<path d="M12.1875 5.31248C12.0578 5.31248 11.9289 5.31717 11.8008 5.32498C11.6172 4.15484 11.0875 3.06645 10.2799 2.19998C9.47235 1.33351 8.42389 0.72864 7.26954 0.46326C7.11481 0.427898 6.95363 0.432401 6.80111 0.476347C6.64859 0.520293 6.50973 0.602242 6.39753 0.714515C6.28534 0.826788 6.20348 0.965709 6.15964 1.11826C6.1158 1.27081 6.11141 1.43199 6.14688 1.5867C6.30094 2.25812 6.2819 2.95768 6.09154 3.61973C5.90119 4.28179 5.54576 4.88463 5.05862 5.3717C4.57147 5.85876 3.96857 6.21409 3.30649 6.40434C2.64441 6.59459 1.94485 6.61352 1.27345 6.45935C1.11863 6.42394 0.957362 6.42843 0.804763 6.47242C0.652163 6.5164 0.513237 6.59842 0.401019 6.7108C0.2888 6.82317 0.206968 6.96221 0.1632 7.11487C0.119431 7.26753 0.115161 7.42881 0.150789 7.58357C0.465828 8.92822 1.23619 10.1225 2.33126 10.964C1.88098 11.621 1.61858 12.3884 1.57234 13.1835C1.5261 13.9786 1.69778 14.7712 2.06886 15.4759C2.43995 16.1806 2.99636 16.7707 3.67811 17.1824C4.35985 17.5942 5.14107 17.812 5.93751 17.8125H12.1875C13.8451 17.8125 15.4348 17.154 16.6069 15.9819C17.779 14.8098 18.4375 13.2201 18.4375 11.5625C18.4375 9.90487 17.779 8.31516 16.6069 7.14306C15.4348 5.97096 13.8451 5.31248 12.1875 5.31248ZM8.11641 2.81248C8.61992 3.13005 9.04691 3.5551 9.36676 4.05716C9.68661 4.55922 9.89139 5.12584 9.96642 5.71638C9.18287 6.0143 8.4669 6.46605 7.8607 7.04502C7.25449 7.62399 6.77032 8.31845 6.43673 9.08748C6.27093 9.06972 6.10425 9.06138 5.93751 9.06248C5.16216 9.06188 4.40074 9.26848 3.73204 9.66092C3.24212 9.34164 2.82585 8.92163 2.51095 8.42888C3.97287 8.34713 5.35324 7.72885 6.38758 6.69249C7.42192 5.65613 8.03751 4.27456 8.11641 2.81248ZM12.1875 15.9375H5.93751C5.27447 15.9375 4.63858 15.6741 4.16974 15.2052C3.7009 14.7364 3.43751 14.1005 3.43751 13.4375C3.43751 12.7744 3.7009 12.1386 4.16974 11.6697C4.63858 11.2009 5.27447 10.9375 5.93751 10.9375H5.95938C5.95079 11.0234 5.94376 11.1094 5.93907 11.1953C5.92457 11.4439 6.00943 11.6882 6.17499 11.8742C6.34055 12.0603 6.57324 12.173 6.82188 12.1875C7.07052 12.202 7.31474 12.1171 7.50081 11.9516C7.68688 11.786 7.79957 11.5533 7.81407 11.3047C7.8306 11.0144 7.87614 10.7265 7.95001 10.4453L7.96173 10.4023C8.17712 9.61481 8.60835 8.90319 9.20674 8.34777C9.80514 7.79235 10.5469 7.41525 11.3482 7.25903C12.1496 7.10281 12.9786 7.17369 13.7418 7.46367C14.505 7.75365 15.172 8.25119 15.6674 8.90012C16.1628 9.54906 16.467 10.3236 16.5456 11.1362C16.6242 11.9488 16.4741 12.7673 16.1122 13.4991C15.7503 14.231 15.191 14.8471 14.4975 15.2779C13.8041 15.7088 13.0039 15.9372 12.1875 15.9375Z" fill="white"/>
</svg>
