<svg width="20" height="20" viewBox="0 0 20 20" fill="none" xmlns="http://www.w3.org/2000/svg">
<path d="M18.75 11.5624H15.9289C15.9344 11.4585 15.9375 11.3546 15.9375 11.2499C15.9375 9.67522 15.3119 8.16499 14.1984 7.0515C13.0849 5.938 11.5747 5.31244 10 5.31244C8.42528 5.31244 6.91505 5.938 5.80155 7.0515C4.68806 8.16499 4.0625 9.67522 4.0625 11.2499C4.0625 11.3546 4.0625 11.4585 4.07109 11.5624H1.25C1.00136 11.5624 0.762903 11.6612 0.587087 11.837C0.411272 12.0128 0.3125 12.2513 0.3125 12.4999C0.3125 12.7486 0.411272 12.987 0.587087 13.1629C0.762903 13.3387 1.00136 13.4374 1.25 13.4374H18.75C18.9986 13.4374 19.2371 13.3387 19.4129 13.1629C19.5887 12.987 19.6875 12.7486 19.6875 12.4999C19.6875 12.2513 19.5887 12.0128 19.4129 11.837C19.2371 11.6612 18.9986 11.5624 18.75 11.5624ZM5.9375 11.2499C5.9375 10.1725 6.36551 9.13919 7.12738 8.37732C7.88925 7.61545 8.92256 7.18744 10 7.18744C11.0774 7.18744 12.1108 7.61545 12.8726 8.37732C13.6345 9.13919 14.0625 10.1725 14.0625 11.2499C14.0625 11.3546 14.057 11.4585 14.0492 11.5624H5.95078C5.94297 11.4585 5.9375 11.3546 5.9375 11.2499ZM17.1875 15.6249C17.1875 15.8736 17.0887 16.112 16.9129 16.2879C16.7371 16.4637 16.4986 16.5624 16.25 16.5624H3.75C3.50136 16.5624 3.2629 16.4637 3.08709 16.2879C2.91127 16.112 2.8125 15.8736 2.8125 15.6249C2.8125 15.3763 2.91127 15.1378 3.08709 14.962C3.2629 14.7862 3.50136 14.6874 3.75 14.6874H16.25C16.4986 14.6874 16.7371 14.7862 16.9129 14.962C17.0887 15.1378 17.1875 15.3763 17.1875 15.6249ZM0.985937 7.20385C1.06456 6.96812 1.23356 6.77326 1.45579 6.66207C1.67802 6.55088 1.9353 6.53247 2.17109 6.61088L3.10859 6.92338C3.22666 6.96124 3.33605 7.02214 3.43042 7.10256C3.52479 7.18297 3.60227 7.28131 3.65838 7.39188C3.71448 7.50245 3.7481 7.62305 3.75728 7.7467C3.76646 7.87034 3.75102 7.99458 3.71186 8.11223C3.6727 8.22987 3.61059 8.33857 3.52913 8.43204C3.44767 8.52552 3.34848 8.60191 3.2373 8.65678C3.12612 8.71166 3.00515 8.74394 2.88141 8.75175C2.75767 8.75956 2.63361 8.74275 2.51641 8.70229L1.57891 8.38979C1.4621 8.35086 1.3541 8.2893 1.26108 8.20863C1.16806 8.12797 1.09185 8.02976 1.03678 7.91964C0.981718 7.80951 0.948887 7.68962 0.940163 7.5668C0.93144 7.44398 0.946994 7.32065 0.985937 7.20385ZM5.36094 3.42182C5.31834 3.30416 5.29973 3.17918 5.30619 3.05422C5.31266 2.92926 5.34407 2.80686 5.39858 2.69423C5.4531 2.58161 5.5296 2.48103 5.62359 2.39843C5.71759 2.31584 5.82716 2.25289 5.94586 2.21331C6.06456 2.17373 6.18998 2.1583 6.31473 2.16795C6.43949 2.1776 6.56105 2.21213 6.67225 2.26949C6.78345 2.32686 6.88204 2.4059 6.96221 2.50197C7.04239 2.59803 7.10252 2.70918 7.13906 2.82885L7.45156 3.76635C7.49416 3.884 7.51277 4.00899 7.50631 4.13395C7.49984 4.25891 7.46843 4.3813 7.41392 4.49393C7.3594 4.60656 7.2829 4.70713 7.18891 4.78973C7.09491 4.87233 6.98534 4.93527 6.86664 4.97485C6.74794 5.01444 6.62252 5.02986 6.49777 5.02021C6.37301 5.01056 6.25145 4.97604 6.14025 4.91867C6.02905 4.86131 5.93046 4.78226 5.85029 4.6862C5.77011 4.59013 5.70998 4.47899 5.67344 4.35932L5.36094 3.42182ZM16.2984 8.10932C16.2595 7.99251 16.2439 7.86918 16.2527 7.74637C16.2614 7.62355 16.2942 7.50365 16.3493 7.39353C16.4043 7.2834 16.4806 7.1852 16.5736 7.10453C16.6666 7.02386 16.7746 6.96231 16.8914 6.92338L17.8289 6.61088C18.064 6.53551 18.3193 6.55589 18.5394 6.66759C18.7595 6.77929 18.9267 6.9733 19.0047 7.2075C19.0826 7.44171 19.0651 7.69721 18.9558 7.91856C18.8466 8.1399 18.6544 8.30923 18.4211 8.38979L17.4836 8.70229C17.2478 8.7807 16.9905 8.76228 16.7683 8.6511C16.5461 8.53991 16.3771 8.34504 16.2984 8.10932ZM12.5484 3.76635L12.8609 2.82885C12.8975 2.70918 12.9576 2.59803 13.0378 2.50197C13.118 2.4059 13.2166 2.32686 13.3278 2.26949C13.439 2.21213 13.5605 2.1776 13.6853 2.16795C13.81 2.1583 13.9354 2.17373 14.0541 2.21331C14.1728 2.25289 14.2824 2.31584 14.3764 2.39843C14.4704 2.48103 14.5469 2.58161 14.6014 2.69423C14.6559 2.80686 14.6873 2.92926 14.6938 3.05422C14.7003 3.17918 14.6817 3.30416 14.6391 3.42182L14.3266 4.35932C14.29 4.47899 14.2299 4.59013 14.1497 4.6862C14.0695 4.78226 13.9709 4.86131 13.8597 4.91867C13.7485 4.97604 13.627 5.01056 13.5022 5.02021C13.3775 5.02986 13.2521 5.01444 13.1334 4.97485C13.0147 4.93527 12.9051 4.87233 12.8111 4.78973C12.7171 4.70713 12.6406 4.60656 12.5861 4.49393C12.5316 4.3813 12.5002 4.25891 12.4937 4.13395C12.4872 4.00899 12.5058 3.884 12.5484 3.76635Z" fill="#8A57DC"/>
</svg>
