<svg width="20" height="15" viewBox="0 0 20 15" fill="none" xmlns="http://www.w3.org/2000/svg">
<path d="M19 9.56244H16.1789C16.1844 9.45854 16.1875 9.35463 16.1875 9.24994C16.1875 7.67522 15.5619 6.16499 14.4484 5.0515C13.3349 3.938 11.8247 3.31244 10.25 3.31244C8.67528 3.31244 7.16505 3.938 6.05155 5.0515C4.93806 6.16499 4.3125 7.67522 4.3125 9.24994C4.3125 9.35463 4.3125 9.45854 4.32109 9.56244H1.5C1.25136 9.56244 1.0129 9.66121 0.837087 9.83703C0.661272 10.0128 0.5625 10.2513 0.5625 10.4999C0.5625 10.7486 0.661272 10.987 0.837087 11.1629C1.0129 11.3387 1.25136 11.4374 1.5 11.4374H19C19.2486 11.4374 19.4871 11.3387 19.6629 11.1629C19.8387 10.987 19.9375 10.7486 19.9375 10.4999C19.9375 10.2513 19.8387 10.0128 19.6629 9.83703C19.4871 9.66121 19.2486 9.56244 19 9.56244ZM6.1875 9.24994C6.1875 8.1725 6.61551 7.13919 7.37738 6.37732C8.13925 5.61545 9.17256 5.18744 10.25 5.18744C11.3274 5.18744 12.3608 5.61545 13.1226 6.37732C13.8845 7.13919 14.3125 8.1725 14.3125 9.24994C14.3125 9.35463 14.307 9.45854 14.2992 9.56244H6.20078C6.19297 9.45854 6.1875 9.35463 6.1875 9.24994ZM17.4375 13.6249C17.4375 13.8736 17.3387 14.112 17.1629 14.2879C16.9871 14.4637 16.7486 14.5624 16.5 14.5624H4C3.75136 14.5624 3.5129 14.4637 3.33709 14.2879C3.16127 14.112 3.0625 13.8736 3.0625 13.6249C3.0625 13.3763 3.16127 13.1378 3.33709 12.962C3.5129 12.7862 3.75136 12.6874 4 12.6874H16.5C16.7486 12.6874 16.9871 12.7862 17.1629 12.962C17.3387 13.1378 17.4375 13.3763 17.4375 13.6249ZM1.23594 5.20385C1.31456 4.96812 1.48356 4.77326 1.70579 4.66207C1.92802 4.55088 2.1853 4.53247 2.42109 4.61088L3.35859 4.92338C3.47666 4.96124 3.58605 5.02214 3.68042 5.10256C3.77479 5.18297 3.85227 5.28131 3.90838 5.39188C3.96448 5.50245 3.9981 5.62305 4.00728 5.7467C4.01646 5.87034 4.00102 5.99458 3.96186 6.11223C3.9227 6.22987 3.86059 6.33857 3.77913 6.43204C3.69767 6.52552 3.59848 6.60191 3.4873 6.65678C3.37612 6.71166 3.25515 6.74394 3.13141 6.75175C3.00767 6.75956 2.88361 6.74275 2.76641 6.70229L1.82891 6.38979C1.7121 6.35086 1.6041 6.2893 1.51108 6.20863C1.41806 6.12797 1.34185 6.02976 1.28678 5.91964C1.23172 5.80951 1.19889 5.68962 1.19016 5.5668C1.18144 5.44398 1.19699 5.32065 1.23594 5.20385ZM5.61094 1.42182C5.56834 1.30416 5.54973 1.17918 5.55619 1.05422C5.56266 0.929259 5.59407 0.806859 5.64858 0.694232C5.7031 0.581605 5.7796 0.48103 5.87359 0.398434C5.96759 0.315838 6.07716 0.252894 6.19586 0.21331C6.31456 0.173726 6.43998 0.158304 6.56473 0.167953C6.68949 0.177602 6.81105 0.212126 6.92225 0.269492C7.03345 0.326857 7.13204 0.405902 7.21221 0.501968C7.29239 0.598035 7.35252 0.709178 7.38906 0.828848L7.70156 1.76635C7.74416 1.884 7.76277 2.00899 7.75631 2.13395C7.74984 2.25891 7.71843 2.3813 7.66392 2.49393C7.6094 2.60656 7.5329 2.70713 7.43891 2.78973C7.34491 2.87233 7.23534 2.93527 7.11664 2.97485C6.99794 3.01444 6.87252 3.02986 6.74777 3.02021C6.62301 3.01056 6.50145 2.97604 6.39025 2.91867C6.27905 2.86131 6.18046 2.78226 6.10029 2.6862C6.02011 2.59013 5.95998 2.47899 5.92344 2.35932L5.61094 1.42182ZM16.5484 6.10932C16.5095 5.99251 16.4939 5.86918 16.5027 5.74637C16.5114 5.62355 16.5442 5.50365 16.5993 5.39353C16.6543 5.2834 16.7306 5.1852 16.8236 5.10453C16.9166 5.02386 17.0246 4.96231 17.1414 4.92338L18.0789 4.61088C18.314 4.53551 18.5693 4.55589 18.7894 4.66759C19.0095 4.77929 19.1767 4.9733 19.2547 5.2075C19.3326 5.44171 19.3151 5.69721 19.2058 5.91856C19.0966 6.1399 18.9044 6.30923 18.6711 6.38979L17.7336 6.70229C17.4978 6.7807 17.2405 6.76228 17.0183 6.6511C16.7961 6.53991 16.6271 6.34504 16.5484 6.10932ZM12.7984 1.76635L13.1109 0.828848C13.1475 0.709178 13.2076 0.598035 13.2878 0.501968C13.368 0.405902 13.4666 0.326857 13.5778 0.269492C13.689 0.212126 13.8105 0.177602 13.9353 0.167953C14.06 0.158304 14.1854 0.173726 14.3041 0.21331C14.4228 0.252894 14.5324 0.315838 14.6264 0.398434C14.7204 0.48103 14.7969 0.581605 14.8514 0.694232C14.9059 0.806859 14.9373 0.929259 14.9438 1.05422C14.9503 1.17918 14.9317 1.30416 14.8891 1.42182L14.5766 2.35932C14.54 2.47899 14.4799 2.59013 14.3997 2.6862C14.3195 2.78226 14.2209 2.86131 14.1097 2.91867C13.9985 2.97604 13.877 3.01056 13.7522 3.02021C13.6275 3.02986 13.5021 3.01444 13.3834 2.97485C13.2647 2.93527 13.1551 2.87233 13.0611 2.78973C12.9671 2.70713 12.8906 2.60656 12.8361 2.49393C12.7816 2.3813 12.7502 2.25891 12.7437 2.13395C12.7372 2.00899 12.7558 1.884 12.7984 1.76635Z" fill="white"/>
</svg>
