<svg width="20" height="20" viewBox="0 0 20 20" fill="none" xmlns="http://www.w3.org/2000/svg">
<path d="M12.8125 5.31252C12.3269 5.31256 11.8429 5.36893 11.3703 5.48048C11.2297 5.27509 11.073 5.08125 10.9016 4.9008L11.493 4.05548C11.6356 3.85181 11.6915 3.5998 11.6484 3.3549C11.6052 3.11001 11.4666 2.89228 11.2629 2.74962C11.0592 2.60697 10.8072 2.55106 10.5623 2.59421C10.3174 2.63736 10.0997 2.77602 9.95703 2.9797L9.36484 3.82814C8.81557 3.58763 8.22515 3.45501 7.62578 3.43752L7.44609 2.42189C7.39859 2.18117 7.2586 1.96866 7.05618 1.82999C6.85376 1.69131 6.60504 1.63752 6.36341 1.68016C6.12178 1.7228 5.90649 1.85848 5.76376 2.05806C5.62103 2.25764 5.56224 2.50523 5.6 2.74767L5.77969 3.7633C5.22258 3.98469 4.71312 4.3109 4.27891 4.72423L3.43047 4.1297C3.22679 3.98705 2.97478 3.93114 2.72989 3.97429C2.48499 4.01744 2.26727 4.1561 2.12461 4.35978C1.98195 4.56346 1.92605 4.81547 1.9692 5.06036C2.01234 5.30526 2.15101 5.52298 2.35469 5.66564L3.20313 6.25861C2.96196 6.8074 2.82931 7.39768 2.8125 7.99689L1.79688 8.17658C1.56581 8.21706 1.35832 8.34269 1.21536 8.52867C1.0724 8.71466 1.00436 8.94748 1.02466 9.18118C1.04497 9.41488 1.15216 9.63248 1.32506 9.79101C1.49796 9.94955 1.72401 10.0375 1.95859 10.0375C2.01358 10.0374 2.06846 10.0327 2.12266 10.0235L3.13828 9.84377C3.21497 10.0384 3.30476 10.2277 3.40703 10.4102C2.81392 11.029 2.41564 11.8084 2.26166 12.6516C2.10767 13.4948 2.20477 14.3646 2.54089 15.1531C2.87701 15.9416 3.43734 16.614 4.1523 17.0868C4.86726 17.5596 5.70536 17.8119 6.5625 17.8125H12.8125C14.4701 17.8125 16.0598 17.154 17.2319 15.9819C18.404 14.8098 19.0625 13.2201 19.0625 11.5625C19.0625 9.90491 18.404 8.3152 17.2319 7.1431C16.0598 5.971 14.4701 5.31252 12.8125 5.31252ZM7.5 5.31252C7.8884 5.31283 8.27252 5.39358 8.62817 5.54969C8.98381 5.70579 9.30327 5.93387 9.56641 6.21955C8.45429 6.89405 7.57909 7.89729 7.06172 9.09064C6.89598 9.07184 6.7293 9.06245 6.5625 9.06252C6.01906 9.06246 5.48039 9.16394 4.97422 9.36173C4.7643 8.93297 4.66697 8.45782 4.69141 7.98104C4.71585 7.50427 4.86124 7.04156 5.11391 6.6365C5.36657 6.23145 5.71818 5.89737 6.13562 5.66574C6.55307 5.43411 7.0226 5.31255 7.5 5.31252ZM12.8125 15.9375H6.5625C5.89946 15.9375 5.26357 15.6741 4.79473 15.2053C4.32589 14.7364 4.0625 14.1006 4.0625 13.4375C4.0625 12.7745 4.32589 12.1386 4.79473 11.6697C5.26357 11.2009 5.89946 10.9375 6.5625 10.9375H6.58438C6.57578 11.0235 6.56875 11.1094 6.56406 11.1953C6.54956 11.444 6.63442 11.6882 6.79998 11.8743C6.96554 12.0603 7.19824 12.173 7.44688 12.1875C7.69552 12.202 7.93973 12.1172 8.12581 11.9516C8.31188 11.786 8.42456 11.5533 8.43906 11.3047C8.45559 11.0144 8.50113 10.7265 8.575 10.4453L8.58672 10.4024C8.80211 9.61485 9.23334 8.90323 9.83174 8.34781C10.4301 7.79239 11.1719 7.41529 11.9732 7.25906C12.7746 7.10284 13.6036 7.17372 14.3668 7.46371C15.13 7.75369 15.797 8.25122 16.2924 8.90016C16.7878 9.54909 17.092 10.3236 17.1706 11.1362C17.2492 11.9489 17.0991 12.7673 16.7372 13.4992C16.3753 14.231 15.816 14.8471 15.1225 15.278C14.429 15.7088 13.6289 15.9373 12.8125 15.9375Z" fill="#8A57DC"/>
</svg>
