<svg width="161" height="36" viewBox="0 0 161 36" fill="none" xmlns="http://www.w3.org/2000/svg">
<g clip-path="url(#clip0_1392_266605)">
<path d="M35.8601 3.57022H35.9784C37.0027 5.71239 37.517 6.94324 37.517 7.25951L37.2803 7.37852L36.9252 7.25951H36.6885C36.6885 7.97357 37.2007 10.3538 38.2271 14.4001C38.8576 16.9382 39.1739 18.8034 39.1739 19.9935C39.1739 22.4517 37.7128 23.9991 34.7949 24.6349C33.9256 24.9512 33.4931 25.4269 33.4931 26.0633C32.9401 27.1731 32.6646 28.3632 32.6646 29.6336C32.6646 30.9817 33.2564 31.6564 34.4399 31.6564H34.7949C36.7663 31.6564 39.4881 29.9498 42.9611 26.5393C46.5891 23.4451 48.799 21.7379 49.5887 21.4219V21.3032C49.352 20.9051 48.4439 20.2711 46.8666 19.3991C46.471 18.605 46.2749 17.9299 46.2749 17.3759C46.2749 16.1858 47.3788 15.5107 49.5887 15.3527H49.707L50.5355 15.4718H50.6538C53.1779 15.4718 56.3734 15.9067 60.2402 16.7809V17.1379C60.2402 18.4059 59.0567 19.319 56.6897 19.8751C54.4798 20.7474 52.98 21.5005 52.1924 22.1363L52.9025 23.6837V25.1115L52.6658 25.2305C51.9557 25.2305 51.2456 24.8324 50.5355 24.0404H50.2988C49.0357 26.4989 48.4052 28.2447 48.4052 29.2768C48.4052 29.6731 48.6013 29.9909 48.9969 30.2292H49.707C50.6538 30.2292 52.1518 29.0391 54.2043 26.6589C55.5449 25.6268 57.8324 24.6355 61.0686 23.6837C61.6199 23.3656 62.2909 22.8096 63.0806 22.0173C63.001 21.4615 62.9214 20.9852 62.8439 20.5892C61.1074 12.8925 60.1218 8.17321 59.8851 6.42704V5.95041C59.963 4.99833 60.1218 4.5223 60.3585 4.5223C61.3829 6.11018 61.8971 7.30027 61.8971 8.09258L61.6604 8.21159L61.3053 8.09258V8.21159L63.6723 18.6844L63.7907 20.3505V20.7079C63.7111 23.3258 62.448 24.9919 60.0035 25.706C56.9264 26.4983 54.5188 27.9264 52.7841 29.9903C51.6006 31.1004 50.6926 31.6564 50.0621 31.6564H49.707C48.9969 31.6564 48.4052 30.8237 47.9318 29.1575C47.9318 27.8074 48.7197 25.9032 50.2988 23.4451V23.0884C49.352 23.1663 46.1565 25.6265 40.7124 30.4666C38.1862 32.5291 36.1355 33.5609 34.5582 33.5609C32.9013 33.5609 32.0729 32.5288 32.0729 30.4666V29.7523C32.0729 28.6404 32.4279 27.212 33.138 25.4682H32.9013C31.7178 25.4682 29.5875 26.8961 26.5104 29.7523C25.8003 30.2286 25.2473 30.466 24.8535 30.466C23.5904 30.2283 22.9599 29.5532 22.9599 28.4432L22.8416 27.7291C22.8416 25.983 23.5517 24.0785 24.9719 22.0167L25.2086 20.9453C24.1822 20.6275 23.4721 20.1515 23.0783 19.5175L22.2498 17.8513L22.1315 17.6133H22.0131C21.6175 17.8513 21.2622 18.4857 20.948 19.5175L19.7645 20.9453C20.3157 20.9453 20.7891 21.7787 21.1847 23.4445V23.9205C21.1847 24.8729 20.6317 25.3489 19.5278 25.3489C17.9487 25.3489 16.8832 24.5548 16.3323 22.9688V22.7304C16.0956 22.7304 15.6997 23.5227 15.1488 25.1106C12.8593 27.4111 10.0189 29.2352 6.6276 30.5851C3.70761 31.6157 1.49802 32.1325 0 32.1325V31.7754C0 31.6157 2.48535 30.5446 7.45606 28.5622C10.374 27.212 12.9389 25.4682 15.1488 23.3255C16.016 21.1836 16.569 20.0715 16.8057 19.9935C18.936 19.9935 20.5929 18.7231 21.7764 16.1852L22.4865 15.8282C23.2744 17.7323 23.8662 18.6844 24.2618 18.6844H24.4985V18.5654L24.1434 16.7803C24.1434 14.4783 25.3269 13.329 27.6939 13.329C28.2448 13.329 30.1793 13.764 33.4931 14.6381C35.15 15.1141 35.9784 15.4304 35.9784 15.5902C35.9784 16.6205 35.1091 17.2953 33.3747 17.6133C30.5343 19.4374 28.0084 20.5886 25.8003 21.0646C25.8003 21.8566 25.3269 22.8497 24.3801 24.0398C23.67 25.3879 23.315 26.42 23.315 27.1341V27.7291C23.315 28.5211 23.6295 28.9192 24.2618 28.9192H24.4985C25.4453 28.9192 26.9042 27.9261 28.8774 25.944C29.5079 24.9919 32.1912 23.7608 36.9252 22.2547C37.872 21.4609 38.3454 20.9846 38.3454 20.8266C38.0291 18.2084 37.2803 14.5581 36.0968 9.87772L35.2683 5.11734C35.2683 4.40329 35.4642 3.88827 35.8601 3.57022ZM12.4268 30.2286H12.6635V30.3473C12.4268 30.6636 10.966 31.3774 8.28451 32.4895H8.16616V32.2512C10.927 30.9013 12.3472 30.2286 12.4268 30.2286ZM14.7938 15.1141C15.1876 15.1141 15.5039 15.2721 15.7406 15.5902V15.9472H15.6222V16.1852C14.8328 15.8675 14.4387 15.6291 14.4387 15.4712V15.3522L14.7938 15.1141ZM15.3855 28.9192C15.7793 28.9192 16.2527 29.1965 16.8057 29.7523C16.8057 30.2286 16.4897 30.7044 15.8589 31.1804L14.5571 30.4663V30.3473C14.5571 29.9495 14.8325 29.4735 15.3855 28.9192ZM16.569 14.6381H16.8057L17.0424 14.8761V14.9951C17.0424 15.1531 16.8445 15.2331 16.4507 15.2331V15.9472L16.0956 16.3042L15.9773 16.1852C16.0551 15.1531 16.2527 14.6381 16.569 14.6381ZM17.1608 22.0167V22.2547C17.6342 23.127 18.5014 23.5638 19.7645 23.5638H19.8828V23.4448C19.8828 22.9688 18.9748 22.493 17.1608 22.0167ZM18.2259 28.4435H18.3443C18.581 28.4435 19.0544 28.6812 19.7645 29.1572V29.3953C19.6056 30.2676 19.3689 30.7044 19.0544 30.7044C18.6588 30.7044 18.1851 30.3866 17.6342 29.7523C17.7913 28.8785 17.9892 28.4435 18.2259 28.4435ZM18.8177 10.5918H18.936C19.4869 10.5918 19.7645 10.8298 19.7645 11.3058C19.4485 11.7021 19.0931 11.9009 18.6993 11.9009H18.2259C18.3034 11.0271 18.5014 10.5918 18.8177 10.5918ZM21.1847 31.2994H21.7764L22.4865 32.0135C22.4865 32.3297 21.8539 32.5282 20.5929 32.6085L21.4214 35.2264H21.1847L20.4746 32.8462V32.4895C20.7113 32.1717 21.0255 32.0135 21.4214 32.0135C21.4214 31.8534 21.303 31.7752 21.0663 31.7752V31.5374L21.1847 31.2994ZM32.9013 4.87932V5.11734C32.6646 5.51513 30.6527 6.50618 26.8655 8.09258C24.8127 9.04465 23.6292 9.71973 23.315 10.1157L23.0783 9.87772C23.1561 9.48172 26.4308 7.81558 32.9013 4.87932ZM24.7352 16.1852C25.129 18.1676 25.484 19.1605 25.8003 19.1605C27.6143 19.1605 29.863 18.2477 32.5463 16.4235C30.7302 15.7095 28.8366 15.2334 26.8655 14.9954C25.5231 15.2331 24.8127 15.6291 24.7352 16.1852ZM27.2205 31.6561H27.4572C27.9306 31.7347 28.1673 31.8534 28.1673 32.0135V32.1325L27.4572 33.0846V33.2036H27.6939L29.3508 33.0846V33.2036C29.3508 33.5198 28.7978 33.7183 27.6939 33.7986H27.3389L27.2205 33.5606V32.8465L27.6939 32.2515V32.1325H27.4572H27.1022L26.8655 32.0138L27.2205 31.6561ZM29.2325 20.9453H29.3508C30.1384 21.4996 30.5343 22.0946 30.5343 22.7304L30.416 22.9688H30.2976C29.9813 22.3326 29.5875 21.7787 29.1141 21.3026L29.2325 20.9453ZM32.9013 8.92564L33.3747 10.3538C33.3747 10.7498 33.0587 10.9488 32.4279 10.9488L31.8362 11.3058C31.4406 11.3058 31.2444 10.8298 31.2444 9.87772V9.75871H31.4811L31.8362 10.5918H32.3096L31.9545 9.28267L32.0729 9.16366C32.3874 9.16366 32.5463 9.44274 32.5463 9.99673L32.9013 10.3538L32.5463 9.04465L32.6646 8.92564H32.9013ZM37.872 -6.10352e-05C37.9498 -6.10352e-05 38.2271 0.437001 38.7005 1.30904H38.9372L40.1207 0.237958L40.5941 -6.10352e-05C41.145 0.317992 41.4225 0.636044 41.4225 0.952014C40.9491 1.50809 40.3168 1.78508 39.5289 1.78508C39.5289 2.0231 39.2514 2.14211 38.7005 2.14211L38.3454 1.78508C37.9498 2.0231 37.5557 2.14211 37.1619 2.14211H36.9252L36.6885 1.90409V1.78508C37.4764 1.62709 37.872 1.46881 37.872 1.30904L37.7537 0.237958L37.872 -6.10352e-05ZM38.3454 24.3969C39.2922 24.7929 39.7656 25.0312 39.7656 25.1106V25.7057C39.6064 26.34 39.4106 26.658 39.1739 26.658H38.8188C38.1087 26.26 37.7537 25.944 37.7537 25.7057L38.3454 24.3969ZM39.7656 1.30904H39.884C40.3574 1.23109 40.5941 1.11208 40.5941 0.952014V0.833005H40.239L39.7656 1.30904ZM41.1858 3.3322H41.3042C42.1714 5.1581 42.606 6.22919 42.606 6.54546L42.3693 6.78347L42.0143 6.54546V6.78347C42.8815 10.5135 43.4732 13.6453 43.7895 16.1852C44.0262 16.1852 44.2221 17.6916 44.3813 20.7079C44.3813 21.5799 44.2221 22.2547 43.9079 22.7307L43.4345 22.493V21.6597L43.5528 21.4216H43.4345V20.5886C43.1185 18.0486 42.4081 13.883 41.3042 8.09258C41.145 7.06255 40.9491 6.54546 40.7124 6.54546H40.8308V6.30744L40.4757 4.64131C40.6328 3.76926 40.8695 3.3322 41.1858 3.3322ZM46.5116 29.7523V29.871C43.4345 31.8534 41.6184 32.8462 41.0675 32.8462H40.8308V32.6085C41.6187 31.9724 43.5123 31.0206 46.5116 29.7523ZM44.8547 8.92564C45.3281 9.2437 45.5648 10.0378 45.5648 11.3058H45.3281L44.618 9.04465L44.7363 8.92564H44.8547ZM54.3227 2.97517C54.5594 2.97517 54.6777 3.05521 54.6777 3.21319L54.441 3.57022H54.3227L54.2043 3.45121C52.5474 4.40329 50.613 4.87932 48.4052 4.87932H46.8666C46.8666 5.11734 46.787 5.23635 46.6299 5.23635C46.1565 4.60233 45.9198 4.12629 45.9198 3.80824C46.8666 4.20603 47.6155 4.40329 48.1685 4.40329C50.1396 4.40329 52.1924 3.92725 54.3227 2.97517ZM47.4584 17.6133C47.5362 17.8513 48.4052 18.5651 50.0621 19.7552C50.5355 20.1515 50.7722 20.4693 50.7722 20.7076L56.5713 18.2084C56.5713 17.8103 54.0452 17.5333 48.9969 17.3753H48.6419L47.4584 17.6133ZM57.5181 6.30744L57.6365 6.42645V6.54546C56.6101 7.25951 54.2431 8.17261 50.5355 9.28267L48.1685 10.3538V10.9488H48.0501C47.8909 10.9488 47.8134 10.8298 47.8134 10.5918C47.8134 9.71973 49.352 8.92564 52.4291 8.21159C55.4266 6.94324 57.1226 6.30744 57.5181 6.30744ZM50.7722 11.7819C51.166 11.7819 51.4415 11.9791 51.6006 12.3769V12.6149L51.2456 13.091H50.5355C50.3766 13.091 50.2988 12.9309 50.2988 12.6149C50.4559 12.1389 50.6133 11.8601 50.7722 11.7819ZM57.5181 11.3058C57.5181 11.7021 57.0042 12.0589 55.9796 12.3769C55.5062 12.1389 55.2695 11.6629 55.2695 10.9488V10.7108L55.3878 10.5918L55.8612 11.5439H56.2163L55.9796 10.5918V10.3538H56.2163C56.453 10.4338 56.5713 10.7498 56.5713 11.3058H56.9264L56.5713 10.3538L56.6897 10.1157C57.0042 10.1958 57.2814 10.5918 57.5181 11.3058ZM56.2163 29.9903C57.0042 30.3066 57.3998 30.5446 57.3998 30.7044C57.3998 31.1804 56.8468 31.4184 55.7429 31.4184C56.2941 33.0042 56.5713 34.0363 56.5713 34.5124H56.2163L55.3878 31.7752V31.4184C55.5449 30.9421 55.7024 30.7044 55.8612 30.7044L55.7429 30.5854V30.4663L56.2163 29.9903ZM60.3585 28.4435C60.8319 28.6015 61.0686 28.7597 61.0686 28.9195V29.1572C60.5156 29.5532 60.2402 29.9103 60.2402 30.2286H61.0686L62.8439 29.7523C62.2116 30.5446 61.3829 30.9424 60.3585 30.9424C60.0422 30.9424 59.8055 30.7823 59.6484 30.466L60.1218 29.1572H60.0035H59.5301C59.6872 28.6809 59.963 28.4435 60.3585 28.4435ZM62.7255 0.833005L63.4356 2.14211H63.7907L65.0925 1.19003H65.6843C66.1577 1.19003 66.3944 1.30904 66.3944 1.54706V1.78508C66.3944 2.57917 65.6843 2.97517 64.2641 2.97517L63.6723 3.09418L63.4356 3.21319C63.4356 2.89693 63.3561 2.73716 63.1989 2.73716C62.8827 3.05521 62.5276 3.21319 62.1338 3.21319H61.8971V2.97517L62.9622 2.49914C62.6462 1.78508 62.4888 1.27007 62.4888 0.952014L62.6072 0.833005H62.7255ZM73.022 27.9671V28.0859C73.022 28.5622 71.1672 29.3545 67.4595 30.466C66.5903 30.9424 66.1577 31.2584 66.1577 31.4184L65.4476 31.2994L64.1457 31.7754V31.5374C64.1457 31.1396 66.1577 30.2673 70.1816 28.9192C71.6796 28.2834 72.6261 27.9671 73.022 27.9671ZM64.7375 2.14211H64.9742H65.5659V1.78508H65.3292L64.7375 2.14211ZM65.8026 4.40329C66.5906 6.14945 66.9861 7.30027 66.9861 7.85456H66.5127C67.6962 14.2811 68.288 18.2863 68.288 19.8745C68.1291 21.2226 67.8924 21.898 67.5779 21.898L67.4595 21.6597L67.5779 19.9935L65.8026 10.3538L65.921 9.87772L65.0925 5.95041C65.3292 4.92038 65.5659 4.40329 65.8026 4.40329ZM79.0579 15.8282C80.0047 17.0183 80.4781 17.8103 80.4781 18.2084V18.3274C80.2413 18.3274 80.123 18.4053 80.123 18.5651C80.9905 20.7076 81.4249 22.0946 81.4249 22.7304V23.0878C81.2657 24.9916 80.6352 25.944 79.5312 25.944H79.1762C78.0702 25.944 77.2418 25.3079 76.6909 24.0398V23.9208H76.4541C76.4541 25.1895 75.5849 26.1412 73.8504 26.7774H72.9036C71.8773 26.7774 71.1672 25.8253 70.7733 23.9208L71.01 21.6597C70.4571 22.2937 69.9837 23.8801 69.5898 26.42C69.1164 27.1341 68.6818 27.5301 68.288 27.6101C67.2616 27.6101 66.5127 26.1023 66.0393 23.0881C66.1169 21.9756 66.276 21.4216 66.5127 21.4216C66.6699 21.4216 66.7494 22.4127 66.7494 24.3969C67.2228 25.4269 67.735 25.944 68.288 25.944C68.7614 25.944 69.3531 24.4361 70.0632 21.4216C70.6145 19.9935 71.1672 19.1994 71.7201 19.0414C71.9568 19.3577 72.0752 19.6758 72.0752 19.9935L71.7201 22.9688C71.798 24.3168 72.3897 24.9919 73.4954 24.9919H73.7321C74.9156 24.9919 75.7032 24.3558 76.0991 23.0881L75.389 18.2087V17.8513C75.389 17.0576 75.5073 16.6613 75.744 16.6613C76.4541 17.6913 76.9663 19.4374 77.2826 21.898C77.6764 23.4043 78.3865 24.1591 79.4129 24.1591H79.5312L80.8331 23.6831C79.4129 20.1128 78.7028 17.9704 78.7028 17.2563V16.4232C78.7806 16.0254 78.899 15.8282 79.0579 15.8282ZM155.749 11.7819C156.3 12.1779 156.577 13.1299 156.577 14.6381C157.681 17.0183 158.234 18.6437 158.234 19.5175V20.1125C158.234 21.8563 157.563 22.8494 156.222 23.0878C155.59 23.0878 154.841 22.6507 153.973 21.7787H153.855C153.855 22.5707 153.223 23.1267 151.961 23.4448H151.725C151.092 23.4448 150.619 23.0881 150.305 22.3737C149.515 23.246 148.252 23.6828 146.517 23.6828C145.728 23.6828 145.216 23.0878 144.979 21.8977H144.86C141.547 22.928 135.076 24.1588 125.451 25.587C119.138 26.3793 113.655 26.7771 109 26.7771C102.687 26.7771 97.3225 26.1409 92.9048 24.8732H92.6681C92.6681 25.9032 92.2335 26.42 91.3663 26.42C90.4195 26.182 89.3931 25.7449 88.2895 25.1109C87.3427 27.2534 85.0144 29.2763 81.3065 31.1804C78.6235 32.7668 74.7567 33.8769 69.7082 34.5127H68.7614V34.2746L79.4129 30.3473C83.0409 28.5211 85.5266 26.8958 86.869 25.4682C88.367 22.69 89.473 21.3029 90.1828 21.3029H90.4195L93.2602 22.969C97.0474 24.3171 102.373 24.9922 109.237 24.9922H111.368C120.046 24.9922 130.736 23.5641 143.44 20.7082C144.465 20.3101 145.293 20.1131 145.926 20.1131V20.3508L145.807 20.7082V20.8266C145.807 21.4609 146.162 21.8176 146.873 21.898H147.583C148.686 21.898 149.791 21.3029 150.896 20.1128C151.053 20.1128 151.172 20.4696 151.251 21.1839C151.566 21.3419 151.921 21.4219 152.317 21.4219H152.435C152.986 21.4219 153.618 20.7858 154.328 19.5181H154.447C154.524 19.5181 154.604 19.7951 154.683 20.3508C155.077 20.7471 155.669 21.0649 156.459 21.3032C157.169 21.1431 157.524 20.9459 157.524 20.7082L155.157 13.3296C155.394 12.2972 155.59 11.7819 155.749 11.7819ZM72.4302 12.2579H72.6669C73.2179 12.2579 73.6137 12.6539 73.8504 13.448V13.924C73.8504 14.002 73.5342 14.121 72.9036 14.2811C72.3507 15.3111 71.6018 15.8282 70.655 15.8282V15.4712C71.4429 15.1531 72.1143 14.6774 72.6669 14.043V13.924C72.2714 13.924 72.0752 13.844 72.0752 13.686C72.0752 12.7339 72.1936 12.2579 72.4302 12.2579ZM80.123 5.71239L80.2414 5.8314V5.95041C80.2414 6.18843 78.3477 7.1405 74.5605 8.80663C73.6913 9.04465 72.8631 9.56175 72.0752 10.3538L72.1936 10.5918L72.0752 10.7108L71.7201 10.3538V9.87772C71.9568 9.32343 74.7567 7.93459 80.123 5.71239ZM73.022 3.3322H73.6137L74.0871 3.92725V4.16527C73.8504 4.64131 73.4549 4.87932 72.9036 4.87932L72.6669 4.28428C72.7445 3.65025 72.8631 3.3322 73.022 3.3322ZM77.9927 11.1868C78.3865 11.5828 78.5844 12.0589 78.5844 12.6149C78.5844 12.9312 78.0702 13.1692 77.0459 13.329C76.5725 13.1689 76.3358 12.853 76.3358 12.3769V11.9009L76.4541 11.7819C76.6908 12.3359 76.8867 12.6149 77.0459 12.6149H77.2826L77.0459 11.3058H77.2826L77.6376 12.3769H77.9927L77.6376 11.3058L77.756 11.1868H77.9927ZM84.857 3.21319H85.0937C85.6449 3.21319 85.9225 3.41194 85.9225 3.80824C85.9225 4.76031 85.2899 5.23635 84.0289 5.23635L82.3719 4.87932V5.47437H82.135L81.8982 5.23635C81.8982 4.5223 82.174 4.12629 82.7267 4.04626L83.4368 4.40329C83.6735 4.00728 84.1469 3.61128 84.857 3.21319ZM82.7267 6.78347C83.6735 8.44961 84.1472 9.52069 84.1472 9.99673V10.3538L84.0289 10.5918L83.7921 10.3538H83.6738V10.5918C84.6206 16.4622 85.094 20.2708 85.094 22.0167V22.7304C85.094 23.6828 84.8165 24.2779 84.2655 24.5156H84.1469V24.2779L84.265 22.1354L83.6732 18.2084L82.253 9.28267L82.1347 8.56862V8.09258C82.2921 7.22054 82.49 6.78347 82.7267 6.78347ZM84.1469 4.40329V4.5223L85.0934 4.28428V3.92725H84.9754C84.4224 4.00728 84.1469 4.16527 84.1469 4.40329ZM95.8636 27.0151C95.3902 27.3313 92.4314 28.5622 86.9873 30.7044L86.869 30.5854V30.4663C87.0261 29.9903 89.9461 28.7595 95.6269 26.7771L95.8636 27.0151ZM87.4607 17.6133C88.0119 17.6133 88.2895 17.9296 88.2895 18.5651V18.6841L88.0525 19.0414C88.0525 18.8034 87.7749 18.6437 87.224 18.5651L86.9873 18.3274V18.2084C87.0651 17.8103 87.224 17.6133 87.4607 17.6133ZM88.2892 12.6149L88.6442 13.091V13.329C88.6442 13.4069 88.4466 13.448 88.0525 13.448L88.2892 13.686H89.3543V13.924C89.3543 14.4001 88.6442 14.7961 87.224 15.1141V14.9951L87.6977 14.4001L87.224 13.924V13.686C87.3811 12.972 87.7362 12.6149 88.2892 12.6149ZM89.1176 17.1373L89.591 17.3753V17.6133C89.591 17.8513 89.4321 17.9701 89.1176 17.9701V18.5651L88.8809 19.1602H88.7626V17.6133L89.1176 17.1373ZM89.1176 23.5638C89.8274 24.1178 90.5378 24.3969 91.2479 24.3969C90.9316 23.6831 90.497 23.3255 89.9461 23.3255C89.3931 23.404 89.1176 23.4838 89.1176 23.5638ZM91.8397 29.9903H92.0764C92.7069 29.9903 93.0232 30.3066 93.0232 30.9424C93.0232 31.1804 92.5495 31.3384 91.6027 31.4187V31.7754L92.1944 33.9176H92.0764C91.9968 33.9176 91.6417 33.1235 91.0109 31.5374C91.0109 31.2194 91.2071 30.9424 91.6027 30.7044V30.5854V30.4663L91.8397 29.9903ZM150.66 26.539H150.896V26.658C150.896 27.2921 150.5 27.6098 149.713 27.6098L149.358 27.7288H148.648H148.529C146.872 29.0769 145.807 29.752 145.334 29.752V29.6333L147.346 28.0859L148.648 27.0148L149.831 27.1338V27.0148L150.068 26.658L150.305 27.0151L150.66 26.539ZM149.476 10.9488C149.87 11.1068 150.068 11.3838 150.068 11.7819V11.9009C150.068 12.2171 149.752 12.4552 149.121 12.6149H149.003C148.766 12.6149 148.648 12.3769 148.648 11.9009C148.962 11.3448 149.239 11.0271 149.476 10.9488ZM149.121 11.5439L149.003 11.7819L149.239 11.9009H149.357L149.594 11.7819L149.121 11.5439ZM149.476 15.5902C150.027 15.8282 150.305 16.2242 150.305 16.7803H150.068H149.95C149.95 16.7002 149.713 16.5815 149.24 16.4232V15.8282L149.476 15.5902ZM151.251 15.4712L151.369 15.8282V16.1852C151.053 16.1852 150.896 16.3825 150.896 16.7803H150.541C150.698 15.9061 150.935 15.4712 151.251 15.4712ZM160.246 29.1572C159.93 29.6336 156.695 30.8624 150.541 32.8462V32.6085C151.015 32.2107 154.249 31.0611 160.246 29.1572ZM155.394 26.42H155.512C156.063 26.42 156.616 26.7771 157.169 27.4911C157.169 28.0454 156.932 28.4825 156.459 28.8002H156.34C155.945 28.8002 155.471 28.4825 154.92 27.8484V27.7294L155.394 26.42Z" fill="#6D591D"/>
</g>
<defs>
<clipPath id="clip0_1392_266605">
<rect width="160.246" height="35.2265" fill="white"/>
</clipPath>
</defs>
</svg>
