<svg width="14" height="19" viewBox="0 0 14 19" fill="none" xmlns="http://www.w3.org/2000/svg">
<path d="M11.8125 0.40625H2.1875C1.73166 0.40625 1.29449 0.587332 0.97216 0.90966C0.649832 1.23199 0.46875 1.66916 0.46875 2.125V17.25C0.468688 17.4341 0.517918 17.6149 0.611326 17.7735C0.704734 17.9322 0.838914 18.063 0.999932 18.1522C1.16095 18.2415 1.34293 18.2861 1.52698 18.2812C1.71103 18.2764 1.89044 18.2224 2.04656 18.1248L6.99914 15.0311L11.9534 18.1248C12.1096 18.2224 12.289 18.2764 12.473 18.2812C12.6571 18.2861 12.8391 18.2415 13.0001 18.1522C13.1611 18.063 13.2953 17.9322 13.3887 17.7735C13.4821 17.6149 13.5313 17.4341 13.5312 17.25V2.125C13.5312 1.66916 13.3502 1.23199 13.0278 0.90966C12.7055 0.587332 12.2683 0.40625 11.8125 0.40625ZM11.4688 15.3895L7.5457 12.9377C7.38181 12.8352 7.19242 12.7809 6.99914 12.7809C6.80586 12.7809 6.61648 12.8352 6.45258 12.9377L2.53125 15.3895V2.46875H11.4688V15.3895Z" fill="#737373"/>
</svg>
