<svg width="76" height="66" viewBox="0 0 76 66" fill="none" xmlns="http://www.w3.org/2000/svg">
<path d="M75.7073 -43.0701C73.4165 -40.7131 71.0728 -38.3959 68.782 -36.0389C67.6697 -34.8868 66.5971 -33.6819 65.551 -32.4769C65.2862 -32.1723 65.1008 -32.1988 64.8095 -32.3577C64.0282 -32.7947 63.2337 -33.1919 62.4525 -33.6421C60.9562 -34.5028 59.354 -35.1649 58.0695 -36.3831C57.765 -36.6745 57.5531 -36.4758 57.4339 -36.1316C56.5203 -33.6289 54.8386 -31.55 53.5409 -29.2592C53.4747 -29.14 53.1966 -29.0605 53.0509 -29.1003C50.588 -29.8418 48.1383 -30.6231 45.6754 -31.3513C43.3316 -32.0399 40.9614 -32.649 38.6044 -33.2979C38.2601 -33.3905 38.0615 -33.3243 37.9688 -32.9403C37.7172 -31.934 37.4391 -30.9409 37.1743 -29.9345C36.6976 -28.1336 36.1944 -26.3328 35.7574 -24.5054C35.2675 -22.4662 34.8438 -20.427 34.4068 -18.3746C34.3274 -18.0171 34.142 -17.9111 33.7977 -17.9111C32.884 -17.9244 31.9571 -17.8979 31.0434 -17.9111C29.3882 -17.9376 27.7463 -17.9509 26.0911 -18.0435C25.5614 -18.07 25.4687 -17.9376 25.5349 -17.4609C25.6409 -16.6399 25.7468 -15.8057 25.7468 -14.9847C25.76 -13.4487 25.6806 -11.9127 25.6541 -10.3767C25.6409 -9.34382 25.6409 -9.35706 24.6345 -9.11871C22.1186 -8.52284 19.6027 -7.91373 17.1 -7.29138C14.9682 -6.76171 12.8495 -6.17908 10.7308 -5.63618C10.3866 -5.54349 10.1482 -5.41107 10.2674 -5.00058C10.4263 -4.47092 10.5984 -3.92801 10.7441 -3.38511C11.3267 -1.29294 11.8961 0.812473 12.492 2.90464C13.1143 5.04978 13.7632 7.19492 14.4385 9.34006C14.5577 9.69758 14.5312 9.86972 14.2134 10.0419C11.9226 11.2998 9.87014 12.9815 7.36748 13.8554C7.00995 13.9879 6.94374 14.2262 7.20858 14.5308C7.31451 14.6632 7.43369 14.7691 7.52638 14.9148C8.77109 17.0467 10.0158 19.1786 11.234 21.3237C11.3002 21.4561 11.1943 21.7872 11.0619 21.9063C10.0158 22.8862 8.9035 23.8131 7.88389 24.8062C5.42096 27.203 2.98451 29.6262 0.548059 32.0361C-0.0610538 32.632 -0.0610522 32.632 0.574544 33.2544C2.79913 35.4392 5.01047 37.6506 7.2483 39.8222C8.45328 41.0007 9.698 42.1395 10.9824 43.2385C11.3532 43.5563 11.4194 43.7814 11.1678 44.1522C11.0751 44.2846 11.0222 44.4435 10.9295 44.5892C9.68475 46.6416 8.82405 48.9456 7.19534 50.773C6.93051 51.0775 7.06292 51.3027 7.42044 51.4351C9.93634 52.3355 12.0153 54.0172 14.3061 55.3148C14.4252 55.3811 14.5312 55.6591 14.4915 55.7915C13.7367 58.3604 12.9157 60.9028 12.1742 63.4717C11.5651 65.5638 11.0354 67.6693 10.466 69.7747C10.2012 70.7413 10.2012 70.7281 11.1281 70.9664C13.6705 71.6285 16.2129 72.3435 18.7552 72.9791C20.9004 73.5088 23.072 73.9458 25.2304 74.4622C25.4025 74.5019 25.6276 74.7667 25.6409 74.9256C25.6938 76.0644 25.7468 77.2032 25.7203 78.3552C25.6938 79.8515 25.5879 81.3346 25.5217 82.8176C25.4952 83.2149 25.6011 83.4267 26.0646 83.3076C26.3427 83.2281 26.634 83.1619 26.9253 83.1619C29.2558 83.1487 31.5863 83.1619 33.9169 83.1487C34.2876 83.1487 34.3671 83.3605 34.42 83.6386C34.7643 85.2806 35.0556 86.9358 35.4661 88.5645C36.2606 91.7425 37.1478 94.9072 37.9555 98.0719C38.0747 98.5619 38.2998 98.6149 38.7103 98.4957C40.3788 98.019 42.0604 97.5555 43.7289 97.0788C46.8142 96.1784 49.8995 95.2647 52.9847 94.3908C53.1569 94.3378 53.4879 94.4305 53.5674 94.5629C54.8651 96.8272 56.5203 98.8929 57.4339 101.382C57.6193 101.872 57.8312 101.859 58.2019 101.541C58.6654 101.131 59.1553 100.734 59.6982 100.429C61.2343 99.555 62.7835 98.7075 64.346 97.8733C65.22 97.4099 65.2332 97.4231 65.8821 98.2176C65.9483 98.297 66.0277 98.3633 66.0939 98.4427C67.8418 100.257 69.5897 102.071 71.3508 103.872C72.8207 105.381 74.3037 106.864 75.7603 108.387C75.9457 108.573 76.0913 108.678 76.2502 108.678L76.2502 107.791C76.0119 107.791 75.7868 107.553 75.2968 107.076C73.3635 105.143 71.417 103.236 69.5103 101.276C68.2258 99.9523 67.0208 98.5486 65.6967 97.0921C66.5706 96.6154 67.3519 96.1784 68.1464 95.7812C68.2788 95.715 68.5701 95.7547 68.6628 95.8606C70.2253 97.529 71.7746 99.1975 73.3371 100.879C74.1448 101.753 74.9658 102.614 75.7603 103.501C75.9324 103.7 76.0913 103.806 76.2502 103.792L76.2502 103.104C73.8403 100.535 71.4568 97.9792 69.0071 95.3574C69.934 94.7748 70.8609 94.2054 71.7878 93.636C72.8074 94.8807 73.827 96.1122 74.8334 97.3304C75.1512 97.7144 75.469 98.0984 75.8132 98.4559C75.9589 98.6016 76.1046 98.6811 76.237 98.6678L76.237 98.0455C75.8265 97.5952 75.416 97.198 75.0585 96.761C74.264 95.8076 73.4827 94.8278 72.7015 93.8611C72.3969 93.4904 72.1983 93.2123 72.7677 92.8283C73.3371 92.4575 73.8005 91.9146 74.317 91.4379C74.8069 92.0603 75.2968 92.6561 75.7735 93.2653C75.9324 93.4771 76.0913 93.5698 76.237 93.5698L76.237 93.0534C75.7073 92.3251 75.2703 91.7027 74.8334 91.0804C74.7804 91.0009 74.7539 90.8288 74.8069 90.7493C75.2968 89.69 75.8 88.6307 76.237 87.7038C76.237 87.7038 76.237 87.7038 76.237 87.717L76.237 82.2482C75.6014 82.235 74.979 82.1158 74.3302 81.9172C72.4896 81.3478 70.8344 80.4871 69.4043 79.2027C68.3185 78.2228 67.6299 76.9648 67.0208 75.6539C66.372 74.2636 66.4117 72.7937 66.4912 71.2842C67.2062 71.2842 67.908 71.2842 68.6496 71.2842C68.8217 71.986 68.9409 72.7143 69.166 73.4161C70.2518 76.6868 72.4366 78.8054 75.8 79.5867C75.9457 79.6132 76.0781 79.6396 76.2237 79.6529L76.2237 79.0173C75.2439 79.0305 74.3699 78.6333 73.5357 78.1169C71.3906 76.7795 69.9207 74.8992 69.4573 72.3435C69.3911 71.986 69.3514 71.6152 69.2852 71.1783C70.1194 70.9929 70.8741 70.8208 71.6951 70.6354C71.7878 70.9929 71.8937 71.3372 71.9864 71.6947C72.4102 73.2837 73.2179 74.6078 74.6877 75.4156C75.2174 75.7069 75.7338 75.8658 76.2237 75.8923L76.2237 75.3361C75.416 75.3494 74.6877 74.8859 73.88 74.0649C72.9663 73.138 72.5691 71.9198 72.3175 70.6619C72.291 70.5294 72.4102 70.3176 72.5293 70.2381C73.0193 69.8938 73.5225 69.576 73.9462 69.298C74.2905 70.0527 74.5553 70.834 74.9923 71.5226C75.3233 72.0522 75.7735 72.317 76.2105 72.317L76.2105 71.4961C76.0119 71.4828 75.8132 71.3769 75.6279 71.1915C74.8731 70.45 74.6348 69.4966 74.648 68.5167C74.648 68.0797 75.0982 67.656 75.3233 67.2058C75.6544 66.5437 75.9589 65.8684 76.1973 65.3785C76.2105 65.3917 76.2105 65.4049 76.2237 65.4182L76.2237 61.3265C74.4758 61.3265 73.0325 60.4393 71.9335 59.1417C70.755 57.7513 70.4107 56.0961 70.8344 54.282C70.9271 53.898 71.0463 53.7523 71.4435 53.7788C71.8143 53.8053 72.1851 53.7788 72.5823 53.7788C72.5823 54.4674 72.5691 55.0633 72.5823 55.6591C72.6353 57.7778 73.9197 59.2079 75.469 59.6713C75.7206 59.7508 75.9854 59.7773 76.237 59.7905L76.237 59.1814C75.2041 59.1814 74.211 58.5326 73.6549 57.513C73.006 56.308 73.059 54.9971 73.2444 53.6861C73.2576 53.5934 73.3768 53.4875 73.4695 53.4213C73.9462 53.1035 74.4361 52.7989 74.979 52.4547C74.8731 53.1035 74.701 53.7259 74.6877 54.3482C74.6745 54.9971 74.7274 55.6724 74.8863 56.2947C75.032 56.8509 75.6808 57.2481 76.2237 57.2349L76.2237 56.6125C75.9457 56.6125 75.5617 56.2947 75.416 56.0167C75.2439 55.6856 75.2041 55.2486 75.2174 54.8779C75.2703 53.5802 75.5617 52.3355 76.1311 51.1702C76.1443 51.1438 76.1708 51.1305 76.237 51.1173L76.237 48.4425C76.184 48.4425 76.1178 48.4425 76.0516 48.4425C74.8069 48.4027 73.6549 47.211 73.6019 45.9663C73.5887 45.7412 73.5225 45.5161 73.5225 45.291C73.5092 44.8275 73.5357 44.417 74.1316 44.2581C75.0982 44.0065 75.8 43.3974 76.2237 42.3778L76.2237 42.3911L76.2237 40.0208C76.2237 40.0208 76.2237 40.0208 76.2105 40.0208C76.0119 40.0208 75.747 39.756 75.6544 39.5441C74.979 38.0346 75.4954 36.6707 76.2237 35.1744L76.2237 30.1161C76.2237 30.1294 76.2105 30.1426 76.2105 30.1558C75.5749 28.6728 74.979 27.3619 75.6279 25.892C75.7338 25.6404 76.0119 25.4551 76.2105 25.2432C76.2237 25.2564 76.2237 25.2564 76.237 25.2697L76.237 22.8994C76.237 22.8994 76.237 22.9127 76.2237 22.9127C75.7868 21.8798 75.032 21.2972 74.0389 20.9927C73.8402 20.9264 73.6019 20.6616 73.5887 20.463C73.496 19.4831 73.7211 18.1325 74.6083 17.4439C75.0982 17.0599 75.6676 16.8878 76.237 16.8878L76.237 14.213C76.1575 14.2262 76.0913 14.2262 76.0119 14.2394C75.747 13.0609 75.4293 11.8824 75.2439 10.6907C75.1644 10.2272 75.2571 9.6711 75.4425 9.23413C75.5484 8.9693 75.9457 8.70446 76.237 8.67798L76.237 8.0159C76.2105 8.0159 76.1973 8.0159 76.1708 8.0159C75.6014 8.04238 74.9393 8.50584 74.8466 9.15467C74.7274 9.94917 74.7672 10.7834 74.7804 11.5911C74.7937 11.9884 74.9128 12.3989 74.979 12.8094C74.4626 12.4783 73.9197 12.2267 73.5092 11.8427C73.2709 11.6176 73.2047 11.1674 73.1649 10.8099C73.006 9.23413 73.2311 7.79079 74.5421 6.70498C75.085 6.25477 75.6544 6.06939 76.2237 6.08263L76.2237 5.48676C75.4954 5.46027 74.8466 5.76483 74.2507 6.21504C73.0987 7.08899 72.5691 8.29397 72.5691 9.7373C72.5691 10.2935 72.5691 10.8496 72.5691 11.4984C72.1321 11.4984 71.6554 11.5249 71.1787 11.4852C71.0595 11.472 70.9006 11.2733 70.8609 11.1277C70.1194 8.37342 71.5362 5.67214 73.774 4.7055C74.4891 4.40094 75.2306 3.95073 75.9722 3.92425C76.0516 3.92425 76.1443 3.92425 76.2237 3.92425L76.2237 -0.180641C76.2237 -0.1674 76.2105 -0.154163 76.2105 -0.154163C75.8795 -0.803001 75.5087 -1.67694 75.0188 -2.48468C74.6877 -3.01434 74.5156 -3.53077 74.7539 -4.10015C75.0055 -4.72251 75.2968 -5.34486 75.6676 -5.90101C75.8265 -6.12612 76.0251 -6.23205 76.2237 -6.20557L76.2237 -7.03979C75.7735 -7.03979 75.3233 -6.73523 74.9393 -6.12611C74.5288 -5.47728 74.2772 -4.72251 73.9594 -4.00746C73.4695 -4.3385 72.8869 -4.72251 72.2645 -5.133C72.6618 -7.14572 73.3503 -8.95982 75.4425 -9.87349C75.7073 -9.99266 75.9589 -10.0456 76.2105 -10.0456L76.2105 -10.6283C75.3101 -10.6547 74.5553 -10.1516 73.8667 -9.56892C72.8604 -8.72147 72.2115 -7.60918 71.96 -6.29826C71.8937 -5.98046 71.7746 -5.66266 71.6819 -5.34486C70.8609 -5.54349 70.0929 -5.71563 69.2984 -5.90101C69.5103 -9.13196 71.1655 -11.4095 73.774 -13.0117C74.595 -13.5149 75.416 -13.74 76.2105 -13.7268L76.2105 -14.3227C75.2174 -14.3359 74.3037 -13.9519 73.4827 -13.4884C71.5627 -12.3894 70.0929 -10.8004 69.3116 -8.69498C69.06 -8.00642 68.9409 -7.25165 68.7952 -6.52336C68.729 -6.1526 68.6231 -5.92749 68.1729 -5.95398C67.6167 -5.9937 67.0606 -5.96722 66.5177 -5.96722C66.0939 -8.77444 66.9944 -11.1182 68.7158 -13.1839C70.4372 -15.2628 72.7942 -16.2824 75.3233 -16.9048C75.6014 -16.971 75.9059 -16.9975 76.2105 -16.9842L76.2105 -22.4398C76.2105 -22.4398 76.2105 -22.4398 76.2105 -22.4265C75.7868 -23.3402 75.2968 -24.373 74.8201 -25.4059C74.7672 -25.525 74.7672 -25.7501 74.8334 -25.8561C75.2439 -26.4784 75.6808 -27.0743 76.1973 -27.7894C76.1973 -27.7894 76.1973 -27.7761 76.2105 -27.7761L76.2105 -28.3323C75.9854 -28.3323 75.7735 -28.0409 75.2571 -27.4583C74.8996 -27.0611 74.6215 -26.5844 74.3302 -26.1739C73.6416 -26.7962 72.9795 -27.3789 72.238 -28.0542C73.5622 -29.6564 74.8466 -31.2189 76.2237 -32.8874L76.2237 -33.47C76.0781 -33.47 75.9324 -33.3773 75.7868 -33.2052C74.4494 -31.6162 73.112 -30.0272 71.7481 -28.3985C70.8609 -28.9414 69.9472 -29.5108 68.9806 -30.1066C71.417 -32.7152 73.8005 -35.2576 76.2105 -37.853L76.2105 -38.568C76.0251 -38.568 75.8397 -38.3959 75.5087 -38.0251C73.9462 -36.3169 72.3704 -34.6353 70.7947 -32.9403C70.1194 -32.212 69.4308 -31.497 68.7687 -30.7422C68.5304 -30.4642 68.3318 -30.345 67.9875 -30.5568C67.2592 -30.9938 66.5044 -31.3911 65.5907 -31.9075C69.166 -35.5886 72.6485 -39.1771 76.2105 -42.8583L76.2105 -43.4012C76.0913 -43.4012 75.9192 -43.282 75.7073 -43.0701ZM38.5249 -32.7285C43.3978 -31.3381 48.231 -29.9742 53.1569 -28.5706C52.667 -27.7099 52.2829 -27.0213 51.8989 -26.346C51.6738 -25.962 51.409 -25.8296 50.9323 -25.9885C47.7411 -26.9949 44.5499 -27.9483 41.3586 -28.9281C40.5641 -29.1665 40.5244 -29.1268 40.3523 -28.319C39.8623 -26.1342 39.3592 -23.9625 38.856 -21.7777C38.6044 -20.6919 38.3396 -19.5928 38.1012 -18.507C38.035 -18.176 37.9291 -17.9773 37.5583 -17.9906C36.7241 -18.0038 35.9031 -17.9906 34.9232 -17.9906C35.8369 -22.9827 37.2935 -27.7629 38.5249 -32.7285ZM48.4694 -19.2353C47.9529 -19.4604 47.4233 -19.6987 46.9069 -19.9371C45.7946 -20.4535 45.6621 -20.4005 45.4238 -19.222C45.3046 -18.6129 45.2649 -17.9906 45.1987 -17.3682C44.4174 -17.5271 43.6494 -17.6595 42.9079 -17.8582C42.749 -17.8979 42.5239 -18.176 42.5504 -18.3084C42.8417 -20.1622 43.186 -22.016 43.517 -23.8698C43.517 -23.8963 43.57 -23.9228 43.6892 -24.042C45.543 -23.3534 47.4365 -22.6384 49.3566 -21.9233C49.0388 -20.9699 48.7739 -20.149 48.4694 -19.2353ZM48.6945 -14.9847C48.1516 -15.4085 47.6616 -16.0176 47.026 -16.2692C45.6754 -16.8121 45.7416 -17.8052 45.9137 -18.9175C45.9402 -19.1161 45.9799 -19.328 46.0462 -19.6723C46.8274 -19.328 47.5689 -18.9969 48.3105 -18.6527C48.4032 -18.6129 48.4296 -18.4011 48.4429 -18.2686C48.5356 -17.1828 48.615 -16.097 48.6945 -14.9847ZM47.0525 -23.3931C45.9402 -23.8036 44.8279 -24.1744 43.7156 -24.5716C43.2654 -24.7305 43.0403 -24.6114 42.9609 -24.0949C42.802 -23.0753 42.5504 -22.069 42.365 -21.0494C42.1929 -20.0298 42.0604 -19.0102 41.9148 -17.9376C40.829 -17.9906 39.7564 -18.0303 38.6309 -18.0833C39.4254 -21.5261 40.2199 -24.9424 41.0144 -28.3985C44.3645 -27.3789 47.7278 -26.346 51.1574 -25.2999C50.6278 -24.3201 50.1378 -23.3931 49.6081 -22.4133C48.7342 -22.7443 47.9 -23.0886 47.0525 -23.3931ZM26.2632 -6.80144C26.3294 -9.58217 26.3692 -12.3761 26.3824 -15.1569C26.3824 -15.8984 26.2765 -16.6399 26.2235 -17.3417C28.8188 -17.3417 31.4274 -17.3417 34.036 -17.3417C34.8703 -17.3417 35.7045 -17.3285 36.5387 -17.3417C37.1213 -17.355 37.6907 -17.4477 38.2733 -17.4477C39.3459 -17.4609 40.4317 -17.4874 41.5043 -17.4079C42.365 -17.3417 43.2257 -17.1564 44.0732 -16.9975C45.6224 -16.7061 46.8142 -15.7792 48.0059 -14.8258C49.3565 -13.74 49.8862 -12.1113 50.7866 -10.8004C50.4291 -10.4164 50.0981 -10.0456 49.7273 -9.63513C49.2506 -10.3237 48.8534 -11.0387 48.3237 -11.6214C46.4699 -13.6606 44.2453 -14.9583 41.4513 -15.382C39.2003 -15.7263 36.9492 -15.6998 34.6981 -15.7527C32.6457 -15.8057 30.5932 -15.6203 28.5408 -15.5541C28.1965 -15.5409 28.0641 -15.4349 28.0508 -15.0907C28.0508 -14.5478 27.9714 -14.0181 27.9581 -13.4752C27.9184 -11.0785 27.839 -8.69498 27.8787 -6.29826C27.9184 -3.70291 28.117 -1.09431 29.2823 1.27593C29.7193 2.16312 30.4741 2.90464 31.0964 3.6859C31.3877 4.05666 31.679 4.44067 32.0366 4.74522C32.6324 5.22192 33.2813 5.63241 33.9831 6.13559C33.5726 6.49311 33.2018 6.82416 32.7913 7.16844C31.4937 6.29449 29.8914 5.69862 28.7394 4.3877C27.2563 2.69278 26.4221 0.772751 26.2897 -1.46508C26.2235 -2.53765 26.1176 -3.61021 26.1043 -4.68278C26.0646 -5.41107 26.25 -6.09963 26.2632 -6.80144ZM65.8821 -17.9509C65.1803 -18.454 64.5711 -18.7983 64.068 -19.2883C63.8693 -19.4869 63.8296 -19.9503 63.8693 -20.2814C64.0944 -21.8174 64.5314 -23.3269 64.5711 -24.863C64.6241 -26.7168 64.2931 -28.5441 63.0086 -30.0404C62.9822 -30.0669 62.9954 -30.1199 62.9821 -30.345C64.2798 -29.4975 65.498 -28.7427 66.6633 -27.9085C67.6299 -27.2067 67.8286 -26.1474 67.5373 -25.0483C67.2459 -23.9493 66.8355 -22.8767 66.4514 -21.8042C66.0277 -20.5727 65.498 -19.3809 65.8821 -17.9509ZM63.9753 -24.0023C63.8958 -22.784 63.4986 -21.5658 63.1146 -20.3873C62.8232 -19.4604 62.0155 -19.1823 61.2872 -19.7252C58.6654 -21.6585 56.944 -24.1744 56.9043 -27.5113C56.891 -29.3121 57.6855 -30.9276 58.7978 -32.3445C62.7835 -30.6628 64.2666 -28.1071 63.9753 -24.0023ZM59.1288 -20.8905C59.6188 -20.3476 60.122 -19.8312 60.6251 -19.3015C60.9297 -18.9837 61.0356 -18.6791 60.7973 -18.2422C60.506 -17.6993 60.2941 -17.1166 59.9763 -16.3883C59.2215 -18.4408 57.4207 -19.328 56.0436 -20.6257C55.5669 -21.0759 55.0504 -21.5128 54.6399 -22.0425C53.8852 -23.0224 53.9514 -24.1082 54.4678 -25.1543C55.0107 -26.2666 55.6331 -27.3391 56.2554 -28.4912C56.3084 -27.6305 56.2819 -26.8624 56.4143 -26.1342C56.7983 -24.1214 57.765 -22.3868 59.1288 -20.8905ZM57.5266 -18.6791C58.5859 -17.8582 59.301 -16.8121 59.7247 -15.5806C59.8571 -15.1834 59.8306 -14.7199 59.8704 -14.2962C59.8174 -14.2432 59.7777 -14.1902 59.7247 -14.1373C57.6193 -15.2628 55.4874 -16.3619 53.4085 -17.5536C52.9318 -17.8184 52.5875 -18.3613 52.2432 -18.8116C51.9651 -19.1823 52.0314 -19.6061 52.2035 -20.043C52.5478 -20.9699 52.8523 -21.9101 53.2099 -22.9429C54.3751 -21.1024 55.9641 -19.8974 57.5266 -18.6791ZM58.1357 -14.4153C59.195 -14.0049 60.1087 -13.3825 60.7046 -12.3364C61.0621 -11.6876 61.5653 -11.1314 62.0288 -10.4826C61.1681 -10.8401 60.3736 -11.2109 59.5393 -11.5022C58.3211 -11.9392 57.0499 -11.9921 55.7787 -11.8862C54.5737 -11.7935 53.8852 -12.4291 53.3025 -13.3428C52.6669 -14.3491 52.3492 -15.4482 52.2035 -16.6267C52.1505 -17.0769 52.0843 -17.5139 52.0314 -17.9773C53.7792 -16.2824 55.9111 -15.2893 58.1357 -14.4153ZM53.7528 -11.0917C56.176 -11.5419 58.5595 -11.5287 60.8105 -10.3899C62.8497 -9.34382 64.5844 -7.9667 65.3259 -5.62294C64.7168 -5.27866 64.0944 -4.92113 63.5648 -4.62982C62.7438 -5.41107 62.0288 -6.23205 61.1813 -6.88089C59.8969 -7.86076 58.3873 -8.43015 56.7719 -8.58905C56.0436 -8.65526 55.2888 -8.64202 54.5473 -8.58905C52.5213 -8.43015 51.409 -7.05303 50.5218 -5.43755C49.7935 -4.1134 49.5817 -2.65682 49.489 -1.187C49.3963 0.123913 49.7935 1.35538 50.2702 2.56036C50.3099 2.66629 50.3629 2.78547 50.4159 2.93113C49.7803 3.31514 49.1579 3.67266 48.5488 4.04342C45.9932 1.07731 46.1388 -3.7956 48.2972 -6.92061C48.9196 -7.82104 49.6214 -8.68174 50.3232 -9.51596C51.2104 -10.5488 52.4683 -10.8534 53.7528 -11.0917ZM72.1188 28.5006C71.2581 28.1961 70.4504 27.9577 69.6029 28.2888C69.4838 28.3285 69.2984 28.2888 69.1925 28.2093C68.0537 27.3883 67.4313 26.4482 67.8551 25.0313C67.9477 24.7003 68.3847 24.3163 68.729 24.2104C69.9472 23.8661 71.1787 24.4487 71.8011 25.5345C71.8805 25.6802 71.9202 25.9053 71.8673 26.0642C71.5892 26.8852 71.8275 27.6532 72.1188 28.5006ZM71.8805 39.2263C71.9335 39.3852 71.854 39.6368 71.7613 39.7957C71.0728 40.8815 69.9472 41.3847 68.729 41.0537C68.3715 40.9477 67.9478 40.5372 67.8286 40.1797C67.4578 39.0145 68.1066 37.6506 69.1925 37.0547C69.2984 37.0017 69.4573 36.9223 69.5367 36.962C70.4107 37.3857 71.2184 37.0415 72.1056 36.7899C71.8408 37.6373 71.576 38.3921 71.8805 39.2263ZM66.4514 87.0682C66.7825 87.9686 67.14 88.8558 67.4048 89.7695C68.1066 92.1794 67.193 92.8945 65.7364 93.8876C64.8757 94.4702 63.962 94.9602 62.9689 95.3971C63.141 95.172 63.3529 94.9734 63.4853 94.7218C64.4255 92.9342 64.8095 91.0274 64.5182 89.0147C64.346 87.8097 64.0415 86.618 63.8031 85.4262C63.7237 85.029 63.7634 84.7244 64.1606 84.4861C64.7168 84.1418 65.22 83.7048 65.8688 83.2149C65.5245 84.6582 66.0145 85.8632 66.4514 87.0682ZM63.4191 93.5301C62.8497 95.1058 61.5521 96.0725 60.2147 96.9729C59.8042 97.251 59.3275 97.4231 58.8375 97.6747C57.6061 96.0195 56.7983 94.2319 56.9175 92.1794C56.9705 91.2922 57.2883 90.4051 57.6193 89.5576C58.3079 87.8494 59.4202 86.4326 60.8635 85.2938C62.0023 84.4066 62.7306 84.592 63.247 85.9294C64.2269 88.4321 64.3328 90.9877 63.4191 93.5301ZM60.5589 84.6582C59.5261 85.8764 58.4535 87.0682 57.5663 88.3791C56.7321 89.6238 56.3481 91.0936 56.2819 92.6032C56.2687 92.9474 56.3613 93.2917 56.4276 93.7817C56.2422 93.5301 56.1098 93.3844 56.0303 93.2255C55.4742 92.1662 54.8783 91.1201 54.3751 90.0343C53.7395 88.6837 54.2559 87.5449 55.2491 86.618C56.2952 85.6381 57.4472 84.7774 58.48 83.7975C59.0759 83.2281 59.5526 82.5131 60.0822 81.851C60.2941 82.3409 60.4927 82.9103 60.784 83.4267C61.0621 83.9564 60.89 84.2742 60.5589 84.6582ZM53.1966 88.2202C52.7861 86.9887 52.2565 85.8897 52.0711 84.7244C51.9519 83.9696 52.6405 83.3473 53.2761 82.8838C54.8121 81.7583 56.4938 80.9241 58.2681 80.2355C58.7846 80.0369 59.2745 79.7721 59.8571 79.494C59.8836 81.6259 58.7316 83.0163 57.1956 84.2212C55.739 85.3468 54.2824 86.4988 53.1966 88.2202ZM57.3545 80.0369C55.4344 80.6328 53.6733 81.6524 52.0976 83.1884C52.177 81.8245 52.3359 80.593 52.8656 79.4543C53.051 79.057 53.2761 78.6863 53.5144 78.3155C54.0441 77.5342 54.7459 77.0708 55.7655 77.137C57.9503 77.2959 60.0293 76.8986 61.9493 75.7201C60.7443 77.5342 59.6453 79.3219 57.3545 80.0369ZM58.149 76.4881C56.1098 76.8722 54.097 76.5676 52.1373 75.9585C51.6341 75.7996 51.1177 75.5215 50.7469 75.164C48.8931 73.3499 47.3438 71.3239 46.8671 68.7021C46.4302 66.3186 46.5891 63.9881 48.0589 61.9092C48.2178 61.6841 48.3502 61.4589 48.5223 61.1941C49.1844 61.5781 49.7803 61.9356 50.2967 62.2534C50.0451 63.326 49.7406 64.3456 49.5684 65.3785C49.3301 66.8085 49.6081 68.2254 50.0584 69.5893C50.4291 70.7016 51.0382 71.6815 51.8327 72.5554C52.614 73.4293 53.6203 73.7736 54.7062 73.8663C58.2814 74.1841 61.1416 72.8864 63.2999 70.013C63.3397 69.96 63.3794 69.9203 63.4456 69.8409C64.068 70.1984 64.7036 70.5427 65.3524 70.9134C64.015 74.1709 61.4858 75.8658 58.149 76.4881ZM44.669 72.5819C44.5234 71.4563 44.3115 70.3573 44.775 69.2847C45.159 68.3843 45.5959 67.5236 45.927 66.7953C46.2315 68.04 46.5229 69.4304 46.9333 70.781C47.1187 71.4034 47.4895 71.9993 47.8867 72.5289C48.6548 73.5618 48.3899 74.5284 47.8735 75.548C47.1452 76.9913 45.8608 77.8785 44.5896 78.8849C45.0133 76.753 44.9471 74.6608 44.669 72.5819ZM31.7188 53.1697C31.7585 54.1761 31.3215 54.8249 30.5667 55.3678C29.1367 56.4007 27.4815 56.6655 25.6674 56.8244C27.3226 55.0897 28.2759 53.0903 29.0969 51.0113C29.5736 49.8064 30.2225 48.7603 31.4142 48.1114C32.0233 47.7804 32.5397 47.3037 33.0164 46.9594C32.6589 48.0452 32.1822 49.1575 31.9174 50.336C31.7055 51.2497 31.679 52.2296 31.7188 53.1697ZM33.1886 18.4635C31.5334 17.1526 29.6531 16.3051 29.0042 14.107C28.501 12.4121 27.0312 9.69758 25.6674 8.47935C27.6801 8.57204 28.7394 8.83688 30.1298 9.61813C31.1626 10.2008 31.785 10.9555 31.7188 12.2664C31.5996 14.4116 31.7452 15.6431 33.1886 18.4635ZM28.5805 -14.9185C30.6462 -15.2231 32.5927 -15.0377 34.2876 -13.9387C35.8369 -12.9323 36.8962 -11.436 37.5451 -9.70134C37.9291 -8.68174 38.2071 -7.60917 38.3528 -6.52336C38.472 -5.59645 37.9953 -5.14624 37.0419 -5.22569C35.0424 -5.37135 33.2813 -6.16584 31.6525 -7.30462C29.3485 -8.92009 28.4613 -11.1844 28.5937 -13.9254C28.5937 -14.2564 28.5805 -14.5742 28.5805 -14.9185ZM44.5631 -13.6076C46.1388 -12.4026 47.6881 -11.2771 48.2443 -9.29086C48.4164 -8.6685 48.4164 -8.11235 48.0192 -7.52972C46.7347 -5.6759 46.0726 -3.61021 46.0991 -1.22673C45.0133 -3.3189 44.1394 -5.26542 44.6823 -7.67538C45.106 -9.56893 45.0133 -11.5684 44.5631 -13.6076ZM46.2183 1.15676C46.4831 1.91153 46.7612 2.6663 47.026 3.43431C45.4768 2.86492 43.9275 2.33526 42.418 1.72614C40.392 0.905167 39.0016 -0.524925 38.4852 -2.69654C38.366 -3.18649 38.4455 -3.72939 38.5117 -4.24581C38.5911 -4.84168 39.0414 -5.10651 39.624 -5.14624C41.5175 -5.2919 43.0006 -4.4974 44.1923 -3.08055C45.2517 -1.84908 45.7151 -0.326298 46.2183 1.15676ZM44.285 -8.99954C44.2453 -7.68863 43.9937 -6.37771 43.8348 -5.02707C42.4974 -5.68914 41.7559 -6.86765 41.3984 -8.25801C41.107 -9.39679 40.9879 -10.5885 40.723 -11.7405C40.4714 -12.8528 40.1272 -13.9519 39.8094 -15.0774C40.8555 -14.8788 42.0207 -14.7596 43.0933 -14.3756C43.5435 -14.2167 43.9672 -13.4884 44.0467 -12.972C44.2585 -11.6611 44.3247 -10.3237 44.285 -8.99954ZM39.955 -12.6939C40.1934 -11.8068 40.3258 -10.8798 40.4847 -9.95293C40.723 -8.58905 40.8687 -7.19868 41.9015 -5.9937C41.0408 -6.05991 40.2993 -6.07315 39.5975 -6.21881C39.3724 -6.27177 39.1473 -6.68227 39.0678 -6.97358C38.4984 -9.02603 37.8629 -11.0387 36.446 -12.6939C35.5588 -13.7268 34.6451 -14.7199 33.2415 -15.0642C33.2548 -15.1304 33.268 -15.2098 33.2813 -15.2761C34.6981 -15.1834 36.1017 -15.1039 37.5186 -14.998C38.9354 -14.892 39.6107 -13.9254 39.955 -12.6939ZM35.5721 -4.85493C37.3862 -4.31202 37.3862 -4.28554 37.5583 -2.40523C37.5715 -2.23309 37.598 -2.04771 37.6245 -1.75639C35.6383 -3.25269 33.2813 -3.02759 31.1494 -3.58373C29.4015 -4.04719 28.7262 -4.76223 28.4878 -6.52336C28.4481 -6.84116 28.4216 -7.1722 28.4216 -7.50324C28.4084 -8.45664 28.4216 -9.41003 28.4216 -10.4429C29.8385 -7.23841 32.4868 -5.7686 35.5721 -4.85493ZM34.4465 -2.41847C35.678 -2.23309 36.7506 -1.74315 37.6907 -0.948658C38.0615 -0.630859 38.3131 -0.193886 38.75 0.349022C36.4328 0.481438 34.3009 0.653576 32.1822 0.680061C31.4274 0.693302 30.6594 0.375504 29.9179 0.163639C29.4677 0.0444642 29.2161 -0.286575 29.1366 -0.776516C28.9645 -1.80936 28.7262 -2.8422 28.5011 -3.95449C30.4211 -2.96138 32.447 -2.72303 34.4465 -2.41847ZM35.0027 1.19648C35.9296 1.15676 36.8433 0.958134 37.7702 0.878685C38.6176 0.799236 39.3989 1.03758 40.1536 1.43483C40.8025 1.77911 41.5175 2.04395 42.3253 2.40147C41.5705 2.48092 40.9349 2.53388 40.3125 2.62657C38.8692 2.83844 37.5451 3.38134 36.3798 4.22881C35.4926 4.8644 34.5922 4.83792 33.6785 4.42743C32.063 3.71238 31.0302 2.36174 29.9576 0.905167C31.732 1.40834 33.374 1.27593 35.0027 1.19648ZM34.8967 5.98994C36.5122 4.67902 38.2204 3.56672 40.3125 3.22244C42.9741 2.78547 45.4768 3.11651 47.6616 4.95709C47.2909 5.5662 46.9333 6.18856 46.6553 6.65202C45.2649 6.37394 43.9805 5.91049 42.696 5.89724C40.4714 5.87076 38.366 6.46664 36.5917 7.97618C35.1483 9.20764 34.8835 10.8099 34.9365 12.5445C34.9762 14.0938 35.4396 15.5768 36.2606 16.848C36.9889 17.9736 37.9953 18.927 38.9487 20.0128C38.6838 20.4762 38.3396 21.0986 37.982 21.7209C34.4863 20.6087 32.1292 16.2522 32.3014 13.2331C32.3544 12.1738 32.4603 11.1277 32.553 10.0683C32.6986 8.36018 33.5726 7.06251 34.8967 5.98994ZM51.8195 25.3227C51.846 25.3491 51.8327 25.4021 51.8725 25.5478C50.4026 25.1902 48.9858 24.8724 47.5954 24.4884C47.3968 24.4355 47.2114 24.0912 47.1717 23.8396C46.8936 22.1314 45.8873 21.0059 44.2585 20.6351C42.5636 20.2511 40.7098 20.9 40.1536 22.873C39.3989 25.5478 41.8751 27.534 44.1526 27.1765C45.2781 26.9911 46.1124 26.435 46.8009 25.5875C46.9069 25.4551 47.132 25.2962 47.2644 25.3227C48.7077 25.7199 50.151 26.1701 51.6076 26.5938C50.8529 27.0308 50.0981 27.3751 49.436 27.8518C48.0589 28.8582 47.4762 30.3809 46.9466 31.9302C46.8936 32.0891 46.7082 32.3407 46.6155 32.3407C45.4503 32.2083 44.2321 32.195 43.133 31.8243C40.1934 30.8312 38.5514 28.6993 38.3263 25.5875C38.2601 24.5679 38.2071 23.4953 38.4587 22.5154C38.7103 21.562 39.2532 20.6484 39.8359 19.8406C40.6171 18.7681 41.5175 17.7485 42.7887 17.2056C43.4111 16.9407 44.0732 16.7553 44.7485 16.6627C46.748 16.4111 48.5753 17.0202 50.2835 18.0133C50.4291 18.0927 50.588 18.3841 50.5483 18.5297C49.9259 21.0059 50.0584 23.3099 51.8195 25.3227ZM67.1135 23.4953C66.1072 22.9789 65.1008 22.7538 64.015 22.9259C63.8826 22.9524 63.6707 22.8465 63.5913 22.7273C63.1808 22.1579 62.7438 21.6018 62.4128 20.9794C62.0685 20.3173 62.2539 19.6288 62.7968 19.1256C63.3264 18.6224 63.962 18.437 64.6109 18.8078C65.2067 19.1388 65.7496 19.5493 66.3058 19.9466C66.425 20.0393 66.5574 20.2379 66.5309 20.3571C66.372 21.4561 66.5839 22.489 67.1135 23.4953ZM65.7364 23.5748C65.988 23.6675 66.2396 23.7734 66.4779 23.8926C67.3783 24.3428 67.3651 24.3428 67.1797 25.3491C67.0208 26.1834 67.2857 26.9381 67.8153 27.7723C66.5971 27.6002 65.7232 28.0637 64.9419 28.7787C64.8492 28.8714 64.6638 28.9508 64.5447 28.9111C62.9292 28.5271 61.8566 26.5938 62.3995 25.0578C62.7306 24.1442 64.2004 22.9921 65.7364 23.5748ZM67.2989 40.4843C67.3386 40.6167 67.2592 40.8683 67.1532 40.9477C65.9218 41.8879 64.3858 42.2984 63.0748 41.1066C62.0155 40.14 61.9361 38.5245 62.9689 37.452C63.3529 37.0547 63.8296 36.7369 64.3063 36.4456C64.4652 36.3529 64.836 36.3926 64.9816 36.525C65.7629 37.2136 66.6236 37.6373 67.8153 37.5049C67.1268 38.5113 66.9944 39.4647 67.2989 40.4843ZM66.5177 44.8143C66.5309 44.9732 66.4514 45.2115 66.3455 45.3042C65.8026 45.7147 65.2597 46.1384 64.6638 46.443C63.9223 46.827 63.3264 46.6813 62.757 46.0987C62.2274 45.5558 62.0817 44.9334 62.4525 44.2316C62.7703 43.6358 63.194 43.0929 63.5913 42.55C63.6707 42.4308 63.8826 42.3249 64.015 42.3513C65.1538 42.5764 66.1734 42.2454 67.1797 41.729C66.5971 42.7221 66.3985 43.7285 66.5177 44.8143ZM50.2702 44.5627C50.3762 45.291 50.4821 46.0193 50.5483 46.7475C50.5615 46.9064 50.4291 47.1448 50.2967 47.2242C48.2178 48.4822 45.9667 48.9854 43.5965 48.3763C42.8284 48.1776 42.0737 47.6877 41.4513 47.1713C40.723 46.5622 40.1272 45.7942 39.5313 45.0526C38.2204 43.3974 37.9026 41.4906 38.3528 39.4647C38.5647 38.5245 38.8162 37.5711 39.1605 36.6707C39.5578 35.6246 40.4317 34.989 41.3322 34.3534C42.9344 33.2014 44.7485 33.0822 46.5891 32.9366C46.695 32.9233 46.9069 33.0822 46.9333 33.1882C47.6219 35.7438 48.9196 37.7565 51.6209 38.6702C50.1908 39.0939 48.7739 39.5309 47.3306 39.9281C47.1717 39.9678 46.8804 39.809 46.7612 39.6501C45.6754 38.2994 44.2718 37.8492 42.6033 38.1802C41.3454 38.4318 40.2066 39.8752 40.061 41.1199C39.955 42.0733 40.2331 42.8678 40.776 43.596C41.7294 44.8672 44.0599 45.1453 45.3973 44.1787C46.3375 43.4901 47.0393 42.6559 47.1452 41.4377C47.1849 40.9345 47.4762 40.7756 47.9397 40.6829C49.1182 40.4445 50.2702 40.1268 51.4487 39.8487C51.5679 39.8222 51.6871 39.809 51.9254 39.7692C51.6076 40.2459 51.356 40.6299 51.1044 41.0139C50.3894 42.0997 50.0981 43.2782 50.2702 44.5627ZM43.0403 53.1035C43.4905 53.13 43.9407 53.1565 44.391 53.1035C44.8147 53.0505 45.2252 52.9049 45.6886 52.799C45.6357 53.1565 45.5562 53.4875 45.5297 53.8318C45.5033 54.1761 45.5297 54.5336 45.5297 54.9308C44.0467 55.487 42.5504 55.7386 41.0011 55.2354C39.3592 54.6925 38.75 53.6199 39.1076 51.7661C39.3062 50.7068 39.8359 49.7931 40.6171 49.0251C40.9217 48.7205 41.2527 48.4292 41.5705 48.1247C42.2193 48.4425 42.8285 48.747 43.4773 49.0648C43.1595 49.4091 42.7887 49.7269 42.5106 50.1241C42.2326 50.5082 42.0075 50.9451 41.8618 51.3953C41.5308 52.3223 42.034 53.0241 43.0403 53.1035ZM39.2135 49.9255C38.472 51.0378 38.2469 52.309 38.5117 53.6199C38.7633 54.8911 40.5244 56.0166 42.1664 56.0299C42.749 56.0299 43.3449 56.0564 43.9143 55.9769C44.4837 55.8975 45.0398 55.6989 45.6224 55.54C45.8608 56.3212 46.0859 57.0627 46.3375 57.8837C45.106 58.5326 43.7951 58.9033 42.418 58.8239C41.0806 58.7444 39.7564 58.5193 38.5117 57.8705C36.9227 57.023 35.7045 55.9504 35.5721 54.0172C35.347 50.6141 36.6181 47.926 39.3989 45.9001C39.9815 46.5224 40.5244 47.1051 41.0541 47.6612C40.4185 48.416 39.7432 49.1178 39.2135 49.9255ZM44.6558 52.4282C44.2056 52.5209 43.7156 52.5076 43.2654 52.4414C42.5901 52.3355 42.365 51.8985 42.6033 51.2629C42.9079 50.4552 43.464 49.8461 44.1791 49.3826C44.391 49.2502 44.6823 49.2105 44.9471 49.1972C46.0197 49.1178 47.079 49.0781 47.8735 49.0383C47.4895 49.621 46.8804 50.3757 46.4699 51.21C46.0726 52.0045 45.3973 52.256 44.6558 52.4282ZM37.3994 31.4005C36.2739 32.1023 36.2871 33.1749 37.4126 33.8767C38.088 34.2872 38.856 34.552 39.5843 34.8831C39.2929 35.3333 38.9619 35.8762 38.6044 36.3926C38.5514 36.4721 38.3925 36.5648 38.2998 36.5383C36.6579 36.2072 35.1351 35.6378 34.142 34.1813C33.1489 32.7115 33.3872 31.7845 34.7643 30.328C35.6912 29.3481 36.9624 28.9641 38.2601 28.6993C38.366 28.6728 38.5382 28.7655 38.6044 28.8582C38.9487 29.3746 39.2797 29.891 39.571 30.3545C38.8295 30.712 38.0747 30.9901 37.3994 31.4005ZM40.3523 31.0695C40.7495 31.0695 41.1468 31.4668 41.544 31.6786C42.2458 32.0361 42.9609 32.3672 43.464 32.6188C42.6166 33.069 41.597 33.6384 40.5377 34.1548C40.3125 34.2607 39.955 34.2342 39.7034 34.1283C39.0016 33.8502 38.2998 33.5589 37.6775 33.1617C37.2802 32.9101 37.3067 32.4599 37.651 32.0891C38.3793 31.3078 39.3592 31.0827 40.3523 31.0695ZM36.5784 28.5933C34.9232 29.2157 33.652 30.2353 33.0826 31.9832C32.6986 33.1749 33.2945 34.1151 33.9963 34.936C34.8703 35.9821 36.009 36.6575 37.3729 36.909C37.6775 36.962 37.9688 37.0812 38.2601 37.1606C38.1144 37.8492 37.9423 38.4848 37.8364 39.1336C37.7834 39.4647 37.6642 39.5441 37.3464 39.5044C35.6912 39.3323 34.2347 38.7629 32.9237 37.7168C31.3745 36.4721 30.2622 34.9758 29.9047 33.0028C29.8252 32.579 29.9047 32.0891 30.0503 31.6786C31.1361 28.3682 33.5064 26.5144 36.83 25.7861C37.1081 25.7199 37.3994 25.7729 37.7437 25.7729C37.9158 26.5012 38.088 27.2692 38.2733 28.1034C37.704 28.2623 37.1213 28.3815 36.5784 28.5933ZM54.5737 31.096C53.9249 31.0827 53.2496 31.1357 52.6272 31.2814C52.0446 31.4138 51.5944 32.1288 51.6341 32.6585C51.6738 33.3206 52.0711 33.7708 52.667 34.0224C53.5012 34.3667 54.3751 34.274 55.2358 34.0886C55.6198 34.0091 56.0038 33.9562 56.4276 33.8767C56.0833 34.4329 55.7655 34.936 55.4477 35.4392C55.3947 35.5187 55.302 35.6246 55.2226 35.6246C53.6998 35.7968 52.2035 35.8894 50.8793 34.8566C49.0255 33.4 49.436 31.0563 51.4885 29.9969C52.667 29.3878 53.9381 29.454 55.1961 29.6527C55.302 29.6659 55.4212 29.8116 55.4874 29.9307C55.792 30.3942 56.0965 30.8709 56.4276 31.3873C55.792 31.2814 55.1828 31.1092 54.5737 31.096ZM56.6659 32.1023C57.0632 32.2083 57.4339 32.4202 57.9503 32.632C56.3349 33.3735 54.8121 33.8238 53.1437 33.5589C52.6405 33.4795 52.2697 33.2279 52.2432 32.685C52.2167 32.1023 52.614 31.8375 53.1304 31.7183C54.3486 31.4403 55.5007 31.7978 56.6659 32.1023ZM55.1034 29.0568C54.1897 29.0568 53.329 28.9773 52.4948 29.07C50.9985 29.2289 49.5552 30.5398 49.1844 31.8375C48.6945 33.6119 50.0319 35.3068 51.4222 35.9027C52.4418 36.3397 53.5144 36.3926 54.6002 36.2337C54.7326 36.2072 54.8783 36.2337 55.0504 36.2337C55.0769 36.3529 55.0902 36.3926 55.0902 36.4323C55.1564 38.0611 55.0769 38.1538 53.4217 38.167C51.078 38.1935 49.3301 37.2004 48.2972 35.0817C47.9529 34.3667 47.5027 33.5854 47.516 32.8306C47.5557 30.7649 48.5488 29.123 50.2835 27.9445C51.6473 27.0176 53.1436 26.9116 54.7062 27.2824C54.8518 27.3221 55.0769 27.5075 55.0902 27.6399C55.1431 28.0901 55.1034 28.5404 55.1034 29.0568ZM44.9339 43.5298C44.4572 43.7152 43.9407 43.7814 43.4376 43.9006C41.6897 43.8079 40.5509 42.3911 40.9481 40.6961C41.1335 39.8884 41.8353 39.5706 42.4577 39.2131C43.7421 38.4848 45.6886 38.7099 46.4037 40.3916C46.8804 41.5039 46.2448 43.0002 44.9339 43.5298ZM52.7729 39.8619C53.4614 39.2793 54.3884 38.9747 55.2358 38.551C55.6066 39.1733 55.8714 39.6236 56.07 39.9546C55.1564 40.6299 54.1765 41.2126 53.3688 41.9938C51.9784 43.3445 51.9916 45.8736 53.3555 46.9726C54.587 47.979 56.0171 48.1247 57.4736 47.595C58.2814 47.3037 59.0097 46.8138 59.7777 46.4033C60.0293 46.827 60.2941 47.2772 60.5589 47.7407C58.6389 50.0712 55.2226 50.2168 53.2099 48.7073C52.3359 48.0585 51.3693 47.542 51.078 46.39C50.4291 43.9006 50.7337 41.6098 52.7729 39.8619ZM54.9313 44.8937C55.2888 45.569 55.9509 45.8339 57.0102 45.4631C57.712 45.2248 58.3079 44.6819 58.9435 44.2449C59.1818 44.086 59.3804 43.8741 59.6188 43.6887C59.9366 44.907 59.5923 45.7809 58.5992 46.39C57.5134 47.0653 56.3878 47.4891 55.0637 47.1845C52.614 46.6151 52.4816 43.9933 53.6203 42.5367C54.3619 41.5833 55.3815 41.0404 56.4673 40.6034C56.5732 40.5637 56.7189 40.5505 56.8116 40.5902C57.3412 40.855 57.8709 41.1463 58.3476 41.3979C57.4074 41.8614 56.4408 42.2719 55.5404 42.828C54.7724 43.3047 54.5737 44.2316 54.9313 44.8937ZM57.4074 44.6819C57.1426 44.8408 56.8513 44.9732 56.5467 45.0261C56.0965 45.1056 55.5669 45.0659 55.4477 44.5627C55.3682 44.2316 55.4874 43.702 55.7258 43.4636C56.6527 42.5235 57.9239 42.2586 59.1421 41.9276C59.4996 41.8349 59.8836 41.8349 60.3603 41.7952C59.5526 43.0664 58.5595 43.9536 57.4074 44.6819ZM57.3015 40.2327C56.0833 39.4779 55.4212 37.8227 55.7522 36.4456C56.2422 34.4064 57.6325 33.2411 59.8042 32.9233C59.9763 33.3603 60.1352 33.784 60.3073 34.221C59.6718 34.5256 58.9832 34.7904 58.3741 35.1612C57.2485 35.8365 57.0102 36.631 57.3942 37.9949C57.6325 38.8423 58.7051 39.5309 59.632 39.4249C60.2809 39.3455 60.9429 39.3058 61.6447 39.2396C61.711 39.6633 61.7772 40.1003 61.8566 40.5902C60.2676 41.345 58.7713 41.1463 57.3015 40.2327ZM60.4398 38.7761C60.1087 38.7761 59.7777 38.8291 59.4466 38.8158C58.5859 38.8026 58.043 38.3391 57.7914 37.4255C57.6193 36.8163 57.9901 35.9821 58.6257 35.6378C59.1024 35.3863 59.6055 35.1876 60.0955 34.9758C60.4265 34.8434 60.7046 34.9228 61.0621 35.0949C61.9096 35.5054 62.8233 35.7703 63.5515 36.0483C63.1278 36.525 62.4393 37.0812 62.0685 37.7962C61.6845 38.5378 61.1813 38.7761 60.4398 38.7761ZM60.4795 32.4731C60.5457 30.7914 62.7438 29.3613 64.2798 30.0234C64.4387 30.0896 64.5711 30.3412 64.6373 30.5266C65.0081 31.5859 65.4716 32.1288 66.5177 32.6452C65.5113 33.0955 64.8889 33.7973 64.6373 34.7771C64.5446 35.1744 64.3195 35.2936 63.962 35.3465C62.1082 35.6511 60.4 34.2607 60.4795 32.4731ZM65.2994 35.9821C65.1405 35.7835 65.0743 35.426 65.1141 35.1612C65.2862 33.9032 66.703 32.8042 67.9875 32.9101C68.0802 32.9233 68.2258 32.9366 68.2655 32.9895C68.782 33.8238 69.7089 33.89 70.5166 34.1813C69.9605 34.7904 69.1925 35.2538 69.1925 36.2072C69.1925 36.2999 69.06 36.4059 68.9674 36.4721C67.8551 37.2533 66.1734 37.0415 65.2994 35.9821ZM69.3514 33.1749C69.1395 33.0822 68.8879 32.8042 68.8879 32.632C68.8879 32.4466 69.1527 32.1818 69.3514 32.0759C70.8609 31.3741 72.238 31.9434 73.7476 32.6188C72.2248 33.3471 70.8609 33.89 69.3514 33.1749ZM68.2788 32.2877C68.2523 32.3275 68.1729 32.3539 68.1199 32.3672C66.9281 32.685 65.0876 31.149 65.1008 29.9175C65.114 29.1097 66.7163 28.1034 67.5902 28.3285C67.9742 28.4344 68.345 28.5404 68.7158 28.6595C69.0203 28.7655 69.1262 28.9906 69.2587 29.3084C69.5235 29.891 69.987 30.3809 70.371 30.9106C70.4107 30.9768 70.5166 30.9901 70.6623 31.0695C69.6956 31.3476 68.7952 31.4535 68.2788 32.2877ZM63.4059 28.9773C63.5118 29.0965 63.6575 29.1627 63.8958 29.3481C62.6511 29.3084 61.6712 29.6394 60.8238 30.328C60.7311 30.4074 60.5325 30.4207 60.4133 30.3809C59.7247 30.0896 58.9964 29.8645 58.3873 29.454C57.712 29.0038 57.6061 28.249 57.9106 27.4545C58.1357 26.8322 58.7581 26.4217 59.5393 26.4349C60.016 26.4349 60.4927 26.4747 60.9694 26.5409C61.3799 26.6071 61.6448 26.7792 61.8831 27.2162C62.2671 27.8783 62.8895 28.4079 63.4059 28.9773ZM61.6447 26.0245C60.9297 25.9715 60.2147 25.892 59.4864 25.8788C58.4933 25.8523 57.659 26.4217 57.3942 27.2427C56.9837 28.5139 57.2088 29.4011 58.2152 30.0234C58.864 30.4207 59.5791 30.712 60.2809 31.0563C60.122 31.4668 59.9631 31.9037 59.8042 32.3275C57.5531 32.0759 56.3614 30.8709 55.8052 29.1097C55.355 27.6664 55.7655 26.2231 57.0102 25.2564C58.4668 24.1177 60.0955 23.8264 61.8434 24.6738C61.7772 25.1637 61.711 25.5875 61.6447 26.0245ZM55.5006 22.4095C56.4011 22.9789 57.4074 23.3894 58.3343 23.8661C57.8709 24.1177 57.3545 24.3957 56.8116 24.6738C56.7321 24.7135 56.6129 24.74 56.5335 24.7003C55.3418 24.2236 54.2559 23.6145 53.4615 22.5552C52.9053 21.8136 52.7199 20.0128 53.3423 19.1918C53.9911 18.3311 55.3682 17.7749 56.5732 18.0265C57.659 18.2516 58.5727 18.8078 59.4202 19.5096C59.4996 19.5758 59.5923 19.7082 59.5923 19.8009C59.632 20.3835 59.6585 20.9529 59.6982 21.6547C59.2348 21.2707 58.8508 20.9132 58.4138 20.6087C57.9768 20.3041 57.5134 20.0128 57.0234 19.8009C56.176 19.4301 55.3418 19.6685 54.9445 20.3438C54.5737 21.0059 54.7459 21.9328 55.5006 22.4095ZM55.8449 21.9461C55.4212 21.6415 55.1431 21.178 55.4609 20.6484C55.7655 20.1187 56.2952 20.1452 56.7851 20.3306C58.2814 20.9132 59.3275 22.0255 60.2014 23.3629C58.5859 23.3364 57.1294 22.8862 55.8449 21.9461ZM58.6919 18.2516C57.2221 17.3909 55.7125 17.0467 54.0706 17.8412C52.5478 18.5827 52.0976 19.9731 52.4551 21.5488C52.8523 23.2834 54.1103 24.2104 55.6066 24.9122C55.739 24.9784 55.8714 25.0313 56.0038 25.0975C56.0568 25.124 56.0965 25.1638 56.1362 25.1902C55.8582 25.6669 55.5801 26.1171 55.3153 26.5938C52.23 26.0245 50.7337 23.2702 50.7999 21.2707C50.8264 20.5689 50.8793 19.8671 50.9985 19.1786C51.1177 18.49 51.4222 17.8544 52.0181 17.4571C52.8391 16.901 53.6336 16.2257 54.5473 15.9079C56.507 15.2326 58.3873 15.5239 59.9895 16.9805C60.1882 17.1658 60.3868 17.338 60.5722 17.5101C60.2941 17.9868 60.0293 18.437 59.738 18.9402C59.3937 18.7151 59.0494 18.4635 58.6919 18.2516ZM46.5758 24.1839C46.5626 25.0181 45.8608 25.9715 45.0266 26.2496C43.7818 26.6733 42.1002 26.2231 41.2792 25.2035C41.107 24.9916 40.9217 24.6606 40.9614 24.4222C41.0806 23.6542 41.213 22.8597 41.5308 22.1712C41.9015 21.3767 42.7622 21.4826 43.4111 21.4561C45.3046 21.4694 46.5891 22.6081 46.5758 24.1839ZM41.8618 13.9481C42.1664 14.6235 42.6828 15.2193 43.1198 15.8284C43.2125 15.9608 43.3846 16.0271 43.5567 16.1462C42.8814 16.5038 42.312 16.8083 41.7426 17.0864C41.6499 17.1261 41.4513 17.0996 41.3719 17.0334C40.4847 16.1595 39.6372 15.259 39.187 14.0541C38.472 12.1208 39.4254 10.2935 41.4778 9.89621C42.8549 9.63137 44.2056 9.81676 45.4635 10.3464C45.5165 11.0615 45.5695 11.7633 45.6224 12.4518C45.0663 12.3327 44.5101 12.1738 43.954 12.1208C43.5567 12.0811 43.1198 12.1208 42.7225 12.2267C41.8883 12.4518 41.4911 13.1404 41.8618 13.9481ZM44.8147 16.0933C44.5234 16.0668 44.1791 15.9609 43.9672 15.7755C43.5435 15.3915 43.1065 14.9677 42.8284 14.4646C42.6298 14.107 42.4709 13.4714 42.6563 13.2198C42.8814 12.9153 43.4905 12.7431 43.9143 12.7564C44.4969 12.7696 45.159 12.8888 45.6357 13.2066C46.1124 13.5244 46.4037 14.1335 46.748 14.6367C47.1584 15.2061 47.5425 15.7887 47.847 16.2389C46.9598 16.1992 45.8873 16.1727 44.8147 16.0933ZM45.6224 9.7373C45.2649 9.64462 44.8941 9.53868 44.5234 9.44599C43.186 9.10171 41.8353 9.08847 40.5509 9.60489C38.4058 10.4788 37.982 12.0943 38.7898 14.4381C39.0016 15.0604 39.3592 15.6431 39.7564 16.1727C40.1404 16.6759 40.6701 17.0731 41.1468 17.5234C40.5377 18.1854 39.9947 18.7681 39.4254 19.3772C37.0948 17.8279 35.9031 15.6298 35.5853 12.9153C35.5191 12.3062 35.5456 11.6838 35.5985 11.0747C35.7707 9.22088 37.0021 8.20128 38.5382 7.42003C40.1404 6.61229 41.8486 6.29449 43.6097 6.53284C44.5366 6.65201 45.437 7.02278 46.364 7.27437C46.0859 8.1748 45.8608 8.91633 45.6224 9.7373ZM36.3268 21.9196C35.1218 22.1579 33.8904 22.383 32.6589 22.6346C31.0699 22.9657 29.5074 23.0054 27.9581 22.383C26.8591 21.9328 25.9984 21.2045 25.4025 20.1982C24.7802 19.1256 24.9655 18.49 26.0911 17.9338C27.5477 17.2056 29.0704 17.1394 30.6065 17.722C32.2219 18.3311 33.4534 19.4964 34.7114 20.5954C35.2675 21.0589 35.8237 21.5091 36.3268 21.9196ZM25.9719 9.65786C26.8856 11.1674 27.6801 12.7299 28.5011 14.2924C28.8188 14.8883 29.0572 15.5371 29.3485 16.2257C27.4682 16.2654 26.144 15.3253 24.992 14.0011C23.8665 12.7034 22.6748 11.4455 21.5095 10.1875C21.3109 9.97565 21.046 9.84324 20.715 9.60489C21.6154 9.27385 22.4496 8.92957 23.2971 8.66474C24.5021 8.30721 25.2966 8.5588 25.9719 9.65786ZM22.3702 11.7765C23.2706 12.7431 24.0784 13.8157 24.992 14.7824C25.5747 15.4047 26.2897 15.8946 26.965 16.464C26.3824 16.7289 25.7203 17.0864 25.0053 17.3115C24.8067 17.3777 24.4491 17.1129 24.2108 16.9407C23.072 16.0138 21.9994 14.9942 20.7944 14.1468C19.457 13.2066 17.8681 12.7961 16.2393 12.6505C15.9083 12.624 15.5508 12.7431 15.2065 12.7961C15.18 12.7431 15.1535 12.6902 15.127 12.6372C16.2791 12.0413 17.4178 11.4057 18.5831 10.8496C20.1853 10.0551 21.2976 10.6112 22.3702 11.7765ZM16.1334 13.2596C17.2192 13.2198 18.3712 13.6303 19.4173 14.0541C21.1387 14.7426 22.5688 15.8946 23.6811 17.3909C24.4094 18.3708 24.1975 19.1388 23.0588 19.589C20.6885 20.5292 18.2785 20.6881 15.8156 19.973C14.0015 19.4434 12.9025 18.0795 11.8961 16.6097C11.618 16.1992 11.4459 15.7225 11.1943 15.2458C12.6773 14.0276 14.3458 13.339 16.1334 13.2596ZM14.3458 19.9598C16.7558 21.1648 19.2849 21.2178 21.8538 20.5954C22.4099 20.463 22.9661 20.2511 23.5355 20.1717C23.787 20.132 24.1578 20.2246 24.3167 20.3968C24.7802 20.9397 25.1642 21.5488 25.6541 22.2506C24.3564 21.9063 23.2839 22.3036 22.2113 22.6876C21.1387 23.0716 20.0794 23.5086 18.9804 23.8264C17.206 24.3295 16.1599 23.9191 15.1668 22.3698C14.5577 21.4164 13.9883 20.4365 13.4983 19.3772C13.7632 19.5626 14.028 19.8009 14.3458 19.9598ZM23.2309 22.9524C24.7007 22.489 26.0646 22.6214 27.5212 23.4423C25.7733 24.6076 24.1181 25.7067 22.4629 26.8057C21.6419 27.3486 20.715 27.6929 19.7351 27.7326C19.3908 27.7459 18.9539 27.4678 18.689 27.203C17.974 26.4747 17.3251 25.6669 16.5571 24.793C19.0466 24.7533 21.0725 23.6277 23.2309 22.9524ZM26.5413 24.7135C27.455 23.972 28.5143 23.6145 29.7193 23.6145C30.3814 23.6145 31.0302 23.4953 31.8512 23.4026C31.6261 23.5748 31.5201 23.6542 31.4142 23.7204C29.706 24.7135 28.3951 26.0907 27.5741 27.865C27.018 29.07 26.1043 29.4805 24.9126 29.5202C23.3104 29.5864 21.867 28.9773 20.3442 28.3153C22.741 27.534 24.6875 26.2231 26.5413 24.7135ZM26.7929 31.4138C27.2696 29.3216 28.1833 27.4016 29.6663 25.8391C31.0567 24.356 32.7913 23.3629 34.8041 22.9789C35.7045 22.8068 36.6314 22.8597 37.6245 22.8068C37.6245 23.5748 37.651 24.2104 37.598 24.846C37.5848 24.9784 37.3067 25.177 37.1346 25.2035C34.036 25.5213 31.8247 27.2162 30.2092 29.7453C28.9645 31.6786 29.0042 33.6913 30.2622 35.6114C31.7585 37.9154 33.7977 39.4779 36.5519 39.9943C37.6377 40.193 37.6377 40.2194 37.6377 41.3317C37.6377 41.6628 37.6377 41.9938 37.6377 42.3513C34.7776 42.7486 32.4338 41.8217 30.3681 40.0738C28.3422 38.3656 27.3093 36.0616 26.7267 33.5589C26.5545 32.8836 26.634 32.1023 26.7929 31.4138ZM36.3136 43.3577C35.0689 44.3905 33.8507 45.4896 32.553 46.4695C30.6859 47.8863 28.6202 48.416 26.3692 47.4626C24.6742 46.7475 24.661 45.7412 26.0249 44.2714C27.8522 42.2719 30.196 42.1792 32.6457 42.6294C33.8639 42.8678 35.0954 43.1194 36.3136 43.3577ZM27.2696 36.9223C28.3024 38.935 29.6531 40.6167 31.8114 41.7819C29.4412 41.8084 27.402 41.4774 25.6276 39.8884C24.1313 38.5642 22.3702 37.5446 20.3045 36.9753C22.2908 36.1543 24.1711 35.2671 26.303 36.0616C26.6737 36.194 27.071 36.5515 27.2696 36.9223ZM21.2447 37.8757C22.8601 38.8026 24.4094 39.8487 25.9719 40.855C26.4618 41.1728 26.9385 41.5039 27.4682 41.8614C25.7071 42.9207 23.9989 42.6559 22.2643 42.0203C20.8077 41.4906 19.3114 41.0404 17.8283 40.6034C17.4841 40.4975 17.1 40.5372 16.5439 40.4975C17.4311 39.5176 18.1461 38.5245 19.073 37.7565C19.6689 37.2401 20.5958 37.5049 21.2447 37.8757ZM18.5963 41.3715C19.6557 41.6363 20.6753 42.0865 21.7214 42.3911C22.7012 42.6824 23.7076 42.934 24.714 43.1458C24.9788 43.1988 25.2833 43.0929 25.6276 43.0531C25.1642 43.702 24.7669 44.2846 24.3432 44.8408C24.0519 45.2248 23.6679 45.1453 23.2706 45.0261C21.6949 44.5759 20.1059 44.1919 18.4507 44.2846C17.0603 44.3508 15.6832 44.5759 14.4385 45.2512C14.1207 45.4234 13.8294 45.6617 13.4056 45.8206C13.8559 45.0659 14.2796 44.2979 14.743 43.5563C15.0476 43.0664 15.3919 42.5897 15.7626 42.1527C16.5042 41.239 17.537 41.1066 18.5963 41.3715ZM17.7356 44.9202C19.6027 44.7613 21.3771 45.0394 23.0852 45.7015C24.1975 46.1384 24.4359 46.9329 23.6944 47.8598C21.867 50.1639 19.563 51.7396 16.5571 51.9647C14.5577 52.1104 12.8098 51.2629 11.1943 50.0579C12.5185 47.1978 14.3988 45.185 17.7356 44.9202ZM21.6949 50.5611C22.5821 49.9123 23.3633 49.131 24.171 48.3763C24.5815 47.9922 24.9258 47.8069 25.482 48.1379C25.9719 48.4292 26.5281 48.6146 27.1239 48.8794C26.6737 49.1443 26.197 49.3297 25.866 49.6475C25.0847 50.4155 24.3829 51.2629 23.6414 52.0707C23.019 52.7592 22.4232 53.5008 21.7214 54.0966C21.0725 54.6395 20.2913 54.9971 19.3644 54.719C17.8283 54.2423 16.5042 53.3816 15.0211 52.4944C17.6562 52.8519 19.7616 51.9647 21.6949 50.5611ZM25.4555 50.7862C26.4883 49.6607 27.7595 48.9986 29.3618 49.0516C28.3024 51.3291 27.4682 53.7126 25.9322 55.7253C25.1642 56.7185 24.4756 56.9436 23.2441 56.5993C23.0455 56.5463 22.8469 56.4934 22.6483 56.4139C22.0259 56.1756 21.4168 55.9372 20.715 55.6591C22.7145 54.3747 23.9459 52.4414 25.4555 50.7862ZM32.8443 48.8927C33.8771 46.496 35.3205 44.47 37.9688 43.5563C38.3131 44.1654 38.6573 44.7745 38.9884 45.3572C38.2733 46.059 37.4656 46.7078 36.8433 47.5023C35.7574 48.8794 35.1616 50.4949 34.9894 52.256C34.9232 52.9578 34.9365 53.6729 35.0159 54.3615C35.2807 56.692 36.9227 57.8705 38.8825 58.6517C41.4381 59.6846 44.007 59.6713 46.5361 58.4399C46.9201 59.0755 47.2644 59.6846 47.6484 60.3202C46.4302 61.3133 45.0795 61.9754 43.5038 62.1343C41.6367 62.3196 39.8094 62.174 38.088 61.3663C36.3798 60.5585 34.8703 59.4595 33.6255 58.0426C32.6324 56.9038 32.4735 55.4208 32.3279 54.0172C32.1557 52.2825 32.1425 50.5214 32.8443 48.8927ZM34.2744 60.638C34.8835 60.4526 35.4661 60.4658 36.0488 60.8631C37.3597 61.7635 38.7898 62.4256 40.3788 62.6639C40.9746 62.7566 41.5837 62.7963 42.2591 62.8626C40.2066 63.9351 38.2601 64.7429 35.8766 64.2C33.9963 63.7762 32.0101 63.8292 29.9841 64.3589C31.1759 62.7169 32.3279 61.2206 34.2744 60.638ZM30.7521 64.7826C32.1557 64.6502 33.5593 64.6237 34.9762 64.6634C36.1679 64.7031 37.3597 64.9018 38.5779 65.0342C37.9291 66.3716 36.777 67.1131 35.3999 67.4574C33.9169 67.8282 32.3941 68.0135 30.911 68.3446C30.1165 68.53 29.3485 68.8478 28.5143 69.1258C28.7394 68.0135 28.8983 66.8615 29.2029 65.7625C29.3882 65.0739 30.1563 64.8356 30.7521 64.7826ZM28.6335 71.0856C28.8056 69.7879 29.8252 69.1788 31.0037 68.9007C32.0233 68.6624 33.0826 68.5432 34.1155 68.3446C35.3072 68.1062 36.5255 67.9341 37.598 66.9674C37.5318 67.8546 37.5583 68.5432 37.3994 69.192C37.3332 69.4569 36.9095 69.7482 36.5917 69.8276C34.5525 70.3838 32.5662 71.0326 30.9243 72.423C29.8782 73.3102 28.8851 74.2503 28.5143 75.6672C28.4481 75.6539 28.3951 75.6407 28.3289 75.6274C28.4348 74.1179 28.4481 72.5819 28.6335 71.0856ZM30.3019 73.7604C31.7055 72.2641 33.4666 71.2842 35.4661 70.781C36.0223 70.6354 36.6049 70.5294 37.1743 70.503C37.9688 70.4765 38.4587 70.9134 38.3528 71.6947C38.1939 72.807 37.9423 73.9325 37.5451 74.9918C36.8433 76.8324 35.7177 78.4347 33.9698 79.4145C32.7516 80.1031 31.3612 80.4077 29.9179 80.3017C29.5074 80.2752 29.0969 80.3017 28.6335 80.3017C28.4348 77.8653 28.5937 75.5877 30.3019 73.7604ZM33.3475 80.3017C35.2278 79.7191 36.3401 78.2625 37.3332 76.7C38.2204 75.3229 38.6573 73.7604 39.0546 72.1846C39.1738 71.7079 39.4386 71.4431 39.9683 71.4431C40.5641 71.4299 41.16 71.3372 41.8883 71.2577C40.4847 72.9924 40.6436 75.0581 40.1801 76.9516C40.0742 77.3886 40.008 77.852 39.8623 78.2758C39.4121 79.6529 38.3793 80.315 37.0154 80.3944C35.7707 80.4739 34.526 80.4077 33.2813 80.4077C33.2945 80.3944 33.3078 80.315 33.3475 80.3017ZM41.1865 74.4225C41.3719 73.2572 41.7956 72.2244 42.5371 71.3239C42.8814 70.9134 43.3581 70.6089 43.8216 70.2116C43.954 71.3107 44.1394 72.2773 44.1791 73.2572C44.2321 74.7403 44.2453 76.2366 44.1658 77.7329C44.1394 78.2625 43.8613 78.8054 43.5832 79.2821C43.2125 79.9177 42.4709 79.8383 41.8618 79.9839C41.1468 80.1561 40.4052 80.2223 39.6372 80.3415C40.6568 78.4744 40.8819 76.4352 41.1865 74.4225ZM39.677 70.397C38.9089 70.344 38.5117 69.9601 38.472 69.1788C38.3793 67.3382 39.1208 65.8816 40.4979 64.7164C41.7956 63.6041 43.3978 63.1406 44.9603 62.5977C45.6621 62.3594 46.364 62.0813 47.1452 61.8032C46.3507 63.7497 45.7151 65.736 44.7485 67.5501C43.7024 69.4701 41.981 70.5294 39.677 70.397ZM57.2618 73.2042C56.3614 73.3764 55.408 73.3102 54.4943 73.2307C52.7199 73.0851 51.8062 71.8271 51.0647 70.4103C50.2305 68.8213 49.9259 67.1131 50.151 65.3387C50.2702 64.3986 50.641 63.4849 50.9058 62.5315C51.8195 62.8096 52.561 63.0347 53.2363 63.2333C53.1172 64.3059 52.945 65.3387 52.8788 66.3848C52.7994 67.6693 53.2761 68.7948 54.1368 69.7349C54.8386 70.5029 55.8052 70.503 56.7321 70.4235C58.149 70.3043 59.3539 69.6687 60.3338 68.6359C60.6119 68.3446 60.8767 68.0665 61.1548 67.7752C61.7904 68.3578 62.373 68.914 62.9821 69.4701C61.6315 71.5888 59.6453 72.7408 57.2618 73.2042ZM57.6723 69.6423C55.2623 70.3441 53.8719 69.5628 53.4482 66.8615C53.2628 65.6301 53.4879 64.6634 53.9911 63.3525C54.3222 63.3525 54.6797 63.3657 55.0239 63.3525C55.3682 63.326 55.7125 63.2598 55.9774 63.2201C55.9111 64.0675 55.7655 64.9018 55.7787 65.736C55.792 66.888 56.6527 67.4574 57.6988 66.9674C58.48 66.5967 59.1818 66.0273 59.9101 65.5374C60.1617 66.067 60.4662 66.6761 60.7708 67.3117C59.9233 68.2916 58.9964 69.2582 57.6723 69.6423ZM56.3613 64.9944C56.4408 64.4118 56.56 63.8027 56.7983 63.2598C56.944 62.942 57.3148 62.7037 57.6326 62.4918C58.427 61.9489 59.248 61.4457 59.8704 61.0352C59.8306 61.8165 59.7644 62.8625 59.738 63.9086C59.7115 64.915 58.2152 66.3848 57.2088 66.3583C56.6659 66.3451 56.2554 65.7227 56.3613 64.9944ZM55.1696 62.7301C54.481 62.8493 53.713 62.7169 53.0245 62.558C51.6209 62.227 50.2702 61.7105 49.0917 60.8631C47.8338 59.9626 47.2114 58.612 46.748 57.2084C46.4699 56.3742 46.258 55.487 46.1256 54.6131C45.9667 53.6199 46.3242 52.693 46.7347 51.7926C47.5425 50.0712 48.8534 48.8397 50.4688 47.8863C50.8529 47.6612 51.0515 47.6745 51.3693 47.979C52.4286 48.9854 53.6071 49.8858 55.0902 50.1109C55.9773 50.2433 56.9043 50.1374 57.9503 50.1374C56.8778 51.2629 55.8847 52.3223 54.8915 53.3683C54.6532 53.6199 54.4281 53.5802 54.1235 53.4478C51.8195 52.4149 48.8799 53.898 48.8004 56.9833C48.7607 58.5193 50.9058 60.4658 52.7332 59.9891C54.971 59.4197 56.0436 57.2216 55.6596 55.4605C55.6066 55.1957 55.5404 54.9176 55.3947 54.6925C55.2093 54.4012 55.2755 54.1893 55.4874 53.9907C56.5335 52.9976 57.5796 52.0045 58.6654 50.9716C58.6654 51.7926 58.5859 52.5341 58.6919 53.2624C58.7846 53.951 58.9567 54.666 59.2878 55.2619C59.7777 56.1226 60.4398 56.8774 61.0092 57.6851C61.1018 57.8175 61.1416 58.0823 61.0754 58.2148C59.7777 60.5718 57.8974 62.2534 55.1696 62.7301ZM55.1961 56.0696C55.2226 57.4997 53.4614 59.2344 52.0049 59.2211C51.0515 59.2079 49.6479 57.7778 49.6611 56.8244C49.6743 55.3678 51.3825 53.6729 52.8126 53.6994C53.9911 53.7259 55.1829 54.9044 55.1961 56.0696ZM60.8503 56.6523C59.4466 54.9441 58.7581 53.0241 59.4731 50.8657C59.7777 49.9388 60.453 49.1178 60.9827 48.2306C61.6315 48.6014 62.095 48.8794 62.426 49.0648C61.989 50.0844 61.4329 51.0908 61.1283 52.1634C60.5987 53.9907 61.8699 56.2153 63.4721 56.4669C65.1803 56.7317 66.5971 56.1888 67.63 54.7984C68.0934 54.1761 68.4509 53.461 68.8614 52.7725C69.2851 53.0108 69.7486 53.2889 70.2253 53.567C69.6956 56.4934 67.1135 58.1221 64.8889 58.0823C64.2004 58.0691 63.4986 58.0161 62.81 57.897C61.989 57.7645 61.3799 57.2878 60.8503 56.6523ZM68.345 52.2958C67.6962 53.8053 66.9944 55.3016 65.2597 55.818C63.247 56.4139 61.8169 55.2619 61.6183 53.3154C61.4594 51.7661 62.2406 50.5611 63.1411 49.4223C63.194 49.3561 63.3132 49.3032 63.4059 49.2899C63.9885 49.2502 64.5579 49.237 65.22 49.1972C64.6903 49.8858 64.2004 50.4684 63.7766 51.104C63.5515 51.4351 63.3662 51.8456 63.2999 52.2428C63.141 53.1697 63.4721 53.7788 64.2269 54.0701C64.7962 54.2952 65.6437 54.0304 66.0674 53.3551C66.4912 52.6798 66.7957 51.925 67.1532 51.1967C67.2592 50.9584 67.3386 50.7068 67.4446 50.4419C67.7624 51.0246 68.0537 51.5675 68.345 52.1236C68.345 52.1633 68.3582 52.2428 68.345 52.2958ZM66.1469 49.2105C66.3985 48.9854 66.6898 48.7868 67.0473 48.5219C67.0076 50.2301 66.5044 51.6867 65.5907 52.9976C65.3259 53.3816 64.9287 53.6332 64.4122 53.4875C63.8693 53.3286 63.6575 52.7592 63.9488 52.0309C64.4122 50.8789 65.2597 50.0182 66.1469 49.2105ZM65.3656 48.4954C64.1077 48.7868 62.8895 48.853 61.7507 47.9923C59.301 46.1384 60.0028 42.7751 61.9625 41.292C62.0685 41.2126 62.3333 41.2655 62.4657 41.3582C62.7438 41.5436 62.9689 41.782 63.2602 42.0335C62.8895 42.5235 62.5054 42.9869 62.1744 43.4901C61.4726 44.5362 61.5785 45.5293 62.3068 46.39C63.2867 47.5288 64.5446 47.3434 65.3656 46.7873C65.882 46.443 66.3588 46.0457 66.8619 45.675C67.14 46.006 67.4446 46.3371 67.7756 46.7343C67.1533 47.542 66.425 48.2571 65.3656 48.4954ZM67.087 43.6358C67.193 43.3312 67.2459 42.9869 67.3784 42.6956C67.8815 41.5833 67.8948 41.676 69.0865 41.7157C69.8281 41.7422 70.5961 41.4641 71.3641 41.3185C71.2317 42.3116 71.7216 43.1856 72.4366 43.9933C72.5161 44.086 72.5691 44.2978 72.5161 44.4038C71.9335 45.7279 70.7682 46.9462 68.9806 46.5754C67.961 46.3768 66.7163 44.6819 67.087 43.6358ZM70.9668 36.5118C70.7417 36.5648 70.5166 36.578 70.2915 36.5648C69.8545 36.525 69.6692 36.2205 69.8943 35.8365C70.1061 35.4922 70.3445 35.0949 70.6755 34.8831C71.6422 34.2607 72.7015 33.8502 74.0256 33.9694C73.1914 35.1876 72.3704 36.194 70.9668 36.5118ZM72.3307 38.1935C72.4764 37.0017 73.2444 36.194 74.1051 35.4525C74.3169 35.2671 74.5818 35.1347 74.9393 34.8831C74.9261 36.4986 74.595 37.8492 73.3768 38.8158C73.1782 38.9747 72.7147 39.1204 72.6353 39.0277C72.4366 38.8423 72.291 38.4716 72.3307 38.1935ZM74.8599 30.3412C73.6549 29.5335 72.6618 28.6595 72.3572 27.2294C72.3175 27.0308 72.2778 26.8057 72.3307 26.6071C72.4234 26.2496 72.6485 25.9847 73.059 26.2363C73.39 26.4349 73.7343 26.6601 73.9859 26.9514C74.5818 27.6399 75.0188 29.3216 74.8599 30.3412ZM73.4165 30.4604C73.6019 30.6723 73.7476 30.9371 74.0124 31.3211C72.3572 31.3079 70.9933 30.9636 70.0267 29.7056C69.881 29.5202 69.7618 29.0965 69.8678 29.0038C70.0532 28.8184 70.4107 28.6728 70.6623 28.7125C71.854 28.8317 72.6882 29.5864 73.4165 30.4604ZM71.3508 24.1706C70.3842 23.4821 69.4176 23.3761 68.3847 23.6542C68.2523 23.6939 68.014 23.6012 67.9345 23.4953C66.9149 22.052 66.6103 20.7146 67.8418 19.3904C68.7687 18.3841 70.3312 18.3046 71.4038 19.2845C71.8408 19.6817 72.1851 20.1982 72.4896 20.7146C72.5823 20.8602 72.5029 21.231 72.3704 21.3899C71.5097 22.4492 71.3773 22.7935 71.3508 24.1706ZM66.8752 19.6288C66.3985 19.2713 65.935 18.874 65.4318 18.5562C63.7634 17.4969 62.6511 18.1722 61.8434 19.5361C61.4726 20.1584 61.6183 20.9264 62.0288 21.562C62.3995 22.1314 62.8232 22.6743 63.2337 23.257C62.8762 23.5483 62.5452 23.8264 62.2141 24.1177C60.8503 23.4291 59.9895 21.5223 60.1882 19.7479C60.3338 18.4105 61.8169 16.8216 63.1411 16.6362C65.0081 16.3978 66.5971 16.8878 67.7491 18.5827C67.471 18.927 67.1797 19.2713 66.8752 19.6288ZM64.1342 13.6436C63.684 12.8491 63.7766 12.0678 64.2931 11.7898C64.7698 11.5382 65.4054 11.8295 65.8423 12.6107C66.5441 13.8687 67.0606 15.1928 67.0341 16.7156C65.8026 15.9079 64.836 14.8883 64.1342 13.6436ZM67.4843 14.7426C67.0341 13.829 66.6236 12.8491 66.0807 11.9487C65.6702 11.2601 64.8227 10.9953 64.2666 11.1939C63.3794 11.5249 62.9557 12.4121 63.3926 13.339C63.7237 14.0673 64.2401 14.7029 64.6903 15.3782C64.8492 15.6166 65.0346 15.8152 65.2597 16.0933C64.5711 16.0535 63.9753 16.0271 63.3794 16.0006C63.2999 16.0006 63.2073 15.9608 63.1675 15.8946C62.1612 14.6102 61.3402 13.2728 61.6977 11.5117C62.2141 8.94281 65.0214 8.86336 66.4514 10.0816C67.3386 10.8364 67.8683 11.803 68.292 12.8491C68.3318 12.955 68.3317 13.1272 68.2788 13.2331C68.0139 13.7495 67.7359 14.2659 67.4843 14.7426ZM66.9414 9.77703C65.7496 8.50584 63.5648 8.32045 62.3333 9.34006C61.1813 10.3067 60.7576 11.6309 61.1018 13.0477C61.3667 14.1335 61.9493 15.1266 62.3995 16.186C62.042 16.3978 61.605 16.6627 61.1548 16.9275C58.8375 15.0339 58.6654 11.5646 60.2147 9.52544C60.8635 8.67798 61.3799 7.72459 62.5054 7.44651C65.1538 6.78443 67.2062 7.10223 69.0865 9.20764C69.6692 9.85648 69.934 10.7966 70.3445 11.6309C69.987 11.8162 69.7354 11.9487 69.4838 12.0943C69.2587 12.2267 69.0336 12.3856 68.9541 12.4518C68.2788 11.5514 67.6962 10.5848 66.9414 9.77703ZM60.9165 7.72458C60.0425 8.57204 59.2877 9.56517 58.9832 10.7304C58.6919 11.8295 58.7051 13.008 58.5727 14.1997C57.5663 13.2463 56.507 12.2532 55.4609 11.2336C55.355 11.1277 55.3285 10.8099 55.3947 10.651C56.3878 8.38666 55.2623 5.42055 51.9387 5.19544C50.8396 5.11599 49.9259 5.83104 49.3433 6.78443C48.5488 8.09535 48.7474 9.79027 49.7141 10.8761C50.7072 11.9884 52.6007 12.571 54.1632 11.8162C54.4678 11.6706 54.6664 11.6971 54.8651 11.8957C55.8582 12.9418 56.8513 13.9879 57.8841 15.0869C57.0499 15.0869 56.2951 15.0339 55.5536 15.1001C54.971 15.1531 54.3221 15.259 53.8322 15.5504C52.945 16.0668 52.1108 16.7024 51.3031 17.338C50.9985 17.5763 50.8131 17.6293 50.5086 17.4042C49.8465 16.901 49.1182 16.4905 48.5091 15.9344C47.1982 14.7294 46.3772 13.2198 46.1124 11.4587C46.0064 10.8099 46.1256 10.0816 46.2977 9.41951C46.6553 8.02914 47.1585 6.6785 47.9927 5.5C48.8931 4.24205 50.2437 3.61969 51.6341 3.143C52.4683 2.85168 53.3423 2.6663 54.2162 2.5074C55.2358 2.33526 56.176 2.70602 57.0896 3.143C58.811 3.95073 60.0293 5.26165 60.9827 6.87712C61.221 7.23465 61.221 7.43327 60.9165 7.72458ZM54.6532 10.5848C53.8455 11.6176 52.667 11.803 51.4355 11.1542C50.4821 10.651 49.9789 9.79027 49.7141 8.81039C49.6214 8.43963 49.7273 7.90997 49.9392 7.59217C50.4424 6.87712 50.9985 6.14883 52.0314 6.02966C53.2363 6.25477 54.2427 6.82416 54.8253 7.96293C55.2888 8.85012 55.3153 9.75055 54.6532 10.5848ZM57.6326 2.81196C57.1559 2.53388 56.7189 2.22932 56.6527 1.63345C56.5732 0.984616 56.4276 0.335781 56.454 -0.299816C56.4938 -0.975136 56.9837 -1.21349 57.6061 -1.00162C58.8508 -0.591133 59.6982 0.574127 59.7247 1.8718C59.738 2.73251 59.8306 3.59321 59.8704 4.24205C59.2215 3.81832 58.4403 3.28865 57.6326 2.81196ZM59.8704 -0.180641C59.3539 -0.591133 58.8508 -1.04135 58.2946 -1.41211C57.6855 -1.8226 56.9837 -2.08743 56.3084 -1.62397C55.6728 -1.187 55.6993 -0.418995 55.7258 0.256329C55.7522 0.838959 55.9376 1.42159 56.0568 2.0307C55.3682 1.97773 54.6664 1.93801 53.9514 1.88504C53.435 0.454952 53.1304 -1.04135 53.6468 -2.53765C54.3751 -4.61658 55.5933 -4.98734 57.8179 -4.31202C59.0759 -3.92801 59.9366 -2.97462 60.7708 -2.04771C60.4662 -1.41211 60.1617 -0.789757 59.8704 -0.180641ZM58.9567 -4.39147C58.0828 -4.96086 57.0764 -5.23893 56.0038 -5.21245C54.3222 -5.17272 53.3423 -3.92801 52.9715 -2.24633C52.6537 -0.816238 52.8391 0.600609 53.382 2.00422C52.5478 2.25581 51.793 2.48092 50.9853 2.73251C50.3629 1.34214 49.9392 -0.048229 50.0981 -1.5975C50.2702 -3.30566 50.7072 -4.86816 51.7533 -6.27177C52.9053 -7.82104 54.4546 -8.27126 56.2422 -8.03291C57.3015 -7.88725 58.3476 -7.59593 59.354 -7.25165C60.9165 -6.70874 62.0155 -5.54348 62.9821 -4.20608C62.3863 -3.64994 61.7904 -3.10704 61.221 -2.57737C60.4795 -3.18649 59.7645 -3.8618 58.9567 -4.39147ZM28.6202 5.10275C28.6202 5.11599 28.6202 5.12923 28.6202 5.10275V5.10275ZM28.5937 5.07626C27.4815 4.99681 26.3956 4.91737 25.3098 4.83792C25.1774 4.82468 24.9788 4.79819 24.9391 4.71875C24.5948 3.99046 24.277 3.26217 23.9062 2.41471C24.7802 2.33526 25.5085 2.26905 26.25 2.21608C26.3692 2.20284 26.5545 2.25581 26.6207 2.33526C27.2961 3.23569 27.9449 4.16259 28.5937 5.07626ZM25.7865 -0.683826C25.9057 0.0709458 26.0778 0.812477 26.2235 1.54076C25.2833 1.69966 24.33 1.84532 23.2044 2.0307C23.6017 3.0503 23.9459 3.92425 24.3167 4.85116C23.4825 5.12923 22.6218 5.42055 21.6816 5.72511C20.9666 3.80508 20.2515 1.89828 19.4968 -0.127678C20.9004 -0.366028 22.1716 -0.591133 23.4428 -0.816242C24.0122 -0.908932 24.5815 -1.00162 25.1509 -1.08107C25.4687 -1.10756 25.7203 -1.09431 25.7865 -0.683826ZM19.2584 0.8522C19.8278 2.56036 20.5031 4.24205 21.152 5.98994C20.2383 6.47988 19.2849 6.9963 18.2785 7.5392C17.2325 4.12287 16.2129 0.772747 15.18 -2.60386C18.5831 -3.38511 21.9994 -4.1796 25.5349 -4.98734C25.5349 -3.8618 25.5349 -2.80248 25.5349 -1.71667C23.8135 -1.42535 21.9862 -1.1208 20.1721 -0.776516C18.6361 -0.49844 18.7685 -0.630859 19.2584 0.8522ZM10.85 -5.10651C15.8024 -6.35122 20.6753 -7.56945 25.6011 -8.81416C25.6011 -7.6489 25.6011 -6.65578 25.6011 -5.62294C23.2839 -5.08003 21.0196 -4.53712 18.7685 -4.0207C17.537 -3.74263 16.3055 -3.4778 15.0608 -3.22621C14.5841 -3.13352 14.4517 -2.92165 14.6106 -2.44495C15.4978 0.349018 16.3585 3.14299 17.2192 5.93697C17.3516 6.34746 17.3781 6.81091 17.5635 7.19492C17.8548 7.80403 17.5767 8.12183 17.0868 8.38666C16.4644 8.73094 15.8553 9.07523 15.0211 9.52544C13.6307 4.62605 12.2536 -0.180645 10.85 -5.10651ZM10.3866 18.4768C9.6053 17.0864 8.81081 15.696 8.05604 14.3719C9.5391 13.4979 11.1281 12.5842 12.7038 11.6309C14.9549 10.2802 17.1663 8.8766 19.4306 7.57893C20.5429 6.94333 21.7346 6.44015 22.9131 5.93697C24.8464 5.11599 26.8326 5.19544 28.7526 5.884C30.0636 6.34746 31.2818 7.08899 32.5662 7.71135C32.3941 8.28073 32.2484 8.77067 32.0895 9.24736C31.3348 8.90308 30.6462 8.50584 29.9179 8.26749C27.2563 7.36706 24.6213 7.40679 21.9862 8.4926C18.8479 9.77703 16.001 11.5382 13.1408 13.2993C12.3728 13.776 11.618 14.2924 10.8235 14.7294C10.4792 14.928 10.4395 15.0737 10.6382 15.4047C12.0418 17.9206 13.4454 20.4365 14.8357 22.9657C15.8951 24.8989 17.2192 26.6203 18.8215 28.1299C19.894 29.1362 21.1652 29.7586 22.6085 30.1823C23.8135 30.5398 24.992 30.8444 26.3692 30.7385C26.2235 31.2946 26.1176 31.7581 26.0116 32.1818C23.0985 32.5923 20.3972 32.1553 18.0402 30.3809C16.6366 29.3084 15.6435 27.8518 14.7828 26.3158C13.2732 23.7204 11.8431 21.0853 10.3866 18.4768ZM10.4793 33.1352C12.055 34.4461 13.6175 35.7835 15.2065 37.1209C14.6504 38.0081 14.081 38.9218 13.4983 39.8752C10.9162 37.4652 8.3606 35.0817 5.752 32.6452C8.32087 30.2485 10.8897 27.8518 13.4983 25.4154C14.0677 26.329 14.6503 27.2559 15.233 28.1828C13.975 29.2157 12.7303 30.2353 11.4856 31.2549C11.1016 31.5727 10.7176 31.8905 10.3601 32.248C10.0158 32.579 10.1482 32.8571 10.4793 33.1352ZM10.7044 32.6452C12.3596 31.2814 13.9353 29.9837 15.5375 28.6595C16.2129 29.4011 16.7822 30.0499 17.3914 30.7252C16.7955 31.2019 16.1996 31.6919 15.5905 32.1686C15.1668 32.4996 15.1933 32.8041 15.6037 33.1219C16.1996 33.5854 16.7955 34.0753 17.4046 34.552C16.7955 35.2274 16.1996 35.8894 15.5508 36.6177C13.9618 35.3068 12.3993 34.0224 10.7044 32.6452ZM15.8024 32.632C16.5174 32.1156 17.1265 31.6654 17.7621 31.2416C17.8548 31.1754 18.0402 31.1887 18.1461 31.2284C19.1922 31.7051 20.2383 32.195 21.2049 32.6452C20.1853 33.0955 19.0598 33.5854 17.8416 34.1151C17.2457 33.6781 16.5704 33.1882 15.8024 32.632ZM6.61271 38.3259C4.82509 36.6045 3.06396 34.8698 1.27635 33.1617C0.945307 32.8439 0.812886 32.5658 1.19689 32.195C2.81237 30.6193 4.40136 29.0303 6.01683 27.4678C7.8839 25.6669 9.77744 23.9058 11.724 22.0652C12.2139 22.9259 12.6641 23.6939 13.0614 24.4884C13.1408 24.6473 13.0614 24.9916 12.9289 25.124C10.4925 27.4148 8.02955 29.6791 5.56662 31.9435C4.86481 32.5923 4.86481 32.685 5.56662 33.3338C7.27478 34.8963 8.95647 36.4721 10.6514 38.0346C11.3797 38.7099 12.0947 39.3985 12.8495 40.0473C13.1673 40.3121 13.2203 40.5637 13.0216 40.908C12.6111 41.6231 12.2007 42.3513 11.6975 43.212C9.96283 41.5436 8.28115 39.9414 6.61271 38.3259ZM14.4915 54.7322C12.3066 53.461 10.1615 52.1369 8.06928 50.8789C9.71124 47.9923 11.4062 44.9997 13.1011 42.0071C14.028 40.3783 14.9152 38.7364 15.9215 37.1606C17.59 34.552 20.1324 33.3073 23.1382 32.9233C23.6811 32.8571 24.2505 32.9895 24.8067 33.016C25.1774 33.0293 25.76 32.8306 25.866 32.9895C26.1308 33.4 26.197 33.9429 26.3427 34.4858C25.6806 34.5256 25.0847 34.5123 24.4889 34.605C21.1652 35.0817 18.5699 36.7766 16.6631 39.5044C15.67 40.9345 14.7563 42.4175 13.8559 43.9138C13.1143 45.1453 12.4522 46.4165 11.7637 47.6745C11.3532 48.416 10.9559 49.1575 10.5984 49.9255C10.5322 50.0712 10.6249 50.4155 10.7573 50.4817C13.9221 52.3752 17.0736 54.3085 20.3045 56.0696C22.0259 57.0098 23.9459 57.6321 25.9454 57.6719C26.7929 57.6851 27.6536 57.407 28.5143 57.3143C29.7855 57.1687 30.911 56.692 32.0498 55.924C32.2219 56.4801 32.3676 56.9568 32.5 57.4203C30.4078 58.943 28.1568 59.9759 25.4952 59.8832C24.1313 59.8435 22.8469 59.486 21.6816 58.8504C19.2584 57.5262 16.8749 56.1358 14.4915 54.7322ZM28.5937 60.1878C28.2495 60.638 27.8522 61.1147 27.4814 61.6178C27.2166 61.9621 26.965 62.3196 26.7664 62.7037C26.6075 62.995 26.4486 63.1406 26.1043 63.1009C25.4158 63.0082 24.7272 62.942 23.9195 62.8493C24.2637 62.0548 24.5815 61.3398 24.9126 60.6247C24.9523 60.532 25.1377 60.4791 25.2701 60.4658C26.3692 60.3599 27.4815 60.2672 28.5937 60.1878ZM19.4041 65.8949C21.483 66.2656 23.5487 66.6629 25.5614 67.0337C25.5614 68.0665 25.5614 69.1126 25.5614 70.2646C22.0392 69.4569 18.6228 68.6756 15.18 67.8811C16.1996 64.5442 17.2325 61.1676 18.2785 57.7381C19.2717 58.2677 20.2118 58.7709 21.1652 59.2873C20.6753 60.5585 20.1853 61.8032 19.7219 63.0744C19.4438 63.8159 19.2055 64.5707 18.9804 65.3255C18.8744 65.683 19.0333 65.8287 19.4041 65.8949ZM25.6144 74.0914C20.7018 72.86 15.8289 71.6417 10.8765 70.397C12.3066 65.4844 13.4321 60.585 15.1403 55.7783C16.054 56.308 16.9014 56.7847 17.7621 57.2878C17.537 58.1353 17.3649 58.9298 17.1265 59.6846C16.332 62.2667 15.511 64.8355 14.7033 67.4044C14.412 68.3181 14.4252 68.3048 15.3919 68.5167C17.7489 69.0464 20.1059 69.6025 22.4761 70.1454C23.3633 70.3441 24.2505 70.5692 25.1377 70.7678C25.4687 70.834 25.6409 70.9664 25.6409 71.3372C25.6011 72.1979 25.6144 73.0586 25.6144 74.0914ZM25.76 66.0405C25.7336 66.173 25.4555 66.3583 25.3363 66.3451C23.4428 66.0538 21.5492 65.736 19.4968 65.4049C20.2515 63.379 20.9666 61.4589 21.6816 59.5522C22.6218 59.8435 23.4692 60.1215 24.33 60.3864C23.9724 61.2868 23.6281 62.174 23.2044 63.2333C24.3167 63.4055 25.2569 63.5511 26.2235 63.71C26.0778 64.4648 25.9454 65.2593 25.76 66.0405ZM34.2611 82.619C32.1028 82.5925 29.9311 82.5396 27.7728 82.5263C27.2696 82.5263 26.7532 82.619 26.2765 82.672C26.2765 80.0766 26.303 77.4813 26.2632 74.8992C26.2367 73.3366 26.0249 71.7609 26.0911 70.1984C26.1838 67.8944 26.0381 65.5109 27.0974 63.3525C27.9846 61.5516 29.2161 60.0289 31.0832 59.1152C31.6923 58.8106 32.2749 58.4399 32.8178 58.1221C33.2018 58.4664 33.5726 58.8106 33.9698 59.1682C33.2813 59.6581 32.553 60.0421 31.9836 60.585C30.4343 62.0681 29.0704 63.6835 28.5673 65.8816C28.0244 68.1989 27.839 70.5294 27.8655 72.8997C27.8919 75.1507 27.9184 77.4018 27.9581 79.6529C27.9581 79.9574 28.0111 80.2752 28.0773 80.5798C28.1038 80.6857 28.2362 80.8181 28.3554 80.8446C28.6202 80.9108 28.8851 80.9241 29.1631 80.9373C32.0101 80.9771 34.8703 81.0565 37.7172 81.03C39.9815 81.0035 42.2193 80.7387 44.338 79.9177C45.49 79.4675 46.5229 78.8319 47.3174 77.8388C47.6087 77.4813 48.0589 77.2429 48.3634 76.8854C48.8401 76.2895 49.2506 75.6539 49.7406 74.9521C50.0981 75.3626 50.4159 75.7201 50.8264 76.1968C50.0848 77.2826 49.383 78.5538 48.4561 79.6396C47.026 81.2948 45.1722 82.2747 42.9609 82.5396C41.107 82.7647 39.2532 82.8574 37.3862 82.672C36.3401 82.5528 35.294 82.6322 34.2611 82.619ZM43.5303 89.359C43.3051 88.2334 43.0933 87.2138 42.9211 86.181C42.7887 85.413 42.7093 84.6185 42.5636 83.8505C42.4842 83.387 42.4974 83.1222 43.0933 83.0692C43.7818 83.003 44.4704 82.7779 45.159 82.619C45.3179 83.6121 45.4768 84.5523 45.6489 85.6116C46.2448 85.3997 46.695 85.2673 47.132 85.0952C47.5689 84.923 48.0059 84.7112 48.4826 84.4993C48.7739 85.3865 49.0388 86.2339 49.3566 87.1741C47.4365 87.9024 45.543 88.6042 43.5303 89.359ZM49.6081 87.7435C50.0848 88.6174 50.6013 89.5841 51.1442 90.5904C47.7278 91.6365 44.3777 92.6561 41.0011 93.689C40.2066 90.2594 39.4254 86.8563 38.6176 83.387C39.7564 83.3341 40.8025 83.2678 41.8751 83.2149C42.1531 84.8833 42.418 86.5518 42.7093 88.2202C42.7755 88.591 42.9079 88.9485 42.9476 89.3192C43.0006 89.9019 43.2654 90.0211 43.7818 89.8357C45.6886 89.1339 47.6087 88.4585 49.6081 87.7435ZM48.4429 83.6916C48.4296 83.7975 48.337 83.9299 48.2443 83.9696C47.5425 84.3007 46.8142 84.6052 46.0197 84.9628C45.9402 84.1683 45.8873 83.5194 45.821 82.8838C45.7813 82.4998 45.9137 82.2747 46.258 82.0496C47.026 81.5332 47.7411 80.9373 48.4826 80.3679C48.5621 80.315 48.6547 80.2752 48.6945 80.2488C48.615 81.4008 48.5356 82.5396 48.4429 83.6916ZM38.4852 97.9925C37.2405 93.0534 36.0223 88.207 34.7908 83.2678C35.8369 83.2678 36.7241 83.2546 37.6113 83.2811C37.7702 83.2811 38.0218 83.4929 38.0482 83.6386C38.8295 86.949 39.5975 90.2462 40.339 93.5698C40.5244 94.404 40.5509 94.4437 41.3984 94.1789C44.2321 93.305 47.0525 92.4178 49.8862 91.5438C50.3232 91.4114 50.7602 91.2525 51.2104 91.2128C51.4355 91.1996 51.7533 91.3982 51.8857 91.5968C52.3094 92.2456 52.6537 92.921 53.1039 93.7155C48.3105 95.4501 43.3978 96.5624 38.4852 97.9925ZM74.1713 85.0952C74.3169 84.2874 74.3832 83.4532 74.4891 82.5793C74.8599 82.6587 75.2836 82.7249 75.6808 82.8574C75.8132 82.8971 75.9457 83.1354 75.9589 83.2811C75.9986 83.9432 76.0649 84.6185 75.9722 85.2541C75.8133 86.3266 75.6146 87.4125 75.2968 88.4585C74.5421 90.895 72.728 92.4575 70.6358 93.6757C67.7491 95.3574 64.7963 96.9464 61.8831 98.5884C60.5722 99.3299 59.2613 100.085 58.0165 100.8C57.1161 99.2769 56.176 97.6747 55.2226 96.0857C53.8852 93.8611 52.4948 91.663 51.1971 89.4119C50.204 87.7038 49.3301 85.9294 49.0652 83.9299C48.9063 82.6455 49.0388 81.3743 49.5022 80.1958C50.0186 78.8716 50.7072 77.6269 51.3296 76.3028C51.9254 76.4749 52.3889 76.6206 52.8788 76.7662C52.8259 76.9119 52.8259 77.0708 52.7464 77.1635C51.8592 78.289 51.6871 79.6794 51.3958 81.0035C50.9588 82.9898 51.3693 84.8966 52.0976 86.7769C53.382 90.1137 55.3285 93.0931 57.1691 96.1254C57.5663 96.7743 58.0033 97.4099 58.3873 98.0587C58.5595 98.3368 58.6654 98.4427 59.0097 98.2441C60.5324 97.3966 62.095 96.6418 63.6045 95.7679C65.3921 94.7483 67.1797 93.7287 68.8747 92.5634C70.3445 91.5571 71.7613 90.4183 72.6882 88.8426C73.1517 88.0481 73.4298 87.1476 73.774 86.3002C73.9065 85.9294 74.0918 85.5189 74.1713 85.0952ZM72.0924 81.6524C72.9796 82.0893 73.1517 83.0163 73.112 83.8505C73.0722 84.8966 72.8074 85.9294 72.5691 86.949C72.4499 87.4654 72.1851 87.9421 72.0394 88.3129C71.3111 87.002 70.6093 85.6381 69.8016 84.3272C69.2984 83.4929 68.6495 82.7514 68.0802 81.9702C67.4843 81.1492 67.2592 80.2223 67.2327 79.2159C67.2062 78.5406 67.1135 77.8785 67.0473 77.2032C68.2788 79.2424 70.0134 80.6328 72.0924 81.6524ZM69.7618 85.2938C70.4901 86.4193 71.2184 87.5581 71.3376 88.975C71.3773 89.5311 71.1919 89.8754 70.8212 90.2064C70.0532 90.8817 69.2719 91.5571 68.4112 92.3118C68.3582 90.1667 67.5902 88.3791 66.8619 86.565C66.3985 85.3865 66.1469 84.1815 66.3985 82.9236C66.5044 82.3939 66.7825 81.8907 66.9811 81.3478C67.9477 82.7117 68.9011 83.9696 69.7618 85.2938ZM64.9154 82.5263C64.4387 82.9898 63.8561 83.3473 63.2735 83.6916C62.7306 84.0226 62.2671 83.7843 61.9228 83.334C60.9694 82.0761 60.7841 80.6592 61.0754 79.1497C61.3932 77.5475 62.373 76.3028 63.3794 75.0845C64.0944 74.2106 64.8625 73.3896 65.5643 72.5951C65.8556 74.1709 66.2793 75.8128 66.4514 77.4813C66.6501 79.3218 66.3588 81.1359 64.9154 82.5263ZM75.5749 61.9621C75.7206 62.0151 75.9589 62.1872 75.9457 62.3064C75.9059 63.0347 75.8132 63.7497 75.747 64.4648C75.5881 66.0803 74.7274 67.3779 73.7608 68.6094C73.0987 69.4436 72.1586 69.8806 71.1787 70.1454C70.1856 70.4103 69.1527 70.5692 68.1331 70.6883C66.425 70.887 64.9551 70.2249 63.6442 69.2053C62.5187 68.3313 61.4196 67.4309 60.8238 66.0935C60.5589 65.5241 60.3868 64.8885 60.3073 64.2662C60.0425 62.2005 60.6516 60.3202 61.6977 58.5723C61.7772 58.4399 62.1082 58.3869 62.3201 58.4001C63.3397 58.4796 64.3593 58.665 65.3789 58.665C66.5177 58.665 67.4975 58.1353 68.4112 57.4865C68.6495 57.3143 68.8747 57.1554 69.2189 56.9171C68.8349 58.4796 68.5039 59.9362 68.1067 61.3663C68.0537 61.5384 67.7094 61.7105 67.4843 61.737C65.8026 62.0019 64.6506 62.9817 64.2798 64.584C63.7634 66.7953 64.9287 68.9272 67.6697 68.8742C69.2984 68.8477 70.1194 67.8149 70.6226 66.5967C71.1257 65.3785 70.9139 64.0543 70.0532 62.942C69.9207 62.7831 69.8148 62.558 69.6427 62.4785C68.8217 62.1078 68.9409 61.5649 69.1925 60.8631C69.5897 59.7111 69.881 58.5193 70.265 57.1819C70.4107 57.513 70.5034 57.6983 70.5696 57.897C71.4435 60.201 73.3768 61.2338 75.5749 61.9621ZM69.9737 64.2C70.2253 65.4976 69.6294 67.1528 68.7025 67.709C67.7491 68.2784 66.8487 67.8546 65.9748 67.4839C65.0611 67.0999 65.0743 66.2259 65.0743 65.4049C65.0743 63.8954 65.8688 62.7301 67.1003 62.3991C68.3715 62.0548 69.7221 62.9155 69.9737 64.2ZM74.6745 48.5881C74.7936 48.6411 74.9526 48.7205 75.1247 48.8C76.0251 49.1972 75.9722 49.184 75.7206 50.1771C75.3498 51.7396 73.1517 53.4478 71.5362 53.2094C70.371 53.0373 69.3513 52.6665 68.676 51.6204C67.7226 50.1374 67.5902 48.7205 68.292 47.0389C68.782 47.1051 69.2189 47.1713 69.6559 47.2375C69.6029 47.9525 69.5235 48.6676 69.5103 49.3826C69.4838 50.4022 70.0664 51.2497 70.9139 51.5013C72.1983 51.872 73.0722 51.6337 73.6814 50.6273C74.0654 50.005 74.3434 49.3032 74.6745 48.5881ZM73.9859 48.0849C74.0389 48.1511 74.0521 48.2968 74.0124 48.3763C73.6814 49.131 73.4298 49.9388 72.9531 50.5876C72.4896 51.2232 71.7216 51.3026 70.9801 50.9319C70.318 50.6008 70.0267 50.0182 70.0532 49.3032C70.0664 48.7867 70.1326 48.2703 70.1988 47.7671C70.2518 47.4096 70.4239 47.211 70.7947 47.0124C71.4435 46.6416 71.9732 46.0722 72.5426 45.569C72.6882 45.4366 72.7809 45.2512 72.9795 44.9599C72.9795 46.2179 73.2311 47.2375 73.9859 48.0849ZM75.8662 40.6034C75.9457 40.6564 75.9722 40.8286 75.9722 40.9345C76.0384 42.2322 74.9923 43.5696 73.7343 43.7814C73.006 43.9006 72.6485 43.3709 72.3175 42.881C71.7613 42.0733 71.8275 40.6697 72.4234 39.8884C72.4764 39.809 72.5558 39.7163 72.6353 39.6898C73.8535 39.2396 73.8535 39.2396 74.701 38.3524C74.979 39.1998 75.0585 40.087 75.8662 40.6034ZM73.7476 21.5091C75.0055 21.7077 76.0516 23.0451 75.9854 24.356C75.9854 24.4752 75.9457 24.6473 75.8795 24.6871C75.0585 25.2035 74.9923 26.0907 74.7274 26.9381C74.0919 26.329 73.6284 25.5875 72.6618 25.5875C72.5691 25.5875 72.4764 25.4418 72.4102 25.3491C71.6422 24.2236 71.8805 22.489 72.9531 21.6812C73.1252 21.5223 73.4827 21.4694 73.7476 21.5091ZM73.6681 17.6955C73.2311 18.4105 73.0855 19.2845 72.8074 20.1055C72.344 19.1653 71.523 18.5032 70.5034 18.106C70.4372 18.0795 70.3577 18.0001 70.3312 17.9338C70.0929 16.9937 69.828 16.0403 70.2518 15.0869C70.5431 14.4116 71.139 14.16 71.8143 14.1468C72.4631 14.1203 72.9398 14.5175 73.2841 15.0472C73.4695 15.3385 73.5622 15.696 73.7343 16.0006C74.0389 16.5832 74.0654 17.0599 73.6681 17.6955ZM75.6146 14.7824C76.1443 16.1595 76.1178 16.1727 74.6612 16.6627C74.3434 15.9873 74.0654 15.2855 73.6814 14.6632C73.0325 13.6171 72.1453 13.3787 70.8609 13.7892C70.0134 14.0673 69.4705 14.8883 69.497 15.9476C69.5103 16.6494 69.5897 17.338 69.6427 18.0398C69.2057 18.106 68.782 18.1722 68.2655 18.2516C67.9345 17.3909 67.6564 16.4773 67.8948 15.5239C68.2391 14.16 68.8349 12.9815 70.265 12.3724C72.6618 11.3528 74.9393 13.0345 75.6146 14.7824ZM68.4377 -5.39783C69.6162 -5.23893 70.7947 -4.96086 71.9335 -4.5901C73.1385 -4.19285 73.8932 -3.23945 74.6083 -2.19337C75.6808 -0.604374 75.8265 1.17 75.9589 2.97085C75.9721 3.07679 75.747 3.27541 75.5882 3.31514C73.9992 3.85804 72.4367 4.45391 71.417 5.884C70.9668 6.5196 70.649 7.24789 70.2253 8.00266C69.8943 6.86388 69.5632 5.73834 69.2322 4.61281C69.1792 4.45391 69.166 4.28177 69.0998 4.13612C68.8482 3.64618 68.9011 3.31514 69.4043 2.97085C71.033 1.84532 71.3376 -1.08107 69.7089 -2.69654C68.2126 -4.1796 65.7894 -3.72939 64.8227 -2.37875C63.9223 -1.1208 63.6707 0.75951 65.1008 2.26905C65.7496 2.95762 66.4912 3.44755 67.4578 3.527C67.9213 3.56673 68.0934 3.80508 68.1861 4.25529C68.4774 5.59269 68.8349 6.90361 69.1925 8.28073C68.4244 7.83052 67.7624 7.39354 67.0606 7.03602C65.9218 6.45339 64.6903 6.53284 63.4589 6.65202C63.4191 6.65202 63.3794 6.6785 63.3397 6.69174C61.7242 7.02278 61.7242 7.02278 61.0356 5.5C60.2676 3.77859 60.0425 2.01746 60.453 0.150398C60.7708 -1.30618 61.7242 -2.2993 62.7703 -3.23945C63.2337 -3.64994 63.7502 -4.00746 64.2533 -4.36499C65.4981 -5.26541 66.9281 -5.59645 68.4377 -5.39783ZM67.471 2.94437C66.4647 2.85168 65.7894 2.24257 65.3921 1.36862C65.1803 0.891922 65.1141 0.349022 64.9816 -0.1674C65.0743 -1.92853 66.3985 -3.01434 68.1331 -2.6833C68.9673 -2.5244 69.3249 -1.80936 69.6692 -1.16052C70.1856 -0.207126 70.2385 0.799237 69.6956 1.75263C69.2189 2.60009 68.4509 3.03706 67.471 2.94437ZM66.0542 -9.91321C65.8953 -9.02602 65.7232 -8.12559 65.551 -7.26489C64.5314 -8.49636 63.4324 -9.72782 62.426 -11.0387C61.0754 -12.7734 60.5589 -14.7331 61.2607 -16.8915C61.4064 -17.355 61.711 -17.7787 62.0155 -18.1627C62.2936 -18.5202 62.6908 -18.6659 63.1808 -18.4673C65.1008 -17.7125 66.0012 -16.1897 66.3852 -14.2697C66.6898 -12.7866 66.3058 -11.3565 66.0542 -9.91321ZM66.7957 -21.1421C67.3386 -22.6649 67.8021 -24.2141 68.2788 -25.7501C68.3847 -26.0944 68.3715 -26.4917 68.4245 -26.9684C69.2057 -26.3195 69.9605 -25.6972 70.7152 -25.0881C71.6686 -24.3068 71.4832 -23.2607 71.0463 -22.4398C70.1723 -20.7978 69.0998 -19.2618 68.1067 -17.6993C67.7756 -17.1828 67.4048 -16.6797 67.0341 -16.1368C66.0277 -17.7655 66.1866 -19.4207 66.7957 -21.1421ZM73.0458 -17.9111C72.9001 -17.1961 72.6088 -16.6135 71.8937 -16.2692C69.881 -15.2893 68.2258 -13.9122 67.1003 -11.767C67.0606 -12.0319 67.0341 -12.151 67.0341 -12.2702C67.1003 -12.9455 67.1797 -13.6209 67.2327 -14.3094C67.3254 -15.3555 67.6962 -16.2957 68.3582 -17.1034C69.881 -18.944 71.1655 -20.9037 71.96 -23.2342C72.7015 -21.4996 73.4298 -19.8179 73.0458 -17.9111ZM66.1999 -30.9144C67.9875 -29.908 69.7883 -28.9016 71.5362 -27.8158C74.2243 -26.1474 75.5749 -23.5918 75.9722 -20.5197C76.0913 -19.6458 75.9986 -18.7453 75.9722 -17.8582C75.9722 -17.7655 75.853 -17.6331 75.7603 -17.6066C75.3233 -17.4874 74.8863 -17.3947 74.4759 -17.302C74.3832 -18.0833 74.3567 -18.8248 74.211 -19.5663C73.6814 -22.4133 72.2777 -24.7041 69.9605 -26.4917C67.6167 -28.3058 65.0346 -29.7226 62.4525 -31.1527C61.3137 -31.7751 60.1484 -32.3709 59.0097 -32.9933C58.7051 -33.1654 58.5595 -33.1257 58.3741 -32.8212C57.5663 -31.497 56.6924 -30.1993 55.9111 -28.8619C54.8651 -27.0743 53.8057 -25.2734 52.8788 -23.4196C51.9916 -21.632 51.2766 -19.7649 51.2369 -17.7257C51.2236 -16.9048 51.3825 -16.0838 51.5149 -15.2761C51.6209 -14.6272 51.7798 -13.9784 52.0049 -13.356C52.23 -12.7469 52.5743 -12.1775 52.8921 -11.5154C52.3624 -11.3565 51.8989 -11.2241 51.4222 -11.0785C50.694 -12.5218 49.6744 -13.793 49.2903 -15.4614C48.7739 -17.739 48.999 -19.8841 50.0451 -21.9233C50.8131 -23.4329 51.7136 -24.8894 52.5743 -26.3593C53.8322 -28.4912 55.1166 -30.6098 56.3613 -32.7417C56.9307 -33.6951 57.4472 -34.6882 57.9371 -35.5489C60.6649 -34.0129 63.4456 -32.4769 66.1999 -30.9144Z" fill="#C8A438"/>
</svg>
