<svg width="67" height="127" viewBox="0 0 67 127" fill="none" xmlns="http://www.w3.org/2000/svg">
<path d="M0.580841 -2.034C2.57899 0.0219013 4.62336 2.04316 6.62151 4.09906C7.59171 5.10391 8.52727 6.15496 9.43972 7.20602C9.67072 7.47167 9.83242 7.44857 10.0865 7.30997C10.768 6.92882 11.461 6.58231 12.1424 6.18961C13.4476 5.43886 14.8451 4.86136 15.9655 3.79876C16.2311 3.54466 16.4159 3.71791 16.5199 4.01821C17.3168 6.20116 18.7837 8.01452 19.9156 10.0127C19.9733 10.1166 20.2159 10.1859 20.3429 10.1513C22.4913 9.50447 24.628 8.82302 26.7763 8.18777C28.8207 7.58717 30.8881 7.05587 32.944 6.48992C33.2443 6.40907 33.4176 6.46682 33.4984 6.80177C33.7179 7.67957 33.9604 8.54582 34.1914 9.42362C34.6072 10.9944 35.0461 12.5652 35.4273 14.1591C35.8546 15.9378 36.2242 17.7165 36.6054 19.5068C36.6747 19.8186 36.8364 19.911 37.1367 19.911C37.9336 19.8995 38.7421 19.9226 39.5391 19.911C40.9828 19.8879 42.415 19.8764 43.8588 19.7955C44.3208 19.7724 44.4016 19.8879 44.3439 20.3037C44.2515 21.0198 44.1591 21.7475 44.1591 22.4636C44.1475 23.8034 44.2168 25.1432 44.2399 26.483C44.2515 27.3839 44.2515 27.3724 45.1293 27.5803C47.3238 28.1 49.5183 28.6313 51.7013 29.1742C53.5608 29.6362 55.4088 30.1444 57.2568 30.6179C57.5571 30.6988 57.765 30.8143 57.6611 31.1723C57.5225 31.6343 57.3723 32.1079 57.2453 32.5814C56.7371 34.4063 56.2404 36.2428 55.7207 38.0677C55.1778 39.9388 54.6119 41.8099 54.0228 43.681C53.9189 43.9928 53.942 44.143 54.2192 44.2931C56.2173 45.3904 58.0076 46.8573 60.1905 47.6196C60.5024 47.7351 60.5601 47.943 60.3291 48.2086C60.2367 48.3241 60.1328 48.4165 60.0519 48.5436C58.9662 50.4031 57.8805 52.2627 56.8179 54.1338C56.7602 54.2493 56.8526 54.538 56.9681 54.642C57.8805 55.4967 58.8507 56.3052 59.7401 57.1714C61.8884 59.262 64.0136 61.3756 66.1388 63.4777C66.6701 63.9975 66.6701 63.9975 66.1157 64.5403C64.1753 66.4461 62.2464 68.3749 60.2945 70.2691C59.2434 71.2971 58.1577 72.2904 57.0374 73.2491C56.714 73.5263 56.6562 73.7226 56.8757 74.046C56.9565 74.1615 57.0027 74.3001 57.0836 74.4272C58.1693 76.2174 58.92 78.2271 60.3407 79.821C60.5717 80.0867 60.4562 80.283 60.1443 80.3985C57.9498 81.1839 56.1365 82.6508 54.1383 83.7827C54.0344 83.8404 53.942 84.083 53.9766 84.1985C54.635 86.4392 55.3511 88.6568 55.9979 90.8975C56.5292 92.7224 56.9912 94.5589 57.4878 96.3953C57.7188 97.2385 57.7188 97.2269 56.9103 97.4348C54.6927 98.0123 52.4751 98.636 50.2575 99.1904C48.3864 99.6524 46.4922 100.034 44.6095 100.484C44.4594 100.519 44.263 100.75 44.2515 100.888C44.2053 101.882 44.1591 102.875 44.1822 103.88C44.2053 105.185 44.2977 106.478 44.3554 107.772C44.3785 108.119 44.2861 108.303 43.8819 108.199C43.6393 108.13 43.3852 108.072 43.1311 108.072C41.0983 108.061 39.0655 108.072 37.0327 108.061C36.7093 108.061 36.64 108.246 36.5938 108.488C36.2935 109.92 36.0394 111.364 35.6814 112.785C34.9884 115.557 34.2145 118.317 33.51 121.078C33.406 121.505 33.2097 121.551 32.8516 121.447C31.3963 121.032 29.9295 120.627 28.4742 120.211C25.783 119.426 23.0919 118.629 20.4007 117.867C20.2505 117.821 19.9618 117.901 19.8925 118.017C18.7606 119.992 17.3168 121.794 16.5199 123.965C16.3582 124.393 16.1734 124.381 15.85 124.104C15.4457 123.746 15.0184 123.399 14.5448 123.134C13.205 122.371 11.8537 121.632 10.4908 120.904C9.72847 120.5 9.71692 120.512 9.15097 121.205C9.09322 121.274 9.02393 121.332 8.96617 121.401C7.44157 122.983 5.91696 124.566 4.3808 126.137C3.09875 127.453 1.80515 128.747 0.534652 130.075C0.372955 130.237 0.245895 130.329 0.107292 130.329L0.107292 129.555C0.315193 129.555 0.51155 129.348 0.938903 128.932C2.62521 127.245 4.32305 125.582 5.98626 123.873C7.10661 122.718 8.15767 121.494 9.31267 120.223C8.55037 119.807 7.86892 119.426 7.17592 119.08C7.06042 119.022 6.80631 119.056 6.72546 119.149C5.36256 120.604 4.0112 122.059 2.6483 123.526C1.94375 124.289 1.22765 125.039 0.534652 125.813C0.384506 125.986 0.245895 126.079 0.107292 126.067L0.107292 125.467C2.2094 123.226 4.28841 120.997 6.42517 118.71C5.61666 118.202 4.80816 117.705 3.99966 117.208C3.11031 118.294 2.22095 119.368 1.34315 120.431C1.06596 120.766 0.788749 121.101 0.488449 121.413C0.361396 121.54 0.234344 121.609 0.118842 121.597L0.118842 121.055C0.47689 120.662 0.834945 120.315 1.1468 119.934C1.8398 119.103 2.52125 118.248 3.2027 117.405C3.46836 117.081 3.6416 116.839 3.14495 116.504C2.6483 116.181 2.24405 115.707 1.79359 115.291C1.36624 115.834 0.938896 116.354 0.523094 116.885C0.38449 117.07 0.245887 117.151 0.118843 117.151L0.118843 116.7C0.58084 116.065 0.962005 115.522 1.34315 114.979C1.38936 114.91 1.41245 114.76 1.36625 114.691C0.938896 113.767 0.499992 112.843 0.118843 112.034C0.118843 112.034 0.118843 112.034 0.118843 112.046L0.118843 107.275C0.67324 107.264 1.21609 107.16 1.78205 106.987C3.3875 106.49 4.83126 105.739 6.07867 104.619C7.02577 103.764 7.62637 102.667 8.15767 101.524C8.72362 100.311 8.68897 99.0287 8.61967 97.712C7.99597 97.712 7.38381 97.712 6.73701 97.712C6.58686 98.3242 6.48291 98.9594 6.28656 99.5716C5.33945 102.424 3.4337 104.272 0.499999 104.954C0.372947 104.977 0.257453 105 0.130401 105.012L0.130401 104.457C0.985107 104.469 1.7474 104.122 2.47505 103.672C4.34615 102.505 5.62821 100.865 6.03246 98.636C6.09021 98.3242 6.12485 98.0008 6.18261 97.6196C5.45495 97.4579 4.79661 97.3078 4.0805 97.1461C3.99966 97.4579 3.90726 97.7582 3.82641 98.0701C3.45681 99.4561 2.75225 100.611 1.4702 101.316C1.0082 101.57 0.557754 101.708 0.130401 101.731L0.130401 101.246C0.834953 101.258 1.4702 100.854 2.17475 100.138C2.9717 99.329 3.31821 98.2664 3.53766 97.1692C3.56076 97.0537 3.4568 96.8689 3.35285 96.7996C2.92549 96.4993 2.4866 96.2221 2.117 95.9795C1.8167 96.6379 1.58569 97.3193 1.20454 97.9199C0.915794 98.3819 0.523101 98.6129 0.141952 98.6129L0.141952 97.8968C0.3152 97.8853 0.488456 97.7929 0.650154 97.6312C1.3085 96.9844 1.5164 96.1528 1.50484 95.2981C1.50484 94.9169 1.11214 94.5473 0.915794 94.1546C0.627044 93.5771 0.361396 92.9881 0.153495 92.5607C0.141944 92.5723 0.141952 92.5838 0.130401 92.5954L0.130401 89.0264C1.65501 89.0264 2.91395 88.2525 3.8726 87.1206C4.90055 85.9079 5.20086 84.4641 4.83126 82.8818C4.75041 82.5468 4.64646 82.4198 4.29996 82.4429C3.97656 82.466 3.65316 82.4429 3.30666 82.4429C3.30666 83.0435 3.31821 83.5632 3.30666 84.083C3.26046 85.931 2.1401 87.1784 0.788749 87.5826C0.569297 87.6519 0.338295 87.675 0.118843 87.6866L0.118843 87.1553C1.01974 87.1553 1.88599 86.5893 2.37109 85.7C2.93705 84.6489 2.89086 83.5055 2.72916 82.362C2.71761 82.2812 2.61365 82.1888 2.5328 82.131C2.117 81.8538 1.68964 81.5882 1.21609 81.2879C1.30849 81.8538 1.45865 82.3967 1.4702 82.9395C1.48175 83.5055 1.43555 84.0945 1.29695 84.6374C1.1699 85.1225 0.60395 85.469 0.130401 85.4574L0.130401 84.9146C0.372955 84.9146 0.707901 84.6374 0.834953 84.3948C0.985099 84.1061 1.01975 83.7249 1.0082 83.4015C0.961998 82.2696 0.707901 81.1839 0.21125 80.1675C0.199699 80.1444 0.17659 80.1329 0.118843 80.1213L0.118843 77.7882C0.165039 77.7882 0.222793 77.7882 0.28054 77.7882C1.36625 77.7536 2.3711 76.7141 2.4173 75.6284C2.42885 75.432 2.48659 75.2357 2.48659 75.0393C2.49815 74.6351 2.47505 74.277 1.9553 74.1384C1.11214 73.919 0.5 73.3877 0.130401 72.4983L0.130401 72.5098L0.130401 70.4424C0.130401 70.4424 0.130401 70.4424 0.141952 70.4424C0.3152 70.4424 0.546196 70.2114 0.627044 70.0266C1.21609 68.7099 0.765655 67.5202 0.130401 66.2151L0.130401 61.803C0.130401 61.8145 0.141952 61.8261 0.141952 61.8376C0.69635 60.544 1.2161 59.4006 0.650154 58.1185C0.557754 57.8991 0.315201 57.7374 0.141952 57.5526C0.130401 57.5641 0.130394 57.5641 0.118843 57.5757L0.118843 55.5082C0.118843 55.5082 0.11885 55.5198 0.130401 55.5198C0.511551 54.6189 1.16991 54.1107 2.03616 53.845C2.2094 53.7873 2.4173 53.5563 2.42885 53.383C2.5097 52.5283 2.31335 51.3502 1.5395 50.7496C1.11215 50.4147 0.615494 50.2645 0.118843 50.2645L0.118843 47.9314C0.188141 47.943 0.245903 47.943 0.315201 47.9545C0.546203 46.9266 0.823395 45.8986 0.985092 44.8591C1.05439 44.4548 0.973541 43.9697 0.811844 43.5886C0.719444 43.3576 0.37294 43.1266 0.118843 43.1035L0.118843 42.526C0.141937 42.526 0.153488 42.526 0.17659 42.526C0.67324 42.5491 1.25074 42.9533 1.3316 43.5193C1.43555 44.2123 1.40089 44.9399 1.38934 45.6445C1.37779 45.991 1.27384 46.3491 1.21609 46.7071C1.66654 46.4184 2.14011 46.1989 2.49815 45.8639C2.70606 45.6676 2.76381 45.2749 2.79845 44.963C2.93705 43.5886 2.7407 42.3296 1.59725 41.3825C1.1237 40.9898 0.627052 40.8281 0.130401 40.8397L0.130401 40.3199C0.765655 40.2968 1.3316 40.5625 1.85134 40.9552C2.8562 41.7175 3.31821 42.7685 3.31821 44.0275C3.31821 44.5126 3.31821 44.9977 3.31821 45.5636C3.69936 45.5636 4.11516 45.5868 4.53096 45.5521C4.63491 45.5406 4.77351 45.3673 4.80816 45.2402C5.45496 42.8378 4.21911 40.4816 2.26716 39.6385C1.64346 39.3728 0.996643 38.9801 0.349838 38.957C0.28054 38.957 0.199699 38.957 0.130401 38.957L0.130401 35.3765C0.130401 35.3881 0.141952 35.3996 0.141952 35.3996C0.430702 34.8337 0.754104 34.0714 1.18145 33.3668C1.4702 32.9048 1.62035 32.4544 1.41245 31.9577C1.193 31.4149 0.938896 30.872 0.615501 30.3869C0.476898 30.1906 0.30365 30.0982 0.130401 30.1213L0.130401 29.3936C0.523102 29.3936 0.915802 29.6593 1.25075 30.1906C1.6088 30.7565 1.82825 31.4149 2.10545 32.0386C2.53281 31.7498 3.041 31.4149 3.58385 31.0568C3.23735 29.3012 2.63675 27.7189 0.811844 26.9219C0.580841 26.818 0.361397 26.7718 0.141952 26.7718L0.141952 26.2636C0.927353 26.2405 1.58569 26.6794 2.18629 27.1876C3.0641 27.9268 3.63005 28.897 3.84951 30.0404C3.90725 30.3176 4.0112 30.5948 4.09205 30.872C4.80815 30.6988 5.47805 30.5486 6.17106 30.3869C5.98626 27.5687 4.54251 25.5821 2.26716 24.1846C1.55106 23.7457 0.834953 23.5493 0.141952 23.5609L0.141952 23.0411C1.0082 23.0296 1.80515 23.3645 2.52126 23.7688C4.19601 24.7274 5.47806 26.1134 6.15951 27.9499C6.37896 28.5505 6.48291 29.2088 6.60996 29.8441C6.66771 30.1675 6.76011 30.3638 7.15281 30.3407C7.63791 30.3061 8.12302 30.3292 8.59657 30.3292C8.96617 27.8806 8.18076 25.8362 6.67926 24.0344C5.17776 22.221 3.12185 21.3317 0.915794 20.7888C0.673248 20.7311 0.4076 20.708 0.141952 20.7195L0.141952 15.9609C0.141952 15.9609 0.141952 15.9609 0.141952 15.9725C0.511551 15.1755 0.938904 14.2746 1.35471 13.3737C1.4009 13.2698 1.4009 13.0734 1.34315 12.981C0.985107 12.4382 0.60395 11.9184 0.153496 11.2947C0.153496 11.2947 0.153496 11.3063 0.141952 11.3063L0.141952 10.8212C0.338303 10.8212 0.523094 11.0753 0.973549 11.5835C1.28539 11.93 1.52795 12.3458 1.78205 12.7038C2.38265 12.161 2.96016 11.6528 3.60696 11.0637C2.45196 9.66617 1.3316 8.30327 0.130402 6.84797L0.130402 6.33976C0.257454 6.33976 0.384491 6.42062 0.511543 6.57077C1.6781 7.95677 2.84465 9.34277 4.0343 10.7634C4.80815 10.2899 5.60511 9.79322 6.44826 9.27347C4.32306 6.99812 2.24406 4.78051 0.141952 2.51671L0.141952 1.89301C0.30365 1.89301 0.46534 2.04316 0.754089 2.36656C2.117 3.85651 3.49146 5.32336 4.86591 6.80177C5.45496 7.43702 6.05556 8.06072 6.63306 8.71907C6.84096 8.96162 7.01421 9.06557 7.31451 8.88077C7.94976 8.49962 8.60812 8.15312 9.40507 7.70267C6.28656 4.49176 3.24891 1.3617 0.141953 -1.8492L0.141953 -2.32275C0.245903 -2.32275 0.396042 -2.2188 0.580841 -2.034ZM33.0133 6.98657C28.7629 8.19932 24.5472 9.38897 20.2505 10.6133C20.6779 11.364 21.0128 11.9646 21.3478 12.5537C21.5441 12.8886 21.7751 13.0041 22.1909 12.8655C24.9745 11.9877 27.7581 11.1561 30.5416 10.3014C31.2346 10.0935 31.2693 10.1282 31.4194 10.8327C31.8468 12.7385 32.2857 14.6327 32.7246 16.5384C32.944 17.4855 33.175 18.4442 33.3829 19.3913C33.4407 19.68 33.5331 19.8533 33.8565 19.8417C34.5841 19.8302 35.3002 19.8417 36.1549 19.8417C35.358 15.4874 34.0875 11.3178 33.0133 6.98657ZM24.3393 18.756C24.7897 18.5597 25.2517 18.3518 25.7022 18.1439C26.6724 17.6934 26.7879 17.7396 26.9958 18.7676C27.0997 19.2989 27.1344 19.8417 27.1921 20.3846C27.8736 20.246 28.5435 20.1305 29.1903 19.9572C29.3289 19.9226 29.5252 19.68 29.5021 19.5645C29.248 17.9475 28.9477 16.3305 28.659 14.7135C28.659 14.6904 28.6128 14.6673 28.5088 14.5634C26.8918 15.164 25.2402 15.7877 23.5654 16.4114C23.8426 17.243 24.0736 17.9591 24.3393 18.756ZM24.1429 22.4636C24.6165 22.094 25.0438 21.5627 25.5982 21.3432C26.7763 20.8697 26.7186 20.0034 26.5684 19.0332C26.5453 18.86 26.5107 18.6752 26.4529 18.3749C25.7715 18.6752 25.1247 18.9639 24.4778 19.2642C24.397 19.2989 24.3739 19.4837 24.3624 19.5992C24.2815 20.5463 24.2122 21.4934 24.1429 22.4636ZM25.5751 15.1293C26.5453 14.7713 27.5155 14.4479 28.4857 14.1014C28.8784 13.9628 29.0748 14.0667 29.1441 14.5172C29.2827 15.4065 29.5021 16.2843 29.6638 17.1737C29.814 18.063 29.9295 18.9524 30.0565 19.8879C31.0036 19.8417 31.9392 19.8071 32.9209 19.7609C32.2279 16.7579 31.5349 13.778 30.8419 10.7634C27.9198 11.6528 24.986 12.5537 21.9946 13.4661C22.4566 14.3208 22.8839 15.1293 23.3459 15.984C24.1082 15.6953 24.8359 15.395 25.5751 15.1293ZM43.7086 29.6015C43.6509 27.176 43.6162 24.739 43.6047 22.3134C43.6047 21.6666 43.6971 21.0198 43.7433 20.4077C41.4795 20.4077 39.2041 20.4077 36.9288 20.4077C36.2011 20.4077 35.4735 20.4192 34.7458 20.4077C34.2376 20.3961 33.741 20.3153 33.2328 20.3153C32.2972 20.3037 31.3501 20.2806 30.4146 20.3499C29.6638 20.4077 28.9131 20.5694 28.1739 20.708C26.8225 20.9621 25.783 21.7706 24.7435 22.6022C23.5654 23.5493 23.1034 24.97 22.318 26.1134C22.6299 26.4484 22.9186 26.7718 23.242 27.1298C23.6578 26.5292 24.0043 25.9055 24.4663 25.3973C26.0833 23.6186 28.0237 22.4867 30.4608 22.1171C32.4243 21.8168 34.3878 21.8399 36.3513 21.7937C38.1415 21.7475 39.9318 21.9092 41.722 21.9669C42.0223 21.9785 42.1378 22.0709 42.1494 22.3712C42.1494 22.8448 42.2187 23.3068 42.2302 23.7803C42.2649 25.8709 42.3342 27.9499 42.2995 30.0404C42.2649 32.3042 42.0916 34.5796 41.0752 36.647C40.6941 37.4209 40.0357 38.0677 39.4929 38.7491C39.2388 39.0725 38.9847 39.4075 38.6728 39.6731C38.1531 40.0889 37.5871 40.447 36.975 40.8859C37.333 41.1977 37.6564 41.4865 38.0145 41.7868C39.1464 41.0245 40.5439 40.5047 41.5488 39.3613C42.8424 37.8829 43.57 36.2081 43.6855 34.2562C43.7433 33.3206 43.8357 32.3851 43.8472 31.4495C43.8819 30.8143 43.7202 30.2137 43.7086 29.6015ZM9.15097 19.8764C9.76312 19.4375 10.2944 19.1372 10.7333 18.7098C10.9066 18.5366 10.9412 18.1323 10.9066 17.8436C10.7102 16.5038 10.3291 15.1871 10.2944 13.8473C10.2482 12.2303 10.537 10.6364 11.6573 9.33122C11.6804 9.30812 11.6689 9.26192 11.6804 9.06557C10.5485 9.80477 9.48592 10.4631 8.46952 11.1908C7.62637 11.8029 7.45312 12.7269 7.70722 13.6856C7.96132 14.6442 8.31937 15.5798 8.65432 16.5153C9.02392 17.5895 9.48592 18.629 9.15097 19.8764ZM10.8142 14.598C10.8835 15.6606 11.23 16.7232 11.5649 17.7512C11.819 18.5597 12.5236 18.8022 13.1588 18.3287C15.4457 16.6424 16.9472 14.4479 16.9819 11.5373C16.9934 9.96647 16.3004 8.55737 15.3302 7.32152C11.8537 8.78837 10.5601 11.0175 10.8142 14.598ZM15.0415 17.3123C14.6141 17.7858 14.1752 18.2363 13.7363 18.6983C13.4707 18.9755 13.3783 19.2411 13.5862 19.6223C13.8403 20.0958 14.0251 20.604 14.3023 21.2393C14.9606 19.449 16.5314 18.6752 17.7326 17.5433C18.1484 17.1506 18.5989 16.7694 18.9569 16.3074C19.6153 15.4527 19.5575 14.5056 19.1071 13.5932C18.6335 12.623 18.0907 11.6874 17.5478 10.6826C17.5016 11.4333 17.5247 12.1032 17.4092 12.7385C17.0743 14.4941 16.2311 16.0071 15.0415 17.3123ZM16.439 19.2411C15.515 19.9572 14.8913 20.8697 14.5217 21.9438C14.4062 22.2904 14.4293 22.6946 14.3947 23.0642C14.4409 23.1104 14.4755 23.1566 14.5217 23.2028C16.3582 22.221 18.2177 21.2624 20.0311 20.2229C20.4469 19.9919 20.7472 19.5183 21.0475 19.1256C21.2901 18.8022 21.2323 18.4326 21.0821 18.0515C20.7818 17.243 20.5162 16.4229 20.2043 15.522C19.1879 17.1275 17.8019 18.1785 16.439 19.2411ZM15.9077 22.9603C14.9837 23.3183 14.1868 23.8612 13.667 24.7736C13.3552 25.3396 12.9163 25.8247 12.512 26.3906C13.2628 26.0788 13.9558 25.7554 14.6834 25.5013C15.746 25.1201 16.8548 25.0739 17.9636 25.1663C19.0147 25.2472 19.6153 24.6928 20.1235 23.8958C20.6779 23.018 20.9551 22.0593 21.0821 21.0314C21.1283 20.6387 21.1861 20.2575 21.2323 19.8533C19.7077 21.3317 17.8481 22.198 15.9077 22.9603ZM19.7308 25.8593C17.6171 25.4666 15.5381 25.4782 13.5746 26.4715C11.7959 27.3839 10.2829 28.5851 9.63607 30.6295C10.1674 30.9298 10.7102 31.2416 11.1722 31.4957C11.8883 30.8143 12.512 30.0982 13.2512 29.5322C14.3716 28.6775 15.6883 28.1809 17.0974 28.0423C17.7326 27.9845 18.391 27.9961 19.0378 28.0423C20.8049 28.1809 21.7752 29.3821 22.549 30.7912C23.1843 31.9462 23.3691 33.2167 23.4499 34.4987C23.5308 35.6422 23.1842 36.7163 22.7684 37.7674C22.7338 37.8598 22.6876 37.9637 22.6414 38.0908C23.1958 38.4257 23.7387 38.7376 24.27 39.061C26.4991 36.4738 26.3721 32.2234 24.4894 29.4976C23.9466 28.7122 23.3344 27.9614 22.7223 27.2338C21.9484 26.3329 20.8511 26.0672 19.7308 25.8593ZM3.71091 60.3939C4.46166 60.1282 5.16621 59.9203 5.90541 60.2091C6.00936 60.2437 6.17106 60.2091 6.26346 60.1398C7.25676 59.4237 7.79962 58.6036 7.43002 57.3678C7.34917 57.079 6.96801 56.7441 6.66771 56.6517C5.60511 56.3514 4.53095 56.8596 3.9881 57.8067C3.9188 57.9337 3.88415 58.1301 3.93035 58.2687C4.1729 58.9848 3.96501 59.6547 3.71091 60.3939ZM3.9188 69.7494C3.8726 69.888 3.94191 70.1075 4.02275 70.246C4.62336 71.1932 5.60511 71.6321 6.66771 71.3433C6.97956 71.2509 7.34916 70.8929 7.45311 70.581C7.77651 69.5646 7.21056 68.3749 6.26346 67.8552C6.17106 67.809 6.03247 67.7397 5.96316 67.7743C5.20086 68.1439 4.49631 67.8436 3.72246 67.6242C3.95346 68.3634 4.18445 69.0218 3.9188 69.7494ZM8.65432 111.48C8.36557 112.265 8.05372 113.039 7.82272 113.836C7.21057 115.938 8.00752 116.562 9.27802 117.428C10.0288 117.936 10.8257 118.363 11.692 118.745C11.5418 118.548 11.357 118.375 11.2415 118.156C10.4215 116.596 10.0865 114.933 10.3406 113.177C10.4908 112.126 10.7564 111.087 10.9643 110.047C11.0336 109.701 10.999 109.435 10.6525 109.227C10.1674 108.927 9.72847 108.546 9.16252 108.119C9.46282 109.378 9.03546 110.429 8.65432 111.48ZM11.2993 117.116C11.7959 118.491 12.9278 119.334 14.0944 120.119C14.4524 120.362 14.8682 120.512 15.2956 120.731C16.3697 119.287 17.0743 117.728 16.9703 115.938C16.9241 115.164 16.6469 114.39 16.3582 113.651C15.7576 112.161 14.7874 110.925 13.5284 109.932C12.5351 109.158 11.8999 109.32 11.4494 110.486C10.5947 112.669 10.5023 114.898 11.2993 117.116ZM13.7941 109.378C14.695 110.44 15.6305 111.48 16.4044 112.623C17.132 113.709 17.467 114.991 17.5247 116.308C17.5363 116.608 17.4554 116.908 17.3977 117.336C17.5594 117.116 17.6749 116.989 17.7442 116.85C18.2293 115.926 18.749 115.014 19.1879 114.067C19.7423 112.889 19.2919 111.895 18.4256 111.087C17.5132 110.232 16.5083 109.481 15.6074 108.627C15.0877 108.13 14.6719 107.506 14.2099 106.929C14.0251 107.356 13.8518 107.853 13.5977 108.303C13.3552 108.765 13.5053 109.043 13.7941 109.378ZM20.2159 112.484C20.5739 111.41 21.0359 110.452 21.1976 109.435C21.3016 108.777 20.701 108.234 20.1466 107.83C18.8068 106.848 17.3399 106.12 15.7922 105.52C15.3418 105.347 14.9144 105.116 14.4062 104.873C14.3831 106.733 15.388 107.945 16.7278 108.996C17.9983 109.978 19.2688 110.983 20.2159 112.484ZM16.5892 105.347C18.2639 105.866 19.8001 106.756 21.1745 108.095C21.1052 106.906 20.9666 105.832 20.5046 104.838C20.3429 104.492 20.1466 104.168 19.9387 103.845C19.4767 103.164 18.8645 102.759 17.9752 102.817C16.0694 102.956 14.2561 102.609 12.5813 101.581C13.6324 103.164 14.591 104.723 16.5892 105.347ZM15.8962 102.251C17.6749 102.586 19.4305 102.32 21.1399 101.789C21.5788 101.651 22.0292 101.408 22.3526 101.096C23.9697 99.5138 25.321 97.7467 25.7368 95.4598C26.118 93.3808 25.9794 91.3479 24.6973 89.5346C24.5587 89.3382 24.4432 89.1419 24.2931 88.9109C23.7155 89.2458 23.1958 89.5577 22.7453 89.8349C22.9648 90.7704 23.2304 91.6598 23.3806 92.5607C23.5885 93.8081 23.346 95.044 22.9533 96.2336C22.6299 97.2038 22.0985 98.0585 21.4055 98.8208C20.7241 99.5831 19.8463 99.8834 18.8992 99.9643C15.7807 100.241 13.2859 99.1096 11.4032 96.6032C11.3686 96.557 11.3339 96.5224 11.2762 96.4531C10.7333 96.7649 10.1789 97.0652 9.61297 97.3886C10.7795 100.23 12.9856 101.708 15.8962 102.251ZM27.6541 98.8439C27.7812 97.8622 27.966 96.9035 27.5617 95.968C27.2268 95.1826 26.8456 94.4318 26.5569 93.7966C26.2912 94.8823 26.0371 96.095 25.6791 97.2731C25.5174 97.816 25.194 98.3357 24.8474 98.7977C24.1776 99.6986 24.4086 100.542 24.859 101.431C25.4943 102.69 26.6146 103.464 27.7234 104.342C27.3538 102.482 27.4116 100.657 27.6541 98.8439ZM38.95 81.9116C38.9154 82.7894 39.2965 83.3553 39.9549 83.8289C41.2023 84.7298 42.646 84.9608 44.2284 85.0994C42.7846 83.5863 41.953 81.8423 41.2369 80.0289C40.8211 78.9779 40.2552 78.0654 39.2157 77.4995C38.6844 77.2107 38.2339 76.7949 37.8181 76.4946C38.13 77.4417 38.5458 78.4119 38.7768 79.4399C38.9616 80.2368 38.9847 81.0915 38.95 81.9116ZM37.668 51.639C39.1117 50.4955 40.7518 49.7563 41.3178 47.839C41.7567 46.3606 43.0387 43.9928 44.2284 42.9302C42.4728 43.0111 41.5488 43.2421 40.336 43.9235C39.4351 44.4317 38.8923 45.0901 38.95 46.2336C39.054 48.1047 38.9269 49.1788 37.668 51.639ZM41.6874 22.5214C39.8856 22.2557 38.1877 22.4174 36.7093 23.3761C35.358 24.2539 34.434 25.559 33.868 27.0721C33.5331 27.9614 33.2905 28.897 33.1635 29.8441C33.0595 30.6526 33.4753 31.0453 34.3069 30.976C36.051 30.8489 37.5871 30.1559 39.0078 29.1626C41.0175 27.7535 41.7913 25.7785 41.6758 23.3876C41.6758 23.0989 41.6874 22.8217 41.6874 22.5214ZM27.7465 23.6648C26.3721 24.7159 25.0207 25.6976 24.5356 27.4301C24.3854 27.973 24.3855 28.4581 24.732 28.9663C25.8523 30.5833 26.4298 32.3851 26.4067 34.4641C27.3538 32.6392 28.1161 30.9413 27.6426 28.8392C27.273 27.1876 27.3538 25.4435 27.7465 23.6648ZM26.3028 36.5431C26.0718 37.2014 25.8292 37.8598 25.5982 38.5297C26.9496 38.033 28.3009 37.571 29.6176 37.0397C31.3848 36.3236 32.5975 35.0762 33.048 33.182C33.1519 32.7547 33.0826 32.2811 33.0249 31.8307C32.9556 31.3109 32.5629 31.0799 32.0547 31.0453C30.403 30.9182 29.1094 31.6112 28.0699 32.8471C27.1459 33.9212 26.7417 35.2495 26.3028 36.5431ZM27.9891 27.6842C28.0237 28.8277 28.2432 29.9711 28.3818 31.1492C29.5483 30.5717 30.1951 29.5438 30.507 28.331C30.7611 27.3377 30.865 26.2982 31.096 25.2934C31.3155 24.3232 31.6158 23.3645 31.893 22.3827C30.9805 22.556 29.9641 22.66 29.0286 22.9949C28.6359 23.1335 28.2663 23.7688 28.197 24.2192C28.0122 25.3627 27.9544 26.5292 27.9891 27.6842ZM31.7659 24.4618C31.558 25.2356 31.4425 26.0441 31.3039 26.8526C31.096 28.0423 30.969 29.255 30.0681 30.3061C30.8188 30.2483 31.4656 30.2368 32.0778 30.1097C32.2741 30.0635 32.4705 29.7055 32.5398 29.4514C33.0364 27.6611 33.5908 25.9055 34.8267 24.4618C35.6005 23.5609 36.3975 22.6946 37.6218 22.3943C37.6102 22.3365 37.5987 22.2673 37.5871 22.2095C36.3513 22.2904 35.127 22.3596 33.8911 22.452C32.6553 22.5444 32.0662 23.3876 31.7659 24.4618ZM35.589 31.2994C34.0066 31.7729 34.0066 31.796 33.8565 33.4361C33.8449 33.5863 33.8218 33.748 33.7987 34.0021C35.5312 32.6969 37.5871 32.8933 39.4467 32.4082C40.9713 32.0039 41.5603 31.3802 41.7682 29.8441C41.8029 29.5669 41.826 29.2781 41.826 28.9894C41.8375 28.1578 41.826 27.3262 41.826 26.4253C40.5901 29.2204 38.2801 30.5024 35.589 31.2994ZM36.5707 33.4246C35.4966 33.5863 34.561 34.0136 33.741 34.7066C33.4176 34.9838 33.1981 35.365 32.817 35.8385C34.8382 35.954 36.6978 36.1042 38.5458 36.1273C39.2041 36.1388 39.874 35.8616 40.5208 35.6768C40.9135 35.5729 41.133 35.2841 41.2023 34.8568C41.3524 33.9559 41.5603 33.055 41.7567 32.0848C40.0819 32.951 38.3148 33.1589 36.5707 33.4246ZM36.0856 36.5777C35.2771 36.5431 34.4802 36.3698 33.6717 36.3005C32.9325 36.2312 32.251 36.4391 31.5927 36.7856C31.0267 37.0859 30.403 37.3169 29.6985 37.6288C30.3568 37.6981 30.9112 37.7443 31.4541 37.8251C32.713 38.0099 33.868 38.4835 34.8844 39.2227C35.6583 39.7771 36.4437 39.754 37.2406 39.3959C38.6497 38.7722 39.5506 37.5941 40.4862 36.3236C38.9385 36.7625 37.5063 36.647 36.0856 36.5777ZM36.178 40.7588C34.7689 39.6154 33.279 38.6452 31.4541 38.3449C29.1325 37.9637 26.9496 38.2525 25.0438 39.8579C25.3672 40.3892 25.6791 40.9321 25.9216 41.3363C27.1344 41.0938 28.2547 40.6895 29.3751 40.678C31.3155 40.6549 33.1519 41.1746 34.6996 42.4913C35.9586 43.5655 36.1896 44.963 36.1434 46.4761C36.1087 47.8275 35.7045 49.1211 34.9884 50.2299C34.3531 51.2116 33.4753 52.0432 32.6437 52.9903C32.8747 53.3946 33.175 53.9374 33.4869 54.4803C36.5361 53.5101 38.592 49.7101 38.4418 47.0767C38.3956 46.1527 38.3032 45.2402 38.2224 44.3162C38.0953 42.8263 37.333 41.6944 36.178 40.7588ZM21.4171 57.6219C21.394 57.645 21.4055 57.6912 21.3709 57.8182C22.653 57.5064 23.8888 57.2292 25.1016 56.8942C25.2748 56.848 25.4365 56.5477 25.4712 56.3283C25.7137 54.8383 26.5915 53.8566 28.0122 53.5332C29.4906 53.1982 31.1076 53.7642 31.5927 55.4851C32.251 57.8182 30.0912 59.5507 28.1046 59.2389C27.1228 59.0772 26.3952 58.5921 25.7946 57.8529C25.7022 57.7374 25.5058 57.5988 25.3903 57.6219C24.1314 57.9684 22.8724 58.3611 21.6019 58.7307C22.2602 59.1118 22.9186 59.4121 23.4961 59.8279C24.6973 60.7057 25.2055 62.034 25.6675 63.3853C25.7137 63.5239 25.8754 63.7434 25.9563 63.7434C26.9727 63.6279 28.0353 63.6163 28.9939 63.2929C31.558 62.4267 32.9902 60.5671 33.1866 57.8529C33.2443 56.9635 33.2905 56.028 33.0711 55.1733C32.8516 54.3417 32.3781 53.5447 31.8699 52.8402C31.1884 51.9046 30.403 51.0153 29.2942 50.5417C28.7514 50.3107 28.1739 50.149 27.5848 50.0682C25.8408 49.8487 24.2469 50.38 22.7569 51.2463C22.6298 51.3156 22.4912 51.5697 22.5259 51.6967C23.0688 53.8566 22.9532 55.8663 21.4171 57.6219ZM8.07681 56.028C8.95462 55.5775 9.83242 55.3812 10.7795 55.5313C10.895 55.5544 11.0798 55.462 11.1491 55.3581C11.5072 54.8614 11.8883 54.3763 12.1771 53.8335C12.4774 53.256 12.3157 52.6554 11.8421 52.2165C11.3801 51.7776 10.8257 51.6159 10.2598 51.9393C9.74002 52.228 9.26646 52.5861 8.78136 52.9326C8.67741 53.0134 8.56192 53.1867 8.58502 53.2906C8.72362 54.2493 8.53881 55.1502 8.07681 56.028ZM9.27802 56.0973C9.05857 56.1781 8.83912 56.2705 8.63122 56.3745C7.84582 56.7672 7.85736 56.7672 8.01907 57.645C8.15766 58.3726 7.92667 59.031 7.46467 59.7586C8.52727 59.6085 9.28957 60.0127 9.97102 60.6364C10.0519 60.7173 10.2136 60.7866 10.3175 60.7519C11.7266 60.417 12.6622 58.7307 12.1886 57.3909C11.8999 56.5939 10.6178 55.5891 9.27802 56.0973ZM7.91511 70.8467C7.88046 70.9622 7.94977 71.1816 8.04217 71.2509C9.11633 72.071 10.4561 72.429 11.5996 71.3895C12.5236 70.5464 12.5929 69.1372 11.692 68.2017C11.357 67.8552 10.9412 67.578 10.5254 67.3239C10.3868 67.243 10.0634 67.2777 9.93637 67.3932C9.25491 67.9938 8.50417 68.3634 7.46467 68.2479C8.06527 69.1257 8.18076 69.9573 7.91511 70.8467ZM8.59656 74.6235C8.58501 74.7621 8.65432 74.97 8.74672 75.0509C9.22027 75.4089 9.69382 75.7785 10.2136 76.0442C10.8604 76.3791 11.3801 76.2521 11.8768 75.7439C12.3388 75.2703 12.4658 74.7275 12.1424 74.1153C11.8652 73.5956 11.4956 73.122 11.1491 72.6485C11.0798 72.5445 10.895 72.4521 10.7795 72.4752C9.78622 72.6716 8.89687 72.3828 8.01907 71.9324C8.52726 72.7986 8.70052 73.6764 8.59656 74.6235ZM22.7684 74.4041C22.676 75.0393 22.5836 75.6746 22.5259 76.3098C22.5144 76.4484 22.6298 76.6563 22.7453 76.7256C24.5587 77.8229 26.5222 78.2618 28.5897 77.7305C29.2596 77.5572 29.9179 77.1299 30.4608 76.6794C31.096 76.1481 31.6158 75.4782 32.1355 74.8314C33.279 73.3877 33.5562 71.7245 33.1635 69.9573C32.9787 69.1372 32.7592 68.3056 32.4589 67.5202C32.1124 66.6078 31.3501 66.0534 30.5647 65.499C29.1672 64.4941 27.5848 64.3902 25.9794 64.2631C25.887 64.2516 25.7022 64.3902 25.6791 64.4826C25.0785 66.7117 23.9465 68.4673 21.5903 69.2643C22.8377 69.6339 24.0736 70.0151 25.3326 70.3615C25.4712 70.3962 25.7253 70.2576 25.8292 70.119C26.7763 68.9409 28.0006 68.5482 29.4559 68.8369C30.5532 69.0564 31.5465 70.3154 31.6735 71.4011C31.7659 72.2327 31.5234 72.9257 31.0498 73.5609C30.2182 74.6697 28.1854 74.9123 27.0189 74.0691C26.1988 73.4685 25.5867 72.7409 25.4943 71.6783C25.4596 71.2394 25.2055 71.1008 24.8013 71.0199C23.7733 70.812 22.7685 70.5348 21.7405 70.2923C21.6366 70.2692 21.5326 70.2576 21.3247 70.2229C21.6019 70.6387 21.8213 70.9737 22.0408 71.3087C22.6645 72.2558 22.9186 73.2837 22.7684 74.4041ZM29.0748 81.8538C28.6821 81.8769 28.2894 81.9 27.8967 81.8538C27.5271 81.8076 27.169 81.6806 26.7648 81.5882C26.811 81.9 26.8803 82.1888 26.9034 82.4891C26.9265 82.7894 26.9034 83.1012 26.9034 83.4477C28.197 83.9328 29.5021 84.1523 30.8535 83.7134C32.2857 83.2398 32.817 82.3043 32.5051 80.6873C32.3319 79.7633 31.8699 78.9663 31.1884 78.2964C30.9228 78.0308 30.634 77.7767 30.3568 77.511C29.7909 77.7882 29.2596 78.0539 28.6936 78.3311C28.9708 78.6314 29.2942 78.9086 29.5368 79.2551C29.7793 79.59 29.9757 79.9712 30.1027 80.3639C30.3915 81.1724 29.9526 81.7845 29.0748 81.8538ZM32.4127 79.0818C33.0595 80.052 33.2559 81.1608 33.0249 82.3043C32.8054 83.4131 31.2693 84.3948 29.8371 84.4064C29.3289 84.4064 28.8091 84.4295 28.3125 84.3602C27.8158 84.2909 27.3307 84.1176 26.8225 83.979C26.6146 84.6605 26.4183 85.3073 26.1988 86.0234C27.273 86.5893 28.4164 86.9127 29.6176 86.8434C30.7842 86.7741 31.9392 86.5778 33.0249 86.0118C34.4109 85.2726 35.4735 84.3371 35.589 82.6508C35.7853 79.6824 34.6765 77.3378 32.251 75.5706C31.7428 76.1135 31.2693 76.6217 30.8073 77.1068C31.3617 77.7651 31.9507 78.3773 32.4127 79.0818ZM27.6657 81.2648C28.0584 81.3456 28.4857 81.3341 28.8784 81.2763C29.4675 81.1839 29.6638 80.8028 29.4559 80.2484C29.1903 79.5438 28.7052 79.0125 28.0815 78.6083C27.8967 78.4928 27.6426 78.4581 27.4116 78.4466C26.476 78.3773 25.552 78.3426 24.859 78.308C25.194 78.8162 25.7253 79.4745 26.0833 80.2022C26.4298 80.8952 27.0189 81.1146 27.6657 81.2648ZM33.9951 62.9233C34.9768 63.5355 34.9653 64.471 33.9835 65.0832C33.3945 65.4412 32.7246 65.6722 32.0893 65.961C32.3434 66.3537 32.6322 66.8272 32.944 67.2777C32.9902 67.347 33.1288 67.4278 33.2097 67.4047C34.6419 67.116 35.9701 66.6193 36.8364 65.3488C37.7026 64.0668 37.4947 63.2583 36.2935 61.9878C35.485 61.1331 34.3762 60.7981 33.2443 60.5671C33.1519 60.544 33.0018 60.6249 32.944 60.7057C32.6437 61.1562 32.355 61.6066 32.1009 62.0109C32.7477 62.3227 33.406 62.5653 33.9951 62.9233ZM31.4194 62.6346C31.0729 62.6346 30.7264 62.9811 30.3799 63.1659C29.7678 63.4777 29.1441 63.7665 28.7052 63.9859C29.4444 64.3786 30.3337 64.8753 31.2577 65.3257C31.4541 65.4181 31.7659 65.395 31.9854 65.3026C32.5975 65.0601 33.2097 64.806 33.7525 64.4595C34.099 64.24 34.0759 63.8473 33.7756 63.5239C33.1404 62.8425 32.2857 62.6461 31.4194 62.6346ZM34.7112 60.4747C36.1549 61.0176 37.2637 61.9069 37.7604 63.4315C38.0953 64.471 37.5756 65.2911 36.9634 66.0072C36.2011 66.9196 35.2078 67.5087 34.0182 67.7281C33.7525 67.7743 33.4984 67.8783 33.2443 67.9476C33.3714 68.5482 33.5215 69.1026 33.6139 69.6685C33.6601 69.9573 33.7641 70.0266 34.0413 69.992C35.485 69.8418 36.7555 69.3451 37.899 68.4327C39.2503 67.347 40.2205 66.0418 40.5324 64.3209C40.6017 63.9513 40.5324 63.5239 40.4053 63.1659C39.4582 60.2784 37.3908 58.6614 34.4917 58.0261C34.2492 57.9684 33.9951 58.0146 33.6948 58.0146C33.5446 58.6498 33.3945 59.3197 33.2328 60.0474C33.7294 60.186 34.2376 60.2899 34.7112 60.4747ZM19.0147 62.6577C19.5806 62.6461 20.1697 62.6923 20.7125 62.8194C21.2207 62.9349 21.6134 63.5586 21.5788 64.0206C21.5441 64.5981 21.1976 64.9908 20.6779 65.2102C19.9502 65.5105 19.1879 65.4297 18.4372 65.268C18.1022 65.1987 17.7673 65.1525 17.3977 65.0832C17.698 65.5683 17.9752 66.0072 18.2524 66.4461C18.2986 66.5154 18.3794 66.6078 18.4487 66.6078C19.777 66.7579 21.0821 66.8388 22.2371 65.9379C23.8542 64.6674 23.4961 62.623 21.7058 61.699C20.6779 61.1677 19.5691 61.2255 18.4718 61.3987C18.3794 61.4103 18.2755 61.5373 18.2177 61.6413C17.9521 62.0455 17.6864 62.4613 17.3977 62.9118C17.9521 62.8194 18.4834 62.6692 19.0147 62.6577ZM17.1898 63.5355C16.8433 63.6279 16.5199 63.8127 16.0694 63.9975C17.4785 64.6443 18.8068 65.037 20.2621 64.806C20.701 64.7367 21.0244 64.5172 21.0475 64.0437C21.0706 63.5355 20.7241 63.3045 20.2736 63.2005C19.211 62.958 18.2062 63.2698 17.1898 63.5355ZM18.5527 60.879C19.3496 60.879 20.1004 60.8097 20.828 60.8905C22.1332 61.0291 23.3922 62.1726 23.7155 63.3045C24.1429 64.8522 22.9763 66.3306 21.7636 66.8503C20.8742 67.2315 19.9387 67.2777 18.9916 67.1391C18.8761 67.116 18.749 67.1391 18.5989 67.1391C18.5758 67.243 18.5642 67.2777 18.5642 67.3123C18.5065 68.733 18.5758 68.8139 20.0195 68.8254C22.0639 68.8485 23.5885 67.9822 24.4894 66.1342C24.7897 65.5105 25.1824 64.8291 25.1709 64.1707C25.1362 62.3689 24.27 60.9367 22.7569 59.9088C21.5672 59.1003 20.2621 59.0079 18.8992 59.3313C18.7721 59.3659 18.5758 59.5276 18.5642 59.6431C18.518 60.0358 18.5527 60.4285 18.5527 60.879ZM27.4231 73.5032C27.8389 73.6649 28.2894 73.7226 28.7283 73.8266C30.2529 73.7457 31.2462 72.5099 30.8997 71.0314C30.738 70.3269 30.1258 70.0497 29.583 69.7378C28.4626 69.1026 26.7648 69.299 26.1411 70.7658C25.7253 71.736 26.2797 73.0412 27.4231 73.5032ZM20.5855 70.3038C19.9849 69.7956 19.1764 69.5299 18.4372 69.1603C18.1138 69.7032 17.8828 70.0959 17.7095 70.3847C18.5065 70.9737 19.3612 71.4819 20.0657 72.1634C21.2785 73.3415 21.2669 75.5475 20.0773 76.5062C19.0031 77.384 17.7557 77.511 16.4852 77.049C15.7807 76.7949 15.1454 76.3676 14.4755 76.0095C14.2561 76.3791 14.0251 76.7718 13.7941 77.1761C15.4688 79.2089 18.4487 79.3359 20.2043 78.0192C20.9666 77.4533 21.8098 77.0028 22.0639 75.998C22.6298 73.8266 22.3642 71.8284 20.5855 70.3038ZM18.7028 74.6928C18.391 75.2819 17.8135 75.5129 16.8895 75.1895C16.2773 74.9816 15.7576 74.508 15.2032 74.1269C14.9953 73.9883 14.822 73.8035 14.6141 73.6418C14.3369 74.7044 14.6372 75.4667 15.5035 75.998C16.4506 76.587 17.4323 76.9566 18.5873 76.691C20.7241 76.1943 20.8396 73.9074 19.8463 72.6369C19.1995 71.8053 18.3101 71.3317 17.363 70.9506C17.2706 70.9159 17.1436 70.9044 17.0627 70.9391C16.6007 71.1701 16.1387 71.4241 15.7229 71.6436C16.543 72.0479 17.3861 72.4059 18.1715 72.891C18.8414 73.3068 19.0147 74.1153 18.7028 74.6928ZM16.543 74.508C16.774 74.6466 17.0281 74.7621 17.2937 74.8083C17.6864 74.8776 18.1484 74.843 18.2524 74.4041C18.3217 74.1153 18.2177 73.6533 18.0098 73.4454C17.2013 72.6254 16.0925 72.3944 15.0299 72.1056C14.7181 72.0247 14.3831 72.0247 13.9673 71.9901C14.6719 73.0989 15.5381 73.8728 16.543 74.508ZM16.6354 70.6272C17.698 69.9688 18.2755 68.5251 17.9867 67.3239C17.5594 65.5452 16.3466 64.5288 14.4524 64.2516C14.3023 64.6327 14.1637 65.0023 14.0135 65.3835C14.5679 65.6491 15.1685 65.8801 15.6998 66.2035C16.6816 66.7926 16.8895 67.4856 16.5545 68.6752C16.3466 69.4145 15.4111 70.0151 14.6026 69.9227C14.0366 69.8534 13.4591 69.8187 12.847 69.7609C12.7892 70.1305 12.7315 70.5117 12.6622 70.9391C14.0482 71.5974 15.3533 71.4241 16.6354 70.6272ZM13.898 69.3567C14.1868 69.3567 14.4755 69.4029 14.7643 69.3913C15.515 69.3798 15.9886 68.9755 16.208 68.1786C16.3582 67.6473 16.0348 66.9196 15.4804 66.6193C15.0646 66.3999 14.6257 66.2266 14.1983 66.0418C13.9096 65.9263 13.667 65.9956 13.3552 66.1458C12.616 66.5038 11.819 66.7348 11.1838 66.9774C11.5534 67.3932 12.154 67.8783 12.4774 68.502C12.8123 69.1488 13.2512 69.3567 13.898 69.3567ZM13.8634 63.8589C13.8056 62.392 11.8883 61.1446 10.5485 61.7221C10.4099 61.7799 10.2944 61.9993 10.2367 62.161C9.91328 63.085 9.50902 63.5586 8.59656 64.009C9.47437 64.4017 10.0172 65.0139 10.2367 65.8686C10.3175 66.2151 10.5139 66.319 10.8257 66.3652C12.4427 66.6309 13.9327 65.4181 13.8634 63.8589ZM9.65918 66.9196C9.79777 66.7464 9.85551 66.4345 9.82087 66.2035C9.67072 65.1063 8.43486 64.1476 7.31451 64.24C7.23366 64.2516 7.10661 64.2631 7.07196 64.3093C6.62151 65.037 5.81301 65.0947 5.10846 65.3488C5.59356 65.8801 6.26346 66.2844 6.26346 67.116C6.26346 67.1968 6.37896 67.2892 6.45981 67.347C7.43001 68.0285 8.89687 67.8437 9.65918 66.9196ZM6.12485 64.471C6.30965 64.3902 6.52911 64.1476 6.52911 63.9975C6.52911 63.8358 6.2981 63.6048 6.12485 63.5124C4.80815 62.9002 3.60695 63.3969 2.29025 63.9859C3.6185 64.6212 4.80815 65.0947 6.12485 64.471ZM7.06042 63.6972C7.08352 63.7318 7.15281 63.7549 7.19901 63.7665C8.23851 64.0437 9.84397 62.7039 9.83243 61.6297C9.82088 60.9252 8.42332 60.0474 7.66101 60.2437C7.32606 60.3361 7.00266 60.4285 6.67926 60.5325C6.41361 60.6249 6.32121 60.8212 6.20571 61.0984C5.97471 61.6066 5.57046 62.034 5.23551 62.496C5.20086 62.5537 5.10846 62.5653 4.98141 62.6346C5.82457 62.8771 6.60997 62.9695 7.06042 63.6972ZM11.3108 60.8097C11.2184 60.9136 11.0914 60.9714 10.8835 61.1331C11.9692 61.0984 12.8239 61.3872 13.5631 61.9878C13.6439 62.0571 13.8172 62.0686 13.9211 62.034C14.5217 61.7799 15.157 61.5835 15.6883 61.2255C16.2773 60.8328 16.3697 60.1744 16.1041 59.4814C15.9077 58.9386 15.3649 58.5805 14.6834 58.5921C14.2676 58.5921 13.8518 58.6267 13.436 58.6845C13.078 58.7422 12.847 58.8924 12.6391 59.2735C12.3041 59.851 11.7613 60.313 11.3108 60.8097ZM12.847 58.234C13.4707 58.1878 14.0944 58.1185 14.7296 58.107C15.5959 58.0839 16.3235 58.5805 16.5545 59.2966C16.9126 60.4054 16.7162 61.1793 15.8384 61.7221C15.2725 62.0686 14.6488 62.3227 14.0366 62.623C14.1752 62.9811 14.3138 63.3622 14.4524 63.7318C16.4159 63.5124 17.4554 62.4613 17.9405 60.9252C18.3332 59.6662 17.9752 58.4073 16.8895 57.5641C15.619 56.5708 14.1983 56.3167 12.6737 57.0559C12.7315 57.4833 12.7892 57.8529 12.847 58.234ZM18.2062 55.0809C17.4208 55.5775 16.543 55.9356 15.7345 56.3514C16.1387 56.5708 16.5892 56.8134 17.0627 57.0559C17.132 57.0906 17.236 57.1137 17.3053 57.079C18.3448 56.6632 19.2919 56.1319 19.9849 55.2079C20.47 54.5611 20.6317 52.9903 20.0888 52.2742C19.5229 51.5235 18.3217 51.0384 17.2706 51.2578C16.3235 51.4542 15.5266 51.9393 14.7874 52.5514C14.7181 52.6092 14.6372 52.7247 14.6372 52.8055C14.6026 53.3137 14.5795 53.8104 14.5448 54.4225C14.9491 54.0876 15.284 53.7757 15.6652 53.5101C16.0463 53.2444 16.4506 52.9903 16.8779 52.8055C17.6171 52.4821 18.3448 52.69 18.6913 53.2791C19.0147 53.8566 18.8645 54.6651 18.2062 55.0809ZM17.9059 54.6766C18.2755 54.411 18.518 54.0067 18.2408 53.5447C17.9752 53.0827 17.5132 53.1058 17.0858 53.2675C15.7807 53.7757 14.8682 54.7459 14.1059 55.9125C15.515 55.8894 16.7855 55.4967 17.9059 54.6766ZM15.4226 51.4542C16.7047 50.7034 18.0214 50.4031 19.4536 51.0961C20.7818 51.7429 21.1745 52.9557 20.8627 54.3301C20.5162 55.8432 19.4189 56.6517 18.1138 57.2638C17.9983 57.3216 17.8828 57.3678 17.7673 57.4255C17.7211 57.4486 17.6864 57.4833 17.6518 57.5064C17.8943 57.9222 18.1369 58.3149 18.3679 58.7307C21.059 58.234 22.3642 55.8316 22.3064 54.0876C22.2833 53.4754 22.2371 52.8633 22.1332 52.2627C22.0292 51.6621 21.7636 51.1077 21.2438 50.7612C20.5277 50.2761 19.8347 49.687 19.0378 49.4098C17.3284 48.8208 15.6883 49.0749 14.2907 50.3454C14.1175 50.5071 13.9442 50.6572 13.7825 50.8074C14.0251 51.2232 14.2561 51.6159 14.5102 52.0548C14.8105 51.8584 15.1108 51.639 15.4226 51.4542ZM25.9909 56.6286C26.0025 57.3562 26.6146 58.1878 27.3423 58.4304C28.428 58.8 29.8948 58.4073 30.6109 57.5179C30.7611 57.3331 30.9228 57.0444 30.8881 56.8365C30.7842 56.1666 30.6687 55.4736 30.3915 54.873C30.0681 54.18 29.3173 54.2724 28.7514 54.2493C27.0997 54.2608 25.9794 55.2541 25.9909 56.6286ZM30.1027 47.7004C29.8371 48.2895 29.3866 48.8092 29.0055 49.3405C28.9246 49.456 28.7745 49.5138 28.6243 49.6177C29.2134 49.9296 29.71 50.1952 30.2067 50.4378C30.2875 50.4724 30.4608 50.4493 30.5301 50.3916C31.3039 49.6293 32.0431 48.8439 32.4358 47.7928C33.0595 46.1065 32.2279 44.5126 30.4377 44.1661C29.2365 43.9351 28.0584 44.0968 26.9611 44.5588C26.9149 45.1825 26.8687 45.7946 26.8225 46.3952C27.3076 46.2913 27.7927 46.1527 28.2778 46.1065C28.6243 46.0718 29.0055 46.1065 29.352 46.1989C30.0796 46.3952 30.4261 46.9958 30.1027 47.7004ZM27.5271 49.5715C27.7812 49.5484 28.0815 49.456 28.2663 49.2943C28.6359 48.9594 29.017 48.5898 29.2596 48.1509C29.4328 47.839 29.5714 47.2846 29.4097 47.0652C29.2134 46.7995 28.6821 46.6493 28.3125 46.6609C27.8043 46.6724 27.2268 46.7764 26.811 47.0536C26.3952 47.3308 26.1411 47.8621 25.8408 48.301C25.4827 48.7977 25.1478 49.3059 24.8821 49.6986C25.656 49.6639 26.5915 49.6408 27.5271 49.5715ZM26.8225 44.0275C27.1344 43.9466 27.4578 43.8542 27.7812 43.7734C28.9477 43.4731 30.1258 43.4615 31.2462 43.912C33.1173 44.6743 33.4869 46.0834 32.7823 48.1278C32.5975 48.6706 32.2857 49.1788 31.9392 49.6408C31.6042 50.0797 31.1422 50.4262 30.7264 50.8189C31.2577 51.3964 31.7313 51.9046 32.2279 52.4359C34.2607 51.0846 35.3002 49.1673 35.5774 46.7995C35.6352 46.2682 35.6121 45.7253 35.5659 45.194C35.4157 43.577 34.3416 42.6877 33.0018 42.0062C31.6042 41.3017 30.1143 41.0245 28.5781 41.2324C27.7696 41.3363 26.9842 41.6597 26.1757 41.8792C26.4183 42.6646 26.6146 43.3114 26.8225 44.0275ZM34.9306 54.6535C35.9817 54.8614 37.0558 55.0578 38.13 55.2772C39.516 55.566 40.8789 55.6006 42.2302 55.0578C43.1889 54.6651 43.9396 54.0298 44.4594 53.152C45.0022 52.2165 44.8405 51.6621 43.8588 51.177C42.5883 50.5417 41.26 50.484 39.9202 50.9922C38.5111 51.5235 37.437 52.5399 36.3397 53.4985C35.8546 53.9028 35.3695 54.2955 34.9306 54.6535ZM43.9627 43.9582C43.1658 45.2749 42.4728 46.6378 41.7567 48.0007C41.4795 48.5205 41.2716 49.0864 41.0175 49.687C42.6576 49.7217 43.8126 48.9016 44.8174 47.7466C45.7992 46.6147 46.8387 45.5174 47.8551 44.4202C48.0284 44.2354 48.2594 44.1199 48.5481 43.912C47.7627 43.6232 47.035 43.3229 46.2958 43.0919C45.2448 42.7801 44.5518 42.9995 43.9627 43.9582ZM47.1043 45.8062C46.3189 46.6493 45.6144 47.5849 44.8174 48.4281C44.3092 48.9709 43.6855 49.3983 43.0965 49.8949C43.6047 50.1259 44.1822 50.4378 44.8059 50.6341C44.9791 50.6919 45.291 50.4609 45.4989 50.3107C46.4922 49.5022 47.4278 48.6129 48.4788 47.8736C49.6454 47.0536 51.0314 46.6955 52.452 46.5685C52.7408 46.5454 53.0526 46.6493 53.3529 46.6956C53.376 46.6493 53.3991 46.6031 53.4222 46.5569C52.4174 46.0372 51.4241 45.4828 50.4077 44.9977C49.0101 44.3047 48.0399 44.7898 47.1043 45.8062ZM52.5444 47.0998C51.5973 47.0652 50.5925 47.4232 49.68 47.7928C48.1785 48.3934 46.9311 49.3983 45.9609 50.7034C45.3256 51.5581 45.5104 52.228 46.5037 52.6207C48.5712 53.4408 50.6733 53.5794 52.8216 52.9557C54.404 52.4937 55.3626 51.304 56.2404 50.022C56.483 49.6639 56.6331 49.2481 56.8526 48.8323C55.559 47.7697 54.1037 47.1691 52.5444 47.0998ZM54.1037 52.9441C52.0016 53.9952 49.7955 54.0414 47.5548 53.4985C47.0697 53.383 46.5846 53.1982 46.0879 53.1289C45.8685 53.0943 45.5451 53.1751 45.4065 53.3253C45.0022 53.7988 44.6673 54.3301 44.2399 54.9423C45.3718 54.642 46.3074 54.9885 47.243 55.3234C48.1785 55.6584 49.1025 56.0395 50.0612 56.3167C51.6089 56.7556 52.5213 56.3976 53.3876 55.0462C53.9189 54.2146 54.4155 53.3599 54.8429 52.4359C54.6119 52.5976 54.3809 52.8055 54.1037 52.9441ZM46.3536 55.5544C45.0715 55.1502 43.8819 55.2657 42.6114 55.9818C44.136 56.9982 45.5797 57.9568 47.0235 58.9155C47.7396 59.389 48.5481 59.6893 49.4028 59.724C49.7031 59.7355 50.0843 59.493 50.3153 59.262C50.939 58.6267 51.5049 57.9222 52.1748 57.1599C50.0034 57.1252 48.2363 56.1435 46.3536 55.5544ZM43.4661 57.0906C42.6691 56.4438 41.7451 56.1319 40.6941 56.1319C40.1166 56.1319 39.5506 56.028 38.8345 55.9471C39.0309 56.0973 39.1233 56.1666 39.2157 56.2243C40.7056 57.0906 41.8491 58.2918 42.5652 59.8395C43.0503 60.8905 43.8472 61.2486 44.8867 61.2832C46.2843 61.341 47.5432 60.8097 48.8715 60.2322C46.7809 59.5507 45.0831 58.4073 43.4661 57.0906ZM43.2466 62.9349C42.8308 61.11 42.0339 59.4352 40.7403 58.0723C39.5275 56.7787 38.0145 55.9125 36.2589 55.5775C35.4735 55.4274 34.665 55.4736 33.7987 55.4274C33.7987 56.0973 33.7756 56.6517 33.8218 57.2061C33.8334 57.3216 34.0759 57.4948 34.2261 57.5179C36.9288 57.7951 38.8576 59.2735 40.2667 61.4796C41.3524 63.1659 41.3178 64.9215 40.2205 66.5962C38.9154 68.6059 37.1367 69.9688 34.7343 70.4193C33.7872 70.5926 33.7872 70.6156 33.7872 71.5859C33.7872 71.8746 33.7872 72.1634 33.7872 72.4752C36.282 72.8217 38.3263 72.0132 40.1281 70.4886C41.8953 68.9986 42.7962 66.9889 43.3044 64.806C43.4545 64.2169 43.3852 63.5355 43.2466 62.9349ZM34.9422 73.353C36.0279 74.2539 37.0905 75.2126 38.2224 76.0673C39.8509 77.3031 41.6527 77.7651 43.6162 76.9335C45.0946 76.3098 45.1062 75.432 43.9165 74.15C42.3226 72.4059 40.2783 72.3251 38.1415 72.7178C37.0789 72.9257 36.0048 73.1451 34.9422 73.353ZM42.8308 67.7397C41.9299 69.4953 40.7518 70.9622 38.8692 71.9786C40.9366 72.0017 42.7153 71.7129 44.263 70.3269C45.5682 69.1719 47.1043 68.2825 48.9062 67.7859C47.1736 67.0698 45.5335 66.2959 43.674 66.9889C43.3506 67.1044 43.0041 67.4163 42.8308 67.7397ZM48.0861 68.5713C46.677 69.3798 45.3256 70.2923 43.9627 71.1701C43.5354 71.4473 43.1196 71.736 42.6576 72.0479C44.1937 72.9719 45.6837 72.7409 47.1967 72.1865C48.4673 71.7244 49.7724 71.3317 51.066 70.9506C51.3663 70.8582 51.7013 70.8929 52.1864 70.8582C51.4125 70.0035 50.7888 69.1372 49.9803 68.4673C49.4606 68.0169 48.6521 68.2479 48.0861 68.5713ZM50.3961 71.6205C49.4721 71.8515 48.5828 72.2442 47.6703 72.5098C46.8156 72.764 45.9378 72.9834 45.06 73.1682C44.829 73.2144 44.5633 73.122 44.263 73.0874C44.6673 73.6533 45.0138 74.1615 45.3834 74.6466C45.6375 74.9816 45.9724 74.9123 46.3189 74.8083C47.6934 74.4156 49.0794 74.0807 50.5232 74.1615C51.7359 74.2193 52.9371 74.4156 54.0228 75.0047C54.3 75.1548 54.5541 75.3627 54.9237 75.5013C54.531 74.843 54.1614 74.1731 53.7572 73.5263C53.4915 73.0989 53.1912 72.6831 52.8678 72.302C52.221 71.505 51.3201 71.3895 50.3961 71.6205ZM51.1469 74.7159C49.5183 74.5773 47.9706 74.8199 46.4806 75.3974C45.5104 75.7785 45.3025 76.4715 45.9493 77.28C47.5433 79.2897 49.553 80.6642 52.1748 80.8605C53.9189 80.9876 55.4435 80.2484 56.8526 79.1973C55.6976 76.7025 54.0575 74.9469 51.1469 74.7159ZM47.6934 79.6362C46.9195 79.0703 46.2381 78.3888 45.5335 77.7305C45.1755 77.3955 44.8752 77.2338 44.3901 77.5226C43.9627 77.7767 43.4776 77.9384 42.9579 78.1694C43.3506 78.4004 43.7664 78.5621 44.0551 78.8393C44.7366 79.5092 45.3487 80.2484 45.9955 80.9529C46.5384 81.5535 47.0582 82.2003 47.6703 82.7201C48.2363 83.1936 48.9177 83.5055 49.7262 83.2629C51.066 82.8471 52.221 82.0964 53.5146 81.3225C51.2162 81.6344 49.3797 80.8605 47.6934 79.6362ZM44.4132 79.8326C43.5123 78.8508 42.4035 78.2733 41.0059 78.3195C41.9299 80.3061 42.6576 82.3851 43.9974 84.1407C44.6673 85.007 45.2679 85.2033 46.3421 84.903C46.5153 84.8568 46.6886 84.8106 46.8618 84.7413C47.4047 84.5334 47.936 84.3255 48.5481 84.083C46.804 82.9626 45.7299 81.2763 44.4132 79.8326ZM37.9683 78.1809C37.0674 76.0904 35.8084 74.3232 33.4984 73.5263C33.1981 74.0576 32.8978 74.5889 32.6091 75.0971C33.2328 75.7092 33.9373 76.2752 34.4802 76.9682C35.4273 78.1694 35.947 79.5785 36.0972 81.1146C36.1549 81.7268 36.1434 82.3505 36.0741 82.9511C35.8431 84.9839 34.4109 86.0118 32.7015 86.6933C30.4723 87.5942 28.2316 87.5826 26.0256 86.5085C25.6906 87.0629 25.3903 87.5942 25.0554 88.1486C26.118 89.0148 27.2961 89.5923 28.6705 89.7309C30.2991 89.8926 31.893 89.7656 33.3945 89.061C34.8844 88.3565 36.2011 87.3978 37.2868 86.162C38.1531 85.1687 38.2917 83.8751 38.4187 82.6508C38.5689 81.1377 38.5804 79.6016 37.9683 78.1809ZM36.7209 88.4258C36.1896 88.2641 35.6814 88.2756 35.1732 88.6221C34.0297 89.4075 32.7823 89.985 31.3963 90.1929C30.8766 90.2738 30.3453 90.3084 29.7562 90.3662C31.5465 91.3018 33.2443 92.0063 35.3233 91.5327C36.9634 91.1631 38.6959 91.2093 40.4631 91.6713C39.4236 90.2391 38.4187 88.934 36.7209 88.4258ZM39.7932 92.0409C38.5689 91.9254 37.3446 91.9023 36.1087 91.937C35.0692 91.9716 34.0297 92.1449 32.9671 92.2604C33.5331 93.4269 34.5379 94.0738 35.7391 94.3741C37.0327 94.6975 38.361 94.8592 39.6546 95.1479C40.3476 95.3096 41.0175 95.5868 41.7451 95.8294C41.5488 94.8592 41.4102 93.8543 41.1445 92.8956C40.9828 92.295 40.3129 92.0872 39.7932 92.0409ZM41.6412 97.5388C41.491 96.4069 40.6017 95.8756 39.5737 95.633C38.6844 95.4251 37.7604 95.3212 36.8595 95.1479C35.82 94.94 34.7574 94.7899 33.8218 93.9467C33.8796 94.7206 33.8565 95.3212 33.9951 95.8871C34.0528 96.1181 34.4224 96.3722 34.6996 96.4415C36.4783 96.9266 38.2108 97.4926 39.643 98.7053C40.5555 99.4792 41.4217 100.299 41.7451 101.535C41.8029 101.524 41.8491 101.512 41.9068 101.5C41.8144 100.184 41.8029 98.8439 41.6412 97.5388ZM40.1859 99.8719C38.9616 98.5667 37.4254 97.712 35.6814 97.2731C35.1963 97.1461 34.6881 97.0537 34.1914 97.0306C33.4984 97.0075 33.0711 97.3886 33.1635 98.0701C33.3021 99.0403 33.5215 100.022 33.868 100.946C34.4802 102.551 35.4619 103.949 36.9865 104.804C38.0491 105.404 39.2619 105.67 40.5208 105.578C40.8789 105.554 41.2369 105.578 41.6412 105.578C41.8144 103.452 41.6758 101.466 40.1859 99.8719ZM37.5294 105.578C35.8893 105.069 34.9191 103.799 34.0528 102.436C33.279 101.235 32.8978 99.8719 32.5513 98.4974C32.4474 98.0816 32.2164 97.8506 31.7544 97.8506C31.2346 97.8391 30.7149 97.7582 30.0796 97.6889C31.3039 99.202 31.1653 101.004 31.5696 102.655C31.662 103.037 31.7197 103.441 31.8468 103.81C32.2395 105.012 33.1404 105.589 34.33 105.658C35.4157 105.728 36.5014 105.67 37.5871 105.67C37.5756 105.658 37.564 105.589 37.5294 105.578ZM30.6918 100.449C30.5301 99.433 30.1605 98.5321 29.5137 97.7467C29.2134 97.3886 28.7976 97.123 28.3933 96.7765C28.2778 97.7351 28.1161 98.5783 28.0815 99.433C28.0353 100.727 28.0237 102.032 28.093 103.337C28.1161 103.799 28.3587 104.272 28.6012 104.688C28.9246 105.243 29.5714 105.173 30.1027 105.3C30.7264 105.451 31.3732 105.508 32.0431 105.612C31.1538 103.984 30.9574 102.205 30.6918 100.449ZM32.0085 96.9382C32.6784 96.892 33.0249 96.557 33.0595 95.8756C33.1404 94.2701 32.4936 92.9996 31.2924 91.9832C30.1605 91.013 28.7629 90.6087 27.4 90.1352C26.7879 89.9273 26.1757 89.6847 25.4943 89.4422C26.1873 91.14 26.7417 92.8725 27.5848 94.4549C28.4973 96.1297 29.9988 97.0537 32.0085 96.9382ZM16.67 99.3868C17.4554 99.5369 18.287 99.4792 19.084 99.4099C20.6317 99.2828 21.4286 98.1856 22.0754 96.9497C22.8031 95.5637 23.0688 94.0738 22.8724 92.5261C22.7685 91.706 22.445 90.9091 22.214 90.0774C21.4171 90.32 20.7703 90.5163 20.1812 90.6896C20.2852 91.6251 20.4353 92.526 20.4931 93.4385C20.5624 94.5589 20.1466 95.5406 19.3958 96.3607C18.7837 97.0306 17.9405 97.0306 17.132 96.9613C15.8962 96.8573 14.8451 96.3029 13.9904 95.402C13.7479 95.1479 13.5169 94.9053 13.2743 94.6513C12.7199 95.1595 12.2117 95.6446 11.6804 96.1297C12.8585 97.9777 14.591 98.9825 16.67 99.3868ZM16.312 96.2798C18.4141 96.892 19.6268 96.2105 19.9964 93.8543C20.1581 92.7802 19.9618 91.937 19.5229 90.7935C19.2341 90.7935 18.9223 90.8051 18.622 90.7935C18.3217 90.7704 18.0214 90.7127 17.7904 90.678C17.8481 91.4173 17.9752 92.1449 17.9636 92.8726C17.9521 93.8774 17.2013 94.3741 16.2889 93.9467C15.6074 93.6233 14.9953 93.1267 14.36 92.6993C14.1406 93.1613 13.8749 93.6926 13.6093 94.247C14.3485 95.1017 15.157 95.9449 16.312 96.2798ZM17.4554 92.2257C17.3861 91.7175 17.2822 91.1862 17.0743 90.7127C16.9472 90.4355 16.6238 90.2276 16.3466 90.0428C15.6536 89.5692 14.9375 89.1303 14.3947 88.7723C14.4293 89.4537 14.4871 90.3662 14.5102 91.2786C14.5333 92.1564 15.8384 93.4385 16.7162 93.4154C17.1898 93.4038 17.5478 92.861 17.4554 92.2257ZM18.4949 90.2507C19.0955 90.3546 19.7654 90.2391 20.366 90.1005C21.5903 89.8118 22.7685 89.3613 23.7964 88.6221C24.8937 87.8367 25.4365 86.6586 25.8408 85.4343C26.0833 84.7067 26.2681 83.9328 26.3836 83.1705C26.5222 82.3043 26.2104 81.4958 25.8523 80.7104C25.1478 79.2089 24.0043 78.1347 22.5952 77.3031C22.2602 77.1068 22.087 77.1183 21.8098 77.384C20.8858 78.2618 19.8578 79.0472 18.5642 79.2435C17.7904 79.359 16.9819 79.2666 16.0694 79.2666C17.005 80.2484 17.8712 81.1724 18.7375 82.0848C18.9454 82.3043 19.1417 82.2696 19.4074 82.1541C21.4171 81.2532 23.9812 82.5468 24.0505 85.238C24.0852 86.5778 22.214 88.2756 20.6201 87.8598C18.6682 87.3632 17.7326 85.4459 18.0676 83.9097C18.1138 83.6787 18.1715 83.4362 18.2986 83.2398C18.4603 82.9857 18.4025 82.8009 18.2177 82.6277C17.3053 81.7614 16.3928 80.8952 15.4457 79.9943C15.4457 80.7104 15.515 81.3572 15.4226 81.9924C15.3418 82.593 15.1916 83.2167 14.9029 83.7365C14.4755 84.4872 13.898 85.1456 13.4014 85.8501C13.3205 85.9656 13.2859 86.1966 13.3436 86.3121C14.4755 88.368 16.1156 89.8349 18.4949 90.2507ZM18.4718 84.441C18.4487 85.6884 19.9849 87.2015 21.2554 87.1899C22.087 87.1784 23.3113 85.931 23.2998 85.0994C23.2882 83.8289 21.7982 82.3505 20.5508 82.3736C19.5229 82.3967 18.4834 83.4246 18.4718 84.441ZM13.54 84.9492C14.7643 83.4593 15.3649 81.7845 14.7412 79.9019C14.4755 79.0934 13.8865 78.3773 13.4245 77.6034C12.8585 77.9268 12.4543 78.1694 12.1655 78.3311C12.5467 79.2204 13.0318 80.0982 13.2974 81.0338C13.7594 82.6277 12.6506 84.5681 11.2531 84.7875C9.76312 85.0185 8.52726 84.545 7.62636 83.3322C7.22211 82.7894 6.91026 82.1657 6.55221 81.5651C6.18261 81.773 5.77835 82.0155 5.36256 82.2581C5.82455 84.8106 8.07682 86.2313 10.0172 86.1966C10.6178 86.1851 11.23 86.1389 11.8306 86.0349C12.5467 85.9194 13.078 85.5036 13.54 84.9492ZM7.00267 81.1493C7.56862 82.466 8.18076 83.7711 9.69382 84.2216C11.4494 84.7413 12.6968 83.7365 12.8701 82.0386C13.0087 80.6873 12.3272 79.6362 11.5418 78.6429C11.4956 78.5852 11.3917 78.539 11.3108 78.5274C10.8026 78.4928 10.306 78.4812 9.72847 78.4466C10.1905 79.0472 10.6178 79.5554 10.9874 80.1098C11.1838 80.3985 11.3455 80.7566 11.4032 81.1031C11.5418 81.9116 11.2531 82.4429 10.5947 82.697C10.0981 82.8933 9.35887 82.6623 8.98927 82.0733C8.61967 81.4842 8.35402 80.8259 8.04217 80.1906C7.94977 79.9827 7.88046 79.7633 7.78806 79.5323C7.51086 80.0405 7.25677 80.514 7.00267 80.9991C7.00267 81.0338 6.99112 81.1031 7.00267 81.1493ZM8.91997 78.4581C8.70052 78.2618 8.44641 78.0885 8.13456 77.8575C8.16922 79.3475 8.60812 80.618 9.40507 81.7614C9.63607 82.0964 9.98257 82.3158 10.433 82.1888C10.9066 82.0502 11.0914 81.5535 10.8373 80.9183C10.433 79.9134 9.69382 79.1627 8.91997 78.4581ZM9.60142 77.8344C10.6987 78.0885 11.7613 78.1463 12.7546 77.3955C14.8913 75.7785 14.2792 72.8448 12.5698 71.5512C12.4774 71.4819 12.2464 71.5281 12.1309 71.609C11.8883 71.7707 11.692 71.9786 11.4379 72.198C11.7613 72.6254 12.0962 73.0296 12.385 73.4685C12.9971 74.381 12.9047 75.2472 12.2695 75.998C11.4148 76.9913 10.3175 76.8296 9.60142 76.3445C9.15097 76.0442 8.73517 75.6977 8.29627 75.3743C8.05372 75.663 7.78806 75.9518 7.49931 76.2983C8.04216 77.0028 8.67743 77.6265 9.60142 77.8344ZM8.09992 73.5956C8.00752 73.3299 7.96131 73.0296 7.84581 72.7755C7.40691 71.8053 7.39535 71.8862 6.35585 71.9208C5.70905 71.9439 5.03916 71.7014 4.36925 71.5743C4.48476 72.4406 4.05741 73.2029 3.43371 73.9074C3.36441 73.9883 3.31821 74.1731 3.36441 74.2655C3.87261 75.4205 4.88901 76.4831 6.44826 76.1597C7.33761 75.9864 8.42332 74.508 8.09992 73.5956ZM4.71576 67.3816C4.91211 67.4278 5.10846 67.4394 5.30481 67.4278C5.68595 67.3932 5.84766 67.1275 5.65131 66.7926C5.46651 66.4923 5.2586 66.1458 4.96985 65.961C4.1267 65.4181 3.20271 65.0601 2.04771 65.164C2.77536 66.2266 3.49145 67.1044 4.71576 67.3816ZM3.5261 68.8485C3.39905 67.809 2.72916 67.1044 1.97841 66.4576C1.79361 66.2959 1.5626 66.1804 1.25075 65.961C1.2623 67.3701 1.55106 68.5482 2.61366 69.3914C2.78691 69.5299 3.19115 69.657 3.26046 69.5761C3.43371 69.4145 3.56075 69.091 3.5261 68.8485ZM1.32005 61.9993C2.3711 61.2948 3.23735 60.5325 3.503 59.2851C3.53765 59.1118 3.5723 58.9155 3.5261 58.7422C3.44525 58.4304 3.2489 58.1994 2.89085 58.4188C2.6021 58.5921 2.3018 58.7884 2.08234 59.0425C1.56259 59.6431 1.18145 61.11 1.32005 61.9993ZM2.579 62.1033C2.4173 62.2881 2.29025 62.5191 2.05925 62.854C3.503 62.8425 4.69265 62.5422 5.5358 61.4449C5.66286 61.2832 5.76681 60.9136 5.67442 60.8328C5.51271 60.6711 5.20086 60.544 4.98141 60.5787C3.94191 60.6826 3.21425 61.341 2.579 62.1033ZM4.3808 56.617C5.22395 56.0164 6.06711 55.924 6.96801 56.1666C7.08351 56.2012 7.29142 56.1204 7.36071 56.028C8.25007 54.769 8.51572 53.6025 7.44156 52.4475C6.63306 51.5697 5.27015 51.5004 4.3346 52.3551C3.95345 52.7016 3.65315 53.152 3.3875 53.6025C3.30665 53.7295 3.37596 54.0529 3.49145 54.1915C4.24221 55.1155 4.3577 55.4158 4.3808 56.617ZM8.28472 52.6554C8.70052 52.3435 9.10477 51.997 9.54367 51.7198C10.999 50.7958 11.9692 51.3849 12.6737 52.5745C12.9971 53.1174 12.8701 53.7873 12.512 54.3417C12.1886 54.8383 11.819 55.3119 11.461 55.8201C11.7728 56.0742 12.0616 56.3167 12.3503 56.5708C13.54 55.9702 14.2907 54.307 14.1175 52.7593C13.9904 51.5928 12.6968 50.2068 11.5418 50.0451C9.91327 49.8372 8.52727 50.2645 7.52242 51.7429C7.76497 52.0432 8.01907 52.3435 8.28472 52.6554ZM10.6756 47.4348C11.0683 46.7417 10.9874 46.0603 10.537 45.8177C10.1212 45.5983 9.56676 45.8524 9.18562 46.5339C8.57346 47.6311 8.12301 48.7861 8.14611 50.1144C9.22026 49.4098 10.0634 48.5205 10.6756 47.4348ZM7.75342 48.3934C8.14612 47.5965 8.50417 46.7418 8.97772 45.9563C9.33577 45.3557 10.075 45.1247 10.5601 45.298C11.3339 45.5867 11.7035 46.3606 11.3224 47.1691C11.0336 47.8044 10.5832 48.3588 10.1905 48.9478C10.0519 49.1557 9.89017 49.329 9.69382 49.5715C10.2944 49.5369 10.8142 49.5138 11.3339 49.4907C11.4032 49.4907 11.4841 49.456 11.5187 49.3983C12.3965 48.2779 13.1126 47.1114 12.8008 45.5752C12.3503 43.3345 9.90172 43.2652 8.65432 44.3278C7.88046 44.9861 7.41846 45.8293 7.04885 46.7417C7.01421 46.8342 7.01422 46.9843 7.06042 47.0767C7.29142 47.5272 7.53397 47.9776 7.75342 48.3934ZM8.22697 44.0621C9.26647 42.9533 11.1722 42.7916 12.2464 43.681C13.2512 44.5241 13.6208 45.6791 13.3205 46.915C13.0895 47.8621 12.5813 48.7284 12.1886 49.6524C12.5005 49.8372 12.8816 50.0682 13.2743 50.2992C15.2956 48.6475 15.4457 45.6214 14.0944 43.8427C13.5284 43.1035 13.078 42.2719 12.0962 42.0293C9.78622 41.4518 7.99596 41.729 6.35585 43.5655C5.84765 44.1314 5.61665 44.9515 5.2586 45.6791C5.57045 45.8408 5.7899 45.9563 6.00935 46.0834C6.2057 46.1989 6.40205 46.3375 6.47136 46.3952C7.06041 45.6098 7.56862 44.7667 8.22697 44.0621ZM13.4822 42.2719C14.2445 43.0111 14.9029 43.8773 15.1685 44.8937C15.4226 45.8524 15.4111 46.8804 15.5266 47.9199C16.4044 47.0883 17.3284 46.222 18.2408 45.3326C18.3332 45.2402 18.3563 44.963 18.2986 44.8244C17.4323 42.8494 18.4141 40.2622 21.3131 40.0658C22.2718 39.9965 23.0687 40.6202 23.5769 41.4518C24.27 42.5953 24.0967 44.0737 23.2536 45.0208C22.3873 45.991 20.7356 46.4992 19.3727 45.8409C19.1071 45.7138 18.9338 45.7369 18.7606 45.9101C17.8943 46.8226 17.0281 47.7351 16.1272 48.6937C16.8548 48.6937 17.5132 48.6475 18.16 48.7053C18.6682 48.7515 19.2341 48.8439 19.6615 49.098C20.4353 49.5484 21.163 50.1028 21.8675 50.6572C22.1332 50.8651 22.2949 50.9113 22.5605 50.715C23.138 50.2761 23.7733 49.918 24.3046 49.4329C25.4481 48.3819 26.1642 47.0652 26.3952 45.529C26.4876 44.963 26.3836 44.3278 26.2335 43.7503C25.9216 42.5375 25.4827 41.3594 24.7551 40.3315C23.9697 39.2342 22.7915 38.6914 21.5788 38.2756C20.8511 38.0215 20.0888 37.8598 19.3265 37.7212C18.4372 37.571 17.6171 37.8944 16.8202 38.2756C15.3187 38.9801 14.2561 40.1236 13.4245 41.5327C13.2166 41.8445 13.2166 42.0178 13.4822 42.2719ZM18.9454 44.7667C19.6499 45.6676 20.6779 45.8293 21.752 45.2633C22.5836 44.8244 23.0225 44.0737 23.2536 43.219C23.3344 42.8956 23.242 42.4336 23.0572 42.1564C22.6183 41.5327 22.1332 40.8974 21.2323 40.7935C20.1812 40.9898 19.3034 41.4865 18.7952 42.4798C18.391 43.2536 18.3679 44.039 18.9454 44.7667ZM16.3466 37.9868C16.7624 37.7443 17.1436 37.4786 17.2013 36.9589C17.2706 36.3929 17.3977 35.827 17.3746 35.2726C17.3399 34.6835 16.9126 34.4756 16.3697 34.6604C15.284 35.0185 14.5448 36.0349 14.5217 37.1668C14.5102 37.9175 14.4293 38.6683 14.3947 39.2342C14.9606 38.8646 15.6421 38.4026 16.3466 37.9868ZM14.3947 35.3765C14.8451 35.0185 15.284 34.6258 15.7691 34.3024C16.3004 33.9443 16.9126 33.7133 17.5016 34.1176C18.056 34.4987 18.0329 35.1686 18.0098 35.7577C17.9867 36.2659 17.825 36.7741 17.7211 37.3054C18.3217 37.2592 18.9338 37.2245 19.5575 37.1783C20.008 35.9309 20.2737 34.6258 19.8232 33.3206C19.1879 31.5073 18.1253 31.1839 16.1849 31.7729C15.0877 32.1079 14.3369 32.9395 13.6093 33.748C13.8749 34.3024 14.1406 34.8452 14.3947 35.3765ZM15.1916 31.7036C15.9539 31.207 16.8317 30.9644 17.7673 30.9875C19.2341 31.0222 20.0888 32.1079 20.4122 33.5747C20.6894 34.8221 20.5277 36.058 20.0542 37.2823C20.7818 37.5017 21.4402 37.6981 22.1447 37.9175C22.6876 36.7048 23.0572 35.492 22.9186 34.1407C22.7684 32.6507 22.3873 31.2878 21.4748 30.0635C20.47 28.7122 19.1186 28.3195 17.5594 28.5274C16.6354 28.6544 15.7229 28.9085 14.8451 29.2088C13.4822 29.6824 12.5236 30.6988 11.6804 31.8653C12.2002 32.3504 12.7199 32.824 13.2166 33.286C13.8634 32.7547 14.4871 32.1656 15.1916 31.7036ZM41.6527 39.985C41.6527 39.9965 41.6527 40.0081 41.6527 39.985V39.985ZM41.6758 39.9619C42.646 39.8926 43.5931 39.8233 44.5402 39.754C44.6557 39.7424 44.829 39.7193 44.8636 39.65C45.1639 39.0148 45.4411 38.3795 45.7645 37.6403C45.0022 37.571 44.367 37.5133 43.7202 37.4671C43.6162 37.4555 43.4545 37.5017 43.3968 37.571C42.8077 38.3564 42.2418 39.1649 41.6758 39.9619ZM44.1244 34.9376C44.0205 35.596 43.8703 36.2428 43.7433 36.878C44.5633 37.0166 45.3949 37.1437 46.3767 37.3054C46.0302 38.1947 45.7299 38.957 45.4065 39.7655C46.1341 40.0081 46.8849 40.2622 47.705 40.5278C48.3287 38.8531 48.9524 37.1899 49.6107 35.4227C48.3864 35.2148 47.2776 35.0185 46.1688 34.8221C45.6721 34.7413 45.1755 34.6604 44.6788 34.5911C44.4016 34.568 44.1822 34.5796 44.1244 34.9376ZM49.8186 36.2774C49.322 37.7674 48.7329 39.2342 48.167 40.7588C48.9639 41.1862 49.7955 41.6366 50.6733 42.1102C51.5858 39.1303 52.4751 36.2081 53.376 33.2629C50.4077 32.5814 47.4277 31.8884 44.3439 31.1839C44.3439 32.1656 44.3439 33.0896 44.3439 34.0367C45.8454 34.2908 47.4393 34.5565 49.0217 34.8568C50.3615 35.0993 50.246 34.9838 49.8186 36.2774ZM57.1529 31.0799C52.8332 29.9942 48.5828 28.9316 44.2861 27.8459C44.2861 28.8623 44.2861 29.7286 44.2861 30.6295C46.3074 31.103 48.2825 31.5766 50.246 32.027C51.3201 32.2696 52.3943 32.5006 53.48 32.72C53.8958 32.8009 54.0113 32.9857 53.8727 33.4015C53.0988 35.8385 52.3481 38.2756 51.5973 40.7126C51.4818 41.0707 51.4587 41.4749 51.297 41.8099C51.0429 42.3412 51.2855 42.6184 51.7128 42.8494C52.2557 43.1497 52.787 43.45 53.5146 43.8427C54.7274 39.5692 55.9286 35.3765 57.1529 31.0799ZM57.5571 51.6505C58.2386 50.4378 58.9316 49.225 59.5899 48.07C58.2963 47.3077 56.9103 46.5107 55.5359 45.6791C53.5724 44.501 51.6435 43.2767 49.6685 42.1448C48.6983 41.5904 47.6588 41.1515 46.6308 40.7126C44.9445 39.9965 43.212 40.0658 41.5372 40.6664C40.3938 41.0707 39.3312 41.7175 38.2108 42.2603C38.361 42.757 38.488 43.1843 38.6266 43.6001C39.285 43.2998 39.8856 42.9533 40.5208 42.7454C42.8424 41.96 45.1408 41.9947 47.4393 42.9418C50.1767 44.0621 52.6599 45.5983 55.1547 47.1344C55.8246 47.5503 56.483 48.0007 57.176 48.3819C57.4763 48.5551 57.5109 48.6822 57.3377 48.9709C56.1134 51.1654 54.8891 53.3599 53.6763 55.566C52.7523 57.2523 51.5973 58.7538 50.1998 60.0705C49.2642 60.9483 48.1554 61.4911 46.8964 61.8607C45.8454 62.1726 44.8174 62.4382 43.6162 62.3458C43.7433 62.8309 43.8357 63.2352 43.9281 63.6048C46.4691 63.9628 48.8253 63.5817 50.8812 62.034C52.1055 61.0984 52.9718 59.8279 53.7225 58.4881C55.0392 56.2243 56.2866 53.9259 57.5571 51.6505ZM57.4763 64.4364C56.1018 65.5798 54.7389 66.7464 53.3529 67.9129C53.838 68.6868 54.3347 69.4837 54.8429 70.3153C57.0951 68.2132 59.3243 66.1342 61.5996 64.009C59.3589 61.9185 57.1182 59.8279 54.8429 57.7027C54.3462 58.4997 53.838 59.3082 53.3298 60.1167C54.4271 61.0176 55.5128 61.9069 56.5985 62.7963C56.9334 63.0735 57.2684 63.3507 57.5802 63.6625C57.8805 63.9513 57.765 64.1938 57.4763 64.4364ZM57.2799 64.009C55.8362 62.8194 54.4617 61.6875 53.0642 60.5325C52.4751 61.1793 51.9785 61.7452 51.4472 62.3343C51.9669 62.7501 52.4867 63.1774 53.018 63.5932C53.3876 63.882 53.3645 64.1476 53.0064 64.4248C52.4867 64.8291 51.9669 65.2564 51.4356 65.6722C51.9669 66.2613 52.4867 66.8388 53.0526 67.474C54.4386 66.3306 55.8015 65.2102 57.2799 64.009ZM52.8332 63.9975C52.2095 63.547 51.6782 63.1543 51.1238 62.7847C51.0429 62.727 50.8812 62.7385 50.7888 62.7732C49.8764 63.189 48.9639 63.6163 48.1208 64.009C49.0101 64.4017 49.9919 64.8291 51.0545 65.2911C51.5742 64.9099 52.1633 64.4826 52.8332 63.9975ZM60.8489 68.964C62.4081 67.4625 63.9443 65.9494 65.5035 64.4595C65.7923 64.1823 65.9078 63.9397 65.5728 63.6163C64.1637 62.2419 62.7777 60.8559 61.3686 59.493C59.7401 57.9222 58.0884 56.386 56.3906 54.7806C55.9632 55.5313 55.5705 56.2012 55.224 56.8942C55.1547 57.0328 55.224 57.3331 55.3395 57.4486C57.4647 59.4468 59.613 61.4218 61.7613 63.3969C62.3735 63.9628 62.3735 64.0437 61.7613 64.6096C60.2714 65.9725 58.8045 67.347 57.3261 68.7099C56.6909 69.299 56.0672 69.8996 55.4088 70.4655C55.1316 70.6965 55.0854 70.916 55.2587 71.2163C55.6167 71.84 55.9748 72.4752 56.4137 73.226C57.9267 71.7707 59.3936 70.3731 60.8489 68.964ZM53.9766 83.2745C55.8824 82.1657 57.7535 81.0107 59.5784 79.9134C58.1462 77.3955 56.6678 74.7852 55.1894 72.1749C54.3809 70.7543 53.607 69.322 52.7292 67.9476C51.2739 65.6722 49.0563 64.5865 46.4344 64.2516C45.9609 64.1938 45.4642 64.3093 44.9791 64.3324C44.6557 64.344 44.1475 64.1707 44.0551 64.3093C43.8241 64.6674 43.7664 65.1409 43.6393 65.6145C44.2168 65.6491 44.7366 65.6376 45.2563 65.7184C48.1554 66.1342 50.4192 67.6126 52.0824 69.992C52.9487 71.2393 53.7456 72.533 54.531 73.8381C55.1778 74.9123 55.7553 76.0211 56.3559 77.1183C56.714 77.7651 57.0605 78.4119 57.3723 79.0818C57.4301 79.2089 57.3492 79.5092 57.2337 79.5669C54.4733 81.2186 51.7244 82.9049 48.9062 84.441C47.4046 85.2611 45.7299 85.8039 43.9858 85.8386C43.2466 85.8501 42.4959 85.6076 41.7451 85.5267C40.6363 85.3997 39.6546 84.9839 38.6613 84.314C38.5111 84.7991 38.3841 85.2149 38.2686 85.6191C40.0935 86.9474 42.057 87.8483 44.3785 87.7674C45.5682 87.7328 46.6886 87.4209 47.705 86.8665C49.8186 85.7115 51.8976 84.4988 53.9766 83.2745ZM41.6758 88.0331C41.9761 88.4258 42.3226 88.8416 42.646 89.2805C42.877 89.5808 43.0965 89.8926 43.2697 90.2276C43.4083 90.4817 43.5469 90.6087 43.8472 90.5741C44.4478 90.4932 45.0484 90.4355 45.753 90.3546C45.4527 89.6616 45.1755 89.0379 44.8867 88.4142C44.8521 88.3334 44.6904 88.2872 44.5749 88.2756C43.6162 88.1832 42.646 88.1024 41.6758 88.0331ZM49.6916 93.0111C47.8782 93.3345 46.0764 93.6811 44.3208 94.0045C44.3208 94.9054 44.3208 95.8178 44.3208 96.8227C47.3931 96.1181 50.373 95.4367 53.376 94.7437C52.4867 91.833 51.5858 88.8878 50.6733 85.8963C49.8071 86.3583 48.987 86.7972 48.1554 87.2477C48.5827 88.3565 49.0101 89.4422 49.4144 90.551C49.6569 91.1978 49.8648 91.8561 50.0612 92.5145C50.1536 92.8263 50.015 92.9534 49.6916 93.0111ZM44.2746 100.161C48.5597 99.0865 52.8101 98.0239 57.1298 96.9382C55.8824 92.6531 54.9006 88.3796 53.4107 84.1869C52.6137 84.6489 51.8745 85.0647 51.1238 85.5036C51.3201 86.2428 51.4703 86.9358 51.6782 87.5942C52.3712 89.8464 53.0873 92.0872 53.7918 94.3279C54.0459 95.1248 54.0344 95.1133 53.1912 95.2981C51.1353 95.7601 49.0794 96.2452 47.012 96.7187C46.2381 96.892 45.4642 97.0883 44.6904 97.2616C44.4016 97.3193 44.2515 97.4348 44.2515 97.7582C44.2861 98.509 44.2746 99.2597 44.2746 100.161ZM44.1475 93.1382C44.1706 93.2537 44.4132 93.4154 44.5171 93.4039C46.1688 93.1497 47.8205 92.8726 49.6107 92.5838C48.9524 90.8167 48.3287 89.1419 47.705 87.4787C46.8849 87.7328 46.1457 87.9753 45.3949 88.2063C45.7068 88.9917 46.0071 89.7656 46.3767 90.6896C45.4065 90.8397 44.5864 90.9668 43.7433 91.1054C43.8703 91.7637 43.9858 92.4567 44.1475 93.1382ZM36.7324 107.599C38.6151 107.576 40.5093 107.53 42.3919 107.518C42.8308 107.518 43.2813 107.599 43.6971 107.645C43.6971 105.381 43.674 103.117 43.7086 100.865C43.7317 99.5023 43.9165 98.1278 43.8588 96.7649C43.7779 94.7552 43.905 92.6762 42.981 90.7935C42.2071 89.2227 41.133 87.8945 39.5044 87.0975C38.9731 86.8319 38.4649 86.5085 37.9914 86.2313C37.6564 86.5316 37.333 86.8319 36.9865 87.1437C37.5871 87.5711 38.2224 87.906 38.719 88.3796C40.0704 89.6732 41.26 91.0823 41.6989 92.9996C42.1725 95.0209 42.3342 97.0537 42.3111 99.1211C42.288 101.085 42.2649 103.048 42.2302 105.012C42.2302 105.277 42.184 105.554 42.1263 105.82C42.1032 105.913 41.9877 106.028 41.8837 106.051C41.6527 106.109 41.4217 106.12 41.1792 106.132C38.6959 106.167 36.2011 106.236 33.7179 106.213C31.7428 106.19 29.7909 105.959 27.9429 105.243C26.938 104.85 26.0371 104.296 25.3441 103.429C25.09 103.117 24.6973 102.91 24.4317 102.598C24.0159 102.078 23.6578 101.524 23.2304 100.911C22.9186 101.269 22.6414 101.581 22.2833 101.997C22.9301 102.944 23.5423 104.053 24.3508 105C25.5982 106.444 27.2152 107.299 29.1441 107.53C30.7611 107.726 32.3781 107.807 34.0066 107.645C34.9191 107.541 35.8315 107.61 36.7324 107.599ZM28.6474 113.478C28.8438 112.496 29.0286 111.607 29.1787 110.706C29.2942 110.036 29.3635 109.343 29.4906 108.673C29.5599 108.269 29.5483 108.038 29.0286 107.992C28.428 107.934 27.8274 107.737 27.2268 107.599C27.0882 108.465 26.9496 109.285 26.7994 110.209C26.2797 110.024 25.887 109.909 25.5058 109.759C25.1247 109.609 24.7435 109.424 24.3277 109.239C24.0736 110.013 23.8426 110.752 23.5654 111.572C25.2402 112.207 26.8918 112.819 28.6474 113.478ZM23.3459 112.069C22.9301 112.831 22.4797 113.674 22.0061 114.552C24.9861 115.464 27.9082 116.354 30.8535 117.255C31.5465 114.263 32.2279 111.295 32.9325 108.269C31.9392 108.223 31.0267 108.165 30.0912 108.119C29.8486 109.574 29.6176 111.029 29.3635 112.484C29.3058 112.808 29.1903 113.12 29.1556 113.443C29.1094 113.951 28.8784 114.055 28.428 113.894C26.7648 113.281 25.09 112.692 23.3459 112.069ZM24.3623 108.534C24.3739 108.627 24.4547 108.742 24.5356 108.777C25.1478 109.066 25.783 109.331 26.476 109.643C26.5453 108.95 26.5915 108.384 26.6493 107.83C26.6839 107.495 26.5684 107.299 26.2681 107.102C25.5982 106.652 24.9745 106.132 24.3277 105.635C24.2584 105.589 24.1776 105.554 24.1429 105.531C24.2122 106.536 24.2815 107.53 24.3623 108.534ZM33.048 121.008C34.1337 116.7 35.1963 112.473 36.2704 108.165C35.358 108.165 34.5841 108.153 33.8103 108.176C33.6717 108.176 33.4522 108.361 33.4291 108.488C32.7477 111.376 32.0778 114.252 31.431 117.151C31.2693 117.878 31.2462 117.913 30.507 117.682C28.0353 116.92 25.5751 116.146 23.1034 115.384C22.7223 115.268 22.3411 115.129 21.9484 115.095C21.752 115.083 21.4748 115.256 21.3593 115.43C20.9897 115.996 20.6894 116.585 20.2967 117.278C24.4779 118.791 28.7629 119.761 33.048 121.008ZM1.92065 109.759C1.79361 109.054 1.73585 108.326 1.64345 107.564C1.32005 107.633 0.950454 107.691 0.60395 107.807C0.488449 107.841 0.372955 108.049 0.361404 108.176C0.326751 108.754 0.268989 109.343 0.349838 109.897C0.488441 110.833 0.661704 111.78 0.938903 112.692C1.59725 114.818 3.1796 116.181 5.00451 117.243C7.52241 118.71 10.0981 120.096 12.6391 121.528C13.7825 122.175 14.926 122.833 16.0117 123.457C16.7971 122.129 17.6171 120.731 18.4487 119.345C19.6153 117.405 20.828 115.487 21.9599 113.524C22.8262 112.034 23.5885 110.486 23.8195 108.742C23.9581 107.622 23.8426 106.513 23.4383 105.485C22.9879 104.33 22.3873 103.244 21.8444 102.089C21.3247 102.24 20.9204 102.367 20.4931 102.494C20.5393 102.621 20.5393 102.759 20.6086 102.84C21.3824 103.822 21.5326 105.035 21.7867 106.19C22.1678 107.922 21.8098 109.585 21.1745 111.226C20.0542 114.136 18.3563 116.735 16.7509 119.38C16.4044 119.946 16.0232 120.5 15.6883 121.066C15.5381 121.309 15.4457 121.401 15.1454 121.228C13.8172 120.489 12.4543 119.83 11.1376 119.068C9.57832 118.179 8.01907 117.289 6.54066 116.273C5.25861 115.395 4.02275 114.402 3.21425 113.027C2.81 112.334 2.56746 111.549 2.26716 110.81C2.15166 110.486 1.98996 110.128 1.92065 109.759ZM3.734 106.756C2.96015 107.137 2.81001 107.945 2.84466 108.673C2.87931 109.585 3.11031 110.486 3.31821 111.376C3.42216 111.826 3.65316 112.242 3.78021 112.565C4.41546 111.422 5.02761 110.232 5.73216 109.089C6.17107 108.361 6.73701 107.714 7.23367 107.033C7.75342 106.317 7.94976 105.508 7.97286 104.63C7.99596 104.041 8.07681 103.464 8.13456 102.875C7.06041 104.654 5.54736 105.866 3.734 106.756ZM5.76681 109.932C5.13155 110.914 4.4963 111.907 4.39235 113.143C4.3577 113.628 4.5194 113.928 4.8428 114.217C5.51271 114.806 6.19416 115.395 6.94492 116.053C6.99112 114.182 7.66101 112.623 8.29627 111.041C8.70052 110.013 8.91997 108.962 8.70052 107.864C8.60812 107.402 8.36557 106.964 8.19231 106.49C7.34916 107.68 6.51756 108.777 5.76681 109.932ZM9.99411 107.518C10.4099 107.922 10.9181 108.234 11.4263 108.534C11.8999 108.823 12.3041 108.615 12.6044 108.223C13.436 107.125 13.5977 105.889 13.3436 104.573C13.0664 103.175 12.2117 102.089 11.3339 101.027C10.7102 100.265 10.0403 99.5485 9.42818 98.8555C9.17408 100.23 8.80447 101.662 8.65432 103.117C8.48106 104.723 8.73516 106.305 9.99411 107.518ZM0.696342 89.5808C0.56929 89.627 0.361396 89.7771 0.372947 89.8811C0.4076 90.5163 0.488449 91.14 0.546203 91.7637C0.684799 93.1729 1.43555 94.3047 2.2787 95.3789C2.8562 96.1066 3.67626 96.4877 4.53096 96.7187C5.39721 96.9497 6.29811 97.0883 7.18747 97.1923C8.67742 97.3655 9.95948 96.788 11.1029 95.8987C12.0847 95.1364 13.0433 94.351 13.5631 93.1844C13.7941 92.6877 13.9442 92.1333 14.0135 91.5905C14.2445 89.7887 13.7132 88.1486 12.8008 86.624C12.7315 86.5085 12.4427 86.4623 12.2579 86.4738C11.3686 86.5431 10.4792 86.7048 9.58987 86.7048C8.59656 86.7048 7.74187 86.2428 6.94492 85.6769C6.73701 85.5267 6.54065 85.3881 6.24035 85.1802C6.57531 86.5431 6.86406 87.8136 7.21056 89.061C7.25676 89.2112 7.55707 89.3613 7.75342 89.3844C9.22028 89.6154 10.2251 90.4701 10.5485 91.8677C10.999 93.7966 9.98257 95.6561 7.59172 95.6099C6.17107 95.5868 5.45496 94.6859 5.01606 93.6233C4.57715 92.5607 4.76196 91.4057 5.51271 90.4355C5.62821 90.2969 5.72061 90.1005 5.87076 90.0312C6.58686 89.7078 6.48291 89.2343 6.26346 88.6221C5.91696 87.6173 5.66286 86.5778 5.32791 85.4112C5.20086 85.7 5.12001 85.8617 5.06226 86.0349C4.29996 88.0446 2.61365 88.9455 0.696342 89.5808ZM5.58201 91.5327C5.36256 92.6647 5.8823 94.1084 6.69081 94.5935C7.52241 95.0902 8.30781 94.7206 9.07011 94.3971C9.86706 94.0622 9.85552 93.2999 9.85552 92.5838C9.85552 91.2671 9.16251 90.2507 8.08836 89.9619C6.97956 89.6616 5.80146 90.4124 5.58201 91.5327ZM1.48175 77.9153C1.3778 77.9615 1.2392 78.0308 1.08904 78.1001C0.303642 78.4466 0.349846 78.435 0.569297 79.3013C0.892692 80.6642 2.81 82.1541 4.2191 81.9462C5.2355 81.7961 6.12487 81.4727 6.71392 80.5602C7.54552 79.2666 7.66101 78.0308 7.04885 76.5639C6.62151 76.6217 6.24036 76.6794 5.85921 76.7372C5.90541 77.3609 5.97471 77.9846 5.98626 78.6083C6.00936 79.4976 5.50116 80.2368 4.76196 80.4563C3.6416 80.7797 2.8793 80.5718 2.348 79.694C2.01305 79.1511 1.7705 78.539 1.48175 77.9153ZM2.08234 77.4764C2.03615 77.5341 2.0246 77.6612 2.05925 77.7305C2.348 78.3888 2.56745 79.0934 2.98325 79.6593C3.3875 80.2137 4.05741 80.283 4.70421 79.9596C5.28171 79.6709 5.53581 79.1627 5.51271 78.539C5.50116 78.0885 5.44341 77.6381 5.38566 77.1992C5.33946 76.8873 5.18931 76.7141 4.86591 76.5408C4.29996 76.2174 3.83795 75.7208 3.3413 75.2819C3.21425 75.1664 3.13341 75.0047 2.96016 74.7506C2.96016 75.8478 2.7407 76.7372 2.08234 77.4764ZM0.442245 70.9506C0.372947 70.9968 0.349838 71.1469 0.349838 71.2393C0.292091 72.3713 1.20454 73.5378 2.3018 73.7226C2.93705 73.8266 3.24891 73.3646 3.53766 72.9372C4.02276 72.2327 3.965 71.0084 3.44525 70.3269C3.39906 70.2576 3.32976 70.1768 3.26046 70.1537C2.19785 69.7609 2.19785 69.7609 1.45866 68.9871C1.2161 69.7263 1.1468 70.5002 0.442245 70.9506ZM2.29025 54.2955C1.193 54.4687 0.28054 55.6353 0.338295 56.7787C0.338295 56.8827 0.372947 57.0328 0.430702 57.0675C1.1468 57.5179 1.20454 58.2918 1.43555 59.031C1.98994 58.4997 2.3942 57.8529 3.23735 57.8529C3.3182 57.8529 3.39905 57.7258 3.4568 57.645C4.1267 56.6632 3.9188 55.1502 2.98325 54.4456C2.8331 54.307 2.52126 54.2608 2.29025 54.2955ZM2.35955 50.9691C2.7407 51.5928 2.86775 52.3551 3.1103 53.0712C3.51455 52.2511 4.23066 51.6736 5.12001 51.3271C5.17776 51.304 5.24706 51.2347 5.27016 51.177C5.47807 50.3569 5.70906 49.5253 5.33946 48.6937C5.08536 48.1047 4.5656 47.8852 3.97655 47.8736C3.4106 47.8506 2.9948 48.1971 2.6945 48.6591C2.5328 48.9132 2.45195 49.225 2.3018 49.4907C2.03615 49.9989 2.01305 50.4147 2.35955 50.9691ZM0.661697 48.4281C0.199699 49.6293 0.222793 49.6408 1.49329 50.0682C1.7705 49.4791 2.01305 48.867 2.348 48.3241C2.91395 47.4117 3.68781 47.2038 4.80816 47.5618C5.54736 47.8044 6.02091 48.5205 5.99781 49.4445C5.98626 50.0566 5.91696 50.6572 5.87076 51.2694C6.25191 51.3271 6.62151 51.3849 7.07196 51.4542C7.36071 50.7034 7.60326 49.9065 7.39535 49.0749C7.09505 47.8852 6.57532 46.8573 5.32791 46.326C3.23736 45.4366 1.25076 46.9035 0.661697 48.4281ZM6.92181 30.8258C5.89386 30.9644 4.8659 31.207 3.8726 31.5304C2.82155 31.8769 2.1632 32.7085 1.5395 33.6209C0.60395 35.0069 0.476906 36.5546 0.361404 38.1254C0.349853 38.2178 0.546196 38.3911 0.684791 38.4257C2.0708 38.8993 3.4337 39.419 4.32305 40.6664C4.71576 41.2208 4.99295 41.8561 5.36256 42.5144C5.65131 41.5211 5.94006 40.5394 6.22881 39.5576C6.27501 39.419 6.28656 39.2689 6.34431 39.1418C6.56376 38.7145 6.51757 38.4257 6.07867 38.1254C4.65801 37.1437 4.39236 34.5911 5.81301 33.182C7.11816 31.8884 9.23182 32.2811 10.075 33.4592C10.8604 34.5565 11.0798 36.1966 9.83243 37.5133C9.26648 38.1139 8.61967 38.5412 7.77652 38.6105C7.37226 38.6452 7.22211 38.8531 7.14126 39.2458C6.88716 40.4123 6.57531 41.5558 6.26346 42.757C6.93336 42.3643 7.51086 41.9831 8.12302 41.6713C9.11632 41.1631 10.1905 41.2324 11.2646 41.3363C11.2993 41.3363 11.3339 41.3594 11.3686 41.371C12.7777 41.6597 12.7777 41.6597 13.3783 40.3315C14.0482 38.83 14.2445 37.2938 13.8865 35.6653C13.6093 34.3948 12.7777 33.5285 11.8652 32.7085C11.461 32.3504 11.0105 32.0386 10.5716 31.7267C9.48592 30.9413 8.23851 30.6526 6.92181 30.8258ZM7.76497 38.1023C8.64277 38.0215 9.23182 37.4902 9.57832 36.7279C9.76312 36.3121 9.82087 35.8385 9.93637 35.3881C9.85551 33.8519 8.70052 32.9048 7.18747 33.1936C6.45981 33.3322 6.14796 33.9559 5.84766 34.5218C5.39721 35.3534 5.35101 36.2312 5.82455 37.0628C6.24036 37.802 6.91027 38.1832 7.76497 38.1023ZM9.00082 26.8873C9.13942 27.6611 9.28957 28.4465 9.43972 29.1973C10.3291 28.1231 11.2877 27.049 12.1655 25.9055C13.3436 24.3925 13.7941 22.6831 13.1819 20.8004C13.0549 20.3961 12.7892 20.0265 12.5236 19.6916C12.281 19.3797 11.9345 19.2527 11.5072 19.4259C9.83243 20.0843 9.04702 21.4125 8.71207 23.0873C8.44641 24.3809 8.78136 25.6283 9.00082 26.8873ZM8.35402 17.0928C7.88047 15.7646 7.47622 14.4132 7.06042 13.0734C6.96802 12.7731 6.97956 12.4266 6.93336 12.0108C6.2519 12.5768 5.59356 13.1196 4.93521 13.6509C4.10361 14.3324 4.26531 15.2448 4.64646 15.9609C5.40876 17.3931 6.34431 18.7329 7.21056 20.0958C7.49931 20.5463 7.82271 20.9852 8.14611 21.4587C9.02391 20.0381 8.88532 18.5943 8.35402 17.0928ZM2.90241 19.911C3.02946 20.5347 3.28355 21.0429 3.90725 21.3432C5.66286 22.198 7.10661 23.3992 8.08836 25.2703C8.12301 25.0393 8.14611 24.9353 8.14611 24.8314C8.08836 24.2423 8.01906 23.6533 7.97286 23.0527C7.89201 22.1402 7.56861 21.3201 6.9911 20.6156C5.66285 19.0101 4.54251 17.3007 3.84951 15.2679C3.2027 16.781 2.56746 18.2478 2.90241 19.911ZM8.87377 8.56892C7.31451 9.44672 5.7437 10.3245 4.2191 11.2716C1.87444 12.7269 0.696342 14.9561 0.349838 17.6357C0.245888 18.398 0.326744 19.1834 0.349838 19.9572C0.349838 20.0381 0.453804 20.1536 0.534653 20.1767C0.915802 20.2806 1.29695 20.3615 1.655 20.4423C1.73585 19.7609 1.75895 19.1141 1.886 18.4673C2.348 15.984 3.5723 13.9859 5.59356 12.4266C7.63791 10.8443 9.89018 9.60842 12.1424 8.36102C13.1357 7.81817 14.1521 7.29842 15.1454 6.75557C15.4111 6.60542 15.5381 6.64006 15.6998 6.90572C16.4044 8.06072 17.1667 9.19262 17.8481 10.3592C18.7606 11.9184 19.6846 13.4892 20.4931 15.1062C21.2669 16.6655 21.8906 18.294 21.9253 20.0727C21.9368 20.7888 21.7982 21.5049 21.6828 22.2095C21.5904 22.7755 21.4517 23.3414 21.2554 23.8843C21.059 24.4156 20.7587 24.9122 20.4815 25.4897C20.9435 25.6283 21.3478 25.7438 21.7636 25.8709C22.3988 24.6119 23.2882 23.5031 23.6232 22.0478C24.0736 20.0612 23.8773 18.1901 22.9648 16.4114C22.2949 15.0947 21.5095 13.8242 20.7587 12.5421C19.6615 10.6826 18.5411 8.83457 17.4554 6.97502C16.9588 6.14341 16.5083 5.27716 16.081 4.52641C13.7017 5.86621 11.2762 7.20602 8.87377 8.56892Z" fill="#C8A438"/>
</svg>
