<svg width="172" height="86" viewBox="0 0 172 86" fill="none" xmlns="http://www.w3.org/2000/svg">
<path opacity="0.2" d="M0.374398 0.61309C3.04014 3.2 5.66095 5.84673 8.32668 8.43365C9.6296 9.68972 10.9924 10.9009 12.3552 12.0823C12.6997 12.3813 12.6697 12.5907 12.49 12.9196C11.9958 13.8019 11.5465 14.6991 11.0373 15.5813C10.0639 17.271 9.3151 19.0804 7.93731 20.5308C7.60783 20.8748 7.83247 21.114 8.22185 21.2486C11.0523 22.2804 13.4036 24.1794 15.9944 25.6449C16.1292 25.7196 16.2191 26.0336 16.1741 26.1981C15.3355 28.9794 14.4519 31.7458 13.6282 34.5271C12.8495 37.1738 12.1606 39.8505 11.4267 42.5121C11.3219 42.9009 11.3968 43.1252 11.8311 43.2299C12.9693 43.514 14.0925 43.828 15.2306 44.1271C17.2674 44.6654 19.3041 45.2336 21.3708 45.7271C23.6771 46.2804 25.9835 46.7588 28.3047 47.2523C28.7091 47.342 28.8289 47.5514 28.8289 47.9402C28.8139 48.9719 28.8439 50.0187 28.8289 51.0504C28.799 52.9196 28.784 54.7738 28.6791 56.643C28.6492 57.2411 28.799 57.3458 29.3381 57.271C30.2666 57.1514 31.2101 57.0317 32.1386 57.0317C33.8758 57.0168 35.6131 57.1065 37.3503 57.1364C38.5184 57.1514 38.5034 57.1514 38.773 58.2878C39.4469 61.1289 40.1358 63.9701 40.8397 66.7962C41.4387 69.2037 42.0977 71.5962 42.7117 73.9887C42.8165 74.3775 42.9663 74.6467 43.4306 74.5121C44.0296 74.3327 44.6436 74.1383 45.2576 73.9738C47.6239 73.3158 50.005 72.6728 52.3713 71.9999C54.7974 71.2971 57.2235 70.5644 59.6496 69.8018C60.054 69.6672 60.2487 69.6971 60.4434 70.056C61.8661 72.6429 63.768 74.9607 64.7565 77.7869C64.9062 78.1906 65.1758 78.2654 65.5202 77.9663C65.67 77.8467 65.7898 77.7121 65.9546 77.6074C68.3657 76.2018 70.7768 74.7962 73.203 73.4205C73.3527 73.3457 73.7271 73.4654 73.8619 73.6149C74.9701 74.7962 76.0185 76.0523 77.1417 77.2037C79.8523 79.985 82.5929 82.7364 85.3186 85.4878C85.9925 86.1756 85.9925 86.1756 86.6964 85.4579C89.1674 82.9457 91.6684 80.4485 94.1245 77.9214C95.4574 76.5607 96.7453 75.1551 97.9883 73.7046C98.3478 73.2859 98.6024 73.2112 99.0217 73.4953C99.1714 73.5999 99.3512 73.6598 99.5159 73.7644C101.837 75.17 104.443 76.142 106.51 77.9812C106.854 78.2803 107.109 78.1308 107.259 77.7271C108.277 74.8859 110.179 72.5383 111.646 69.9514C111.721 69.8168 112.036 69.6971 112.186 69.742C115.091 70.5943 117.966 71.5214 120.872 72.3588C123.238 73.0467 125.619 73.6448 128 74.2878C129.094 74.5869 129.079 74.5869 129.348 73.5401C130.097 70.6691 130.906 67.7981 131.625 64.9271C132.224 62.5046 132.718 60.0523 133.302 57.6149C133.347 57.4205 133.646 57.1663 133.826 57.1514C135.114 57.0915 136.402 57.0317 137.705 57.0616C139.397 57.0915 141.074 57.2112 142.752 57.2859C143.201 57.3158 143.441 57.1962 143.306 56.6729C143.216 56.3588 143.141 56.0299 143.141 55.7009C143.126 53.0691 143.141 50.4373 143.126 47.8056C143.126 47.3869 143.366 47.2972 143.68 47.2374C145.537 46.8486 147.409 46.5196 149.251 46.056C152.846 45.1588 156.425 44.157 160.004 43.2448C160.558 43.1103 160.618 42.856 160.483 42.3925C159.944 40.5084 159.42 38.6093 158.881 36.7252C157.863 33.2411 156.829 29.757 155.841 26.2729C155.781 26.0785 155.886 25.7047 156.036 25.6149C158.596 24.1495 160.933 22.2804 163.748 21.2486C164.302 21.0392 164.287 20.8 163.928 20.3813C163.464 19.8579 163.014 19.3047 162.67 18.6916C161.682 16.957 160.723 15.2075 159.78 13.443C159.255 12.4561 159.27 12.4411 160.169 11.7084C160.259 11.6336 160.334 11.5439 160.424 11.4692C162.475 9.49533 164.527 7.52149 166.564 5.53271C168.271 3.87289 169.948 2.19814 171.671 0.553283C171.88 0.343932 172 0.179435 172 -7.09396e-07L170.997 -6.6075e-07C170.997 0.269157 170.727 0.523376 170.188 1.07664C168.001 3.25982 165.845 5.45794 163.628 7.61121C162.131 9.06168 160.543 10.4224 158.896 11.9178C158.357 10.9308 157.863 10.0486 157.413 9.15141C157.338 9.00187 157.383 8.6729 157.503 8.56822C159.39 6.80374 161.277 5.0542 163.179 3.28972C164.168 2.37757 165.141 1.45048 166.144 0.553283C166.369 0.358886 166.489 0.179435 166.474 -4.41481e-07L165.695 -4.03725e-07C162.79 2.7215 159.899 5.41309 156.934 8.17944C156.275 7.13271 155.631 6.08598 154.987 5.03926C156.395 3.88786 157.788 2.73646 159.166 1.60001C159.6 1.24113 160.034 0.882248 160.438 0.493461C160.603 0.328979 160.693 0.164482 160.678 0.0149458L159.974 0.0149459C159.465 0.4785 159.016 0.942055 158.522 1.34579C157.443 2.24299 156.335 3.12524 155.242 4.00748C154.822 4.3514 154.508 4.57571 154.074 3.93272C153.654 3.28973 153.04 2.76635 152.501 2.18317C153.205 1.6299 153.879 1.07663 154.568 0.538315C154.808 0.358872 154.912 0.179436 154.912 0.0149461L154.328 0.0149461C153.505 0.613083 152.801 1.10655 152.097 1.60001C152.007 1.65982 151.812 1.68972 151.722 1.62991C150.524 1.07664 149.326 0.508408 148.278 0.0149464C148.278 0.0149464 148.278 0.0149464 148.293 0.0149464L142.108 0.0149467C142.093 0.732705 141.958 1.43552 141.733 2.16822C141.089 4.24673 140.116 6.11589 138.663 7.73084C137.555 8.95702 136.132 9.73459 134.65 10.4224C133.077 11.1551 131.415 11.1103 129.708 11.0206C129.708 10.2131 129.708 9.42056 129.708 8.58318C130.501 8.38878 131.325 8.2542 132.119 7.99999C135.818 6.77383 138.214 4.30654 139.098 0.508416C139.128 0.343926 139.158 0.194405 139.172 0.0299157L138.454 0.0299158C138.469 1.13646 138.019 2.12336 137.435 3.06542C135.923 5.48785 133.796 7.14767 130.906 7.67103C130.501 7.7458 130.082 7.79064 129.588 7.86541C129.378 6.92336 129.183 6.07103 128.974 5.14392C129.378 5.03925 129.768 4.91963 130.172 4.81496C131.969 4.33646 133.467 3.4243 134.38 1.76449C134.71 1.16636 134.889 0.583192 134.919 0.0299159L134.29 0.029916C134.305 0.942063 133.781 1.76449 132.853 2.67664C131.804 3.70841 130.426 4.15701 129.004 4.44113C128.854 4.47104 128.614 4.33644 128.525 4.20186C128.135 3.64859 127.776 3.08038 127.461 2.60187C128.315 2.21309 129.198 1.91402 129.977 1.42056C130.576 1.04673 130.876 0.538324 130.876 0.0448698L129.947 0.0448698C129.932 0.269166 129.812 0.493471 129.603 0.702814C128.764 1.55515 127.686 1.8243 126.578 1.80934C126.083 1.80934 125.604 1.30094 125.095 1.04673C124.346 0.672899 123.582 0.328974 123.028 0.0598161C123.043 0.0448625 123.058 0.0448701 123.073 0.0299165L118.446 0.0299167C118.446 2.00375 117.442 3.63364 115.975 4.87476C114.402 6.2056 112.53 6.59439 110.478 6.11589C110.044 6.01122 109.879 5.87664 109.909 5.42804C109.939 5.00935 109.909 4.59066 109.909 4.14207C110.688 4.14207 111.362 4.15702 112.036 4.14207C114.432 4.08225 116.049 2.63178 116.574 0.88225C116.663 0.598139 116.693 0.299067 116.708 0.014948L116.02 0.014948C116.02 1.18131 115.286 2.3028 114.133 2.93083C112.77 3.66355 111.287 3.60375 109.804 3.3944C109.7 3.37945 109.58 3.24486 109.505 3.14018C109.145 2.60187 108.801 2.04859 108.412 1.43551C109.145 1.55514 109.849 1.74954 110.553 1.76449C111.287 1.77944 112.051 1.71964 112.755 1.54019C113.384 1.37571 113.833 0.643 113.818 0.029917L113.114 0.029917C113.114 0.343935 112.755 0.777582 112.44 0.942065C112.066 1.13645 111.572 1.18131 111.152 1.16636C109.685 1.10655 108.277 0.777575 106.959 0.134585C106.929 0.119631 106.914 0.0897165 106.899 0.0149484L103.874 0.0149486C103.874 0.074763 103.874 0.149539 103.874 0.224299C103.829 1.62991 102.481 2.93084 101.073 2.99066C100.819 3.00561 100.564 3.08037 100.31 3.08037C99.7855 3.09532 99.3212 3.06542 99.1415 2.39253C98.8569 1.30094 98.168 0.508426 97.0149 0.0299178L97.0299 0.0299178L94.3491 0.0299179C94.3491 0.0299179 94.3491 0.0299179 94.3491 0.0448715C94.3491 0.269168 94.0496 0.568225 93.81 0.6729C92.1027 1.43552 90.5602 0.852352 88.8679 0.0299182L83.1471 0.0299185C83.162 0.0299185 83.177 0.0448721 83.192 0.0448721C81.5147 0.76263 80.032 1.43553 78.3697 0.702816C78.0851 0.583195 77.8755 0.269169 77.6359 0.0448723C77.6508 0.0299187 77.6508 0.0299035 77.6658 0.0149498L74.9851 0.01495C74.9851 0.01495 75.0001 0.0149652 75.0001 0.0299188C73.832 0.523381 73.173 1.37571 72.8286 2.49721C72.7537 2.72151 72.4542 2.99065 72.2295 3.0056C71.1213 3.11028 69.5937 2.85608 68.815 1.85421C68.3807 1.30094 68.186 0.65794 68.186 0.0149503L65.1608 0.0149505C65.1758 0.104672 65.1758 0.179448 65.1908 0.26917C63.8579 0.568234 62.525 0.927106 61.1772 1.13645C60.653 1.22617 60.024 1.1215 59.5298 0.912152C59.2303 0.792523 58.9308 0.343923 58.9008 0.0149508L58.152 0.0149508C58.152 0.044858 58.152 0.0598116 58.152 0.0897189C58.182 0.732709 58.7061 1.48037 59.44 1.58505C60.3385 1.71962 61.282 1.67476 62.1956 1.65981C62.6448 1.64486 63.1091 1.51028 63.5734 1.43551C63.199 2.01869 62.9144 2.63179 62.4801 3.09534C62.2255 3.3645 61.7163 3.43926 61.312 3.48412C59.5298 3.66356 57.8974 3.40935 56.6694 1.92898C56.1602 1.31589 55.9505 0.67291 55.9655 0.0299198L55.2916 0.0299198C55.2616 0.852353 55.6061 1.58505 56.1153 2.25794C57.1037 3.55887 58.4665 4.15702 60.0989 4.15702C60.7279 4.15702 61.3569 4.15702 62.0907 4.15702C62.0907 4.65047 62.1207 5.18879 62.0757 5.72711C62.0608 5.86169 61.8361 6.04113 61.6714 6.08599C58.5564 6.92338 55.5013 5.32338 54.408 2.79628C54.0636 1.9888 53.5544 1.1514 53.5244 0.314023C53.5244 0.224302 53.5244 0.119642 53.5244 0.0299199L48.8818 0.0299201C48.8968 0.0299201 48.9118 0.0448737 48.9118 0.0448737C48.178 0.418706 47.1895 0.837392 46.276 1.39067C45.677 1.76449 45.0929 1.95889 44.4489 1.68973C43.7451 1.40562 43.0412 1.07664 42.4122 0.657949C42.1576 0.478514 42.0378 0.254225 42.0677 0.0299204L41.1242 0.0299205C41.1242 0.538336 41.4687 1.04674 42.1576 1.48038C42.8914 1.94393 43.7451 2.22805 44.5538 2.58693C44.1794 3.1402 43.7451 3.79813 43.2808 4.50093C41.0044 4.05234 38.9527 3.27476 37.9194 0.912153C37.7846 0.613089 37.7247 0.328985 37.7247 0.0448743L37.0657 0.0448743C37.0358 1.0617 37.6049 1.91402 38.2638 2.6916C39.2223 3.82804 40.4803 4.56075 41.9629 4.84486C42.3223 4.91963 42.6818 5.0542 43.0412 5.15888C42.8165 6.08598 42.6218 6.95327 42.4122 7.85047C38.758 7.61121 36.1821 5.74207 34.37 2.79628C33.801 1.86918 33.5464 0.942068 33.5613 0.0448745L32.8874 0.0448745C32.8724 1.16636 33.3067 2.19814 33.8309 3.12524C35.0739 5.29346 36.871 6.95328 39.2522 7.83552C40.031 8.11963 40.8846 8.25421 41.7083 8.4187C42.1276 8.49347 42.3822 8.61308 42.3523 9.1215C42.3074 9.74953 42.3373 10.3776 42.3373 10.9907C39.1624 11.4692 36.5116 10.4523 34.1754 8.50841C31.8241 6.56449 30.671 3.90281 29.9671 1.04674C29.8922 0.732718 29.8623 0.3888 29.8772 0.0448747L23.7071 0.0448749C23.7071 0.0448749 23.7071 0.0448749 23.7221 0.0448749C22.6887 0.523375 21.5206 1.07665 20.3525 1.61497C20.2177 1.67478 19.9631 1.67478 19.8433 1.60001C19.1394 1.13647 18.4655 0.642997 17.6568 0.0598212C17.6568 0.0598212 17.6717 0.0598289 17.6717 0.0448752L17.0427 0.0448753C17.0427 0.299079 17.3722 0.538322 18.0312 1.1215C18.4805 1.52524 19.0196 1.83926 19.4838 2.16823C18.78 2.9458 18.121 3.69347 17.3572 4.53085C15.5451 3.03552 13.778 1.58506 11.891 0.0299219L11.232 0.0299219C11.232 0.194412 11.3369 0.358886 11.5316 0.523368C13.3287 2.03365 15.1258 3.54393 16.9679 5.08411C16.3539 6.08598 15.7099 7.11776 15.036 8.20935C12.0857 5.45795 9.21027 2.76636 6.27496 0.0448758L5.46626 0.0448758C5.46626 0.254219 5.66095 0.463554 6.08028 0.837387C8.01219 2.60187 9.91415 4.38132 11.8311 6.16076C12.6548 6.92338 13.4635 7.70093 14.3171 8.4486C14.6316 8.71776 14.7664 8.94206 14.5268 9.33084C14.0326 10.1533 13.5833 11.0056 12.9992 12.0374C8.83587 8.00001 4.77736 4.0673 0.614015 0.0448761L-3.46436e-06 0.0448761C-3.45894e-06 0.179451 0.134781 0.373833 0.374398 0.61309ZM12.0707 42.6018C13.6432 37.099 15.1857 31.6411 16.7732 26.0785C17.7466 26.6318 18.5254 27.0654 19.2892 27.4991C19.7235 27.7533 19.8732 28.0523 19.6935 28.5906C18.5553 32.1944 17.4771 35.7981 16.3688 39.4018C16.0993 40.299 16.1442 40.3439 17.0577 40.5383C19.5288 41.0916 21.9848 41.6598 24.4559 42.228C25.6839 42.5121 26.9269 42.8112 28.155 43.0804C28.5294 43.1551 28.754 43.2747 28.7391 43.6934C28.7241 44.6355 28.7391 45.5626 28.7391 46.6691C23.0931 45.6374 17.6867 43.9925 12.0707 42.6018ZM27.3313 31.372C27.0767 31.9551 26.8071 32.5533 26.5376 33.1364C25.9535 34.3925 26.0134 34.542 27.3463 34.8112C28.0352 34.9458 28.739 34.9906 29.4429 35.0654C29.2632 35.9476 29.1135 36.8149 28.8888 37.6523C28.8439 37.8318 28.5294 38.086 28.3796 38.0561C26.283 37.7271 24.1863 37.3383 22.0897 36.9645C22.0597 36.9645 22.0298 36.9047 21.895 36.7701C22.6737 34.6766 23.4825 32.5383 24.2912 30.3701C25.3694 30.729 26.298 31.028 27.3313 31.372ZM32.1386 31.1177C31.6594 31.7308 30.9705 32.2841 30.6859 33.0019C30.0719 34.5271 28.9487 34.4523 27.6907 34.2579C27.4661 34.228 27.2265 34.1832 26.8371 34.1084C27.2265 33.2262 27.6009 32.3888 27.9902 31.5514C28.0352 31.4467 28.2748 31.4168 28.4246 31.4019C29.6526 31.2972 30.8806 31.2075 32.1386 31.1177ZM22.6288 32.9719C22.1646 34.228 21.7452 35.4841 21.2959 36.7402C21.1162 37.2486 21.251 37.5028 21.8351 37.5925C22.9882 37.7719 24.1264 38.0561 25.2796 38.2654C26.4327 38.4598 27.5859 38.6093 28.799 38.7738C28.739 40 28.6941 41.2112 28.6342 42.4822C24.7404 41.585 20.8766 40.6878 16.9679 39.7906C18.121 36.0075 19.2892 32.2093 20.4723 28.3364C21.5805 28.9346 22.6288 29.4878 23.737 30.086C23.3626 31.0729 22.9733 32.0149 22.6288 32.9719ZM41.3938 56.4486C38.2488 56.3738 35.0889 56.3289 31.9439 56.314C31.1053 56.314 30.2666 56.4336 29.4729 56.4934C29.4729 53.5626 29.4729 50.6168 29.4729 47.671C29.4729 46.729 29.4879 45.7869 29.4729 44.8448C29.4579 44.1869 29.3531 43.5439 29.3531 42.886C29.3381 41.6747 29.3081 40.4486 29.398 39.2374C29.4729 38.2654 29.6825 37.2934 29.8623 36.3364C30.1917 34.5869 31.2401 33.2411 32.3183 31.8953C33.5464 30.3701 35.3884 29.772 36.871 28.7551C37.3054 29.1589 37.7247 29.5327 38.1889 29.9514C37.4102 30.4897 36.6015 30.9383 35.9425 31.5364C33.6362 33.6299 32.1686 36.142 31.6893 39.2972C31.3 41.8392 31.3299 44.3813 31.27 46.9233C31.2101 49.2411 31.4198 51.5589 31.4946 53.8766C31.5096 54.2654 31.6294 54.4149 32.0188 54.4299C32.6328 54.4299 33.2319 54.5196 33.8459 54.5345C36.5566 54.5794 39.2522 54.6691 41.9629 54.6243C44.8982 54.5794 47.8485 54.3551 50.5292 53.0392C51.5326 52.5458 52.3713 51.6934 53.2549 50.9906C53.6742 50.6616 54.1085 50.3327 54.4529 49.9289C54.9921 49.256 55.4563 48.5233 56.0254 47.7308C56.4298 48.1944 56.8042 48.6131 57.1936 49.0766C56.2051 50.542 55.5312 52.3514 54.0486 53.6523C52.1316 55.3271 49.9601 56.2691 47.4292 56.4187C46.2161 56.4934 45.003 56.613 43.79 56.628C42.9663 56.6729 42.1875 56.4635 41.3938 56.4486ZM28.784 11.7084C28.2149 12.5009 27.8255 13.1888 27.2714 13.757C27.0468 13.9813 26.5226 14.0262 26.1482 13.9813C24.411 13.7271 22.7037 13.2337 20.9665 13.1888C18.8698 13.129 16.8031 13.5028 15.1108 14.9533C15.0809 14.9832 15.021 14.9682 14.7664 14.9832C15.7249 13.5178 16.5785 12.1421 17.522 10.8262C18.3157 9.73459 19.5138 9.51029 20.7568 9.83926C21.9998 10.1682 23.2129 10.6318 24.4259 11.0654C25.8187 11.5439 27.1666 12.1421 28.784 11.7084ZM21.9399 13.8617C23.3177 13.9514 24.6955 14.4 26.0284 14.8337C27.0767 15.1626 27.3912 16.0748 26.7772 16.8972C24.5907 19.8579 21.7452 21.8019 17.9713 21.8467C15.9345 21.8617 14.1074 20.9645 12.505 19.7084C14.407 15.2075 17.2973 13.5327 21.9399 13.8617ZM25.4593 19.3346C26.0733 18.7813 26.6574 18.2131 27.2564 17.6449C27.6158 17.3009 27.9603 17.1813 28.4545 17.4505C29.0685 17.7794 29.7275 18.0187 30.5512 18.3776C28.2299 19.2299 27.2265 21.2635 25.7588 22.8187C25.2496 23.357 24.7554 23.9402 24.1564 24.4037C23.0481 25.2561 21.8201 25.1813 20.637 24.5981C19.379 23.985 18.166 23.2822 16.863 22.5794C17.8365 22.5196 18.7051 22.5495 19.5288 22.4C21.8051 21.9664 23.767 20.8748 25.4593 19.3346ZM27.9603 21.1439C28.8888 19.9477 30.0719 19.1402 31.4647 18.6617C31.914 18.5122 32.4381 18.5421 32.9174 18.4972C32.9773 18.557 33.0372 18.6019 33.0971 18.6617C31.8241 21.0393 30.5811 23.4467 29.2333 25.7944C28.9337 26.3327 28.3197 26.7215 27.8105 27.1103C27.3912 27.4243 26.912 27.3495 26.4178 27.1551C25.3694 26.7663 24.3061 26.4224 23.138 26.0187C25.2197 24.7028 26.5825 22.9084 27.9603 21.1439ZM32.7826 20.4561C33.2468 19.2598 33.9507 18.228 35.1338 17.5551C35.8677 17.1514 36.4966 16.5832 37.2305 16.0598C36.8261 17.0318 36.4068 17.929 36.0773 18.871C35.5831 20.2467 35.5232 21.6822 35.643 23.1177C35.7478 24.4785 35.029 25.2561 33.9956 25.914C32.8575 26.6318 31.6145 26.9906 30.2816 27.1551C29.7724 27.2149 29.2782 27.2897 28.754 27.3495C30.671 25.3757 31.7942 22.9682 32.7826 20.4561ZM36.5416 25.4056C36.0324 22.6692 36.0474 19.9776 37.3353 17.4355C38.5184 15.1327 40.0759 13.1738 42.7267 12.3364C43.1161 13.0243 43.5204 13.7271 43.8499 14.3252C42.9663 15.2523 42.0378 16.0598 41.304 17.0168C40.1957 18.4673 39.5518 20.1719 39.372 21.9963C39.2972 22.8187 39.3121 23.671 39.372 24.5084C39.5518 26.7963 41.1093 28.0523 42.9363 29.0542C44.434 29.8766 46.0813 30.1159 47.7437 30.2206C49.2263 30.3252 50.6191 29.8766 51.9819 29.3383C52.1017 29.2934 52.2365 29.2336 52.4012 29.1738C52.8355 29.8916 53.2399 30.5944 53.6592 31.2822C50.3046 34.1682 44.7934 34.0037 41.259 31.5663C40.2407 30.8635 39.2672 30.071 38.3237 29.2785C37.1556 28.2766 36.8111 26.8561 36.5416 25.4056ZM81.32 4.66543C80.9755 5.63739 80.706 6.54954 81.0804 7.50655C81.1253 7.64113 81.0804 7.85048 80.9905 7.9701C80.062 9.25608 78.9987 9.95888 77.3963 9.48038C77.0218 9.37571 76.5875 8.88224 76.4677 8.49347C76.0784 7.11776 76.7373 5.7271 77.9653 5.0243C78.1301 4.93457 78.3847 4.88971 78.5644 4.94953C79.4929 5.26355 80.3615 4.9944 81.32 4.66543ZM93.4506 4.93458C93.6303 4.87477 93.9148 4.96449 94.0946 5.06916C95.3226 5.84673 95.8917 7.11776 95.5173 8.49346C95.3975 8.8972 94.9332 9.3757 94.5289 9.51028C93.211 9.92897 91.6684 9.19626 90.9945 7.9701C90.9346 7.85047 90.8447 7.67104 90.8897 7.58132C91.3689 6.5944 90.9795 5.68225 90.695 4.68038C91.6535 4.97944 92.5071 5.27851 93.4506 4.93458ZM147.559 11.0654C148.577 10.6916 149.581 10.2879 150.614 9.98879C153.34 9.19627 154.149 10.228 155.272 11.8729C155.931 12.8449 156.485 13.8766 156.979 14.9981C156.724 14.8037 156.5 14.5645 156.215 14.4149C154.193 13.3533 152.037 12.9196 149.761 13.2486C148.398 13.443 147.05 13.7869 145.702 14.0561C145.253 14.1458 144.908 14.1009 144.639 13.6523C144.249 13.0243 143.755 12.4561 143.201 11.7234C144.833 12.1121 146.196 11.5589 147.559 11.0654ZM154.867 14.4897C156.65 15.1327 157.743 16.5981 158.761 18.1084C159.076 18.5719 159.27 19.1103 159.555 19.6635C157.683 21.0542 155.661 21.9663 153.34 21.8318C152.336 21.772 151.333 21.4131 150.375 21.0393C148.443 20.2617 146.84 19.0056 145.552 17.3757C144.549 16.0897 144.759 15.2673 146.271 14.6841C149.102 13.5776 151.992 13.4579 154.867 14.4897ZM144.833 17.7196C146.211 18.886 147.559 20.0972 149.042 21.099C150.449 22.0411 152.112 22.4748 153.819 22.5495C154.208 22.5645 154.598 22.4598 155.152 22.385C154.867 22.5944 154.703 22.7439 154.523 22.8336C153.325 23.4617 152.142 24.1346 150.914 24.7028C149.386 25.4206 148.098 24.8374 147.05 23.7159C145.942 22.5346 144.968 21.2336 143.86 20.0673C143.216 19.3944 142.407 18.8561 141.659 18.2579C142.213 18.0187 142.857 17.7944 143.441 17.4654C144.04 17.1514 144.399 17.3458 144.833 17.7196ZM148.862 26.0336C147.469 26.4972 146.226 27.0953 144.908 27.3047C144.055 27.4392 143.351 26.6617 142.827 25.9439C141.554 24.2093 140.61 22.3103 139.831 20.3065C139.607 19.7234 139.307 19.1701 138.993 18.5121C141.404 18.4822 142.976 19.7832 144.339 21.5177C145.612 23.1626 146.915 24.8075 148.862 26.0336ZM139.607 21.3383C140.281 23.5065 141.434 25.4953 143.171 27.2748C141.629 27.185 140.236 27.0056 138.948 26.4075C138.499 26.1981 138.079 25.9439 137.66 25.6748C136.776 25.0766 136.252 24.2841 136.327 23.1327C136.507 20.6654 136.057 18.3178 134.725 16.1495C136.776 17.5103 138.798 18.7514 139.607 21.3383ZM135.593 20.4411C136.028 22.7439 135.683 25.0168 134.994 27.2299C134.814 27.7981 134.5 28.3813 134.096 28.8C132.044 30.8934 129.753 32.643 126.787 33.1813C124.092 33.6747 121.456 33.4953 119.105 31.8355C118.85 31.6561 118.595 31.5065 118.296 31.3121C118.73 30.5645 119.135 29.8916 119.494 29.3084C120.707 29.5925 121.86 29.9364 123.028 30.1308C124.646 30.4 126.248 30.086 127.791 29.5776C129.049 29.1589 130.157 28.471 131.145 27.5738C132.134 26.6916 132.523 25.5551 132.628 24.329C132.987 20.2916 131.52 17.0617 128.27 14.6243C128.21 14.5794 128.165 14.5346 128.075 14.4598C128.48 13.757 128.869 13.0393 129.288 12.3065C132.972 13.8168 134.889 16.6729 135.593 20.4411ZM131.175 35.6635C129.902 35.828 128.659 36.0673 127.446 35.5439C126.428 35.1103 125.454 34.6168 124.631 34.243C126.038 33.899 127.611 33.5701 129.139 33.1065C129.842 32.8972 130.516 32.4785 131.115 32.0299C132.284 31.1626 133.377 31.4617 134.53 32.0448C136.162 32.8673 137.166 34.3177 138.304 35.7533C135.893 35.2747 133.527 35.3495 131.175 35.6635ZM109.22 50.2878C110.359 50.243 111.092 50.7364 111.706 51.5887C112.875 53.2037 113.174 55.0729 113.354 57.1215C111.392 55.2523 109.131 54.1757 106.779 53.2486C105.416 52.7102 104.233 51.9775 103.5 50.6317C103.125 49.9439 102.586 49.3607 102.197 48.8224C103.425 49.2261 104.683 49.7645 106.015 50.0635C107.049 50.3028 108.157 50.3327 109.22 50.2878ZM69.9681 48.628C68.4855 50.4972 67.527 52.6205 65.041 53.3532C63.1241 53.9215 60.054 55.5813 58.6762 57.1215C58.781 54.8486 59.0805 53.6523 59.9641 52.0822C60.6231 50.9159 61.4767 50.2131 62.9593 50.2878C65.3855 50.4224 66.7782 50.2579 69.9681 48.628ZM32.2135 53.8317C31.869 51.499 32.0787 49.3009 33.3217 47.3869C34.4599 45.6374 36.1522 44.4411 38.1141 43.7084C39.2672 43.2747 40.4803 42.9607 41.7083 42.7962C42.7566 42.6617 43.2658 43.2 43.176 44.2766C43.0112 46.5346 42.1127 48.5233 40.8247 50.3626C38.9976 52.9645 36.4367 53.9663 33.3367 53.8168C32.9623 53.8168 32.6029 53.8317 32.2135 53.8317ZM33.6961 35.7832C35.0589 34.0037 36.3319 32.2542 38.5783 31.6262C39.2822 31.4318 39.9112 31.4318 40.5701 31.8804C42.6668 33.3308 45.003 34.0785 47.6987 34.0486C45.3325 35.2747 43.131 36.2617 40.4054 35.6486C38.2638 35.1701 36.0024 35.2748 33.6961 35.7832ZM50.3944 33.914C51.2481 33.6149 52.1017 33.3009 52.9703 33.0019C52.3263 34.7514 51.7273 36.5009 51.0384 38.2056C50.1099 40.4934 48.4925 42.0635 46.0364 42.6467C45.4823 42.7813 44.8683 42.6916 44.2842 42.6168C43.6103 42.5271 43.3108 42.0187 43.2658 41.3607C43.1011 39.2224 43.9997 37.5476 45.6021 36.2019C46.9949 35.0056 48.7171 34.4822 50.3944 33.914ZM38.9078 36.0972C40.3904 36.142 41.873 36.4262 43.4006 36.6056C42.6518 38.1159 41.3189 38.9532 39.7465 39.357C38.4585 39.686 37.1107 39.8205 35.8077 40.1196C34.5498 40.4037 33.3067 40.7925 32.0338 41.1514C32.2584 39.9701 32.3932 38.6542 32.8275 37.443C33.0072 36.9346 33.8309 36.4561 34.415 36.3663C35.8976 36.1271 37.4102 36.0523 38.9078 36.0972ZM34.7295 40.9869C35.7329 40.7177 36.7812 40.5682 37.8295 40.3888C39.372 40.1196 40.9445 39.9551 42.3074 38.7888C42.2325 39.7607 42.2175 40.5981 42.0528 41.3906C41.9929 41.6448 41.5286 41.899 41.1991 41.9888C38.8778 42.6318 36.6015 43.3495 34.7295 44.9495C33.5613 45.9514 32.4381 46.9832 32.0488 48.5682C31.9739 48.5532 31.884 48.5383 31.8091 48.5233C31.914 46.9233 32.0038 45.3383 32.1236 43.7383C32.2434 42.1383 33.3367 41.3757 34.7295 40.9869ZM43.5953 45.9364C44.2093 43.8878 44.2393 43.8878 46.3659 43.6934C46.5606 43.6785 46.7702 43.6486 47.0997 43.6187C45.4074 45.8617 45.662 48.5233 45.033 50.9308C44.5088 52.9046 43.7001 53.6673 41.7083 53.9364C41.3489 53.9813 40.9745 54.0112 40.6001 54.0112C39.5218 54.0261 38.4435 54.0112 37.2754 54.0112C40.8996 52.4112 42.5619 49.4205 43.5953 45.9364ZM46.3509 47.2074C46.5606 45.8168 47.1147 44.6056 48.0132 43.5439C48.3727 43.1252 48.8669 42.8411 49.4809 42.3476C49.6306 44.9645 49.8253 47.3719 49.8553 49.7645C49.8703 50.6168 49.5108 51.4841 49.2712 52.3215C49.1364 52.8299 48.762 53.114 48.2079 53.2037C47.0398 53.3981 45.8717 53.6673 44.6137 53.9215C45.7369 51.7532 46.0064 49.4654 46.3509 47.2074ZM50.4394 46.5794C50.3944 45.5327 50.1698 44.5009 50.0799 43.4542C49.9901 42.4972 50.2596 41.6149 50.7089 40.7626C51.0983 40.0299 51.3978 39.2224 51.8022 38.3103C51.892 39.1626 51.9519 39.8804 52.0568 40.5832C52.2964 42.2131 52.9104 43.7084 53.8689 45.0243C54.5877 46.0261 54.5578 47.043 54.0935 48.0747C53.2848 49.899 51.7572 51.0654 50.1099 52.2766C50.679 50.2729 50.5292 48.4187 50.4394 46.5794ZM55.8607 46.699C54.3781 44.8747 53.1201 42.9458 52.7307 40.5832C52.2365 37.5776 52.6109 34.7514 54.6926 32.2841C55.3814 32.7028 56.0853 33.1065 56.6095 33.4205C56.295 34.9906 55.7708 36.4411 55.7559 37.8916C55.7259 40.4037 56.3998 42.7813 58.1071 44.785C59.4999 46.4149 61.312 46.714 63.2738 46.6542C65.026 46.6093 66.7034 46.086 68.1411 45.1588C69.414 44.3364 70.4923 43.2 71.7203 42.1233C72.2445 42.4224 72.9484 42.8112 73.6522 43.2149C72.3942 47.1626 67.4671 49.8243 64.0526 49.6299C62.8545 49.5701 61.6714 49.4504 60.4733 49.3458C58.5414 49.1813 57.0737 48.1944 55.8607 46.699ZM77.7257 27.5888C77.7557 27.5589 77.8156 27.5738 77.9803 27.529C77.576 29.1888 77.2165 30.7888 76.7822 32.3589C76.7223 32.5832 76.333 32.7925 76.0484 32.8374C74.1165 33.1514 72.8435 34.2878 72.4242 36.1271C71.9899 38.0411 72.7237 40.1346 74.9552 40.7626C77.9803 41.6149 80.2267 38.8187 79.8224 36.2467C79.6127 34.9757 78.9837 34.0336 78.0253 33.2561C77.8755 33.1364 77.6958 32.8822 77.7257 32.7327C78.175 31.1028 78.6842 29.4729 79.1634 27.828C79.6576 28.6804 80.047 29.5327 80.5861 30.2804C81.7243 31.8355 83.4466 32.4934 85.1988 33.0916C85.3785 33.1514 85.663 33.3607 85.663 33.4654C85.5133 34.7813 85.4983 36.157 85.079 37.3981C83.9558 40.7177 81.5446 42.5719 78.0253 42.8261C76.8721 42.9009 75.659 42.9607 74.5508 42.6766C73.4725 42.3925 72.4392 41.7794 71.5256 41.1215C70.3126 40.2392 69.1594 39.2224 68.5454 37.7869C68.2459 37.0841 68.0362 36.3364 67.9314 35.5738C67.6468 33.3159 68.3357 31.2523 69.4589 29.3234C69.5488 29.1589 69.8783 28.9794 70.043 29.0243C72.8435 29.7271 75.4494 29.5776 77.7257 27.5888ZM75.659 10.3178C75.075 11.4542 74.8204 12.5907 75.0151 13.8168C75.045 13.9664 74.9252 14.2056 74.7904 14.2953C74.1464 14.7589 73.5175 15.2523 72.8136 15.6262C72.0648 16.015 71.286 15.8056 70.7169 15.1925C70.1478 14.5944 69.9382 13.8766 70.3575 13.1439C70.7319 12.471 71.1962 11.8579 71.6455 11.2299C71.7503 11.0953 71.9749 10.9458 72.1097 10.9757C73.3527 11.1551 74.5209 10.9159 75.659 10.3178ZM75.7489 11.8729C75.8537 11.5888 75.9735 11.3047 76.1083 11.0355C76.6175 10.0187 76.6175 10.0336 77.7557 10.243C78.6992 10.4224 79.5528 10.1234 80.4963 9.52524C80.3016 10.9009 80.8258 11.8879 81.6345 12.7701C81.7393 12.8748 81.8292 13.0841 81.7842 13.2187C81.3499 15.043 79.1634 16.2542 77.4262 15.6411C76.3929 15.2673 75.0899 13.6075 75.7489 11.8729ZM94.8733 10.1084C95.0231 10.0635 95.3076 10.1533 95.3975 10.2729C96.4608 11.6636 96.925 13.3981 95.5772 14.8785C94.4839 16.0748 92.6568 16.1645 91.4438 14.9981C90.9945 14.5645 90.6351 14.0262 90.3056 13.4879C90.2008 13.3084 90.2457 12.8897 90.3955 12.7252C91.1742 11.843 91.6535 10.871 91.5037 9.52524C92.6419 10.3028 93.7202 10.4523 94.8733 10.1084ZM99.7705 10.9906C99.9502 10.9757 100.22 11.0654 100.325 11.1851C100.789 11.7981 101.268 12.4112 101.613 13.0841C102.047 13.9215 101.882 14.5944 101.223 15.2374C100.609 15.8355 99.9053 16 99.1115 15.5813C98.4376 15.2224 97.8236 14.7439 97.2096 14.2953C97.0748 14.2056 96.955 13.9664 96.9849 13.8168C97.2395 12.5308 96.8651 11.3794 96.2811 10.243C97.4043 10.9009 98.5424 11.1252 99.7705 10.9906ZM99.4859 29.3383C100.31 29.2187 101.133 29.0991 101.957 29.0243C102.137 29.0093 102.406 29.1589 102.496 29.3084C103.919 31.6561 104.488 34.1981 103.799 36.8747C103.574 37.742 103.02 38.5944 102.436 39.2972C101.747 40.1196 100.879 40.7925 100.04 41.4654C98.168 42.9458 96.0115 43.3046 93.7202 42.7962C92.6569 42.557 91.5786 42.2729 90.5602 41.8841C89.3771 41.4355 88.6583 40.4486 87.9394 39.4318C86.6365 37.6224 86.5017 35.5738 86.337 33.4953C86.322 33.3757 86.5017 33.1364 86.6215 33.1065C89.5119 32.329 91.7882 30.8635 92.8216 27.8131C93.3008 29.428 93.795 31.028 94.2443 32.6579C94.2892 32.8374 94.1095 33.1663 93.9298 33.3009C92.4023 34.5271 91.8931 36.1121 92.2675 37.9962C92.552 39.4168 94.1844 40.7028 95.5922 40.8673C96.6704 40.9869 97.569 40.6729 98.3927 40.0598C99.8304 38.9832 100.145 36.3514 99.0516 34.8411C98.2729 33.7794 97.3294 32.9869 95.9516 32.8673C95.3825 32.8224 95.2028 32.4934 95.098 31.9701C94.8284 30.6392 94.469 29.3383 94.1545 28.0075C94.1245 27.8729 94.1095 27.7383 94.0646 27.4691C94.6037 27.828 95.038 28.1121 95.4724 28.3963C96.7004 29.2037 98.0333 29.5327 99.4859 29.3383ZM109.145 37.5028C109.175 36.9944 109.205 36.486 109.145 35.9776C109.086 35.499 108.921 35.0355 108.801 34.5121C109.205 34.5719 109.58 34.6617 109.969 34.6916C110.359 34.7215 110.763 34.6916 111.212 34.6916C111.841 36.3663 112.126 38.0561 111.557 39.8056C110.943 41.6598 109.73 42.3476 107.633 41.9439C106.435 41.7196 105.401 41.1215 104.533 40.2392C104.188 39.8953 103.859 39.5215 103.515 39.1626C103.874 38.4299 104.218 37.742 104.578 37.0093C104.967 37.3682 105.327 37.7869 105.776 38.1009C106.21 38.4149 106.704 38.6691 107.214 38.8336C108.262 39.2075 109.056 38.6392 109.145 37.5028ZM105.551 41.8243C106.809 42.6617 108.247 42.9159 109.73 42.6168C111.167 42.3327 112.44 40.3439 112.455 38.4897C112.455 37.8318 112.485 37.1589 112.395 36.5159C112.305 35.8729 112.081 35.2448 111.901 34.5869C112.785 34.3177 113.623 34.0635 114.552 33.7794C115.286 35.1701 115.705 36.6504 115.615 38.2056C115.525 39.7159 115.271 41.2112 114.537 42.6168C113.578 44.4112 112.365 45.7869 110.179 45.9364C106.33 46.1906 103.29 44.7551 100.999 41.6149C101.702 40.957 102.361 40.3439 102.99 39.7458C103.844 40.4635 104.638 41.2261 105.551 41.8243ZM108.382 35.6785C108.487 36.1869 108.472 36.7402 108.397 37.2486C108.277 38.0112 107.783 38.2654 107.064 37.9962C106.15 37.6523 105.461 37.0243 104.937 36.2168C104.787 35.9775 104.743 35.6486 104.728 35.3495C104.638 34.1383 104.593 32.942 104.548 32.0448C105.207 32.4785 106.06 33.1663 107.004 33.6299C107.902 34.0785 108.187 34.8411 108.382 35.6785ZM84.5997 43.8729C85.3935 45.1439 86.6065 45.1289 87.4003 43.8579C87.8645 43.0953 88.164 42.228 88.5384 41.4056C89.0476 41.7346 89.6616 42.1084 90.2457 42.5121C90.3356 42.5719 90.4404 42.7514 90.4105 42.8561C90.036 44.7103 89.3921 46.4299 87.7447 47.5514C86.0824 48.6729 85.034 48.4037 83.3867 46.8486C82.2784 45.8018 81.8441 44.3663 81.5446 42.9009C81.5147 42.7813 81.6195 42.5869 81.7243 42.5121C82.3084 42.1233 82.8925 41.7495 83.4166 41.4205C83.821 42.2579 84.1355 43.1103 84.5997 43.8729ZM84.2253 40.5383C84.2253 40.0897 84.6746 39.6411 84.9142 39.1925C85.3186 38.4 85.693 37.5925 85.9775 37.0243C86.4867 37.9813 87.1307 39.1327 87.7148 40.3289C87.8346 40.5832 87.8046 40.9869 87.6848 41.271C87.3703 42.0635 87.0408 42.8561 86.5916 43.5589C86.307 44.0075 85.7978 43.9775 85.3785 43.5888C84.4949 42.7663 84.2403 41.6598 84.2253 40.5383ZM81.4248 44.8C82.1287 46.6691 83.2818 48.1046 85.2587 48.7476C86.6065 49.1813 87.6698 48.5084 88.5983 47.7159C89.7814 46.7289 90.5452 45.443 90.8298 43.9028C90.8897 43.5589 91.0245 43.2299 91.1143 42.9009C91.8931 43.0654 92.6119 43.2598 93.3458 43.3794C93.7202 43.4392 93.81 43.5738 93.7651 43.9327C93.5704 45.8018 92.9264 47.4467 91.7433 48.9271C90.3356 50.6766 88.6433 51.9327 86.4118 52.3364C85.9326 52.4261 85.3785 52.3364 84.9142 52.1719C81.1702 50.9458 79.0736 48.2691 78.2499 44.5159C78.175 44.2018 78.2349 43.8729 78.2349 43.4841C79.0586 43.2897 79.9272 43.0953 80.8707 42.886C81.0504 43.5289 81.1852 44.1869 81.4248 44.8ZM84.2553 24.4785C84.2403 25.2112 84.3002 25.9738 84.465 26.6766C84.6147 27.3346 85.4234 27.843 86.0225 27.7981C86.7713 27.7533 87.2805 27.3047 87.565 26.6318C87.9544 25.6897 87.8495 24.7028 87.6399 23.7308C87.55 23.2972 87.4901 22.8636 87.4003 22.385C88.0292 22.7738 88.5983 23.1327 89.1674 23.4916C89.2573 23.5514 89.3771 23.6561 89.3771 23.7458C89.5718 25.4654 89.6766 27.1551 88.5085 28.6505C86.8611 30.7439 84.2104 30.2804 83.0123 27.9626C82.3234 26.6318 82.3983 25.1962 82.6229 23.7757C82.6379 23.6561 82.8026 23.5215 82.9374 23.4467C83.4616 23.1028 84.0007 22.7589 84.5848 22.385C84.4649 23.1028 84.2703 23.7907 84.2553 24.4785ZM85.3935 22.1159C85.5133 21.6673 85.7529 21.2486 85.9925 20.6654C86.8312 22.4897 87.3404 24.2093 87.0408 26.0934C86.951 26.6617 86.6664 27.0804 86.0524 27.1103C85.3935 27.1402 85.0939 26.6916 84.9592 26.1084C84.6447 24.7327 85.049 23.4318 85.3935 22.1159ZM81.949 23.8804C81.949 24.9121 81.8591 25.8841 81.9639 26.8262C82.1437 28.5159 83.6263 30.1458 85.0939 30.5645C87.1007 31.1177 89.0177 29.6075 89.6916 28.0374C90.1858 26.886 90.2457 25.6748 90.066 24.4486C90.036 24.2991 90.066 24.1346 90.066 23.9402C90.2008 23.9103 90.2457 23.8953 90.2906 23.8953C92.1327 23.8206 92.2375 23.9103 92.2525 25.7794C92.2825 28.4262 91.1593 30.4 88.7631 31.5663C87.9544 31.9551 87.0708 32.4635 86.2172 32.4486C83.8809 32.4037 82.0239 31.2822 80.691 29.3234C79.6427 27.7832 79.5229 26.0935 79.9422 24.329C79.9871 24.1645 80.1968 23.9103 80.3465 23.8953C80.8557 23.8355 81.3649 23.8804 81.949 23.8804ZM98.3178 35.3645C98.5275 35.9028 98.6023 36.486 98.7371 37.0542C98.6323 39.028 97.0299 40.314 95.1129 39.8654C94.1994 39.6561 93.84 38.8635 93.4356 38.1607C92.6119 36.7103 92.8665 34.5121 94.7685 33.7047C96.0265 33.1663 97.7188 33.8841 98.3178 35.3645ZM94.1694 26.5121C93.5105 25.7346 93.166 24.6879 92.6868 23.7308C93.3907 23.3121 93.8999 23.0131 94.2743 22.7888C95.038 23.8206 95.697 24.9271 96.5806 25.8392C98.1081 27.4093 100.969 27.3944 102.212 25.8542C103.35 24.4635 103.515 22.8486 102.915 21.2037C102.586 20.2916 102.032 19.4692 101.568 18.6019C102.047 18.3178 102.556 18.0187 103.08 17.7196C105.716 19.8878 105.881 23.7458 104.173 26.0187C103.44 27.0056 102.856 28.0972 101.553 28.4262C98.7371 29.1589 96.1463 28.8149 94.1694 26.5121ZM99.8603 24.0748C100.624 23.671 100.924 22.9234 100.504 21.7271C100.235 20.9346 99.6207 20.2617 99.1265 19.5439C98.9468 19.2748 98.7072 19.0505 98.4975 18.7813C99.8753 18.4224 100.864 18.8112 101.553 19.9327C102.316 21.1589 102.796 22.4299 102.451 23.9252C101.807 26.6916 98.842 26.8411 97.1946 25.5551C96.1163 24.7177 95.5023 23.5663 95.0081 22.3402C94.9632 22.2206 94.9482 22.0561 94.9931 21.9514C95.2926 21.3533 95.6221 20.7551 95.9067 20.2168C96.4308 21.2785 96.8951 22.3701 97.5241 23.3869C98.0632 24.2542 99.1115 24.4785 99.8603 24.0748ZM99.6207 21.2785C99.8004 21.5776 99.9502 21.9065 100.01 22.2505C100.1 22.7589 100.055 23.357 99.4859 23.4916C99.1115 23.5813 98.5125 23.4467 98.2429 23.1776C97.1796 22.1308 96.8801 20.6953 96.5057 19.3196C96.4009 18.9159 96.4009 18.4822 96.3559 17.9439C97.7936 18.8561 98.797 19.9776 99.6207 21.2785ZM94.5888 21.3981C93.7351 22.7738 91.8631 23.5215 90.3056 23.1477C87.9993 22.5944 86.6814 21.0243 86.322 18.572C86.8162 18.3776 87.2954 18.1981 87.7896 18.0037C88.1341 18.7215 88.4336 19.4991 88.8529 20.1869C89.6167 21.4579 90.5153 21.7271 92.0578 21.2935C93.0163 21.0243 93.795 19.8131 93.6752 18.7663C93.5854 18.0336 93.5404 17.286 93.4656 16.4935C93.9448 16.4187 94.439 16.3439 94.9931 16.2542C95.8468 18.0486 95.6221 19.7383 94.5888 21.3981ZM92.9414 17.8542C92.9414 18.228 93.0013 18.6019 92.9863 18.9757C92.9713 19.9477 92.4472 20.5607 91.4138 20.8449C90.7249 21.0392 89.7814 20.6205 89.3921 19.9028C89.1075 19.3645 88.8829 18.7963 88.6433 18.243C88.4935 17.8692 88.5834 17.5551 88.7781 17.1514C89.2423 16.1944 89.5418 15.1626 89.8563 14.3402C90.3955 14.8187 91.0245 15.5963 91.8332 16.0149C92.6718 16.4486 92.9414 17.0168 92.9414 17.8542ZM85.8128 17.8093C83.9108 17.7346 82.2934 15.2523 83.0422 13.5178C83.1171 13.3383 83.4017 13.1888 83.6113 13.114C84.8094 12.6953 85.4234 12.172 86.0075 10.9906C86.5167 12.1271 87.3104 12.8299 88.4186 13.114C88.8679 13.2187 89.0027 13.4729 89.0626 13.8766C89.4071 15.9701 87.8346 17.8991 85.8128 17.8093ZM89.7815 12.3664C89.5568 12.5458 89.1525 12.6206 88.8529 12.5757C87.4302 12.3813 86.1872 10.7813 86.307 9.33084C86.322 9.22617 86.337 9.06169 86.3969 9.01683C87.3404 8.43365 87.4152 7.38692 87.7447 6.47477C88.4336 7.10281 88.9578 7.9701 90.036 7.9701C90.1409 7.9701 90.2607 8.11962 90.3356 8.22429C91.2192 9.48037 90.9795 11.3795 89.7815 12.3664ZM86.6065 7.79065C86.5017 8.0299 86.1872 8.31401 85.9925 8.31401C85.7828 8.31401 85.4833 8.01495 85.3635 7.79065C84.5698 6.08598 85.2137 4.53084 85.9775 2.82618C86.8012 4.5458 87.4152 6.08598 86.6065 7.79065ZM85.6031 9.00187C85.6481 9.03178 85.678 9.12149 85.693 9.18131C86.0524 10.5271 84.3152 12.6056 82.9224 12.5907C82.0089 12.5757 80.8707 10.7664 81.1253 9.77945C81.2451 9.3458 81.3649 8.9271 81.4997 8.50841C81.6195 8.16449 81.8741 8.04486 82.2335 7.89533C82.8925 7.59626 83.4466 7.07289 84.0456 6.63926C84.1205 6.59439 84.1355 6.47477 84.2253 6.31029C84.5398 7.40187 84.6596 8.4187 85.6031 9.00187ZM81.8591 14.5047C81.9939 14.385 82.0688 14.2206 82.2784 13.9514C82.2335 15.357 82.6079 16.4635 83.3867 17.4206C83.4765 17.5252 83.4915 17.7495 83.4466 17.8841C83.1171 18.6617 82.8625 19.4841 82.3983 20.172C81.8891 20.9346 81.0354 21.0542 80.1369 20.7103C79.433 20.4561 78.9687 19.7533 78.9837 18.871C78.9837 18.3327 79.0286 17.7944 79.1035 17.2561C79.1784 16.7925 79.3731 16.4935 79.8673 16.2243C80.6161 15.7906 81.2151 15.0878 81.8591 14.5047ZM78.5195 16.4935C78.4596 17.3009 78.3697 18.1084 78.3547 18.9308C78.3248 20.0523 78.9687 20.9944 79.8973 21.2935C81.335 21.757 82.3384 21.5028 83.0422 20.3664C83.4915 19.6336 83.821 18.8262 84.2104 18.0336C84.6746 18.2131 85.1688 18.3925 85.6481 18.572C85.3635 21.114 84.0007 22.4598 82.0089 23.0878C80.3765 23.5963 78.7441 23.1327 77.6508 21.7271C76.3629 20.0822 76.0334 18.243 76.9919 16.2692C77.546 16.3439 78.0253 16.4187 78.5195 16.4935ZM74.431 23.4318C75.075 22.415 75.5392 21.2785 76.0784 20.2318C76.3629 20.7551 76.6774 21.3383 76.9919 21.9514C77.0368 22.0411 77.0668 22.1757 77.0218 22.2654C76.4827 23.6112 75.7938 24.8374 74.5957 25.7346C73.7571 26.3626 71.7203 26.5719 70.7918 25.8691C69.8184 25.1364 69.1894 23.5813 69.4739 22.2205C69.7285 20.9944 70.3575 19.9626 71.1512 19.0056C71.2261 18.9159 71.3759 18.8112 71.4807 18.8112C72.1397 18.7664 72.7836 18.7364 73.5774 18.6916C73.1431 19.2149 72.7387 19.6486 72.3943 20.1421C72.0498 20.6355 71.7203 21.1589 71.4807 21.7122C71.0614 22.6692 71.331 23.6112 72.0947 24.0598C72.8435 24.4785 73.8919 24.2841 74.431 23.4318ZM73.9068 23.043C73.5624 23.5215 73.0382 23.8355 72.4392 23.4766C71.8401 23.1327 71.8701 22.5346 72.0798 21.9813C72.7387 20.2916 73.9967 19.1103 75.5093 18.1234C75.4793 19.9477 74.9701 21.5925 73.9068 23.043ZM69.7285 19.828C68.7551 21.4878 68.3657 23.1925 69.2643 25.0467C70.1029 26.7663 71.6754 27.2748 73.4576 26.871C75.4194 26.4224 76.4677 25.0019 77.2615 23.3121C77.3363 23.1626 77.3963 23.0131 77.4711 22.8635C77.5011 22.8037 77.546 22.7589 77.576 22.714C78.1151 23.028 78.6243 23.342 79.1634 23.6411C78.5195 27.1252 75.4044 28.8149 73.143 28.7402C72.3493 28.7103 71.5556 28.6505 70.7768 28.5159C69.9981 28.3813 69.2792 28.0374 68.8299 27.3645C68.201 26.4374 67.4372 25.5402 67.0777 24.5084C66.314 22.2953 66.6434 20.172 68.2908 18.3626C68.5005 18.1383 68.6952 17.914 68.8899 17.7047C69.429 18.0187 69.9382 18.3178 70.5073 18.6467C70.2527 19.0355 69.9681 19.4243 69.7285 19.828ZM76.4378 33.5103C77.3813 33.5252 78.4596 34.3177 78.7741 35.2598C79.2533 36.6654 78.7441 38.5645 77.5909 39.4916C77.3513 39.686 76.9769 39.8953 76.7074 39.8504C75.8388 39.7159 74.9402 39.5663 74.1614 39.2075C73.2629 38.7888 73.3827 37.8168 73.3527 37.0841C73.3677 34.9458 74.6556 33.4953 76.4378 33.5103ZM64.8613 38.8336C65.6251 38.4897 66.299 37.9065 66.9879 37.4131C67.1377 37.3084 67.2125 37.114 67.3473 36.9196C67.7517 37.6822 68.0961 38.3252 68.4106 38.9682C68.4555 39.0729 68.4256 39.2972 68.3507 39.3869C67.3623 40.3888 66.3439 41.3458 64.9811 41.8542C62.7946 42.6617 60.7279 41.585 60.2786 39.2673C59.9791 37.7121 60.1888 36.1869 60.7878 34.7663C61.5965 34.7065 62.3902 34.6467 63.169 34.5869C63.0342 35.2149 62.8545 35.843 62.7946 36.471C62.7497 36.9196 62.7946 37.4131 62.9144 37.8617C63.169 38.8037 63.9478 39.2523 64.8613 38.8336ZM67.2874 35.499C67.2575 35.828 67.1377 36.2168 66.928 36.4561C66.4937 36.9346 66.0145 37.428 65.4454 37.742C65.041 37.9663 64.3222 38.1458 64.0376 37.9364C63.6932 37.6822 63.4985 36.9944 63.5134 36.5159C63.5284 35.8579 63.6632 35.1103 64.0226 34.5719C64.3821 34.0336 65.071 33.7047 65.6401 33.3159C66.284 32.8523 66.943 32.4187 67.4522 32.0747C67.4072 33.0766 67.3773 34.2878 67.2874 35.499ZM60.0989 34.5869C59.9941 34.9906 59.8743 35.4093 59.7694 35.828C59.3801 37.3383 59.3651 38.8635 59.9491 40.314C60.9376 42.7364 62.7646 43.2149 65.4154 42.3028C66.1193 42.0635 66.7782 41.6598 67.3773 41.2112C67.9464 40.7776 68.3956 40.1794 68.9048 39.6411C69.6536 40.329 70.3126 40.942 71.0015 41.585C69.2493 44.2168 66.7633 45.5626 63.6932 45.9215C63.0043 45.9962 62.3004 45.9663 61.6115 45.9065C59.5148 45.7121 58.3617 44.3215 57.4781 42.5869C56.5646 40.7776 56.2051 38.8486 56.4747 36.8598C56.6095 35.8131 57.0288 34.7962 57.3134 33.7495C58.3317 34.0635 59.1704 34.3177 60.0989 34.5869ZM73.8769 45.0841C74.1465 46.4448 74.401 47.8355 74.6856 49.2261C75.06 51.0205 75.1049 52.785 74.401 54.5345C73.8919 55.7757 73.0682 56.7476 71.93 57.4205C70.7169 58.1233 69.9981 57.914 69.3691 56.643C68.5454 54.9981 68.4705 53.2785 69.1295 51.5439C69.8184 49.7196 71.1363 48.3289 72.3793 46.9084C72.9034 46.2803 73.4126 45.6523 73.8769 45.0841ZM60.0091 56.7775C61.7163 55.7458 63.4835 54.8486 65.2507 53.9215C65.9246 53.5626 66.6584 53.2934 67.4372 52.9645C67.4821 55.0878 66.4188 56.5831 64.9212 57.8841C63.4535 59.1551 62.0308 60.5009 60.6081 61.8168C60.3685 62.0411 60.2187 62.3401 59.9491 62.714C59.5747 61.6972 59.1854 60.7551 58.8858 59.7981C58.4815 58.4373 58.766 57.5401 60.0091 56.7775ZM62.4052 60.8448C63.4985 59.828 64.7115 58.9159 65.8048 57.8841C66.5087 57.2261 67.0628 56.4187 67.7067 55.656C68.0063 56.314 68.4106 57.0616 68.6652 57.8691C68.7401 58.0934 68.4406 58.4972 68.2459 58.7663C67.1976 60.0523 66.0444 61.2635 65.0859 62.6243C64.0226 64.1345 63.5584 65.9289 63.3936 67.7682C63.3637 68.142 63.4985 68.5457 63.5584 68.9345C63.4985 68.9644 63.4386 68.9943 63.3787 69.0243C62.7047 67.7233 61.9859 66.4373 61.3569 65.1214C60.4583 63.3121 61.0873 62.056 62.4052 60.8448ZM64.0825 67.8878C64.0376 66.6616 64.5019 65.3607 64.9811 64.1794C65.7599 62.2355 67.0628 60.6205 68.7551 59.3644C69.8633 58.542 70.7319 58.7813 71.2411 60.0672C72.3044 62.7439 72.4841 65.4654 71.6754 68.2467C71.0764 70.2953 69.5338 71.5364 67.8715 72.6728C67.4072 72.9869 66.8681 73.1813 66.3289 73.4654C64.9512 71.7906 64.1724 69.9065 64.0825 67.8878ZM71.6604 69.9065C73.0232 67.185 73.0832 64.3289 72.3793 61.428C72.2295 60.8 71.9899 60.1719 71.9 59.5289C71.8551 59.2448 71.9599 58.8261 72.1546 58.6467C72.7687 58.1233 73.4575 57.6897 74.2513 57.1364C73.8619 58.6018 74.3112 59.813 74.7455 61.0243C75.1798 62.2355 75.674 63.4317 76.0334 64.6728C76.6025 66.6766 76.1383 67.8579 74.3861 68.9794C73.3078 69.6672 72.1996 70.3102 71.0015 70.8635C71.2111 70.5644 71.4807 70.2654 71.6604 69.9065ZM75.045 59.8729C74.5209 58.213 74.6706 56.6729 75.5991 55.028C76.917 57.0018 78.16 58.871 79.4031 60.7401C80.0171 61.6672 80.4064 62.714 80.4514 63.8205C80.4663 64.2093 80.1519 64.7028 79.8523 65.0018C79.0286 65.8093 78.1151 66.542 77.1267 67.4093C77.0818 64.5981 75.8088 62.3102 75.045 59.8729ZM77.0368 56.1345C76.1982 55.1028 75.7938 53.9065 75.7938 52.5458C75.7938 51.7981 75.659 51.0654 75.5542 50.1383C75.7489 50.3925 75.8387 50.5121 75.9136 50.6317C77.0368 52.5607 78.5943 54.0411 80.6011 54.9682C81.964 55.5962 82.4282 56.628 82.4731 57.9738C82.548 59.7831 81.8591 61.413 81.1103 63.1327C80.2267 60.4261 78.7441 58.228 77.0368 56.1345ZM84.6147 55.8504C82.2485 55.3121 80.077 54.2803 78.3098 52.6056C76.6325 51.0355 75.5093 49.0766 75.075 46.8037C74.8803 45.7869 74.9402 44.7402 74.8803 43.6187C75.7489 43.6187 76.4677 43.5888 77.1866 43.6486C77.3363 43.6635 77.561 43.9775 77.5909 44.1719C77.9504 47.671 79.8673 50.1682 82.7277 51.9925C84.9142 53.3981 87.1906 53.3532 89.3621 51.9327C91.968 50.243 93.7351 47.9402 94.3192 44.8299C94.5438 43.6037 94.5738 43.6037 95.8318 43.6037C96.2062 43.6037 96.5806 43.6037 96.9849 43.6037C97.4342 46.8336 96.3859 49.4803 94.409 51.813C92.4771 54.1009 89.8713 55.2672 87.0408 55.9252C86.2771 56.1196 85.3935 56.0299 84.6147 55.8504ZM98.1231 45.099C99.2913 46.5046 100.534 47.8803 101.642 49.3458C103.245 51.4542 103.844 53.7869 102.766 56.3289C101.957 58.2429 100.819 58.2579 99.1565 56.7177C96.8951 54.6542 96.7903 52.0074 97.2994 49.2411C97.569 47.8654 97.8536 46.4747 98.1231 45.099ZM90.8447 55.3121C93.1211 54.1458 95.0231 52.6205 96.341 50.1831C96.3709 52.8598 95.9965 55.1626 94.1994 57.1663C92.7018 58.856 91.5486 60.8448 90.9047 63.1775C89.9761 60.9345 88.9727 58.8112 89.8713 56.4037C90.0211 55.985 90.4254 55.5364 90.8447 55.3121ZM91.923 62.1158C92.9714 60.2915 94.1545 58.542 95.2926 56.7775C95.6521 56.2243 96.0265 55.6859 96.4308 55.0878C97.6289 57.0766 97.3294 59.0056 96.6105 60.9644C96.0115 62.6093 95.5023 64.299 95.0081 65.9738C94.8883 66.3626 94.9332 66.7962 94.8883 67.4243C93.7801 66.4224 92.6569 65.6149 91.7882 64.5682C91.2042 63.8953 91.5037 62.8486 91.923 62.1158ZM95.8767 65.1065C96.1762 63.9102 96.6854 62.7588 97.0299 61.5775C97.3593 60.471 97.6439 59.3345 97.8835 58.1981C97.9434 57.899 97.8236 57.5551 97.7787 57.1663C98.5125 57.6897 99.1714 58.1383 99.8004 58.6168C100.235 58.9458 100.145 59.3794 100.01 59.828C99.5009 61.6074 99.0666 63.4018 99.1714 65.271C99.2463 66.8411 99.5009 68.3962 100.265 69.8018C100.459 70.1607 100.729 70.4897 100.909 70.9682C100.055 70.4598 99.1864 69.9813 98.3478 69.4579C97.7936 69.114 97.2545 68.7252 96.7603 68.3065C95.7269 67.4691 95.5772 66.3028 95.8767 65.1065ZM99.8903 66.0785C99.7106 63.97 100.025 61.9663 100.774 60.0373C101.268 58.7813 102.167 58.5121 103.215 59.3495C105.821 61.413 107.603 64.0149 107.858 67.4093C108.022 69.6672 107.064 71.6411 105.701 73.4654C102.466 71.97 100.19 69.8467 99.8903 66.0785ZM106.27 61.6074C105.536 60.6056 104.653 59.7233 103.799 58.8112C103.365 58.3476 103.155 57.9588 103.529 57.3308C103.859 56.7775 104.069 56.1495 104.368 55.4766C104.668 55.985 104.877 56.5233 105.237 56.8972C106.105 57.7794 107.064 58.5719 107.977 59.4093C108.756 60.1121 109.595 60.785 110.269 61.5775C110.883 62.3102 111.287 63.1925 110.973 64.2392C110.433 65.9738 109.46 67.4691 108.457 69.1439C108.861 66.1682 107.858 63.7906 106.27 61.6074ZM106.525 57.3607C105.252 56.1944 104.503 54.7588 104.563 52.9495C107.139 54.1458 109.834 55.0878 112.111 56.8224C113.234 57.6897 113.489 58.4673 113.099 59.8579C113.039 60.0822 112.979 60.3065 112.89 60.5308C112.62 61.2336 112.35 61.9215 112.036 62.714C110.583 60.456 108.397 59.0654 106.525 57.3607ZM104.383 49.0168C101.672 47.8504 99.3811 46.2205 98.3478 43.2299C99.0367 42.8411 99.7256 42.4523 100.384 42.0785C101.178 42.886 101.912 43.7981 102.811 44.5009C104.368 45.7271 106.195 46.4 108.187 46.5944C108.981 46.6691 109.789 46.6542 110.568 46.5645C113.204 46.2654 114.537 44.4112 115.42 42.1981C116.589 39.3121 116.574 36.4112 115.181 33.5551C115.9 33.1215 116.589 32.7327 117.307 32.299C118.431 33.6747 119.179 35.2 119.359 36.9794C119.569 39.0878 119.404 41.1514 118.491 43.0953C117.577 45.0243 116.334 46.7289 114.732 48.1345C113.444 49.256 111.766 49.4355 110.179 49.6C108.217 49.7944 106.225 49.8093 104.383 49.0168ZM117.667 47.4018C117.457 46.714 117.472 46.056 117.921 45.3981C118.94 43.9177 119.689 42.3028 119.958 40.5084C120.063 39.8355 120.108 39.1476 120.183 38.385C121.396 40.7028 122.309 42.9009 121.695 45.5925C121.216 47.7159 121.276 49.9588 121.875 52.2467C120.018 50.9009 118.326 49.6 117.667 47.4018ZM122.354 51.3794C122.205 49.7944 122.175 48.2093 122.22 46.6093C122.265 45.2635 122.489 43.9177 122.639 42.542C124.151 43.2747 124.99 44.5757 125.38 46.1308C125.799 47.8056 126.009 49.5252 126.383 51.2C126.593 52.0972 126.952 52.9644 127.267 53.9065C126.009 53.6523 124.706 53.4729 123.463 53.1289C122.684 52.9196 122.414 52.0523 122.354 51.3794ZM129.483 53.7719C128.015 53.5775 127.326 52.4261 127.012 51.0953C126.742 49.9439 126.608 48.7476 126.383 47.5813C126.113 46.2355 125.919 44.8598 124.825 43.6486C125.829 43.7233 126.608 43.6934 127.341 43.8729C127.641 43.9476 127.97 44.4261 128.06 44.785C128.689 47.0878 129.423 49.3308 130.996 51.185C131.999 52.3663 133.062 53.4878 134.665 53.9065C134.65 53.9813 134.635 54.0411 134.62 54.1158C132.912 53.9962 131.175 53.9813 129.483 53.7719ZM132.508 51.8878C130.816 50.3028 129.708 48.314 129.139 46.056C128.974 45.428 128.854 44.7701 128.824 44.1271C128.794 43.2299 129.288 42.6766 130.172 42.7962C131.43 42.9757 132.703 43.2598 133.901 43.7084C135.983 44.5009 137.795 45.7719 138.903 47.7458C139.682 49.1215 140.026 50.6916 139.906 52.3215C139.876 52.785 139.906 53.2486 139.906 53.7719C137.151 53.9962 134.575 53.8168 132.508 51.8878ZM139.906 48.4486C139.247 46.3252 137.6 45.0691 135.833 43.9476C134.275 42.9458 132.508 42.4523 130.726 42.0037C130.187 41.8691 129.887 41.5701 129.887 40.9719C129.872 40.299 129.768 39.6261 129.678 38.8037C131.64 40.3888 133.976 40.2093 136.117 40.7327C136.612 40.8523 137.136 40.9271 137.615 41.0916C139.172 41.6 139.921 42.7663 140.011 44.3065C140.101 45.7121 140.026 47.1177 140.026 48.5233C140.011 48.5084 139.921 48.4934 139.906 48.4486ZM133.257 39.5962C131.939 39.3869 130.771 38.9084 129.753 38.071C129.288 37.6822 128.944 37.1439 128.495 36.6205C129.738 36.471 130.831 36.2617 131.939 36.2168C133.616 36.157 135.309 36.142 137.001 36.2318C137.6 36.2617 138.214 36.5757 138.753 36.8897C139.472 37.3084 139.382 38.1458 139.547 38.8336C139.742 39.6411 139.816 40.4785 139.951 41.3458C137.84 40.1944 135.533 39.9402 133.257 39.5962ZM128.704 41.3009C128.644 42.1682 128.21 42.6168 127.326 42.6617C125.245 42.7663 123.597 41.9289 122.279 40.3738C121.022 38.9084 120.497 37.099 119.883 35.3346C119.614 34.542 119.299 33.7495 118.985 32.8673C121.186 33.7645 123.433 34.4822 125.484 35.5738C127.656 36.7551 128.854 38.699 128.704 41.3009ZM131.879 21.443C132.074 22.4598 131.999 23.5364 131.909 24.5682C131.744 26.572 130.322 27.6037 128.719 28.4411C126.922 29.3832 124.99 29.7271 122.983 29.4729C121.92 29.3383 120.887 28.9196 119.808 28.6205C120.123 27.5888 120.378 26.7514 120.602 25.9888C121.815 26.1234 122.983 26.3177 124.166 26.3925C125.619 26.4822 126.892 25.9439 127.955 24.9719C128.824 24.1794 128.824 23.0878 128.734 22.0411C128.599 20.4411 127.881 19.0804 126.712 17.9738C126.383 17.6598 126.068 17.3607 125.739 17.0467C126.398 16.329 127.027 15.671 127.656 14.9832C130.052 16.5084 131.355 18.7514 131.879 21.443ZM127.851 20.9794C128.644 23.7009 127.761 25.271 124.706 25.7495C123.313 25.9589 122.22 25.7047 120.737 25.1364C120.737 24.7626 120.752 24.3589 120.737 23.9701C120.707 23.5813 120.632 23.1925 120.587 22.8934C121.546 22.9682 122.489 23.1327 123.433 23.1177C124.736 23.1028 125.38 22.1308 124.825 20.9495C124.406 20.0673 123.762 19.2748 123.208 18.4523C123.807 18.1682 124.496 17.8243 125.215 17.4804C126.323 18.4374 127.416 19.4841 127.851 20.9794ZM122.594 22.4598C121.935 22.3701 121.246 22.2355 120.632 21.9663C120.273 21.8019 120.003 21.3832 119.764 21.0243C119.15 20.1271 118.58 19.2 118.116 18.4972C119 18.5421 120.183 18.6168 121.366 18.6467C122.504 18.6766 124.166 20.3663 124.137 21.5028C124.122 22.1159 123.418 22.5794 122.594 22.4598ZM120.033 23.8056C120.168 24.5832 120.018 25.4505 119.838 26.228C119.464 27.8131 118.88 29.3383 117.921 30.6691C116.903 32.0897 115.376 32.7925 113.788 33.3159C112.845 33.6299 111.841 33.8691 110.853 34.0187C109.73 34.1981 108.681 33.7944 107.663 33.3308C105.716 32.4187 104.323 30.9383 103.245 29.114C102.99 28.6804 103.005 28.4561 103.35 28.0972C104.488 26.9009 105.506 25.5701 105.761 23.8953C105.911 22.8935 105.791 21.8467 105.791 20.6654C107.064 21.8766 108.262 22.9981 109.445 24.1196C109.73 24.3888 109.685 24.643 109.535 24.9869C108.367 27.5888 110.044 30.9084 113.533 30.9981C115.271 31.043 117.472 28.6206 116.933 26.557C116.289 24.0299 113.803 22.8187 111.811 23.2523C111.512 23.3121 111.197 23.3869 110.943 23.5514C110.613 23.7607 110.374 23.686 110.149 23.4467C109.026 22.2654 107.902 21.0841 106.734 19.8579C107.663 19.8579 108.502 19.9476 109.325 19.828C110.104 19.7234 110.913 19.529 111.587 19.1551C112.56 18.6019 113.414 17.8542 114.327 17.2112C114.477 17.1065 114.776 17.0617 114.926 17.1364C117.592 18.6019 119.494 20.7252 120.033 23.8056ZM112.5 23.7757C114.118 23.7458 116.079 25.7346 116.064 27.3794C116.049 28.4561 114.432 30.0411 113.354 30.0262C111.706 30.0112 109.789 28.0822 109.819 26.4673C109.849 25.1364 111.182 23.7906 112.5 23.7757ZM113.159 17.3907C111.227 18.9757 109.056 19.7533 106.615 18.9458C105.566 18.6019 104.638 17.8393 103.634 17.2411C104.054 16.5084 104.368 15.985 104.578 15.6112C105.731 16.1047 106.869 16.7327 108.082 17.0766C110.149 17.6748 112.665 16.2392 112.949 14.4299C113.249 12.5009 112.635 10.9009 111.062 9.73458C110.359 9.21121 109.55 8.80748 108.771 8.34393C109.041 7.86542 109.355 7.34205 109.67 6.80374C112.979 7.40187 114.821 10.3178 114.776 12.8299C114.762 13.6075 114.702 14.4 114.567 15.1776C114.417 16.1047 113.878 16.7925 113.159 17.3907ZM108.232 8.92711C109.939 9.65982 111.632 10.4523 112.216 12.4112C112.89 14.6841 111.587 16.2991 109.385 16.5234C107.633 16.7028 106.27 15.8206 104.982 14.8037C104.907 14.7439 104.847 14.6093 104.832 14.5047C104.787 13.8467 104.772 13.2037 104.728 12.4561C105.506 13.0542 106.165 13.6075 106.884 14.086C107.259 14.3402 107.723 14.5495 108.172 14.6243C109.22 14.8037 109.909 14.4299 110.239 13.5776C110.493 12.9346 110.194 11.9776 109.43 11.4991C108.666 11.0206 107.813 10.6766 106.989 10.2729C106.719 10.1533 106.435 10.0635 106.135 9.94393C106.794 9.58505 107.408 9.25608 108.037 8.92711C108.082 8.92711 108.172 8.91216 108.232 8.92711ZM104.743 11.4094C104.488 11.1252 104.263 10.7963 103.964 10.3925C105.896 10.4374 107.543 11.0056 109.026 12.0374C109.46 12.3364 109.745 12.785 109.58 13.3682C109.4 13.9813 108.756 14.2206 107.932 13.8916C106.63 13.3682 105.656 12.4112 104.743 11.4094ZM103.934 12.2916C104.263 13.7122 104.338 15.0878 103.365 16.3738C101.268 19.1402 97.4642 18.3477 95.7868 16.1346C95.697 16.0149 95.7569 15.7159 95.8617 15.5663C96.0714 15.2523 96.341 14.9981 96.6255 14.6691C97.1796 15.0878 97.7038 15.5215 98.2729 15.8953C99.456 16.6879 100.579 16.5682 101.553 15.7458C102.841 14.6393 102.631 13.2187 102.002 12.2916C101.613 11.7084 101.163 11.1701 100.744 10.6019C101.118 10.2879 101.493 9.94393 101.942 9.57009C102.856 10.2729 103.664 11.0953 103.934 12.2916ZM98.4376 10.3477C98.0932 10.228 97.7038 10.1682 97.3743 10.0187C96.1163 9.45047 96.2212 9.4355 96.2661 8.08971C96.296 7.25233 95.9815 6.38505 95.8168 5.51776C96.94 5.66729 97.9284 5.11402 98.842 4.30655C98.9468 4.21683 99.1864 4.15702 99.3062 4.21683C100.804 4.87477 102.182 6.19065 101.762 8.20935C101.538 9.36074 99.6207 10.7664 98.4376 10.3477ZM90.3805 5.96636C90.4404 6.22056 90.4554 6.47477 90.4404 6.72897C90.3955 7.22243 90.051 7.43177 89.6167 7.17757C89.2273 6.93831 88.7781 6.66915 88.5384 6.29532C87.8346 5.20373 87.3703 4.00748 87.5051 2.51216C88.8829 3.45421 90.0211 4.38131 90.3805 5.96636ZM92.2825 4.42617C90.9346 4.26168 90.0211 3.3944 89.1824 2.42244C88.9727 2.18319 88.823 1.88412 88.5384 1.48038C90.3655 1.49533 91.8931 1.86917 92.9863 3.24487C93.166 3.46917 93.3308 3.99253 93.2259 4.08225C93.0163 4.30655 92.597 4.47103 92.2825 4.42617ZM83.4016 1.57009C82.4881 2.93084 81.4997 4.05234 79.8823 4.39627C79.6576 4.44113 79.403 4.48598 79.1784 4.42617C78.7741 4.32149 78.4745 4.06729 78.7591 3.60373C78.9837 3.2299 79.2383 2.84112 79.5678 2.55701C80.3465 1.88411 82.2485 1.39066 83.4016 1.57009ZM83.5364 3.20001C83.7761 2.99066 84.0756 2.82618 84.5099 2.52711C84.4949 4.39627 84.1055 5.93645 82.6828 7.02803C82.4731 7.19252 81.9939 7.32711 81.8891 7.20749C81.6794 6.99814 81.5147 6.5944 81.5596 6.31029C81.6944 4.9645 82.548 4.02243 83.5364 3.20001ZM76.4228 5.53271C75.6441 6.62429 75.5242 7.71589 75.8387 8.88224C75.8837 9.03177 75.7788 9.30094 75.659 9.39066C74.0266 10.5421 72.5141 10.886 71.0165 9.49533C69.8783 8.4486 69.7884 6.68411 70.8966 5.47289C71.3459 4.97944 71.93 4.59066 72.5141 4.24673C72.6788 4.14206 73.0981 4.23179 73.2778 4.38131C74.4759 5.35328 74.8653 5.5028 76.4228 5.53271ZM71.286 10.5869C70.8817 11.1252 70.4324 11.6486 70.073 12.2168C68.8749 14.1009 69.6387 15.357 71.1812 16.2692C71.8851 16.6879 72.7537 16.5234 73.4725 16.0598C74.1165 15.6411 74.7305 15.1626 75.3895 14.6991C75.7189 15.1028 76.0334 15.4766 76.3629 15.8505C75.5841 17.3907 73.4276 18.3626 71.4208 18.1383C69.9082 17.9738 68.1111 16.2991 67.9014 14.8037C67.6319 12.6953 68.186 10.9009 70.1029 9.60001C70.4923 9.91403 70.8817 10.243 71.286 10.5869ZM64.5168 13.6822C63.6183 14.1906 62.7347 14.086 62.4202 13.5028C62.1357 12.9645 62.4651 12.2467 63.3487 11.7533C64.7714 10.9607 66.269 10.3776 67.9913 10.4075C67.0777 11.7981 65.9246 12.8897 64.5168 13.6822ZM65.7599 9.89908C64.7265 10.4075 63.6183 10.871 62.5999 11.4841C61.8212 11.9477 61.5216 12.9047 61.7463 13.5327C62.1207 14.5346 63.1241 15.0131 64.1724 14.5196C64.9961 14.1458 65.7149 13.5626 66.4787 13.0542C66.7483 12.8748 66.9729 12.6654 67.2874 12.4112C67.2425 13.1888 67.2125 13.8617 67.1826 14.5346C67.1826 14.6243 67.1377 14.729 67.0628 14.7738C65.6101 15.9103 64.0975 16.8374 62.1057 16.4336C59.2003 15.8505 59.1105 12.6804 60.4883 11.0654C61.3419 10.0635 62.4352 9.46541 63.6183 8.98691C63.7381 8.94205 63.9328 8.94207 64.0526 9.00187C64.6367 9.30094 65.2207 9.61496 65.7599 9.89908ZM60.1438 10.5122C58.7061 11.858 58.4965 14.3252 59.6496 15.7159C60.7429 17.0168 62.2405 17.4953 63.8429 17.1065C65.071 16.8075 66.1942 16.1495 67.3922 15.6411C67.6319 16.0448 67.9314 16.5383 68.2309 17.0467C66.0893 19.6635 62.1656 19.8579 59.8593 18.1084C58.9008 17.3757 57.8225 16.7925 57.5081 15.5215C56.7592 12.5309 57.1187 10.2131 59.4999 8.08971C60.2337 7.43177 61.297 7.1327 62.2405 6.66916C62.4501 7.0729 62.5999 7.35701 62.7646 7.64112C62.9144 7.89532 63.0941 8.14953 63.169 8.23925C62.1506 9.00187 61.0574 9.65982 60.1438 10.5122ZM57.8225 17.3159C58.781 18.3028 59.9042 19.1551 61.2221 19.4991C62.4651 19.828 63.798 19.8131 65.1458 19.9626C64.0676 21.0991 62.9444 22.2953 61.7912 23.4766C61.6714 23.5962 61.312 23.6262 61.1323 23.5514C58.5713 22.4299 55.2167 23.7009 54.9621 27.4542C54.8723 28.6953 55.681 29.7271 56.7592 30.385C58.2419 31.2822 60.1588 31.0579 61.3869 29.9663C62.6448 28.8448 63.3038 26.7065 62.4502 24.9421C62.2854 24.5981 62.3154 24.3738 62.54 24.1495C63.7231 23.028 64.9062 21.9065 66.1492 20.7402C66.1492 21.6822 66.0893 22.5346 66.1642 23.372C66.2241 24.0299 66.3439 24.7626 66.6734 25.3159C67.2575 26.3177 67.9763 27.2598 68.6952 28.172C68.9647 28.5159 69.0246 28.7252 68.77 29.0691C68.201 29.8168 67.7367 30.6392 67.1077 31.3271C65.7449 32.8075 64.0376 33.7346 62.0458 34.0336C61.312 34.1533 60.4883 34.0187 59.7395 33.8243C58.167 33.4205 56.6394 32.8523 55.3066 31.9103C53.8838 30.8934 53.18 29.3682 52.6408 27.7981C52.3114 26.8561 52.1017 25.8691 51.922 24.8822C51.7273 23.7308 52.1466 22.6692 52.6408 21.6374C53.5544 19.6935 55.037 18.3178 56.8641 17.2411C57.2684 16.972 57.4931 16.972 57.8225 17.3159ZM61.0574 24.3888C62.2255 25.3009 62.4352 26.6318 61.7013 28.0224C61.1323 29.0991 60.1588 29.6673 59.0506 29.9663C58.6313 30.071 58.0322 29.9514 57.6728 29.7121C56.8641 29.1439 56.0404 28.5159 55.9056 27.3495C56.1602 25.9888 56.8042 24.8523 58.0921 24.1944C59.0955 23.671 60.1139 23.6411 61.0574 24.3888ZM52.2664 21.0243C51.9519 21.5626 51.6075 22.0561 50.9336 22.1308C50.1997 22.2206 49.4659 22.385 48.7471 22.3551C47.9833 22.3103 47.7137 21.757 47.9533 21.0542C48.4176 19.6486 49.7355 18.6916 51.2031 18.6617C52.1766 18.6467 53.15 18.5421 53.8838 18.4972C53.4046 19.2299 52.8056 20.1121 52.2664 21.0243ZM48.8818 18.4972C48.4176 19.0804 47.9084 19.6486 47.4891 20.2766C47.0248 20.9645 46.7253 21.757 47.2495 22.5196C47.7437 23.2374 48.6123 23.2075 49.3761 23.1776C50.035 23.1477 50.6939 22.9383 51.3828 22.8037C51.3229 23.5813 51.278 24.3738 51.2181 25.1813C49.6007 25.7645 47.9084 26.1084 46.2161 25.5252C43.8649 24.7028 43.4455 23.3271 44.2093 20.815C44.6436 19.3944 45.7219 18.4224 46.7702 17.4804C47.4891 17.8243 48.1929 18.1682 48.8818 18.4972ZM44.1195 19.529C43.4755 20.5159 43.161 21.6523 43.1909 22.8635C43.2359 24.7626 44.6436 25.8692 46.5456 26.2878C48.163 26.6467 49.7654 26.4374 51.3529 25.8243C51.6374 26.7664 51.892 27.6187 52.1766 28.5308C50.6041 29.2336 49.0316 29.7121 47.2794 29.5327C45.3475 29.3383 43.5803 28.8448 41.9929 27.6635C40.2407 26.3626 39.7315 24.6131 40.001 22.5944C40.1658 21.3981 40.4953 20.2168 40.8846 19.0804C41.4986 17.3159 42.8165 16.0748 44.3291 14.9832C44.9581 15.6561 45.5721 16.329 46.1712 16.972C45.4823 17.8093 44.7185 18.6168 44.1195 19.529ZM54.8573 53.7869C54.8723 53.7869 54.8872 53.7869 54.8573 53.7869V53.7869ZM54.8273 53.8168C54.7375 55.0729 54.6476 56.299 54.5578 57.5252C54.5428 57.6747 54.5128 57.899 54.423 57.9439C53.5993 58.3327 52.7756 58.6916 51.8172 59.1102C51.7273 58.1233 51.6524 57.3009 51.5925 56.4635C51.5775 56.3289 51.6374 56.1196 51.7273 56.0448C52.7457 55.2822 53.794 54.5495 54.8273 53.8168ZM48.3128 56.9869C49.1664 56.8523 50.005 56.6579 50.8287 56.4934C51.0084 57.5551 51.1732 58.6317 51.3828 59.9028C52.536 59.4542 53.5244 59.0654 54.5727 58.6467C54.8872 59.5887 55.2167 60.5607 55.5612 61.6224C53.3896 62.4299 51.2331 63.2373 48.9417 64.0897C48.6722 62.5046 48.4176 61.0691 48.163 59.6336C48.0582 58.9906 47.9533 58.3476 47.8635 57.7046C47.8335 57.3458 47.8485 57.0616 48.3128 56.9869ZM50.05 64.3588C51.9819 63.7158 53.8838 62.9532 55.8607 62.2205C56.4148 63.2523 56.9989 64.3289 57.6129 65.4654C53.7491 66.6467 49.9601 67.7981 46.1412 68.9644C45.2576 65.1215 44.3591 61.2635 43.4455 57.271C44.7185 57.271 45.9166 57.271 47.1446 57.271C47.4741 59.2149 47.8185 61.2785 48.2079 63.3271C48.5224 65.0616 48.3727 64.9121 50.05 64.3588ZM43.3108 73.8542C41.903 68.2616 40.5252 62.7588 39.1175 57.1962C40.4353 57.1962 41.5586 57.1962 42.7267 57.1962C43.3407 59.813 43.9547 62.3701 44.5388 64.9121C44.8533 66.3028 45.1528 67.6934 45.4374 69.099C45.5422 69.6373 45.7818 69.7869 46.3209 69.6074C49.4809 68.6056 52.6408 67.6336 55.8008 66.6616C56.265 66.5121 56.7892 66.4822 57.2235 66.2729C57.9124 65.9439 58.2718 66.2579 58.5713 66.8112C58.9607 67.514 59.3501 68.2018 59.8593 69.1439C54.3182 70.714 48.8818 72.2691 43.3108 73.8542ZM69.9831 74.3775C68.4106 75.2598 66.8381 76.157 65.3405 77.0093C64.3521 75.3345 63.3188 73.5401 62.2405 71.7607C60.7129 69.2186 59.1255 66.7215 57.6578 64.1644C56.939 62.9084 56.3699 61.5626 55.8008 60.2317C54.8723 58.0486 54.9621 55.8056 55.7409 53.6373C56.265 52.157 57.1037 50.7813 57.8076 49.3308C58.4515 49.5252 59.0057 49.6897 59.5448 49.8691C59.1554 50.7215 58.7061 51.499 58.4366 52.3215C57.4182 55.3271 57.4631 58.3028 58.6912 61.2785C60.1438 64.8224 62.1357 68.0373 64.1275 71.2672C64.6666 72.1345 65.2507 72.9869 65.7449 73.8841C65.9695 74.2728 66.1343 74.3177 66.5087 74.0934C69.3541 72.5084 72.1996 70.9233 75.06 69.3532C77.2465 68.157 79.1934 66.6616 80.9007 64.8523C82.0388 63.6411 82.7427 62.2056 83.2219 60.5757C83.6263 59.2149 83.9707 57.8841 83.8509 56.3289C84.4799 56.4934 85.0041 56.613 85.4833 56.7327C85.9476 60.0224 85.4534 63.0729 83.4466 65.7345C82.2335 67.3196 80.5862 68.4411 78.8489 69.413C75.9136 71.1177 72.9334 72.7327 69.9831 74.3775ZM86.5616 74.2728C88.0442 72.4934 89.5568 70.7289 91.0694 68.9345C92.0728 69.5626 93.1061 70.2056 94.1844 70.8635C91.4588 73.7794 88.7631 76.6654 86.0075 79.6112C83.2968 76.7102 80.5862 73.8093 77.8306 70.8635C78.8639 70.2205 79.9122 69.5626 80.9606 68.9046C82.1287 70.3252 83.2818 71.7308 84.435 73.1364C84.7944 73.57 85.1539 74.0037 85.5582 74.4074C85.9326 74.7962 86.2471 74.6467 86.5616 74.2728ZM86.0075 74.0186C84.465 72.1495 82.9973 70.37 81.4997 68.5607C82.3384 67.7981 83.0722 67.1551 83.836 66.4672C84.3751 67.1401 84.9292 67.813 85.4684 68.5009C85.8427 68.9794 86.1872 68.9495 86.5466 68.4859C87.0708 67.813 87.6249 67.1401 88.164 66.4523C88.9278 67.1401 89.6766 67.813 90.5003 68.5457C89.0177 70.3401 87.565 72.1046 86.0075 74.0186ZM85.9925 68.2616C85.4084 67.4542 84.8993 66.7663 84.42 66.0486C84.3451 65.9439 84.3601 65.7345 84.405 65.6149C84.9442 64.4336 85.4983 63.2523 86.0075 62.1607C86.5167 63.3121 87.0708 64.5831 87.6698 65.9588C87.1756 66.6317 86.6215 67.3943 85.9925 68.2616ZM92.4322 78.6392C90.4853 80.6579 88.5235 82.6467 86.5916 84.6654C86.2321 85.0392 85.9176 85.1887 85.4983 84.7551C83.7161 82.9308 81.919 81.1364 80.1519 79.3121C78.1151 77.2037 76.1233 75.0654 74.0416 72.8672C75.0151 72.314 75.8837 71.8056 76.7822 71.357C76.962 71.2672 77.3513 71.357 77.5011 71.5065C80.0919 74.2579 82.6529 77.0392 85.2138 79.8205C85.9476 80.613 86.0524 80.613 86.7862 79.8205C88.5534 77.8915 90.3356 75.9925 92.1027 74.0785C92.8665 73.256 93.6453 72.4486 94.3791 71.5962C94.6786 71.2373 94.9632 71.1775 95.3525 71.4018C96.1613 71.8654 96.9849 72.3289 97.9584 72.8971C96.0714 74.856 94.2593 76.7551 92.4322 78.6392ZM110.988 69.742C109.55 72.2093 108.052 74.6317 106.63 76.9943C103.365 75.1401 99.9801 73.2261 96.5956 71.3121C94.7535 70.2654 92.8965 69.2635 91.1143 68.1271C88.164 66.2429 86.7563 63.3719 86.322 59.9775C86.2471 59.3644 86.3969 58.7215 86.4268 58.0934C86.4418 57.6747 86.2171 57.0168 86.3969 56.8972C86.8611 56.5981 87.4751 56.5233 88.0892 56.3588C88.1341 57.1065 88.1191 57.7794 88.2239 58.4523C88.7631 62.2056 90.68 65.1364 93.7651 67.2897C95.3825 68.4112 97.0598 69.4429 98.7521 70.4598C100.145 71.2971 101.583 72.0448 103.005 72.8224C103.844 73.2859 104.683 73.7345 105.551 74.1383C105.716 74.213 106.105 74.1084 106.18 73.9588C108.322 70.385 110.508 66.8261 112.5 63.1775C113.563 61.2336 114.267 59.0654 114.312 56.8074C114.327 55.8504 114.013 54.8785 113.908 53.9065C113.743 52.471 113.204 51.2 112.335 49.914C112.964 49.7196 113.504 49.5551 114.028 49.4056C115.75 51.7682 116.918 54.3102 116.813 57.3159C116.768 58.856 116.364 60.3065 115.645 61.6224C114.147 64.3588 112.575 67.0504 110.988 69.742ZM117.158 53.8168C117.667 54.2056 118.206 54.6542 118.775 55.0729C119.164 55.3719 119.569 55.656 120.003 55.8803C120.333 56.0598 120.497 56.2392 120.452 56.628C120.348 57.4056 120.273 58.1831 120.168 59.0953C119.269 58.7065 118.461 58.3476 117.652 57.9738C117.547 57.9289 117.487 57.7196 117.472 57.57C117.352 56.3289 117.248 55.0729 117.158 53.8168ZM123.612 64.1944C124.032 61.8467 124.481 59.514 124.9 57.2411C126.068 57.2411 127.252 57.2411 128.554 57.2411C127.641 61.2187 126.757 65.0766 125.859 68.9644C122.085 67.813 118.266 66.6467 114.387 65.4654C114.986 64.3439 115.555 63.2822 116.139 62.2056C117.577 62.7588 118.985 63.3121 120.422 63.8355C121.261 64.1495 122.115 64.4186 122.968 64.6728C123.373 64.7925 123.537 64.613 123.612 64.1944ZM132.883 57.1813C131.49 62.7289 130.112 68.2317 128.704 73.8242C123.148 72.2093 117.607 70.9383 112.171 69.0093C112.77 67.9775 113.309 67.0205 113.878 66.0485C114.836 66.3028 115.735 66.4971 116.589 66.7663C119.509 67.6635 122.414 68.5906 125.32 69.5028C126.353 69.8317 126.338 69.8168 126.578 68.7252C127.177 66.0635 127.806 63.4018 128.42 60.7252C128.644 59.7233 128.899 58.7215 129.124 57.7196C129.198 57.3458 129.348 57.1514 129.768 57.1514C130.741 57.1962 131.714 57.1813 132.883 57.1813ZM123.777 57.0168C123.927 57.0467 124.137 57.3607 124.122 57.4953C123.792 59.6336 123.433 61.7719 123.058 64.0897C120.767 63.2373 118.595 62.4299 116.439 61.6224C116.768 60.5607 117.083 59.6037 117.382 58.6317C118.401 59.0355 119.404 59.4243 120.602 59.9028C120.797 58.6467 120.962 57.585 121.141 56.4934C121.995 56.6579 122.894 56.8074 123.777 57.0168ZM142.527 47.4168C142.497 49.8542 142.437 52.3065 142.422 54.7439C142.422 55.3121 142.527 55.8953 142.587 56.4336C139.652 56.4336 136.716 56.4037 133.796 56.4486C132.029 56.4785 130.247 56.7177 128.48 56.643C125.874 56.5383 123.178 56.7028 120.737 55.5065C118.7 54.5046 116.978 53.114 115.945 51.0056C115.6 50.3177 115.181 49.6598 114.821 49.0467C115.211 48.613 115.6 48.1944 116.005 47.7458C116.559 48.5233 116.993 49.3458 117.607 49.9888C119.284 51.7383 121.111 53.2785 123.597 53.8467C126.218 54.4598 128.854 54.6691 131.535 54.6392C134.081 54.6093 136.627 54.5794 139.172 54.5345C139.517 54.5345 139.876 54.4747 140.221 54.4C140.341 54.3701 140.49 54.2205 140.52 54.0859C140.595 53.7869 140.61 53.4878 140.625 53.1738C140.67 49.9588 140.76 46.7289 140.73 43.514C140.7 40.957 140.401 38.4299 139.472 36.0374C138.963 34.7364 138.244 33.5701 137.121 32.6729C136.716 32.3439 136.447 31.8355 136.042 31.4916C135.369 30.9533 134.65 30.4897 133.856 29.9364C134.32 29.5327 134.725 29.1738 135.264 28.7103C136.492 29.5476 137.929 30.3402 139.158 31.3869C141.03 33.0019 142.138 35.0953 142.437 37.5925C142.692 39.686 142.797 41.7794 142.587 43.8878C142.452 45.0691 142.542 46.2504 142.527 47.4168ZM150.15 36.9495C148.877 37.2037 147.724 37.443 146.556 37.6374C145.687 37.7869 144.789 37.8766 143.92 38.0411C143.396 38.1308 143.096 38.1159 143.036 37.443C142.961 36.6654 142.707 35.8878 142.527 35.1103C143.65 34.9308 144.714 34.7514 145.912 34.557C145.672 33.8841 145.522 33.3757 145.328 32.8822C145.133 32.3888 144.893 31.8953 144.654 31.357C145.657 31.028 146.616 30.729 147.679 30.3701C148.503 32.5383 149.296 34.6766 150.15 36.9495ZM148.323 30.086C149.311 29.5476 150.405 28.9645 151.543 28.3514C152.726 32.2093 153.879 35.9925 155.047 39.8056C151.168 40.7028 147.319 41.585 143.396 42.4972C143.336 41.2112 143.261 40.0299 143.201 38.8187C145.088 38.5047 146.975 38.2056 148.862 37.8766C149.281 37.8018 149.686 37.6523 150.105 37.6074C150.764 37.5476 150.899 37.2486 150.689 36.6654C149.895 34.5121 149.132 32.3439 148.323 30.086ZM143.74 31.4018C143.86 31.4168 144.01 31.5215 144.055 31.6261C144.429 32.4187 144.774 33.2411 145.178 34.1383C144.279 34.228 143.545 34.2878 142.827 34.3626C142.392 34.4075 142.138 34.2579 141.883 33.8691C141.299 33.0018 140.625 32.1944 139.981 31.357C139.921 31.2673 139.876 31.1626 139.846 31.1177C141.149 31.2075 142.437 31.2972 143.74 31.4018ZM159.914 42.6467C154.328 44.0523 148.847 45.428 143.261 46.8187C143.261 45.6374 143.246 44.6355 143.276 43.6336C143.276 43.4542 143.516 43.1701 143.68 43.1402C147.424 42.2579 151.153 41.3906 154.912 40.5532C155.856 40.3439 155.901 40.314 155.601 39.357C154.613 36.157 153.609 32.9719 152.621 29.7719C152.471 29.2785 152.292 28.785 152.247 28.2766C152.232 28.0224 152.456 27.6635 152.681 27.514C153.415 27.0355 154.178 26.6467 155.077 26.1383C157.039 31.5514 158.297 37.099 159.914 42.6467ZM145.328 2.34767C144.414 2.18319 143.471 2.10841 142.482 1.98879C142.572 1.5701 142.647 1.0916 142.797 0.642998C142.842 0.493462 143.111 0.343934 143.276 0.32898C144.025 0.284127 144.788 0.209344 145.507 0.314019C146.72 0.493454 147.948 0.717766 149.132 1.07665C151.887 1.92898 153.654 3.97757 155.032 6.34019C156.934 9.6 158.731 12.9346 160.588 16.2243C161.427 17.7047 162.281 19.185 163.089 20.5907C161.367 21.6075 159.555 22.6692 157.758 23.7458C155.242 25.2561 152.756 26.8262 150.21 28.2916C148.278 29.4131 146.271 30.4 144.01 30.6991C142.557 30.8785 141.119 30.729 139.786 30.2056C138.289 29.6224 136.881 28.8448 135.384 28.142C135.578 27.4691 135.743 26.9458 135.908 26.3925C136.072 26.4523 136.252 26.4523 136.357 26.542C137.63 27.5439 139.202 27.7383 140.7 28.0673C142.946 28.5607 145.103 28.0972 147.23 27.2748C151.004 25.8243 154.373 23.6261 157.803 21.5476C158.537 21.099 159.255 20.6056 159.989 20.172C160.304 19.9776 160.424 19.8579 160.199 19.4692C159.24 17.7495 158.387 15.985 157.398 14.2804C156.245 12.2617 155.092 10.243 153.774 8.32898C152.636 6.66917 151.348 5.06916 149.566 4.02243C148.667 3.49907 147.649 3.18506 146.69 2.79627C146.271 2.64674 145.807 2.43739 145.328 2.34767ZM141.434 4.69533C141.928 3.69346 142.976 3.49908 143.92 3.54393C145.103 3.58879 146.271 3.88786 147.424 4.15701C148.008 4.2916 148.547 4.59066 148.967 4.75514C147.484 5.57758 145.942 6.3701 144.459 7.28225C143.516 7.85047 142.677 8.58318 141.793 9.22617C140.865 9.89907 139.816 10.1533 138.678 10.1832C137.915 10.2131 137.166 10.3178 136.402 10.3925C138.708 9.00187 140.281 7.04299 141.434 4.69533ZM145.552 7.3271C146.825 6.50467 148.113 5.68224 149.716 5.54765C150.345 5.50279 150.734 5.71214 151.108 6.13084C151.872 6.99812 152.636 7.88038 153.49 8.85234C151.063 8.91216 149.042 9.77944 146.99 10.6019C145.657 11.1252 144.294 11.4093 142.872 11.1252C142.273 11.0056 141.703 10.6916 141.089 10.4673C142.632 9.37569 144.055 8.29906 145.552 7.3271ZM142.422 12.8C142.946 13.3383 143.351 13.9963 143.74 14.6542C144.115 15.2673 143.845 15.7907 143.336 16.1794C141.913 17.2561 140.311 17.4654 138.603 17.1364C136.791 16.7776 135.384 15.671 134.006 14.5346C133.017 13.7271 132.089 12.8598 131.19 12.0673C132.972 11.7383 134.829 11.2598 136.716 11.0654C138.798 10.8411 140.85 11.1701 142.422 12.8ZM119.164 0.762613C119.224 0.598131 119.419 0.328981 119.554 0.343935C120.378 0.388796 121.186 0.493463 121.995 0.568231C123.822 0.747675 125.29 1.71964 126.682 2.81122C127.626 3.55889 128.12 4.62057 128.42 5.72711C128.719 6.8486 128.899 8.01495 129.034 9.16635C129.258 11.0953 128.51 12.7551 127.356 14.2355C126.368 15.5065 125.35 16.7477 123.837 17.4205C123.193 17.7196 122.474 17.914 121.77 18.0037C119.434 18.3028 117.307 17.6149 115.331 16.4336C115.181 16.3439 115.121 15.9701 115.136 15.7308C115.226 14.5794 115.435 13.428 115.435 12.2766C115.435 10.9906 114.836 9.88412 114.103 8.85234C113.908 8.58319 113.728 8.32897 113.459 7.94018C115.226 8.37382 116.873 8.74766 118.491 9.19625C118.685 9.25607 118.88 9.64487 118.91 9.89907C119.209 11.7981 120.318 13.0991 122.13 13.5178C124.631 14.1009 127.042 12.7851 126.982 9.68972C126.952 7.85047 125.784 6.92336 124.406 6.35513C123.028 5.78691 121.531 6.02617 120.273 6.99813C120.093 7.14767 119.838 7.26729 119.749 7.46168C119.329 8.38878 118.715 8.25421 117.921 7.97009C116.619 7.5215 115.271 7.19253 113.758 6.75888C114.133 6.5944 114.342 6.48972 114.567 6.41496C117.173 5.42804 118.341 3.24485 119.164 0.762613ZM121.695 7.08785C123.163 6.80374 125.035 7.47663 125.664 8.52336C126.308 9.59999 125.829 10.6168 125.409 11.6037C124.975 12.6355 123.987 12.6206 123.058 12.6206C121.351 12.6206 120.033 11.7234 119.659 10.3327C119.269 8.89719 120.243 7.37197 121.695 7.08785ZM104.039 1.77944C104.099 1.64486 104.188 1.46542 104.278 1.27103C104.728 0.254206 104.713 0.314021 105.836 0.598132C107.603 1.01683 109.535 3.49906 109.265 5.32336C109.071 6.63925 108.651 7.79066 107.468 8.55328C105.791 9.62991 104.188 9.77943 102.286 8.98691C102.361 8.43363 102.436 7.94019 102.511 7.44673C103.32 7.50655 104.129 7.59626 104.937 7.61122C106.09 7.64112 107.049 6.98318 107.333 6.02617C107.753 4.57571 107.483 3.58879 106.345 2.90093C105.641 2.4673 104.847 2.15328 104.039 1.77944ZM103.47 2.55701C103.544 2.49719 103.709 2.48225 103.799 2.52711C104.653 2.90093 105.566 3.18505 106.3 3.72337C107.019 4.24673 107.109 5.11402 106.689 5.9514C106.315 6.69907 105.656 7.02804 104.847 6.99813C104.263 6.98318 103.679 6.90842 103.11 6.83365C102.706 6.77384 102.481 6.57945 102.257 6.16075C101.837 5.42805 101.193 4.82991 100.624 4.18692C100.474 4.02243 100.265 3.91777 99.9352 3.69347C101.358 3.69347 102.511 3.40934 103.47 2.55701ZM95.0081 0.43365C95.068 0.343928 95.2627 0.314021 95.3825 0.314021C96.8501 0.239253 98.3627 1.42057 98.6023 2.84112C98.7371 3.66355 98.1381 4.0673 97.584 4.44113C96.6704 5.06917 95.083 4.9944 94.1994 4.3215C94.1095 4.26168 94.0047 4.17197 93.9748 4.08225C93.4656 2.70655 93.4656 2.70655 92.4622 1.74955C93.4206 1.43553 94.424 1.3458 95.0081 0.43365ZM73.4126 2.82618C73.6373 1.40561 75.1498 0.224301 76.6325 0.299069C76.7673 0.299069 76.9619 0.343937 77.0069 0.418705C77.5909 1.34581 78.5943 1.42057 79.5528 1.71963C78.8639 2.43738 78.0252 2.96074 78.0252 4.05233C78.0252 4.15701 77.8605 4.26168 77.7557 4.33644C76.4827 5.20374 74.5208 4.93458 73.6073 3.72337C73.4276 3.52897 73.3677 3.12524 73.4126 2.82618ZM69.0995 2.91589C69.9082 3.40934 70.8966 3.57383 71.8252 3.88785C70.7619 4.41121 70.0131 5.33832 69.5638 6.48972C69.5338 6.56449 69.444 6.65422 69.3691 6.68412C68.3058 6.95328 67.2275 7.25234 66.1492 6.77384C65.3855 6.44487 65.1009 5.77196 65.0859 5.00934C65.056 4.27664 65.5053 3.73832 66.1043 3.34954C66.4338 3.14019 66.8381 3.03552 67.1826 2.84112C67.8415 2.4972 68.3807 2.46729 69.0995 2.91589ZM65.8048 0.71777C67.3623 0.119641 67.3773 0.14954 67.9314 1.79439C67.1676 2.15327 66.3739 2.4673 65.67 2.90094C64.4869 3.63365 64.2173 4.63553 64.6816 6.08599C64.9961 7.043 65.9246 7.65607 67.1227 7.62616C67.9164 7.61121 68.6952 7.5215 69.4889 7.46168C69.5638 7.95514 69.6387 8.43365 69.7285 9.01683C68.7551 9.39066 67.7217 9.70466 66.6434 9.43551C65.1009 9.04672 63.768 8.37384 63.0791 6.75889C61.926 4.05235 63.8279 1.48038 65.8048 0.71777ZM42.9813 8.82243C43.161 7.49159 43.4755 6.16074 43.8948 4.87476C44.3441 3.51402 45.4224 2.66169 46.6055 1.85422C48.4026 0.642995 50.4094 0.478521 52.4461 0.328985C52.5659 0.314031 52.7906 0.568227 52.8355 0.74767C53.4495 2.54206 54.1235 4.30655 55.7409 5.45794C56.4597 5.96635 57.2834 6.32523 58.137 6.80374C56.8491 7.17757 55.5761 7.5514 54.3032 7.92523C54.1235 7.98504 53.9288 8 53.764 8.07477C53.2099 8.35888 52.8355 8.29908 52.4461 7.73085C51.1732 5.8916 47.8635 5.54767 46.0364 7.38691C44.3591 9.07664 44.8683 11.8131 46.3958 12.9047C47.8185 13.9215 49.9451 14.2056 51.6524 12.5907C52.4312 11.858 52.9853 11.0206 53.0751 9.92898C53.1201 9.40561 53.3896 9.21122 53.8988 9.10654C55.4114 8.77757 56.894 8.37384 58.4515 7.9701C57.9424 8.83738 57.4481 9.58505 57.0438 10.3776C56.3848 11.6636 56.4747 13.0542 56.6095 14.4449C56.6095 14.4897 56.6394 14.5346 56.6544 14.5794C57.0288 16.4037 57.0288 16.4037 55.3066 17.1813C53.3597 18.0486 51.3679 18.3028 49.2562 17.8393C47.6089 17.4804 46.4857 16.4037 45.4224 15.2224C44.9581 14.6991 44.5538 14.1159 44.1494 13.5477C43.131 12.142 42.7566 10.5271 42.9813 8.82243ZM52.4162 9.91403C52.3114 11.0505 51.6225 11.8131 50.634 12.2617C50.0949 12.5009 49.4809 12.5757 48.8968 12.7252C46.905 12.6206 45.677 11.1252 46.0514 9.16636C46.2311 8.2243 47.0398 7.82057 47.7736 7.43178C48.8519 6.84861 49.9901 6.78879 51.0683 7.40187C52.0268 7.94018 52.521 8.80748 52.4162 9.91403ZM37.8744 11.514C38.8778 11.6935 39.8962 11.8879 40.8697 12.0823C39.4769 13.2336 38.0841 14.4748 36.6015 15.6112C34.6396 17.1365 32.4232 17.7196 29.9821 16.9271C29.4579 16.7626 28.9787 16.4187 28.5444 16.0748C28.14 15.7607 27.9753 15.3122 28.1999 14.7589C29.0535 12.5907 30.7758 11.5738 32.9473 11.1402C34.6246 10.7963 36.2421 11.2299 37.8744 11.514ZM25.1747 10.6766C23.4525 10.0636 21.7003 9.5402 19.9631 9.00188C19.5737 8.88225 19.1244 8.89719 18.5853 8.83738C19.3191 7.95514 20.023 7.10281 20.7119 6.25047C21.5955 5.17384 22.7786 5.38319 23.7071 5.87665C25.5641 6.86356 27.3013 8.07477 29.0685 9.19626C29.6526 9.57009 30.2217 9.98878 30.8357 10.4075C28.9936 11.5439 27.1216 11.3645 25.1747 10.6766ZM28.8289 3.6187C29.6376 3.78319 30.2966 4.11216 30.6859 4.91963C31.7942 7.19253 33.3517 9.06168 35.7778 10.3327C35.4783 10.3776 35.3435 10.4075 35.2087 10.4075C34.4449 10.3327 33.6811 10.243 32.9024 10.1832C31.7193 10.0785 30.656 9.6598 29.7424 8.91215C27.6608 7.19252 25.4443 5.74206 22.8085 4.84486C24.7704 4.00748 26.6724 3.18506 28.8289 3.6187ZM14.1224 11.3495C15.2606 9.33085 16.3988 7.29719 17.6268 5.32336C19.5138 2.28785 22.4042 0.762618 25.8786 0.314025C26.867 0.179442 27.8854 0.284117 28.8888 0.314024C28.9936 0.314024 29.1434 0.448615 29.1734 0.55329C29.3081 1.04674 29.413 1.5402 29.5178 2.00374C28.6342 2.10842 27.7956 2.13833 26.9569 2.30281C23.737 2.90094 21.1462 4.48598 19.1244 7.10281C17.0727 9.74953 15.4703 12.6654 13.8528 15.5813C13.149 16.8673 12.4751 18.1832 11.7712 19.4692C11.5765 19.8131 11.6214 19.9776 11.9659 20.1869C13.4635 21.0991 14.9311 22.086 16.4437 22.9682C18.4655 24.1495 20.5022 25.3458 22.5989 26.3925C24.6206 27.3944 26.7323 28.2019 29.0386 28.2467C29.9671 28.2617 30.8956 28.0822 31.8091 27.9327C32.543 27.8131 33.2768 27.6336 33.9807 27.3794C34.6696 27.1252 35.3135 26.7364 36.0623 26.3776C36.2421 26.9757 36.3918 27.4991 36.5566 28.0374C34.9242 28.8598 33.4865 30.0112 31.5995 30.4448C29.0236 31.028 26.5975 30.7738 24.2912 29.5925C22.5839 28.7252 20.9365 27.7084 19.2742 26.7364C16.863 25.3159 14.4669 23.8654 12.0557 22.4598C10.9774 21.8168 9.85424 21.2336 8.8808 20.6804C10.618 17.6 12.3552 14.4598 14.1224 11.3495Z" fill="#C8A438"/>
</svg>
