<svg width="77" height="66" viewBox="0 0 77 66" fill="none" xmlns="http://www.w3.org/2000/svg">
<path d="M0.727852 -43.0701C3.01865 -40.7131 5.36242 -38.3959 7.65321 -36.0389C8.7655 -34.8868 9.83808 -33.6819 10.8842 -32.4769C11.149 -32.1723 11.3344 -32.1988 11.6257 -32.3577C12.4069 -32.7947 13.2014 -33.1919 13.9827 -33.6421C15.479 -34.5028 17.0812 -35.1649 18.3657 -36.3831C18.6702 -36.6745 18.8821 -36.4758 19.0013 -36.1316C19.9149 -33.6289 21.5966 -31.55 22.8943 -29.2592C22.9605 -29.14 23.2386 -29.0605 23.3842 -29.1003C25.8472 -29.8418 28.2969 -30.6231 30.7598 -31.3513C33.1035 -32.0399 35.4738 -32.649 37.8308 -33.2979C38.1751 -33.3905 38.3737 -33.3243 38.4664 -32.9403C38.718 -31.934 38.9961 -30.9409 39.2609 -29.9345C39.7376 -28.1336 40.2408 -26.3328 40.6777 -24.5054C41.1677 -22.4662 41.5914 -20.427 42.0284 -18.3746C42.1078 -18.0171 42.2932 -17.9111 42.6375 -17.9111C43.5512 -17.9244 44.4781 -17.8979 45.3917 -17.9111C47.0469 -17.9376 48.6889 -17.9509 50.3441 -18.0435C50.8738 -18.07 50.9664 -17.9376 50.9002 -17.4609C50.7943 -16.6399 50.6884 -15.8057 50.6884 -14.9847C50.6751 -13.4487 50.7546 -11.9127 50.7811 -10.3767C50.7943 -9.34382 50.7943 -9.35706 51.8007 -9.11871C54.3166 -8.52284 56.8325 -7.91373 59.3351 -7.29138C61.467 -6.76171 63.5857 -6.17908 65.7043 -5.63618C66.0486 -5.54349 66.287 -5.41107 66.1678 -5.00058C66.0089 -4.47092 65.8368 -3.92801 65.6911 -3.38511C65.1085 -1.29294 64.5391 0.812473 63.9432 2.90464C63.3209 5.04978 62.672 7.19492 61.9967 9.34006C61.8775 9.69758 61.904 9.86972 62.2218 10.0419C64.5126 11.2998 66.565 12.9815 69.0677 13.8554C69.4252 13.9879 69.4914 14.2262 69.2266 14.5308C69.1207 14.6632 69.0015 14.7691 68.9088 14.9148C67.6641 17.0467 66.4194 19.1786 65.2012 21.3237C65.1349 21.4561 65.2409 21.7872 65.3733 21.9063C66.4194 22.8862 67.5317 23.8131 68.5513 24.8062C71.0142 27.203 73.4507 29.6262 75.8871 32.0361C76.4962 32.632 76.4962 32.632 75.8606 33.2544C73.636 35.4392 71.4247 37.6506 69.1869 39.8222C67.9819 41.0007 66.7372 42.1395 65.4528 43.2385C65.082 43.5563 65.0158 43.7814 65.2674 44.1522C65.3601 44.2846 65.413 44.4435 65.5057 44.5892C66.7504 46.6416 67.6111 48.9456 69.2398 50.773C69.5047 51.0775 69.3723 51.3027 69.0147 51.4351C66.4988 52.3355 64.4199 54.0172 62.1291 55.3148C62.0099 55.3811 61.904 55.6591 61.9437 55.7915C62.6985 58.3604 63.5195 60.9028 64.261 63.4717C64.8701 65.5638 65.3998 67.6693 65.9692 69.7747C66.234 70.7413 66.234 70.7281 65.3071 70.9664C62.7647 71.6285 60.2223 72.3435 57.6799 72.9791C55.5348 73.5088 53.3632 73.9458 51.2048 74.4622C51.0327 74.5019 50.8075 74.7667 50.7943 74.9256C50.7413 76.0644 50.6884 77.2032 50.7149 78.3552C50.7413 79.8515 50.8473 81.3346 50.9135 82.8176C50.94 83.2149 50.834 83.4267 50.3706 83.3076C50.0925 83.2281 49.8012 83.1619 49.5099 83.1619C47.1794 83.1487 44.8488 83.1619 42.5183 83.1487C42.1476 83.1487 42.0681 83.3605 42.0151 83.6386C41.6709 85.2806 41.3795 86.9358 40.9691 88.5645C40.1746 91.7425 39.2874 94.9072 38.4796 98.0719C38.3605 98.5619 38.1353 98.6149 37.7249 98.4957C36.0564 98.019 34.3747 97.5555 32.7063 97.0788C29.621 96.1784 26.5357 95.2647 23.4504 94.3908C23.2783 94.3378 22.9473 94.4305 22.8678 94.5629C21.5701 96.8272 19.9149 98.8929 19.0013 101.382C18.8159 101.872 18.604 101.859 18.2332 101.541C17.7698 101.131 17.2798 100.734 16.7369 100.429C15.2009 99.555 13.6517 98.7075 12.0891 97.8733C11.2152 97.4099 11.202 97.4231 10.5531 98.2176C10.4869 98.297 10.4075 98.3633 10.3413 98.4427C8.59338 100.257 6.84547 102.071 5.08434 103.872C3.61452 105.381 2.13148 106.864 0.674903 108.387C0.489516 108.573 0.343848 108.678 0.184951 108.678L0.184951 107.791C0.423301 107.791 0.648414 107.553 1.13836 107.076C3.07163 105.143 5.01813 103.236 6.92493 101.276C8.20936 99.9523 9.41435 98.5486 10.7385 97.0921C9.86457 96.6154 9.08331 96.1784 8.28882 95.7812C8.1564 95.715 7.86508 95.7547 7.77239 95.8606C6.20988 97.529 4.66061 99.1975 3.0981 100.879C2.29037 101.753 1.4694 102.614 0.674903 103.501C0.502761 103.7 0.343848 103.806 0.184951 103.792L0.184951 103.104C2.59492 100.535 4.97842 97.9792 7.42811 95.3574C6.5012 94.7748 5.57429 94.2054 4.64738 93.636C3.62778 94.8807 2.60817 96.1122 1.60181 97.3304C1.28401 97.7144 0.966209 98.0984 0.621932 98.4559C0.476272 98.6016 0.330604 98.6811 0.198188 98.6678L0.198188 98.0455C0.60868 97.5952 1.01917 97.198 1.37669 96.761C2.17119 95.8076 2.95245 94.8278 3.7337 93.8611C4.03826 93.4904 4.23688 93.2123 3.6675 92.8283C3.09811 92.4575 2.63464 91.9146 2.11822 91.4379C1.62828 92.0603 1.13834 92.6561 0.661643 93.2653C0.502746 93.4771 0.343849 93.5698 0.198188 93.5698L0.198188 93.0534C0.727851 92.3251 1.16484 91.7027 1.60181 91.0804C1.65478 91.0009 1.68125 90.8288 1.62829 90.7493C1.13835 89.69 0.635162 88.6307 0.198188 87.7038C0.198188 87.7038 0.198188 87.7038 0.198188 87.717L0.198188 82.2482C0.833785 82.235 1.45615 82.1158 2.10498 81.9172C3.94556 81.3478 5.60077 80.4871 7.03086 79.2027C8.11668 78.2228 8.80524 76.9648 9.41435 75.6539C10.0632 74.2636 10.0235 72.7937 9.94401 71.2842C9.22897 71.2842 8.52716 71.2842 7.78563 71.2842C7.61349 71.986 7.49431 72.7143 7.2692 73.4161C6.18339 76.6868 3.99853 78.8054 0.635169 79.5867C0.489509 79.6132 0.357101 79.6396 0.211448 79.6529L0.211448 79.0173C1.19132 79.0305 2.06526 78.6333 2.89947 78.1169C5.04462 76.7795 6.51443 74.8992 6.9779 72.3435C7.0441 71.986 7.08382 71.6152 7.15002 71.1783C6.3158 70.9929 5.56104 70.8208 4.74006 70.6354C4.64737 70.9929 4.54144 71.3372 4.44875 71.6947C4.02502 73.2837 3.21728 74.6078 1.74747 75.4156C1.2178 75.7069 0.701385 75.8658 0.211448 75.8923L0.211448 75.3361C1.01918 75.3494 1.74747 74.8859 2.5552 74.0649C3.46887 73.138 3.86613 71.9198 4.11771 70.6619C4.1442 70.5294 4.02501 70.3176 3.90584 70.2381C3.41589 69.8938 2.91272 69.576 2.48899 69.298C2.14471 70.0527 1.87987 70.834 1.4429 71.5226C1.11186 72.0522 0.661659 72.317 0.224685 72.317L0.224685 71.4961C0.423309 71.4828 0.621932 71.3769 0.807319 71.1915C1.56209 70.45 1.80042 69.4966 1.78718 68.5167C1.78718 68.0797 1.33697 67.656 1.11186 67.2058C0.780822 66.5437 0.476272 65.8684 0.237922 65.3785C0.224678 65.3917 0.224685 65.4049 0.211448 65.4182L0.211448 61.3265C1.95933 61.3265 3.40266 60.4393 4.50171 59.1417C5.68021 57.7513 6.0245 56.0961 5.60077 54.282C5.50807 53.898 5.3889 53.7523 4.99165 53.7788C4.62089 53.8053 4.25013 53.7788 3.85288 53.7788C3.85288 54.4674 3.86613 55.0633 3.85288 55.6591C3.79992 57.7778 2.51547 59.2079 0.966209 59.6713C0.714622 59.7508 0.449783 59.7773 0.198188 59.7905L0.198188 59.1814C1.23103 59.1814 2.22415 58.5326 2.7803 57.513C3.42914 56.308 3.37618 54.9971 3.1908 53.6861C3.17756 53.5934 3.05838 53.4875 2.96568 53.4213C2.48899 53.1035 1.99905 52.7989 1.45614 52.4547C1.56207 53.1035 1.73422 53.7259 1.74747 54.3482C1.76071 54.9971 1.70774 55.6724 1.54884 56.2947C1.40318 56.8509 0.754348 57.2481 0.211448 57.2349L0.211448 56.6125C0.489517 56.6125 0.873519 56.2947 1.01918 56.0167C1.19132 55.6856 1.23104 55.2486 1.2178 54.8779C1.16483 53.5802 0.873519 52.3355 0.30413 51.1702C0.290885 51.1438 0.264396 51.1305 0.198188 51.1173L0.198188 48.4425C0.251159 48.4425 0.317367 48.4425 0.383575 48.4425C1.62829 48.4027 2.7803 47.211 2.83327 45.9663C2.84651 45.7412 2.91272 45.5161 2.91272 45.291C2.92596 44.8275 2.89947 44.417 2.3036 44.2581C1.33697 44.0065 0.635177 43.3974 0.211448 42.3778L0.211448 42.3911L0.211448 40.0208C0.211448 40.0208 0.211441 40.0208 0.224685 40.0208C0.423309 40.0208 0.688133 39.756 0.780822 39.5441C1.45615 38.0346 0.939735 36.6707 0.211448 35.1744L0.211448 30.1161C0.211448 30.1294 0.224685 30.1426 0.224685 30.1558C0.860283 28.6728 1.45615 27.3619 0.807319 25.892C0.701385 25.6404 0.423309 25.4551 0.224685 25.2432C0.211441 25.2564 0.211433 25.2564 0.198188 25.2697L0.198188 22.8994C0.198188 22.8994 0.198204 22.9127 0.211448 22.9127C0.648414 21.8798 1.40319 21.2972 2.39631 20.9927C2.59493 20.9264 2.83327 20.6616 2.84651 20.463C2.9392 19.4831 2.7141 18.1325 1.82691 17.4439C1.33697 17.0599 0.767578 16.8878 0.198188 16.8878L0.198189 14.213C0.277641 14.2262 0.343857 14.2262 0.423309 14.2394C0.688141 13.0609 1.00593 11.8824 1.19131 10.6907C1.27076 10.2272 1.17807 9.6711 0.992683 9.23413C0.886757 8.9693 0.489509 8.70446 0.198189 8.67798L0.198189 8.0159C0.22467 8.0159 0.237915 8.0159 0.264396 8.0159C0.833786 8.04238 1.49586 8.50584 1.58855 9.15467C1.70773 9.94917 1.66801 10.7834 1.65476 11.5911C1.64153 11.9884 1.52235 12.3989 1.45614 12.8094C1.97256 12.4783 2.51548 12.2267 2.92597 11.8427C3.16432 11.6176 3.23052 11.1674 3.27025 10.8099C3.42915 9.23413 3.20404 7.79079 1.89312 6.70498C1.35021 6.25477 0.78083 6.06939 0.211448 6.08263L0.211448 5.48676C0.939735 5.46027 1.58855 5.76483 2.18443 6.21504C3.33645 7.08899 3.86612 8.29397 3.86612 9.7373C3.86612 10.2935 3.86612 10.8496 3.86612 11.4984C4.30309 11.4984 4.77979 11.5249 5.25648 11.4852C5.37566 11.472 5.53456 11.2733 5.57429 11.1277C6.31582 8.37342 4.89897 5.67214 2.66114 4.7055C1.94609 4.40094 1.20455 3.95073 0.46302 3.92425C0.383575 3.92425 0.290893 3.92425 0.211448 3.92425L0.211448 -0.180641C0.211448 -0.1674 0.224685 -0.154163 0.224685 -0.154163C0.555725 -0.803001 0.926491 -1.67694 1.41643 -2.48468C1.74747 -3.01434 1.91961 -3.53077 1.68126 -4.10015C1.42966 -4.72251 1.13835 -5.34486 0.767586 -5.90101C0.608688 -6.12612 0.410072 -6.23205 0.211448 -6.20557L0.211448 -7.03979C0.661659 -7.03979 1.11187 -6.73523 1.49587 -6.12611C1.90636 -5.47728 2.15796 -4.72251 2.47575 -4.00746C2.96569 -4.3385 3.54831 -4.72251 4.17067 -5.133C3.77342 -7.14572 3.08485 -8.95982 0.992683 -9.87349C0.727852 -9.99266 0.476272 -10.0456 0.224686 -10.0456L0.224686 -10.6283C1.12511 -10.6547 1.87988 -10.1516 2.56844 -9.56892C3.5748 -8.72147 4.22364 -7.60918 4.47523 -6.29826C4.54144 -5.98046 4.66061 -5.66266 4.7533 -5.34486C5.57428 -5.54349 6.34229 -5.71563 7.13679 -5.90101C6.92492 -9.13196 5.26973 -11.4095 2.66114 -13.0117C1.84016 -13.5149 1.01918 -13.74 0.224686 -13.7268L0.224686 -14.3227C1.2178 -14.3359 2.13147 -13.9519 2.95245 -13.4884C4.87247 -12.3894 6.34229 -10.8004 7.12355 -8.69498C7.37514 -8.00642 7.49432 -7.25165 7.63998 -6.52336C7.70618 -6.1526 7.81211 -5.92749 8.26232 -5.95398C8.81847 -5.9937 9.37462 -5.96722 9.91753 -5.96722C10.3413 -8.77444 9.44083 -11.1182 7.71942 -13.1839C5.99802 -15.2628 3.64101 -16.2824 1.11186 -16.9048C0.833794 -16.971 0.529243 -16.9975 0.224686 -16.9842L0.224686 -22.4398C0.224686 -22.4398 0.224686 -22.4398 0.224686 -22.4265C0.648415 -23.3402 1.13835 -24.373 1.61505 -25.4059C1.66801 -25.525 1.66802 -25.7501 1.60181 -25.8561C1.19132 -26.4784 0.754341 -27.0743 0.237923 -27.7894C0.237923 -27.7894 0.237923 -27.7761 0.224686 -27.7761L0.224686 -28.3323C0.449791 -28.3323 0.661652 -28.0409 1.17807 -27.4583C1.53559 -27.0611 1.81367 -26.5844 2.10498 -26.1739C2.79355 -26.7962 3.45563 -27.3789 4.19716 -28.0542C2.873 -29.6564 1.58857 -31.2189 0.211449 -32.8874L0.211449 -33.47C0.357101 -33.47 0.502754 -33.3773 0.648407 -33.2052C1.98581 -31.6162 3.32321 -30.0272 4.6871 -28.3985C5.57428 -28.9414 6.48795 -29.5108 7.45459 -30.1066C5.01814 -32.7152 2.63465 -35.2576 0.224686 -37.853L0.224686 -38.568C0.410065 -38.568 0.595436 -38.3959 0.926475 -38.0251C2.48898 -36.3169 4.06475 -34.6353 5.6405 -32.9403C6.31582 -32.212 7.00437 -31.497 7.66645 -30.7422C7.9048 -30.4642 8.10342 -30.345 8.44771 -30.5568C9.17599 -30.9938 9.93076 -31.3911 10.8444 -31.9075C7.2692 -35.5886 3.78667 -39.1771 0.224686 -42.8583L0.224686 -43.4012C0.343857 -43.4012 0.515991 -43.282 0.727852 -43.0701ZM37.9102 -32.7285C33.0373 -31.3381 28.2042 -29.9742 23.2783 -28.5706C23.7682 -27.7099 24.1522 -27.0213 24.5362 -26.346C24.7613 -25.962 25.0262 -25.8296 25.5029 -25.9885C28.6941 -26.9949 31.8853 -27.9483 35.0765 -28.9281C35.871 -29.1665 35.9108 -29.1268 36.0829 -28.319C36.5728 -26.1342 37.076 -23.9625 37.5792 -21.7777C37.8308 -20.6919 38.0956 -19.5928 38.334 -18.507C38.4002 -18.176 38.5061 -17.9773 38.8769 -17.9906C39.7111 -18.0038 40.5321 -17.9906 41.512 -17.9906C40.5983 -22.9827 39.1417 -27.7629 37.9102 -32.7285ZM27.9658 -19.2353C28.4822 -19.4604 29.0119 -19.6987 29.5283 -19.9371C30.6406 -20.4535 30.773 -20.4005 31.0114 -19.222C31.1306 -18.6129 31.1703 -17.9906 31.2365 -17.3682C32.0177 -17.5271 32.7858 -17.6595 33.5273 -17.8582C33.6862 -17.8979 33.9113 -18.176 33.8848 -18.3084C33.5935 -20.1622 33.2492 -22.016 32.9182 -23.8698C32.9182 -23.8963 32.8652 -23.9228 32.746 -24.042C30.8922 -23.3534 28.9987 -22.6384 27.0786 -21.9233C27.3964 -20.9699 27.6613 -20.149 27.9658 -19.2353ZM27.7407 -14.9847C28.2836 -15.4085 28.7735 -16.0176 29.4091 -16.2692C30.7598 -16.8121 30.6936 -17.8052 30.5214 -18.9175C30.495 -19.1161 30.4552 -19.328 30.389 -19.6723C29.6078 -19.328 28.8662 -18.9969 28.1247 -18.6527C28.032 -18.6129 28.0055 -18.4011 27.9923 -18.2686C27.8996 -17.1828 27.8202 -16.097 27.7407 -14.9847ZM29.3827 -23.3931C30.495 -23.8036 31.6073 -24.1744 32.7195 -24.5716C33.1698 -24.7305 33.3949 -24.6114 33.4743 -24.0949C33.6332 -23.0753 33.8848 -22.069 34.0702 -21.0494C34.2423 -20.0298 34.3747 -19.0102 34.5204 -17.9376C35.6062 -17.9906 36.6788 -18.0303 37.8043 -18.0833C37.0098 -21.5261 36.2153 -24.9424 35.4208 -28.3985C32.0707 -27.3789 28.7073 -26.346 25.2778 -25.2999C25.8074 -24.3201 26.2974 -23.3931 26.827 -22.4133C27.701 -22.7443 28.5352 -23.0886 29.3827 -23.3931ZM50.172 -6.80144C50.1057 -9.58217 50.066 -12.3761 50.0528 -15.1569C50.0528 -15.8984 50.1587 -16.6399 50.2117 -17.3417C47.6163 -17.3417 45.0077 -17.3417 42.3992 -17.3417C41.5649 -17.3417 40.7307 -17.3285 39.8965 -17.3417C39.3139 -17.355 38.7445 -17.4477 38.1618 -17.4477C37.0893 -17.4609 36.0035 -17.4874 34.9309 -17.4079C34.0702 -17.3417 33.2095 -17.1564 32.362 -16.9975C30.8128 -16.7061 29.621 -15.7792 28.4293 -14.8258C27.0786 -13.74 26.549 -12.1113 25.6485 -10.8004C26.0061 -10.4164 26.3371 -10.0456 26.7079 -9.63513C27.1846 -10.3237 27.5818 -11.0387 28.1115 -11.6214C29.9653 -13.6606 32.1899 -14.9583 34.9839 -15.382C37.2349 -15.7263 39.486 -15.6998 41.7371 -15.7527C43.7895 -15.8057 45.842 -15.6203 47.8944 -15.5541C48.2387 -15.5409 48.3711 -15.4349 48.3843 -15.0907C48.3843 -14.5478 48.4638 -14.0181 48.477 -13.4752C48.5168 -11.0785 48.5962 -8.69498 48.5565 -6.29826C48.5168 -3.70291 48.3181 -1.09431 47.1529 1.27593C46.7159 2.16312 45.9611 2.90464 45.3388 3.6859C45.0475 4.05666 44.7561 4.44067 44.3986 4.74522C43.8028 5.22192 43.1539 5.63241 42.4521 6.13559C42.8626 6.49311 43.2334 6.82416 43.6439 7.16844C44.9415 6.29449 46.5438 5.69862 47.6958 4.3877C49.1788 2.69278 50.0131 0.772751 50.1455 -1.46508C50.2117 -2.53765 50.3176 -3.61021 50.3309 -4.68278C50.3706 -5.41107 50.1852 -6.09963 50.172 -6.80144ZM10.5531 -17.9509C11.2549 -18.454 11.864 -18.7983 12.3672 -19.2883C12.5658 -19.4869 12.6056 -19.9503 12.5658 -20.2814C12.3407 -21.8174 11.9038 -23.3269 11.864 -24.863C11.8111 -26.7168 12.1421 -28.5441 13.4265 -30.0404C13.453 -30.0669 13.4398 -30.1199 13.453 -30.345C12.1554 -29.4975 10.9371 -28.7427 9.77187 -27.9085C8.80524 -27.2067 8.60661 -26.1474 8.89793 -25.0483C9.18925 -23.9493 9.59972 -22.8767 9.98373 -21.8042C10.4075 -20.5727 10.9371 -19.3809 10.5531 -17.9509ZM12.4599 -24.0023C12.5394 -22.784 12.9366 -21.5658 13.3206 -20.3873C13.6119 -19.4604 14.4197 -19.1823 15.148 -19.7252C17.7698 -21.6585 19.4912 -24.1744 19.5309 -27.5113C19.5442 -29.3121 18.7497 -30.9276 17.6374 -32.3445C13.6517 -30.6628 12.1686 -28.1071 12.4599 -24.0023ZM17.3063 -20.8905C16.8164 -20.3476 16.3132 -19.8312 15.81 -19.3015C15.5055 -18.9837 15.3996 -18.6791 15.6379 -18.2422C15.9292 -17.6993 16.1411 -17.1166 16.4589 -16.3883C17.2136 -18.4408 19.0145 -19.328 20.3916 -20.6257C20.8683 -21.0759 21.3848 -21.5128 21.7952 -22.0425C22.55 -23.0224 22.4838 -24.1082 21.9674 -25.1543C21.4245 -26.2666 20.8021 -27.3391 20.1798 -28.4912C20.1268 -27.6305 20.1533 -26.8624 20.0209 -26.1342C19.6369 -24.1214 18.6702 -22.3868 17.3063 -20.8905ZM18.9086 -18.6791C17.8492 -17.8582 17.1342 -16.8121 16.7105 -15.5806C16.578 -15.1834 16.6045 -14.7199 16.5648 -14.2962C16.6178 -14.2432 16.6575 -14.1902 16.7105 -14.1373C18.8159 -15.2628 20.9478 -16.3619 23.0267 -17.5536C23.5034 -17.8184 23.8477 -18.3613 24.192 -18.8116C24.47 -19.1823 24.4038 -19.6061 24.2317 -20.043C23.8874 -20.9699 23.5828 -21.9101 23.2253 -22.9429C22.0601 -21.1024 20.4711 -19.8974 18.9086 -18.6791ZM18.2995 -14.4153C17.2401 -14.0049 16.3265 -13.3825 15.7306 -12.3364C15.3731 -11.6876 14.8699 -11.1314 14.4064 -10.4826C15.2671 -10.8401 16.0616 -11.2109 16.8959 -11.5022C18.1141 -11.9392 19.3853 -11.9921 20.6564 -11.8862C21.8614 -11.7935 22.55 -12.4291 23.1326 -13.3428C23.7682 -14.3491 24.086 -15.4482 24.2317 -16.6267C24.2847 -17.0769 24.3509 -17.5139 24.4038 -17.9773C22.6559 -16.2824 20.524 -15.2893 18.2995 -14.4153ZM22.6824 -11.0917C20.2592 -11.5419 17.8757 -11.5287 15.6246 -10.3899C13.5854 -9.34382 11.8508 -7.9667 11.1093 -5.62294C11.7184 -5.27866 12.3407 -4.92113 12.8704 -4.62982C13.6914 -5.41107 14.4064 -6.23205 15.2539 -6.88089C16.5383 -7.86076 18.0479 -8.43015 19.6633 -8.58905C20.3916 -8.65526 21.1464 -8.64202 21.8879 -8.58905C23.9139 -8.43015 25.0262 -7.05303 25.9134 -5.43755C26.6417 -4.1134 26.8535 -2.65682 26.9462 -1.187C27.0389 0.123913 26.6417 1.35538 26.165 2.56036C26.1252 2.66629 26.0723 2.78547 26.0193 2.93113C26.6549 3.31514 27.2772 3.67266 27.8864 4.04342C30.442 1.07731 30.2963 -3.7956 28.138 -6.92061C27.5156 -7.82104 26.8138 -8.68174 26.112 -9.51596C25.2248 -10.5488 23.9669 -10.8534 22.6824 -11.0917ZM4.31634 28.5006C5.17704 28.1961 5.98478 27.9577 6.83224 28.2888C6.95142 28.3285 7.13679 28.2888 7.24273 28.2093C8.3815 27.3883 9.00386 26.4482 8.58012 25.0313C8.48743 24.7003 8.05046 24.3163 7.70618 24.2104C6.48795 23.8661 5.25648 24.4487 4.63412 25.5345C4.55467 25.6802 4.51495 25.9053 4.56792 26.0642C4.84599 26.8852 4.60765 27.6532 4.31634 28.5006ZM4.55468 39.2263C4.50171 39.3852 4.58116 39.6368 4.67385 39.7957C5.36242 40.8815 6.48795 41.3847 7.70618 41.0537C8.06371 40.9477 8.48743 40.5372 8.60661 40.1797C8.97737 39.0145 8.32854 37.6506 7.24273 37.0547C7.13679 37.0017 6.9779 36.9223 6.89844 36.962C6.02451 37.3857 5.21677 37.0415 4.32957 36.7899C4.59441 37.6373 4.85923 38.3921 4.55468 39.2263ZM9.98373 87.0682C9.65269 87.9686 9.29517 88.8558 9.03034 89.7695C8.32854 92.1794 9.24221 92.8945 10.6988 93.8876C11.5595 94.4702 12.4732 94.9602 13.4663 95.3971C13.2941 95.172 13.0823 94.9734 12.9499 94.7218C12.0097 92.9342 11.6257 91.0274 11.917 89.0147C12.0891 87.8097 12.3937 86.618 12.632 85.4262C12.7115 85.029 12.6718 84.7244 12.2745 84.4861C11.7184 84.1418 11.2152 83.7048 10.5664 83.2149C10.9106 84.6582 10.4207 85.8632 9.98373 87.0682ZM13.0161 93.5301C13.5854 95.1058 14.8831 96.0725 16.2205 96.9729C16.631 97.251 17.1077 97.4231 17.5976 97.6747C18.8291 96.0195 19.6369 94.2319 19.5177 92.1794C19.4647 91.2922 19.1469 90.4051 18.8159 89.5576C18.1273 87.8494 17.015 86.4326 15.5717 85.2938C14.4329 84.4066 13.7046 84.592 13.1882 85.9294C12.2083 88.4321 12.1024 90.9877 13.0161 93.5301ZM15.8762 84.6582C16.9091 85.8764 17.9816 87.0682 18.8688 88.3791C19.7031 89.6238 20.0871 91.0936 20.1533 92.6032C20.1665 92.9474 20.0738 93.2917 20.0076 93.7817C20.193 93.5301 20.3254 93.3844 20.4049 93.2255C20.961 92.1662 21.5569 91.1201 22.0601 90.0343C22.6957 88.6837 22.1792 87.5449 21.1861 86.618C20.14 85.6381 18.988 84.7774 17.9552 83.7975C17.3593 83.2281 16.8826 82.5131 16.3529 81.851C16.1411 82.3409 15.9425 82.9103 15.6511 83.4267C15.3731 83.9564 15.5452 84.2742 15.8762 84.6582ZM23.2386 88.2202C23.649 86.9887 24.1787 85.8897 24.3641 84.7244C24.4833 83.9696 23.7947 83.3473 23.1591 82.8838C21.6231 81.7583 19.9414 80.9241 18.167 80.2355C17.6506 80.0369 17.1607 79.7721 16.578 79.494C16.5516 81.6259 17.7036 83.0163 19.2396 84.2212C20.6962 85.3468 22.1527 86.4988 23.2386 88.2202ZM19.0807 80.0369C21.0007 80.6328 22.7619 81.6524 24.3376 83.1884C24.2582 81.8245 24.0993 80.593 23.5696 79.4543C23.3842 79.057 23.1591 78.6863 22.9208 78.3155C22.3911 77.5342 21.6893 77.0708 20.6697 77.137C18.4848 77.2959 16.4059 76.8986 14.4859 75.7201C15.6909 77.5342 16.7899 79.3219 19.0807 80.0369ZM18.2862 76.4881C20.3254 76.8722 22.3381 76.5676 24.2979 75.9585C24.8011 75.7996 25.3175 75.5215 25.6883 75.164C27.5421 73.3499 29.0914 71.3239 29.568 68.7021C30.005 66.3186 29.8461 63.9881 28.3763 61.9092C28.2174 61.6841 28.085 61.4589 27.9128 61.1941C27.2508 61.5781 26.6549 61.9356 26.1385 62.2534C26.3901 63.326 26.6946 64.3456 26.8668 65.3785C27.1051 66.8085 26.827 68.2254 26.3768 69.5893C26.0061 70.7016 25.3969 71.6815 24.6025 72.5554C23.8212 73.4293 22.8148 73.7736 21.729 73.8663C18.1538 74.1841 15.2936 72.8864 13.1352 70.013C13.0955 69.96 13.0558 69.9203 12.9896 69.8409C12.3672 70.1984 11.7316 70.5427 11.0828 70.9134C12.4202 74.1709 14.9493 75.8658 18.2862 76.4881ZM31.7661 72.5819C31.9118 71.4563 32.1237 70.3573 31.6602 69.2847C31.2762 68.3843 30.8392 67.5236 30.5082 66.7953C30.2036 68.04 29.9123 69.4304 29.5018 70.781C29.3165 71.4034 28.9457 71.9993 28.5484 72.5289C27.7804 73.5618 28.0453 74.5284 28.5617 75.548C29.29 76.9913 30.5744 77.8785 31.8456 78.8849C31.4219 76.753 31.4881 74.6608 31.7661 72.5819ZM44.7164 53.1697C44.6767 54.1761 45.1137 54.8249 45.8684 55.3678C47.2985 56.4007 48.9537 56.6655 50.7678 56.8244C49.1126 55.0897 48.1592 53.0903 47.3383 51.0113C46.8616 49.8064 46.2127 48.7603 45.021 48.1114C44.4119 47.7804 43.8954 47.3037 43.4187 46.9594C43.7763 48.0452 44.253 49.1575 44.5178 50.336C44.7297 51.2497 44.7561 52.2296 44.7164 53.1697ZM43.2466 18.4635C44.9018 17.1526 46.7821 16.3051 47.4309 14.107C47.9341 12.4121 49.4039 9.69758 50.7678 8.47935C48.7551 8.57204 47.6958 8.83688 46.3054 9.61813C45.2726 10.2008 44.6502 10.9555 44.7164 12.2664C44.8356 14.4116 44.6899 15.6431 43.2466 18.4635ZM47.8547 -14.9185C45.789 -15.2231 43.8425 -15.0377 42.1476 -13.9387C40.5983 -12.9323 39.539 -11.436 38.8901 -9.70134C38.5061 -8.68174 38.228 -7.60917 38.0824 -6.52336C37.9632 -5.59645 38.4399 -5.14624 39.3933 -5.22569C41.3928 -5.37135 43.1539 -6.16584 44.7826 -7.30462C47.0867 -8.92009 47.9739 -11.1844 47.8414 -13.9254C47.8414 -14.2564 47.8547 -14.5742 47.8547 -14.9185ZM31.8721 -13.6076C30.2963 -12.4026 28.7471 -11.2771 28.1909 -9.29086C28.0188 -8.6685 28.0188 -8.11235 28.416 -7.52972C29.7005 -5.6759 30.3625 -3.61021 30.3361 -1.22673C31.4219 -3.3189 32.2958 -5.26542 31.7529 -7.67538C31.3292 -9.56893 31.4219 -11.5684 31.8721 -13.6076ZM30.2169 1.15676C29.9521 1.91153 29.674 2.6663 29.4091 3.43431C30.9584 2.86492 32.5077 2.33526 34.0172 1.72614C36.0432 0.905167 37.4335 -0.524925 37.95 -2.69654C38.0691 -3.18649 37.9897 -3.72939 37.9235 -4.24581C37.844 -4.84168 37.3938 -5.10651 36.8112 -5.14624C34.9176 -5.2919 33.4346 -4.4974 32.2428 -3.08055C31.1835 -1.84908 30.7201 -0.326298 30.2169 1.15676ZM32.1502 -8.99954C32.1899 -7.68863 32.4415 -6.37771 32.6004 -5.02707C33.9378 -5.68914 34.6793 -6.86765 35.0368 -8.25801C35.3281 -9.39679 35.4473 -10.5885 35.7121 -11.7405C35.9637 -12.8528 36.308 -13.9519 36.6258 -15.0774C35.5797 -14.8788 34.4145 -14.7596 33.3419 -14.3756C32.8917 -14.2167 32.468 -13.4884 32.3885 -12.972C32.1766 -11.6611 32.1104 -10.3237 32.1502 -8.99954ZM36.4802 -12.6939C36.2418 -11.8068 36.1094 -10.8798 35.9505 -9.95293C35.7121 -8.58905 35.5665 -7.19868 34.5336 -5.9937C35.3943 -6.05991 36.1359 -6.07315 36.8377 -6.21881C37.0628 -6.27177 37.2879 -6.68227 37.3673 -6.97358C37.9367 -9.02603 38.5723 -11.0387 39.9892 -12.6939C40.8764 -13.7268 41.79 -14.7199 43.1936 -15.0642C43.1804 -15.1304 43.1672 -15.2098 43.1539 -15.2761C41.7371 -15.1834 40.3335 -15.1039 38.9166 -14.998C37.4998 -14.892 36.8244 -13.9254 36.4802 -12.6939ZM40.8631 -4.85493C39.049 -4.31202 39.049 -4.28554 38.8769 -2.40523C38.8636 -2.23309 38.8372 -2.04771 38.8107 -1.75639C40.7969 -3.25269 43.1539 -3.02759 45.2858 -3.58373C47.0337 -4.04719 47.709 -4.76223 47.9474 -6.52336C47.9871 -6.84116 48.0136 -7.1722 48.0136 -7.50324C48.0268 -8.45664 48.0136 -9.41003 48.0136 -10.4429C46.5967 -7.23841 43.9484 -5.7686 40.8631 -4.85493ZM41.9887 -2.41847C40.7572 -2.23309 39.6846 -1.74315 38.7445 -0.948658C38.3737 -0.630859 38.1221 -0.193886 37.6851 0.349022C40.0024 0.481438 42.1343 0.653576 44.253 0.680061C45.0077 0.693302 45.7757 0.375504 46.5173 0.163639C46.9675 0.0444642 47.2191 -0.286575 47.2985 -0.776516C47.4707 -1.80936 47.709 -2.8422 47.9341 -3.95449C46.0141 -2.96138 43.9881 -2.72303 41.9887 -2.41847ZM41.4325 1.19648C40.5056 1.15676 39.5919 0.958134 38.665 0.878685C37.8176 0.799236 37.0363 1.03758 36.2815 1.43483C35.6327 1.77911 34.9176 2.04395 34.1099 2.40147C34.8647 2.48092 35.5003 2.53388 36.1226 2.62657C37.566 2.83844 38.8901 3.38134 40.0554 4.22881C40.9426 4.8644 41.843 4.83792 42.7567 4.42743C44.3721 3.71238 45.405 2.36174 46.4776 0.905167C44.7032 1.40834 43.0612 1.27593 41.4325 1.19648ZM41.5384 5.98994C39.923 4.67902 38.2148 3.56672 36.1226 3.22244C33.4611 2.78547 30.9584 3.11651 28.7736 4.95709C29.1443 5.5662 29.5018 6.18856 29.7799 6.65202C31.1703 6.37394 32.4547 5.91049 33.7391 5.89724C35.9637 5.87076 38.0691 6.46664 39.8435 7.97618C41.2868 9.20764 41.5517 10.8099 41.4987 12.5445C41.459 14.0938 40.9955 15.5768 40.1746 16.848C39.4463 17.9736 38.4399 18.927 37.4865 20.0128C37.7513 20.4762 38.0956 21.0986 38.4531 21.7209C41.9489 20.6087 44.3059 16.2522 44.1338 13.2331C44.0808 12.1738 43.9749 11.1277 43.8822 10.0683C43.7365 8.36018 42.8626 7.06251 41.5384 5.98994ZM24.6157 25.3227C24.5892 25.3491 24.6025 25.4021 24.5627 25.5478C26.0325 25.1902 27.4494 24.8724 28.8398 24.4884C29.0384 24.4355 29.2238 24.0912 29.2635 23.8396C29.5416 22.1314 30.5479 21.0059 32.1766 20.6351C33.8716 20.2511 35.7254 20.9 36.2815 22.873C37.0363 25.5478 34.5601 27.534 32.2826 27.1765C31.157 26.9911 30.3228 26.435 29.6343 25.5875C29.5283 25.4551 29.3032 25.2962 29.1708 25.3227C27.7275 25.7199 26.2841 26.1701 24.8276 26.5938C25.5823 27.0308 26.3371 27.3751 26.9992 27.8518C28.3763 28.8582 28.9589 30.3809 29.4886 31.9302C29.5416 32.0891 29.7269 32.3407 29.8196 32.3407C30.9849 32.2083 32.2031 32.195 33.3022 31.8243C36.2418 30.8312 37.8838 28.6993 38.1089 25.5875C38.1751 24.5679 38.228 23.4953 37.9765 22.5154C37.7249 21.562 37.182 20.6484 36.5993 19.8406C35.8181 18.7681 34.9176 17.7485 33.6465 17.2056C33.0241 16.9407 32.362 16.7553 31.6867 16.6627C29.6872 16.4111 27.8599 17.0202 26.1517 18.0133C26.0061 18.0927 25.8472 18.3841 25.8869 18.5297C26.5092 21.0059 26.3768 23.3099 24.6157 25.3227ZM9.32165 23.4953C10.328 22.9789 11.3344 22.7538 12.4202 22.9259C12.5526 22.9524 12.7645 22.8465 12.8439 22.7273C13.2544 22.1579 13.6914 21.6018 14.0224 20.9794C14.3667 20.3173 14.1813 19.6288 13.6384 19.1256C13.1087 18.6224 12.4732 18.437 11.8243 18.8078C11.2284 19.1388 10.6855 19.5493 10.1294 19.9466C10.0102 20.0393 9.8778 20.2379 9.90429 20.3571C10.0632 21.4561 9.85132 22.489 9.32165 23.4953ZM10.6988 23.5748C10.4472 23.6675 10.1956 23.7734 9.95725 23.8926C9.05683 24.3428 9.07006 24.3428 9.25545 25.3491C9.41434 26.1834 9.14952 26.9381 8.61986 27.7723C9.83808 27.6002 10.712 28.0637 11.4933 28.7787C11.586 28.8714 11.7713 28.9508 11.8905 28.9111C13.506 28.5271 14.5786 26.5938 14.0357 25.0578C13.7046 24.1442 12.2348 22.9921 10.6988 23.5748ZM9.13627 40.4843C9.09654 40.6167 9.176 40.8683 9.28194 40.9477C10.5134 41.8879 12.0494 42.2984 13.3603 41.1066C14.4197 40.14 14.4991 38.5245 13.4663 37.452C13.0823 37.0547 12.6056 36.7369 12.1289 36.4456C11.97 36.3529 11.5992 36.3926 11.4535 36.525C10.6723 37.2136 9.8116 37.6373 8.61986 37.5049C9.30842 38.5113 9.44083 39.4647 9.13627 40.4843ZM9.91753 44.8143C9.90428 44.9732 9.98374 45.2115 10.0897 45.3042C10.6326 45.7147 11.1755 46.1384 11.7713 46.443C12.5129 46.827 13.1087 46.6813 13.6781 46.0987C14.2078 45.5558 14.3535 44.9334 13.9827 44.2316C13.6649 43.6358 13.2412 43.0929 12.8439 42.55C12.7645 42.4308 12.5526 42.3249 12.4202 42.3513C11.2814 42.5764 10.2618 42.2454 9.25545 41.729C9.83807 42.7221 10.0367 43.7285 9.91753 44.8143ZM26.165 44.5627C26.059 45.291 25.9531 46.0193 25.8869 46.7475C25.8736 46.9064 26.0061 47.1448 26.1385 47.2242C28.2174 48.4822 30.4685 48.9854 32.8387 48.3763C33.6067 48.1776 34.3615 47.6877 34.9839 47.1713C35.7121 46.5622 36.308 45.7942 36.9039 45.0526C38.2148 43.3974 38.5326 41.4906 38.0824 39.4647C37.8705 38.5245 37.6189 37.5711 37.2747 36.6707C36.8774 35.6246 36.0035 34.989 35.103 34.3534C33.5008 33.2014 31.6867 33.0822 29.8461 32.9366C29.7402 32.9233 29.5283 33.0822 29.5018 33.1882C28.8133 35.7438 27.5156 37.7565 24.8143 38.6702C26.2444 39.0939 27.6613 39.5309 29.1046 39.9281C29.2635 39.9678 29.5548 39.809 29.674 39.6501C30.7598 38.2994 32.1634 37.8492 33.8318 38.1802C35.0898 38.4318 36.2286 39.8752 36.3742 41.1199C36.4802 42.0733 36.2021 42.8678 35.6592 43.596C34.7058 44.8672 32.3753 45.1453 31.0379 44.1787C30.0977 43.4901 29.3959 42.6559 29.29 41.4377C29.2503 40.9345 28.9589 40.7756 28.4955 40.6829C27.317 40.4445 26.165 40.1268 24.9865 39.8487C24.8673 39.8222 24.7481 39.809 24.5098 39.7692C24.8276 40.2459 25.0791 40.6299 25.3307 41.0139C26.0458 42.0997 26.3371 43.2782 26.165 44.5627ZM33.3949 53.1035C32.9447 53.13 32.4944 53.1565 32.0442 53.1035C31.6205 53.0505 31.21 52.9049 30.7466 52.799C30.7995 53.1565 30.879 53.4875 30.9054 53.8318C30.9319 54.1761 30.9054 54.5336 30.9054 54.9308C32.3885 55.487 33.8848 55.7386 35.4341 55.2354C37.076 54.6925 37.6851 53.6199 37.3276 51.7661C37.129 50.7068 36.5993 49.7931 35.8181 49.0251C35.5135 48.7205 35.1825 48.4292 34.8647 48.1247C34.2158 48.4425 33.6067 48.747 32.9579 49.0648C33.2757 49.4091 33.6465 49.7269 33.9245 50.1241C34.2026 50.5082 34.4277 50.9451 34.5734 51.3953C34.9044 52.3223 34.4012 53.0241 33.3949 53.1035ZM37.2217 49.9255C37.9632 51.0378 38.1883 52.309 37.9235 53.6199C37.6719 54.8911 35.9108 56.0166 34.2688 56.0299C33.6862 56.0299 33.0903 56.0564 32.5209 55.9769C31.9515 55.8975 31.3954 55.6989 30.8128 55.54C30.5744 56.3212 30.3493 57.0627 30.0977 57.8837C31.3292 58.5326 32.6401 58.9033 34.0172 58.8239C35.3546 58.7444 36.6788 58.5193 37.9235 57.8705C39.5125 57.023 40.7307 55.9504 40.8631 54.0172C41.0882 50.6141 39.817 47.926 37.0363 45.9001C36.4537 46.5224 35.9108 47.1051 35.3811 47.6612C36.0167 48.416 36.692 49.1178 37.2217 49.9255ZM31.7794 52.4282C32.2296 52.5209 32.7195 52.5076 33.1698 52.4414C33.8451 52.3355 34.0702 51.8985 33.8318 51.2629C33.5273 50.4552 32.9711 49.8461 32.2561 49.3826C32.0442 49.2502 31.7529 49.2105 31.4881 49.1972C30.4155 49.1178 29.3562 49.0781 28.5617 49.0383C28.9457 49.621 29.5548 50.3757 29.9653 51.21C30.3625 52.0045 31.0379 52.256 31.7794 52.4282ZM39.0358 31.4005C40.1613 32.1023 40.1481 33.1749 39.0225 33.8767C38.3472 34.2872 37.5792 34.552 36.8509 34.8831C37.1422 35.3333 37.4733 35.8762 37.8308 36.3926C37.8838 36.4721 38.0427 36.5648 38.1354 36.5383C39.7773 36.2072 41.3001 35.6378 42.2932 34.1813C43.2863 32.7115 43.048 31.7845 41.6709 30.328C40.7439 29.3481 39.4728 28.9641 38.1751 28.6993C38.0691 28.6728 37.897 28.7655 37.8308 28.8582C37.4865 29.3746 37.1555 29.891 36.8642 30.3545C37.6057 30.712 38.3605 30.9901 39.0358 31.4005ZM36.0829 31.0695C35.6857 31.0695 35.2884 31.4668 34.8912 31.6786C34.1894 32.0361 33.4743 32.3672 32.9711 32.6188C33.8186 33.069 34.8382 33.6384 35.8975 34.1548C36.1226 34.2607 36.4802 34.2342 36.7317 34.1283C37.4335 33.8502 38.1354 33.5589 38.7577 33.1617C39.155 32.9101 39.1285 32.4599 38.7842 32.0891C38.0559 31.3078 37.076 31.0827 36.0829 31.0695ZM39.8568 28.5933C41.512 29.2157 42.7831 30.2353 43.3525 31.9832C43.7365 33.1749 43.1407 34.1151 42.4389 34.936C41.5649 35.9821 40.4262 36.6575 39.0623 36.909C38.7577 36.962 38.4664 37.0812 38.1751 37.1606C38.3207 37.8492 38.4929 38.4848 38.5988 39.1336C38.6518 39.4647 38.771 39.5441 39.0888 39.5044C40.7439 39.3323 42.2005 38.7629 43.5114 37.7168C45.0607 36.4721 46.173 34.9758 46.5305 33.0028C46.61 32.579 46.5305 32.0891 46.3849 31.6786C45.2991 28.3682 42.9288 26.5144 39.6052 25.7861C39.3271 25.7199 39.0358 25.7729 38.6915 25.7729C38.5194 26.5012 38.3472 27.2692 38.1618 28.1034C38.7312 28.2623 39.3139 28.3815 39.8568 28.5933ZM21.8614 31.096C22.5103 31.0827 23.1856 31.1357 23.808 31.2814C24.3906 31.4138 24.8408 32.1288 24.8011 32.6585C24.7613 33.3206 24.3641 33.7708 23.7682 34.0224C22.934 34.3667 22.0601 34.274 21.1994 34.0886C20.8154 34.0091 20.4314 33.9562 20.0076 33.8767C20.3519 34.4329 20.6697 34.936 20.9875 35.4392C21.0405 35.5187 21.1332 35.6246 21.2126 35.6246C22.7354 35.7968 24.2317 35.8894 25.5558 34.8566C27.4097 33.4 26.9992 31.0563 24.9467 29.9969C23.7682 29.3878 22.497 29.454 21.2391 29.6527C21.1332 29.6659 21.014 29.8116 20.9478 29.9307C20.6432 30.3942 20.3387 30.8709 20.0076 31.3873C20.6432 31.2814 21.2523 31.1092 21.8614 31.096ZM19.7693 32.1023C19.372 32.2083 19.0013 32.4202 18.4848 32.632C20.1003 33.3735 21.6231 33.8238 23.2915 33.5589C23.7947 33.4795 24.1655 33.2279 24.192 32.685C24.2184 32.1023 23.8212 31.8375 23.3048 31.7183C22.0865 31.4403 20.9345 31.7978 19.7693 32.1023ZM21.3318 29.0568C22.2455 29.0568 23.1062 28.9773 23.9404 29.07C25.4367 29.2289 26.88 30.5398 27.2508 31.8375C27.7407 33.6119 26.4033 35.3068 25.0129 35.9027C23.9933 36.3397 22.9208 36.3926 21.835 36.2337C21.7025 36.2072 21.5569 36.2337 21.3847 36.2337C21.3583 36.3529 21.345 36.3926 21.345 36.4323C21.2788 38.0611 21.3583 38.1538 23.0135 38.167C25.3572 38.1935 27.1051 37.2004 28.138 35.0817C28.4822 34.3667 28.9324 33.5854 28.9192 32.8306C28.8795 30.7649 27.8864 29.123 26.1517 27.9445C24.7878 27.0176 23.2915 26.9116 21.729 27.2824C21.5834 27.3221 21.3583 27.5075 21.345 27.6399C21.2921 28.0901 21.3318 28.5404 21.3318 29.0568ZM31.5013 43.5298C31.978 43.7152 32.4944 43.7814 32.9976 43.9006C34.7455 43.8079 35.8843 42.3911 35.487 40.6961C35.3017 39.8884 34.5998 39.5706 33.9775 39.2131C32.6931 38.4848 30.7465 38.7099 30.0315 40.3916C29.5548 41.5039 30.1904 43.0002 31.5013 43.5298ZM23.6623 39.8619C22.9737 39.2793 22.0468 38.9747 21.1994 38.551C20.8286 39.1733 20.5638 39.6236 20.3651 39.9546C21.2788 40.6299 22.2587 41.2126 23.0664 41.9938C24.4568 43.3445 24.4435 45.8736 23.0797 46.9726C21.8482 47.979 20.4181 48.1247 18.9615 47.595C18.1538 47.3037 17.4255 46.8138 16.6575 46.4033C16.4059 46.827 16.1411 47.2772 15.8762 47.7407C17.7963 50.0712 21.2126 50.2168 23.2253 48.7073C24.0993 48.0585 25.0659 47.542 25.3572 46.39C26.0061 43.9006 25.7015 41.6098 23.6623 39.8619ZM21.5039 44.8937C21.1464 45.569 20.4843 45.8339 19.425 45.4631C18.7232 45.2248 18.1273 44.6819 17.4917 44.2449C17.2534 44.086 17.0547 43.8741 16.8164 43.6887C16.4986 44.907 16.8429 45.7809 17.836 46.39C18.9218 47.0653 20.0473 47.4891 21.3715 47.1845C23.8212 46.6151 23.9536 43.9933 22.8148 42.5367C22.0733 41.5833 21.0537 41.0404 19.9679 40.6034C19.862 40.5637 19.7163 40.5505 19.6236 40.5902C19.094 40.855 18.5643 41.1463 18.0876 41.3979C19.0277 41.8614 19.9944 42.2719 20.8948 42.828C21.6628 43.3047 21.8614 44.2316 21.5039 44.8937ZM19.0277 44.6819C19.2926 44.8408 19.5839 44.9732 19.8884 45.0261C20.3387 45.1056 20.8683 45.0659 20.9875 44.5627C21.0669 44.2316 20.9478 43.702 20.7094 43.4636C19.7825 42.5235 18.5113 42.2586 17.2931 41.9276C16.9356 41.8349 16.5516 41.8349 16.0749 41.7952C16.8826 43.0664 17.8757 43.9536 19.0277 44.6819ZM19.1337 40.2327C20.3519 39.4779 21.014 37.8227 20.6829 36.4456C20.193 34.4064 18.8026 33.2411 16.631 32.9233C16.4589 33.3603 16.3 33.784 16.1278 34.221C16.7634 34.5256 17.452 34.7904 18.0611 35.1612C19.1866 35.8365 19.425 36.631 19.041 37.9949C18.8026 38.8423 17.7301 39.5309 16.8031 39.4249C16.1543 39.3455 15.4922 39.3058 14.7904 39.2396C14.7242 39.6633 14.658 40.1003 14.5786 40.5902C16.1676 41.345 17.6639 41.1463 19.1337 40.2327ZM15.9954 38.7761C16.3265 38.7761 16.6575 38.8291 16.9885 38.8158C17.8492 38.8026 18.3921 38.3391 18.6437 37.4255C18.8159 36.8163 18.4451 35.9821 17.8095 35.6378C17.3328 35.3863 16.8296 35.1876 16.3397 34.9758C16.0087 34.8434 15.7306 34.9228 15.3731 35.0949C14.5256 35.5054 13.6119 35.7703 12.8836 36.0483C13.3074 36.525 13.9959 37.0812 14.3667 37.7962C14.7507 38.5378 15.2539 38.7761 15.9954 38.7761ZM15.9557 32.4731C15.8895 30.7914 13.6914 29.3613 12.1554 30.0234C11.9965 30.0896 11.864 30.3412 11.7978 30.5266C11.4271 31.5859 10.9636 32.1288 9.91753 32.6452C10.9239 33.0955 11.5462 33.7973 11.7978 34.7771C11.8905 35.1744 12.1156 35.2936 12.4732 35.3465C14.327 35.6511 16.0351 34.2607 15.9557 32.4731ZM11.1358 35.9821C11.2947 35.7835 11.3609 35.426 11.3211 35.1612C11.149 33.9032 9.73214 32.8042 8.44771 32.9101C8.35502 32.9233 8.20936 32.9366 8.16964 32.9895C7.65321 33.8238 6.7263 33.89 5.91856 34.1813C6.47472 34.7904 7.24273 35.2538 7.24273 36.2072C7.24273 36.2999 7.37514 36.4059 7.46783 36.4721C8.58012 37.2533 10.2618 37.0415 11.1358 35.9821ZM7.08382 33.1749C7.29568 33.0822 7.54727 32.8042 7.54727 32.632C7.54727 32.4466 7.28244 32.1818 7.08382 32.0759C5.57428 31.3741 4.19716 31.9434 2.68761 32.6188C4.2104 33.3471 5.57428 33.89 7.08382 33.1749ZM8.1564 32.2877C8.18288 32.3275 8.26232 32.3539 8.31529 32.3672C9.50703 32.685 11.3476 31.149 11.3344 29.9175C11.3211 29.1097 9.7189 28.1034 8.84496 28.3285C8.46095 28.4344 8.09019 28.5404 7.71942 28.6595C7.41486 28.7655 7.30894 28.9906 7.17652 29.3084C6.91169 29.891 6.44823 30.3809 6.06422 30.9106C6.0245 30.9768 5.91857 30.9901 5.77291 31.0695C6.73955 31.3476 7.63998 31.4535 8.1564 32.2877ZM13.0293 28.9773C12.9234 29.0965 12.7777 29.1627 12.5394 29.3481C13.7841 29.3084 14.7639 29.6394 15.6114 30.328C15.7041 30.4074 15.9027 30.4207 16.0219 30.3809C16.7105 30.0896 17.4388 29.8645 18.0479 29.454C18.7232 29.0038 18.8291 28.249 18.5246 27.4545C18.2994 26.8322 17.6771 26.4217 16.8959 26.4349C16.4192 26.4349 15.9425 26.4747 15.4658 26.5409C15.0553 26.6071 14.7904 26.7792 14.5521 27.2162C14.1681 27.8783 13.5457 28.4079 13.0293 28.9773ZM14.7904 26.0245C15.5055 25.9715 16.2205 25.892 16.9488 25.8788C17.9419 25.8523 18.7761 26.4217 19.041 27.2427C19.4515 28.5139 19.2264 29.4011 18.22 30.0234C17.5712 30.4207 16.8561 30.712 16.1543 31.0563C16.3132 31.4668 16.4721 31.9037 16.631 32.3275C18.8821 32.0759 20.0738 30.8709 20.63 29.1097C21.0802 27.6664 20.6697 26.2231 19.425 25.2564C17.9684 24.1177 16.3397 23.8264 14.5918 24.6738C14.658 25.1637 14.7242 25.5875 14.7904 26.0245ZM20.9345 22.4095C20.0341 22.9789 19.0277 23.3894 18.1008 23.8661C18.5643 24.1177 19.0807 24.3957 19.6236 24.6738C19.7031 24.7135 19.8222 24.74 19.9017 24.7003C21.0934 24.2236 22.1792 23.6145 22.9737 22.5552C23.5299 21.8136 23.7153 20.0128 23.0929 19.1918C22.4441 18.3311 21.0669 17.7749 19.862 18.0265C18.7761 18.2516 17.8625 18.8078 17.015 19.5096C16.9356 19.5758 16.8429 19.7082 16.8429 19.8009C16.8032 20.3835 16.7767 20.9529 16.7369 21.6547C17.2004 21.2707 17.5844 20.9132 18.0214 20.6087C18.4584 20.3041 18.9218 20.0128 19.4118 19.8009C20.2592 19.4301 21.0934 19.6685 21.4907 20.3438C21.8614 21.0059 21.6893 21.9328 20.9345 22.4095ZM20.5902 21.9461C21.014 21.6415 21.292 21.178 20.9743 20.6484C20.6697 20.1187 20.14 20.1452 19.6501 20.3306C18.1538 20.9132 17.1077 22.0255 16.2338 23.3629C17.8492 23.3364 19.3058 22.8862 20.5902 21.9461ZM17.7433 18.2516C19.2131 17.3909 20.7227 17.0467 22.3646 17.8412C23.8874 18.5827 24.3376 19.9731 23.9801 21.5488C23.5828 23.2834 22.3249 24.2104 20.8286 24.9122C20.6962 24.9784 20.5638 25.0313 20.4314 25.0975C20.3784 25.124 20.3387 25.1638 20.2989 25.1902C20.577 25.6669 20.8551 26.1171 21.1199 26.5938C24.2052 26.0245 25.7015 23.2702 25.6353 21.2707C25.6088 20.5689 25.5558 19.8671 25.4367 19.1786C25.3175 18.49 25.0129 17.8544 24.4171 17.4571C23.5961 16.901 22.8016 16.2257 21.8879 15.9079C19.9282 15.2326 18.0479 15.5239 16.4456 16.9805C16.247 17.1658 16.0484 17.338 15.863 17.5101C16.1411 17.9868 16.4059 18.437 16.6972 18.9402C17.0415 18.7151 17.3858 18.4635 17.7433 18.2516ZM29.8594 24.1839C29.8726 25.0181 30.5744 25.9715 31.4086 26.2496C32.6533 26.6733 34.335 26.2231 35.156 25.2035C35.3281 24.9916 35.5135 24.6606 35.4738 24.4222C35.3546 23.6542 35.2222 22.8597 34.9044 22.1712C34.5336 21.3767 33.6729 21.4826 33.0241 21.4561C31.1306 21.4694 29.8461 22.6081 29.8594 24.1839ZM34.5734 13.9481C34.2688 14.6235 33.7524 15.2193 33.3154 15.8284C33.2227 15.9608 33.0506 16.0271 32.8784 16.1462C33.5538 16.5038 34.1232 16.8083 34.6925 17.0864C34.7852 17.1261 34.9839 17.0996 35.0633 17.0334C35.9505 16.1595 36.798 15.259 37.2482 14.0541C37.9632 12.1208 37.0098 10.2935 34.9574 9.89621C33.5802 9.63137 32.2296 9.81676 30.9717 10.3464C30.9187 11.0615 30.8657 11.7633 30.8128 12.4518C31.3689 12.3327 31.925 12.1738 32.4812 12.1208C32.8784 12.0811 33.3154 12.1208 33.7127 12.2267C34.5469 12.4518 34.9441 13.1404 34.5734 13.9481ZM31.6205 16.0933C31.9118 16.0668 32.2561 15.9609 32.468 15.7755C32.8917 15.3915 33.3287 14.9677 33.6067 14.4646C33.8054 14.107 33.9643 13.4714 33.7789 13.2198C33.5538 12.9153 32.9446 12.7431 32.5209 12.7564C31.9383 12.7696 31.2762 12.8888 30.7995 13.2066C30.3228 13.5244 30.0315 14.1335 29.6872 14.6367C29.2767 15.2061 28.8927 15.7887 28.5882 16.2389C29.4754 16.1992 30.5479 16.1727 31.6205 16.0933ZM30.8128 9.7373C31.1703 9.64462 31.541 9.53868 31.9118 9.44599C33.2492 9.10171 34.5998 9.08847 35.8843 9.60489C38.0294 10.4788 38.4532 12.0943 37.6454 14.4381C37.4335 15.0604 37.076 15.6431 36.6788 16.1727C36.2948 16.6759 35.7651 17.0731 35.2884 17.5234C35.8975 18.1854 36.4404 18.7681 37.0098 19.3772C39.3403 17.8279 40.5321 15.6298 40.8499 12.9153C40.9161 12.3062 40.8896 11.6838 40.8366 11.0747C40.6645 9.22088 39.433 8.20128 37.897 7.42003C36.2948 6.61229 34.5866 6.29449 32.8255 6.53284C31.8986 6.65201 30.9981 7.02278 30.0712 7.27437C30.3493 8.1748 30.5744 8.91633 30.8128 9.7373ZM40.1083 21.9196C41.3133 22.1579 42.5448 22.383 43.7763 22.6346C45.3653 22.9657 46.9278 23.0054 48.477 22.383C49.5761 21.9328 50.4368 21.2045 51.0327 20.1982C51.655 19.1256 51.4696 18.49 50.3441 17.9338C48.8875 17.2056 47.3647 17.1394 45.8287 17.722C44.2132 18.3311 42.9818 19.4964 41.7238 20.5954C41.1677 21.0589 40.6115 21.5091 40.1083 21.9196ZM50.4633 9.65786C49.5496 11.1674 48.7551 12.7299 47.9341 14.2924C47.6163 14.8883 47.378 15.5371 47.0867 16.2257C48.967 16.2654 50.2911 15.3253 51.4432 14.0011C52.5687 12.7034 53.7604 11.4455 54.9257 10.1875C55.1243 9.97565 55.3891 9.84324 55.7202 9.60489C54.8198 9.27385 53.9855 8.92957 53.1381 8.66474C51.9331 8.30721 51.1386 8.5588 50.4633 9.65786ZM54.065 11.7765C53.1646 12.7431 52.3568 13.8157 51.4432 14.7824C50.8605 15.4047 50.1455 15.8946 49.4701 16.464C50.0528 16.7289 50.7149 17.0864 51.4299 17.3115C51.6285 17.3777 51.9861 17.1129 52.2244 16.9407C53.3632 16.0138 54.4358 14.9942 55.6407 14.1468C56.9781 13.2066 58.5671 12.7961 60.1958 12.6505C60.5269 12.624 60.8844 12.7431 61.2287 12.7961C61.2552 12.7431 61.2817 12.6902 61.3081 12.6372C60.1561 12.0413 59.0173 11.4057 57.8521 10.8496C56.2498 10.0551 55.1376 10.6112 54.065 11.7765ZM60.3018 13.2596C59.216 13.2198 58.0639 13.6303 57.0179 14.0541C55.2964 14.7426 53.8664 15.8946 52.7541 17.3909C52.0258 18.3708 52.2376 19.1388 53.3764 19.589C55.7467 20.5292 58.1566 20.6881 60.6196 19.973C62.4337 19.4434 63.5327 18.0795 64.5391 16.6097C64.8172 16.1992 64.9893 15.7225 65.2409 15.2458C63.7578 14.0276 62.0894 13.339 60.3018 13.2596ZM62.0894 19.9598C59.6794 21.1648 57.1503 21.2178 54.5814 20.5954C54.0253 20.463 53.4691 20.2511 52.8997 20.1717C52.6481 20.132 52.2774 20.2246 52.1185 20.3968C51.655 20.9397 51.271 21.5488 50.7811 22.2506C52.0787 21.9063 53.1513 22.3036 54.2239 22.6876C55.2965 23.0716 56.3558 23.5086 57.4548 23.8264C59.2292 24.3295 60.2753 23.9191 61.2684 22.3698C61.8775 21.4164 62.4469 20.4365 62.9368 19.3772C62.672 19.5626 62.4072 19.8009 62.0894 19.9598ZM53.2043 22.9524C51.7345 22.489 50.3706 22.6214 48.914 23.4423C50.6619 24.6076 52.3171 25.7067 53.9723 26.8057C54.7933 27.3486 55.7202 27.6929 56.7001 27.7326C57.0443 27.7459 57.4813 27.4678 57.7461 27.203C58.4612 26.4747 59.11 25.6669 59.878 24.793C57.3886 24.7533 55.3627 23.6277 53.2043 22.9524ZM49.8939 24.7135C48.9802 23.972 47.9209 23.6145 46.7159 23.6145C46.0538 23.6145 45.405 23.4953 44.584 23.4026C44.8091 23.5748 44.915 23.6542 45.021 23.7204C46.7291 24.7135 48.0401 26.0907 48.861 27.865C49.4172 29.07 50.3309 29.4805 51.5226 29.5202C53.1248 29.5864 54.5682 28.9773 56.0909 28.3153C53.6942 27.534 51.7477 26.2231 49.8939 24.7135ZM49.6423 31.4138C49.1656 29.3216 48.2519 27.4016 46.7689 25.8391C45.3785 24.356 43.6439 23.3629 41.6311 22.9789C40.7307 22.8068 39.8038 22.8597 38.8107 22.8068C38.8107 23.5748 38.7842 24.2104 38.8372 24.846C38.8504 24.9784 39.1285 25.177 39.3006 25.2035C42.3991 25.5213 44.6105 27.2162 46.226 29.7453C47.4707 31.6786 47.4309 33.6913 46.173 35.6114C44.6767 37.9154 42.6375 39.4779 39.8832 39.9943C38.7974 40.193 38.7974 40.2194 38.7974 41.3317C38.7974 41.6628 38.7974 41.9938 38.7974 42.3513C41.6576 42.7486 44.0014 41.8217 46.0671 40.0738C48.093 38.3656 49.1259 36.0616 49.7085 33.5589C49.8806 32.8836 49.8012 32.1023 49.6423 31.4138ZM40.1216 43.3577C41.3663 44.3905 42.5845 45.4896 43.8822 46.4695C45.7493 47.8863 47.815 48.416 50.066 47.4626C51.7609 46.7475 51.7742 45.7412 50.4103 44.2714C48.583 42.2719 46.2392 42.1792 43.7895 42.6294C42.5713 42.8678 41.3398 43.1194 40.1216 43.3577ZM49.1656 36.9223C48.1328 38.935 46.7821 40.6167 44.6237 41.7819C46.994 41.8084 49.0332 41.4774 50.8076 39.8884C52.3039 38.5642 54.065 37.5446 56.1307 36.9753C54.1444 36.1543 52.2641 35.2671 50.1322 36.0616C49.7615 36.194 49.3642 36.5515 49.1656 36.9223ZM55.1905 37.8757C53.575 38.8026 52.0258 39.8487 50.4633 40.855C49.9733 41.1728 49.4966 41.5039 48.967 41.8614C50.7281 42.9207 52.4363 42.6559 54.1709 42.0203C55.6275 41.4906 57.1238 41.0404 58.6068 40.6034C58.9511 40.4975 59.3351 40.5372 59.8913 40.4975C59.0041 39.5176 58.2891 38.5245 57.3621 37.7565C56.7663 37.2401 55.8394 37.5049 55.1905 37.8757ZM57.8388 41.3715C56.7795 41.6363 55.7599 42.0865 54.7138 42.3911C53.7339 42.6824 52.7276 42.934 51.7212 43.1458C51.4564 43.1988 51.1518 43.0929 50.8076 43.0531C51.271 43.702 51.6683 44.2846 52.092 44.8408C52.3833 45.2248 52.7673 45.1453 53.1646 45.0261C54.7403 44.5759 56.3293 44.1919 57.9845 44.2846C59.3749 44.3508 60.752 44.5759 61.9967 45.2512C62.3145 45.4234 62.6058 45.6617 63.0295 45.8206C62.5793 45.0659 62.1556 44.2979 61.6921 43.5563C61.3876 43.0664 61.0433 42.5897 60.6725 42.1527C59.931 41.239 58.8982 41.1066 57.8388 41.3715ZM58.6995 44.9202C56.8325 44.7613 55.0581 45.0394 53.3499 45.7015C52.2376 46.1384 51.9993 46.9329 52.7408 47.8598C54.5682 50.1639 56.8722 51.7396 59.878 51.9647C61.8775 52.1104 63.6254 51.2629 65.2409 50.0579C63.9167 47.1978 62.0364 45.185 58.6995 44.9202ZM54.7403 50.5611C53.8531 49.9123 53.0719 49.131 52.2641 48.3763C51.8536 47.9922 51.5094 47.8069 50.9532 48.1379C50.4633 48.4292 49.9071 48.6146 49.3113 48.8794C49.7615 49.1443 50.2382 49.3297 50.5692 49.6475C51.3505 50.4155 52.0523 51.2629 52.7938 52.0707C53.4161 52.7592 54.012 53.5008 54.7138 54.0966C55.3627 54.6395 56.1439 54.9971 57.0708 54.719C58.6068 54.2423 59.931 53.3816 61.4141 52.4944C58.779 52.8519 56.6736 51.9647 54.7403 50.5611ZM50.9797 50.7862C49.9469 49.6607 48.6757 48.9986 47.0734 49.0516C48.1328 51.3291 48.967 53.7126 50.503 55.7253C51.271 56.7185 51.9596 56.9436 53.191 56.5993C53.3897 56.5463 53.5883 56.4934 53.7869 56.4139C54.4093 56.1756 55.0184 55.9372 55.7202 55.6591C53.7207 54.3747 52.4892 52.4414 50.9797 50.7862ZM43.5909 48.8927C42.558 46.496 41.1147 44.47 38.4664 43.5563C38.1221 44.1654 37.7778 44.7745 37.4468 45.3572C38.1618 46.059 38.9696 46.7078 39.5919 47.5023C40.6777 48.8794 41.2736 50.4949 41.4458 52.256C41.512 52.9578 41.4987 53.6729 41.4193 54.3615C41.1544 56.692 39.5125 57.8705 37.5527 58.6517C34.9971 59.6846 32.4282 59.6713 29.8991 58.4399C29.5151 59.0755 29.1708 59.6846 28.7868 60.3202C30.005 61.3133 31.3557 61.9754 32.9314 62.1343C34.7985 62.3196 36.6258 62.174 38.3472 61.3663C40.0554 60.5585 41.5649 59.4595 42.8096 58.0426C43.8028 56.9038 43.9617 55.4208 44.1073 54.0172C44.2794 52.2825 44.2927 50.5214 43.5909 48.8927ZM42.1608 60.638C41.5517 60.4526 40.9691 60.4658 40.3864 60.8631C39.0755 61.7635 37.6454 62.4256 36.0564 62.6639C35.4606 62.7566 34.8514 62.7963 34.1761 62.8626C36.2286 63.9351 38.1751 64.7429 40.5586 64.2C42.4389 63.7762 44.4251 63.8292 46.4511 64.3589C45.2593 62.7169 44.1073 61.2206 42.1608 60.638ZM45.6831 64.7826C44.2794 64.6502 42.8758 64.6237 41.459 64.6634C40.2672 64.7031 39.0755 64.9018 37.8573 65.0342C38.5061 66.3716 39.6581 67.1131 41.0353 67.4574C42.5183 67.8282 44.0411 68.0135 45.5242 68.3446C46.3187 68.53 47.0867 68.8478 47.9209 69.1258C47.6958 68.0135 47.5369 66.8615 47.2323 65.7625C47.0469 65.0739 46.2789 64.8356 45.6831 64.7826ZM47.8017 71.0856C47.6296 69.7879 46.61 69.1788 45.4315 68.9007C44.4119 68.6624 43.3525 68.5432 42.3197 68.3446C41.128 68.1062 39.9097 67.9341 38.8372 66.9674C38.9034 67.8546 38.8769 68.5432 39.0358 69.192C39.102 69.4569 39.5257 69.7482 39.8435 69.8276C41.8827 70.3838 43.869 71.0326 45.5109 72.423C46.557 73.3102 47.5501 74.2503 47.9209 75.6672C47.9871 75.6539 48.0401 75.6407 48.1063 75.6274C48.0003 74.1179 47.9871 72.5819 47.8017 71.0856ZM46.1333 73.7604C44.7297 72.2641 42.9685 71.2842 40.9691 70.781C40.4129 70.6354 39.8303 70.5294 39.2609 70.503C38.4664 70.4765 37.9765 70.9134 38.0824 71.6947C38.2413 72.807 38.4929 73.9325 38.8901 74.9918C39.5919 76.8324 40.7175 78.4347 42.4654 79.4145C43.6836 80.1031 45.0739 80.4077 46.5173 80.3017C46.9278 80.2752 47.3383 80.3017 47.8017 80.3017C48.0003 77.8653 47.8414 75.5877 46.1333 73.7604ZM43.0877 80.3017C41.2074 79.7191 40.0951 78.2625 39.102 76.7C38.2148 75.3229 37.7778 73.7604 37.3806 72.1846C37.2614 71.7079 36.9966 71.4431 36.4669 71.4431C35.871 71.4299 35.2752 71.3372 34.5469 71.2577C35.9505 72.9924 35.7916 75.0581 36.255 76.9516C36.361 77.3886 36.4272 77.852 36.5728 78.2758C37.0231 79.6529 38.0559 80.315 39.4198 80.3944C40.6645 80.4739 41.9092 80.4077 43.1539 80.4077C43.1407 80.3944 43.1274 80.315 43.0877 80.3017ZM35.2487 74.4225C35.0633 73.2572 34.6396 72.2244 33.898 71.3239C33.5538 70.9134 33.0771 70.6089 32.6136 70.2116C32.4812 71.3107 32.2958 72.2773 32.2561 73.2572C32.2031 74.7403 32.1899 76.2366 32.2693 77.7329C32.2958 78.2625 32.5739 78.8054 32.852 79.2821C33.2227 79.9177 33.9643 79.8383 34.5734 79.9839C35.2884 80.1561 36.0299 80.2223 36.798 80.3415C35.7783 78.4744 35.5532 76.4352 35.2487 74.4225ZM36.7582 70.397C37.5262 70.344 37.9235 69.9601 37.9632 69.1788C38.0559 67.3382 37.3144 65.8816 35.9372 64.7164C34.6396 63.6041 33.0373 63.1406 31.4748 62.5977C30.773 62.3594 30.0712 62.0813 29.29 61.8032C30.0845 63.7497 30.7201 65.736 31.6867 67.5501C32.7328 69.4701 34.4542 70.5294 36.7582 70.397ZM19.1734 73.2042C20.0738 73.3764 21.0272 73.3102 21.9409 73.2307C23.7153 73.0851 24.6289 71.8271 25.3705 70.4103C26.2047 68.8213 26.5092 67.1131 26.2841 65.3387C26.165 64.3986 25.7942 63.4849 25.5294 62.5315C24.6157 62.8096 23.8742 63.0347 23.1988 63.2333C23.318 64.3059 23.4902 65.3387 23.5564 66.3848C23.6358 67.6693 23.1591 68.7948 22.2984 69.7349C21.5966 70.5029 20.63 70.503 19.7031 70.4235C18.2862 70.3043 17.0812 69.6687 16.1014 68.6359C15.8233 68.3446 15.5584 68.0665 15.2804 67.7752C14.6448 68.3578 14.0622 68.914 13.453 69.4701C14.8037 71.5888 16.7899 72.7408 19.1734 73.2042ZM18.7629 69.6423C21.1729 70.3441 22.5633 69.5628 22.987 66.8615C23.1724 65.6301 22.9472 64.6634 22.4441 63.3525C22.113 63.3525 21.7555 63.3657 21.4112 63.3525C21.0669 63.326 20.7227 63.2598 20.4578 63.2201C20.524 64.0675 20.6697 64.9018 20.6564 65.736C20.6432 66.888 19.7825 67.4574 18.7364 66.9674C17.9552 66.5967 17.2534 66.0273 16.5251 65.5374C16.2735 66.067 15.9689 66.6761 15.6644 67.3117C16.5118 68.2916 17.4388 69.2582 18.7629 69.6423ZM20.0738 64.9944C19.9944 64.4118 19.8752 63.8027 19.6369 63.2598C19.4912 62.942 19.1204 62.7037 18.8026 62.4918C18.0081 61.9489 17.1872 61.4457 16.5648 61.0352C16.6045 61.8165 16.6707 62.8625 16.6972 63.9086C16.7237 64.915 18.22 66.3848 19.2264 66.3583C19.7693 66.3451 20.1798 65.7227 20.0738 64.9944ZM21.2656 62.7301C21.9541 62.8493 22.7221 62.7169 23.4107 62.558C24.8143 62.227 26.165 61.7105 27.3435 60.8631C28.6014 59.9626 29.2238 58.612 29.6872 57.2084C29.9653 56.3742 30.1772 55.487 30.3096 54.6131C30.4685 53.6199 30.111 52.693 29.7005 51.7926C28.8927 50.0712 27.5818 48.8397 25.9663 47.8863C25.5823 47.6612 25.3837 47.6745 25.0659 47.979C24.0066 48.9854 22.8281 49.8858 21.345 50.1109C20.4578 50.2433 19.5309 50.1374 18.4848 50.1374C19.5574 51.2629 20.5505 52.3223 21.5436 53.3683C21.782 53.6199 22.0071 53.5802 22.3116 53.4478C24.6157 52.4149 27.5553 53.898 27.6348 56.9833C27.6745 58.5193 25.5294 60.4658 23.702 59.9891C21.4642 59.4197 20.3916 57.2216 20.7756 55.4605C20.8286 55.1957 20.8948 54.9176 21.0405 54.6925C21.2258 54.4012 21.1596 54.1893 20.9478 53.9907C19.9017 52.9976 18.8556 52.0045 17.7698 50.9716C17.7698 51.7926 17.8492 52.5341 17.7433 53.2624C17.6506 53.951 17.4785 54.666 17.1474 55.2619C16.6575 56.1226 15.9954 56.8774 15.426 57.6851C15.3333 57.8175 15.2936 58.0823 15.3598 58.2148C16.6575 60.5718 18.5378 62.2534 21.2656 62.7301ZM21.2391 56.0696C21.2126 57.4997 22.9737 59.2344 24.4303 59.2211C25.3837 59.2079 26.7873 57.7778 26.7741 56.8244C26.7608 55.3678 25.0527 53.6729 23.6226 53.6994C22.4441 53.7259 21.2523 54.9044 21.2391 56.0696ZM15.5849 56.6523C16.9885 54.9441 17.6771 53.0241 16.9621 50.8657C16.6575 49.9388 15.9822 49.1178 15.4525 48.2306C14.8037 48.6014 14.3402 48.8794 14.0092 49.0648C14.4462 50.0844 15.0023 51.0908 15.3069 52.1634C15.8365 53.9907 14.5653 56.2153 12.9631 56.4669C11.2549 56.7317 9.83807 56.1888 8.80523 54.7984C8.34177 54.1761 7.98425 53.461 7.57377 52.7725C7.15003 53.0108 6.68657 53.2889 6.20988 53.567C6.73954 56.4934 9.32166 58.1221 11.5462 58.0823C12.2348 58.0691 12.9366 58.0161 13.6252 57.897C14.4461 57.7645 15.0553 57.2878 15.5849 56.6523ZM8.09019 52.2958C8.73903 53.8053 9.44083 55.3016 11.1755 55.818C13.1882 56.4139 14.6183 55.2619 14.8169 53.3154C14.9758 51.7661 14.1946 50.5611 13.2941 49.4223C13.2412 49.3561 13.122 49.3032 13.0293 49.2899C12.4467 49.2502 11.8773 49.237 11.2152 49.1972C11.7449 49.8858 12.2348 50.4684 12.6585 51.104C12.8837 51.4351 13.069 51.8456 13.1352 52.2428C13.2941 53.1697 12.9631 53.7788 12.2083 54.0701C11.6389 54.2952 10.7915 54.0304 10.3677 53.3551C9.94401 52.6798 9.63946 51.925 9.28194 51.1967C9.176 50.9584 9.09654 50.7068 8.99062 50.4419C8.67281 51.0246 8.38151 51.5675 8.09019 52.1236C8.09019 52.1633 8.07695 52.2428 8.09019 52.2958ZM10.2883 49.2105C10.0367 48.9854 9.74538 48.7868 9.38786 48.5219C9.42759 50.2301 9.93076 51.6867 10.8444 52.9976C11.1093 53.3816 11.5065 53.6332 12.0229 53.4875C12.5658 53.3286 12.7777 52.7592 12.4864 52.0309C12.0229 50.8789 11.1755 50.0182 10.2883 49.2105ZM11.0695 48.4954C12.3275 48.7868 13.5457 48.853 14.6845 47.9923C17.1342 46.1384 16.4324 42.7751 14.4726 41.292C14.3667 41.2126 14.1019 41.2655 13.9694 41.3582C13.6914 41.5436 13.4663 41.782 13.175 42.0335C13.5457 42.5235 13.9297 42.9869 14.2608 43.4901C14.9626 44.5362 14.8566 45.5293 14.1284 46.39C13.1485 47.5288 11.8905 47.3434 11.0695 46.7873C10.5531 46.443 10.0764 46.0457 9.57325 45.675C9.29517 46.006 8.99062 46.3371 8.65958 46.7343C9.28193 47.542 10.0102 48.2571 11.0695 48.4954ZM9.34814 43.6358C9.24221 43.3312 9.18924 42.9869 9.05682 42.6956C8.55364 41.5833 8.54039 41.676 7.34865 41.7157C6.60712 41.7422 5.83911 41.4641 5.0711 41.3185C5.20352 42.3116 4.71358 43.1856 3.99853 43.9933C3.91909 44.086 3.86613 44.2978 3.91909 44.4038C4.50172 45.7279 5.66698 46.9462 7.45459 46.5754C8.47419 46.3768 9.71891 44.6819 9.34814 43.6358ZM5.46835 36.5118C5.69346 36.5648 5.91856 36.578 6.14367 36.5648C6.58064 36.525 6.76602 36.2205 6.54092 35.8365C6.32905 35.4922 6.0907 35.0949 5.75966 34.8831C4.79302 34.2607 3.7337 33.8502 2.40955 33.9694C3.24377 35.1876 4.06474 36.194 5.46835 36.5118ZM4.10446 38.1935C3.9588 37.0017 3.1908 36.194 2.3301 35.4525C2.11823 35.2671 1.85339 35.1347 1.49587 34.8831C1.50912 36.4986 1.84016 37.8492 3.05839 38.8158C3.25701 38.9747 3.72047 39.1204 3.79991 39.0277C3.99853 38.8423 4.14419 38.4716 4.10446 38.1935ZM1.57532 30.3412C2.7803 29.5335 3.77343 28.6595 4.07798 27.2294C4.11771 27.0308 4.15742 26.8057 4.10446 26.6071C4.01177 26.2496 3.78666 25.9847 3.37617 26.2363C3.04514 26.4349 2.70085 26.6601 2.44926 26.9514C1.85339 27.6399 1.41642 29.3216 1.57532 30.3412ZM3.01865 30.4604C2.83327 30.6723 2.68761 30.9371 2.42278 31.3211C4.07798 31.3079 5.44186 30.9636 6.4085 29.7056C6.55415 29.5202 6.67334 29.0965 6.56741 29.0038C6.38203 28.8184 6.02451 28.6728 5.77291 28.7125C4.58117 28.8317 3.74694 29.5864 3.01865 30.4604ZM5.08434 24.1706C6.05098 23.4821 7.01762 23.3761 8.05046 23.6542C8.18288 23.6939 8.42123 23.6012 8.50068 23.4953C9.52028 22.052 9.82484 20.7146 8.59337 19.3904C7.66646 18.3841 6.10394 18.3046 5.03137 19.2845C4.5944 19.6817 4.25012 20.1982 3.94556 20.7146C3.85287 20.8602 3.93233 21.231 4.06474 21.3899C4.92545 22.4492 5.05785 22.7935 5.08434 24.1706ZM9.56 19.6288C10.0367 19.2713 10.5002 18.874 11.0033 18.5562C12.6718 17.4969 13.7841 18.1722 14.5918 19.5361C14.9626 20.1584 14.8169 20.9264 14.4064 21.562C14.0357 22.1314 13.6119 22.6743 13.2014 23.257C13.559 23.5483 13.89 23.8264 14.221 24.1177C15.5849 23.4291 16.4456 21.5223 16.247 19.7479C16.1014 18.4105 14.6183 16.8216 13.2941 16.6362C11.4271 16.3978 9.83808 16.8878 8.68607 18.5827C8.96414 18.927 9.25545 19.2713 9.56 19.6288ZM12.301 13.6436C12.7512 12.8491 12.6585 12.0678 12.1421 11.7898C11.6654 11.5382 11.0298 11.8295 10.5928 12.6107C9.89104 13.8687 9.37462 15.1928 9.4011 16.7156C10.6326 15.9079 11.5992 14.8883 12.301 13.6436ZM8.9509 14.7426C9.40112 13.829 9.8116 12.8491 10.3545 11.9487C10.765 11.2601 11.6124 10.9953 12.1686 11.1939C13.0558 11.5249 13.4795 12.4121 13.0425 13.339C12.7115 14.0673 12.1951 14.7029 11.7449 15.3782C11.586 15.6166 11.4006 15.8152 11.1755 16.0933C11.864 16.0535 12.4599 16.0271 13.0558 16.0006C13.1352 16.0006 13.2279 15.9608 13.2677 15.8946C14.274 14.6102 15.095 13.2728 14.7375 11.5117C14.221 8.94281 11.4138 8.86336 9.98373 10.0816C9.09654 10.8364 8.56687 11.803 8.14314 12.8491C8.10342 12.955 8.10343 13.1272 8.1564 13.2331C8.42123 13.7495 8.69931 14.2659 8.9509 14.7426ZM9.4938 9.77703C10.6855 8.50584 12.8704 8.32045 14.1019 9.34006C15.2539 10.3067 15.6776 11.6309 15.3333 13.0477C15.0685 14.1335 14.4859 15.1266 14.0357 16.186C14.3932 16.3978 14.8302 16.6627 15.2804 16.9275C17.5976 15.0339 17.7698 11.5646 16.2205 9.52544C15.5717 8.67798 15.0553 7.72459 13.9297 7.44651C11.2814 6.78443 9.22896 7.10223 7.34865 9.20764C6.76602 9.85648 6.50119 10.7966 6.0907 11.6309C6.44822 11.8162 6.69981 11.9487 6.9514 12.0943C7.17651 12.2267 7.40162 12.3856 7.48106 12.4518C8.15639 11.5514 8.73903 10.5848 9.4938 9.77703ZM15.5187 7.72458C16.3927 8.57204 17.1474 9.56517 17.452 10.7304C17.7433 11.8295 17.7301 13.008 17.8625 14.1997C18.8688 13.2463 19.9282 12.2532 20.9743 11.2336C21.0802 11.1277 21.1067 10.8099 21.0405 10.651C20.0473 8.38666 21.1729 5.42055 24.4965 5.19544C25.5956 5.11599 26.5092 5.83104 27.0919 6.78443C27.8864 8.09535 27.6877 9.79027 26.7211 10.8761C25.728 11.9884 23.8344 12.571 22.2719 11.8162C21.9674 11.6706 21.7687 11.6971 21.5701 11.8957C20.577 12.9418 19.5839 13.9879 18.5511 15.0869C19.3853 15.0869 20.14 15.0339 20.8816 15.1001C21.4642 15.1531 22.113 15.259 22.603 15.5504C23.4902 16.0668 24.3244 16.7024 25.1321 17.338C25.4367 17.5763 25.6221 17.6293 25.9266 17.4042C26.5887 16.901 27.317 16.4905 27.9261 15.9344C29.237 14.7294 30.058 13.2198 30.3228 11.4587C30.4287 10.8099 30.3096 10.0816 30.1374 9.41951C29.7799 8.02914 29.2767 6.6785 28.4425 5.5C27.5421 4.24205 26.1914 3.61969 24.8011 3.143C23.9669 2.85168 23.0929 2.6663 22.219 2.5074C21.1994 2.33526 20.2592 2.70602 19.3455 3.143C17.6241 3.95073 16.4059 5.26165 15.4525 6.87712C15.2142 7.23465 15.2142 7.43327 15.5187 7.72458ZM21.782 10.5848C22.5897 11.6176 23.7682 11.803 24.9997 11.1542C25.9531 10.651 26.4563 9.79027 26.7211 8.81039C26.8138 8.43963 26.7079 7.90997 26.496 7.59217C25.9928 6.87712 25.4367 6.14883 24.4038 6.02966C23.1988 6.25477 22.1925 6.82416 21.6099 7.96293C21.1464 8.85012 21.1199 9.75055 21.782 10.5848ZM18.8026 2.81196C19.2793 2.53388 19.7163 2.22932 19.7825 1.63345C19.862 0.984616 20.0076 0.335781 19.9811 -0.299816C19.9414 -0.975136 19.4515 -1.21349 18.8291 -1.00162C17.5844 -0.591133 16.7369 0.574127 16.7105 1.8718C16.6972 2.73251 16.6045 3.59321 16.5648 4.24205C17.2136 3.81832 17.9949 3.28865 18.8026 2.81196ZM16.5648 -0.180641C17.0812 -0.591133 17.5844 -1.04135 18.1405 -1.41211C18.7497 -1.8226 19.4515 -2.08743 20.1268 -1.62397C20.7624 -1.187 20.7359 -0.418995 20.7094 0.256329C20.6829 0.838959 20.4976 1.42159 20.3784 2.0307C21.0669 1.97773 21.7687 1.93801 22.4838 1.88504C23.0002 0.454952 23.3048 -1.04135 22.7884 -2.53765C22.0601 -4.61658 20.8418 -4.98734 18.6173 -4.31202C17.3593 -3.92801 16.4986 -2.97462 15.6644 -2.04771C15.9689 -1.41211 16.2735 -0.789757 16.5648 -0.180641ZM17.4785 -4.39147C18.3524 -4.96086 19.3588 -5.23893 20.4314 -5.21245C22.113 -5.17272 23.0929 -3.92801 23.4637 -2.24633C23.7815 -0.816238 23.5961 0.600609 23.0532 2.00422C23.8874 2.25581 24.6422 2.48092 25.4499 2.73251C26.0723 1.34214 26.496 -0.048229 26.3371 -1.5975C26.165 -3.30566 25.728 -4.86816 24.6819 -6.27177C23.5299 -7.82104 21.9806 -8.27126 20.193 -8.03291C19.1337 -7.88725 18.0876 -7.59593 17.0812 -7.25165C15.5187 -6.70874 14.4197 -5.54348 13.453 -4.20608C14.0489 -3.64994 14.6448 -3.10704 15.2142 -2.57737C15.9557 -3.18649 16.6707 -3.8618 17.4785 -4.39147ZM47.815 5.10275C47.815 5.11599 47.815 5.12923 47.815 5.10275V5.10275ZM47.8414 5.07626C48.9537 4.99681 50.0395 4.91737 51.1253 4.83792C51.2578 4.82468 51.4564 4.79819 51.4961 4.71875C51.8404 3.99046 52.1582 3.26217 52.529 2.41471C51.655 2.33526 50.9267 2.26905 50.1852 2.21608C50.066 2.20284 49.8806 2.25581 49.8144 2.33526C49.1391 3.23569 48.4903 4.16259 47.8414 5.07626ZM50.6487 -0.683826C50.5295 0.0709458 50.3573 0.812477 50.2117 1.54076C51.1518 1.69966 52.1052 1.84532 53.2308 2.0307C52.8335 3.0503 52.4892 3.92425 52.1185 4.85116C52.9527 5.12923 53.8134 5.42055 54.7535 5.72511C55.4686 3.80508 56.1836 1.89828 56.9384 -0.127678C55.5348 -0.366028 54.2636 -0.591133 52.9924 -0.816242C52.423 -0.908932 51.8536 -1.00162 51.2843 -1.08107C50.9665 -1.10756 50.7149 -1.09431 50.6487 -0.683826ZM57.1768 0.8522C56.6074 2.56036 55.932 4.24205 55.2832 5.98994C56.1969 6.47988 57.1503 6.9963 58.1566 7.5392C59.2027 4.12287 60.2223 0.772747 61.2552 -2.60386C57.8521 -3.38511 54.4357 -4.1796 50.9002 -4.98734C50.9002 -3.8618 50.9002 -2.80248 50.9002 -1.71667C52.6216 -1.42535 54.449 -1.1208 56.2631 -0.776516C57.7991 -0.49844 57.6667 -0.630859 57.1768 0.8522ZM65.5852 -5.10651C60.6328 -6.35122 55.7599 -7.56945 50.834 -8.81416C50.834 -7.6489 50.834 -6.65578 50.834 -5.62294C53.1513 -5.08003 55.4156 -4.53712 57.6667 -4.0207C58.8982 -3.74263 60.1296 -3.4778 61.3743 -3.22621C61.851 -3.13352 61.9835 -2.92165 61.8246 -2.44495C60.9374 0.349018 60.0767 3.14299 59.216 5.93697C59.0835 6.34746 59.0571 6.81091 58.8717 7.19492C58.5804 7.80403 58.8584 8.12183 59.3484 8.38666C59.9707 8.73094 60.5798 9.07523 61.4141 9.52544C62.8044 4.62605 64.1816 -0.180645 65.5852 -5.10651ZM66.0486 18.4768C66.8299 17.0864 67.6244 15.696 68.3791 14.3719C66.8961 13.4979 65.3071 12.5842 63.7313 11.6309C61.4803 10.2802 59.2689 8.8766 57.0046 7.57893C55.8923 6.94333 54.7006 6.44015 53.5221 5.93697C51.5888 5.11599 49.6026 5.19544 47.6825 5.884C46.3716 6.34746 45.1534 7.08899 43.869 7.71135C44.0411 8.28073 44.1868 8.77067 44.3457 9.24736C45.1004 8.90308 45.789 8.50584 46.5173 8.26749C49.1788 7.36706 51.8139 7.40679 54.449 8.4926C57.5872 9.77703 60.4342 11.5382 63.2944 13.2993C64.0624 13.776 64.8172 14.2924 65.6117 14.7294C65.9559 14.928 65.9957 15.0737 65.797 15.4047C64.3934 17.9206 62.9898 20.4365 61.5995 22.9657C60.5401 24.8989 59.216 26.6203 57.6137 28.1299C56.5412 29.1362 55.27 29.7586 53.8266 30.1823C52.6217 30.5398 51.4431 30.8444 50.066 30.7385C50.2117 31.2946 50.3176 31.7581 50.4235 32.1818C53.3367 32.5923 56.038 32.1553 58.395 30.3809C59.7986 29.3084 60.7917 27.8518 61.6524 26.3158C63.162 23.7204 64.592 21.0853 66.0486 18.4768ZM65.9559 33.1352C64.3802 34.4461 62.8177 35.7835 61.2287 37.1209C61.7848 38.0081 62.3542 38.9218 62.9368 39.8752C65.519 37.4652 68.0746 35.0817 70.6832 32.6452C68.1143 30.2485 65.5454 27.8518 62.9368 25.4154C62.3675 26.329 61.7848 27.2559 61.2022 28.1828C62.4602 29.2157 63.7049 30.2353 64.9496 31.2549C65.3336 31.5727 65.7176 31.8905 66.0751 32.248C66.4194 32.579 66.287 32.8571 65.9559 33.1352ZM65.7308 32.6452C64.0756 31.2814 62.4999 29.9837 60.8976 28.6595C60.2223 29.4011 59.6529 30.0499 59.0438 30.7252C59.6397 31.2019 60.2356 31.6919 60.8447 32.1686C61.2684 32.4996 61.2419 32.8041 60.8314 33.1219C60.2356 33.5854 59.6397 34.0753 59.0306 34.552C59.6397 35.2274 60.2356 35.8894 60.8844 36.6177C62.4734 35.3068 64.0359 34.0224 65.7308 32.6452ZM60.6328 32.632C59.9178 32.1156 59.3087 31.6654 58.6731 31.2416C58.5804 31.1754 58.395 31.1887 58.2891 31.2284C57.243 31.7051 56.1969 32.195 55.2302 32.6452C56.2498 33.0955 57.3754 33.5854 58.5936 34.1151C59.1895 33.6781 59.8648 33.1882 60.6328 32.632ZM69.8225 38.3259C71.6101 36.6045 73.3712 34.8698 75.1588 33.1617C75.4899 32.8439 75.6223 32.5658 75.2383 32.195C73.6228 30.6193 72.0338 29.0303 70.4183 27.4678C68.5513 25.6669 66.6577 23.9058 64.7112 22.0652C64.2213 22.9259 63.7711 23.6939 63.3738 24.4884C63.2944 24.6473 63.3738 24.9916 63.5062 25.124C65.9427 27.4148 68.4056 29.6791 70.8686 31.9435C71.5704 32.5923 71.5704 32.685 70.8686 33.3338C69.1604 34.8963 67.4787 36.4721 65.7838 38.0346C65.0555 38.7099 64.3405 39.3985 63.5857 40.0473C63.2679 40.3121 63.2149 40.5637 63.4135 40.908C63.824 41.6231 64.2345 42.3513 64.7377 43.212C66.4723 41.5436 68.154 39.9414 69.8225 38.3259ZM61.9437 54.7322C64.1286 53.461 66.2737 52.1369 68.3659 50.8789C66.7239 47.9923 65.029 44.9997 63.3341 42.0071C62.4072 40.3783 61.52 38.7364 60.5136 37.1606C58.8452 34.552 56.3028 33.3073 53.297 32.9233C52.7541 32.8571 52.1847 32.9895 51.6285 33.016C51.2578 33.0293 50.6751 32.8306 50.5692 32.9895C50.3044 33.4 50.2382 33.9429 50.0925 34.4858C50.7546 34.5256 51.3505 34.5123 51.9463 34.605C55.27 35.0817 57.8653 36.7766 59.7721 39.5044C60.7652 40.9345 61.6789 42.4175 62.5793 43.9138C63.3209 45.1453 63.9829 46.4165 64.6715 47.6745C65.082 48.416 65.4792 49.1575 65.8368 49.9255C65.903 50.0712 65.8103 50.4155 65.6779 50.4817C62.5131 52.3752 59.3616 54.3085 56.1307 56.0696C54.4093 57.0098 52.4892 57.6321 50.4898 57.6719C49.6423 57.6851 48.7816 57.407 47.9209 57.3143C46.6497 57.1687 45.5242 56.692 44.3854 55.924C44.2132 56.4801 44.0676 56.9568 43.9352 57.4203C46.0273 58.943 48.2784 59.9759 50.94 59.8832C52.3039 59.8435 53.5883 59.486 54.7535 58.8504C57.1768 57.5262 59.5602 56.1358 61.9437 54.7322ZM47.8414 60.1878C48.1857 60.638 48.583 61.1147 48.9537 61.6178C49.2186 61.9621 49.4701 62.3196 49.6688 62.7037C49.8277 62.995 49.9866 63.1406 50.3309 63.1009C51.0194 63.0082 51.708 62.942 52.5157 62.8493C52.1714 62.0548 51.8536 61.3398 51.5226 60.6247C51.4829 60.532 51.2975 60.4791 51.1651 60.4658C50.066 60.3599 48.9537 60.2672 47.8414 60.1878ZM57.0311 65.8949C54.9522 66.2656 52.8865 66.6629 50.8738 67.0337C50.8738 68.0665 50.8738 69.1126 50.8738 70.2646C54.396 69.4569 57.8124 68.6756 61.2552 67.8811C60.2356 64.5442 59.2027 61.1676 58.1566 57.7381C57.1635 58.2677 56.2234 58.7709 55.27 59.2873C55.7599 60.5585 56.2498 61.8032 56.7133 63.0744C56.9914 63.8159 57.2297 64.5707 57.4548 65.3255C57.5608 65.683 57.4019 65.8287 57.0311 65.8949ZM50.8208 74.0914C55.7334 72.86 60.6063 71.6417 65.5587 70.397C64.1286 65.4844 63.0031 60.585 61.2949 55.7783C60.3812 56.308 59.5338 56.7847 58.6731 57.2878C58.8982 58.1353 59.0703 58.9298 59.3086 59.6846C60.1031 62.2667 60.9241 64.8355 61.7319 67.4044C62.0232 68.3181 62.0099 68.3048 61.0433 68.5167C58.6863 69.0464 56.3293 69.6025 53.9591 70.1454C53.0719 70.3441 52.1847 70.5692 51.2975 70.7678C50.9664 70.834 50.7943 70.9664 50.7943 71.3372C50.834 72.1979 50.8208 73.0586 50.8208 74.0914ZM50.6751 66.0405C50.7016 66.173 50.9797 66.3583 51.0989 66.3451C52.9924 66.0538 54.886 65.736 56.9384 65.4049C56.1836 63.379 55.4686 61.4589 54.7535 59.5522C53.8134 59.8435 52.9659 60.1215 52.1052 60.3864C52.4628 61.2868 52.807 62.174 53.2308 63.2333C52.1185 63.4055 51.1783 63.5511 50.2117 63.71C50.3573 64.4648 50.4898 65.2593 50.6751 66.0405ZM42.174 82.619C44.3324 82.5925 46.504 82.5396 48.6624 82.5263C49.1656 82.5263 49.682 82.619 50.1587 82.672C50.1587 80.0766 50.1322 77.4813 50.172 74.8992C50.1984 73.3366 50.4103 71.7609 50.3441 70.1984C50.2514 67.8944 50.3971 65.5109 49.3377 63.3525C48.4505 61.5516 47.2191 60.0289 45.352 59.1152C44.7429 58.8106 44.1603 58.4399 43.6174 58.1221C43.2334 58.4664 42.8626 58.8106 42.4654 59.1682C43.1539 59.6581 43.8822 60.0421 44.4516 60.585C46.0009 62.0681 47.3647 63.6835 47.8679 65.8816C48.4108 68.1989 48.5962 70.5294 48.5697 72.8997C48.5432 75.1507 48.5168 77.4018 48.477 79.6529C48.477 79.9574 48.4241 80.2752 48.3579 80.5798C48.3314 80.6857 48.199 80.8181 48.0798 80.8446C47.815 80.9108 47.5501 80.9241 47.2721 80.9373C44.4251 80.9771 41.5649 81.0565 38.718 81.03C36.4537 81.0035 34.2158 80.7387 32.0972 79.9177C30.9452 79.4675 29.9123 78.8319 29.1178 77.8388C28.8265 77.4813 28.3763 77.2429 28.0717 76.8854C27.5951 76.2895 27.1846 75.6539 26.6946 74.9521C26.3371 75.3626 26.0193 75.7201 25.6088 76.1968C26.3503 77.2826 27.0521 78.5538 27.9791 79.6396C29.4091 81.2948 31.263 82.2747 33.4743 82.5396C35.3281 82.7647 37.182 82.8574 39.049 82.672C40.0951 82.5528 41.1412 82.6322 42.174 82.619ZM32.9049 89.359C33.13 88.2334 33.3419 87.2138 33.514 86.181C33.6465 85.413 33.7259 84.6185 33.8716 83.8505C33.951 83.387 33.9378 83.1222 33.3419 83.0692C32.6533 83.003 31.9648 82.7779 31.2762 82.619C31.1173 83.6121 30.9584 84.5523 30.7863 85.6116C30.1904 85.3997 29.7402 85.2673 29.3032 85.0952C28.8662 84.923 28.4293 84.7112 27.9526 84.4993C27.6613 85.3865 27.3964 86.2339 27.0786 87.1741C28.9987 87.9024 30.8922 88.6042 32.9049 89.359ZM26.827 87.7435C26.3503 88.6174 25.8339 89.5841 25.291 90.5904C28.7073 91.6365 32.0575 92.6561 35.4341 93.689C36.2286 90.2594 37.0098 86.8563 37.8176 83.387C36.6788 83.3341 35.6327 83.2678 34.5601 83.2149C34.2821 84.8833 34.0172 86.5518 33.7259 88.2202C33.6597 88.591 33.5273 88.9485 33.4876 89.3192C33.4346 89.9019 33.1698 90.0211 32.6533 89.8357C30.7465 89.1339 28.8265 88.4585 26.827 87.7435ZM27.9923 83.6916C28.0055 83.7975 28.0982 83.9299 28.1909 83.9696C28.8927 84.3007 29.621 84.6052 30.4155 84.9628C30.495 84.1683 30.5479 83.5194 30.6141 82.8838C30.6539 82.4998 30.5214 82.2747 30.1772 82.0496C29.4091 81.5332 28.6941 80.9373 27.9526 80.3679C27.8731 80.315 27.7804 80.2752 27.7407 80.2488C27.8202 81.4008 27.8996 82.5396 27.9923 83.6916ZM37.95 97.9925C39.1947 93.0534 40.4129 88.207 41.6444 83.2678C40.5983 83.2678 39.7111 83.2546 38.8239 83.2811C38.665 83.2811 38.4134 83.4929 38.3869 83.6386C37.6057 86.949 36.8377 90.2462 36.0961 93.5698C35.9108 94.404 35.8843 94.4437 35.0368 94.1789C32.2031 93.305 29.3827 92.4178 26.549 91.5438C26.112 91.4114 25.675 91.2525 25.2248 91.2128C24.9997 91.1996 24.6819 91.3982 24.5495 91.5968C24.1258 92.2456 23.7815 92.921 23.3313 93.7155C28.1247 95.4501 33.0373 96.5624 37.95 97.9925ZM2.26389 85.0952C2.11823 84.2874 2.05202 83.4532 1.94609 82.5793C1.57532 82.6587 1.1516 82.7249 0.754348 82.8574C0.621932 82.8971 0.489517 83.1354 0.47628 83.2811C0.436553 83.9432 0.37033 84.6185 0.46302 85.2541C0.621925 86.3266 0.820556 87.4125 1.13836 88.4585C1.89313 90.895 3.70722 92.4575 5.79939 93.6757C8.68606 95.3574 11.6389 96.9464 14.5521 98.5884C15.863 99.3299 17.1739 100.085 18.4186 100.8C19.3191 99.2769 20.2592 97.6747 21.2126 96.0857C22.55 93.8611 23.9404 91.663 25.238 89.4119C26.2312 87.7038 27.1051 85.9294 27.3699 83.9299C27.5288 82.6455 27.3964 81.3743 26.933 80.1958C26.4165 78.8716 25.728 77.6269 25.1056 76.3028C24.5098 76.4749 24.0463 76.6206 23.5564 76.7662C23.6093 76.9119 23.6093 77.0708 23.6888 77.1635C24.576 78.289 24.7481 79.6794 25.0394 81.0035C25.4764 82.9898 25.0659 84.8966 24.3376 86.7769C23.0532 90.1137 21.1067 93.0931 19.2661 96.1254C18.8688 96.7743 18.4319 97.4099 18.0479 98.0587C17.8757 98.3368 17.7698 98.4427 17.4255 98.2441C15.9027 97.3966 14.3402 96.6418 12.8307 95.7679C11.0431 94.7483 9.25545 93.7287 7.56052 92.5634C6.09071 91.5571 4.67385 90.4183 3.74694 88.8426C3.28348 88.0481 3.00542 87.1476 2.66114 86.3002C2.52872 85.9294 2.34334 85.5189 2.26389 85.0952ZM4.34281 81.6524C3.45563 82.0893 3.28349 83.0163 3.32322 83.8505C3.36294 84.8966 3.62777 85.9294 3.86612 86.949C3.9853 87.4654 4.25013 87.9421 4.39578 88.3129C5.12407 87.002 5.82588 85.6381 6.63361 84.3272C7.13679 83.4929 7.78564 82.7514 8.35503 81.9702C8.9509 81.1492 9.17599 80.2223 9.20248 79.2159C9.22896 78.5406 9.32165 77.8785 9.38786 77.2032C8.15639 79.2424 6.42174 80.6328 4.34281 81.6524ZM6.67333 85.2938C5.94504 86.4193 5.21675 87.5581 5.09758 88.975C5.05785 89.5311 5.24324 89.8754 5.61401 90.2064C6.38202 90.8817 7.16328 91.5571 8.02398 92.3118C8.07695 90.1667 8.84495 88.3791 9.57325 86.565C10.0367 85.3865 10.2883 84.1815 10.0367 82.9236C9.93077 82.3939 9.65269 81.8907 9.45407 81.3478C8.48743 82.7117 7.53403 83.9696 6.67333 85.2938ZM11.5198 82.5263C11.9965 82.9898 12.5791 83.3473 13.1617 83.6916C13.7046 84.0226 14.1681 83.7843 14.5124 83.334C15.4658 82.0761 15.6511 80.6592 15.3598 79.1497C15.042 77.5475 14.0622 76.3028 13.0558 75.0845C12.3407 74.2106 11.5727 73.3896 10.8709 72.5951C10.5796 74.1709 10.1559 75.8128 9.98373 77.4813C9.78511 79.3218 10.0764 81.1359 11.5198 82.5263ZM0.860267 61.9621C0.714614 62.0151 0.476272 62.1872 0.489517 62.3064C0.529243 63.0347 0.621932 63.7497 0.68814 64.4648C0.847038 66.0803 1.70774 67.3779 2.67438 68.6094C3.33646 69.4436 4.27661 69.8806 5.25648 70.1454C6.2496 70.4103 7.28245 70.5692 8.30205 70.6883C10.0102 70.887 11.48 70.2249 12.791 69.2053C13.9165 68.3313 15.0155 67.4309 15.6114 66.0935C15.8762 65.5241 16.0484 64.8885 16.1278 64.2662C16.3927 62.2005 15.7835 60.3202 14.7375 58.5723C14.658 58.4399 14.327 58.3869 14.1151 58.4001C13.0955 58.4796 12.0759 58.665 11.0563 58.665C9.91752 58.665 8.93765 58.1353 8.02398 57.4865C7.78564 57.3143 7.56052 57.1554 7.21623 56.9171C7.60024 58.4796 7.93128 59.9362 8.32853 61.3663C8.38149 61.5384 8.72579 61.7105 8.9509 61.737C10.6326 62.0019 11.7846 62.9817 12.1554 64.584C12.6718 66.7953 11.5065 68.9272 8.76551 68.8742C7.13679 68.8477 6.31581 67.8149 5.81263 66.5967C5.30945 65.3785 5.52132 64.0543 6.38202 62.942C6.51443 62.7831 6.62037 62.558 6.79251 62.4785C7.61349 62.1078 7.49432 61.5649 7.24273 60.8631C6.84548 59.7111 6.55417 58.5193 6.17016 57.1819C6.02451 57.513 5.93181 57.6983 5.8656 57.897C4.99165 60.201 3.05837 61.2338 0.860267 61.9621ZM6.46147 64.2C6.20988 65.4976 6.80575 67.1528 7.73266 67.709C8.68605 68.2784 9.58648 67.8546 10.4604 67.4839C11.3741 67.0999 11.3609 66.2259 11.3609 65.4049C11.3609 63.8954 10.5664 62.7301 9.33489 62.3991C8.0637 62.0548 6.71306 62.9155 6.46147 64.2ZM1.7607 48.5881C1.64153 48.6411 1.48263 48.7205 1.31049 48.8C0.410057 49.1972 0.463028 49.184 0.714614 50.1771C1.08538 51.7396 3.28348 53.4478 4.89896 53.2094C6.06422 53.0373 7.08383 52.6665 7.75915 51.6204C8.71255 50.1374 8.84495 48.7205 8.14314 47.0389C7.65321 47.1051 7.21624 47.1713 6.77927 47.2375C6.83224 47.9525 6.91168 48.6676 6.92493 49.3826C6.95141 50.4022 6.36878 51.2497 5.52132 51.5013C4.23688 51.872 3.36294 51.6337 2.75382 50.6273C2.36982 50.005 2.09174 49.3032 1.7607 48.5881ZM2.44926 48.0849C2.39629 48.1511 2.38306 48.2968 2.42278 48.3763C2.75382 49.131 3.00542 49.9388 3.48211 50.5876C3.94556 51.2232 4.71358 51.3026 5.45511 50.9319C6.11719 50.6008 6.40851 50.0182 6.38202 49.3032C6.36878 48.7867 6.30257 48.2703 6.23637 47.7671C6.1834 47.4096 6.01126 47.211 5.64049 47.0124C4.99166 46.6416 4.46198 46.0722 3.8926 45.569C3.74694 45.4366 3.65426 45.2512 3.45563 44.9599C3.45563 46.2179 3.20403 47.2375 2.44926 48.0849ZM0.568962 40.6034C0.489509 40.6564 0.46302 40.8286 0.46302 40.9345C0.396812 42.2322 1.4429 43.5696 2.70085 43.7814C3.42914 43.9006 3.78667 43.3709 4.11771 42.881C4.67386 42.0733 4.60764 40.6697 4.01177 39.8884C3.95881 39.809 3.87936 39.7163 3.79991 39.6898C2.58169 39.2396 2.58169 39.2396 1.73423 38.3524C1.45615 39.1998 1.3767 40.087 0.568962 40.6034ZM2.68761 21.5091C1.42966 21.7077 0.383575 23.0451 0.449783 24.356C0.449783 24.4752 0.489517 24.6473 0.555725 24.6871C1.3767 25.2035 1.4429 26.0907 1.70773 26.9381C2.34333 26.329 2.80679 25.5875 3.77342 25.5875C3.86611 25.5875 3.95881 25.4418 4.02502 25.3491C4.79302 24.2236 4.55468 22.489 3.48211 21.6812C3.30997 21.5223 2.95245 21.4694 2.68761 21.5091ZM2.76706 17.6955C3.20403 18.4105 3.34969 19.2845 3.62777 20.1055C4.09122 19.1653 4.9122 18.5032 5.93181 18.106C5.99802 18.0795 6.07747 18.0001 6.10395 17.9338C6.3423 16.9937 6.60713 16.0403 6.1834 15.0869C5.89208 14.4116 5.2962 14.16 4.62089 14.1468C3.97205 14.1203 3.49535 14.5175 3.15107 15.0472C2.96569 15.3385 2.87299 15.696 2.70085 16.0006C2.3963 16.5832 2.36981 17.0599 2.76706 17.6955ZM0.820556 14.7824C0.290893 16.1595 0.317367 16.1727 1.77394 16.6627C2.09174 15.9873 2.36982 15.2855 2.75382 14.6632C3.40266 13.6171 4.28986 13.3787 5.57429 13.7892C6.42175 14.0673 6.96465 14.8883 6.93816 15.9476C6.92492 16.6494 6.84547 17.338 6.79251 18.0398C7.22948 18.106 7.65321 18.1722 8.16964 18.2516C8.50068 17.3909 8.77874 16.4773 8.54039 15.5239C8.19611 14.16 7.60025 12.9815 6.17016 12.3724C3.77343 11.3528 1.49587 13.0345 0.820556 14.7824ZM7.99749 -5.39783C6.81898 -5.23893 5.64049 -4.96086 4.50171 -4.5901C3.29672 -4.19285 2.54196 -3.23945 1.82691 -2.19337C0.754341 -0.604374 0.608696 1.17 0.47628 2.97085C0.463035 3.07679 0.688133 3.27541 0.84703 3.31514C2.43602 3.85804 3.99853 4.45391 5.01813 5.884C5.46835 6.5196 5.78615 7.24789 6.20988 8.00266C6.54092 6.86388 6.87196 5.73834 7.203 4.61281C7.25596 4.45391 7.2692 4.28177 7.33541 4.13612C7.587 3.64618 7.53404 3.31514 7.03086 2.97085C5.40215 1.84532 5.09759 -1.08107 6.7263 -2.69654C8.2226 -4.1796 10.6458 -3.72939 11.6125 -2.37875C12.5129 -1.1208 12.7645 0.75951 11.3344 2.26905C10.6855 2.95762 9.94401 3.44755 8.97737 3.527C8.51392 3.56673 8.34177 3.80508 8.24908 4.25529C7.95777 5.59269 7.60025 6.90361 7.24273 8.28073C8.01073 7.83052 8.67282 7.39354 9.37463 7.03602C10.5134 6.45339 11.7449 6.53284 12.9763 6.65202C13.0161 6.65202 13.0558 6.6785 13.0955 6.69174C14.711 7.02278 14.711 7.02278 15.3995 5.5C16.1676 3.77859 16.3927 2.01746 15.9822 0.150398C15.6644 -1.30618 14.711 -2.2993 13.6649 -3.23945C13.2014 -3.64994 12.685 -4.00746 12.1818 -4.36499C10.9371 -5.26541 9.50703 -5.59645 7.99749 -5.39783ZM8.96413 2.94437C9.9705 2.85168 10.6458 2.24257 11.0431 1.36862C11.2549 0.891922 11.3211 0.349022 11.4535 -0.1674C11.3609 -1.92853 10.0367 -3.01434 8.30206 -2.6833C7.46783 -2.5244 7.11031 -1.80936 6.76603 -1.16052C6.24961 -0.207126 6.19663 0.799237 6.73954 1.75263C7.21624 2.60009 7.98426 3.03706 8.96413 2.94437ZM10.381 -9.91321C10.5399 -9.02602 10.712 -8.12559 10.8842 -7.26489C11.9038 -8.49636 13.0028 -9.72782 14.0092 -11.0387C15.3598 -12.7734 15.8763 -14.7331 15.1744 -16.8915C15.0288 -17.355 14.7242 -17.7787 14.4197 -18.1627C14.1416 -18.5202 13.7444 -18.6659 13.2544 -18.4673C11.3344 -17.7125 10.4339 -16.1897 10.0499 -14.2697C9.74538 -12.7866 10.1294 -11.3565 10.381 -9.91321ZM9.63946 -21.1421C9.09655 -22.6649 8.63309 -24.2141 8.1564 -25.7501C8.05047 -26.0944 8.0637 -26.4917 8.01073 -26.9684C7.22948 -26.3195 6.47472 -25.6972 5.71994 -25.0881C4.76655 -24.3068 4.95193 -23.2607 5.3889 -22.4398C6.26285 -20.7978 7.33541 -19.2618 8.32853 -17.6993C8.65957 -17.1828 9.03033 -16.6797 9.4011 -16.1368C10.4075 -17.7655 10.2486 -19.4207 9.63946 -21.1421ZM3.38943 -17.9111C3.53509 -17.1961 3.82639 -16.6135 4.54144 -16.2692C6.55416 -15.2893 8.20936 -13.9122 9.33489 -11.767C9.37462 -12.0319 9.4011 -12.151 9.4011 -12.2702C9.33489 -12.9455 9.25544 -13.6209 9.20248 -14.3094C9.10979 -15.3555 8.73901 -16.2957 8.07693 -17.1034C6.55415 -18.944 5.26973 -20.9037 4.47523 -23.2342C3.7337 -21.4996 3.00542 -19.8179 3.38943 -17.9111ZM10.2353 -30.9144C8.44771 -29.908 6.64684 -28.9016 4.89896 -27.8158C2.21091 -26.1474 0.860268 -23.5918 0.46302 -20.5197C0.343849 -19.6458 0.436539 -18.7453 0.46302 -17.8582C0.46302 -17.7655 0.582207 -17.6331 0.674904 -17.6066C1.11187 -17.4874 1.54884 -17.3947 1.95933 -17.302C2.05202 -18.0833 2.07851 -18.8248 2.22416 -19.5663C2.75382 -22.4133 4.15743 -24.7041 6.47471 -26.4917C8.81847 -28.3058 11.4006 -29.7226 13.9827 -31.1527C15.1215 -31.7751 16.2867 -32.3709 17.4255 -32.9933C17.7301 -33.1654 17.8757 -33.1257 18.0611 -32.8212C18.8688 -31.497 19.7428 -30.1993 20.524 -28.8619C21.5701 -27.0743 22.6295 -25.2734 23.5564 -23.4196C24.4435 -21.632 25.1586 -19.7649 25.1983 -17.7257C25.2116 -16.9048 25.0527 -16.0838 24.9202 -15.2761C24.8143 -14.6272 24.6554 -13.9784 24.4303 -13.356C24.2052 -12.7469 23.8609 -12.1775 23.5431 -11.5154C24.0728 -11.3565 24.5362 -11.2241 25.0129 -11.0785C25.7412 -12.5218 26.7608 -13.793 27.1448 -15.4614C27.6613 -17.739 27.4361 -19.8841 26.3901 -21.9233C25.6221 -23.4329 24.7216 -24.8894 23.8609 -26.3593C22.603 -28.4912 21.3185 -30.6098 20.0738 -32.7417C19.5044 -33.6951 18.988 -34.6882 18.4981 -35.5489C15.7703 -34.0129 12.9896 -32.4769 10.2353 -30.9144Z" fill="#C8A438"/>
</svg>
