<svg width="71" height="30" viewBox="0 0 71 30" fill="none" xmlns="http://www.w3.org/2000/svg">
<path d="M70.757 -55.9941C68.6221 -53.7976 66.438 -51.6381 64.3031 -49.4416C63.2666 -48.368 62.267 -47.245 61.2922 -46.1221C61.0454 -45.8383 60.8726 -45.863 60.6011 -46.011C59.8731 -46.4183 59.1327 -46.7885 58.4046 -47.208C57.0102 -48.0101 55.517 -48.6271 54.3201 -49.7624C54.0362 -50.0339 53.8388 -49.8488 53.7278 -49.5279C52.8763 -47.1957 51.3091 -45.2583 50.0998 -43.1235C50.0381 -43.0124 49.7789 -42.9384 49.6432 -42.9754C47.348 -43.6664 45.0651 -44.3945 42.7698 -45.0732C40.5856 -45.7149 38.3768 -46.2825 36.1803 -46.8872C35.8594 -46.9736 35.6743 -46.9119 35.5879 -46.554C35.3535 -45.6162 35.0943 -44.6907 34.8475 -43.7528C34.4033 -42.0746 33.9344 -40.3963 33.5272 -38.6934C33.0706 -36.7931 32.6757 -34.8927 32.2685 -32.98C32.1944 -32.6468 32.0217 -32.5481 31.7008 -32.5481C30.8494 -32.5604 29.9856 -32.5358 29.1341 -32.5481C27.5916 -32.5728 26.0615 -32.5851 24.519 -32.6715C24.0254 -32.6962 23.939 -32.5728 24.0007 -32.1285C24.0994 -31.3635 24.1981 -30.586 24.1981 -29.821C24.2105 -28.3895 24.1364 -26.9581 24.1117 -25.5266C24.0994 -24.5641 24.0994 -24.5765 23.1616 -24.3543C20.8169 -23.799 18.4724 -23.2314 16.1401 -22.6514C14.1534 -22.1578 12.1789 -21.6149 10.2045 -21.1089C9.8837 -21.0225 9.66158 -20.8991 9.77264 -20.5166C9.92072 -20.023 10.0811 -19.5171 10.2169 -19.0111C10.7598 -17.0614 11.2905 -15.0993 11.8458 -13.1496C12.4257 -11.1505 13.0304 -9.15145 13.6597 -7.15237C13.7708 -6.81919 13.7461 -6.65877 13.45 -6.49835C11.3151 -5.32605 9.40245 -3.75887 7.07019 -2.94443C6.73701 -2.82103 6.6753 -2.59891 6.9221 -2.31509C7.02082 -2.19169 7.13189 -2.09297 7.21827 -1.95723C8.37823 0.0295105 9.53819 2.01625 10.6735 4.01533C10.7352 4.13873 10.6364 4.44724 10.513 4.5583C9.53818 5.47146 8.50162 6.33525 7.55144 7.26075C5.2562 9.49429 2.98564 11.7525 0.715083 13.9984C0.147443 14.5537 0.147444 14.5537 0.739764 15.1337C2.81289 17.1698 4.87366 19.2306 6.95912 21.2543C8.08206 22.3526 9.24203 23.4138 10.439 24.438C10.7845 24.7342 10.8462 24.944 10.6118 25.2895C10.5254 25.4129 10.476 25.561 10.3896 25.6967C9.22968 27.6094 8.42759 29.7566 6.90977 31.4595C6.66297 31.7433 6.78636 31.9531 7.11954 32.0765C9.46414 32.9156 11.4015 34.4828 13.5363 35.6921C13.6474 35.7538 13.7461 36.013 13.7091 36.1364C13.0057 38.5303 12.2406 40.8996 11.5496 43.2936C10.982 45.2433 10.4884 47.2054 9.95774 49.1674C9.71094 50.0682 9.71094 50.0559 10.5747 50.278C12.944 50.895 15.3133 51.5614 17.6826 52.1537C19.6817 52.6473 21.7054 53.0545 23.7169 53.5358C23.8773 53.5728 24.0871 53.8196 24.0994 53.9677C24.1488 55.0289 24.1981 56.0902 24.1734 57.1637C24.1488 58.5582 24.05 59.9402 23.9883 61.3223C23.9637 61.6925 24.0624 61.89 24.4943 61.7789C24.7534 61.7049 25.0249 61.6432 25.2964 61.6432C27.4682 61.6308 29.6401 61.6432 31.8119 61.6308C32.1574 61.6308 32.2315 61.8283 32.2808 62.0874C32.6017 63.6176 32.8731 65.1601 33.2557 66.6779C33.9961 69.6395 34.8229 72.5887 35.5756 75.538C35.6867 75.9946 35.8964 76.044 36.279 75.9329C37.8338 75.4887 39.401 75.0567 40.9558 74.6125C43.8311 73.7734 46.7063 72.9219 49.5815 72.1075C49.7419 72.0581 50.0504 72.1445 50.1245 72.2679C51.3338 74.3781 52.8763 76.3031 53.7278 78.623C53.9005 79.0796 54.0979 79.0673 54.4435 78.7711C54.8754 78.3886 55.332 78.0184 55.8379 77.7345C57.2693 76.9201 58.7131 76.1303 60.1692 75.3529C60.9837 74.921 60.996 74.9333 61.6007 75.6738C61.6624 75.7478 61.7364 75.8095 61.7981 75.8835C63.427 77.5741 65.0559 79.2647 66.6971 80.9429C68.0668 82.3497 69.4489 83.7318 70.8063 85.1509C70.9791 85.3236 71.1148 85.4223 71.2629 85.4223L71.2629 84.5956C71.0408 84.5956 70.831 84.3735 70.3744 83.9292C68.5728 82.1276 66.7588 80.3506 64.9818 78.5243C63.7849 77.2903 62.6619 75.9823 61.4279 74.6248C62.2423 74.1806 62.9704 73.7734 63.7108 73.4032C63.8342 73.3415 64.1057 73.3785 64.1921 73.4772C65.6482 75.0321 67.092 76.5869 68.5481 78.1541C69.3008 78.9685 70.0659 79.7706 70.8063 80.5974C70.9667 80.7825 71.1148 80.8812 71.2629 80.8689L71.2629 80.2272C69.017 77.8333 66.7958 75.4516 64.5129 73.0083C65.3767 72.4653 66.2405 71.9347 67.1043 71.4041C68.0545 72.5641 69.0047 73.7117 69.9425 74.847C70.2387 75.2048 70.5348 75.5627 70.8557 75.8959C70.9914 76.0316 71.1272 76.1057 71.2506 76.0933L71.2506 75.5133C70.868 75.0938 70.4855 74.7236 70.1523 74.3163C69.4119 73.4279 68.6838 72.5147 67.9558 71.6139C67.672 71.2684 67.4869 71.0092 68.0175 70.6514C68.5481 70.3058 68.98 69.7999 69.4613 69.3557C69.9178 69.9356 70.3744 70.491 70.8187 71.0586C70.9667 71.256 71.1148 71.3424 71.2506 71.3424L71.2506 70.8611C70.757 70.1824 70.3497 69.6025 69.9425 69.0225C69.8932 68.9484 69.8685 68.788 69.9178 68.714C70.3744 67.7268 70.8433 66.7396 71.2506 65.8758C71.2506 65.8758 71.2506 65.8758 71.2506 65.8881L71.2506 60.7917C70.6582 60.7794 70.0783 60.6683 69.4736 60.4832C67.7583 59.9526 66.2158 59.1505 64.8831 57.9535C63.8712 57.0403 63.2295 55.868 62.6619 54.6464C62.0572 53.3507 62.0943 51.9809 62.1683 50.5742C62.8347 50.5742 63.4887 50.5742 64.1797 50.5742C64.3402 51.2282 64.4512 51.9069 64.661 52.5609C65.6729 55.6089 67.709 57.5833 70.8433 58.3114C70.9791 58.336 71.1025 58.3607 71.2382 58.3731L71.2382 57.7807C70.3251 57.7931 69.5106 57.4229 68.7332 56.9416C66.7341 55.6953 65.3644 53.943 64.9325 51.5614C64.8708 51.2282 64.8338 50.8827 64.7721 50.4755C65.5495 50.3027 66.2529 50.1423 67.0179 49.9695C67.1043 50.3027 67.203 50.6235 67.2894 50.9567C67.6843 52.4375 68.437 53.6715 69.8068 54.4243C70.3004 54.6957 70.7816 54.8438 71.2382 54.8685L71.2382 54.3502C70.4855 54.3626 69.8068 53.9307 69.054 53.1656C68.2026 52.3018 67.8324 51.1665 67.5979 49.9942C67.5732 49.8708 67.6843 49.6734 67.7954 49.5993C68.2519 49.2785 68.7209 48.9823 69.1157 48.7232C69.4366 49.4266 69.6834 50.1546 70.0906 50.7963C70.3991 51.2899 70.8187 51.5367 71.2259 51.5367L71.2259 50.7716C71.0408 50.7593 70.8557 50.6606 70.6829 50.4878C69.9795 49.7968 69.7574 48.9083 69.7698 47.9951C69.7698 47.5879 70.1893 47.193 70.3991 46.7735C70.7076 46.1564 70.9914 45.5271 71.2135 45.0705C71.2259 45.0829 71.2259 45.0952 71.2382 45.1076L71.2382 41.2945C69.6093 41.2945 68.2643 40.4677 67.2401 39.2584C66.1418 37.9627 65.821 36.4202 66.2158 34.7296C66.3022 34.3718 66.4133 34.236 66.7835 34.2607C67.129 34.2854 67.4745 34.2607 67.8447 34.2607C67.8447 34.9024 67.8324 35.4577 67.8447 36.013C67.8941 37.9874 69.0911 39.3201 70.5348 39.752C70.7693 39.826 71.0161 39.8507 71.2506 39.8631L71.2506 39.2954C70.288 39.2954 69.3625 38.6908 68.8443 37.7406C68.2396 36.6176 68.289 35.396 68.4617 34.1743C68.4741 34.0879 68.5851 33.9892 68.6715 33.9275C69.1157 33.6313 69.5723 33.3475 70.0783 33.0267C69.9795 33.6313 69.8191 34.2113 69.8068 34.7913C69.7944 35.396 69.8438 36.0253 69.9919 36.6053C70.1276 37.1236 70.7323 37.4938 71.2382 37.4814L71.2382 36.9015C70.9791 36.9015 70.6212 36.6053 70.4855 36.3461C70.3251 36.0377 70.288 35.6304 70.3004 35.2849C70.3497 34.0756 70.6212 32.9156 71.1518 31.8297C71.1642 31.805 71.1889 31.7927 71.2506 31.7803L71.2506 29.2877C71.2012 29.2877 71.1395 29.2877 71.0778 29.2877C69.9178 29.2506 68.8443 28.14 68.7949 26.9801C68.7826 26.7703 68.7209 26.5605 68.7209 26.3507C68.7085 25.9188 68.7332 25.5363 69.2885 25.3882C70.1893 25.1538 70.8433 24.5861 71.2382 23.6359L71.2382 23.6483L71.2382 21.4394C71.2382 21.4394 71.2382 21.4394 71.2259 21.4394C71.0408 21.4394 70.794 21.1926 70.7076 20.9952C70.0783 19.5884 70.5595 18.3174 71.2382 16.923L71.2382 12.2091C71.2382 12.2214 71.2259 12.2338 71.2259 12.2461C70.6336 10.864 70.0783 9.64237 70.6829 8.27264C70.7816 8.03818 71.0408 7.86541 71.2259 7.66797C71.2382 7.68031 71.2382 7.68031 71.2506 7.69265L71.2506 5.4838C71.2506 5.4838 71.2506 5.49613 71.2382 5.49613C70.831 4.53362 70.1276 3.99065 69.2021 3.70683C69.017 3.64513 68.7949 3.39833 68.7826 3.21323C68.6962 2.30007 68.906 1.04139 69.7327 0.399712C70.1893 0.0418513 70.7199 -0.118568 71.2506 -0.118568L71.2506 -2.61125C71.1765 -2.59891 71.1148 -2.59891 71.0408 -2.58657C70.794 -3.68483 70.4978 -4.78309 70.3251 -5.89369C70.251 -6.32559 70.3374 -6.84387 70.5102 -7.25109C70.6089 -7.49789 70.9791 -7.74469 71.2506 -7.76937L71.2506 -8.38637C71.2259 -8.38637 71.2135 -8.38637 71.1889 -8.38637C70.6582 -8.36169 70.0412 -7.92979 69.9549 -7.32513C69.8438 -6.58473 69.8808 -5.80731 69.8932 -5.05457C69.9055 -4.68437 70.0166 -4.30183 70.0783 -3.91929C69.597 -4.22779 69.091 -4.46225 68.7085 -4.82011C68.4864 -5.02989 68.4247 -5.44945 68.3877 -5.78263C68.2396 -7.25109 68.4494 -8.59615 69.671 -9.60803C70.177 -10.0276 70.7076 -10.2004 71.2382 -10.188L71.2382 -10.7433C70.5595 -10.768 69.9549 -10.4842 69.3996 -10.0646C68.326 -9.25018 67.8324 -8.12723 67.8324 -6.78217C67.8324 -6.26389 67.8324 -5.74561 67.8324 -5.14095C67.4252 -5.14095 66.9809 -5.11627 66.5367 -5.15329C66.4256 -5.16563 66.2775 -5.35073 66.2405 -5.48647C65.5495 -8.05319 66.8699 -10.5706 68.9553 -11.4714C69.6217 -11.7552 70.3127 -12.1748 71.0038 -12.1994C71.0778 -12.1994 71.1642 -12.1994 71.2382 -12.1994L71.2382 -16.0248C71.2382 -16.0125 71.2259 -16.0002 71.2259 -16.0002C70.9174 -16.6048 70.5719 -17.4193 70.1153 -18.172C69.8068 -18.6656 69.6464 -19.1469 69.8685 -19.6775C70.1029 -20.2575 70.3744 -20.8374 70.7199 -21.3557C70.868 -21.5655 71.0531 -21.6642 71.2382 -21.6395L71.2382 -22.417C70.8187 -22.417 70.3991 -22.1331 70.0412 -21.5655C69.6587 -20.9608 69.4242 -20.2575 69.1281 -19.5911C68.6715 -19.8996 68.1285 -20.2575 67.5486 -20.64C67.9188 -22.5157 68.5604 -24.2063 70.5102 -25.0577C70.757 -25.1688 70.9914 -25.2181 71.2259 -25.2181L71.2259 -25.7611C70.3868 -25.7858 69.6834 -25.3169 69.0417 -24.7739C68.1039 -23.9841 67.4992 -22.9476 67.2647 -21.7259C67.203 -21.4298 67.092 -21.1336 67.0056 -20.8374C66.2405 -21.0225 65.5248 -21.183 64.7844 -21.3557C64.9818 -24.3667 66.5243 -26.4892 68.9553 -27.9823C69.7204 -28.4512 70.4855 -28.661 71.2259 -28.6487L71.2259 -29.204C70.3004 -29.2163 69.4489 -28.8584 68.6838 -28.4265C66.8945 -27.4023 65.5248 -25.9215 64.7967 -23.9595C64.5623 -23.3178 64.4512 -22.6144 64.3155 -21.9357C64.2538 -21.5902 64.1551 -21.3804 63.7355 -21.4051C63.2172 -21.4421 62.6989 -21.4174 62.193 -21.4174C61.7981 -24.0335 62.6372 -26.2177 64.2414 -28.1427C65.8456 -30.0801 68.0422 -31.0303 70.3991 -31.6103C70.6582 -31.672 70.9421 -31.6966 71.2259 -31.6843L71.2259 -36.7684C71.2259 -36.7684 71.2259 -36.7684 71.2259 -36.756C70.831 -37.6075 70.3744 -38.57 69.9302 -39.5325C69.8808 -39.6436 69.8808 -39.8534 69.9425 -39.9521C70.3251 -40.5321 70.7323 -41.0874 71.2135 -41.7537C71.2135 -41.7537 71.2135 -41.7414 71.2259 -41.7414L71.2259 -42.2597C71.0161 -42.2597 70.8187 -41.9882 70.3374 -41.4452C70.0042 -41.075 69.7451 -40.6308 69.4736 -40.2483C68.8319 -40.8282 68.2149 -41.3712 67.5239 -42.0005C68.7579 -43.4937 69.9548 -44.9498 71.2382 -46.5046L71.2382 -47.0476C71.1025 -47.0476 70.9667 -46.9612 70.831 -46.8008C69.5847 -45.32 68.3383 -43.8392 67.0673 -42.3214C66.2405 -42.8273 65.3891 -43.3579 64.4882 -43.9132C66.7588 -46.3442 68.98 -48.7135 71.2259 -51.1321L71.2259 -51.7985C71.0531 -51.7985 70.8804 -51.6381 70.5719 -51.2926C69.1157 -49.7007 67.6473 -48.1335 66.1788 -46.554C65.5495 -45.8753 64.9078 -45.2089 64.2908 -44.5056C64.0687 -44.2464 63.8836 -44.1354 63.5627 -44.3328C62.884 -44.74 62.1807 -45.1102 61.3292 -45.5915C64.661 -49.022 67.9064 -52.3662 71.2259 -55.7967L71.2259 -56.3026C71.1148 -56.3026 70.9544 -56.1916 70.757 -55.9941ZM36.1062 -46.3566C40.6473 -45.0609 45.1514 -43.7898 49.7419 -42.4818C49.2853 -41.6797 48.9275 -41.038 48.5696 -40.4087C48.3598 -40.0508 48.113 -39.9274 47.6688 -40.0755C44.6949 -41.0133 41.7209 -41.9018 38.747 -42.815C38.0066 -43.0371 37.9696 -43.0001 37.8091 -42.2473C37.3526 -40.2112 36.8836 -38.1875 36.4147 -36.1514C36.1803 -35.1395 35.9335 -34.1153 35.7113 -33.1034C35.6496 -32.7949 35.5509 -32.6098 35.2054 -32.6221C34.428 -32.6345 33.6629 -32.6221 32.7497 -32.6221C33.6012 -37.2743 34.9586 -41.7291 36.1062 -46.3566ZM45.3736 -33.7821C44.8923 -33.9919 44.3987 -34.214 43.9174 -34.4361C42.8809 -34.9174 42.7575 -34.868 42.5354 -33.7698C42.4243 -33.2021 42.3873 -32.6221 42.3256 -32.0422C41.5975 -32.1902 40.8818 -32.3136 40.1908 -32.4987C40.0427 -32.5358 39.8329 -32.7949 39.8576 -32.9183C40.1291 -34.6459 40.4499 -36.3735 40.7584 -38.1011C40.7584 -38.1258 40.8078 -38.1505 40.9188 -38.2615C42.6464 -37.6198 44.411 -36.9535 46.2003 -36.2871C45.9042 -35.3986 45.6574 -34.6336 45.3736 -33.7821ZM45.5833 -29.821C45.0774 -30.2158 44.6208 -30.7835 44.0285 -31.0179C42.7698 -31.5239 42.8315 -32.4494 42.9919 -33.4859C43.0166 -33.671 43.0536 -33.8685 43.1153 -34.1893C43.8434 -33.8685 44.5344 -33.56 45.2255 -33.2391C45.3119 -33.2021 45.3365 -33.0047 45.3489 -32.8813C45.4353 -31.8694 45.5093 -30.8575 45.5833 -29.821ZM44.0532 -37.6569C43.0166 -38.0394 41.9801 -38.3849 40.9435 -38.7551C40.5239 -38.9032 40.3142 -38.7921 40.2401 -38.3109C40.092 -37.3607 39.8576 -36.4229 39.6848 -35.4727C39.5244 -34.5225 39.401 -33.5723 39.2653 -32.5728C38.2534 -32.6221 37.2538 -32.6592 36.2049 -32.7085C36.9453 -35.9169 37.6857 -39.1006 38.4261 -42.3214C41.5482 -41.3712 44.6825 -40.4087 47.8786 -39.4338C47.385 -38.5207 46.9284 -37.6569 46.4348 -36.7437C45.6204 -37.0522 44.8429 -37.373 44.0532 -37.6569ZM24.6794 -22.1948C24.7411 -24.7862 24.7781 -27.39 24.7904 -29.9814C24.7904 -30.6724 24.6917 -31.3635 24.6424 -32.0175C27.061 -32.0175 29.492 -32.0175 31.923 -32.0175C32.7004 -32.0175 33.4778 -32.0051 34.2552 -32.0175C34.7982 -32.0298 35.3288 -32.1162 35.8718 -32.1162C36.8713 -32.1285 37.8832 -32.1532 38.8827 -32.0792C39.6848 -32.0175 40.4869 -31.8447 41.2767 -31.6966C42.7205 -31.4252 43.8311 -30.5614 44.9417 -29.6729C46.2003 -28.661 46.6939 -27.1432 47.5331 -25.9215C47.1999 -25.5637 46.8914 -25.2181 46.5459 -24.8356C46.1016 -25.4773 45.7314 -26.1436 45.2378 -26.6866C43.5102 -28.587 41.4371 -29.7963 38.8334 -30.1912C36.7356 -30.512 34.6378 -30.4873 32.54 -30.5367C30.6273 -30.586 28.7146 -30.4133 26.8019 -30.3516C26.481 -30.3392 26.3576 -30.2405 26.3453 -29.9197C26.3453 -29.4137 26.2712 -28.9201 26.2589 -28.4142C26.2219 -26.1807 26.1478 -23.9595 26.1849 -21.7259C26.2219 -19.3073 26.407 -16.8763 27.4929 -14.6674C27.9001 -13.8407 28.6035 -13.1496 29.1835 -12.4216C29.455 -12.076 29.7264 -11.7182 30.0596 -11.4344C30.6149 -10.9901 31.2196 -10.6076 31.8736 -10.1387C31.4911 -9.80547 31.1455 -9.49697 30.763 -9.17613C29.5537 -9.99057 28.0605 -10.5459 26.987 -11.7675C25.6049 -13.3471 24.8275 -15.1364 24.7041 -17.2218C24.6424 -18.2214 24.5436 -19.2209 24.5313 -20.2204C24.4943 -20.8991 24.667 -21.5408 24.6794 -22.1948ZM61.6007 -32.5851C60.9466 -33.054 60.379 -33.3749 59.9101 -33.8315C59.725 -34.0166 59.688 -34.4485 59.725 -34.757C59.9348 -36.1884 60.342 -37.5952 60.379 -39.0266C60.4284 -40.7542 60.1199 -42.4571 58.9229 -43.8515C58.8982 -43.8762 58.9105 -43.9256 58.8982 -44.1354C60.1075 -43.3456 61.2428 -42.6422 62.3287 -41.8648C63.2296 -41.2108 63.4147 -40.2236 63.1432 -39.1994C62.8717 -38.1751 62.4892 -37.1756 62.1313 -36.1761C61.7364 -35.0284 61.2428 -33.9178 61.6007 -32.5851ZM59.8237 -38.2245C59.7497 -37.0892 59.3795 -35.9539 59.0216 -34.8557C58.7501 -33.9919 57.9974 -33.7327 57.3187 -34.2387C54.8754 -36.0403 53.2712 -38.3849 53.2342 -41.4946C53.2218 -43.1728 53.9622 -44.6783 54.9988 -45.9987C58.7131 -44.4315 60.0952 -42.0499 59.8237 -38.2245ZM55.3073 -35.3246C55.7638 -34.8187 56.2328 -34.3374 56.7017 -33.8438C56.9855 -33.5476 57.0842 -33.2638 56.8621 -32.8566C56.5906 -32.3507 56.3932 -31.8077 56.097 -31.129C55.3936 -33.0417 53.7154 -33.8685 52.4321 -35.0778C51.9878 -35.4974 51.5065 -35.9046 51.124 -36.3982C50.4206 -37.3113 50.4823 -38.3232 50.9636 -39.2981C51.4695 -40.3346 52.0495 -41.3342 52.6295 -42.4078C52.6788 -41.6057 52.6542 -40.8899 52.7776 -40.2112C53.1354 -38.3356 54.0362 -36.719 55.3073 -35.3246ZM53.8141 -33.2638C54.8013 -32.4987 55.4677 -31.5239 55.8626 -30.3763C55.986 -30.0061 55.9613 -29.5742 55.9983 -29.1793C55.9489 -29.1299 55.9119 -29.0806 55.8626 -29.0312C53.9005 -30.0801 51.9138 -31.1043 49.9764 -32.2149C49.5321 -32.4617 49.2113 -32.9677 48.8905 -33.3872C48.6313 -33.7327 48.693 -34.1276 48.8534 -34.5348C49.1743 -35.3986 49.4581 -36.2748 49.7913 -37.2373C50.8772 -35.522 52.358 -34.3991 53.8141 -33.2638ZM54.3818 -29.2903C55.369 -28.9078 56.2204 -28.3278 56.7757 -27.353C57.1089 -26.7483 57.5778 -26.23 58.0097 -25.6254C57.2076 -25.9585 56.4672 -26.3041 55.6898 -26.5755C54.5545 -26.9828 53.3699 -27.0321 52.1853 -26.9334C51.0623 -26.847 50.4206 -27.4393 49.8777 -28.2908C49.2853 -29.2286 48.9892 -30.2529 48.8534 -31.3511C48.8041 -31.7707 48.7424 -32.1779 48.693 -32.6098C50.3219 -31.0303 52.3086 -30.1048 54.3818 -29.2903ZM50.2972 -26.193C52.5554 -26.6126 54.7767 -26.6002 56.8745 -25.539C58.7748 -24.5641 60.3914 -23.2808 61.0824 -21.0966C60.5148 -20.7757 59.9348 -20.4426 59.4412 -20.1711C58.6761 -20.8991 58.0097 -21.6642 57.22 -22.2689C56.023 -23.182 54.6162 -23.7127 53.1108 -23.8607C52.4321 -23.9224 51.7287 -23.9101 51.0376 -23.8607C49.1496 -23.7127 48.113 -22.4293 47.2863 -20.9238C46.6076 -19.6898 46.4101 -18.3324 46.3237 -16.9627C46.2374 -15.741 46.6076 -14.5934 47.0518 -13.4705C47.0888 -13.3717 47.1382 -13.2607 47.1875 -13.1249C46.5952 -12.7671 46.0152 -12.4339 45.4476 -12.0884C43.066 -14.8525 43.2017 -19.3937 45.2131 -22.3059C45.7931 -23.145 46.4471 -23.9471 47.1012 -24.7245C47.9279 -25.6871 49.1002 -25.9709 50.2972 -26.193ZM67.4128 10.7036C66.6107 10.4198 65.858 10.1977 65.0682 10.5062C64.9572 10.5432 64.7844 10.5062 64.6857 10.4321C63.6244 9.66705 63.0445 8.79092 63.4393 7.47054C63.5257 7.16203 63.9329 6.80417 64.2538 6.70545C65.3891 6.38461 66.5367 6.92757 67.1167 7.93945C67.1907 8.0752 67.2277 8.28497 67.1784 8.43305C66.9192 9.19814 67.1413 9.91386 67.4128 10.7036ZM67.1907 20.699C67.2401 20.8471 67.166 21.0816 67.0796 21.2296C66.438 22.2415 65.3891 22.7104 64.2538 22.4019C63.9206 22.3032 63.5257 21.9207 63.4147 21.5875C63.0691 20.5016 63.6738 19.2306 64.6857 18.6753C64.7844 18.6259 64.9325 18.5519 65.0065 18.5889C65.821 18.9838 66.5737 18.6629 67.4005 18.4285C67.1537 19.2182 66.9069 19.9216 67.1907 20.699ZM62.1313 65.2835C62.4398 66.1226 62.773 66.9494 63.0198 67.8008C63.6738 70.0467 62.8223 70.7131 61.4649 71.6386C60.6628 72.1815 59.8114 72.6381 58.8859 73.0453C59.0463 72.8356 59.2437 72.6505 59.3671 72.416C60.2433 70.7501 60.6011 68.9731 60.3297 67.0974C60.1692 65.9745 59.8854 64.8639 59.6633 63.7533C59.5893 63.3831 59.6263 63.0993 59.9965 62.8772C60.5147 62.5563 60.9837 62.1491 61.5883 61.6925C61.2675 63.0376 61.7241 64.1605 62.1313 65.2835ZM59.3054 71.3054C58.7748 72.7738 57.5655 73.6747 56.3192 74.5138C55.9366 74.7729 55.4924 74.9333 55.0358 75.1678C53.8882 73.6253 53.1354 71.9594 53.2465 70.0467C53.2958 69.2199 53.592 68.3932 53.9005 67.6034C54.5422 66.0115 55.5787 64.6911 56.9238 63.6299C57.985 62.8031 58.6637 62.9759 59.145 64.2222C60.0582 66.5545 60.1569 68.9361 59.3054 71.3054ZM56.64 63.0376C55.6775 64.1729 54.6779 65.2835 53.8512 66.5051C53.0737 67.6651 52.7159 69.0348 52.6542 70.4416C52.6418 70.7624 52.7282 71.0833 52.7899 71.5398C52.6171 71.3054 52.4937 71.1696 52.4197 71.0216C51.9014 70.0344 51.3461 69.0595 50.8772 68.0476C50.2849 66.7889 50.7662 65.7277 51.6917 64.8639C52.6665 63.9507 53.7401 63.1486 54.7026 62.2355C55.2579 61.7049 55.7022 61.0385 56.1958 60.4215C56.3932 60.8781 56.5783 61.4087 56.8498 61.89C57.1089 62.3836 56.9485 62.6797 56.64 63.0376ZM49.779 66.357C49.3964 65.2094 48.9028 64.1852 48.73 63.0993C48.619 62.3959 49.2607 61.8159 49.853 61.384C51.2844 60.3351 52.8516 59.5577 54.5052 58.916C54.9864 58.7309 55.443 58.4841 55.986 58.225C56.0106 60.2117 54.9371 61.5074 53.5056 62.6304C52.1482 63.6793 50.7908 64.7528 49.779 66.357ZM53.6537 58.7309C51.8644 59.2862 50.2232 60.2364 48.7547 61.6678C48.8288 60.3968 48.9768 59.2492 49.4704 58.188C49.6432 57.8178 49.853 57.4722 50.0751 57.1267C50.5687 56.3987 51.2227 55.9668 52.1729 56.0285C54.209 56.1765 56.1464 55.8063 57.9357 54.7081C56.8128 56.3987 55.7885 58.0646 53.6537 58.7309ZM54.3941 55.4238C52.4937 55.7817 50.6181 55.4978 48.7917 54.9302C48.3228 54.7821 47.8416 54.523 47.496 54.1898C45.7684 52.4992 44.3247 50.6112 43.8804 48.1679C43.4732 45.9467 43.6213 43.7748 44.991 41.8374C45.1391 41.6277 45.2625 41.4179 45.4229 41.1711C46.0399 41.5289 46.5952 41.8621 47.0765 42.1583C46.842 43.1578 46.5582 44.108 46.3978 45.0705C46.1757 46.4033 46.4348 47.7236 46.8544 48.9947C47.1999 50.0312 47.7675 50.9444 48.5079 51.7588C49.236 52.5733 50.1738 52.8941 51.1857 52.9805C54.5175 53.2766 57.1829 52.0673 59.1944 49.3895C59.2314 49.3402 59.2684 49.3032 59.3301 49.2291C59.9101 49.5623 60.5024 49.8831 61.1071 50.2287C59.8607 53.2643 57.5038 54.8438 54.3941 55.4238ZM41.832 51.7835C41.6962 50.7346 41.4988 49.7104 41.9307 48.7108C42.2886 47.8717 42.6958 47.0696 43.0043 46.3909C43.2881 47.5509 43.5596 48.8466 43.9421 50.1053C44.1149 50.6852 44.4604 51.2405 44.8306 51.7341C45.5463 52.6967 45.2995 53.5975 44.8183 54.5477C44.1396 55.8927 42.9426 56.7195 41.7579 57.6573C42.1528 55.6706 42.0911 53.7209 41.832 51.7835ZM29.7635 33.693C29.8005 34.6309 29.3933 35.2355 28.6899 35.7415C27.3572 36.704 25.8147 36.9508 24.1241 37.0989C25.6666 35.4823 26.5551 33.619 27.3201 31.6816C27.7644 30.5587 28.369 29.5838 29.4796 28.9792C30.0473 28.6707 30.5285 28.2264 30.9728 27.9056C30.6396 28.9175 30.1954 29.954 29.9486 31.0523C29.7511 31.9037 29.7264 32.8169 29.7635 33.693ZM31.1332 1.34989C29.5907 0.128231 27.8384 -0.661529 27.2338 -2.70997C26.7648 -4.28949 25.3951 -6.81919 24.1241 -7.95447C25.9998 -7.86809 26.987 -7.62129 28.2827 -6.89323C29.2452 -6.35027 29.8252 -5.64689 29.7635 -4.42523C29.6524 -2.42615 29.7881 -1.27853 31.1332 1.34989ZM26.8389 -29.7593C28.7639 -30.0431 30.5779 -29.8703 32.1574 -28.8461C33.6012 -27.9083 34.5884 -26.5138 35.1931 -24.8973C35.5509 -23.9471 35.8101 -22.9476 35.9458 -21.9357C36.0569 -21.0719 35.6126 -20.6523 34.7241 -20.7264C32.8608 -20.8621 31.2196 -21.6025 29.7018 -22.6638C27.5546 -24.1692 26.7278 -26.2794 26.8512 -28.8338C26.8512 -29.1423 26.8389 -29.4384 26.8389 -29.7593ZM41.7333 -28.5376C43.2017 -27.4147 44.6455 -26.3658 45.1638 -24.5148C45.3242 -23.9348 45.3242 -23.4165 44.954 -22.8735C43.757 -21.1459 43.14 -19.2209 43.1647 -16.9997C42.1528 -18.9494 41.3384 -20.7634 41.8443 -23.0093C42.2392 -24.7739 42.1528 -26.6372 41.7333 -28.5376ZM43.2758 -14.7785C43.5226 -14.0751 43.7817 -13.3717 44.0285 -12.656C42.5847 -13.1866 41.1409 -13.6802 39.7342 -14.2479C37.8462 -15.013 36.5505 -16.3457 36.0692 -18.3694C35.9581 -18.826 36.0322 -19.332 36.0939 -19.8132C36.1679 -20.3685 36.5875 -20.6153 37.1304 -20.6523C38.8951 -20.7881 40.2771 -20.0477 41.3877 -18.7273C42.3749 -17.5797 42.8068 -16.1606 43.2758 -14.7785ZM41.4741 -24.2433C41.4371 -23.0216 41.2026 -21.8 41.0546 -20.5413C39.8082 -21.1583 39.1172 -22.2565 38.784 -23.5522C38.5125 -24.6135 38.4015 -25.7241 38.1547 -26.7977C37.9202 -27.8342 37.5994 -28.8584 37.3032 -29.9073C38.2781 -29.7222 39.364 -29.6112 40.3635 -29.2533C40.7831 -29.1052 41.178 -28.4265 41.252 -27.9453C41.4494 -26.7236 41.5111 -25.4773 41.4741 -24.2433ZM37.4389 -27.6861C37.6611 -26.8594 37.7845 -25.9956 37.9325 -25.1318C38.1547 -23.8607 38.2904 -22.565 39.2529 -21.4421C38.4508 -21.5038 37.7598 -21.5161 37.1058 -21.6519C36.896 -21.7012 36.6862 -22.0838 36.6122 -22.3553C36.0815 -24.268 35.4892 -26.1436 34.1688 -27.6861C33.3421 -28.6487 32.4906 -29.5742 31.1826 -29.895C31.1949 -29.9567 31.2072 -30.0307 31.2196 -30.0924C32.54 -30.0061 33.848 -29.932 35.1684 -29.8333C36.4888 -29.7346 37.1181 -28.8338 37.4389 -27.6861ZM33.3544 -20.3809C35.045 -19.8749 35.045 -19.8502 35.2054 -18.098C35.2177 -17.9375 35.2424 -17.7648 35.2671 -17.4933C33.4161 -18.8877 31.2196 -18.6779 29.2328 -19.1962C27.604 -19.6281 26.9746 -20.2945 26.7525 -21.9357C26.7155 -22.2319 26.6908 -22.5404 26.6908 -22.8489C26.6785 -23.7373 26.6908 -24.6258 26.6908 -25.5883C28.0112 -22.6021 30.4792 -21.2323 33.3544 -20.3809ZM32.3055 -18.1103C33.4531 -17.9375 34.4527 -17.481 35.3288 -16.7406C35.6743 -16.4444 35.9088 -16.0372 36.316 -15.5312C34.1565 -15.4078 32.1698 -15.2474 30.1954 -15.2227C29.492 -15.2104 28.7763 -15.5066 28.0852 -15.704C27.6657 -15.8151 27.4312 -16.1236 27.3572 -16.5801C27.1967 -17.5427 26.9746 -18.5052 26.7648 -19.5417C28.5541 -18.6162 30.4422 -18.3941 32.3055 -18.1103ZM32.8238 -14.7415C33.6876 -14.7785 34.539 -14.9636 35.4028 -15.0376C36.1926 -15.1117 36.9207 -14.8896 37.624 -14.5194C38.2287 -14.1985 38.8951 -13.9517 39.6478 -13.6185C38.9444 -13.5445 38.3521 -13.4951 37.7721 -13.4088C36.4271 -13.2113 35.1931 -12.7054 34.1071 -11.9156C33.2804 -11.3233 32.4412 -11.348 31.5898 -11.7305C30.0843 -12.3969 29.1218 -13.6556 28.1222 -15.013C29.7758 -14.544 31.306 -14.6674 32.8238 -14.7415ZM32.7251 -10.2744C34.2305 -11.4961 35.8224 -12.5326 37.7721 -12.8535C40.2525 -13.2607 42.5847 -12.9522 44.6208 -11.2369C44.2753 -10.6693 43.9421 -10.0893 43.683 -9.65739C42.3873 -9.91653 41.1903 -10.3484 39.9933 -10.3608C37.9202 -10.3855 35.9581 -9.83015 34.3046 -8.42339C32.9595 -7.27577 32.7127 -5.78263 32.7621 -4.16609C32.7991 -2.72231 33.231 -1.34023 33.9961 -0.155586C34.6748 0.893314 35.6126 1.78179 36.5011 2.79367C36.2543 3.22557 35.9335 3.80555 35.6003 4.38553C32.3425 3.34897 30.146 -0.710892 30.3064 -3.52441C30.3558 -4.51161 30.4545 -5.48647 30.5409 -6.47367C30.6766 -8.06553 31.4911 -9.27485 32.7251 -10.2744ZM48.4956 7.74202C48.5203 7.76669 48.5079 7.81606 48.5449 7.9518C47.1752 7.61862 45.8548 7.32246 44.5591 6.9646C44.374 6.91524 44.2013 6.59439 44.1642 6.35994C43.9051 4.76807 42.9673 3.71917 41.4494 3.37365C39.8699 3.01579 38.1423 3.62045 37.624 5.45911C36.9207 7.9518 39.2282 9.8028 41.3507 9.46962C42.3996 9.29686 43.177 8.77858 43.8187 7.98882C43.9174 7.86542 44.1272 7.71734 44.2506 7.74202C45.5957 8.11221 46.9407 8.53178 48.2981 8.92665C47.5948 9.33388 46.8914 9.65472 46.2744 10.099C44.991 11.0368 44.4481 12.4559 43.9545 13.8997C43.9051 14.0478 43.7323 14.2822 43.646 14.2822C42.56 14.1588 41.4248 14.1465 40.4005 13.801C37.6611 12.8755 36.1309 10.8887 35.9211 7.98882C35.8594 7.03864 35.8101 6.03909 36.0445 5.12593C36.279 4.23745 36.7849 3.38599 37.3279 2.63325C38.0559 1.63371 38.8951 0.683529 40.0797 0.17759C40.6597 -0.0692099 41.2767 -0.24197 41.906 -0.32835C43.7694 -0.562809 45.4723 0.00482956 47.0641 0.930332C47.1999 1.00437 47.348 1.27585 47.3109 1.41159C46.731 3.71917 46.8544 5.86634 48.4956 7.74202ZM62.7483 6.0391C61.8105 5.55784 60.8726 5.34805 59.8607 5.50847C59.7373 5.53315 59.5399 5.43443 59.4659 5.32337C59.0833 4.79275 58.6761 4.27447 58.3676 3.69449C58.0468 3.07749 58.2195 2.43581 58.7255 1.96689C59.2191 1.49797 59.8114 1.32521 60.416 1.67073C60.9713 1.97923 61.4773 2.36177 61.9956 2.73197C62.1066 2.81835 62.23 3.00345 62.2053 3.11451C62.0573 4.13873 62.2547 5.10126 62.7483 6.0391ZM61.4649 6.11313C61.6994 6.19951 61.9338 6.29824 62.156 6.4093C62.9951 6.82886 62.9828 6.82886 62.81 7.7667C62.6619 8.54412 62.9087 9.2475 63.4023 10.0249C62.267 9.86449 61.4526 10.2964 60.7245 10.9628C60.6381 11.0491 60.4654 11.1232 60.3543 11.0862C58.8489 10.7283 57.8493 8.92666 58.3553 7.49522C58.6638 6.64376 60.0335 5.57018 61.4649 6.11313ZM62.9211 21.8713C62.9581 21.9947 62.884 22.2292 62.7853 22.3032C61.6377 23.1794 60.2063 23.5619 58.9846 22.4513C57.9974 21.5505 57.9233 20.045 58.8859 19.0455C59.2437 18.6753 59.688 18.3791 60.1322 18.1076C60.2803 18.0212 60.6258 18.0583 60.7616 18.1817C61.4896 18.8233 62.2917 19.2182 63.4023 19.0948C62.7606 20.0327 62.6372 20.9211 62.9211 21.8713ZM62.193 25.9065C62.2053 26.0546 62.1313 26.2767 62.0326 26.3631C61.5266 26.7456 61.0207 27.1405 60.4654 27.4243C59.7744 27.7822 59.2191 27.6464 58.6884 27.1035C58.1948 26.5975 58.0591 26.0176 58.4046 25.3635C58.7008 24.8082 59.0957 24.3023 59.4659 23.7964C59.5399 23.6853 59.7373 23.5866 59.8607 23.6113C60.922 23.821 61.8722 23.5125 62.81 23.0313C62.267 23.9568 62.0819 24.8946 62.193 25.9065ZM47.0518 25.672C47.1505 26.3507 47.2492 27.0294 47.3109 27.7081C47.3233 27.8562 47.1999 28.0783 47.0765 28.1524C45.1391 29.3247 43.0413 29.7936 40.8324 29.226C40.1167 29.0409 39.4133 28.5843 38.8334 28.103C38.1547 27.5354 37.5994 26.8197 37.0441 26.1286C35.8224 24.5861 35.5262 22.8092 35.9458 20.9211C36.1432 20.045 36.3777 19.1565 36.6985 18.3174C37.0687 17.3425 37.8832 16.7502 38.7223 16.1579C40.2154 15.0843 41.906 14.9733 43.6213 14.8375C43.72 14.8252 43.9174 14.9733 43.9421 15.072C44.5838 17.4536 45.7931 19.3293 48.3105 20.1807C46.9778 20.5756 45.6574 20.9828 44.3123 21.353C44.1642 21.3901 43.8928 21.242 43.7817 21.0939C42.7698 19.8352 41.4618 19.4157 39.9069 19.7242C38.7346 19.9586 37.6734 21.3037 37.5377 22.4636C37.4389 23.3521 37.6981 24.0925 38.204 24.7712C39.0925 25.9559 41.2643 26.215 42.5107 25.3142C43.3868 24.6725 44.0408 23.8951 44.1396 22.7598C44.1766 22.2909 44.4481 22.1428 44.88 22.0564C45.9782 21.8343 47.0518 21.5381 48.1501 21.279C48.2611 21.2543 48.3722 21.242 48.5943 21.205C48.2981 21.6492 48.0637 22.0071 47.8292 22.3649C47.1629 23.3768 46.8914 24.4751 47.0518 25.672ZM40.3142 33.6313C40.7337 33.656 41.1533 33.6807 41.5728 33.6313C41.9677 33.582 42.3503 33.4463 42.7822 33.3475C42.7328 33.6807 42.6588 33.9892 42.6341 34.31C42.6094 34.6309 42.6341 34.9641 42.6341 35.3343C41.252 35.8525 39.8576 36.087 38.4138 35.6181C36.8836 35.1121 36.316 34.1126 36.6492 32.385C36.8343 31.3978 37.3279 30.5463 38.0559 29.8306C38.3398 29.5468 38.6483 29.2753 38.9444 28.9915C39.5491 29.2877 40.1167 29.5715 40.7214 29.8676C40.4252 30.1885 40.0797 30.4846 39.8206 30.8548C39.5614 31.2127 39.3516 31.6199 39.2159 32.0395C38.9074 32.9033 39.3763 33.5573 40.3142 33.6313ZM36.7479 30.6697C36.0569 31.7063 35.8471 32.8909 36.0939 34.1126C36.3283 35.2972 37.9696 36.3461 39.4997 36.3585C40.0427 36.3585 40.598 36.3832 41.1286 36.3091C41.6592 36.2351 42.1775 36.05 42.7205 35.9019C42.9426 36.63 43.1524 37.321 43.3868 38.0861C42.2392 38.6907 41.0175 39.0363 39.7342 38.9622C38.4878 38.8882 37.2538 38.6784 36.0939 38.0737C34.6131 37.284 33.4778 36.2844 33.3544 34.4828C33.1446 31.3114 34.3293 28.8064 36.9207 26.9184C37.4636 27.4984 37.9696 28.0413 38.4632 28.5596C37.8708 29.263 37.2415 29.917 36.7479 30.6697ZM41.8196 33.002C41.4001 33.0884 40.9435 33.076 40.5239 33.0143C39.8946 32.9156 39.6848 32.5084 39.9069 31.9161C40.1908 31.1633 40.709 30.5957 41.3754 30.1638C41.5728 30.0404 41.8443 30.0034 42.0911 29.991C43.0907 29.917 44.0779 29.88 44.8183 29.843C44.4604 30.3859 43.8928 31.0893 43.5102 31.8667C43.14 32.6071 42.5107 32.8416 41.8196 33.002ZM35.0573 13.4061C34.0084 14.0601 34.0208 15.0596 35.0697 15.7137C35.699 16.0962 36.4147 16.343 37.0934 16.6515C36.8219 17.0711 36.5134 17.577 36.1803 18.0583C36.1309 18.1323 35.9828 18.2187 35.8964 18.194C34.3663 17.8855 32.9472 17.3549 32.0217 15.9975C31.0962 14.6277 31.3183 13.7639 32.6017 12.4065C33.4655 11.4934 34.6501 11.1355 35.8594 10.8887C35.9581 10.864 36.1186 10.9504 36.1803 11.0368C36.5011 11.5181 36.8096 11.9993 37.0811 12.4312C36.39 12.7644 35.6867 13.0235 35.0573 13.4061ZM37.8091 13.0976C38.1793 13.0976 38.5495 13.4678 38.9197 13.6652C39.5738 13.9984 40.2401 14.3069 40.709 14.5414C39.9193 14.9609 38.9691 15.4915 37.9819 15.9728C37.7721 16.0715 37.4389 16.0468 37.2045 15.9481C36.5505 15.689 35.8964 15.4175 35.3165 15.0473C34.9463 14.8128 34.9709 14.3933 35.2918 14.0478C35.9705 13.3197 36.8836 13.1099 37.8091 13.0976ZM34.2922 10.79C32.7497 11.37 31.5651 12.3202 31.0345 13.949C30.6766 15.0596 31.2319 15.9358 31.8859 16.7009C32.7004 17.6757 33.7616 18.3051 35.0326 18.5395C35.3165 18.5889 35.5879 18.6999 35.8594 18.774C35.7237 19.4157 35.5633 20.008 35.4645 20.6126C35.4152 20.9211 35.3041 20.9952 35.008 20.9582C33.4655 20.7977 32.1081 20.2671 30.8864 19.2923C29.4426 18.1323 28.4061 16.7379 28.0729 14.8992C27.9988 14.5043 28.0729 14.0478 28.2086 13.6652C29.2205 10.5802 31.4294 8.85262 34.5267 8.17392C34.7858 8.11221 35.0573 8.16158 35.3782 8.16158C35.5386 8.84027 35.699 9.556 35.8718 10.3334C35.3411 10.4815 34.7982 10.5926 34.2922 10.79ZM51.0623 13.1223C50.4576 13.1099 49.8283 13.1593 49.2483 13.295C48.7054 13.4184 48.2858 14.0848 48.3228 14.5784C48.3598 15.1954 48.73 15.6149 49.2853 15.8494C50.0628 16.1702 50.8772 16.0839 51.6793 15.9111C52.0372 15.8371 52.395 15.7877 52.7899 15.7137C52.4691 16.2319 52.1729 16.7009 51.8768 17.1698C51.8274 17.2438 51.741 17.3425 51.667 17.3425C50.2479 17.503 48.8534 17.5893 47.6194 16.6268C45.8918 15.2694 46.2744 13.0852 48.1871 12.098C49.2853 11.5304 50.47 11.5921 51.6423 11.7772C51.741 11.7895 51.8521 11.9253 51.9138 12.0363C52.1976 12.4682 52.4814 12.9125 52.7899 13.3937C52.1976 13.295 51.6299 13.1346 51.0623 13.1223ZM53.012 14.0601C53.3822 14.1588 53.7277 14.3563 54.209 14.5537C52.7035 15.2447 51.2844 15.6643 49.7296 15.4175C49.2607 15.3435 48.9151 15.109 48.8905 14.6031C48.8658 14.0601 49.236 13.8133 49.7173 13.7022C50.8525 13.4431 51.9261 13.7763 53.012 14.0601ZM51.5559 11.2219C50.7044 11.2219 49.9023 11.1479 49.1249 11.2342C47.7305 11.3823 46.3854 12.604 46.0399 13.8133C45.5833 15.4669 46.8297 17.0464 48.1254 17.6017C49.0756 18.0089 50.0751 18.0583 51.087 17.9102C51.2104 17.8855 51.3461 17.9102 51.5066 17.9102C51.5312 18.0212 51.5436 18.0583 51.5436 18.0953C51.6053 19.6131 51.5312 19.6995 49.9887 19.7118C47.8045 19.7365 46.1757 18.811 45.2131 16.8366C44.8923 16.1702 44.4727 15.4422 44.4851 14.7388C44.5221 12.8138 45.4476 11.2836 47.0641 10.1853C48.3352 9.32153 49.7296 9.22282 51.1857 9.56834C51.3214 9.60535 51.5312 9.77811 51.5436 9.90152C51.5929 10.3211 51.5559 10.7406 51.5559 11.2219ZM42.0788 24.7095C41.6345 24.8823 41.1533 24.944 40.6844 25.055C39.0555 24.9687 37.9942 23.6483 38.3644 22.0688C38.5372 21.316 39.1912 21.0199 39.7712 20.6867C40.9682 20.008 42.7822 20.2178 43.4485 21.7849C43.8928 22.8215 43.3004 24.2159 42.0788 24.7095ZM49.3841 21.2913C50.0257 20.7484 50.8895 20.4646 51.6793 20.0697C52.0248 20.6497 52.2716 21.0692 52.4567 21.3777C51.6053 22.0071 50.6921 22.55 49.9394 23.2781C48.6437 24.5368 48.656 26.8937 49.927 27.9179C51.0746 28.8558 52.4074 28.9915 53.7648 28.4979C54.5175 28.2264 55.1962 27.7698 55.9119 27.3873C56.1464 27.7822 56.3932 28.2017 56.64 28.6336C54.8507 30.8055 51.667 30.9412 49.7913 29.5345C48.9768 28.9298 48.076 28.4485 47.8045 27.375C47.1999 25.055 47.4837 22.9202 49.3841 21.2913ZM51.3955 25.9805C51.7287 26.6099 52.3457 26.8567 53.3329 26.5112C53.9869 26.289 54.5422 25.7831 55.1345 25.3759C55.3566 25.2278 55.5417 25.0304 55.7639 24.8576C56.06 25.9929 55.7392 26.8073 54.8137 27.375C53.8018 28.0043 52.7529 28.3992 51.5189 28.1154C49.236 27.5847 49.1126 25.1414 50.1738 23.784C50.8649 22.8955 51.815 22.3896 52.8269 21.9824C52.9256 21.9454 53.0614 21.933 53.1478 21.97C53.6414 22.2168 54.135 22.4883 54.5792 22.7228C53.7031 23.1547 52.8022 23.5372 51.9631 24.0555C51.2474 24.4997 51.0623 25.3635 51.3955 25.9805ZM53.7031 25.7831C53.4563 25.9312 53.1848 26.0546 52.901 26.1039C52.4814 26.178 51.9878 26.141 51.8768 25.672C51.8027 25.3635 51.9138 24.8699 52.1359 24.6478C52.9997 23.7717 54.1843 23.5249 55.3196 23.2164C55.6528 23.13 56.0107 23.13 56.4549 23.093C55.7022 24.2776 54.7766 25.1044 53.7031 25.7831ZM53.6044 21.6369C52.4691 20.9335 51.8521 19.391 52.1606 18.1076C52.6171 16.2073 53.9128 15.1213 55.9366 14.8252C56.097 15.2324 56.2451 15.6273 56.4055 16.0345C55.8132 16.3183 55.1715 16.5651 54.6039 16.9106C53.555 17.54 53.3329 18.2804 53.6907 19.5514C53.9128 20.3412 54.9124 20.9828 55.7762 20.8841C56.3809 20.8101 56.9978 20.7731 57.6519 20.7114C57.7136 21.1062 57.7753 21.5135 57.8493 21.97C56.3685 22.6734 54.9741 22.4883 53.6044 21.6369ZM56.5289 20.2795C56.2204 20.2795 55.9119 20.3288 55.6034 20.3165C54.8013 20.3041 54.2954 19.8722 54.0609 19.0208C53.9005 18.4531 54.246 17.6757 54.8384 17.3549C55.2826 17.1204 55.7515 16.9353 56.2081 16.7379C56.5166 16.6145 56.7757 16.6885 57.1089 16.8489C57.8987 17.2315 58.7501 17.4783 59.4288 17.7374C59.034 18.1817 58.3923 18.6999 58.0468 19.3663C57.6889 20.0573 57.22 20.2795 56.5289 20.2795ZM56.566 14.4056C56.6277 12.8384 58.6761 11.5057 60.1075 12.1227C60.2556 12.1844 60.379 12.4189 60.4407 12.5916C60.7862 13.5788 61.2181 14.0848 62.193 14.566C61.2552 14.9856 60.6752 15.6396 60.4407 16.5528C60.3543 16.923 60.1445 17.034 59.8114 17.0834C58.0838 17.3672 56.4919 16.0715 56.566 14.4056ZM61.0577 17.6757C60.9096 17.4906 60.8479 17.1574 60.885 16.9106C61.0454 15.7383 62.3658 14.7141 63.5627 14.8128C63.6491 14.8252 63.7849 14.8375 63.8219 14.8869C64.3031 15.6643 65.1669 15.726 65.9197 15.9975C65.4014 16.5651 64.6857 16.997 64.6857 17.8855C64.6857 17.9719 64.5623 18.0706 64.4759 18.1323C63.4393 18.8604 61.8721 18.6629 61.0577 17.6757ZM64.8338 15.0596C64.6363 14.9733 64.4019 14.7141 64.4019 14.5537C64.4019 14.3809 64.6487 14.1341 64.8338 14.0354C66.2405 13.3814 67.5239 13.912 68.9306 14.5414C67.5115 15.2201 66.2405 15.726 64.8338 15.0596ZM63.8342 14.2329C63.8095 14.2699 63.7355 14.2946 63.6861 14.3069C62.5755 14.6031 60.8603 13.1716 60.8726 12.024C60.8849 11.2713 62.3781 10.3334 63.1925 10.5432C63.5504 10.6419 63.8959 10.7406 64.2414 10.8517C64.5253 10.9504 64.624 11.1602 64.7474 11.4564C64.9942 11.9993 65.4261 12.4559 65.7839 12.9495C65.821 13.0112 65.9197 13.0235 66.0554 13.0976C65.1546 13.3567 64.3155 13.4554 63.8342 14.2329ZM59.2931 11.1479C59.3918 11.2589 59.5275 11.3206 59.7497 11.4934C58.5897 11.4564 57.6766 11.7649 56.8868 12.4065C56.8004 12.4806 56.6153 12.4929 56.5043 12.4559C55.8626 12.1844 55.1839 11.9746 54.6162 11.5921C53.9869 11.1725 53.8882 10.4692 54.172 9.72875C54.3818 9.14877 54.9617 8.76624 55.6898 8.77857C56.134 8.77857 56.5783 8.8156 57.0225 8.8773C57.4051 8.939 57.6519 9.09942 57.874 9.50664C58.2319 10.1236 58.8118 10.6172 59.2931 11.1479ZM57.6519 8.39603C56.9855 8.34667 56.3192 8.27264 55.6405 8.2603C54.715 8.23562 53.9375 8.76624 53.6907 9.53132C53.3082 10.716 53.518 11.5427 54.4558 12.1227C55.0605 12.4929 55.7268 12.7644 56.3809 13.0852C56.2328 13.4678 56.0847 13.875 55.9366 14.2699C53.8388 14.0354 52.7282 12.9125 52.2099 11.2713C51.7904 9.92619 52.1729 8.58114 53.3329 7.68032C54.6903 6.61908 56.2081 6.34759 57.837 7.13735C57.7753 7.59393 57.7136 7.98882 57.6519 8.39603ZM51.9261 5.02721C52.7652 5.55783 53.7031 5.94038 54.5669 6.38462C54.135 6.61908 53.6537 6.87821 53.1478 7.13735C53.0737 7.17437 52.9627 7.19905 52.8886 7.16203C51.778 6.71779 50.7662 6.15015 50.0257 5.16295C49.5075 4.47191 49.3347 2.79367 49.9147 2.02859C50.5193 1.22649 51.8027 0.708214 52.9257 0.942673C53.9375 1.15245 54.789 1.67073 55.5788 2.32475C55.6528 2.38645 55.7392 2.50985 55.7392 2.59623C55.7762 3.13919 55.8009 3.66981 55.8379 4.32383C55.406 3.96597 55.0481 3.63279 54.6409 3.34897C54.2337 3.06516 53.8018 2.79367 53.3452 2.59623C52.5554 2.25071 51.778 2.47283 51.4078 3.10217C51.0623 3.71917 51.2227 4.58297 51.9261 5.02721ZM52.247 4.59531C51.8521 4.31149 51.5929 3.87959 51.8891 3.38599C52.1729 2.89239 52.6665 2.91707 53.1231 3.08983C54.5175 3.63279 55.4924 4.66936 56.3068 5.9157C54.8013 5.89102 53.4439 5.47145 52.247 4.59531ZM54.9001 1.15245C53.5303 0.35035 52.1236 0.0295145 50.5934 0.769913C49.1743 1.46095 48.7547 2.75665 49.0879 4.22511C49.4581 5.84166 50.6304 6.70545 52.0248 7.35947C52.1482 7.42117 52.2716 7.47054 52.395 7.53223C52.4444 7.55692 52.4814 7.59394 52.5184 7.61862C52.2593 8.06286 52.0002 8.48241 51.7534 8.92665C48.8781 8.39603 47.4837 5.82931 47.5454 3.96597C47.5701 3.31195 47.6194 2.65793 47.7305 2.01625C47.8416 1.37457 48.1254 0.78225 48.6807 0.412049C49.4458 -0.106232 50.1862 -0.735569 51.0376 -1.03173C52.8639 -1.66107 54.6162 -1.38959 56.1094 -0.0321882C56.2945 0.140572 56.4796 0.300991 56.6523 0.461415C56.3932 0.905655 56.1464 1.32521 55.8749 1.79413C55.5541 1.58435 55.2332 1.34989 54.9001 1.15245ZM43.6089 6.68077C43.5966 7.45819 42.9426 8.34668 42.1652 8.60582C41.0052 9.00069 39.438 8.58113 38.6729 7.63095C38.5125 7.43351 38.3398 7.12502 38.3768 6.9029C38.4878 6.18718 38.6112 5.44678 38.9074 4.8051C39.2529 4.0647 40.055 4.16341 40.6597 4.13873C42.4243 4.15107 43.6213 5.21231 43.6089 6.68077ZM39.2159 -2.85805C39.4997 -2.22871 39.981 -1.67341 40.3882 -1.10577C40.4746 -0.982368 40.635 -0.920669 40.7954 -0.809608C40.1661 -0.476429 39.6355 -0.192608 39.1048 0.0665323C39.0185 0.10355 38.8334 0.0788728 38.7593 0.0171739C37.9325 -0.797268 37.1428 -1.63639 36.7232 -2.75933C36.0569 -4.56097 36.9453 -6.26389 38.858 -6.63409C40.1414 -6.88089 41.4001 -6.70813 42.5724 -6.21453C42.6217 -5.54817 42.6711 -4.89415 42.7205 -4.25247C42.2022 -4.36353 41.6839 -4.51161 41.1656 -4.56097C40.7954 -4.59799 40.3882 -4.56097 40.018 -4.46225C39.2406 -4.25247 38.8704 -3.61079 39.2159 -2.85805ZM41.9677 -0.858971C41.6962 -0.883648 41.3754 -0.982368 41.178 -1.15513C40.7831 -1.51299 40.3759 -1.90787 40.1167 -2.37679C39.9316 -2.70997 39.7835 -3.30229 39.9563 -3.53675C40.1661 -3.82057 40.7337 -3.98099 41.1286 -3.96865C41.6716 -3.95631 42.2886 -3.84525 42.7328 -3.54909C43.177 -3.25293 43.4485 -2.68529 43.7694 -2.21637C44.1519 -1.68575 44.5098 -1.14279 44.7936 -0.723228C43.9668 -0.76025 42.9673 -0.784927 41.9677 -0.858971ZM42.7205 -6.78217C42.3873 -6.86855 42.0418 -6.96727 41.6962 -7.05365C40.4499 -7.37449 39.1912 -7.38683 37.9942 -6.90557C35.9952 -6.09113 35.6003 -4.58565 36.353 -2.40147C36.5505 -1.82149 36.8836 -1.27853 37.2538 -0.784927C37.6117 -0.316009 38.1053 0.0541917 38.5495 0.473751C37.9819 1.09075 37.476 1.63371 36.9453 2.20135C34.7735 0.757568 33.6629 -1.29087 33.3667 -3.82057C33.305 -4.38821 33.3297 -4.96819 33.3791 -5.53583C33.5395 -7.26343 34.6871 -8.21361 36.1186 -8.94167C37.6117 -9.69441 39.2036 -9.99057 40.8448 -9.76846C41.7086 -9.65739 42.5477 -9.31187 43.4115 -9.07742C43.1524 -8.23829 42.9426 -7.54725 42.7205 -6.78217ZM34.0578 4.57063C32.9348 4.79276 31.7872 5.00254 30.6396 5.237C29.1588 5.5455 27.7027 5.58251 26.2589 5.00253C25.2347 4.58297 24.4326 3.90427 23.8773 2.96643C23.2973 1.96689 23.4701 1.37457 24.519 0.856293C25.8764 0.17759 27.2955 0.115891 28.7269 0.658852C30.2324 1.22649 31.38 2.31241 32.5523 3.33663C33.0706 3.76853 33.5889 4.18809 34.0578 4.57063ZM24.4079 -6.85621C25.2594 -5.44945 25.9998 -3.99333 26.7648 -2.53721C27.061 -1.98191 27.2831 -1.37725 27.5546 -0.735569C25.8023 -0.698547 24.5683 -1.57469 23.4947 -2.80869C22.4458 -4.01801 21.3352 -5.19031 20.2493 -6.36261C20.0642 -6.56005 19.8174 -6.68345 19.5089 -6.90557C20.348 -7.21407 21.1255 -7.53491 21.9152 -7.78171C23.0382 -8.11489 23.7786 -7.88043 24.4079 -6.85621ZM21.0514 -4.88181C21.8905 -3.98099 22.6433 -2.98145 23.4947 -2.08063C24.0377 -1.50065 24.7041 -1.04407 25.3334 -0.513451C24.7904 -0.266651 24.1734 0.0665322 23.5071 0.276314C23.322 0.338013 22.9888 0.0912095 22.7667 -0.06921C21.7054 -0.93301 20.7059 -1.88319 19.5829 -2.67295C18.3366 -3.54909 16.8558 -3.93163 15.338 -4.06737C15.0295 -4.09205 14.6963 -3.98099 14.3755 -3.93163C14.3508 -3.98099 14.3261 -4.03035 14.3014 -4.07971C15.375 -4.63501 16.4363 -5.22733 17.5222 -5.74561C19.0153 -6.48601 20.0519 -5.96773 21.0514 -4.88181ZM15.2393 -3.49973C16.2512 -3.53675 17.3247 -3.15421 18.2996 -2.75933C19.9038 -2.11765 21.2365 -1.04407 22.2731 0.35035C22.9518 1.26351 22.7543 1.97923 21.6931 2.39879C19.4842 3.27493 17.2384 3.42301 14.9431 2.75665C13.2525 2.26305 12.2283 0.992031 11.2905 -0.377708C11.0313 -0.76025 10.8709 -1.20449 10.6364 -1.64873C12.0185 -2.78401 13.5734 -3.42569 15.2393 -3.49973ZM13.5734 2.74431C15.8193 3.86726 18.1762 3.91661 20.5701 3.33663C21.0884 3.21323 21.6067 3.01579 22.1373 2.94175C22.3718 2.90473 22.7173 2.99111 22.8654 3.15153C23.2973 3.65747 23.6552 4.22511 24.1117 4.87914C22.9024 4.55829 21.9029 4.92849 20.9033 5.28635C19.9038 5.64421 18.9166 6.05144 17.8924 6.3476C16.2388 6.81652 15.2639 6.43398 14.3384 4.9902C13.7708 4.10172 13.2402 3.18855 12.7836 2.20135C13.0304 2.37411 13.2772 2.59623 13.5734 2.74431ZM21.8535 5.53315C23.2233 5.10125 24.4943 5.22466 25.8517 5.98973C24.2228 7.07565 22.6803 8.09988 21.1378 9.1241C20.3727 9.63004 19.5089 9.95088 18.5957 9.9879C18.2749 10.0002 17.8677 9.7411 17.6209 9.4943C16.9545 8.8156 16.3499 8.06286 15.6341 7.24842C17.9541 7.2114 19.8421 6.16249 21.8535 5.53315ZM24.9385 7.17437C25.79 6.48333 26.7772 6.15015 27.9001 6.15015C28.5171 6.15015 29.1218 6.0391 29.8869 5.95272C29.6771 6.11314 29.5784 6.18717 29.4796 6.24887C27.8878 7.17437 26.6661 8.45774 25.901 10.1113C25.3828 11.2342 24.5313 11.6168 23.4207 11.6538C21.9276 11.7155 20.5825 11.1479 19.1634 10.5309C21.3969 9.8028 23.2109 8.58113 24.9385 7.17437ZM25.173 13.4184C25.6172 11.4687 26.4687 9.67939 27.8508 8.22327C29.1465 6.84119 30.763 5.9157 32.6387 5.55783C33.4778 5.39742 34.3416 5.44677 35.2671 5.39742C35.2671 6.11314 35.2918 6.70545 35.2424 7.29777C35.2301 7.42117 34.9709 7.60627 34.8105 7.63095C31.923 7.92712 29.8622 9.50663 28.3567 11.8636C27.1967 13.6652 27.2338 15.5409 28.4061 17.3302C29.8005 19.4774 31.7008 20.9335 34.2676 21.4147C35.2794 21.5998 35.2794 21.6245 35.2794 22.6611C35.2794 22.9696 35.2794 23.2781 35.2794 23.6113C32.614 23.9815 30.4298 23.1177 28.5048 21.4888C26.6168 19.8969 25.6542 17.7498 25.1113 15.4175C24.9509 14.7882 25.0249 14.0601 25.173 13.4184ZM34.0454 24.5491C32.8855 25.5116 31.7502 26.5358 30.5409 27.449C28.8009 28.7694 26.8759 29.263 24.7781 28.3745C23.1986 27.7081 23.1862 26.7703 24.4573 25.4006C26.1602 23.5372 28.3444 23.4508 30.6273 23.8704C31.7625 24.0925 32.9102 24.327 34.0454 24.5491ZM25.6172 18.5519C26.5797 20.4275 27.8384 21.9947 29.8498 23.0806C27.641 23.1053 25.7406 22.7968 24.0871 21.316C22.6926 20.082 21.0514 19.1318 19.1264 18.6012C20.9774 17.8361 22.7297 17.0094 24.7164 17.7498C25.0619 17.8732 25.4321 18.2063 25.6172 18.5519ZM20.0025 19.4403C21.508 20.3041 22.9518 21.279 24.4079 22.2168C24.8645 22.513 25.3087 22.8215 25.8023 23.1547C24.1611 24.1419 22.5692 23.8951 20.9527 23.3028C19.5953 22.8092 18.2009 22.3896 16.8188 21.9824C16.498 21.8837 16.1401 21.9207 15.6218 21.8837C16.4486 20.9705 17.1149 20.045 17.9787 19.3293C18.534 18.848 19.3979 19.0948 20.0025 19.4403ZM17.5345 22.6981C18.5217 22.9449 19.4719 23.3645 20.4467 23.6483C21.3599 23.9198 22.2978 24.1542 23.2356 24.3517C23.4824 24.401 23.7662 24.3023 24.0871 24.2653C23.6552 24.8699 23.285 25.4129 22.8901 25.9312C22.6186 26.289 22.2607 26.215 21.8905 26.1039C20.4221 25.6844 18.9413 25.3265 17.3988 25.4129C16.1031 25.4746 14.8197 25.6844 13.6597 26.3137C13.3636 26.4741 13.0921 26.6963 12.6972 26.8443C13.1168 26.141 13.5117 25.4252 13.9436 24.7342C14.2274 24.2776 14.5482 23.8334 14.8937 23.4262C15.5848 22.5747 16.5473 22.4513 17.5345 22.6981ZM16.7324 26.0052C18.4724 25.8571 20.1259 26.1163 21.7178 26.7333C22.7543 27.1405 22.9765 27.8809 22.2854 28.7447C20.5825 30.8919 18.4353 32.3603 15.6341 32.5701C13.7708 32.7058 12.1419 31.9161 10.6364 30.7931C11.8704 28.1277 13.6227 26.252 16.7324 26.0052ZM20.4221 31.2621C21.2489 30.6574 21.9769 29.9293 22.7297 29.226C23.1122 28.8681 23.433 28.6953 23.9513 29.0038C24.4079 29.2753 24.9262 29.4481 25.4815 29.6949C25.0619 29.9417 24.6177 30.1144 24.3092 30.4106C23.5811 31.1263 22.9271 31.9161 22.2361 32.6688C21.6561 33.3105 21.1008 34.0015 20.4467 34.5568C19.8421 35.0628 19.114 35.396 18.2502 35.1368C16.8188 34.6926 15.5848 33.8905 14.2027 33.0637C16.6584 33.3969 18.6204 32.5701 20.4221 31.2621ZM23.9266 31.4718C24.8892 30.4229 26.0738 29.8059 27.5669 29.8553C26.5797 31.9778 25.8023 34.199 24.3709 36.0747C23.6552 37.0002 23.0135 37.21 21.8659 36.8891C21.6808 36.8398 21.4956 36.7904 21.3105 36.7163C20.7306 36.4942 20.1629 36.2721 19.5089 36.013C21.3723 34.816 22.5199 33.0143 23.9266 31.4718ZM30.8124 29.7072C31.7749 27.4737 33.1199 25.5857 35.5879 24.7342C35.9088 25.3018 36.2296 25.8695 36.5381 26.4124C35.8718 27.0665 35.119 27.6711 34.539 28.4115C33.5272 29.6949 32.9719 31.2004 32.8114 32.8416C32.7497 33.4956 32.7621 34.162 32.8361 34.8037C33.0829 36.9755 34.6131 38.0738 36.4394 38.8018C38.821 39.7643 41.215 39.752 43.5719 38.6044C43.9298 39.1967 44.2506 39.7643 44.6085 40.3567C43.4732 41.2822 42.2145 41.8992 40.7461 42.0472C39.0061 42.22 37.3032 42.0843 35.699 41.3315C34.1071 40.5788 32.7004 39.5546 31.5404 38.2342C30.6149 37.1729 30.4668 35.7908 30.3311 34.4828C30.1707 32.8663 30.1583 31.225 30.8124 29.7072ZM32.1451 40.6528C32.7127 40.48 33.2557 40.4924 33.7986 40.8626C35.0203 41.7017 36.353 42.3187 37.8338 42.5408C38.3891 42.6272 38.9568 42.6642 39.5861 42.7259C37.6734 43.7255 35.8594 44.4782 33.6382 43.9723C31.8859 43.5774 30.0349 43.6267 28.1469 44.1204C29.2575 42.5902 30.3311 41.1958 32.1451 40.6528ZM28.8626 44.5152C30.1707 44.3918 31.4787 44.3671 32.7991 44.4042C33.9097 44.4412 35.0203 44.6263 36.1556 44.7497C35.5509 45.996 34.4773 46.6871 33.194 47.0079C31.8119 47.3534 30.3928 47.5262 29.0107 47.8347C28.2703 48.0074 27.5546 48.3036 26.7772 48.5628C26.987 47.5262 27.135 46.4526 27.4189 45.4284C27.5916 44.7867 28.3073 44.5646 28.8626 44.5152ZM26.8882 50.3891C27.0487 49.1797 27.9988 48.6121 29.0971 48.353C30.0473 48.1309 31.0345 48.0198 31.997 47.8347C33.1076 47.6126 34.2429 47.4522 35.2424 46.5513C35.1807 47.3781 35.2054 48.0198 35.0573 48.6245C34.9956 48.8713 34.6007 49.1427 34.3046 49.2168C32.4042 49.7351 30.5532 50.3397 29.0231 51.6354C28.0482 52.4622 27.1227 53.3383 26.7772 54.6587C26.7155 54.6464 26.6661 54.634 26.6044 54.6217C26.7031 53.2149 26.7155 51.7835 26.8882 50.3891ZM28.4431 52.8818C29.7511 51.4873 31.3923 50.5742 33.2557 50.1053C33.774 49.9695 34.3169 49.8708 34.8475 49.8461C35.5879 49.8214 36.0445 50.2287 35.9458 50.9567C35.7977 51.9933 35.5633 53.0422 35.1931 54.0294C34.539 55.7446 33.4901 57.2378 31.8613 58.1509C30.726 58.7926 29.4303 59.0764 28.0852 58.9777C27.7027 58.953 27.3201 58.9777 26.8882 58.9777C26.7031 56.7072 26.8512 54.5847 28.4431 52.8818ZM31.2813 58.9777C33.0336 58.4348 34.0701 57.0774 34.9956 55.6212C35.8224 54.3379 36.2296 52.8818 36.5998 51.4133C36.7109 50.969 36.9577 50.7223 37.4513 50.7223C38.0066 50.7099 38.5619 50.6235 39.2406 50.5495C37.9325 52.166 38.0806 54.0911 37.6487 55.8557C37.55 56.2629 37.4883 56.6948 37.3526 57.0897C36.933 58.3731 35.9705 58.9901 34.6995 59.0641C33.5395 59.1381 32.3795 59.0764 31.2196 59.0764C31.2319 59.0641 31.2443 58.9901 31.2813 58.9777ZM38.5866 53.4988C38.7593 52.4128 39.1542 51.4503 39.8452 50.6112C40.1661 50.2287 40.6103 49.9448 41.0422 49.5746C41.1656 50.5989 41.3384 51.4997 41.3754 52.4128C41.4248 53.7949 41.4371 55.1893 41.3631 56.5838C41.3384 57.0774 41.0792 57.5833 40.8201 58.0275C40.4746 58.6199 39.7835 58.5458 39.2159 58.6816C38.5495 58.842 37.8585 58.9037 37.1428 59.0147C38.093 57.2748 38.3027 55.3744 38.5866 53.4988ZM37.1798 49.7474C36.4641 49.698 36.0939 49.3402 36.0569 48.6121C35.9705 46.8969 36.6615 45.5395 37.9449 44.4535C39.1542 43.417 40.6473 42.9851 42.1035 42.4791C42.7575 42.257 43.4115 41.9979 44.1396 41.7387C43.3992 43.5527 42.8068 45.4037 41.906 47.0943C40.9312 48.8836 39.327 49.8708 37.1798 49.7474ZM53.5673 52.3635C52.7282 52.5239 51.8397 52.4622 50.9883 52.3882C49.3347 52.2524 48.4832 51.0801 47.7922 49.7597C47.0148 48.2789 46.731 46.6871 46.9407 45.0335C47.0518 44.1574 47.3973 43.3059 47.6441 42.4174C48.4956 42.6766 49.1866 42.8864 49.816 43.0714C49.7049 44.071 49.5445 45.0335 49.4828 46.0084C49.4087 47.2054 49.853 48.2542 50.6551 49.1304C51.3091 49.8461 52.2099 49.8461 53.0737 49.7721C54.3941 49.661 55.517 49.0687 56.4302 48.1062C56.6893 47.8347 56.9362 47.5756 57.1953 47.3041C57.7876 47.847 58.3306 48.3653 58.8982 48.8836C57.6395 50.858 55.7885 51.9316 53.5673 52.3635ZM53.9499 49.044C51.704 49.698 50.4083 48.97 50.0134 46.4526C49.8406 45.305 50.0504 44.4042 50.5194 43.1825C50.8279 43.1825 51.161 43.1949 51.4819 43.1825C51.8027 43.1578 52.1236 43.0961 52.3704 43.0591C52.3087 43.8489 52.1729 44.6263 52.1853 45.4037C52.1976 46.4773 52.9997 47.0079 53.9746 46.5513C54.7026 46.2058 55.3566 45.6752 56.0353 45.2186C56.2698 45.7122 56.5536 46.2799 56.8374 46.8722C56.0477 47.7853 55.1839 48.6862 53.9499 49.044ZM52.7282 44.7127C52.8022 44.1697 52.9133 43.6021 53.1354 43.0961C53.2712 42.8 53.6167 42.5779 53.9129 42.3804C54.6533 41.8745 55.4183 41.4056 55.9983 41.023C55.9613 41.7511 55.8996 42.7259 55.8749 43.7008C55.8502 44.6386 54.4558 46.0084 53.518 45.9837C53.012 45.9714 52.6295 45.3914 52.7282 44.7127ZM51.6176 42.6025C50.9759 42.7136 50.2602 42.5902 49.6185 42.4421C48.3105 42.1336 47.0518 41.6523 45.9535 40.8626C44.7812 40.0235 44.2013 38.7648 43.7694 37.4567C43.5102 36.6793 43.3128 35.8525 43.1894 35.0381C43.0413 34.1126 43.3745 33.2488 43.757 32.4097C44.5098 30.8055 45.7314 29.6579 47.2369 28.7694C47.5948 28.5596 47.7799 28.5719 48.076 28.8558C49.0632 29.7936 50.1615 30.6327 51.5436 30.8425C52.3703 30.9659 53.2341 30.8672 54.209 30.8672C53.2095 31.9161 52.284 32.9033 51.3585 33.8781C51.1363 34.1126 50.9266 34.0756 50.6428 33.9522C48.4956 32.9897 45.7561 34.3717 45.6821 37.247C45.645 38.6784 47.6441 40.4924 49.347 40.0481C51.4325 39.5175 52.432 37.4691 52.0742 35.8279C52.0248 35.5811 51.9631 35.3219 51.8274 35.1121C51.6546 34.8407 51.7163 34.6432 51.9138 34.4581C52.8886 33.5326 53.8635 32.6071 54.8754 31.6446C54.8754 32.4097 54.8013 33.1007 54.9001 33.7794C54.9864 34.4211 55.1469 35.0875 55.4554 35.6428C55.9119 36.4449 56.5289 37.1482 57.0596 37.901C57.1459 38.0244 57.183 38.2712 57.1213 38.3946C55.9119 40.5911 54.1596 42.1583 51.6176 42.6025ZM51.6423 36.3955C51.667 37.7282 50.0257 39.3448 48.6683 39.3324C47.7799 39.3201 46.4718 37.9874 46.4842 37.0989C46.4965 35.7415 48.0884 34.162 49.4211 34.1866C50.5193 34.2113 51.6299 35.3096 51.6423 36.3955ZM56.9115 36.9385C55.6034 35.3466 54.9617 33.5573 55.6281 31.5459C55.9119 30.6821 56.5413 29.917 57.0349 29.0902C57.6395 29.4357 58.0714 29.6949 58.3799 29.8676C57.9727 30.8178 57.4544 31.7557 57.1706 32.7552C56.677 34.4581 57.8617 36.5313 59.3548 36.7657C60.9467 37.0125 62.267 36.5066 63.2296 35.2109C63.6615 34.6309 63.9946 33.9645 64.3772 33.3228C64.7721 33.545 65.204 33.8041 65.6482 34.0632C65.1546 36.7904 62.7483 38.3082 60.6752 38.2712C60.0335 38.2588 59.3795 38.2095 58.7378 38.0984C57.9727 37.975 57.4051 37.5308 56.9115 36.9385ZM63.8959 32.8786C63.2912 34.2854 62.6372 35.6798 61.0207 36.161C59.145 36.7163 57.8123 35.6428 57.6272 33.8288C57.4791 32.385 58.2072 31.2621 59.0463 30.2008C59.0957 30.1391 59.2067 30.0898 59.2931 30.0774C59.8361 30.0404 60.3667 30.0281 60.9837 29.991C60.4901 30.6327 60.0335 31.1757 59.6386 31.768C59.4288 32.0765 59.2561 32.459 59.1944 32.8292C59.0463 33.693 59.3548 34.2607 60.0582 34.5322C60.5888 34.7419 61.3786 34.4951 61.7734 33.8658C62.1683 33.2365 62.4521 32.5331 62.7853 31.8544C62.884 31.6323 62.9581 31.3978 63.0568 31.151C63.353 31.694 63.6244 32.1999 63.8959 32.7182C63.8959 32.7552 63.9082 32.8292 63.8959 32.8786ZM61.8475 30.0034C62.0819 29.7936 62.3534 29.6085 62.6866 29.3617C62.6496 30.9536 62.1807 32.311 61.3292 33.5326C61.0824 33.8905 60.7122 34.1249 60.2309 33.9892C59.725 33.8411 59.5276 33.3105 59.799 32.6318C60.2309 31.5582 61.0207 30.7561 61.8475 30.0034ZM61.1194 29.337C59.9471 29.6085 58.8118 29.6702 57.7506 28.8681C55.4677 27.1405 56.1217 24.0061 57.948 22.6241C58.0467 22.55 58.2936 22.5994 58.417 22.6858C58.6761 22.8585 58.8859 23.0806 59.1574 23.3151C58.8118 23.7717 58.454 24.2036 58.1455 24.6725C57.4914 25.6474 57.5902 26.5729 58.2689 27.375C59.182 28.4362 60.3543 28.2634 61.1194 27.7452C61.6007 27.4243 62.0449 27.0541 62.5138 26.7086C62.773 27.0171 63.0568 27.3256 63.3653 27.6958C62.7853 28.4485 62.1066 29.1149 61.1194 29.337ZM62.7236 24.8082C62.8223 24.5244 62.8717 24.2036 62.9951 23.9321C63.464 22.8955 63.4764 22.9819 64.587 23.0189C65.278 23.0436 65.9937 22.7845 66.7094 22.6487C66.586 23.5742 67.0426 24.3887 67.709 25.1414C67.783 25.2278 67.8324 25.4252 67.783 25.524C67.2401 26.758 66.1541 27.8932 64.4882 27.5477C63.5381 27.3626 62.3781 25.7831 62.7236 24.8082ZM66.3392 18.1693C66.1295 18.2187 65.9197 18.231 65.7099 18.2187C65.3027 18.1817 65.1299 17.8978 65.3397 17.54C65.5371 17.2191 65.7593 16.8489 66.0678 16.6515C66.9686 16.0715 67.9558 15.689 69.1898 15.8C68.4124 16.9353 67.6473 17.8732 66.3392 18.1693ZM67.6103 19.7365C67.746 18.6259 68.4617 17.8732 69.2638 17.1821C69.4613 17.0094 69.7081 16.886 70.0412 16.6515C70.0289 18.157 69.7204 19.4157 68.5851 20.3165C68.4 20.4646 67.9681 20.6003 67.8941 20.5139C67.709 20.3412 67.5732 19.9956 67.6103 19.7365ZM69.9672 12.4189C68.8443 11.6661 67.9188 10.8517 67.6349 9.51897C67.5979 9.33387 67.5609 9.1241 67.6103 8.939C67.6966 8.60582 67.9064 8.35901 68.289 8.59348C68.5975 8.77857 68.9183 8.98836 69.1528 9.25983C69.7081 9.90151 70.1153 11.4687 69.9672 12.4189ZM68.6221 12.5299C68.7949 12.7274 68.9306 12.9742 69.1774 13.332C67.6349 13.3197 66.3639 12.9989 65.4631 11.8266C65.3274 11.6538 65.2163 11.2589 65.315 11.1725C65.4878 10.9998 65.821 10.864 66.0554 10.9011C67.166 11.0121 67.9434 11.7155 68.6221 12.5299ZM66.6971 6.66843C65.7963 6.02675 64.8955 5.92803 63.9329 6.18717C63.8095 6.22419 63.5874 6.13782 63.5134 6.0391C62.5632 4.69403 62.2794 3.44769 63.427 2.21369C64.2908 1.27585 65.7469 1.20181 66.7465 2.11497C67.1537 2.48517 67.4745 2.96643 67.7583 3.44769C67.8447 3.58343 67.7707 3.92895 67.6473 4.07703C66.8452 5.06423 66.7218 5.38507 66.6971 6.66843ZM62.5262 2.43581C62.0819 2.10263 61.65 1.73243 61.1811 1.43627C59.6263 0.449074 58.5897 1.07841 57.837 2.34943C57.4914 2.92941 57.6272 3.64513 58.0097 4.23745C58.3552 4.76807 58.7501 5.27401 59.1327 5.81697C58.7995 6.08845 58.491 6.34759 58.1825 6.61907C56.9115 5.97739 56.1094 4.20044 56.2945 2.54688C56.4302 1.30053 57.8123 -0.180267 59.0463 -0.353027C60.7862 -0.575149 62.267 -0.118572 63.3406 1.46095C63.0815 1.78179 62.81 2.10263 62.5262 2.43581ZM59.9718 -3.14187C59.5522 -3.88227 59.6386 -4.61033 60.1199 -4.86947C60.5641 -5.10393 61.1564 -4.83245 61.5637 -4.10439C62.2177 -2.93209 62.6989 -1.69809 62.6743 -0.278988C61.5266 -1.03173 60.6258 -1.98191 59.9718 -3.14187ZM63.0938 -2.11765C62.6742 -2.96911 62.2917 -3.88227 61.7858 -4.72139C61.4032 -5.36307 60.6135 -5.60987 60.0952 -5.42477C59.2684 -5.11627 58.8735 -4.28949 59.2808 -3.42569C59.5893 -2.74699 60.0705 -2.15467 60.4901 -1.52533C60.6381 -1.30321 60.8109 -1.11811 61.0207 -0.85897C60.379 -0.895988 59.8237 -0.920669 59.2684 -0.94535C59.1944 -0.94535 59.108 -0.982368 59.071 -1.04407C58.1331 -2.24105 57.368 -3.48739 57.7012 -5.12861C58.1825 -7.52257 60.7986 -7.59661 62.1313 -6.46133C62.9581 -5.75795 63.4517 -4.85713 63.8466 -3.88227C63.8836 -3.78355 63.8836 -3.62313 63.8342 -3.52441C63.5874 -3.04315 63.3283 -2.56189 63.0938 -2.11765ZM62.5879 -6.74515C61.4773 -7.92979 59.4412 -8.10255 58.2936 -7.15237C57.22 -6.25155 56.8251 -5.01755 57.1459 -3.69717C57.3927 -2.68529 57.9357 -1.75979 58.3553 -0.772587C58.0221 -0.575146 57.6149 -0.32835 57.1953 -0.0815504C55.0358 -1.84617 54.8754 -5.07925 56.3192 -6.97961C56.9238 -7.76937 57.4051 -8.65785 58.454 -8.91699C60.922 -9.53399 62.8347 -9.23783 64.587 -7.27577C65.1299 -6.67111 65.3767 -5.79497 65.7593 -5.01755C65.4261 -4.84479 65.1916 -4.72139 64.9572 -4.58565C64.7474 -4.46225 64.5376 -4.31417 64.4636 -4.25247C63.8342 -5.09159 63.2912 -5.99241 62.5879 -6.74515ZM56.9732 -8.65786C56.1587 -7.8681 55.4553 -6.94259 55.1715 -5.85667C54.9 -4.83245 54.9124 -3.73419 54.789 -2.62359C53.8512 -3.51207 52.8639 -4.43757 51.8891 -5.38775C51.7904 -5.48647 51.7657 -5.78263 51.8274 -5.93071C52.7529 -8.04085 51.704 -10.805 48.6066 -11.0148C47.5824 -11.0888 46.731 -10.4225 46.188 -9.53399C45.4476 -8.31233 45.6327 -6.73281 46.5335 -5.72093C47.459 -4.68437 49.2236 -4.14141 50.6798 -4.84479C50.9636 -4.98053 51.1487 -4.95585 51.3338 -4.77075C52.2593 -3.79589 53.1848 -2.82103 54.1473 -1.79681C53.3699 -1.79681 52.6665 -1.84617 51.9755 -1.78447C51.4325 -1.73511 50.8278 -1.63639 50.3713 -1.36491C49.5445 -0.883652 48.7671 -0.291328 48.0143 0.300991C47.7305 0.52311 47.5577 0.572472 47.2739 0.36269C46.6569 -0.106228 45.9782 -0.488769 45.4106 -1.00705C44.1889 -2.12999 43.4238 -3.53675 43.177 -5.17797C43.0783 -5.78263 43.1894 -6.46133 43.3498 -7.07833C43.683 -8.37403 44.1519 -9.63271 44.9293 -10.731C45.7684 -11.9033 47.0271 -12.4833 48.3228 -12.9275C49.1002 -13.199 49.9147 -13.3717 50.7291 -13.5198C51.6793 -13.6802 52.5554 -13.3347 53.4069 -12.9275C55.0111 -12.1748 56.1464 -10.9531 57.0349 -9.44761C57.257 -9.11443 57.257 -8.92933 56.9732 -8.65786ZM51.1364 -5.99241C50.3836 -5.02989 49.2853 -4.85713 48.1377 -5.46179C47.2492 -5.93071 46.7803 -6.73281 46.5335 -7.64597C46.4471 -7.99149 46.5459 -8.48509 46.7433 -8.78125C47.2122 -9.44761 47.7305 -10.1263 48.693 -10.2374C49.816 -10.0276 50.7538 -9.49697 51.2968 -8.43573C51.7287 -7.60895 51.7534 -6.76983 51.1364 -5.99241ZM53.9129 -13.236C53.4686 -13.4951 53.0614 -13.779 52.9997 -14.3343C52.9256 -14.9389 52.7899 -15.5436 52.8146 -16.1359C52.8516 -16.7652 53.3082 -16.9874 53.8882 -16.7899C55.0481 -16.4074 55.8379 -15.3215 55.8626 -14.1121C55.8749 -13.31 55.9613 -12.5079 55.9983 -11.9033C55.3936 -12.2982 54.6656 -12.7918 53.9129 -13.236ZM55.9983 -16.0248C55.517 -16.4074 55.0481 -16.8269 54.5299 -17.1725C53.9622 -17.555 53.3082 -17.8018 52.6789 -17.3699C52.0865 -16.9627 52.1112 -16.247 52.1359 -15.6176C52.1606 -15.0747 52.3333 -14.5317 52.4444 -13.9641C51.8027 -14.0134 51.1487 -14.0504 50.4823 -14.0998C50.0011 -15.4325 49.7172 -16.8269 50.1985 -18.2214C50.8772 -20.1587 52.0125 -20.5043 54.0856 -19.8749C55.2579 -19.5171 56.06 -18.6286 56.8374 -17.7648C56.5536 -17.1725 56.2698 -16.5925 55.9983 -16.0248ZM55.1469 -19.949C54.3324 -20.4796 53.3946 -20.7387 52.395 -20.714C50.8278 -20.677 49.9147 -19.5171 49.5692 -17.9499C49.273 -16.6172 49.4458 -15.2968 49.9517 -13.9887C49.1743 -13.7543 48.4709 -13.5445 47.7182 -13.31C47.1382 -14.6057 46.7433 -15.9014 46.8914 -17.3452C47.0518 -18.9371 47.459 -20.3932 48.4339 -21.7012C49.5075 -23.145 50.9513 -23.5646 52.6172 -23.3425C53.6044 -23.2067 54.5792 -22.9352 55.5171 -22.6144C56.9732 -22.1085 57.9974 -21.0225 58.8982 -19.7762C58.3429 -19.2579 57.7876 -18.752 57.257 -18.2584C56.566 -18.826 55.8996 -19.4554 55.1469 -19.949ZM26.8759 -11.1012C26.8759 -11.0888 26.8759 -11.0765 26.8759 -11.1012V-11.1012ZM26.8512 -11.1259C25.8147 -11.1999 24.8028 -11.2739 23.7909 -11.348C23.6675 -11.3603 23.4824 -11.385 23.4454 -11.459C23.1245 -12.1377 22.8284 -12.8164 22.4828 -13.6062C23.2973 -13.6802 23.976 -13.7419 24.667 -13.7913C24.7781 -13.8036 24.9509 -13.7543 25.0126 -13.6802C25.6419 -12.8411 26.2466 -11.9773 26.8512 -11.1259ZM24.2351 -16.4938C24.3462 -15.7904 24.5066 -15.0993 24.6424 -14.4206C23.7662 -14.2726 22.8777 -14.1368 21.8288 -13.9641C22.199 -13.0139 22.5199 -12.1994 22.8654 -11.3356C22.088 -11.0765 21.2859 -10.805 20.4097 -10.5212C19.7434 -12.3105 19.077 -14.0875 18.3736 -15.9755C19.6817 -16.1976 20.8663 -16.4074 22.0509 -16.6172C22.5816 -16.7035 23.1122 -16.7899 23.6428 -16.864C23.939 -16.8886 24.1734 -16.8763 24.2351 -16.4938ZM18.1515 -15.0623C18.6821 -13.4705 19.3115 -11.9033 19.9161 -10.2744C19.0647 -9.81781 18.1762 -9.33656 17.2383 -8.83061C16.2635 -12.0143 15.3133 -15.1364 14.3508 -18.2831C17.5222 -19.0111 20.7059 -19.7515 24.0007 -20.5043C24.0007 -19.4554 24.0007 -18.4682 24.0007 -17.4563C22.3965 -17.1848 20.6936 -16.901 19.003 -16.5801C17.5715 -16.321 17.6949 -16.4444 18.1515 -15.0623ZM10.3156 -20.6153C14.9308 -21.7753 19.4719 -22.9106 24.0624 -24.0705C24.0624 -22.9846 24.0624 -22.0591 24.0624 -21.0966C21.9029 -20.5906 19.7927 -20.0847 17.6949 -19.6034C16.5473 -19.3443 15.3997 -19.0975 14.2397 -18.863C13.7955 -18.7767 13.6721 -18.5792 13.8202 -18.135C14.647 -15.5312 15.449 -12.9275 16.2511 -10.3238C16.3745 -9.94122 16.3992 -9.50932 16.572 -9.15145C16.8435 -8.58381 16.5843 -8.28765 16.1277 -8.04086C15.5478 -7.72001 14.9801 -7.39917 14.2027 -6.97961C12.907 -11.5454 11.6236 -16.0248 10.3156 -20.6153ZM9.88371 1.36223C9.15565 0.0665322 8.41525 -1.22917 7.71187 -2.46317C9.09395 -3.27761 10.5747 -4.12907 12.0432 -5.01755C14.141 -6.27623 16.2018 -7.58427 18.3119 -8.79359C19.3485 -9.38591 20.4591 -9.85484 21.5574 -10.3238C23.359 -11.0888 25.21 -11.0148 26.9993 -10.3731C28.221 -9.94122 29.3562 -9.25017 30.5532 -8.67019C30.3928 -8.13957 30.2571 -7.68299 30.109 -7.23875C29.4056 -7.55959 28.7639 -7.92979 28.0852 -8.15191C25.6049 -8.99103 23.1492 -8.95401 20.6935 -7.94213C17.769 -6.74515 15.1159 -5.10393 12.4504 -3.46271C11.7347 -3.01847 11.0313 -2.53721 10.2909 -2.12999C9.97008 -1.94489 9.93307 -1.80915 10.1182 -1.50065C11.4262 0.843948 12.7342 3.18856 14.0299 5.5455C15.0171 7.34714 16.2512 8.95134 17.7443 10.3581C18.7438 11.2959 19.9285 11.8759 21.2735 12.2708C22.3965 12.604 23.4947 12.8878 24.7781 12.7891C24.6424 13.3074 24.5436 13.7393 24.4449 14.1341C21.7301 14.5167 19.2127 14.1095 17.0162 12.4559C15.7082 11.4564 14.7827 10.099 13.9806 8.66752C12.5738 6.24887 11.2411 3.79321 9.88371 1.36223ZM9.97009 15.0226C11.4385 16.2443 12.8947 17.4906 14.3755 18.737C13.8572 19.5637 13.3266 20.4152 12.7836 21.3037C10.3773 19.0578 7.99568 16.8366 5.5647 14.566C7.95866 12.3325 10.3526 10.099 12.7836 7.8284C13.3142 8.67986 13.8572 9.54366 14.4001 10.4075C13.2278 11.37 12.0679 12.3202 10.9079 13.2703C10.5501 13.5665 10.1922 13.8627 9.85902 14.1958C9.53818 14.5043 9.66159 14.7635 9.97009 15.0226ZM10.1799 14.566C11.7224 13.295 13.1908 12.0857 14.684 10.8517C15.3133 11.5427 15.8439 12.1474 16.4116 12.7767C15.8563 13.221 15.301 13.6776 14.7333 14.1218C14.3384 14.4303 14.3631 14.7141 14.7457 15.0103C15.301 15.4422 15.8563 15.8988 16.4239 16.343C15.8563 16.9723 15.301 17.5893 14.6963 18.268C13.2155 17.0464 11.7594 15.8494 10.1799 14.566ZM14.9308 14.5537C15.5971 14.0724 16.1648 13.6529 16.7571 13.258C16.8435 13.1963 17.0162 13.2086 17.1149 13.2457C18.0898 13.6899 19.0647 14.1465 19.9655 14.566C19.0153 14.9856 17.9664 15.4422 16.8311 15.9358C16.2758 15.5286 15.6465 15.072 14.9308 14.5537ZM6.3668 19.8599C4.7009 18.2557 3.05968 16.6392 1.39378 15.0473C1.08528 14.7511 0.961879 14.492 1.31974 14.1465C2.82522 12.678 4.30602 11.1972 5.8115 9.7411C7.55144 8.06286 9.31606 6.42163 11.13 4.70637C11.5866 5.50847 12.0062 6.2242 12.3764 6.9646C12.4504 7.11268 12.3764 7.43352 12.253 7.55692C9.98243 9.69173 7.68718 11.8019 5.39194 13.912C4.73792 14.5167 4.73792 14.6031 5.39194 15.2077C6.9838 16.6638 8.55099 18.1323 10.1305 19.5884C10.8092 20.2178 11.4756 20.8594 12.1789 21.4641C12.4751 21.7109 12.5245 21.9454 12.3394 22.2662C11.9568 22.9326 11.5743 23.6113 11.1054 24.4134C9.48883 22.8585 7.92165 21.3654 6.3668 19.8599ZM13.7091 35.1492C11.673 33.9645 9.67393 32.7305 7.7242 31.5582C9.25437 28.8681 10.8339 26.0793 12.4134 23.2904C13.2772 21.7726 14.104 20.2424 15.0418 18.774C16.5967 16.343 18.966 15.183 21.7671 14.8252C22.2731 14.7635 22.8037 14.8869 23.322 14.9116C23.6675 14.9239 24.2105 14.7388 24.3092 14.8869C24.556 15.2694 24.6177 15.7754 24.7534 16.2813C24.1364 16.3183 23.5811 16.306 23.0258 16.3924C19.9285 16.8366 17.5098 18.4161 15.7329 20.9582C14.8074 22.2909 13.9559 23.673 13.1168 25.0674C12.4257 26.215 11.8087 27.3996 11.1671 28.5719C10.7845 29.263 10.4143 29.954 10.0811 30.6697C10.0194 30.8055 10.1058 31.1263 10.2292 31.188C13.1785 32.9526 16.1154 34.7543 19.1264 36.3955C20.7306 37.2717 22.5199 37.8516 24.3832 37.8886C25.173 37.901 25.9751 37.6418 26.7772 37.5555C27.9618 37.4197 29.0107 36.9755 30.072 36.2598C30.2324 36.778 30.3681 37.2223 30.4915 37.6542C28.5418 39.0733 26.444 40.0358 23.9637 39.9494C22.6926 39.9124 21.4957 39.5792 20.4097 38.9869C18.1515 37.7529 15.9303 36.4572 13.7091 35.1492ZM26.8512 40.2332C26.5304 40.6528 26.1602 41.097 25.8147 41.566C25.5679 41.8868 25.3334 42.22 25.1483 42.5779C25.0002 42.8493 24.8521 42.9851 24.5313 42.9481C23.8896 42.8617 23.2479 42.8 22.4952 42.7136C22.816 41.9732 23.1122 41.3068 23.4207 40.6405C23.4577 40.5541 23.6305 40.5047 23.7539 40.4924C24.7781 40.3937 25.8147 40.3073 26.8512 40.2332ZM18.2872 45.5518C20.2246 45.8973 22.1497 46.2675 24.0254 46.613C24.0254 47.5756 24.0254 48.5504 24.0254 49.624C20.7429 48.8712 17.5592 48.1432 14.3508 47.4028C15.301 44.2931 16.2635 41.1464 17.2383 37.9503C18.1638 38.4439 19.04 38.9129 19.9285 39.3941C19.4719 40.5788 19.0153 41.7387 18.5834 42.9234C18.3243 43.6144 18.1022 44.3178 17.8924 45.0212C17.7937 45.3543 17.9417 45.4901 18.2872 45.5518ZM24.0747 53.1903C19.4966 52.0426 14.9555 50.9073 10.3403 49.7474C11.673 45.1693 12.7219 40.6034 14.3138 36.124C15.1652 36.6176 15.955 37.0619 16.7571 37.5308C16.5473 38.3205 16.3869 39.061 16.1648 39.7643C15.4244 42.1706 14.6593 44.5646 13.9065 46.9585C13.6351 47.81 13.6474 47.7977 14.5482 47.9951C16.7447 48.4887 18.9413 49.007 21.1501 49.5129C21.9769 49.698 22.8037 49.9078 23.6305 50.0929C23.939 50.1546 24.0994 50.278 24.0994 50.6235C24.0624 51.4256 24.0747 52.2277 24.0747 53.1903ZM24.2105 45.6875C24.1858 45.8109 23.9266 45.9837 23.8156 45.9714C22.051 45.6999 20.2863 45.4037 18.3736 45.0952C19.077 43.2072 19.7434 41.4179 20.4097 39.6409C21.2859 39.9124 22.0756 40.1715 22.8777 40.4184C22.5446 41.2575 22.2237 42.0843 21.8288 43.0714C22.8654 43.2319 23.7415 43.3676 24.6424 43.5157C24.5066 44.2191 24.3832 44.9595 24.2105 45.6875ZM32.1327 61.1372C30.1213 61.1125 28.0976 61.0632 26.0861 61.0508C25.6172 61.0508 25.136 61.1372 24.6917 61.1866C24.6917 58.7679 24.7164 56.3493 24.6794 53.943C24.6547 52.4869 24.4573 51.0184 24.519 49.5623C24.6053 47.4151 24.4696 45.1939 25.4568 43.1825C26.2836 41.5043 27.4312 40.0852 29.1711 39.2337C29.7388 38.9499 30.2817 38.6044 30.7877 38.3082C31.1455 38.6291 31.4911 38.9499 31.8613 39.2831C31.2196 39.7396 30.5409 40.0975 30.0103 40.6034C28.5665 41.9855 27.2955 43.491 26.8265 45.5395C26.3206 47.699 26.1478 49.8708 26.1725 52.0797C26.1972 54.1775 26.2219 56.2753 26.2589 58.3731C26.2589 58.6569 26.3083 58.953 26.37 59.2369C26.3946 59.3356 26.518 59.459 26.6291 59.4837C26.8759 59.5454 27.1227 59.5577 27.3818 59.57C30.0349 59.6071 32.7004 59.6811 35.3535 59.6564C37.4636 59.6317 39.5491 59.3849 41.5235 58.6199C42.5971 58.2003 43.5596 57.608 44.3 56.6825C44.5715 56.3493 44.991 56.1272 45.2748 55.794C45.7191 55.2387 46.1016 54.6464 46.5582 53.9924C46.8914 54.3749 47.1875 54.7081 47.5701 55.1523C46.879 56.1642 46.225 57.3488 45.3612 58.3607C44.0285 59.9032 42.3009 60.8164 40.2401 61.0632C38.5125 61.273 36.7849 61.3593 35.045 61.1866C34.0701 61.0755 33.0953 61.1496 32.1327 61.1372ZM40.7707 67.4183C40.561 66.3694 40.3635 65.4192 40.2031 64.4567C40.0797 63.741 40.0057 63.0006 39.8699 62.2848C39.7959 61.8529 39.8082 61.6061 40.3635 61.5568C41.0052 61.4951 41.6469 61.2853 42.2886 61.1372C42.4366 62.0627 42.5847 62.9389 42.7451 63.9261C43.3004 63.7286 43.72 63.6052 44.1272 63.4448C44.5344 63.2844 44.9417 63.0869 45.3859 62.8895C45.6574 63.7163 45.9042 64.506 46.2003 65.3822C44.411 66.0609 42.6464 66.7149 40.7707 67.4183ZM46.4348 65.9128C46.879 66.7272 47.3603 67.6281 47.8662 68.5659C44.6825 69.5408 41.5605 70.491 38.4138 71.4535C37.6734 68.2574 36.9453 65.086 36.1926 61.8529C37.2538 61.8036 38.2287 61.7419 39.2282 61.6925C39.4874 63.2474 39.7342 64.8022 40.0057 66.357C40.0674 66.7026 40.1908 67.0357 40.2278 67.3813C40.2771 67.9242 40.5239 68.0353 41.0052 67.8625C42.7822 67.2085 44.5715 66.5792 46.4348 65.9128ZM45.3489 62.1368C45.3365 62.2355 45.2502 62.3589 45.1638 62.3959C44.5098 62.7044 43.8311 62.9882 43.0907 63.3214C43.0166 62.581 42.9673 61.9763 42.9056 61.384C42.8685 61.0262 42.9919 60.8164 43.3128 60.6066C44.0285 60.1253 44.6949 59.57 45.3859 59.0394C45.4599 58.9901 45.5463 58.953 45.5833 58.9284C45.5093 60.0019 45.4353 61.0632 45.3489 62.1368ZM36.0692 75.464C34.9092 70.8612 33.774 66.3447 32.6263 61.7419C33.6012 61.7419 34.428 61.7295 35.2548 61.7542C35.4028 61.7542 35.6373 61.9517 35.662 62.0874C36.39 65.1724 37.1058 68.2451 37.7968 71.3424C37.9696 72.1198 37.9942 72.1568 38.784 71.91C41.4248 71.0956 44.0532 70.2688 46.6939 69.4544C47.1012 69.331 47.5084 69.1829 47.9279 69.1459C48.1377 69.1335 48.4339 69.3186 48.5573 69.5037C48.9522 70.1084 49.273 70.7377 49.6926 71.4781C45.2255 73.0947 40.6473 74.1313 36.0692 75.464ZM69.3255 63.4448C69.4613 62.6921 69.523 61.9146 69.6217 61.1002C69.9672 61.1742 70.3621 61.2359 70.7323 61.3593C70.8557 61.3964 70.9791 61.6185 70.9914 61.7542C71.0284 62.3712 71.0901 63.0006 71.0038 63.5929C70.8557 64.5924 70.6706 65.6043 70.3744 66.5792C69.671 68.8497 67.9805 70.3059 66.0307 71.4411C63.3406 73.0083 60.5888 74.4891 57.874 76.0193C56.6523 76.7103 55.4307 77.4137 54.2707 78.08C53.4316 76.6609 52.5554 75.1678 51.667 73.687C50.4206 71.6139 49.1249 69.5654 47.9156 67.4676C46.9901 65.8758 46.1757 64.2222 45.9289 62.3589C45.7808 61.1619 45.9042 59.9773 46.3361 58.879C46.8173 57.645 47.459 56.485 48.039 55.251C48.5943 55.4115 49.0262 55.5472 49.4828 55.6829C49.4334 55.8187 49.4334 55.9668 49.3594 56.0531C48.5326 57.102 48.3722 58.3977 48.1007 59.6317C47.6935 61.4827 48.076 63.2597 48.7547 65.012C49.9517 68.1217 51.7657 70.8982 53.481 73.724C53.8512 74.3287 54.2584 74.921 54.6162 75.5257C54.7766 75.7848 54.8754 75.8835 55.1962 75.6984C56.6153 74.9087 58.0714 74.2053 59.4782 73.3908C61.1441 72.4407 62.81 71.4905 64.3895 70.4046C65.7593 69.4667 67.0796 68.4055 67.9434 66.937C68.3753 66.1966 68.6345 65.3575 68.9553 64.5677C69.0787 64.2222 69.2515 63.8397 69.3255 63.4448ZM67.3881 60.2364C68.2149 60.6436 68.3753 61.5074 68.3383 62.2848C68.3013 63.2597 68.0545 64.2222 67.8324 65.1724C67.7213 65.6537 67.4745 66.0979 67.3388 66.4434C66.6601 65.2218 66.0061 63.9507 65.2533 62.7291C64.7844 61.9517 64.1797 61.2606 63.6491 60.5326C63.0938 59.7675 62.884 58.9037 62.8594 57.9658C62.8347 57.3365 62.7483 56.7195 62.6866 56.0902C63.8342 57.9905 65.4508 59.2862 67.3881 60.2364ZM65.2163 63.6299C65.895 64.6788 66.5737 65.74 66.6848 67.0604C66.7218 67.5787 66.549 67.8995 66.2035 68.208C65.4878 68.8374 64.7597 69.4667 63.9576 70.1701C63.9082 68.171 63.1925 66.5051 62.5138 64.8145C62.0819 63.7163 61.8475 62.5933 62.0819 61.421C62.1807 60.9274 62.4398 60.4585 62.6249 59.9526C63.5257 61.2236 64.4142 62.3959 65.2163 63.6299ZM60.6999 61.0508C60.2556 61.4827 59.7127 61.8159 59.1697 62.1368C58.6638 62.4453 58.2318 62.2231 57.911 61.8036C57.0225 60.6313 56.8498 59.3109 57.1213 57.9041C57.4174 56.411 58.3306 55.251 59.2684 54.1158C59.9348 53.3013 60.6505 52.5362 61.3045 51.7958C61.576 53.2643 61.9709 54.7944 62.1313 56.3493C62.3164 58.0646 62.0449 59.7551 60.6999 61.0508ZM70.6336 41.8868C70.7693 41.9362 70.9914 42.0966 70.9791 42.2076C70.9421 42.8864 70.8557 43.5527 70.794 44.2191C70.6459 45.7245 69.8438 46.9339 68.943 48.0815C68.326 48.8589 67.4498 49.2661 66.5367 49.5129C65.6112 49.7597 64.6487 49.9078 63.6985 50.0189C62.1066 50.204 60.7369 49.587 59.5152 48.6368C58.4663 47.8223 57.4421 46.9832 56.8868 45.7369C56.64 45.2063 56.4796 44.614 56.4055 44.034C56.1587 42.1089 56.7264 40.3567 57.7012 38.7278C57.7753 38.6044 58.0838 38.555 58.2812 38.5673C59.2314 38.6414 60.1816 38.8141 61.1318 38.8141C62.193 38.8141 63.1061 38.3205 63.9576 37.7159C64.1797 37.5555 64.3895 37.4074 64.7104 37.1853C64.3525 38.6414 64.044 39.9988 63.6738 41.3315C63.6244 41.4919 63.3036 41.6524 63.0938 41.677C61.5266 41.9238 60.453 42.837 60.1075 44.3301C59.6263 46.3909 60.7122 48.3776 63.2666 48.3283C64.7844 48.3036 65.5495 47.3411 66.0184 46.2058C66.4873 45.0705 66.2899 43.8365 65.4878 42.8C65.3644 42.6519 65.2657 42.4421 65.1052 42.3681C64.3402 42.0225 64.4512 41.5166 64.6857 40.8626C65.0559 39.789 65.3273 38.6784 65.6852 37.4321C65.821 37.7406 65.9073 37.9133 65.969 38.0984C66.7835 40.2456 68.5851 41.2081 70.6336 41.8868ZM65.4137 43.9723C65.6482 45.1816 65.0929 46.7241 64.2291 47.2424C63.3406 47.773 62.5015 47.3781 61.6871 47.0326C60.8356 46.6747 60.8479 45.8603 60.8479 45.0952C60.8479 43.6885 61.5883 42.6025 62.736 42.294C63.9206 41.9732 65.1793 42.7753 65.4137 43.9723ZM69.7944 29.4234C69.9055 29.4728 70.0536 29.5468 70.214 29.6208C71.0531 29.991 71.0038 29.9787 70.7693 30.9042C70.4238 32.3603 68.3753 33.9522 66.8699 33.7301C65.7839 33.5696 64.8337 33.2241 64.2044 32.2493C63.3159 30.8672 63.1925 29.5468 63.8466 27.9796C64.3031 28.0413 64.7104 28.103 65.1176 28.1647C65.0682 28.8311 64.9942 29.4974 64.9818 30.1638C64.9572 31.114 65.5001 31.9037 66.2899 32.1382C67.4869 32.4837 68.3013 32.2616 68.8689 31.3238C69.2268 30.7438 69.4859 30.0898 69.7944 29.4234ZM69.1528 28.9545C69.2021 29.0162 69.2145 29.1519 69.1774 29.226C68.8689 29.9293 68.6345 30.6821 68.1902 31.2867C67.7583 31.8791 67.0426 31.9531 66.3516 31.6076C65.7346 31.2991 65.4631 30.7561 65.4878 30.0898C65.5001 29.6085 65.5618 29.1272 65.6235 28.6583C65.6729 28.3251 65.8333 28.14 66.1788 27.9549C66.7835 27.6094 67.2771 27.0788 67.8077 26.6099C67.9434 26.4865 68.0298 26.3137 68.2149 26.0422C68.2149 27.2145 68.4494 28.1647 69.1528 28.9545ZM70.905 21.9824C70.9791 22.0317 71.0038 22.1922 71.0038 22.2909C71.0655 23.5002 70.0906 24.7465 68.9183 24.944C68.2396 25.055 67.9064 24.5614 67.5979 24.1049C67.0796 23.3521 67.1413 22.0441 67.6966 21.316C67.746 21.242 67.82 21.1556 67.8941 21.1309C69.0294 20.7114 69.0294 20.7114 69.8191 19.8846C70.0783 20.6743 70.1523 21.5011 70.905 21.9824ZM68.9306 4.1881C70.1029 4.3732 71.0778 5.61954 71.0161 6.8412C71.0161 6.95226 70.9791 7.11268 70.9174 7.1497C70.1523 7.63096 70.0906 8.45774 69.8438 9.2475C69.2515 8.67986 68.8196 7.98882 67.9188 7.98882C67.8324 7.98882 67.746 7.85308 67.6843 7.7667C66.9686 6.7178 67.1907 5.10125 68.1902 4.34851C68.3507 4.20044 68.6838 4.15108 68.9306 4.1881ZM68.8566 0.634171C68.4494 1.30053 68.3136 2.11497 68.0545 2.88005C67.6226 2.00391 66.8575 1.38691 65.9073 1.01671C65.8456 0.992035 65.7716 0.917992 65.7469 0.856293C65.5248 -0.0198476 65.278 -0.908329 65.6729 -1.79681C65.9444 -2.42615 66.4997 -2.66061 67.129 -2.67295C67.7337 -2.69763 68.1779 -2.32743 68.4987 -1.83383C68.6715 -1.56235 68.7579 -1.22917 68.9183 -0.94535C69.2021 -0.402389 69.2268 0.0418513 68.8566 0.634171ZM70.6706 -2.08063C71.1642 -0.797268 71.1395 -0.784931 69.7821 -0.32835C69.4859 -0.957691 69.2268 -1.61171 68.8689 -2.19169C68.2643 -3.16655 67.4375 -3.38867 66.2405 -3.00613C65.4508 -2.74699 64.9448 -1.98191 64.9695 -0.994709C64.9818 -0.34069 65.0559 0.300991 65.1052 0.955013C64.698 1.01671 64.3031 1.07841 63.8219 1.15245C63.5134 0.35035 63.2542 -0.501106 63.4764 -1.38959C63.7972 -2.66061 64.3525 -3.75887 65.6852 -4.32651C67.9188 -5.27669 70.0412 -3.70951 70.6706 -2.08063ZM63.9823 -20.8868C65.0806 -20.7387 66.1788 -20.4796 67.2401 -20.1341C68.363 -19.7639 69.0664 -18.8754 69.7327 -17.9005C70.7323 -16.4197 70.868 -14.7662 70.9914 -13.0879C71.0038 -12.9892 70.794 -12.8041 70.6459 -12.7671C69.1651 -12.2611 67.709 -11.7058 66.7588 -10.3731C66.3392 -9.78079 66.0431 -9.10209 65.6482 -8.39871C65.3397 -9.45995 65.0312 -10.5089 64.7227 -11.5578C64.6733 -11.7058 64.661 -11.8663 64.5993 -12.002C64.3648 -12.4586 64.4142 -12.7671 64.8831 -13.0879C66.4009 -14.1368 66.6848 -16.864 65.1669 -18.3694C63.7725 -19.7515 61.5143 -19.332 60.6135 -18.0733C59.7743 -16.901 59.5399 -15.1487 60.8726 -13.7419C61.4773 -13.1003 62.1683 -12.6437 63.0691 -12.5696C63.501 -12.5326 63.6615 -12.3105 63.7478 -11.8909C64.0193 -10.6446 64.3525 -9.42293 64.6857 -8.13957C63.97 -8.55913 63.353 -8.96635 62.6989 -9.29953C61.6377 -9.84249 60.4901 -9.76845 59.3425 -9.65739C59.3054 -9.65739 59.2684 -9.63271 59.2314 -9.62037C57.7259 -9.31187 57.7259 -9.31187 57.0842 -10.731C56.3685 -12.3352 56.1587 -13.9764 56.5413 -15.7163C56.8374 -17.0737 57.7259 -17.9992 58.7008 -18.8754C59.1327 -19.2579 59.6139 -19.5911 60.0829 -19.9243C61.2428 -20.7634 62.5755 -21.0719 63.9823 -20.8868ZM63.0815 -13.1126C62.1436 -13.199 61.5143 -13.7666 61.1441 -14.5811C60.9467 -15.0253 60.885 -15.5312 60.7616 -16.0125C60.8479 -17.6537 62.0819 -18.6656 63.6985 -18.3571C64.4759 -18.209 64.8091 -17.5427 65.1299 -16.938C65.6112 -16.0495 65.6605 -15.1117 65.1546 -14.2232C64.7104 -13.4334 63.9946 -13.0262 63.0815 -13.1126ZM61.7611 -25.0947C61.613 -24.268 61.4526 -23.4288 61.2922 -22.6267C60.342 -23.7744 59.3178 -24.922 58.3799 -26.1436C57.1213 -27.7602 56.64 -29.5865 57.294 -31.5979C57.4297 -32.0298 57.7136 -32.4247 57.9974 -32.7826C58.2565 -33.1157 58.6267 -33.2515 59.0833 -33.0664C60.8726 -32.363 61.7117 -30.9439 62.0696 -29.1546C62.3534 -27.7725 61.9956 -26.4398 61.7611 -25.0947ZM62.4521 -35.5591C62.9581 -36.9782 63.39 -38.4219 63.8342 -39.8534C63.9329 -40.1742 63.9206 -40.5444 63.97 -40.9887C64.698 -40.384 65.4014 -39.804 66.1048 -39.2364C66.9933 -38.5083 66.8205 -37.5335 66.4133 -36.7684C65.5988 -35.2382 64.5993 -33.8068 63.6738 -32.3507C63.3653 -31.8694 63.0198 -31.4005 62.6743 -30.8945C61.7364 -32.4124 61.8845 -33.9549 62.4521 -35.5591ZM68.2766 -32.5481C68.1409 -31.8817 67.8694 -31.3388 67.203 -31.0179C65.3274 -30.1048 63.7849 -28.8214 62.736 -26.8223C62.6989 -27.0691 62.6743 -27.1802 62.6743 -27.2913C62.736 -27.9206 62.81 -28.5499 62.8594 -29.1916C62.9457 -30.1665 63.2913 -31.0426 63.9083 -31.7954C65.3274 -33.5106 66.5243 -35.3369 67.2647 -37.5088C67.9558 -35.8922 68.6345 -34.3251 68.2766 -32.5481ZM61.8968 -44.666C63.5627 -43.7281 65.241 -42.7903 66.8699 -41.7784C69.3749 -40.2236 70.6336 -37.842 71.0038 -34.9791C71.1148 -34.1646 71.0284 -33.3255 71.0038 -32.4987C71.0038 -32.4124 70.8927 -32.289 70.8063 -32.2643C70.3991 -32.1532 69.9919 -32.0668 69.6093 -31.9805C69.523 -32.7085 69.4983 -33.3996 69.3625 -34.0906C68.8689 -36.7437 67.5609 -38.8785 65.4014 -40.5444C63.2172 -42.235 60.8109 -43.5554 58.4046 -44.8881C57.3434 -45.4681 56.2574 -46.0234 55.1962 -46.6034C54.9124 -46.7638 54.7766 -46.7268 54.6039 -46.4429C53.8512 -45.2089 53.0367 -43.9996 52.3087 -42.7533C51.3338 -41.0874 50.3466 -39.4091 49.4828 -37.6815C48.656 -36.0156 47.9896 -34.2757 47.9526 -32.3753C47.9403 -31.6103 48.0884 -30.8452 48.2118 -30.0924C48.3105 -29.4878 48.4586 -28.8831 48.6683 -28.3031C48.8781 -27.7355 49.199 -27.2049 49.4951 -26.5879C49.0015 -26.4398 48.5696 -26.3164 48.1254 -26.1807C47.4467 -27.5257 46.4965 -28.7104 46.1386 -30.2652C45.6574 -32.3877 45.8672 -34.3868 46.842 -36.2871C47.5577 -37.6939 48.3969 -39.0513 49.199 -40.421C50.3713 -42.4078 51.5682 -44.3822 52.7282 -46.3689C53.2588 -47.2574 53.7401 -48.1829 54.1967 -48.985C56.7387 -47.5535 59.3301 -46.1221 61.8968 -44.666Z" fill="#824FD4" fill-opacity="0.1"/>
</svg>
