<svg width="72" height="30" viewBox="0 0 72 30" fill="none" xmlns="http://www.w3.org/2000/svg">
<path d="M0.305244 -56.8921C2.46961 -54.6651 4.68403 -52.4758 6.8484 -50.2488C7.8993 -49.1604 8.91268 -48.0219 9.90104 -46.8834C10.1513 -46.5957 10.3264 -46.6207 10.6016 -46.7708C11.3398 -47.1837 12.0904 -47.559 12.8286 -47.9844C14.2423 -48.7976 15.7561 -49.4231 16.9696 -50.5741C17.2574 -50.8494 17.4575 -50.6617 17.5701 -50.3364C18.4334 -47.9719 20.0223 -46.0077 21.2483 -43.8433C21.3109 -43.7307 21.5736 -43.6556 21.7112 -43.6932C24.0382 -44.3938 26.3527 -45.1319 28.6797 -45.82C30.8941 -46.4706 33.1336 -47.0461 35.3605 -47.6591C35.6858 -47.7467 35.8734 -47.6841 35.961 -47.3213C36.1987 -46.3705 36.4614 -45.4322 36.7117 -44.4814C37.162 -42.7799 37.6375 -41.0784 38.0503 -39.3519C38.5132 -37.4253 38.9136 -35.4986 39.3264 -33.5594C39.4015 -33.2216 39.5766 -33.1216 39.9019 -33.1216C40.7652 -33.1341 41.6409 -33.109 42.5042 -33.1216C44.068 -33.1466 45.6193 -33.1591 47.1832 -33.2467C47.6836 -33.2717 47.7712 -33.1466 47.7086 -32.6962C47.6086 -31.9205 47.5085 -31.1323 47.5085 -30.3567C47.496 -28.9054 47.571 -27.4542 47.596 -26.0029C47.6086 -25.0271 47.6086 -25.0396 48.5594 -24.8144C50.9364 -24.2514 53.3135 -23.6759 55.678 -23.0879C57.6923 -22.5875 59.694 -22.037 61.6957 -21.5241C62.021 -21.4365 62.2462 -21.3114 62.1336 -20.9235C61.9835 -20.4231 61.8208 -19.9102 61.6832 -19.3972C61.1327 -17.4205 60.5948 -15.4313 60.0318 -13.4546C59.4438 -11.4278 58.8307 -9.4011 58.1927 -7.37435C58.0801 -7.03656 58.1051 -6.87392 58.4054 -6.71128C60.5697 -5.52276 62.5089 -3.93388 64.8734 -3.10817C65.2112 -2.98307 65.2738 -2.75787 65.0236 -2.47012C64.9235 -2.34501 64.8109 -2.24493 64.7233 -2.10731C63.5473 -0.093071 62.3713 1.92117 61.2203 3.94791C61.1577 4.07302 61.2578 4.3858 61.3829 4.49839C62.3713 5.42419 63.4222 6.29994 64.3855 7.23825C66.7125 9.5027 69.0145 11.7922 71.3165 14.0691C71.892 14.6321 71.892 14.6321 71.2915 15.2201C69.1897 17.2844 67.1004 19.3737 64.986 21.4255C63.8476 22.5389 62.6715 23.6149 61.458 24.6533C61.1077 24.9535 61.0451 25.1662 61.2828 25.5165C61.3704 25.6416 61.4205 25.7918 61.508 25.9294C62.6841 27.8685 63.4973 30.0454 65.0361 31.7719C65.2863 32.0597 65.1612 32.2723 64.8234 32.3975C62.4464 33.2482 60.4822 34.8371 58.3178 36.0631C58.2052 36.1257 58.1051 36.3884 58.1426 36.5135C58.8558 38.9406 59.6314 41.3427 60.332 43.7698C60.9075 45.7465 61.408 47.7357 61.9459 49.7249C62.1961 50.6382 62.1961 50.6257 61.3204 50.8509C58.9183 51.4764 56.5162 52.152 54.1142 52.7525C52.0874 53.2529 50.0357 53.6658 47.9964 54.1537C47.8338 54.1912 47.6211 54.4415 47.6086 54.5916C47.5585 55.6675 47.5085 56.7435 47.5335 57.8319C47.5585 59.2456 47.6586 60.6468 47.7212 62.048C47.7462 62.4234 47.6461 62.6235 47.2082 62.5109C46.9455 62.4359 46.6702 62.3733 46.395 62.3733C44.1931 62.3608 41.9912 62.3733 39.7893 62.3608C39.439 62.3608 39.3639 62.561 39.3139 62.8237C38.9886 64.375 38.7134 65.9389 38.3255 67.4777C37.5749 70.4803 36.7367 73.4704 35.9735 76.4605C35.8609 76.9234 35.6482 76.9734 35.2604 76.8608C33.684 76.4104 32.0952 75.9725 30.5188 75.5222C27.6038 74.6714 24.6888 73.8082 21.7738 72.9825C21.6111 72.9324 21.2984 73.02 21.2233 73.1451C19.9972 75.2845 18.4334 77.2361 17.5701 79.5882C17.395 80.0511 17.1948 80.0386 16.8445 79.7383C16.4066 79.3505 15.9437 78.9751 15.4308 78.6874C13.9795 77.8617 12.5158 77.061 11.0395 76.2728C10.2138 75.8349 10.2013 75.8474 9.58826 76.5981C9.52571 76.6731 9.45065 76.7357 9.3881 76.8108C7.73667 78.5247 6.08523 80.2387 4.42129 81.9402C3.0326 83.3664 1.6314 84.7676 0.25521 86.2064C0.0800622 86.3815 -0.0575645 86.4816 -0.207696 86.4816L-0.207696 85.6434C0.0175011 85.6434 0.230193 85.4182 0.693092 84.9678C2.51967 83.1412 4.35875 81.3397 6.1603 79.4881C7.37385 78.237 8.51234 76.9108 9.76342 75.5347C8.93771 75.0843 8.19957 74.6714 7.44892 74.2961C7.32381 74.2336 7.04857 74.2711 6.961 74.3712C5.48472 75.9475 4.02095 77.5239 2.54468 79.1128C1.78152 79.9385 1.00586 80.7517 0.25521 81.5899C0.0925744 81.7776 -0.0575644 81.8776 -0.207696 81.8651L-0.207696 81.2146C2.06927 78.7875 4.32122 76.3729 6.63572 73.8958C5.75996 73.3453 4.88421 72.8073 4.00845 72.2693C3.04512 73.4454 2.08179 74.6089 1.13097 75.7599C0.830711 76.1227 0.530448 76.4855 0.205169 76.8233C0.06755 76.9609 -0.0700766 77.036 -0.195183 77.0235L-0.195183 76.4355C0.192649 76.0101 0.580482 75.6348 0.918273 75.2219C1.66892 74.3211 2.40707 73.3953 3.1452 72.482C3.43295 72.1317 3.62061 71.869 3.08265 71.5062C2.54468 71.1559 2.1068 70.6429 1.61888 70.1926C1.15597 70.7806 0.693076 71.3436 0.24269 71.9191C0.0925592 72.1192 -0.057572 72.2068 -0.195183 72.2068L-0.195183 71.7189C0.305244 71.0308 0.718116 70.4428 1.13097 69.8548C1.18101 69.7797 1.20603 69.6171 1.15598 69.542C0.693084 68.5411 0.217666 67.5403 -0.195183 66.6645C-0.195183 66.6645 -0.195183 66.6645 -0.195183 66.677L-0.195183 61.5101C0.405334 61.4976 0.993339 61.385 1.60637 61.1973C3.34537 60.6593 4.90922 59.8461 6.26039 58.6326C7.28628 57.7068 7.93684 56.5183 8.51234 55.2797C9.12537 53.9661 9.08784 52.5774 9.01277 51.1511C8.33719 51.1511 7.67411 51.1511 6.9735 51.1511C6.81086 51.8142 6.69826 52.5023 6.48558 53.1654C5.45969 56.2555 3.39542 58.2573 0.217674 58.9954C0.0800547 59.0204 -0.0450445 59.0454 -0.182664 59.058L-0.182664 58.4574C0.743133 58.4699 1.56884 58.0946 2.35702 57.6067C4.38377 56.3431 5.77247 54.5666 6.21035 52.152C6.2729 51.8142 6.31042 51.4639 6.37298 51.051C5.5848 50.8759 4.87169 50.7133 4.09602 50.5381C4.00845 50.8759 3.90836 51.2012 3.82079 51.539C3.42045 53.0403 2.65728 54.2913 1.26858 55.0545C0.76815 55.3297 0.280235 55.4799 -0.182664 55.5049L-0.182663 54.9794C0.580497 54.9919 1.26858 54.5541 2.03174 53.7784C2.89499 52.9026 3.27032 51.7516 3.50802 50.5631C3.53304 50.438 3.42043 50.2378 3.30784 50.1628C2.84493 49.8375 2.36953 49.5372 1.96918 49.2745C1.64391 49.9876 1.39368 50.7258 0.980827 51.3763C0.66806 51.8768 0.242698 52.127 -0.170159 52.127L-0.170159 51.3513C0.0175089 51.3388 0.205169 51.2387 0.380325 51.0636C1.09344 50.3629 1.31862 49.4622 1.30611 48.5364C1.30611 48.1235 0.880744 47.7232 0.66806 47.2978C0.355293 46.6723 0.0675425 46.0342 -0.157647 45.5713C-0.170159 45.5838 -0.170151 45.5963 -0.182663 45.6088L-0.182663 41.743C1.46876 41.743 2.83243 40.9048 3.87082 39.6787C4.98428 38.3651 5.30957 36.8013 4.90923 35.0873C4.82165 34.7245 4.70905 34.5868 4.33373 34.6119C3.98343 34.6369 3.63312 34.6119 3.2578 34.6119C3.2578 35.2624 3.27032 35.8254 3.2578 36.3884C3.20776 38.3901 1.99421 39.7413 0.530448 40.1792C0.292739 40.2542 0.0425182 40.2793 -0.195183 40.2918L-0.195183 39.7163C0.780654 39.7163 1.71896 39.1032 2.24441 38.1399C2.85744 37.0014 2.80742 35.7629 2.63226 34.5243C2.61975 34.4367 2.50715 34.3366 2.41957 34.2741C1.96918 33.9738 1.50628 33.6861 0.993339 33.3608C1.09342 33.9738 1.25607 34.5618 1.26858 35.1498C1.2811 35.7629 1.23106 36.4009 1.08092 36.9889C0.943306 37.5144 0.330276 37.8897 -0.182663 37.8772L-0.182663 37.2892C0.0800624 37.2892 0.442871 36.9889 0.58049 36.7262C0.743133 36.4134 0.780662 36.0006 0.76815 35.6503C0.718109 34.4242 0.442871 33.2482 -0.0950932 32.1472C-0.107605 32.1222 -0.13263 32.1097 -0.195183 32.0972L-0.195183 29.57C-0.145142 29.57 -0.0825886 29.57 -0.0200352 29.57C1.15598 29.5325 2.24442 28.4065 2.29446 27.2305C2.30698 27.0178 2.36952 26.8051 2.36952 26.5924C2.38203 26.1546 2.35702 25.7667 1.79403 25.6166C0.880745 25.3789 0.217681 24.8034 -0.182663 23.8401L-0.182663 23.8526L-0.182663 21.6132C-0.182663 21.6132 -0.182663 21.6132 -0.170159 21.6132C0.0175091 21.6132 0.267715 21.3629 0.355293 21.1628C0.993339 19.7365 0.505432 18.4479 -0.182663 17.0342L-0.182663 12.2551C-0.182663 12.2676 -0.170159 12.2801 -0.170159 12.2926C0.430359 10.8914 0.993354 9.65283 0.380325 8.26414C0.280235 8.02643 0.0175092 7.85128 -0.170159 7.65111C-0.182663 7.66361 -0.182679 7.66362 -0.195183 7.67612L-0.195183 5.4367C-0.195183 5.4367 -0.195175 5.44921 -0.182663 5.44921C0.230194 4.47337 0.943306 3.92289 1.88161 3.63514C2.06928 3.57259 2.29446 3.32237 2.30697 3.13471C2.39455 2.20891 2.18187 0.932816 1.34365 0.282254C0.880745 -0.0805585 0.342781 -0.243202 -0.195183 -0.243202L-0.195183 -2.77038C-0.120125 -2.75787 -0.0575564 -2.75787 0.0175092 -2.74536C0.267723 -3.85882 0.56797 -4.97228 0.743126 -6.09825C0.818191 -6.53613 0.730613 -7.06158 0.555458 -7.47444C0.455375 -7.72465 0.0800474 -7.97487 -0.195183 -7.99989L-0.195183 -8.62543C-0.170166 -8.62543 -0.157654 -8.62543 -0.13263 -8.62543C0.405334 -8.60041 1.03087 -8.16253 1.11845 -7.5495C1.23104 -6.79885 1.19351 -6.01068 1.181 -5.24752C1.16849 -4.8722 1.05589 -4.48436 0.993339 -4.09652C1.48126 -4.40929 1.99422 -4.647 2.38205 -5.00981C2.60725 -5.2225 2.66979 -5.64786 2.70733 -5.98565C2.85745 -7.47444 2.64477 -8.83812 1.4062 -9.864C0.893257 -10.2894 0.355301 -10.4645 -0.182663 -10.452L-0.182663 -11.015C0.505432 -11.04 1.11845 -10.7523 1.68143 -10.3269C2.76987 -9.50119 3.27031 -8.3627 3.27031 -6.99903C3.27031 -6.47358 3.27031 -5.94812 3.27031 -5.33509C3.68317 -5.33509 4.13356 -5.31007 4.58395 -5.3476C4.69654 -5.36011 4.84667 -5.54778 4.88421 -5.6854C5.58481 -8.28764 4.24615 -10.8398 2.13184 -11.7531C1.45625 -12.0409 0.75563 -12.4662 0.0550306 -12.4913C-0.020035 -12.4913 -0.107598 -12.4913 -0.182663 -12.4913L-0.182663 -16.3696C-0.182663 -16.3571 -0.170159 -16.3446 -0.170159 -16.3446C0.142616 -16.9576 0.49292 -17.7833 0.955818 -18.5465C1.26859 -19.0469 1.43123 -19.5348 1.20603 -20.0728C0.968323 -20.6608 0.693085 -21.2488 0.342781 -21.7743C0.192657 -21.987 0.00499709 -22.087 -0.182663 -22.062L-0.182663 -22.8502C0.242706 -22.8502 0.668068 -22.5625 1.03088 -21.987C1.41871 -21.3739 1.65642 -20.6608 1.95668 -19.9852C2.41958 -20.298 2.97005 -20.6608 3.55805 -21.0486C3.18272 -22.9503 2.53217 -24.6643 0.555458 -25.5275C0.305244 -25.6401 0.0675505 -25.6901 -0.170159 -25.6901L-0.170159 -26.2406C0.68058 -26.2656 1.39368 -25.7902 2.04425 -25.2398C2.99507 -24.4391 3.6081 -23.3882 3.8458 -22.1496C3.90836 -21.8493 4.02095 -21.5491 4.10853 -21.2488C4.8842 -21.4365 5.60982 -21.5991 6.36047 -21.7743C6.1603 -24.8269 4.59646 -26.9788 2.13184 -28.4926C1.35616 -28.968 0.58049 -29.1807 -0.170159 -29.1681L-0.170159 -29.7311C0.76815 -29.7436 1.63139 -29.3808 2.40707 -28.943C4.22113 -27.9046 5.60982 -26.4033 6.34796 -24.4141C6.58567 -23.7635 6.69826 -23.0504 6.83588 -22.3623C6.89844 -22.012 6.99852 -21.7993 7.42389 -21.8243C7.94934 -21.8619 8.4748 -21.8368 8.98774 -21.8368C9.38809 -24.4891 8.53735 -26.7035 6.91095 -28.6552C5.28455 -30.6194 3.05762 -31.5827 0.66806 -32.1707C0.405334 -32.2333 0.117592 -32.2583 -0.170159 -32.2458L-0.170158 -37.4003C-0.170158 -37.4003 -0.170158 -37.4002 -0.170158 -37.3877C0.230186 -38.251 0.693092 -39.2268 1.14348 -40.2027C1.19352 -40.3153 1.19353 -40.5279 1.13097 -40.628C0.743133 -41.216 0.330276 -41.779 -0.157646 -42.4546C-0.157646 -42.4546 -0.157646 -42.4421 -0.170158 -42.4421L-0.170158 -42.9676C0.0425262 -42.9676 0.242691 -42.6923 0.730614 -42.1418C1.06841 -41.7665 1.33113 -41.3161 1.60637 -40.9283C2.25694 -41.5163 2.88248 -42.0668 3.58308 -42.7048C2.332 -44.2186 1.11846 -45.6949 -0.182663 -47.2713L-0.182663 -47.8217C-0.045044 -47.8217 0.0925674 -47.7342 0.230186 -47.5715C1.49377 -46.0702 2.75736 -44.5689 4.04597 -43.0301C4.8842 -43.543 5.74744 -44.081 6.66074 -44.644C4.35875 -47.1086 2.10681 -49.5107 -0.170158 -51.9628L-0.170158 -52.6384C0.00499723 -52.6384 0.180138 -52.4758 0.492905 -52.1255C1.96918 -50.5116 3.45798 -48.9227 4.94676 -47.3213C5.58481 -46.6332 6.23537 -45.9576 6.8609 -45.2445C7.0861 -44.9818 7.27377 -44.8692 7.59904 -45.0694C8.28714 -45.4822 9.00025 -45.8575 9.8635 -46.3455C6.48558 -49.8235 3.19524 -53.2139 -0.170158 -56.6919L-0.170158 -57.2048C-0.0575562 -57.2048 0.105072 -57.0922 0.305244 -56.8921ZM35.4356 -47.1211C30.8316 -45.8075 26.2651 -44.5189 21.6111 -43.1927C22.074 -42.3795 22.4368 -41.729 22.7997 -41.0909C23.0123 -40.7281 23.2626 -40.603 23.7129 -40.7531C26.728 -41.704 29.7431 -42.6047 32.7582 -43.5305C33.5089 -43.7557 33.5464 -43.7182 33.7091 -42.955C34.172 -40.8908 34.6474 -38.839 35.1228 -36.7747C35.3605 -35.7488 35.6107 -34.7104 35.8359 -33.6845C35.8985 -33.3718 35.9985 -33.1841 36.3488 -33.1966C37.137 -33.2091 37.9127 -33.1966 38.8385 -33.1966C37.9753 -37.9132 36.5991 -42.4296 35.4356 -47.1211ZM26.04 -34.3726C26.5279 -34.5853 27.0283 -34.8105 27.5162 -35.0357C28.5671 -35.5236 28.6922 -35.4736 28.9174 -34.3601C29.03 -33.7846 29.0676 -33.1966 29.1301 -32.6086C29.8683 -32.7587 30.5939 -32.8839 31.2945 -33.0715C31.4446 -33.109 31.6573 -33.3718 31.6323 -33.4969C31.357 -35.2484 31.0318 -36.9999 30.719 -38.7514C30.719 -38.7764 30.6689 -38.8015 30.5564 -38.9141C28.8048 -38.2635 27.0158 -37.5879 25.2017 -36.9123C25.502 -36.0116 25.7522 -35.2359 26.04 -34.3726ZM25.8273 -30.3567C26.3402 -30.757 26.8031 -31.3325 27.4036 -31.5702C28.6797 -32.0832 28.6172 -33.0215 28.4545 -34.0724C28.4295 -34.26 28.392 -34.4602 28.3294 -34.7855C27.5913 -34.4602 26.8907 -34.1474 26.1901 -33.8222C26.1025 -33.7846 26.0775 -33.5845 26.065 -33.4594C25.9774 -32.4335 25.9023 -31.4076 25.8273 -30.3567ZM27.3786 -38.301C28.4295 -38.6889 29.4804 -39.0392 30.5313 -39.4145C30.9567 -39.5646 31.1694 -39.452 31.2444 -38.9641C31.3946 -38.0008 31.6323 -37.0499 31.8074 -36.0866C31.9701 -35.1233 32.0952 -34.16 32.2328 -33.1466C33.2587 -33.1966 34.2721 -33.2342 35.3355 -33.2842C34.5848 -36.537 33.8342 -39.7648 33.0835 -43.0301C29.9183 -42.0668 26.7406 -41.0909 23.5003 -40.1026C24.0007 -39.1768 24.4636 -38.301 24.964 -37.3752C25.7897 -37.688 26.5779 -38.0133 27.3786 -38.301ZM47.0205 -22.625C46.958 -25.2523 46.9205 -27.892 46.908 -30.5193C46.908 -31.2199 47.008 -31.9205 47.0581 -32.5836C44.606 -32.5836 42.1413 -32.5836 39.6767 -32.5836C38.8885 -32.5836 38.1004 -32.5711 37.3122 -32.5836C36.7617 -32.5961 36.2237 -32.6837 35.6733 -32.6837C34.6599 -32.6962 33.634 -32.7212 32.6206 -32.6462C31.8074 -32.5836 30.9942 -32.4084 30.1935 -32.2583C28.7298 -31.9831 27.6038 -31.1073 26.4778 -30.2065C25.2017 -29.1807 24.7013 -27.6418 23.8506 -26.4033C24.1884 -26.0405 24.5011 -25.6901 24.8514 -25.3023C25.3018 -25.9529 25.6771 -26.6285 26.1776 -27.1789C27.9291 -29.1056 30.0309 -30.3317 32.6707 -30.732C34.7975 -31.0573 36.9243 -31.0323 39.0512 -31.0823C40.9904 -31.1323 42.9295 -30.9572 44.8687 -30.8946C45.194 -30.8821 45.3191 -30.782 45.3316 -30.4568C45.3316 -29.9438 45.4067 -29.4434 45.4192 -28.9304C45.4567 -26.666 45.5318 -24.4141 45.4942 -22.1496C45.4567 -19.6975 45.269 -17.2329 44.1681 -14.9934C43.7552 -14.1552 43.0421 -13.4546 42.4541 -12.7165C42.1789 -12.3662 41.9036 -12.0033 41.5658 -11.7156C41.0029 -11.2652 40.3898 -10.8774 39.7268 -10.402C40.1146 -10.0642 40.4649 -9.7514 40.8527 -9.42612C42.0788 -10.2518 43.5926 -10.8148 44.681 -12.0534C46.0822 -13.6548 46.8704 -15.4688 46.9955 -17.5832C47.0581 -18.5965 47.1582 -19.6099 47.1707 -20.6233C47.2082 -21.3114 47.0331 -21.9619 47.0205 -22.625ZM9.58826 -33.1591C10.2513 -33.6345 10.8268 -33.9598 11.3022 -34.4227C11.4899 -34.6103 11.5274 -35.0482 11.4899 -35.361C11.2772 -36.8122 10.8644 -38.2385 10.8268 -39.6897C10.7768 -41.4412 11.0896 -43.1677 12.3031 -44.5814C12.3281 -44.6065 12.3156 -44.6565 12.3281 -44.8692C11.1021 -44.0685 9.95108 -43.3554 8.85012 -42.5672C7.93684 -41.9041 7.74918 -40.9033 8.02442 -39.8649C8.29966 -38.8265 8.68748 -37.8131 9.0503 -36.7997C9.45064 -35.6362 9.95108 -34.5103 9.58826 -33.1591ZM11.3898 -38.8765C11.4649 -37.7255 11.8402 -36.5745 12.203 -35.4611C12.4783 -34.5853 13.2414 -34.3226 13.9295 -34.8355C16.4066 -36.6621 18.033 -39.0392 18.0706 -42.1919C18.0831 -43.8934 17.3324 -45.4197 16.2815 -46.7583C12.5158 -45.1695 11.1146 -42.7549 11.3898 -38.8765ZM15.9688 -35.9365C15.5059 -35.4235 15.0305 -34.9356 14.555 -34.4352C14.2673 -34.1349 14.1672 -33.8472 14.3924 -33.4343C14.6676 -32.9214 14.8678 -32.3709 15.1681 -31.6828C15.8812 -33.622 17.5827 -34.4602 18.8838 -35.6863C19.3342 -36.1116 19.8221 -36.5245 20.2099 -37.0249C20.923 -37.9507 20.8605 -38.9766 20.3726 -39.965C19.8596 -41.0159 19.2716 -42.0292 18.6836 -43.1177C18.6336 -42.3045 18.6586 -41.5789 18.5335 -40.8908C18.1707 -38.9891 17.2574 -37.3502 15.9688 -35.9365ZM17.4826 -33.8472C16.4817 -33.0715 15.8061 -32.0832 15.4058 -30.9197C15.2807 -30.5443 15.3057 -30.1065 15.2682 -29.7061C15.3182 -29.6561 15.3557 -29.606 15.4058 -29.556C17.395 -30.6194 19.4092 -31.6578 21.3734 -32.7838C21.8238 -33.034 22.1491 -33.5469 22.4744 -33.9723C22.7371 -34.3226 22.6746 -34.7229 22.5119 -35.1358C22.1866 -36.0116 21.8989 -36.8998 21.5611 -37.8757C20.4601 -36.1367 18.9588 -34.9982 17.4826 -33.8472ZM16.9071 -29.8187C15.9062 -29.4309 15.043 -28.8429 14.48 -27.8545C14.1422 -27.2415 13.6668 -26.716 13.2289 -26.103C14.0421 -26.4408 14.7928 -26.7911 15.5809 -27.0663C16.7319 -27.4792 17.933 -27.5292 19.134 -27.4291C20.2725 -27.3416 20.923 -27.9421 21.4735 -28.8053C22.074 -29.7562 22.3743 -30.7946 22.5119 -31.908C22.562 -32.3334 22.6245 -32.7462 22.6745 -33.1841C21.0231 -31.5827 19.0089 -30.6444 16.9071 -29.8187ZM21.0481 -26.6785C18.7587 -27.1039 16.5067 -27.0914 14.3799 -26.0154C12.4532 -25.0271 10.8143 -23.726 10.1137 -21.5115C10.6892 -21.1863 11.2772 -20.8485 11.7777 -20.5732C12.5533 -21.3114 13.2289 -22.087 14.0296 -22.7001C15.2431 -23.6259 16.6694 -24.1638 18.1957 -24.314C18.8838 -24.3765 19.5969 -24.364 20.2975 -24.314C22.2117 -24.1638 23.2626 -22.8627 24.1008 -21.3364C24.7889 -20.0853 24.989 -18.7091 25.0766 -17.3204C25.1642 -16.0819 24.7889 -14.9184 24.3385 -13.7799C24.301 -13.6798 24.2509 -13.5672 24.2009 -13.4296C24.8014 -13.0668 25.3894 -12.729 25.9649 -12.3787C28.3795 -15.1811 28.2419 -19.7851 26.2026 -22.7376C25.6146 -23.5883 24.9515 -24.4015 24.2884 -25.1897C23.4502 -26.1656 22.2617 -26.4533 21.0481 -26.6785ZM3.69568 10.7288C4.50888 10.441 5.27204 10.2158 6.07273 10.5286C6.18533 10.5661 6.36048 10.5286 6.46056 10.4535C7.53649 9.67786 8.1245 8.78959 7.72415 7.45094C7.63658 7.13817 7.22372 6.77535 6.89844 6.67526C5.74745 6.34998 4.58394 6.90046 3.99593 7.92635C3.92086 8.06397 3.88333 8.27664 3.93337 8.42677C4.1961 9.20245 3.97092 9.92807 3.69568 10.7288ZM3.92087 20.8625C3.87083 21.0126 3.94589 21.2503 4.03347 21.4005C4.68403 22.4264 5.74745 22.9018 6.89844 22.589C7.23624 22.4889 7.63657 22.1011 7.74917 21.7633C8.09947 20.6623 7.48645 19.3737 6.46056 18.8107C6.36048 18.7607 6.21035 18.6856 6.13528 18.7232C5.30957 19.1235 4.54641 18.7982 3.70819 18.5605C3.9584 19.3612 4.20862 20.0743 3.92087 20.8625ZM9.0503 66.064C8.73753 66.9147 8.39974 67.753 8.14952 68.6162C7.48645 70.8932 8.34969 71.5687 9.72588 72.5071C10.5391 73.0575 11.4023 73.5204 12.3406 73.9333C12.178 73.7206 11.9778 73.5329 11.8527 73.2952C10.9645 71.6063 10.6016 69.8047 10.8769 67.9031C11.0395 66.7646 11.3273 65.6386 11.5525 64.5126C11.6275 64.1373 11.59 63.8496 11.2147 63.6244C10.6892 63.2991 10.2138 62.8863 9.60077 62.4234C9.92605 63.787 9.46315 64.9255 9.0503 66.064ZM11.9153 72.1693C12.4532 73.6581 13.6793 74.5714 14.9429 75.4221C15.3307 75.6848 15.7811 75.8474 16.244 76.0851C17.4075 74.5213 18.1707 72.8323 18.0581 70.8932C18.008 70.0549 17.7078 69.2167 17.395 68.416C16.7444 66.8021 15.6935 65.4635 14.3299 64.3875C13.2539 63.5493 12.5658 63.7245 12.0779 64.9881C11.1521 67.3526 11.052 69.7672 11.9153 72.1693ZM14.6176 63.787C15.5934 64.938 16.6068 66.064 17.445 67.3026C18.2332 68.4786 18.596 69.8673 18.6586 71.2935C18.6711 71.6188 18.5835 71.9441 18.521 72.407C18.6961 72.1693 18.8212 72.0316 18.8963 71.8815C19.4217 70.8807 19.9847 69.8923 20.4601 68.8664C21.0607 67.5903 20.5727 66.5144 19.6344 65.6386C18.6461 64.7128 17.5576 63.8996 16.5818 62.9738C16.0188 62.4359 15.5684 61.7603 15.068 61.1347C14.8678 61.5976 14.6802 62.1356 14.4049 62.6235C14.1422 63.124 14.3048 63.4242 14.6176 63.787ZM21.5736 67.1524C21.9614 65.9889 22.4619 64.9505 22.637 63.8496C22.7496 63.1365 22.0991 62.5485 21.4985 62.1106C20.0473 61.0472 18.4584 60.259 16.782 59.6084C16.294 59.4208 15.8311 59.1705 15.2807 58.9078C15.2557 60.9221 16.3441 62.2357 17.7953 63.3742C19.1715 64.4376 20.5477 65.526 21.5736 67.1524ZM17.6452 59.4208C19.4593 59.9837 21.1232 60.9471 22.612 62.3983C22.5369 61.1097 22.3868 59.9462 21.8864 58.8703C21.7112 58.495 21.4985 58.1447 21.2733 57.7944C20.7729 57.0562 20.1098 56.6183 19.1465 56.6809C17.0822 56.831 15.118 56.4557 13.304 55.3422C14.4424 57.0562 15.4808 58.7452 17.6452 59.4208ZM16.8946 56.0679C18.8212 56.4307 20.7229 56.1429 22.5745 55.5674C23.0499 55.4173 23.5378 55.1546 23.8881 54.8168C25.6396 53.1028 27.1034 51.1887 27.5538 48.7115C27.9666 46.4596 27.8165 44.2577 26.4278 42.2935C26.2777 42.0808 26.1525 41.8681 25.9899 41.6179C25.3644 41.9807 24.8014 42.3185 24.3135 42.6188C24.5512 43.6321 24.8389 44.5955 25.0016 45.5713C25.2267 46.9225 24.964 48.2611 24.5387 49.5498C24.1884 50.6007 23.6129 51.5265 22.8622 52.3522C22.1241 53.1779 21.1733 53.5032 20.1474 53.5907C16.7695 53.891 14.0671 52.6649 12.0279 49.9501C11.9903 49.9001 11.9528 49.8625 11.8903 49.7875C11.3022 50.1252 10.7017 50.4505 10.0887 50.8008C11.3523 53.8785 13.7419 55.4799 16.8946 56.0679ZM29.6305 52.3772C29.7682 51.3138 29.9683 50.2754 29.5305 49.262C29.1676 48.4113 28.7548 47.5981 28.442 46.91C28.1543 48.086 27.879 49.3996 27.4912 50.6757C27.3161 51.2637 26.9658 51.8267 26.5904 52.3271C25.8648 53.303 26.115 54.2163 26.6029 55.1796C27.291 56.5433 28.5046 57.3815 29.7056 58.3323C29.3053 56.3181 29.3678 54.3414 29.6305 52.3772ZM41.8661 34.0364C41.8286 34.9872 42.2414 35.6002 42.9545 36.1132C44.3057 37.089 45.8696 37.3392 47.5835 37.4893C46.0197 35.8504 45.1189 33.9613 44.3432 31.9971C43.8929 30.8586 43.2798 29.8703 42.1539 29.2572C41.5784 28.9445 41.0904 28.4941 40.64 28.1688C40.9778 29.1947 41.4282 30.2456 41.6784 31.3591C41.8786 32.2223 41.9036 33.1481 41.8661 34.0364ZM40.4774 1.24558C42.0413 0.00701151 43.8178 -0.793678 44.4308 -2.87047C44.9062 -4.47185 46.2949 -7.03656 47.5835 -8.18755C45.6819 -8.09998 44.681 -7.84976 43.3674 -7.11163C42.3916 -6.56115 41.8036 -5.84804 41.8661 -4.60947C41.9787 -2.58272 41.8411 -1.41922 40.4774 1.24558ZM44.8312 -30.2941C42.8795 -30.5819 41.0404 -30.4067 39.439 -29.3683C37.9752 -28.4175 36.9744 -27.0038 36.3614 -25.3649C35.9985 -24.4015 35.7358 -23.3882 35.5982 -22.3623C35.4856 -21.4865 35.936 -21.0612 36.8368 -21.1362C38.7259 -21.2738 40.3898 -22.0245 41.9287 -23.1004C44.1055 -24.6267 44.9438 -26.7661 44.8186 -29.3558C44.8186 -29.6686 44.8312 -29.9688 44.8312 -30.2941ZM29.7306 -29.0556C28.2419 -27.9171 26.7781 -26.8537 26.2526 -24.977C26.09 -24.389 26.09 -23.8636 26.4653 -23.3131C27.6789 -21.5616 28.3044 -19.6099 28.2794 -17.358C29.3053 -19.3347 30.131 -21.1738 29.618 -23.4507C29.2177 -25.2398 29.3053 -27.1289 29.7306 -29.0556ZM28.1668 -15.106C27.9166 -14.3929 27.6538 -13.6798 27.4036 -12.9542C28.8674 -13.4921 30.3311 -13.9926 31.7574 -14.5681C33.6715 -15.3437 34.9852 -16.6949 35.4731 -18.7467C35.5857 -19.2096 35.5106 -19.7225 35.4481 -20.2104C35.373 -20.7734 34.9476 -21.0236 34.3972 -21.0612C32.6081 -21.1988 31.2069 -20.4481 30.0809 -19.1095C29.0801 -17.946 28.6422 -16.5072 28.1668 -15.106ZM29.9934 -24.7018C30.0309 -23.4632 30.2686 -22.2247 30.4187 -20.9486C31.6823 -21.5741 32.3829 -22.6876 32.7207 -24.0012C32.996 -25.0771 33.1086 -26.2031 33.3588 -27.2915C33.5965 -28.3424 33.9217 -29.3808 34.222 -30.4442C33.2337 -30.2566 32.1327 -30.144 31.1193 -29.7812C30.694 -29.631 30.2936 -28.943 30.2186 -28.455C30.0184 -27.2165 29.9558 -25.9529 29.9934 -24.7018ZM34.0844 -28.1923C33.8592 -27.3541 33.7341 -26.4783 33.584 -25.6026C33.3588 -24.314 33.2211 -23.0003 32.2453 -21.8618C33.0585 -21.9244 33.7591 -21.9369 34.4222 -22.0745C34.6349 -22.1246 34.8476 -22.5124 34.9226 -22.7877C35.4606 -24.7268 36.0611 -26.6285 37.3998 -28.1923C38.238 -29.1681 39.1012 -30.1065 40.4274 -30.4317C40.4149 -30.4943 40.4023 -30.5694 40.3898 -30.6319C39.0512 -30.5443 37.725 -30.4693 36.3864 -30.3692C35.0477 -30.2691 34.4097 -29.3558 34.0844 -28.1923ZM38.2255 -20.7859C36.5115 -20.273 36.5115 -20.248 36.3488 -18.4714C36.3363 -18.3088 36.3113 -18.1336 36.2863 -17.8584C38.1629 -19.2721 40.3898 -19.0594 42.4041 -19.5849C44.0555 -20.0228 44.6935 -20.6983 44.9187 -22.3623C44.9563 -22.6625 44.9813 -22.9753 44.9813 -23.2881C44.9938 -24.1889 44.9813 -25.0896 44.9813 -26.0655C43.6426 -23.0379 41.1405 -21.6492 38.2255 -20.7859ZM39.2889 -18.4839C38.1254 -18.3088 37.112 -17.8459 36.2237 -17.0952C35.8734 -16.795 35.6357 -16.3821 35.2229 -15.8692C37.4123 -15.7441 39.4265 -15.5814 41.4282 -15.5564C42.1413 -15.5439 42.867 -15.8442 43.5676 -16.0443C43.9929 -16.1569 44.2306 -16.4697 44.3057 -16.9326C44.4683 -17.9084 44.6935 -18.8843 44.9062 -19.9352C43.0922 -18.9969 41.178 -18.7717 39.2889 -18.4839ZM38.7634 -15.0685C37.8877 -15.106 37.0244 -15.2937 36.1487 -15.3687C35.348 -15.4438 34.6098 -15.2186 33.8967 -14.8433C33.2837 -14.518 32.6081 -14.2678 31.845 -13.93C32.5581 -13.8549 33.1586 -13.8049 33.7466 -13.7173C35.1103 -13.5172 36.3614 -13.0042 37.4623 -12.2035C38.3005 -11.603 39.1513 -11.628 40.0145 -12.0159C41.5408 -12.6914 42.5167 -13.9675 43.53 -15.3437C41.8536 -14.8683 40.3023 -14.9934 38.7634 -15.0685ZM38.8635 -10.5396C37.3372 -11.7781 35.7233 -12.8291 33.7466 -13.1543C31.2319 -13.5672 28.8674 -13.2544 26.8031 -11.5154C27.1534 -10.9399 27.4912 -10.3519 27.7539 -9.91404C29.0676 -10.1768 30.2811 -10.6146 31.4947 -10.6272C33.5965 -10.6522 35.5857 -10.0892 37.2621 -8.66296C38.6258 -7.49946 38.876 -5.98565 38.826 -4.34674C38.7884 -2.88298 38.3506 -1.48177 37.5749 -0.280731C36.8868 0.782684 35.936 1.68346 35.0352 2.70935C35.2854 3.14722 35.6107 3.73523 35.9485 4.32324C39.2513 3.27233 41.4783 -0.843719 41.3156 -3.69618C41.2656 -4.69704 41.1655 -5.6854 41.0779 -6.68626C40.9403 -8.30015 40.1146 -9.52621 38.8635 -10.5396ZM22.8747 7.72617C22.8497 7.7512 22.8622 7.80124 22.8247 7.93886C24.2134 7.60107 25.552 7.30081 26.8657 6.938C27.0533 6.88795 27.2285 6.56267 27.266 6.32496C27.5287 4.71107 28.4796 3.64765 30.0184 3.29735C31.6198 2.93454 33.3713 3.54757 33.8967 5.41168C34.6098 7.93886 32.2703 9.81548 30.1185 9.47768C29.0551 9.30254 28.2669 8.77708 27.6163 7.97639C27.5162 7.85128 27.3035 7.70115 27.1784 7.72617C25.8148 8.10149 24.4511 8.52686 23.0749 8.92721C23.788 9.34007 24.5011 9.66534 25.1267 10.1157C26.4278 11.0666 26.9783 12.5053 27.4787 13.9691C27.5287 14.1192 27.7039 14.3569 27.7915 14.3569C28.8924 14.2318 30.0434 14.2193 31.0818 13.869C33.8592 12.9307 35.4105 10.9164 35.6232 7.97639C35.6858 7.01306 35.7358 5.99968 35.4981 5.07388C35.2604 4.17311 34.7475 3.30986 34.197 2.5467C33.4589 1.53333 32.6081 0.57 31.4071 0.0570566C30.8191 -0.193161 30.1935 -0.368313 29.5555 -0.455887C27.6664 -0.693592 25.9399 -0.118095 24.326 0.820213C24.1884 0.895279 24.0382 1.17052 24.0758 1.30814C24.6638 3.64765 24.5387 5.82453 22.8747 7.72617ZM8.42475 5.99969C9.37558 5.51176 10.3264 5.29908 11.3523 5.46172C11.4774 5.48674 11.6776 5.38665 11.7526 5.27406C12.1405 4.73609 12.5533 4.21064 12.8661 3.62263C13.1914 2.99709 13.0162 2.34653 12.5033 1.87112C12.0028 1.39571 11.4023 1.22056 10.7893 1.57086C10.2263 1.88363 9.71336 2.27147 9.18791 2.64679C9.07531 2.73437 8.95021 2.92203 8.97523 3.03463C9.12536 4.07302 8.92519 5.04887 8.42475 5.99969ZM9.72588 6.07475C9.48817 6.16232 9.25047 6.26241 9.02528 6.37501C8.17454 6.80038 8.18705 6.80038 8.3622 7.7512C8.51233 8.53938 8.26212 9.25249 7.76169 10.0407C8.91269 9.87803 9.73839 10.3159 10.4765 10.9915C10.5641 11.0791 10.7393 11.1541 10.8519 11.1166C12.3782 10.7538 13.3915 8.92721 12.8786 7.47596C12.5658 6.61271 11.1771 5.52427 9.72588 6.07475ZM8.2496 22.051C8.21207 22.1761 8.28715 22.4138 8.38723 22.4889C9.55074 23.3772 11.002 23.765 12.2405 22.639C13.2414 21.7258 13.3165 20.1994 12.3406 19.1861C11.9778 18.8107 11.5274 18.5105 11.0771 18.2352C10.9269 18.1477 10.5766 18.1852 10.439 18.3103C9.70085 18.9609 8.88766 19.3612 7.76169 19.2361C8.41225 20.1869 8.53735 21.0877 8.2496 22.051ZM8.98774 26.1421C8.97523 26.2922 9.0503 26.5174 9.15039 26.605C9.66333 26.9928 10.1763 27.3931 10.7393 27.6809C11.4399 28.0437 12.0028 27.9061 12.5408 27.3556C13.0412 26.8427 13.1789 26.2547 12.8286 25.5916C12.5283 25.0286 12.1279 24.5157 11.7526 24.0027C11.6776 23.8901 11.4774 23.79 11.3523 23.815C10.2764 24.0277 9.31302 23.715 8.3622 23.227C8.91268 24.1654 9.10034 25.1162 8.98774 26.1421ZM24.3385 25.9044C24.2384 26.5924 24.1383 27.2805 24.0758 27.9686C24.0633 28.1188 24.1884 28.344 24.3135 28.419C26.2777 29.6075 28.4045 30.083 30.6439 29.5075C31.3696 29.3198 32.0827 28.8569 32.6707 28.369C33.3588 27.7935 33.9218 27.0679 34.4847 26.3673C35.7233 24.8034 36.0236 23.0018 35.5982 21.0877C35.398 20.1994 35.1603 19.2987 34.835 18.4479C34.4597 17.4596 33.634 16.8591 32.7833 16.2585C31.2695 15.1701 29.5555 15.0575 27.8165 14.9199C27.7164 14.9074 27.5162 15.0575 27.4912 15.1576C26.8406 17.5722 25.6146 19.4738 23.0624 20.3371C24.4135 20.7374 25.7522 21.1503 27.1159 21.5256C27.266 21.5631 27.5412 21.413 27.6538 21.2628C28.6797 19.9867 30.0059 19.5614 31.5822 19.8741C32.7708 20.1119 33.8467 21.4755 33.9843 22.6515C34.0844 23.5523 33.8217 24.303 33.3087 24.9911C32.4079 26.1921 30.206 26.4548 28.9425 25.5415C28.0542 24.891 27.3911 24.1028 27.291 22.9518C27.2535 22.4764 26.9783 22.3263 26.5404 22.2387C25.4269 22.0135 24.3385 21.7132 23.225 21.4505C23.1124 21.4255 22.9998 21.413 22.7746 21.3754C23.0749 21.8258 23.3126 22.1887 23.5503 22.5515C24.2259 23.5773 24.5011 24.6908 24.3385 25.9044ZM31.1694 33.9738C30.744 33.9988 30.3186 34.0239 29.8933 33.9738C29.4929 33.9238 29.1051 33.7862 28.6672 33.6861C28.7173 34.0239 28.7923 34.3366 28.8173 34.6619C28.8424 34.9872 28.8173 35.325 28.8173 35.7003C30.2186 36.2258 31.6323 36.4635 33.096 35.988C34.6474 35.4751 35.2229 34.4617 34.8851 32.7102C34.6974 31.7094 34.197 30.8461 33.4589 30.1205C33.1711 29.8327 32.8583 29.5575 32.5581 29.2698C31.945 29.57 31.3695 29.8578 30.7565 30.158C31.0568 30.4833 31.4071 30.7836 31.6698 31.1589C31.9325 31.5217 32.1452 31.9345 32.2828 32.3599C32.5956 33.2357 32.1202 33.8988 31.1694 33.9738ZM34.785 30.9712C35.4856 32.0221 35.6983 33.2232 35.4481 34.4617C35.2104 35.6628 33.5464 36.7262 31.9951 36.7387C31.4446 36.7387 30.8816 36.7637 30.3437 36.6887C29.8057 36.6136 29.2803 36.4259 28.7298 36.2758C28.5046 37.0139 28.2919 37.7145 28.0542 38.4902C29.2177 39.1032 30.4563 39.4535 31.7574 39.3785C33.021 39.3034 34.2721 39.0907 35.4481 38.4777C36.9494 37.677 38.1004 36.6636 38.2255 34.8371C38.4381 31.6218 37.2371 29.0821 34.6098 27.1679C34.0594 27.7559 33.5464 28.3064 33.046 28.8319C33.6465 29.545 34.2846 30.2081 34.785 30.9712ZM29.6431 33.3358C30.0684 33.4233 30.5313 33.4108 30.9567 33.3483C31.5947 33.2482 31.8074 32.8353 31.5822 32.2348C31.2945 31.4716 30.769 30.8962 30.0934 30.4583C29.8933 30.3332 29.618 30.2956 29.3678 30.2831C28.3544 30.2081 27.3536 30.1705 26.6029 30.133C26.9658 30.6835 27.5412 31.3966 27.9291 32.1848C28.3044 32.9354 28.9425 33.1731 29.6431 33.3358ZM36.499 13.4686C37.5624 14.1317 37.5499 15.1451 36.4865 15.8081C35.8484 16.196 35.1228 16.4462 34.4347 16.759C34.7099 17.1843 35.0227 17.6973 35.3605 18.1852C35.4105 18.2603 35.5607 18.3478 35.6482 18.3228C37.1996 18.01 38.6383 17.4721 39.5766 16.0959C40.5149 14.7072 40.2897 13.8314 38.9886 12.4553C38.1129 11.5294 36.9118 11.1666 35.6858 10.9164C35.5857 10.8914 35.423 10.979 35.3605 11.0666C35.0352 11.5545 34.7224 12.0424 34.4472 12.4803C35.1478 12.8181 35.8609 13.0808 36.499 13.4686ZM33.7091 13.1559C33.3337 13.1559 32.9584 13.5312 32.5831 13.7314C31.92 14.0691 31.2444 14.3819 30.769 14.6196C31.5697 15.045 32.5331 15.583 33.5339 16.0709C33.7466 16.171 34.0844 16.1459 34.3221 16.0459C34.9852 15.7831 35.6482 15.5079 36.2363 15.1326C36.6116 14.8949 36.5865 14.4695 36.2613 14.1192C35.5732 13.3811 34.6474 13.1684 33.7091 13.1559ZM37.2746 10.8163C38.8385 11.4044 40.0395 12.3677 40.5775 14.0191C40.9403 15.1451 40.3773 16.0333 39.7142 16.809C38.8885 17.7974 37.8126 18.4354 36.524 18.6731C36.2362 18.7232 35.961 18.8358 35.6858 18.9108C35.8234 19.5614 35.986 20.1619 36.0861 20.7749C36.1362 21.0877 36.2488 21.1628 36.549 21.1252C38.1129 20.9626 39.4891 20.4246 40.7276 19.4363C42.1914 18.2603 43.2423 16.8465 43.5801 14.9824C43.6551 14.5821 43.5801 14.1192 43.4425 13.7314C42.4166 10.6037 40.1771 8.85214 37.0369 8.16405C36.7742 8.10149 36.499 8.15154 36.1737 8.15154C36.0111 8.83963 35.8484 9.56526 35.6733 10.3534C36.2112 10.5036 36.7617 10.6162 37.2746 10.8163ZM20.2725 13.1809C20.8855 13.1684 21.5236 13.2184 22.1116 13.356C22.662 13.4811 23.0874 14.1567 23.0499 14.6572C23.0123 15.2827 22.637 15.7081 22.074 15.9458C21.2859 16.271 20.4601 16.1835 19.6469 16.0083C19.2841 15.9333 18.9213 15.8832 18.521 15.8081C18.8463 16.3336 19.1465 16.809 19.4468 17.2844C19.4968 17.3595 19.5844 17.4596 19.6595 17.4596C21.0982 17.6222 22.5119 17.7098 23.763 16.7339C25.5145 15.3578 25.1267 13.1433 23.1875 12.1425C22.074 11.567 20.873 11.6295 19.6845 11.8172C19.5844 11.8297 19.4718 11.9673 19.4092 12.0799C19.1215 12.5178 18.8337 12.9682 18.521 13.4561C19.1215 13.356 19.697 13.1934 20.2725 13.1809ZM18.2958 14.1317C17.9204 14.2318 17.5702 14.432 17.0822 14.6321C18.6086 15.3327 20.0473 15.7581 21.6236 15.5079C22.0991 15.4328 22.4494 15.1951 22.4744 14.6822C22.4994 14.1317 22.1241 13.8815 21.6362 13.7689C20.4852 13.5062 19.3967 13.8439 18.2958 14.1317ZM19.7721 11.2542C20.6353 11.2542 21.4485 11.1792 22.2367 11.2667C23.6504 11.4169 25.0141 12.6554 25.3644 13.8815C25.8273 15.5579 24.5637 17.1593 23.25 17.7223C22.2867 18.1351 21.2733 18.1852 20.2475 18.0351C20.1223 18.01 19.9847 18.0351 19.8221 18.0351C19.7971 18.1477 19.7846 18.1852 19.7846 18.2227C19.722 19.7616 19.7971 19.8491 21.3609 19.8616C23.5753 19.8867 25.2268 18.9484 26.2026 16.9466C26.5279 16.271 26.9532 15.5329 26.9407 14.8198C26.9032 12.8681 25.9649 11.3168 24.326 10.2033C23.0374 9.32755 21.6236 9.22747 20.1474 9.57777C20.0098 9.6153 19.7971 9.79045 19.7846 9.91557C19.7345 10.3409 19.7721 10.7663 19.7721 11.2542ZM29.3803 24.9285C29.8307 25.1037 30.3186 25.1662 30.7941 25.2788C32.4455 25.1912 33.5214 23.8526 33.1461 22.2512C32.9709 21.488 32.3079 21.1878 31.7199 20.85C30.5063 20.1619 28.6672 20.3746 27.9916 21.9635C27.5412 23.0144 28.1418 24.4281 29.3803 24.9285ZM21.9739 21.463C21.3234 20.9125 20.4476 20.6248 19.6469 20.2244C19.2966 20.8125 19.0464 21.2378 18.8588 21.5506C19.722 22.1887 20.6478 22.7391 21.411 23.4773C22.7246 24.7534 22.7121 27.1429 21.4235 28.1813C20.26 29.1321 18.9088 29.2698 17.5326 28.7693C16.7695 28.4941 16.0814 28.0312 15.3557 27.6434C15.118 28.0437 14.8678 28.4691 14.6176 28.9069C16.4317 31.1088 19.6594 31.2465 21.5611 29.8202C22.3868 29.2072 23.3001 28.7193 23.5753 27.6308C24.1884 25.2788 23.9006 23.1144 21.9739 21.463ZM19.9347 26.2171C19.5969 26.8552 18.9714 27.1054 17.9705 26.7551C17.3074 26.5299 16.7444 26.0169 16.1439 25.6041C15.9187 25.454 15.7311 25.2538 15.5059 25.0786C15.2056 26.2296 15.5309 27.0553 16.4692 27.6308C17.4951 28.2689 18.5585 28.6692 19.8096 28.3815C22.1241 27.8435 22.2492 25.3664 21.1733 23.9902C20.4727 23.0894 19.5093 22.5765 18.4834 22.1636C18.3833 22.1261 18.2457 22.1136 18.1582 22.1511C17.6577 22.4013 17.1573 22.6766 16.7069 22.9143C17.5952 23.3522 18.5085 23.74 19.3592 24.2654C20.0848 24.7158 20.2725 25.5916 19.9347 26.2171ZM17.5952 26.017C17.8454 26.1671 18.1206 26.2922 18.4084 26.3422C18.8337 26.4173 19.3342 26.3798 19.4468 25.9044C19.5218 25.5916 19.4092 25.0911 19.184 24.866C18.3083 23.9777 17.1073 23.7275 15.9563 23.4147C15.6185 23.3271 15.2556 23.3271 14.8053 23.2896C15.5684 24.4906 16.5067 25.3289 17.5952 26.017ZM17.6952 21.8133C18.8462 21.1002 19.4718 19.5364 19.159 18.2352C18.6961 16.3086 17.3825 15.2076 15.3307 14.9074C15.1681 15.3202 15.0179 15.7206 14.8553 16.1334C15.4558 16.4212 16.1064 16.6714 16.6819 17.0217C17.7453 17.6597 17.9705 18.4104 17.6077 19.699C17.3825 20.4997 16.3691 21.1503 15.4934 21.0502C14.8803 20.9751 14.2548 20.9376 13.5917 20.875C13.5292 21.2754 13.4666 21.6882 13.3915 22.1511C14.8928 22.8642 16.3066 22.6766 17.6952 21.8133ZM14.7302 20.4371C15.043 20.4371 15.3557 20.4872 15.6685 20.4747C16.4817 20.4622 16.9947 20.0243 17.2324 19.161C17.395 18.5855 17.0447 17.7974 16.4442 17.4721C15.9938 17.2344 15.5184 17.0467 15.0555 16.8465C14.7427 16.7214 14.48 16.7965 14.1422 16.9591C13.3415 17.347 12.4783 17.5972 11.7902 17.8599C12.1905 18.3103 12.8411 18.8358 13.1914 19.5113C13.5542 20.2119 14.0296 20.4371 14.7302 20.4371ZM14.6927 14.482C14.6301 12.8931 12.5533 11.542 11.1021 12.1675C10.9519 12.2301 10.8268 12.4678 10.7643 12.6429C10.414 13.6438 9.97609 14.1567 8.98774 14.6446C9.93856 15.07 10.5266 15.7331 10.7643 16.6589C10.8519 17.0342 11.0645 17.1468 11.4023 17.1968C13.1538 17.4846 14.7677 16.171 14.6927 14.482ZM10.1387 17.7974C10.2889 17.6097 10.3514 17.2719 10.3139 17.0217C10.1512 15.8332 8.81259 14.7948 7.59904 14.8949C7.51147 14.9074 7.37385 14.9199 7.33632 14.9699C6.8484 15.7581 5.97264 15.8206 5.20949 16.0959C5.73494 16.6714 6.46056 17.1093 6.46056 18.01C6.46056 18.0976 6.58566 18.1977 6.67324 18.2603C7.72414 18.9984 9.31303 18.7982 10.1387 17.7974ZM6.31042 15.1451C6.5106 15.0575 6.74831 14.7948 6.74831 14.6321C6.74831 14.457 6.49808 14.2068 6.31042 14.1067C4.88419 13.4436 3.58308 13.9816 2.15684 14.6196C3.59559 15.3077 4.88419 15.8207 6.31042 15.1451ZM7.32381 14.3068C7.34883 14.3444 7.42389 14.3694 7.47394 14.3819C8.59991 14.6822 10.3389 13.2309 10.3264 12.0674C10.3139 11.3043 8.80008 10.3534 7.97437 10.5661C7.61156 10.6662 7.26125 10.7663 6.91095 10.8789C6.6232 10.979 6.52312 11.1917 6.39801 11.4919C6.1478 12.0424 5.70991 12.5053 5.3471 13.0057C5.30957 13.0683 5.20949 13.0808 5.07187 13.1559C5.98515 13.4186 6.83589 13.5187 7.32381 14.3068ZM11.9278 11.1791C11.8277 11.2917 11.6901 11.3543 11.4649 11.5294C12.6409 11.4919 13.5667 11.8047 14.3674 12.4553C14.455 12.5303 14.6426 12.5428 14.7552 12.5053C15.4058 12.2301 16.0939 12.0174 16.6694 11.6295C17.3074 11.2042 17.4075 10.4911 17.1198 9.74041C16.9071 9.1524 16.3191 8.76456 15.5809 8.77708C15.1306 8.77708 14.6802 8.81461 14.2298 8.87717C13.8419 8.93972 13.5917 9.10236 13.3665 9.51521C13.0037 10.1408 12.4157 10.6412 11.9278 11.1791ZM13.5917 8.38924C14.2673 8.3392 14.9429 8.26414 15.631 8.25163C16.5693 8.22661 17.3575 8.76457 17.6077 9.54024C17.9955 10.7413 17.7828 11.5795 16.832 12.1675C16.219 12.5428 15.5434 12.8181 14.8803 13.1433C15.0304 13.5312 15.1806 13.944 15.3307 14.3444C17.4576 14.1067 18.5835 12.9682 19.109 11.3043C19.5343 9.94058 19.1465 8.5769 17.9705 7.66362C16.5943 6.58769 15.0555 6.31245 13.4041 7.11314C13.4666 7.57604 13.5292 7.97639 13.5917 8.38924ZM19.3967 4.9738C18.546 5.51176 17.5952 5.8996 16.7194 6.34999C17.1573 6.58769 17.6452 6.85042 18.1582 7.11314C18.2332 7.15067 18.3458 7.1757 18.4209 7.13817C19.5469 6.68777 20.5727 6.11228 21.3234 5.11142C21.8488 4.41081 22.024 2.70934 21.436 1.93367C20.8229 1.12047 19.5218 0.59502 18.3833 0.832726C17.3575 1.04541 16.4942 1.57086 15.6935 2.23393C15.6185 2.29649 15.5309 2.4216 15.5309 2.50917C15.4934 3.05965 15.4683 3.59761 15.4308 4.26068C15.8687 3.89787 16.2315 3.56008 16.6444 3.27233C17.0572 2.98458 17.4951 2.70934 17.958 2.50917C18.7587 2.15887 19.5469 2.38406 19.9222 3.02211C20.2725 3.64766 20.1098 4.52341 19.3967 4.9738ZM19.0714 4.53592C19.4718 4.24817 19.7345 3.8103 19.4343 3.30986C19.1465 2.80943 18.6461 2.83445 18.1832 3.00961C16.7695 3.56008 15.7811 4.61099 14.9554 5.87458C16.4817 5.84956 17.8579 5.42419 19.0714 4.53592ZM16.3816 1.04541C17.7703 0.232208 19.1965 -0.0930708 20.7479 0.657578C22.1866 1.35818 22.612 2.67181 22.2742 4.1606C21.8989 5.79951 20.7104 6.67526 19.2966 7.33833C19.1715 7.40089 19.0464 7.45094 18.9213 7.51349C18.8713 7.53851 18.8337 7.57604 18.7962 7.60107C19.0589 8.05145 19.3217 8.47681 19.5719 8.92721C22.4869 8.38924 23.9006 5.787 23.8381 3.89787C23.813 3.23479 23.763 2.57172 23.6504 1.92116C23.5378 1.2706 23.25 0.670086 22.6871 0.294762C21.9114 -0.230694 21.1607 -0.86874 20.2975 -1.169C18.4459 -1.80705 16.6694 -1.53181 15.1556 -0.155624C14.9679 0.0195276 14.7802 0.182167 14.6051 0.344807C14.8678 0.795197 15.118 1.22056 15.3933 1.69597C15.7186 1.48329 16.0438 1.24558 16.3816 1.04541ZM27.829 6.65024C27.8415 7.43842 28.5046 8.3392 29.2928 8.60193C30.4688 9.00227 32.0576 8.5769 32.8333 7.61357C32.996 7.4134 33.1711 7.10063 33.1336 6.87544C33.021 6.14981 32.8959 5.39917 32.5956 4.74861C32.2453 3.99796 31.4321 4.09804 30.8191 4.07302C29.03 4.08553 27.8165 5.16146 27.829 6.65024ZM32.2828 -3.0206C31.9951 -2.38255 31.5072 -1.81956 31.0943 -1.24406C31.0067 -1.11896 30.8441 -1.0564 30.6815 -0.943806C31.3195 -0.606014 31.8575 -0.318268 32.3954 -0.0555419C32.483 -0.0180091 32.6707 -0.0430297 32.7457 -0.105583C33.584 -0.931293 34.3847 -1.78203 34.81 -2.92051C35.4856 -4.74709 34.5848 -6.47358 32.6457 -6.8489C31.3445 -7.09911 30.0684 -6.92397 28.8799 -6.42353C28.8299 -5.74795 28.7798 -5.08488 28.7298 -4.43432C29.2552 -4.54691 29.7807 -4.69704 30.3061 -4.74709C30.6815 -4.78462 31.0943 -4.74709 31.4696 -4.647C32.2578 -4.43432 32.6331 -3.78376 32.2828 -3.0206ZM29.4929 -0.993851C29.7682 -1.01887 30.0935 -1.11896 30.2936 -1.29411C30.694 -1.65692 31.1068 -2.05727 31.3695 -2.53268C31.5572 -2.87047 31.7073 -3.47099 31.5322 -3.70869C31.3195 -3.99644 30.744 -4.15908 30.3437 -4.14657C29.7932 -4.13406 29.1676 -4.02146 28.7173 -3.7212C28.2669 -3.42094 27.9916 -2.84545 27.6664 -2.37004C27.2785 -1.83207 26.9157 -1.2816 26.628 -0.856232C27.4662 -0.893761 28.4796 -0.918785 29.4929 -0.993851ZM28.7298 -6.99903C29.0676 -7.0866 29.4179 -7.18669 29.7682 -7.27427C31.0318 -7.59955 32.3079 -7.61206 33.5214 -7.12414C35.5482 -6.29842 35.9485 -4.77211 35.1853 -2.5577C34.9852 -1.96969 34.6474 -1.41922 34.2721 -0.918785C33.9092 -0.443375 33.4088 -0.0680541 32.9584 0.357315C33.5339 0.982853 34.0469 1.53333 34.5848 2.10883C36.7867 0.645062 37.9127 -1.43173 38.213 -3.99644C38.2755 -4.57194 38.2505 -5.15994 38.2004 -5.73544C38.0378 -7.48695 36.8743 -8.45028 35.423 -9.18842C33.9092 -9.95158 32.2953 -10.2518 30.6314 -10.0266C29.7557 -9.91405 28.9049 -9.56374 28.0292 -9.32604C28.2919 -8.4753 28.5046 -7.7747 28.7298 -6.99903ZM37.5123 4.5109C38.6508 4.73609 39.8143 4.94878 40.9778 5.18649C42.4791 5.49925 43.9554 5.53679 45.4192 4.94878C46.4576 4.52341 47.2708 3.83532 47.8337 2.88449C48.4218 1.87112 48.2466 1.2706 47.1832 0.745148C45.807 0.0570565 44.3683 -0.00549689 42.917 0.544975C41.3907 1.12047 40.2272 2.22142 39.0387 3.25982C38.5132 3.6977 37.9878 4.12307 37.5123 4.5109ZM47.2958 -7.0741C46.4325 -5.64787 45.6819 -4.17159 44.9062 -2.69532C44.606 -2.13233 44.3808 -1.5193 44.1055 -0.86874C45.8821 -0.831211 47.1331 -1.71947 48.2216 -2.97055C49.285 -4.19661 50.411 -5.38514 51.5119 -6.57366C51.6996 -6.77383 51.9498 -6.89894 52.2626 -7.12414C51.4118 -7.43691 50.6237 -7.76219 49.823 -8.01241C48.6845 -8.3502 47.9338 -8.11249 47.2958 -7.0741ZM50.6987 -5.07237C49.848 -4.15908 49.0848 -3.14571 48.2216 -2.23242C47.6711 -1.64441 46.9955 -1.18151 46.3575 -0.643551C46.9079 -0.393333 47.5335 -0.0555381 48.2091 0.157147C48.3967 0.2197 48.7345 -0.0305213 48.9597 -0.193161C50.0356 -1.06892 51.049 -2.03225 52.1875 -2.83294C53.4511 -3.7212 54.9524 -4.10904 56.4912 -4.24665C56.804 -4.27168 57.1418 -4.15908 57.4671 -4.10904C57.4921 -4.15908 57.5171 -4.20913 57.5421 -4.25917C56.4537 -4.82215 55.3778 -5.42267 54.2768 -5.94812C52.763 -6.69877 51.7121 -6.17332 50.6987 -5.07237ZM56.5913 -3.67116C55.5654 -3.70869 54.477 -3.32086 53.4886 -2.92051C51.8622 -2.26995 50.5111 -1.18151 49.4601 0.232208C48.7721 1.158 48.9722 1.88363 50.0482 2.309C52.2876 3.19727 54.5646 3.34739 56.8916 2.67181C58.6055 2.17138 59.6439 0.882767 60.5948 -0.505928C60.8575 -0.893764 61.0201 -1.34415 61.2578 -1.79454C59.8566 -2.94553 58.2803 -3.59609 56.5913 -3.67116ZM58.2803 2.6593C56.0033 3.79779 53.6137 3.84783 51.1866 3.25982C50.6612 3.13471 50.1357 2.93454 49.5978 2.85947C49.3601 2.82194 49.0098 2.90952 48.8596 3.07216C48.4218 3.5851 48.0589 4.1606 47.596 4.82367C48.8221 4.49839 49.8355 4.87371 50.8489 5.23652C51.8622 5.59933 52.8631 6.0122 53.9015 6.31245C55.5779 6.78786 56.5663 6.40003 57.5046 4.93627C58.0801 4.03549 58.6181 3.10969 59.081 2.10883C58.8307 2.28398 58.5805 2.50917 58.2803 2.6593ZM49.8855 5.48674C48.4968 5.04886 47.2082 5.17397 45.832 5.94964C47.4834 7.05059 49.0473 8.08899 50.6111 9.12738C51.3868 9.64033 52.2626 9.96561 53.1884 10.0031C53.5137 10.0156 53.9265 9.75292 54.1767 9.50271C54.8523 8.81461 55.4653 8.05145 56.191 7.22574C53.8389 7.18821 51.9248 6.12479 49.8855 5.48674ZM46.7578 7.15067C45.8946 6.45007 44.8937 6.11228 43.7552 6.11228C43.1297 6.11228 42.5167 5.99968 41.741 5.91211C41.9537 6.07475 42.0538 6.14981 42.1539 6.21236C43.7677 7.15067 45.0063 8.4518 45.782 10.1283C46.3074 11.2667 47.1707 11.6546 48.2966 11.6921C49.8105 11.7546 51.1741 11.1791 52.6129 10.5536C50.3484 9.81548 48.5093 8.5769 46.7578 7.15067ZM46.5201 13.4811C46.0697 11.5044 45.2065 9.69036 43.8053 8.21409C42.4916 6.81288 40.8527 5.87458 38.9511 5.51176C38.1004 5.34912 37.2246 5.39917 36.2863 5.34913C36.2863 6.07475 36.2613 6.67526 36.3113 7.27578C36.3238 7.40089 36.5866 7.58855 36.7492 7.61357C39.6767 7.91383 41.766 9.51521 43.2923 11.9048C44.4683 13.7313 44.4308 15.633 43.2423 17.4471C41.8286 19.6239 39.9019 21.1002 37.2997 21.5881C36.2738 21.7758 36.2738 21.8008 36.2738 22.8517C36.2738 23.1645 36.2738 23.4773 36.2738 23.815C38.9761 24.1904 41.1905 23.3146 43.1422 21.6632C45.0564 20.0493 46.0322 17.8724 46.5827 15.5079C46.7453 14.8698 46.6702 14.1317 46.5201 13.4811ZM37.5249 24.7659C38.7009 25.7417 39.8519 26.7801 41.0779 27.7059C42.8419 29.0446 44.7936 29.545 46.9205 28.6442C48.5218 27.9686 48.5344 27.0178 47.2457 25.6291C45.5193 23.74 43.3048 23.6524 40.9904 24.0778C39.8394 24.303 38.6759 24.5407 37.5249 24.7659ZM46.0697 18.6856C45.0939 20.5873 43.8178 22.1761 41.7785 23.2771C44.018 23.3021 45.9446 22.9893 47.6211 21.488C49.0348 20.237 50.6987 19.2736 52.6504 18.7357C50.7738 17.96 48.9973 17.1218 46.983 17.8724C46.6327 17.9975 46.2574 18.3353 46.0697 18.6856ZM51.7621 19.5864C50.2358 20.4622 48.7721 21.4505 47.2958 22.4013C46.8329 22.7016 46.3825 23.0144 45.8821 23.3522C47.546 24.353 49.1599 24.1028 50.7988 23.5023C52.175 23.0018 53.5887 22.5765 54.9899 22.1636C55.3152 22.0635 55.678 22.1011 56.2035 22.0635C55.3652 21.1377 54.6897 20.1994 53.8139 19.4738C53.2509 18.9859 52.3752 19.2361 51.7621 19.5864ZM54.2643 22.8893C53.2634 23.1395 52.3001 23.5648 51.3118 23.8526C50.386 24.1278 49.4351 24.3655 48.4843 24.5657C48.2341 24.6157 47.9463 24.5156 47.6211 24.4781C48.0589 25.0911 48.4343 25.6416 48.8346 26.1671C49.1098 26.5299 49.4727 26.4548 49.848 26.3422C51.3368 25.9169 52.8381 25.5541 54.4019 25.6416C55.7155 25.7042 57.0167 25.9169 58.1927 26.5549C58.4929 26.7176 58.7682 26.9427 59.1685 27.0929C58.7432 26.3798 58.3428 25.6541 57.9049 24.9535C57.6172 24.4906 57.2919 24.0402 56.9416 23.6274C56.241 22.7641 55.2652 22.639 54.2643 22.8893ZM55.0775 26.2421C53.3135 26.092 51.637 26.3547 50.0231 26.9803C48.9722 27.3931 48.747 28.1438 49.4476 29.0195C51.1741 31.1964 53.351 32.6852 56.191 32.8979C58.0801 33.0355 59.7315 32.2348 61.2578 31.0963C60.0068 28.394 58.2302 26.4924 55.0775 26.2421ZM51.3368 31.5717C50.4985 30.9587 49.7604 30.2206 48.9973 29.5075C48.6094 29.1446 48.2841 28.9695 47.7587 29.2823C47.2958 29.5575 46.7703 29.7327 46.2073 29.9829C46.6327 30.2331 47.0831 30.4082 47.3959 30.7085C48.134 31.4341 48.7971 32.2348 49.4977 32.998C50.0857 33.6485 50.6487 34.3491 51.3118 34.9121C51.9248 35.4251 52.6629 35.7629 53.5387 35.5001C54.9899 35.0497 56.241 34.2365 57.6422 33.3983C55.1526 33.7361 53.1633 32.8979 51.3368 31.5717ZM47.7837 31.7844C46.8079 30.721 45.6068 30.0955 44.093 30.1455C45.0939 32.2974 45.8821 34.5493 47.3333 36.451C48.0589 37.3893 48.7095 37.6019 49.873 37.2767C50.0607 37.2266 50.2483 37.1766 50.436 37.1015C51.024 36.8763 51.5995 36.6511 52.2626 36.3884C50.3734 35.1749 49.2099 33.3483 47.7837 31.7844ZM40.8027 29.9954C39.8268 27.7309 38.4632 25.8168 35.961 24.9535C35.6357 25.529 35.3105 26.1045 34.9977 26.655C35.6733 27.3181 36.4364 27.9311 37.0244 28.6817C38.0503 29.9829 38.6133 31.5092 38.7759 33.1731C38.8385 33.8362 38.826 34.5118 38.7509 35.1623C38.5007 37.3642 36.9494 38.4777 35.0978 39.2158C32.6832 40.1917 30.2561 40.1792 27.8665 39.0157C27.5037 39.6162 27.1784 40.1917 26.8156 40.7922C27.9666 41.7305 29.2427 42.356 30.7315 42.5062C32.4955 42.6813 34.222 42.5437 35.8484 41.7805C37.4623 41.0174 38.8885 39.979 40.0645 38.6403C41.0029 37.5644 41.153 36.1632 41.2906 34.8371C41.4532 33.1981 41.4658 31.5342 40.8027 29.9954ZM39.4515 41.0925C38.876 40.9173 38.3255 40.9298 37.7751 41.3051C36.5365 42.1559 35.1853 42.7814 33.684 43.0066C33.1211 43.0942 32.5456 43.1317 31.9075 43.1943C33.8467 44.2076 35.6858 44.9708 37.9377 44.4579C39.7142 44.0575 41.5909 44.1076 43.505 44.608C42.379 43.0566 41.2906 41.6429 39.4515 41.0925ZM42.7794 45.0083C41.4532 44.8832 40.1271 44.8582 38.7884 44.8957C37.6625 44.9333 36.5365 45.1209 35.3855 45.246C35.9985 46.5096 37.087 47.2102 38.3881 47.5355C39.7893 47.8858 41.2281 48.061 42.6293 48.3737C43.3799 48.5489 44.1055 48.8491 44.8937 49.1119C44.681 48.061 44.5309 46.9725 44.2432 45.9341C44.068 45.2836 43.3424 45.0584 42.7794 45.0083ZM44.7811 50.9635C44.6185 49.7374 43.6551 49.1619 42.5417 48.8992C41.5784 48.674 40.5775 48.5614 39.6016 48.3737C38.4757 48.1485 37.3247 47.9859 36.3113 47.0726C36.3739 47.9108 36.3488 48.5614 36.499 49.1744C36.5615 49.4246 36.9619 49.6999 37.2621 49.7749C39.1888 50.3004 41.0654 50.9134 42.6168 52.2271C43.6051 53.0653 44.5434 53.9536 44.8937 55.2922C44.9563 55.2797 45.0063 55.2672 45.0689 55.2547C44.9688 53.8284 44.9563 52.3772 44.7811 50.9635ZM43.2048 53.4906C41.8786 52.0769 40.2147 51.1511 38.3255 50.6757C37.8001 50.5381 37.2496 50.438 36.7117 50.413C35.961 50.388 35.4981 50.8008 35.5982 51.539C35.7483 52.5899 35.986 53.6533 36.3614 54.6542C37.0244 56.3932 38.0878 57.907 39.7393 58.8328C40.8903 59.4833 42.2039 59.7711 43.5676 59.671C43.9554 59.646 44.3432 59.671 44.7811 59.671C44.9688 57.369 44.8186 55.2171 43.2048 53.4906ZM40.3273 59.671C38.5507 59.1205 37.4998 57.7443 36.5615 56.268C35.7233 54.9669 35.3105 53.4906 34.9351 52.0019C34.8225 51.5515 34.5723 51.3013 34.0719 51.3013C33.5089 51.2887 32.9459 51.2012 32.2578 51.1261C33.584 52.765 33.4338 54.7167 33.8717 56.5057C33.9718 56.9186 34.0344 57.3565 34.172 57.7568C34.5973 59.0579 35.5732 59.6835 36.8618 59.7586C38.0378 59.8336 39.2138 59.7711 40.3898 59.7711C40.3773 59.7586 40.3648 59.6835 40.3273 59.671ZM32.9209 54.1162C32.7457 53.0152 32.3454 52.0394 31.6448 51.1887C31.3195 50.8008 30.8691 50.5131 30.4312 50.1378C30.3061 51.1762 30.131 52.0894 30.0934 53.0152C30.0434 54.4165 30.0309 55.8302 30.106 57.2439C30.131 57.7443 30.3937 58.2573 30.6564 58.7076C31.0067 59.3082 31.7073 59.2331 32.2828 59.3707C32.9584 59.5334 33.659 59.5959 34.3846 59.7085C33.4213 57.9445 33.2086 56.0178 32.9209 54.1162ZM34.3471 50.3129C35.0727 50.2629 35.4481 49.9001 35.4856 49.1619C35.5732 47.4229 34.8726 46.0467 33.5714 44.9458C32.3454 43.8949 30.8316 43.457 29.3553 42.9441C28.6922 42.7189 28.0292 42.4561 27.291 42.1934C28.0417 44.0325 28.6422 45.9091 29.5555 47.6231C30.5438 49.4371 32.1702 50.438 34.3471 50.3129ZM17.7328 52.9652C18.5835 53.1278 19.4843 53.0653 20.3475 52.9902C22.024 52.8526 22.8872 51.6641 23.5878 50.3254C24.376 48.8241 24.6638 47.2102 24.4511 45.5338C24.3385 44.6455 23.9882 43.7823 23.738 42.8815C22.8747 43.1442 22.1741 43.3569 21.5361 43.5446C21.6487 44.5579 21.8113 45.5338 21.8739 46.5221C21.9489 47.7357 21.4985 48.7991 20.6853 49.6874C20.0223 50.413 19.109 50.413 18.2332 50.3379C16.8946 50.2253 15.7561 49.6248 14.8303 48.649C14.5676 48.3737 14.3173 48.111 14.0546 47.8358C13.4541 48.3862 12.9036 48.9117 12.3281 49.4371C13.6042 51.4389 15.4808 52.5273 17.7328 52.9652ZM17.345 49.5998C19.6219 50.2629 20.9356 49.5247 21.3359 46.9725C21.5111 45.809 21.2984 44.8957 20.8229 43.6572C20.5102 43.6572 20.1724 43.6697 19.8471 43.6572C19.5218 43.6321 19.1965 43.5696 18.9463 43.5321C19.0089 44.3327 19.1465 45.1209 19.134 45.9091C19.1215 46.9976 18.3083 47.5355 17.3199 47.0726C16.5818 46.7223 15.9187 46.1843 15.2306 45.7215C14.9929 46.2219 14.7052 46.7974 14.4174 47.3979C15.2181 48.3237 16.0939 49.237 17.345 49.5998ZM18.5835 45.2085C18.5085 44.658 18.3959 44.0825 18.1707 43.5696C18.033 43.2693 17.6827 43.0441 17.3825 42.844C16.6318 42.331 15.8562 41.8556 15.2682 41.4678C15.3057 42.2059 15.3683 43.1943 15.3933 44.1826C15.4183 45.1334 16.832 46.5221 17.7828 46.4971C18.2958 46.4846 18.6836 45.8966 18.5835 45.2085ZM19.7095 43.0692C20.3601 43.1818 21.0857 43.0566 21.7362 42.9065C23.0624 42.5938 24.3385 42.1058 25.4519 41.3051C26.6405 40.4544 27.2285 39.1783 27.6664 37.8522C27.9291 37.064 28.1293 36.2258 28.2544 35.4C28.4045 34.4617 28.0667 33.586 27.6789 32.7352C26.9157 31.1088 25.6771 29.9453 24.1508 29.0446C23.788 28.8319 23.6003 28.8444 23.3001 29.1321C22.2992 30.083 21.1858 30.9337 19.7846 31.1464C18.9463 31.2715 18.0706 31.1714 17.0822 31.1714C18.0956 32.2348 19.0339 33.2357 19.9722 34.224C20.1974 34.4617 20.4101 34.4242 20.6978 34.2991C22.8747 33.3232 25.6521 34.7245 25.7272 37.6395C25.7647 39.0907 23.738 40.9298 22.0115 40.4794C19.8972 39.9415 18.8838 37.8647 19.2466 36.2007C19.2966 35.9505 19.3592 35.6878 19.4968 35.4751C19.672 35.1999 19.6094 34.9997 19.4092 34.812C18.4209 33.8737 17.4325 32.9354 16.4066 31.9596C16.4066 32.7352 16.4817 33.4359 16.3816 34.1239C16.294 34.7745 16.1314 35.4501 15.8186 36.0131C15.3557 36.8263 14.7302 37.5394 14.1922 38.3025C14.1047 38.4277 14.0671 38.6779 14.1297 38.803C15.3557 41.0299 17.1323 42.6188 19.7095 43.0692ZM19.6845 36.7762C19.6594 38.1274 21.3234 39.7663 22.6996 39.7538C23.6003 39.7413 24.9265 38.3901 24.914 37.4893C24.9015 36.1132 23.2876 34.5118 21.9364 34.5368C20.8229 34.5618 19.697 35.6753 19.6845 36.7762ZM14.3424 37.3267C15.6685 35.7128 16.3191 33.8987 15.6435 31.8595C15.3557 30.9837 14.7177 30.2081 14.2173 29.3698C13.6042 29.7201 13.1663 29.9829 12.8536 30.158C13.2664 31.1214 13.7919 32.0722 14.0796 33.0855C14.5801 34.812 13.379 36.9138 11.8652 37.1516C10.2513 37.4018 8.91267 36.8888 7.93683 35.5752C7.49895 34.9872 7.16117 34.3116 6.77333 33.661C6.37299 33.8862 5.9351 34.149 5.48472 34.4117C5.98515 37.1766 8.42476 38.7154 10.5266 38.6779C11.1771 38.6654 11.8402 38.6153 12.4908 38.5027C13.2664 38.3776 13.8419 37.9272 14.3424 37.3267ZM7.26126 33.2107C7.87429 34.6369 8.53735 36.0506 10.1763 36.5385C12.0779 37.1015 13.4291 36.0131 13.6167 34.174C13.7669 32.7102 13.0287 31.5717 12.178 30.4958C12.1279 30.4333 12.0154 30.3832 11.9278 30.3707C11.3773 30.3332 10.8393 30.3207 10.2138 30.2831C10.7142 30.9337 11.1771 31.4842 11.5775 32.0847C11.7902 32.3975 11.9653 32.7853 12.0279 33.1606C12.178 34.0364 11.8652 34.6119 11.1521 34.8871C10.6142 35.0998 9.81346 34.8496 9.41311 34.2115C9.01277 33.5735 8.72502 32.8604 8.38723 32.1723C8.28715 31.9471 8.21207 31.7094 8.11198 31.4591C7.81173 32.0096 7.53649 32.5226 7.26126 33.048C7.26126 33.0855 7.24875 33.1606 7.26126 33.2107ZM9.33805 30.2956C9.10035 30.083 8.8251 29.8953 8.48731 29.6451C8.52484 31.259 9.00025 32.6352 9.8635 33.8737C10.1137 34.2365 10.489 34.4743 10.977 34.3366C11.4899 34.1865 11.6901 33.6485 11.4148 32.9604C10.977 31.872 10.1763 31.0588 9.33805 30.2956ZM10.0762 29.6201C11.2647 29.8953 12.4157 29.9578 13.4916 29.1447C15.8061 27.3931 15.1431 24.2154 13.2915 22.8142C13.1914 22.7391 12.9411 22.7892 12.816 22.8767C12.5533 23.0519 12.3406 23.2771 12.0654 23.5148C12.4157 23.9777 12.7785 24.4156 13.0913 24.891C13.7544 25.8793 13.6543 26.8176 12.9662 27.6308C12.0404 28.7068 10.8519 28.5316 10.0762 28.0062C9.58827 27.6809 9.13787 27.3056 8.66246 26.9553C8.39974 27.268 8.11198 27.5808 7.79922 27.9561C8.38722 28.7193 9.07532 29.3949 10.0762 29.6201ZM8.44979 25.0286C8.3497 24.7408 8.29965 24.4156 8.17454 24.1403C7.69913 23.0894 7.68661 23.177 6.56064 23.2145C5.86004 23.2396 5.13441 22.9768 4.40879 22.8392C4.5339 23.7775 4.071 24.6032 3.39542 25.3664C3.32036 25.454 3.27032 25.6541 3.32036 25.7542C3.87083 27.0053 4.97178 28.1563 6.66074 27.806C7.62406 27.6183 8.80009 26.017 8.44979 25.0286ZM4.78411 18.2978C4.9968 18.3478 5.20948 18.3603 5.42216 18.3478C5.83502 18.3103 6.01017 18.0226 5.79748 17.6597C5.59731 17.3345 5.37212 16.9591 5.05935 16.759C4.14606 16.171 3.1452 15.7831 1.89413 15.8957C2.6823 17.0467 3.45797 17.9975 4.78411 18.2978ZM3.4955 19.8867C3.35788 18.7607 2.63226 17.9975 1.81906 17.2969C1.61889 17.1218 1.36867 16.9967 1.03088 16.759C1.04339 18.2853 1.35616 19.5614 2.50716 20.4747C2.69482 20.6248 3.13269 20.7624 3.20776 20.6748C3.39542 20.4997 3.53303 20.1494 3.4955 19.8867ZM1.10594 12.4678C2.24442 11.7046 3.18273 10.8789 3.47048 9.52773C3.50801 9.34006 3.54554 9.12738 3.4955 8.93972C3.40792 8.60193 3.19524 8.35171 2.8074 8.58942C2.49464 8.77708 2.16935 8.98976 1.93165 9.265C1.36866 9.91556 0.95581 11.5044 1.10594 12.4678ZM2.46962 12.5804C2.29446 12.7805 2.15684 13.0307 1.90663 13.3936C3.47048 13.3811 4.75909 13.0558 5.67238 11.8672C5.81 11.6921 5.9226 11.2917 5.82252 11.2042C5.64736 11.029 5.30957 10.8914 5.07187 10.9289C3.9459 11.0415 3.15771 11.7546 2.46962 12.5804ZM4.42129 6.63773C5.33459 5.98717 6.24788 5.88708 7.22372 6.14981C7.34882 6.18734 7.57403 6.09977 7.64909 5.99969C8.61242 4.63601 8.90017 3.37242 7.73666 2.12134C6.86091 1.17052 5.38463 1.09545 4.37125 2.02125C3.9584 2.39658 3.63313 2.8845 3.34537 3.37242C3.2578 3.51003 3.33286 3.86034 3.45798 4.01047C4.27117 5.01133 4.39628 5.33661 4.42129 6.63773ZM8.64996 2.34653C9.10035 2.00874 9.53823 1.63342 10.0136 1.33316C11.59 0.332295 12.6409 0.970345 13.4041 2.25896C13.7544 2.84696 13.6167 3.57259 13.2289 4.17311C12.8786 4.71107 12.4783 5.22401 12.0904 5.77449C12.4282 6.04972 12.741 6.31245 13.0537 6.58769C14.3424 5.93713 15.1556 4.13557 14.9679 2.45913C14.8303 1.19554 13.4291 -0.305755 12.178 -0.480907C10.414 -0.7061 8.91269 -0.243202 7.82425 1.35818C8.08697 1.68346 8.36221 2.00874 8.64996 2.34653ZM11.2397 -3.30835C11.6651 -4.05899 11.5775 -4.79713 11.0896 -5.05986C10.6392 -5.29756 10.0386 -5.02232 9.62579 -4.28419C8.96271 -3.09566 8.4748 -1.84458 8.49982 -0.405842C9.66332 -1.169 10.5766 -2.13233 11.2397 -3.30835ZM8.07446 -2.26995C8.49983 -3.1332 8.88766 -4.05899 9.4006 -4.90972C9.78844 -5.56029 10.5891 -5.8105 11.1146 -5.62284C11.9528 -5.31007 12.3531 -4.47185 11.9403 -3.59609C11.6275 -2.908 11.1396 -2.30748 10.7142 -1.66943C10.5641 -1.44424 10.389 -1.25658 10.1763 -0.99385C10.8268 -1.03138 11.3898 -1.0564 11.9528 -1.08143C12.0279 -1.08143 12.1154 -1.11896 12.153 -1.18151C13.1038 -2.39506 13.8795 -3.65865 13.5417 -5.32259C13.0538 -7.74968 10.4015 -7.82474 9.0503 -6.67375C8.21207 -5.96063 7.71163 -5.04734 7.31129 -4.05899C7.27376 -3.95891 7.27377 -3.79627 7.32381 -3.69618C7.57403 -3.20826 7.83676 -2.72034 8.07446 -2.26995ZM8.5874 -6.9615C9.71337 -8.16254 11.7776 -8.33768 12.9411 -7.37435C14.0296 -6.46107 14.4299 -5.20999 14.1047 -3.87133C13.8544 -2.84545 13.304 -1.90713 12.8786 -0.906273C13.2164 -0.7061 13.6292 -0.455887 14.0546 -0.205673C16.244 -1.99471 16.4066 -5.27254 14.9429 -7.1992C14.3298 -7.99989 13.8419 -8.90067 12.7785 -9.16339C10.2764 -9.78893 8.33717 -9.48868 6.56064 -7.49946C6.01017 -6.88643 5.75995 -5.99817 5.37212 -5.20999C5.70991 -5.03484 5.94761 -4.90973 6.18532 -4.77211C6.398 -4.647 6.61069 -4.49687 6.68574 -4.43432C7.3238 -5.28505 7.87429 -6.19834 8.5874 -6.9615ZM14.2798 -8.90067C15.1055 -8.09998 15.8186 -7.16167 16.1064 -6.06072C16.3816 -5.02232 16.3691 -3.90886 16.4942 -2.78289C17.445 -3.68367 18.4459 -4.62198 19.4343 -5.58531C19.5343 -5.6854 19.5594 -5.98566 19.4968 -6.13578C18.5585 -8.27513 19.6219 -11.0775 22.7621 -11.2902C23.8005 -11.3653 24.6638 -10.6897 25.2142 -9.78893C25.9649 -8.55037 25.7772 -6.94899 24.8639 -5.9231C23.9256 -4.87219 22.1366 -4.32172 20.6603 -5.03483C20.3726 -5.17245 20.1849 -5.14743 19.9972 -4.95977C19.0589 -3.97142 18.1206 -2.98307 17.1448 -1.94467C17.933 -1.94467 18.6461 -1.99471 19.3467 -1.93216C19.8972 -1.88211 20.5102 -1.78203 20.9731 -1.50679C21.8113 -1.01887 22.5995 -0.418354 23.3626 0.182163C23.6504 0.40736 23.8255 0.457401 24.1133 0.244717C24.7388 -0.230694 25.4269 -0.618526 26.0024 -1.14398C27.241 -2.28246 28.0167 -3.70869 28.2669 -5.37263C28.367 -5.98566 28.2544 -6.67375 28.0917 -7.29929C27.7539 -8.61292 27.2785 -9.88902 26.4903 -11.0025C25.6396 -12.191 24.3635 -12.779 23.0499 -13.2294C22.2617 -13.5046 21.436 -13.6798 20.6103 -13.8299C19.6469 -13.9926 18.7587 -13.6423 17.8954 -13.2294C16.269 -12.4662 15.118 -11.2277 14.2173 -9.70136C13.9921 -9.36357 13.9921 -9.17591 14.2798 -8.90067ZM20.1974 -6.19834C20.9606 -5.2225 22.074 -5.04734 23.2375 -5.66037C24.1383 -6.13578 24.6137 -6.94899 24.8639 -7.87479C24.9515 -8.22509 24.8514 -8.72552 24.6513 -9.02578C24.1758 -9.70136 23.6504 -10.3895 22.6745 -10.5021C21.5361 -10.2894 20.5853 -9.7514 20.0348 -8.67548C19.5969 -7.83725 19.5719 -6.98652 20.1974 -6.19834ZM17.3825 -13.5422C17.8329 -13.8049 18.2457 -14.0927 18.3083 -14.6556C18.3833 -15.2687 18.521 -15.8817 18.4959 -16.4822C18.4584 -17.1203 17.9955 -17.3455 17.4075 -17.1453C16.2315 -16.7574 15.4308 -15.6565 15.4058 -14.4304C15.3933 -13.6172 15.3057 -12.804 15.2682 -12.191C15.8812 -12.5914 16.6193 -13.0918 17.3825 -13.5422ZM15.2682 -16.3696C15.7561 -16.7574 16.2315 -17.1828 16.7569 -17.5331C17.3324 -17.921 17.9955 -18.1712 18.6336 -17.7333C19.2341 -17.3204 19.2091 -16.5948 19.184 -15.9568C19.159 -15.4063 18.9839 -14.8558 18.8713 -14.2803C19.5218 -14.3304 20.1849 -14.3679 20.8605 -14.4179C21.3484 -15.7691 21.6362 -17.1828 21.1482 -18.5965C20.4601 -20.5607 19.3092 -20.911 17.2073 -20.273C16.0188 -19.9102 15.2056 -19.0094 14.4174 -18.1336C14.7052 -17.5331 14.9929 -16.9451 15.2682 -16.3696ZM16.1314 -20.348C16.9571 -20.886 17.9079 -21.1487 18.9213 -21.1237C20.5102 -21.0862 21.436 -19.9102 21.7863 -18.3213C22.0865 -16.9701 21.9114 -15.6315 21.3985 -14.3053C22.1866 -14.0676 22.8997 -13.8549 23.6629 -13.6172C24.2509 -14.9309 24.6513 -16.2445 24.5011 -17.7083C24.3385 -19.3222 23.9256 -20.7984 22.9373 -22.1246C21.8488 -23.5883 20.3851 -24.0137 18.6961 -23.7885C17.6952 -23.6509 16.7069 -23.3757 15.7561 -23.0504C14.2798 -22.5374 13.2414 -21.4365 12.3281 -20.1729C12.8911 -19.6474 13.4541 -19.1345 13.9921 -18.6341C14.6927 -19.2096 15.3682 -19.8476 16.1314 -20.348ZM44.7936 -11.3778C44.7936 -11.3653 44.7936 -11.3528 44.7936 -11.3778V-11.3778ZM44.8186 -11.4028C45.8696 -11.4779 46.8954 -11.553 47.9213 -11.628C48.0464 -11.6405 48.2341 -11.6656 48.2716 -11.7406C48.5969 -12.4287 48.8972 -13.1168 49.2475 -13.9175C48.4218 -13.9926 47.7337 -14.0551 47.0331 -14.1052C46.9205 -14.1177 46.7453 -14.0676 46.6828 -13.9926C46.0447 -13.1418 45.4317 -12.2661 44.8186 -11.4028ZM47.4709 -16.845C47.3583 -16.1319 47.1957 -15.4313 47.0581 -14.7432C47.9463 -14.5931 48.8471 -14.4555 49.9105 -14.2803C49.5352 -13.317 49.2099 -12.4913 48.8596 -11.6155C49.6478 -11.3528 50.461 -11.0775 51.3493 -10.7898C52.0249 -12.6039 52.7004 -14.4054 53.4136 -16.3196C52.0874 -16.5448 50.8864 -16.7575 49.6854 -16.9701C49.1474 -17.0577 48.6094 -17.1453 48.0715 -17.2203C47.7712 -17.2454 47.5335 -17.2329 47.4709 -16.845ZM53.6388 -15.3938C53.1008 -13.7799 52.4627 -12.191 51.8497 -10.5396C52.713 -10.0767 53.6137 -9.58876 54.5646 -9.07582C55.5529 -12.3036 56.5162 -15.4688 57.4921 -18.6591C54.2768 -19.3972 51.049 -20.1479 47.7086 -20.911C47.7086 -19.8476 47.7086 -18.8467 47.7086 -17.8209C49.335 -17.5456 51.0615 -17.2579 52.7755 -16.9326C54.2268 -16.6699 54.1017 -16.795 53.6388 -15.3938ZM61.5831 -21.0236C56.9041 -22.1996 52.3001 -23.3506 47.6461 -24.5266C47.6461 -23.4257 47.6461 -22.4874 47.6461 -21.5115C49.8355 -20.9986 51.9748 -20.4857 54.1017 -19.9977C55.2652 -19.735 56.4287 -19.4848 57.6047 -19.2471C58.0551 -19.1595 58.1802 -18.9593 58.03 -18.509C57.1918 -15.8692 56.3786 -13.2294 55.5654 -10.5896C55.4403 -10.2018 55.4153 -9.76392 55.2401 -9.4011C54.9649 -8.82561 55.2276 -8.52535 55.6905 -8.27513C56.2785 -7.94985 56.854 -7.62457 57.6422 -7.1992C58.9558 -11.8282 60.257 -16.3696 61.5831 -21.0236ZM62.021 1.25809C62.7591 -0.055542 63.5098 -1.36917 64.2229 -2.62025C62.8217 -3.44596 61.3204 -4.30921 59.8316 -5.20999C57.7048 -6.48609 55.6155 -7.81223 53.4761 -9.03829C52.4252 -9.63881 51.2992 -10.1142 50.1858 -10.5896C48.3592 -11.3653 46.4826 -11.2902 44.6685 -10.6397C43.43 -10.2018 42.279 -9.50119 41.0654 -8.91318C41.2281 -8.37521 41.3657 -7.91232 41.5158 -7.46193C42.2289 -7.78721 42.8795 -8.16253 43.5676 -8.38773C46.0822 -9.23846 48.5719 -9.20093 51.0615 -8.17504C54.0266 -6.9615 56.7164 -5.29756 59.4187 -3.63363C60.1444 -3.18324 60.8575 -2.69532 61.6081 -2.28246C61.9334 -2.0948 61.9709 -1.95718 61.7833 -1.64441C60.4571 0.732639 59.131 3.10969 57.8174 5.49925C56.8165 7.32583 55.5654 8.95223 54.0516 10.3785C53.0382 11.3293 51.8372 11.9173 50.4735 12.3176C49.335 12.6554 48.2216 12.9432 46.9205 12.8431C47.0581 13.3685 47.1582 13.8064 47.2583 14.2068C50.0106 14.5946 52.5628 14.1817 54.7898 12.5053C56.1159 11.4919 57.0542 10.1157 57.8674 8.66448C59.2936 6.21237 60.6448 3.72272 62.021 1.25809ZM61.9334 15.1075C60.4446 16.3461 58.9684 17.6097 57.4671 18.8733C57.9925 19.7115 58.5305 20.5748 59.081 21.4755C61.5206 19.1986 63.9351 16.9466 66.3998 14.6446C63.9727 12.3802 61.5456 10.1157 59.081 7.81375C58.543 8.67699 57.9925 9.55275 57.442 10.4285C58.6306 11.4043 59.8066 12.3677 60.9826 13.331C61.3454 13.6313 61.7082 13.9315 62.046 14.2693C62.3713 14.5821 62.2462 14.8448 61.9334 15.1075ZM61.7207 14.6446C60.1569 13.356 58.6681 12.13 57.1543 10.8789C56.5162 11.5795 55.9783 12.1925 55.4028 12.8306C55.9658 13.281 56.5288 13.7439 57.1042 14.1943C57.5046 14.507 57.4796 14.7948 57.0917 15.095C56.5287 15.5329 55.9658 15.9958 55.3903 16.4462C55.9658 17.0842 56.5288 17.7098 57.1418 18.3979C58.6431 17.1593 60.1193 15.9458 61.7207 14.6446ZM56.9041 14.6321C56.2285 14.1442 55.653 13.7188 55.0525 13.3185C54.9649 13.2559 54.7898 13.2684 54.6897 13.306C53.7013 13.7564 52.713 14.2193 51.7997 14.6446C52.763 15.07 53.8264 15.5329 54.9774 16.0333C55.5404 15.6205 56.1784 15.1576 56.9041 14.6321ZM65.5866 20.0118C67.2755 18.3854 68.9395 16.7465 70.6284 15.1326C70.9412 14.8323 71.0663 14.5696 70.7035 14.2193C69.1772 12.7305 67.6759 11.2292 66.1495 9.75292C64.3855 8.05145 62.5965 6.38752 60.7574 4.64851C60.2945 5.46172 59.8691 6.18735 59.4938 6.938C59.4187 7.08813 59.4938 7.41341 59.6189 7.53851C61.9209 9.70288 64.2479 11.8422 66.5749 13.9816C67.238 14.5946 67.238 14.6822 66.5749 15.2952C64.961 16.7715 63.3722 18.2603 61.7708 19.7365C61.0827 20.3746 60.4071 21.0251 59.694 21.6382C59.3937 21.8884 59.3437 22.1261 59.5313 22.4514C59.9192 23.127 60.307 23.815 60.7824 24.6283C62.4213 23.0519 64.0102 21.5381 65.5866 20.0118ZM58.1426 35.5126C60.2069 34.3116 62.2337 33.0605 64.2104 31.872C62.659 29.1446 61.0577 26.3172 59.4563 23.4898C58.5805 21.9509 57.7423 20.3996 56.7915 18.9108C55.2151 16.4462 52.813 15.2702 49.9731 14.9074C49.4602 14.8448 48.9222 14.9699 48.3967 14.9949C48.0464 15.0075 47.496 14.8198 47.3959 14.9699C47.1457 15.3578 47.0831 15.8707 46.9455 16.3836C47.571 16.4212 48.134 16.4087 48.697 16.4962C51.8372 16.9466 54.2893 18.548 56.0909 21.1252C57.0292 22.4764 57.8924 23.8776 58.7432 25.2913C59.4438 26.4548 60.0693 27.6559 60.7199 28.8444C61.1077 29.545 61.483 30.2456 61.8208 30.9712C61.8834 31.1088 61.7958 31.4341 61.6707 31.4967C58.6806 33.2857 55.703 35.1123 52.6504 36.7762C51.024 37.6645 49.2099 38.2525 47.3208 38.29C46.5201 38.3025 45.7069 38.0398 44.8937 37.9522C43.6927 37.8146 42.6293 37.3642 41.5533 36.6386C41.3907 37.1641 41.2531 37.6144 41.128 38.0523C43.1047 39.4911 45.2315 40.4669 47.7462 40.3793C49.0348 40.3418 50.2483 40.004 51.3493 39.4035C53.6388 38.1524 55.8907 36.8388 58.1426 35.5126ZM44.8186 40.6671C45.1439 41.0925 45.5193 41.5428 45.8696 42.0182C46.1198 42.3435 46.3575 42.6813 46.5451 43.0441C46.6953 43.3194 46.8454 43.457 47.1707 43.4195C47.8212 43.3319 48.4718 43.2693 49.235 43.1818C48.9097 42.4311 48.6094 41.7555 48.2966 41.0799C48.2591 40.9924 48.084 40.9423 47.9589 40.9298C46.9205 40.8297 45.8696 40.7421 44.8186 40.6671ZM53.5011 46.0592C51.5369 46.4095 49.5853 46.7849 47.6836 47.1352C47.6836 48.111 47.6836 49.0994 47.6836 50.1878C51.0115 49.4246 54.2393 48.6865 57.4921 47.9359C56.5287 44.7831 55.5529 41.5929 54.5646 38.3526C53.6262 38.853 52.738 39.3284 51.8372 39.8164C52.3001 41.0174 52.763 42.1934 53.2009 43.3944C53.4636 44.095 53.6888 44.8082 53.9015 45.5213C54.0016 45.8591 53.8514 45.9967 53.5011 46.0592ZM47.6336 53.8034C52.2751 52.6399 56.8791 51.4889 61.5581 50.3129C60.2069 45.6714 59.1435 41.0424 57.5296 36.501C56.6664 37.0014 55.8657 37.4518 55.0525 37.9272C55.2652 38.7279 55.4278 39.4786 55.653 40.1917C56.4036 42.6313 57.1793 45.0584 57.9425 47.4855C58.2177 48.3487 58.2052 48.3362 57.2919 48.5364C55.065 49.0368 52.8381 49.5623 50.5986 50.0752C49.7604 50.2629 48.9222 50.4755 48.084 50.6632C47.7712 50.7258 47.6086 50.8509 47.6086 51.2012C47.6461 52.0144 47.6336 52.8276 47.6336 53.8034ZM47.496 46.1969C47.521 46.322 47.7837 46.4971 47.8963 46.4846C49.6853 46.2094 51.4744 45.9091 53.4136 45.5963C52.7004 43.6822 52.0249 41.8681 51.3493 40.0666C50.461 40.3418 49.6603 40.6045 48.8471 40.8547C49.1849 41.7055 49.5102 42.5437 49.9105 43.5446C48.8596 43.7072 47.9714 43.8448 47.0581 43.995C47.1957 44.7081 47.3208 45.4587 47.496 46.1969ZM39.464 61.8604C41.5033 61.8354 43.5551 61.7853 45.5943 61.7728C46.0697 61.7728 46.5576 61.8604 47.008 61.9104C47.008 59.4583 46.983 57.0062 47.0205 54.5666C47.0456 53.0903 47.2457 51.6015 47.1832 50.1252C47.0956 47.9484 47.2332 45.6964 46.2324 43.6572C45.3941 41.9557 44.2306 40.517 42.4666 39.6537C41.8911 39.366 41.3406 39.0157 40.8277 38.7154C40.4649 39.0407 40.1146 39.366 39.7393 39.7038C40.3898 40.1666 41.0779 40.5295 41.6159 41.0424C43.0797 42.4436 44.3683 43.9699 44.8437 46.0467C45.3566 48.2361 45.5318 50.438 45.5067 52.6774C45.4817 54.8043 45.4567 56.9311 45.4192 59.058C45.4192 59.3457 45.3691 59.646 45.3066 59.9337C45.2816 60.0338 45.1564 60.1589 45.0438 60.1839C44.7936 60.2465 44.5434 60.259 44.2807 60.2715C41.5909 60.309 38.8885 60.3841 36.1987 60.3591C34.0594 60.3341 31.945 60.0838 29.9433 59.3082C28.8549 58.8828 27.879 58.2823 27.1284 57.344C26.8532 57.0062 26.4278 56.781 26.14 56.4432C25.6897 55.8802 25.3018 55.2797 24.8389 54.6166C24.5011 55.0045 24.2009 55.3422 23.813 55.7926C24.5136 56.8185 25.1767 58.0196 26.0525 59.0454C27.4036 60.6093 29.1551 61.5351 31.2444 61.7853C32.996 61.998 34.7475 62.0856 36.5115 61.9104C37.4998 61.7978 38.4882 61.8729 39.464 61.8604ZM30.7065 68.2284C30.9192 67.1649 31.1193 66.2016 31.282 65.2258C31.4071 64.5001 31.4821 63.7495 31.6198 63.0239C31.6948 62.586 31.6823 62.3358 31.1193 62.2857C30.4688 62.2232 29.8182 62.0105 29.1677 61.8604C29.0175 62.7987 28.8674 63.6869 28.7048 64.6878C28.1418 64.4876 27.7164 64.3625 27.3035 64.1999C26.8907 64.0372 26.4778 63.8371 26.0274 63.6369C25.7522 64.4751 25.502 65.2758 25.2017 66.1641C27.0158 66.8522 28.8048 67.5153 30.7065 68.2284ZM24.964 66.702C24.5136 67.5277 24.0257 68.441 23.5128 69.3919C26.7406 70.3802 29.9058 71.3436 33.096 72.3194C33.8467 69.0791 34.5848 65.8638 35.348 62.586C34.2721 62.5359 33.2837 62.4734 32.2703 62.4234C32.0076 63.9997 31.7574 65.5761 31.4822 67.1524C31.4196 67.5027 31.2945 67.8405 31.2569 68.1908C31.2069 68.7413 30.9567 68.8539 30.4688 68.6787C28.6672 68.0157 26.8532 67.3776 24.964 66.702ZM26.065 62.8737C26.0775 62.9738 26.1651 63.0989 26.2526 63.1365C26.9157 63.4492 27.6038 63.737 28.3545 64.0748C28.4295 63.3241 28.4796 62.7111 28.5421 62.1106C28.5796 61.7478 28.4545 61.5351 28.1293 61.3224C27.4036 60.8345 26.728 60.2715 26.0274 59.7335C25.9524 59.6835 25.8648 59.646 25.8273 59.6209C25.9023 60.7094 25.9774 61.7853 26.065 62.8737ZM35.4731 76.3854C36.6491 71.7189 37.8001 67.1399 38.9636 62.4734C37.9752 62.4734 37.137 62.4609 36.2988 62.4859C36.1487 62.4859 35.911 62.6861 35.8859 62.8237C35.1478 65.9514 34.4222 69.0666 33.7216 72.2068C33.5464 72.995 33.5214 73.0325 32.7207 72.7823C30.0434 71.9566 27.3786 71.1184 24.7013 70.2926C24.2884 70.1675 23.8756 70.0174 23.4502 69.9799C23.2375 69.9674 22.9373 70.155 22.8122 70.3427C22.4118 70.9557 22.0865 71.5938 21.6612 72.3444C26.1901 73.9833 30.8316 75.0342 35.4731 76.3854ZM1.75651 64.1999C1.61889 63.4367 1.55633 62.6485 1.45624 61.8228C1.10594 61.8979 0.705596 61.9605 0.330276 62.0856C0.205169 62.1231 0.0800623 62.3483 0.0675501 62.4859C0.0300211 63.1115 -0.0325476 63.7495 0.0550302 64.35C0.205161 65.3634 0.392829 66.3893 0.693092 67.3776C1.4062 69.6796 3.12018 71.1559 5.09689 72.3069C7.82424 73.8958 10.6141 75.397 13.3665 76.9484C14.6051 77.649 15.8437 78.3621 17.0197 79.0377C17.8704 77.5989 18.7587 76.0851 19.6595 74.5838C20.923 72.482 22.2367 70.4052 23.4627 68.2784C24.401 66.6645 25.2268 64.9881 25.477 63.0989C25.6271 61.8854 25.502 60.6843 25.0641 59.5709C24.5762 58.3198 23.9256 57.1438 23.3376 55.8927C22.7746 56.0554 22.3368 56.193 21.8739 56.3306C21.9239 56.4682 21.9239 56.6183 21.999 56.7059C22.8372 57.7693 22.9998 59.083 23.2751 60.3341C23.6879 62.2107 23.3001 64.0122 22.612 65.7887C21.3984 68.9415 19.5594 71.7564 17.8204 74.6214C17.445 75.2344 17.0322 75.8349 16.6694 76.448C16.5067 76.7107 16.4066 76.8108 16.0814 76.6231C14.6426 75.8224 13.1663 75.1093 11.7401 74.2836C10.0512 73.3203 8.3622 72.3569 6.76083 71.256C5.37213 70.3052 4.03347 69.2292 3.15771 67.7404C2.71983 66.9898 2.45711 66.1391 2.13184 65.3384C2.00672 64.9881 1.83157 64.6002 1.75651 64.1999ZM3.72069 60.9471C2.88248 61.3599 2.71984 62.2357 2.75737 63.0239C2.79491 64.0122 3.04512 64.9881 3.27031 65.9514C3.38291 66.4393 3.63312 66.8897 3.77074 67.24C4.45884 66.0014 5.12191 64.7128 5.88507 63.4743C6.36048 62.6861 6.97351 61.9855 7.51147 61.2473C8.07446 60.4717 8.28713 59.5959 8.31216 58.6451C8.33718 58.007 8.42475 57.3815 8.48731 56.7435C7.32381 58.6701 5.68489 59.9837 3.72069 60.9471ZM5.92259 64.3875C5.2345 65.451 4.5464 66.5269 4.43381 67.8655C4.39627 68.391 4.57143 68.7163 4.92173 69.029C5.64735 69.6671 6.38551 70.3052 7.1987 71.0183C7.24875 68.9915 7.97437 67.3026 8.66246 65.5886C9.10034 64.4751 9.33805 63.3366 9.10034 62.1481C9.00026 61.6477 8.73753 61.1723 8.54986 60.6593C7.63657 61.9479 6.73579 63.1365 5.92259 64.3875ZM10.5015 61.7728C10.9519 62.2107 11.5024 62.5485 12.0529 62.8737C12.5658 63.1865 13.0037 62.9613 13.329 62.5359C14.2298 61.3474 14.4049 60.0088 14.1297 58.5825C13.8294 57.0687 12.9036 55.8927 11.9528 54.7417C11.2772 53.916 10.5516 53.1403 9.88853 52.3897C9.61329 53.8785 9.21294 55.4298 9.0503 57.0062C8.86263 58.7452 9.13787 60.4592 10.5015 61.7728ZM0.430351 42.3435C0.292732 42.3936 0.0675502 42.5562 0.0800624 42.6688C0.117591 43.3569 0.205169 44.0325 0.267723 44.7081C0.417854 46.2344 1.23106 47.4604 2.14434 48.6239C2.76988 49.4121 3.65815 49.825 4.58395 50.0752C5.52225 50.3254 6.49809 50.4755 7.46143 50.5881C9.07532 50.7758 10.464 50.1503 11.7026 49.1869C12.766 48.3612 13.8044 47.5105 14.3674 46.2469C14.6176 45.7089 14.7802 45.1084 14.8553 44.5204C15.1055 42.5687 14.53 40.7922 13.5417 39.1408C13.4666 39.0157 13.1538 38.9656 12.9537 38.9781C11.9903 39.0532 11.027 39.2283 10.0637 39.2283C8.98774 39.2283 8.06195 38.7279 7.1987 38.1149C6.97351 37.9522 6.76081 37.8021 6.43553 37.5769C6.79835 39.0532 7.11112 40.4294 7.48644 41.7805C7.53648 41.9432 7.86178 42.1058 8.07446 42.1309C9.66333 42.3811 10.7518 43.3069 11.1021 44.8207C11.59 46.91 10.489 48.9242 7.89931 48.8742C6.36048 48.8491 5.5848 47.8733 5.10939 46.7223C4.63398 45.5713 4.83416 44.3202 5.64736 43.2693C5.77247 43.1192 5.87255 42.9065 6.03519 42.8315C6.81086 42.4811 6.69826 41.9682 6.46056 41.3051C6.08524 40.2167 5.81 39.0907 5.44719 37.8271C5.30957 38.1399 5.22199 38.3151 5.15944 38.5027C4.33372 40.6796 2.50714 41.6554 0.430351 42.3435ZM5.72243 44.4579C5.48472 45.6839 6.0477 47.2478 6.92345 47.7732C7.82423 48.3112 8.67497 47.9108 9.50068 47.5605C10.3639 47.1977 10.3514 46.372 10.3514 45.5963C10.3514 44.1701 9.60077 43.0692 8.43726 42.7564C7.23623 42.4311 5.96013 43.2443 5.72243 44.4579ZM1.28109 29.7076C1.16849 29.7577 1.01836 29.8327 0.85572 29.9078C0.00498921 30.2831 0.0550304 30.2706 0.292739 31.2089C0.643043 32.6852 2.71983 34.2991 4.24615 34.0739C5.34709 33.9113 6.31044 33.561 6.94849 32.5726C7.84927 31.1714 7.97436 29.8327 7.31129 28.2439C6.84839 28.3064 6.43554 28.369 6.02269 28.4315C6.07273 29.1071 6.14779 29.7827 6.1603 30.4583C6.18533 31.4216 5.63485 32.2223 4.83416 32.46C3.62061 32.8103 2.7949 32.5851 2.21941 31.6343C1.85659 31.0463 1.59386 30.3832 1.28109 29.7076ZM1.93165 29.2322C1.88161 29.2948 1.8691 29.4324 1.90663 29.5075C2.21941 30.2206 2.45711 30.9837 2.90749 31.5968C3.34537 32.1973 4.071 32.2723 4.77161 31.922C5.39715 31.6093 5.67239 31.0588 5.64736 30.3832C5.63485 29.8953 5.5723 29.4074 5.50975 28.932C5.4597 28.5942 5.29707 28.4065 4.94676 28.2188C4.33373 27.8685 3.83329 27.3306 3.29533 26.8552C3.15771 26.7301 3.07014 26.5549 2.88248 26.2797C2.88248 27.4682 2.64476 28.4315 1.93165 29.2322ZM0.15512 22.1636C0.0800549 22.2137 0.0550304 22.3763 0.0550304 22.4764C-0.00752297 23.7024 0.980827 24.966 2.16936 25.1662C2.85745 25.2788 3.19525 24.7784 3.50802 24.3155C4.03347 23.5523 3.97092 22.2262 3.40793 21.488C3.35789 21.413 3.28282 21.3254 3.20776 21.3004C2.05676 20.875 2.05677 20.875 1.25608 20.0368C0.993354 20.8375 0.918281 21.6757 0.15512 22.1636ZM2.15684 4.12307C0.968322 4.31073 -0.0200351 5.57432 0.0425183 6.81289C0.0425183 6.92548 0.0800626 7.08813 0.142616 7.12566C0.918281 7.61358 0.980827 8.4518 1.23105 9.2525C1.83157 8.67699 2.26944 7.97639 3.18272 7.97639C3.2703 7.97639 3.35788 7.83878 3.42043 7.7512C4.14606 6.68778 3.92087 5.04886 2.90749 4.28571C2.74486 4.13558 2.40707 4.08553 2.15684 4.12307ZM2.23191 0.519959C2.64477 1.19554 2.78239 2.02125 3.04511 2.79692C3.48299 1.90865 4.25866 1.28312 5.22199 0.907791C5.28455 0.882771 5.35962 0.807705 5.38464 0.745148C5.60983 -0.143116 5.86005 -1.04389 5.4597 -1.94467C5.18446 -2.58272 4.62147 -2.82043 3.98342 -2.83294C3.37039 -2.85796 2.92001 -2.48263 2.59473 -1.9822C2.41958 -1.70696 2.33199 -1.36917 2.16936 -1.08143C1.88161 -0.530952 1.85659 -0.0805624 2.23191 0.519959ZM0.39283 -2.23242C-0.107605 -0.931293 -0.0825885 -0.918785 1.2936 -0.455887C1.59386 -1.09394 1.85659 -1.75701 2.21941 -2.34501C2.83243 -3.33337 3.67066 -3.55856 4.88421 -3.17073C5.6849 -2.908 6.19783 -2.13233 6.17281 -1.13147C6.1603 -0.468399 6.08524 0.182167 6.03519 0.845238C6.44805 0.907791 6.8484 0.970345 7.33632 1.04541C7.64909 0.232208 7.91181 -0.631035 7.68661 -1.53181C7.36133 -2.82042 6.79835 -3.93389 5.44719 -4.50938C3.18274 -5.47271 1.03088 -3.88384 0.39283 -2.23242ZM7.17368 -21.2989C6.06021 -21.1487 4.94675 -20.886 3.87082 -20.5357C2.73234 -20.1604 2.01923 -19.2596 1.34365 -18.2713C0.330276 -16.77 0.192657 -15.0935 0.0675505 -13.392C0.0550382 -13.292 0.267715 -13.1043 0.417846 -13.0668C1.91914 -12.5538 3.39542 -11.9908 4.35874 -10.6397C4.78411 -10.0392 5.08437 -9.35106 5.48472 -8.63794C5.79749 -9.71387 6.11025 -10.7773 6.42303 -11.8407C6.47307 -11.9908 6.48558 -12.1535 6.54813 -12.2911C6.78584 -12.754 6.7358 -13.0668 6.26039 -13.392C4.72157 -14.4555 4.43381 -17.2203 5.97264 -18.7467C7.38636 -20.1479 9.67584 -19.7225 10.5891 -18.4464C11.4399 -17.2579 11.6776 -15.4813 10.3264 -14.0551C9.71337 -13.4046 9.01277 -12.9417 8.09948 -12.8666C7.6616 -12.8291 7.49895 -12.6039 7.41138 -12.1785C7.13615 -10.9149 6.79835 -9.67634 6.46056 -8.37522C7.18619 -8.80058 7.81173 -9.21344 8.4748 -9.55123C9.55073 -10.1017 10.7142 -10.0266 11.8777 -9.91404C11.9153 -9.91404 11.9528 -9.88902 11.9903 -9.87651C13.5166 -9.56374 13.5167 -9.56374 14.1672 -11.0025C14.8928 -12.6289 15.1055 -14.2928 14.7177 -16.0568C14.4174 -17.433 13.5167 -18.3713 12.5283 -19.2596C12.0904 -19.6474 11.6025 -19.9852 11.1271 -20.323C9.95107 -21.1738 8.5999 -21.4865 7.17368 -21.2989ZM8.08697 -13.4171C9.03779 -13.5046 9.67583 -14.0801 10.0512 -14.9058C10.2513 -15.3562 10.3139 -15.8692 10.439 -16.3571C10.3514 -18.021 9.10034 -19.0469 7.46143 -18.7341C6.67325 -18.584 6.33546 -17.9084 6.01018 -17.2954C5.52225 -16.3946 5.47221 -15.4438 5.98515 -14.543C6.43554 -13.7423 7.16117 -13.3295 8.08697 -13.4171ZM9.42562 -25.565C9.57575 -24.7268 9.7384 -23.8761 9.90104 -23.0629C10.8644 -24.2264 11.9028 -25.3899 12.8536 -26.6285C14.1297 -28.2674 14.6176 -30.119 13.9545 -32.1582C13.8169 -32.5961 13.5292 -32.9965 13.2414 -33.3593C12.9787 -33.6971 12.6034 -33.8347 12.1405 -33.647C10.3264 -32.9339 9.47566 -31.4952 9.11285 -29.6811C8.8251 -28.2799 9.18792 -26.9287 9.42562 -25.565ZM8.72502 -36.1742C8.21207 -37.6129 7.7742 -39.0767 7.32381 -40.5279C7.22372 -40.8532 7.23622 -41.2286 7.18618 -41.6789C6.44804 -41.0659 5.73494 -40.4779 5.02182 -39.9024C4.12105 -39.1643 4.2962 -38.1759 4.70905 -37.4003C5.53477 -35.8489 6.54813 -34.3977 7.48644 -32.9214C7.79921 -32.4335 8.14952 -31.9581 8.49982 -31.4451C9.45064 -32.9839 9.30051 -34.5478 8.72502 -36.1742ZM2.81992 -33.1216C2.95754 -32.446 3.23277 -31.8955 3.90836 -31.5702C5.81 -30.6444 7.37385 -29.3433 8.43726 -27.3166C8.4748 -27.5668 8.49982 -27.6794 8.49982 -27.792C8.43726 -28.43 8.3622 -29.0681 8.31216 -29.7186C8.22458 -30.707 7.87428 -31.5952 7.24873 -32.3584C5.80999 -34.0974 4.59645 -35.949 3.8458 -38.1509C3.1452 -36.512 2.45712 -34.9231 2.81992 -33.1216ZM9.288 -45.4072C7.59904 -44.4563 5.89757 -43.5055 4.24615 -42.4796C1.70645 -40.9033 0.430351 -38.4887 0.0550307 -35.5862C-0.0575715 -34.7605 0.0300063 -33.9097 0.0550307 -33.0715C0.0550307 -32.9839 0.167641 -32.8588 0.255211 -32.8338C0.668068 -32.7212 1.08092 -32.6336 1.46876 -32.5461C1.55633 -33.2842 1.58135 -33.9848 1.71897 -34.6854C2.21941 -37.3752 3.54554 -39.5396 5.73493 -41.2286C7.94934 -42.9425 10.389 -44.2812 12.8286 -45.6324C13.9045 -46.2204 15.0054 -46.7833 16.0814 -47.3714C16.3691 -47.534 16.5067 -47.4965 16.6819 -47.2087C17.445 -45.9576 18.2707 -44.7316 19.0089 -43.468C19.9972 -41.779 20.9981 -40.0776 21.8739 -38.326C22.7121 -36.6371 23.3877 -34.8731 23.4252 -32.9464C23.4377 -32.1707 23.2876 -31.3951 23.1625 -30.6319C23.0624 -30.0189 22.9123 -29.4059 22.6996 -28.8178C22.4869 -28.2424 22.1616 -27.7044 21.8613 -27.0788C22.3618 -26.9287 22.7997 -26.8036 23.25 -26.666C23.9381 -28.0297 24.9015 -29.2307 25.2643 -30.8071C25.7522 -32.9589 25.5395 -34.9857 24.5512 -36.9123C23.8255 -38.3386 22.9748 -39.7147 22.1616 -41.1034C20.9731 -43.1177 19.7595 -45.1194 18.5835 -47.1336C18.0456 -48.0344 17.5576 -48.9727 17.0947 -49.7859C14.5175 -48.3347 11.8902 -46.8834 9.288 -45.4072Z" fill="#824FD4" fill-opacity="0.1"/>
</svg>
