<svg width="20" height="21" viewBox="0 0 20 21" fill="none" xmlns="http://www.w3.org/2000/svg">
<path d="M18.75 10.698C18.7505 10.9102 18.6961 11.119 18.5921 11.3039C18.488 11.4889 18.3379 11.6437 18.1562 11.7535L6.9 18.6394C6.71022 18.7556 6.49287 18.8191 6.27037 18.8232C6.04788 18.8273 5.82832 18.772 5.63438 18.6629C5.44227 18.5555 5.28225 18.3988 5.17075 18.2091C5.05926 18.0193 5.00032 17.8033 5 17.5832V3.81287C5.00032 3.59278 5.05926 3.37674 5.17075 3.18698C5.28225 2.99722 5.44227 2.84059 5.63438 2.73318C5.82832 2.62408 6.04788 2.56873 6.27037 2.57285C6.49287 2.57697 6.71022 2.64041 6.9 2.75662L18.1562 9.64255C18.3379 9.7523 18.488 9.90718 18.5921 10.0921C18.6961 10.2771 18.7505 10.4858 18.75 10.698Z" fill="#8A57DC"/>
</svg>
