<svg width="18" height="20" viewBox="0 0 18 20" fill="none" xmlns="http://www.w3.org/2000/svg">
<path d="M14.125 12.4062C13.2041 12.4048 12.3146 12.7411 11.6251 13.3516L8.118 11.1C8.33569 10.3828 8.33569 9.61718 8.118 8.9L11.6251 6.64844C12.3078 7.24836 13.1843 7.58126 14.0931 7.58573C15.0019 7.5902 15.8816 7.26595 16.5701 6.67277C17.2586 6.07959 17.7095 5.25748 17.8395 4.35803C17.9695 3.45858 17.77 2.54245 17.2776 1.77857C16.7853 1.01468 16.0334 0.454563 15.1605 0.201487C14.2877 -0.0515896 13.3527 0.0194449 12.5282 0.401492C11.7036 0.783539 11.0449 1.45084 10.6736 2.28033C10.3023 3.10983 10.2435 4.0456 10.5079 4.91508L6.99995 7.16406C6.45443 6.68196 5.78133 6.36758 5.0615 6.2587C4.34166 6.14982 3.6057 6.25105 2.942 6.55024C2.2783 6.84944 1.71508 7.33387 1.31998 7.94536C0.924889 8.55685 0.714722 9.2694 0.714722 9.99742C0.714722 10.7254 0.924889 11.438 1.31998 12.0495C1.71508 12.661 2.2783 13.1454 2.942 13.4446C3.6057 13.7438 4.34166 13.845 5.0615 13.7361C5.78133 13.6273 6.45443 13.3129 6.99995 12.8308L10.5071 15.0875C10.2757 15.8485 10.2902 16.6632 10.5485 17.4155C10.8068 18.1678 11.2958 18.8195 11.9459 19.2779C12.596 19.7362 13.3742 19.9779 14.1695 19.9685C14.9649 19.9591 15.7371 19.6991 16.3762 19.2254C17.0152 18.7518 17.4887 18.0887 17.7291 17.3305C17.9696 16.5723 17.9648 15.7575 17.7154 15.0022C17.4661 14.2468 16.9849 13.5893 16.3403 13.1233C15.6956 12.6572 14.9205 12.4063 14.125 12.4062ZM14.125 2.09375C14.465 2.09375 14.7973 2.19455 15.0799 2.38341C15.3626 2.57227 15.5829 2.8407 15.7129 3.15476C15.843 3.46882 15.8771 3.8144 15.8108 4.14781C15.7444 4.48121 15.5807 4.78747 15.3404 5.02784C15.1 5.26821 14.7937 5.4319 14.4603 5.49822C14.1269 5.56454 13.7814 5.5305 13.4673 5.40042C13.1532 5.27033 12.8848 5.05003 12.6959 4.76738C12.5071 4.48474 12.4063 4.15243 12.4063 3.8125C12.4063 3.35666 12.5874 2.91949 12.9097 2.59716C13.232 2.27483 13.6692 2.09375 14.125 2.09375ZM4.50003 11.7187C4.1601 11.7187 3.82779 11.6179 3.54515 11.4291C3.2625 11.2402 3.0422 10.9718 2.91211 10.6577C2.78203 10.3437 2.74799 9.99809 2.81431 9.66469C2.88063 9.33128 3.04432 9.02503 3.28469 8.78466C3.52506 8.54429 3.83132 8.38059 4.16472 8.31427C4.49813 8.24796 4.84371 8.28199 5.15777 8.41208C5.47183 8.54217 5.74026 8.76247 5.92912 9.04511C6.11798 9.32776 6.21878 9.66006 6.21878 10C6.21878 10.4558 6.0377 10.893 5.71537 11.2153C5.39304 11.5377 4.95587 11.7187 4.50003 11.7187ZM14.125 17.9062C13.7851 17.9062 13.4528 17.8054 13.1701 17.6166C12.8875 17.4277 12.6672 17.1593 12.5371 16.8452C12.407 16.5312 12.373 16.1856 12.4393 15.8522C12.5056 15.5188 12.6693 15.2125 12.9097 14.9722C13.1501 14.7318 13.4563 14.5681 13.7897 14.5018C14.1231 14.4355 14.4687 14.4695 14.7828 14.5996C15.0968 14.7297 15.3653 14.95 15.5541 15.2326C15.743 15.5153 15.8438 15.8476 15.8438 16.1875C15.8438 16.6433 15.6627 17.0805 15.3404 17.4028C15.018 17.7252 14.5809 17.9062 14.125 17.9062Z" fill="#737373"/>
</svg>
