<svg width="20" height="21" viewBox="0 0 20 21" fill="none" xmlns="http://www.w3.org/2000/svg">
<path d="M18.5671 9.89019L12.3171 16.1402C12.2297 16.2277 12.1183 16.2873 11.997 16.3115C11.8757 16.3356 11.75 16.3232 11.6357 16.2759C11.5214 16.2285 11.4238 16.1484 11.3551 16.0455C11.2865 15.9426 11.2499 15.8217 11.25 15.698V12.591C6.78901 12.8441 3.73042 15.7371 2.87183 16.6535C2.73701 16.7975 2.56021 16.8952 2.36659 16.9329C2.17298 16.9706 1.97241 16.9463 1.79343 16.8633C1.61446 16.7804 1.46619 16.6432 1.36974 16.4711C1.27328 16.2991 1.23355 16.101 1.2562 15.905C1.54605 13.3847 2.92651 10.9605 5.1437 9.07925C6.98511 7.51675 9.22339 6.52535 11.25 6.35191V3.198C11.2499 3.07432 11.2865 2.95338 11.3551 2.85051C11.4238 2.74764 11.5214 2.66746 11.6357 2.62011C11.75 2.57277 11.8757 2.56039 11.997 2.58455C12.1183 2.6087 12.2297 2.66831 12.3171 2.75581L18.5671 9.00581C18.6252 9.06386 18.6713 9.13279 18.7028 9.20866C18.7343 9.28454 18.7504 9.36587 18.7504 9.448C18.7504 9.53014 18.7343 9.61147 18.7028 9.68734C18.6713 9.76321 18.6252 9.83214 18.5671 9.89019Z" fill="white"/>
</svg>
